<svg width="478" height="139" viewBox="0 0 478 139" fill="none" xmlns="http://www.w3.org/2000/svg">
<circle cx="35" cy="70" r="35" fill="#1D1C24"/>
<path d="M3.04625 129.416V128.328H4.58225L4.91825 125.672H3.39825V124.584H5.04625L5.44625 121.384H6.47025L6.08625 124.584H8.29425L8.71025 121.384H9.71825L9.33425 124.584H10.7423V125.672H9.20625L8.87025 128.328H10.3903V129.416H8.74225L8.31025 133H7.27025L7.70225 129.416H5.49425L5.04625 133H4.02225L4.45425 129.416H3.04625ZM8.16625 125.672H5.94225L5.62225 128.328H7.83025L8.16625 125.672ZM19.6973 133H13.3613V131.816H15.9693V123.144C15.9693 123.08 15.9746 123.021 15.9852 122.968L13.8573 124.872L13.0733 123.928L16.2253 121.208H17.3933V131.816H19.6973V133ZM25.3565 121.272C27.2125 121.272 28.5992 121.763 29.5165 122.744C30.4338 123.725 30.8925 125.176 30.8925 127.096C30.8925 128.024 30.7698 128.856 30.5245 129.592C30.2898 130.317 29.9378 130.936 29.4685 131.448C29.0098 131.949 28.4392 132.333 27.7565 132.6C27.0845 132.867 26.3058 133 25.4205 133H22.4125V121.272H25.3565ZM25.2285 131.784C26.6152 131.784 27.6498 131.373 28.3325 130.552C29.0152 129.731 29.3565 128.579 29.3565 127.096C29.3565 125.581 29.0205 124.435 28.3485 123.656C27.6872 122.867 26.6472 122.472 25.2285 122.472H23.9005V131.784H25.2285ZM40.2129 133H33.8769V131.816H36.4849V123.144C36.4849 123.08 36.4902 123.021 36.5009 122.968L34.3729 124.872L33.5889 123.928L36.7409 121.208H37.9089V131.816H40.2129V133ZM47.3601 133.208C46.6348 133.208 45.9575 133.069 45.3281 132.792C44.7095 132.515 44.1708 132.12 43.7121 131.608C43.2641 131.085 42.9068 130.451 42.6401 129.704C42.3841 128.947 42.2561 128.093 42.2561 127.144C42.2561 126.195 42.3841 125.347 42.6401 124.6C42.9068 123.843 43.2695 123.203 43.7281 122.68C44.1975 122.147 44.7468 121.741 45.3761 121.464C46.0161 121.187 46.7095 121.048 47.4561 121.048C47.8081 121.048 48.1441 121.091 48.4641 121.176C48.7841 121.251 49.0775 121.357 49.3441 121.496C49.6215 121.635 49.8668 121.789 50.0801 121.96C50.3041 122.131 50.5015 122.312 50.6721 122.504L49.8721 123.464C49.5628 123.133 49.2108 122.867 48.8161 122.664C48.4321 122.451 47.9841 122.344 47.4721 122.344C46.9175 122.344 46.4108 122.456 45.9521 122.68C45.5041 122.893 45.1148 123.208 44.7841 123.624C44.4641 124.029 44.2135 124.525 44.0321 125.112C43.8615 125.699 43.7761 126.36 43.7761 127.096C43.7761 127.832 43.8615 128.499 44.0321 129.096C44.2028 129.693 44.4428 130.2 44.7521 130.616C45.0721 131.032 45.4561 131.352 45.9041 131.576C46.3628 131.8 46.8695 131.912 47.4241 131.912C48.0001 131.912 48.5015 131.795 48.9281 131.56C49.3655 131.325 49.7708 131.005 50.1441 130.6L50.9601 131.528C50.4801 132.072 49.9521 132.488 49.3761 132.776C48.8001 133.064 48.1281 133.208 47.3601 133.208ZM60.2513 133H52.3793V131.976L56.4273 128.088C56.7366 127.757 57.0193 127.448 57.2753 127.16C57.5419 126.861 57.7659 126.563 57.9473 126.264C58.1393 125.965 58.2886 125.667 58.3953 125.368C58.5019 125.059 58.5553 124.733 58.5553 124.392C58.5339 123.688 58.3206 123.171 57.9153 122.84C57.5099 122.499 57.0033 122.328 56.3953 122.328C56.0646 122.328 55.7553 122.387 55.4673 122.504C55.1793 122.611 54.9286 122.771 54.7153 122.984C54.5126 123.187 54.3526 123.427 54.2353 123.704C54.1179 123.981 54.0593 124.291 54.0593 124.632L52.6193 124.392C52.6939 123.848 52.8433 123.373 53.0673 122.968C53.2913 122.552 53.5686 122.205 53.8993 121.928C54.2406 121.64 54.6299 121.427 55.0673 121.288C55.5046 121.139 55.9739 121.064 56.4753 121.064C56.9766 121.064 57.4406 121.139 57.8673 121.288C58.3046 121.437 58.6833 121.656 59.0033 121.944C59.3233 122.221 59.5739 122.563 59.7552 122.968C59.9366 123.373 60.0273 123.837 60.0273 124.36C60.0273 124.797 59.9633 125.203 59.8353 125.576C59.7073 125.949 59.5313 126.312 59.3073 126.664C59.0833 127.005 58.8219 127.341 58.5233 127.672C58.2246 127.992 57.9099 128.317 57.5793 128.648L54.2993 131.896C54.5233 131.832 54.7473 131.784 54.9713 131.752C55.2059 131.72 55.4246 131.704 55.6273 131.704H60.2513V133ZM70.3425 129.88H68.5665V133H67.2705V129.88H61.4145V128.792L67.1905 121.144H68.5665V128.728H70.3425V129.88ZM67.2705 123.832C67.2705 123.693 67.2758 123.539 67.2865 123.368C67.2972 123.187 67.3132 123.011 67.3345 122.84L63.0145 128.728H67.2705V123.832Z" fill="#222222"/>
<path d="M5.48463 4.16C6.13529 4.16 6.74329 4.224 7.30863 4.352C7.87396 4.46933 8.36463 4.672 8.78063 4.96C9.19663 5.248 9.52196 5.632 9.75663 6.112C10.002 6.58133 10.1246 7.168 10.1246 7.872C10.1246 8.544 10.002 9.13067 9.75663 9.632C9.52196 10.1227 9.19663 10.528 8.78063 10.848C8.37529 11.168 7.89529 11.408 7.34063 11.568C6.78596 11.7173 6.18863 11.792 5.54863 11.792H3.96463V16H1.59663V4.16H5.48463ZM5.38863 9.92C6.99929 9.92 7.80463 9.23733 7.80463 7.872C7.80463 7.17867 7.59129 6.69867 7.16463 6.432C6.74863 6.16533 6.12996 6.032 5.30863 6.032H3.96463V9.92H5.38863ZM13.9965 7.04L14.1565 8.624H14.2205C14.5512 8.03733 14.9352 7.58933 15.3725 7.28C15.8205 6.97067 16.2845 6.816 16.7645 6.816C17.0098 6.816 17.2125 6.83733 17.3725 6.88C17.5325 6.912 17.6818 6.95467 17.8205 7.008L17.4045 9.04C17.2552 8.98667 17.1058 8.94933 16.9565 8.928C16.8178 8.90667 16.6578 8.896 16.4765 8.896C16.1245 8.896 15.7565 9.02933 15.3725 9.296C14.9885 9.552 14.6685 10.0053 14.4125 10.656V16H12.0765V7.04H13.9965ZM18.8372 5.6V3.328H21.1733V5.6H18.8372ZM18.8213 7.04H21.1573V16H18.8213V7.04ZM25.3871 7.04L25.5471 8.24H25.6111C25.9845 7.84533 26.3898 7.50933 26.8271 7.232C27.2645 6.95467 27.7765 6.816 28.3631 6.816C29.0031 6.816 29.5205 6.94933 29.9151 7.216C30.3098 7.48267 30.6138 7.872 30.8271 8.384C31.2325 7.936 31.6591 7.56267 32.1071 7.264C32.5658 6.96533 33.0885 6.816 33.6751 6.816C34.6351 6.816 35.3391 7.136 35.7871 7.776C36.2351 8.40533 36.4591 9.28533 36.4591 10.416V16H34.1071V10.704C34.1071 10 34.0058 9.51467 33.8031 9.248C33.6005 8.97067 33.2858 8.832 32.8591 8.832C32.3471 8.832 31.7711 9.168 31.1311 9.84V16H28.7791V10.704C28.7791 10 28.6778 9.51467 28.4751 9.248C28.2725 8.97067 27.9578 8.832 27.5311 8.832C27.0191 8.832 26.4431 9.168 25.8031 9.84V16H23.4671V7.04H25.3871ZM41.097 16.16C40.7023 16.16 40.3397 16.1013 40.009 15.984C39.6783 15.856 39.3957 15.68 39.161 15.456C38.937 15.2213 38.761 14.944 38.633 14.624C38.505 14.304 38.441 13.952 38.441 13.568C38.3877 12.4693 38.7663 11.6587 39.577 11.136C40.3983 10.6027 41.737 10.3093 43.593 10.256C43.6357 9.88267 43.5663 9.504 43.385 9.12C43.193 8.84267 42.7557 8.704 42.073 8.704C41.657 8.704 41.2197 8.77867 40.761 8.928C40.313 9.07733 39.8863 9.28533 39.481 9.552L38.777 7.872C39.2677 7.57333 39.833 7.32267 40.473 7.12C41.1237 6.91733 41.801 6.816 42.505 6.816C44.7983 6.816 45.945 8.13333 45.945 10.768V16H44.025L43.849 15.088H43.801C43.417 15.4187 42.9957 15.68 42.537 15.872C42.089 16.064 41.609 16.16 41.097 16.16ZM41.817 14.368C42.1583 14.3573 42.4677 14.2827 42.745 14.144C43.033 13.9947 43.3157 13.7813 43.593 13.504V11.696C43.3157 11.7173 43.0383 11.744 42.761 11.776C42.4943 11.7973 42.233 11.8293 41.977 11.872C41.465 11.9467 41.1023 12.1013 40.889 12.336C40.6863 12.5707 40.5903 12.848 40.601 13.168C40.6117 13.5413 40.729 13.8347 40.953 14.048C41.1877 14.2613 41.4757 14.368 41.817 14.368ZM50.2621 7.04L50.4221 8.624H50.4861C50.8168 8.03733 51.2008 7.58933 51.6381 7.28C52.0861 6.97067 52.5501 6.816 53.0301 6.816C53.2755 6.816 53.4781 6.83733 53.6381 6.88C53.7981 6.912 53.9475 6.95467 54.0861 7.008L53.6701 9.04C53.5208 8.98667 53.3715 8.94933 53.2221 8.928C53.0835 8.90667 52.9235 8.896 52.7421 8.896C52.3901 8.896 52.0221 9.02933 51.6381 9.296C51.2541 9.552 50.9341 10.0053 50.6781 10.656V16H48.3421V7.04H50.2621ZM56.4789 19.6L57.7269 16.048L54.2549 7.04H56.6229L58.0469 11.2C58.1855 11.6053 58.3135 12.016 58.4309 12.432C58.5482 12.848 58.6709 13.28 58.7989 13.728H58.8789C58.9855 13.312 59.0922 12.8907 59.1989 12.464C59.3055 12.0373 59.4122 11.616 59.5189 11.2L60.7509 7.04H63.0069L59.9029 16.256L58.7989 19.6H56.4789ZM71.9314 16.224C71.3127 16.224 70.7367 16.1173 70.2034 15.904C69.67 15.6907 69.206 15.3867 68.8114 14.992C68.4274 14.5867 68.1234 14.096 67.8994 13.52C67.6754 12.9333 67.5634 12.272 67.5634 11.536C67.5634 10.7893 67.686 10.1227 67.9314 9.536C68.1874 8.94933 68.5234 8.45867 68.9394 8.064C69.3554 7.65867 69.8407 7.34933 70.3954 7.136C70.95 6.92267 71.5314 6.816 72.1394 6.816C72.694 6.816 73.1847 6.912 73.6114 7.104C74.038 7.296 74.4167 7.53067 74.7474 7.808L73.6274 9.328C73.4034 9.136 73.1794 8.992 72.9554 8.896C72.742 8.78933 72.5074 8.736 72.2514 8.736C71.5687 8.736 71.014 8.98667 70.5874 9.488C70.1714 9.98933 69.9634 10.672 69.9634 11.536C69.9634 11.8773 70.006 12.2133 70.0914 12.544C70.1767 12.8747 70.31 13.1733 70.4914 13.44C70.6727 13.696 70.902 13.904 71.1794 14.064C71.4674 14.224 71.8034 14.304 72.1874 14.304C72.5074 14.304 72.8167 14.24 73.1154 14.112C73.414 13.9733 73.686 13.7973 73.9314 13.584L74.8594 15.136C74.4327 15.5093 73.9634 15.7867 73.4514 15.968C72.95 16.1387 72.4434 16.224 71.9314 16.224ZM79.8205 16.224C79.2658 16.224 78.7272 16.1173 78.2045 15.904C77.6818 15.6907 77.2232 15.3867 76.8285 14.992C76.4338 14.5867 76.1138 14.096 75.8685 13.52C75.6338 12.9333 75.5165 12.272 75.5165 11.536C75.5165 10.7893 75.6338 10.1227 75.8685 9.536C76.1138 8.94933 76.4338 8.45867 76.8285 8.064C77.2232 7.65867 77.6818 7.34933 78.2045 7.136C78.7272 6.92267 79.2658 6.816 79.8205 6.816C80.3858 6.816 80.9245 6.92267 81.4365 7.136C81.9592 7.34933 82.4178 7.65867 82.8125 8.064C83.2072 8.45867 83.5218 8.94933 83.7565 9.536C84.0018 10.1227 84.1245 10.7893 84.1245 11.536C84.1245 12.272 84.0018 12.9333 83.7565 13.52C83.5218 14.096 83.2072 14.5867 82.8125 14.992C82.4178 15.3867 81.9592 15.6907 81.4365 15.904C80.9245 16.1173 80.3858 16.224 79.8205 16.224ZM79.8205 14.304C80.4285 14.304 80.8978 14.0533 81.2285 13.552C81.5592 13.0507 81.7245 12.3787 81.7245 11.536C81.7245 10.672 81.5592 9.98933 81.2285 9.488C80.8978 8.98667 80.4285 8.736 79.8205 8.736C79.2125 8.736 78.7432 8.98667 78.4125 9.488C78.0818 9.98933 77.9165 10.672 77.9165 11.536C77.9165 12.3787 78.0818 13.0507 78.4125 13.552C78.7432 14.0533 79.2125 14.304 79.8205 14.304ZM86.0921 3.232H88.4281V16H86.0921V3.232ZM94.883 16.224C94.3283 16.224 93.7897 16.1173 93.267 15.904C92.7443 15.6907 92.2857 15.3867 91.891 14.992C91.4963 14.5867 91.1763 14.096 90.931 13.52C90.6963 12.9333 90.579 12.272 90.579 11.536C90.579 10.7893 90.6963 10.1227 90.931 9.536C91.1763 8.94933 91.4963 8.45867 91.891 8.064C92.2857 7.65867 92.7443 7.34933 93.267 7.136C93.7897 6.92267 94.3283 6.816 94.883 6.816C95.4483 6.816 95.987 6.92267 96.499 7.136C97.0217 7.34933 97.4803 7.65867 97.875 8.064C98.2697 8.45867 98.5843 8.94933 98.819 9.536C99.0643 10.1227 99.187 10.7893 99.187 11.536C99.187 12.272 99.0643 12.9333 98.819 13.52C98.5843 14.096 98.2697 14.5867 97.875 14.992C97.4803 15.3867 97.0217 15.6907 96.499 15.904C95.987 16.1173 95.4483 16.224 94.883 16.224ZM94.883 14.304C95.491 14.304 95.9603 14.0533 96.291 13.552C96.6217 13.0507 96.787 12.3787 96.787 11.536C96.787 10.672 96.6217 9.98933 96.291 9.488C95.9603 8.98667 95.491 8.736 94.883 8.736C94.275 8.736 93.8057 8.98667 93.475 9.488C93.1443 9.98933 92.979 10.672 92.979 11.536C92.979 12.3787 93.1443 13.0507 93.475 13.552C93.8057 14.0533 94.275 14.304 94.883 14.304ZM103.075 7.04L103.235 8.624H103.299C103.629 8.03733 104.013 7.58933 104.451 7.28C104.899 6.97067 105.363 6.816 105.843 6.816C106.088 6.816 106.291 6.83733 106.451 6.88C106.611 6.912 106.76 6.95467 106.899 7.008L106.483 9.04C106.333 8.98667 106.184 8.94933 106.035 8.928C105.896 8.90667 105.736 8.896 105.555 8.896C105.203 8.896 104.835 9.02933 104.451 9.296C104.067 9.552 103.747 10.0053 103.491 10.656V16H101.155V7.04H103.075Z" fill="#222222"/>
<path d="M212.383 16.224C211.583 16.224 210.804 16.0747 210.047 15.776C209.3 15.4773 208.639 15.0507 208.063 14.496L209.423 12.864C209.849 13.2587 210.324 13.5787 210.847 13.824C211.38 14.0587 211.908 14.176 212.431 14.176C213.049 14.176 213.519 14.0533 213.839 13.808C214.159 13.5627 214.319 13.232 214.319 12.816C214.319 12.592 214.276 12.4053 214.191 12.256C214.105 12.1067 213.983 11.9733 213.823 11.856C213.673 11.7387 213.487 11.632 213.263 11.536C213.049 11.44 212.809 11.3333 212.543 11.216L210.959 10.544C210.543 10.3733 210.153 10.1493 209.791 9.872C209.439 9.59467 209.145 9.25333 208.911 8.848C208.676 8.432 208.559 7.936 208.559 7.36C208.559 6.88 208.66 6.432 208.863 6.016C209.065 5.58933 209.348 5.22667 209.711 4.928C210.073 4.61867 210.505 4.37867 211.007 4.208C211.508 4.02667 212.057 3.936 212.655 3.936C213.359 3.936 214.031 4.06933 214.671 4.336C215.321 4.592 215.887 4.96533 216.367 5.456L215.167 6.944C214.793 6.63467 214.404 6.39467 213.999 6.224C213.593 6.05333 213.145 5.968 212.655 5.968C212.132 5.968 211.716 6.08 211.407 6.304C211.097 6.51733 210.943 6.82133 210.943 7.216C210.943 7.41867 210.991 7.59467 211.087 7.744C211.193 7.89333 211.327 8.02667 211.487 8.144C211.657 8.26133 211.855 8.37333 212.079 8.48C212.303 8.576 212.543 8.672 212.799 8.768L214.351 9.424C215.087 9.72267 215.668 10.1173 216.095 10.608C216.521 11.0987 216.735 11.776 216.735 12.64C216.735 13.12 216.633 13.5787 216.431 14.016C216.239 14.4533 215.956 14.8373 215.583 15.168C215.209 15.488 214.751 15.744 214.207 15.936C213.673 16.128 213.065 16.224 212.383 16.224ZM222.527 16.224C221.908 16.224 221.327 16.1173 220.783 15.904C220.239 15.6907 219.764 15.3867 219.359 14.992C218.964 14.5867 218.65 14.096 218.415 13.52C218.191 12.9333 218.079 12.272 218.079 11.536C218.079 10.8107 218.196 10.16 218.431 9.584C218.666 8.99733 218.975 8.50133 219.359 8.096C219.754 7.68 220.202 7.36533 220.703 7.152C221.204 6.928 221.722 6.816 222.255 6.816C222.874 6.816 223.412 6.92267 223.871 7.136C224.34 7.34933 224.73 7.648 225.039 8.032C225.359 8.416 225.599 8.86933 225.759 9.392C225.919 9.91467 225.999 10.4853 225.999 11.104C225.999 11.3173 225.988 11.5253 225.967 11.728C225.946 11.92 225.919 12.0693 225.887 12.176H220.367C220.463 12.912 220.73 13.472 221.167 13.856C221.615 14.2293 222.175 14.416 222.847 14.416C223.22 14.416 223.567 14.3627 223.887 14.256C224.218 14.1493 224.543 13.9947 224.863 13.792L225.663 15.232C225.215 15.5413 224.724 15.7867 224.191 15.968C223.658 16.1387 223.103 16.224 222.527 16.224ZM223.983 10.624C223.983 10.016 223.844 9.536 223.567 9.184C223.29 8.82133 222.863 8.64 222.287 8.64C221.818 8.64 221.396 8.81067 221.023 9.152C220.65 9.48267 220.42 9.97333 220.335 10.624H223.983ZM231.744 16.224C231.125 16.224 230.549 16.1173 230.016 15.904C229.483 15.6907 229.019 15.3867 228.624 14.992C228.24 14.5867 227.936 14.096 227.712 13.52C227.488 12.9333 227.376 12.272 227.376 11.536C227.376 10.7893 227.499 10.1227 227.744 9.536C228 8.94933 228.336 8.45867 228.752 8.064C229.168 7.65867 229.653 7.34933 230.208 7.136C230.763 6.92267 231.344 6.816 231.952 6.816C232.507 6.816 232.997 6.912 233.424 7.104C233.851 7.296 234.229 7.53067 234.56 7.808L233.44 9.328C233.216 9.136 232.992 8.992 232.768 8.896C232.555 8.78933 232.32 8.736 232.064 8.736C231.381 8.736 230.827 8.98667 230.4 9.488C229.984 9.98933 229.776 10.672 229.776 11.536C229.776 11.8773 229.819 12.2133 229.904 12.544C229.989 12.8747 230.123 13.1733 230.304 13.44C230.485 13.696 230.715 13.904 230.992 14.064C231.28 14.224 231.616 14.304 232 14.304C232.32 14.304 232.629 14.24 232.928 14.112C233.227 13.9733 233.499 13.7973 233.744 13.584L234.672 15.136C234.245 15.5093 233.776 15.7867 233.264 15.968C232.763 16.1387 232.256 16.224 231.744 16.224ZM239.633 16.224C239.078 16.224 238.54 16.1173 238.017 15.904C237.494 15.6907 237.036 15.3867 236.641 14.992C236.246 14.5867 235.926 14.096 235.681 13.52C235.446 12.9333 235.329 12.272 235.329 11.536C235.329 10.7893 235.446 10.1227 235.681 9.536C235.926 8.94933 236.246 8.45867 236.641 8.064C237.036 7.65867 237.494 7.34933 238.017 7.136C238.54 6.92267 239.078 6.816 239.633 6.816C240.198 6.816 240.737 6.92267 241.249 7.136C241.772 7.34933 242.23 7.65867 242.625 8.064C243.02 8.45867 243.334 8.94933 243.569 9.536C243.814 10.1227 243.937 10.7893 243.937 11.536C243.937 12.272 243.814 12.9333 243.569 13.52C243.334 14.096 243.02 14.5867 242.625 14.992C242.23 15.3867 241.772 15.6907 241.249 15.904C240.737 16.1173 240.198 16.224 239.633 16.224ZM239.633 14.304C240.241 14.304 240.71 14.0533 241.041 13.552C241.372 13.0507 241.537 12.3787 241.537 11.536C241.537 10.672 241.372 9.98933 241.041 9.488C240.71 8.98667 240.241 8.736 239.633 8.736C239.025 8.736 238.556 8.98667 238.225 9.488C237.894 9.98933 237.729 10.672 237.729 11.536C237.729 12.3787 237.894 13.0507 238.225 13.552C238.556 14.0533 239.025 14.304 239.633 14.304ZM247.825 7.04L247.985 8.224H248.049C248.443 7.84 248.875 7.50933 249.345 7.232C249.814 6.95467 250.353 6.816 250.961 6.816C251.931 6.816 252.635 7.136 253.073 7.776C253.51 8.40533 253.729 9.28533 253.729 10.416V16H251.377V10.704C251.377 10.0107 251.275 9.52533 251.073 9.248C250.881 8.97067 250.561 8.832 250.113 8.832C249.739 8.832 249.419 8.91733 249.153 9.088C248.886 9.25867 248.582 9.50933 248.241 9.84V16H245.905V7.04H247.825ZM259.307 16.224C258.752 16.224 258.245 16.1173 257.787 15.904C257.339 15.6907 256.955 15.3813 256.635 14.976C256.315 14.5707 256.069 14.08 255.899 13.504C255.728 12.928 255.643 12.272 255.643 11.536C255.643 10.8 255.744 10.144 255.947 9.568C256.16 8.98133 256.443 8.48533 256.795 8.08C257.147 7.67467 257.547 7.36533 257.995 7.152C258.453 6.928 258.923 6.816 259.403 6.816C259.915 6.816 260.341 6.90667 260.683 7.088C261.024 7.25867 261.355 7.49333 261.675 7.792L261.579 6.384V3.232H263.931V16H262.027L261.835 15.072H261.787C261.456 15.392 261.077 15.664 260.651 15.888C260.235 16.112 259.787 16.224 259.307 16.224ZM259.915 14.288C260.224 14.288 260.512 14.2187 260.779 14.08C261.056 13.9413 261.323 13.7013 261.579 13.36V9.424C261.301 9.17867 261.024 9.008 260.747 8.912C260.469 8.80533 260.192 8.752 259.915 8.752C259.659 8.752 259.419 8.81067 259.195 8.928C258.971 9.04533 258.773 9.22133 258.603 9.456C258.443 9.69067 258.309 9.97867 258.203 10.32C258.107 10.6613 258.059 11.056 258.059 11.504C258.059 13.36 258.677 14.288 259.915 14.288ZM266.452 3.232H268.788V16H266.452V3.232ZM272.666 19.6L273.914 16.048L270.442 7.04H272.81L274.234 11.2C274.373 11.6053 274.501 12.016 274.618 12.432C274.736 12.848 274.858 13.28 274.986 13.728H275.066C275.173 13.312 275.28 12.8907 275.386 12.464C275.493 12.0373 275.6 11.616 275.706 11.2L276.938 7.04H279.194L276.09 16.256L274.986 19.6H272.666ZM289.335 16.224C288.588 16.224 287.884 16.0907 287.223 15.824C286.562 15.5573 285.986 15.168 285.495 14.656C285.004 14.144 284.615 13.5093 284.327 12.752C284.05 11.9947 283.911 11.12 283.911 10.128C283.911 9.14667 284.055 8.27733 284.343 7.52C284.642 6.752 285.042 6.10133 285.543 5.568C286.044 5.03467 286.626 4.62933 287.287 4.352C287.959 4.07467 288.668 3.936 289.415 3.936C290.183 3.936 290.855 4.09067 291.431 4.4C292.018 4.69867 292.503 5.05067 292.887 5.456L291.639 6.96C291.34 6.672 291.015 6.43733 290.663 6.256C290.311 6.064 289.911 5.968 289.463 5.968C289.015 5.968 288.599 6.064 288.215 6.256C287.831 6.43733 287.5 6.704 287.223 7.056C286.946 7.408 286.727 7.83467 286.567 8.336C286.407 8.83733 286.327 9.408 286.327 10.048C286.327 10.688 286.396 11.264 286.535 11.776C286.684 12.288 286.892 12.7253 287.159 13.088C287.436 13.44 287.762 13.712 288.135 13.904C288.519 14.0853 288.946 14.176 289.415 14.176C289.927 14.176 290.38 14.0693 290.775 13.856C291.18 13.632 291.543 13.3493 291.863 13.008L293.111 14.48C292.14 15.6427 290.882 16.224 289.335 16.224ZM298.571 16.224C298.016 16.224 297.477 16.1173 296.955 15.904C296.432 15.6907 295.973 15.3867 295.579 14.992C295.184 14.5867 294.864 14.096 294.618 13.52C294.384 12.9333 294.267 12.272 294.267 11.536C294.267 10.7893 294.384 10.1227 294.618 9.536C294.864 8.94933 295.184 8.45867 295.579 8.064C295.973 7.65867 296.432 7.34933 296.955 7.136C297.477 6.92267 298.016 6.816 298.571 6.816C299.136 6.816 299.675 6.92267 300.187 7.136C300.709 7.34933 301.168 7.65867 301.562 8.064C301.957 8.45867 302.272 8.94933 302.507 9.536C302.752 10.1227 302.875 10.7893 302.875 11.536C302.875 12.272 302.752 12.9333 302.507 13.52C302.272 14.096 301.957 14.5867 301.562 14.992C301.168 15.3867 300.709 15.6907 300.187 15.904C299.675 16.1173 299.136 16.224 298.571 16.224ZM298.571 14.304C299.179 14.304 299.648 14.0533 299.979 13.552C300.309 13.0507 300.475 12.3787 300.475 11.536C300.475 10.672 300.309 9.98933 299.979 9.488C299.648 8.98667 299.179 8.736 298.571 8.736C297.963 8.736 297.493 8.98667 297.163 9.488C296.832 9.98933 296.667 10.672 296.667 11.536C296.667 12.3787 296.832 13.0507 297.163 13.552C297.493 14.0533 297.963 14.304 298.571 14.304ZM304.842 3.232H307.178V16H304.842V3.232ZM313.633 16.224C313.078 16.224 312.54 16.1173 312.017 15.904C311.494 15.6907 311.036 15.3867 310.641 14.992C310.246 14.5867 309.926 14.096 309.681 13.52C309.446 12.9333 309.329 12.272 309.329 11.536C309.329 10.7893 309.446 10.1227 309.681 9.536C309.926 8.94933 310.246 8.45867 310.641 8.064C311.036 7.65867 311.494 7.34933 312.017 7.136C312.54 6.92267 313.078 6.816 313.633 6.816C314.198 6.816 314.737 6.92267 315.249 7.136C315.772 7.34933 316.23 7.65867 316.625 8.064C317.02 8.45867 317.334 8.94933 317.569 9.536C317.814 10.1227 317.937 10.7893 317.937 11.536C317.937 12.272 317.814 12.9333 317.569 13.52C317.334 14.096 317.02 14.5867 316.625 14.992C316.23 15.3867 315.772 15.6907 315.249 15.904C314.737 16.1173 314.198 16.224 313.633 16.224ZM313.633 14.304C314.241 14.304 314.71 14.0533 315.041 13.552C315.372 13.0507 315.537 12.3787 315.537 11.536C315.537 10.672 315.372 9.98933 315.041 9.488C314.71 8.98667 314.241 8.736 313.633 8.736C313.025 8.736 312.556 8.98667 312.225 9.488C311.894 9.98933 311.729 10.672 311.729 11.536C311.729 12.3787 311.894 13.0507 312.225 13.552C312.556 14.0533 313.025 14.304 313.633 14.304ZM321.825 7.04L321.985 8.624H322.049C322.379 8.03733 322.763 7.58933 323.201 7.28C323.649 6.97067 324.113 6.816 324.593 6.816C324.838 6.816 325.041 6.83733 325.201 6.88C325.361 6.912 325.51 6.95467 325.649 7.008L325.233 9.04C325.083 8.98667 324.934 8.94933 324.785 8.928C324.646 8.90667 324.486 8.896 324.305 8.896C323.953 8.896 323.585 9.02933 323.201 9.296C322.817 9.552 322.497 10.0053 322.241 10.656V16H319.905V7.04H321.825Z" fill="#222222"/>
<path d="M210.82 129.416V128.328H212.356L212.692 125.672H211.172V124.584H212.82L213.22 121.384H214.244L213.86 124.584H216.068L216.484 121.384H217.492L217.108 124.584H218.516V125.672H216.98L216.644 128.328H218.164V129.416H216.516L216.084 133H215.044L215.476 129.416H213.268L212.82 133H211.796L212.228 129.416H210.82ZM215.94 125.672H213.716L213.396 128.328H215.604L215.94 125.672ZM227.423 121.272V122.52H222.143V126.488H226.623V127.736H222.143V133H220.655V121.272H227.423ZM236.251 121.272V122.52H230.971V126.488H235.451V127.736H230.971V133H229.483V121.272H236.251ZM241.799 121.272C242.396 121.272 242.94 121.325 243.431 121.432C243.932 121.539 244.359 121.709 244.711 121.944C245.063 122.168 245.335 122.461 245.527 122.824C245.73 123.187 245.831 123.624 245.831 124.136C245.831 124.723 245.682 125.251 245.383 125.72C245.084 126.179 244.658 126.499 244.103 126.68V126.76C244.807 126.899 245.383 127.203 245.831 127.672C246.279 128.131 246.503 128.76 246.503 129.56C246.503 130.136 246.391 130.643 246.167 131.08C245.954 131.507 245.65 131.864 245.255 132.152C244.871 132.429 244.407 132.643 243.863 132.792C243.319 132.931 242.716 133 242.055 133H238.311V121.272H241.799ZM241.543 126.264C242.556 126.264 243.282 126.093 243.719 125.752C244.156 125.4 244.375 124.925 244.375 124.328C244.375 123.624 244.146 123.133 243.687 122.856C243.239 122.579 242.546 122.44 241.607 122.44H239.799V126.264H241.543ZM241.847 131.816C242.882 131.816 243.671 131.635 244.215 131.272C244.77 130.899 245.047 130.312 245.047 129.512C245.047 128.776 244.77 128.243 244.215 127.912C243.671 127.571 242.882 127.4 241.847 127.4H239.799V131.816H241.847ZM253.067 128.344C253.237 128.12 253.371 127.933 253.467 127.784C253.573 127.635 253.653 127.523 253.707 127.448C253.077 127.949 252.325 128.2 251.451 128.2C250.992 128.2 250.555 128.125 250.139 127.976C249.733 127.827 249.376 127.608 249.067 127.32C248.768 127.021 248.528 126.659 248.347 126.232C248.165 125.805 248.075 125.315 248.075 124.76C248.075 124.237 248.171 123.747 248.363 123.288C248.565 122.829 248.843 122.429 249.195 122.088C249.547 121.747 249.963 121.48 250.443 121.288C250.933 121.085 251.472 120.984 252.059 120.984C252.635 120.984 253.157 121.08 253.627 121.272C254.096 121.464 254.496 121.731 254.827 122.072C255.168 122.413 255.429 122.824 255.611 123.304C255.792 123.773 255.883 124.296 255.883 124.872C255.883 125.565 255.76 126.2 255.515 126.776C255.269 127.352 254.923 127.949 254.475 128.568L251.259 133H249.419L253.067 128.344ZM249.563 124.648C249.563 125.427 249.771 126.024 250.187 126.44C250.613 126.845 251.195 127.048 251.931 127.048C252.336 127.048 252.693 126.984 253.003 126.856C253.312 126.728 253.573 126.557 253.787 126.344C254.011 126.12 254.176 125.869 254.283 125.592C254.4 125.304 254.459 125.005 254.459 124.696C254.459 124.312 254.395 123.971 254.267 123.672C254.149 123.363 253.984 123.107 253.771 122.904C253.557 122.691 253.301 122.531 253.003 122.424C252.704 122.307 252.384 122.248 252.043 122.248C251.296 122.248 250.693 122.472 250.235 122.92C249.787 123.357 249.563 123.933 249.563 124.648ZM266.038 129.88H264.262V133H262.966V129.88H257.11V128.792L262.886 121.144H264.262V128.728H266.038V129.88ZM262.966 123.832C262.966 123.693 262.971 123.539 262.982 123.368C262.992 123.187 263.008 123.011 263.03 122.84L258.71 128.728H262.966V123.832ZM272.769 126.888C273.516 127.091 274.086 127.443 274.481 127.944C274.886 128.445 275.089 129.08 275.089 129.848C275.089 130.371 274.988 130.845 274.785 131.272C274.593 131.688 274.316 132.045 273.953 132.344C273.601 132.643 273.18 132.872 272.689 133.032C272.198 133.192 271.654 133.272 271.057 133.272C270.46 133.272 269.91 133.192 269.409 133.032C268.908 132.872 268.476 132.643 268.113 132.344C267.761 132.045 267.484 131.688 267.281 131.272C267.089 130.845 266.993 130.371 266.993 129.848C266.993 129.08 267.196 128.445 267.601 127.944C268.006 127.443 268.577 127.091 269.313 126.888C268.705 126.653 268.236 126.307 267.905 125.848C267.585 125.379 267.425 124.808 267.425 124.136C267.425 123.699 267.51 123.293 267.681 122.92C267.852 122.536 268.092 122.2 268.401 121.912C268.721 121.624 269.105 121.4 269.553 121.24C270.001 121.069 270.502 120.984 271.057 120.984C271.59 120.984 272.081 121.069 272.529 121.24C272.977 121.4 273.361 121.624 273.681 121.912C274.001 122.2 274.246 122.536 274.417 122.92C274.598 123.293 274.689 123.699 274.689 124.136C274.689 125.501 274.049 126.419 272.769 126.888ZM271.057 122.152C270.694 122.152 270.374 122.205 270.097 122.312C269.82 122.419 269.59 122.563 269.409 122.744C269.238 122.925 269.105 123.144 269.009 123.4C268.924 123.645 268.881 123.907 268.881 124.184C268.881 124.451 268.918 124.712 268.993 124.968C269.068 125.224 269.19 125.453 269.361 125.656C269.532 125.859 269.756 126.024 270.033 126.152C270.31 126.269 270.652 126.328 271.057 126.328C271.452 126.328 271.782 126.269 272.049 126.152C272.326 126.024 272.55 125.859 272.721 125.656C272.892 125.453 273.014 125.224 273.089 124.968C273.164 124.712 273.201 124.451 273.201 124.184C273.201 123.907 273.153 123.645 273.057 123.4C272.972 123.144 272.838 122.925 272.657 122.744C272.486 122.563 272.268 122.419 272.001 122.312C271.734 122.205 271.42 122.152 271.057 122.152ZM271.057 132.072C271.857 132.072 272.47 131.869 272.897 131.464C273.324 131.048 273.537 130.504 273.537 129.832C273.537 129.416 273.468 129.064 273.329 128.776C273.201 128.477 273.02 128.237 272.785 128.056C272.561 127.864 272.3 127.725 272.001 127.64C271.702 127.544 271.388 127.496 271.057 127.496C270.726 127.496 270.406 127.544 270.097 127.64C269.798 127.725 269.532 127.864 269.297 128.056C269.062 128.237 268.876 128.477 268.737 128.776C268.609 129.064 268.545 129.416 268.545 129.832C268.545 130.504 268.764 131.048 269.201 131.464C269.638 131.869 270.257 132.072 271.057 132.072Z" fill="#222222"/>
<circle cx="242" cy="70" r="35" fill="#FFB948"/>
<path d="M410.726 129.416V128.328H412.262L412.598 125.672H411.078V124.584H412.726L413.126 121.384H414.15L413.766 124.584H415.974L416.39 121.384H417.398L417.014 124.584H418.422V125.672H416.886L416.55 128.328H418.07V129.416H416.422L415.99 133H414.95L415.382 129.416H413.174L412.726 133H411.702L412.134 129.416H410.726ZM415.846 125.672H413.622L413.302 128.328H415.51L415.846 125.672ZM427.329 121.272V122.52H422.049V126.488H426.529V127.736H422.049V133H420.561V121.272H427.329ZM436.157 121.272V122.52H430.877V126.488H435.357V127.736H430.877V133H429.389V121.272H436.157ZM444.985 121.272V122.52H439.705V126.488H444.185V127.736H439.705V133H438.217V121.272H444.985ZM446.581 124.424C446.656 123.891 446.805 123.416 447.029 123C447.253 122.584 447.531 122.237 447.861 121.96C448.203 121.672 448.592 121.453 449.029 121.304C449.467 121.155 449.936 121.08 450.437 121.08C450.949 121.08 451.413 121.155 451.829 121.304C452.256 121.453 452.624 121.661 452.933 121.928C453.243 122.195 453.483 122.515 453.653 122.888C453.824 123.261 453.909 123.672 453.909 124.12C453.909 124.888 453.723 125.485 453.349 125.912C452.987 126.328 452.485 126.643 451.845 126.856C452.613 127.048 453.195 127.384 453.589 127.864C453.984 128.344 454.181 128.952 454.181 129.688C454.181 130.221 454.075 130.707 453.861 131.144C453.659 131.581 453.376 131.955 453.013 132.264C452.661 132.563 452.24 132.797 451.749 132.968C451.269 133.128 450.757 133.208 450.213 133.208C449.584 133.208 449.045 133.128 448.597 132.968C448.16 132.808 447.787 132.589 447.477 132.312C447.168 132.035 446.912 131.709 446.709 131.336C446.517 130.952 446.352 130.547 446.213 130.12L447.525 129.576C447.557 129.747 447.637 129.987 447.765 130.296C448.011 130.808 448.325 131.213 448.709 131.512C449.093 131.8 449.589 131.944 450.197 131.944C450.613 131.944 450.976 131.88 451.285 131.752C451.605 131.613 451.867 131.437 452.069 131.224C452.283 131.011 452.437 130.771 452.533 130.504C452.64 130.237 452.693 129.976 452.693 129.72C452.693 129.4 452.651 129.107 452.565 128.84C452.491 128.573 452.341 128.344 452.117 128.152C451.893 127.96 451.584 127.811 451.189 127.704C450.795 127.587 450.283 127.528 449.653 127.528V126.472C450.165 126.461 450.597 126.403 450.949 126.296C451.312 126.189 451.605 126.045 451.829 125.864C452.053 125.672 452.213 125.448 452.309 125.192C452.405 124.936 452.453 124.659 452.453 124.36C452.453 123.688 452.256 123.187 451.861 122.856C451.477 122.525 450.976 122.36 450.357 122.36C450.027 122.36 449.717 122.419 449.429 122.536C449.141 122.653 448.896 122.819 448.693 123.032C448.491 123.235 448.331 123.475 448.213 123.752C448.096 124.029 448.037 124.333 448.037 124.664L446.581 124.424ZM463.345 121.272V122.52H458.065V126.2H462.513V127.464H458.065V131.736H463.521V133H456.577V121.272H463.345ZM473.487 127.16C473.487 128.195 473.375 129.096 473.151 129.864C472.927 130.621 472.623 131.251 472.239 131.752C471.855 132.253 471.401 132.627 470.879 132.872C470.356 133.107 469.791 133.224 469.183 133.224C468.575 133.224 468.009 133.107 467.487 132.872C466.964 132.627 466.505 132.253 466.111 131.752C465.727 131.251 465.423 130.621 465.199 129.864C464.985 129.096 464.879 128.195 464.879 127.16C464.879 126.115 464.985 125.213 465.199 124.456C465.423 123.688 465.727 123.053 466.111 122.552C466.505 122.051 466.964 121.683 467.487 121.448C468.009 121.203 468.575 121.08 469.183 121.08C469.791 121.08 470.356 121.203 470.879 121.448C471.401 121.683 471.855 122.051 472.239 122.552C472.623 123.053 472.927 123.688 473.151 124.456C473.375 125.213 473.487 126.115 473.487 127.16ZM472.015 127.16C472.015 126.243 471.935 125.475 471.775 124.856C471.625 124.227 471.417 123.725 471.151 123.352C470.895 122.968 470.596 122.696 470.255 122.536C469.913 122.365 469.556 122.28 469.183 122.28C468.809 122.28 468.452 122.365 468.111 122.536C467.769 122.696 467.471 122.968 467.215 123.352C466.959 123.725 466.751 124.227 466.591 124.856C466.441 125.475 466.367 126.243 466.367 127.16C466.367 128.067 466.441 128.835 466.591 129.464C466.751 130.083 466.959 130.584 467.215 130.968C467.471 131.352 467.769 131.629 468.111 131.8C468.452 131.96 468.809 132.04 469.183 132.04C469.556 132.04 469.913 131.96 470.255 131.8C470.596 131.629 470.895 131.352 471.151 130.968C471.417 130.584 471.625 130.083 471.775 129.464C471.935 128.835 472.015 128.067 472.015 127.16Z" fill="#222222"/>
<circle cx="443" cy="70" r="35" fill="#FFF3E0"/>
<path d="M308.124 129.416V128.328H309.66L309.996 125.672H308.476V124.584H310.124L310.524 121.384H311.548L311.164 124.584H313.372L313.788 121.384H314.796L314.412 124.584H315.82V125.672H314.284L313.948 128.328H315.468V129.416H313.82L313.388 133H312.348L312.78 129.416H310.572L310.124 133H309.1L309.532 129.416H308.124ZM313.244 125.672H311.02L310.7 128.328H312.908L313.244 125.672ZM325.463 127.16C325.463 128.195 325.351 129.096 325.127 129.864C324.903 130.621 324.599 131.251 324.215 131.752C323.831 132.253 323.378 132.627 322.855 132.872C322.333 133.107 321.767 133.224 321.159 133.224C320.551 133.224 319.986 133.107 319.463 132.872C318.941 132.627 318.482 132.253 318.087 131.752C317.703 131.251 317.399 130.621 317.175 129.864C316.962 129.096 316.855 128.195 316.855 127.16C316.855 126.115 316.962 125.213 317.175 124.456C317.399 123.688 317.703 123.053 318.087 122.552C318.482 122.051 318.941 121.683 319.463 121.448C319.986 121.203 320.551 121.08 321.159 121.08C321.767 121.08 322.333 121.203 322.855 121.448C323.378 121.683 323.831 122.051 324.215 122.552C324.599 123.053 324.903 123.688 325.127 124.456C325.351 125.213 325.463 126.115 325.463 127.16ZM323.991 127.16C323.991 126.243 323.911 125.475 323.751 124.856C323.602 124.227 323.394 123.725 323.127 123.352C322.871 122.968 322.573 122.696 322.231 122.536C321.89 122.365 321.533 122.28 321.159 122.28C320.786 122.28 320.429 122.365 320.087 122.536C319.746 122.696 319.447 122.968 319.191 123.352C318.935 123.725 318.727 124.227 318.567 124.856C318.418 125.475 318.343 126.243 318.343 127.16C318.343 128.067 318.418 128.835 318.567 129.464C318.727 130.083 318.935 130.584 319.191 130.968C319.447 131.352 319.746 131.629 320.087 131.8C320.429 131.96 320.786 132.04 321.159 132.04C321.533 132.04 321.89 131.96 322.231 131.8C322.573 131.629 322.871 131.352 323.127 130.968C323.394 130.584 323.602 130.083 323.751 129.464C323.911 128.835 323.991 128.067 323.991 127.16ZM331.731 128.344C331.901 128.12 332.035 127.933 332.131 127.784C332.237 127.635 332.317 127.523 332.371 127.448C331.741 127.949 330.989 128.2 330.115 128.2C329.656 128.2 329.219 128.125 328.803 127.976C328.397 127.827 328.04 127.608 327.731 127.32C327.432 127.021 327.192 126.659 327.011 126.232C326.829 125.805 326.739 125.315 326.739 124.76C326.739 124.237 326.835 123.747 327.027 123.288C327.229 122.829 327.507 122.429 327.859 122.088C328.211 121.747 328.627 121.48 329.107 121.288C329.597 121.085 330.136 120.984 330.723 120.984C331.299 120.984 331.821 121.08 332.291 121.272C332.76 121.464 333.16 121.731 333.491 122.072C333.832 122.413 334.093 122.824 334.275 123.304C334.456 123.773 334.547 124.296 334.547 124.872C334.547 125.565 334.424 126.2 334.179 126.776C333.933 127.352 333.587 127.949 333.139 128.568L329.923 133H328.083L331.731 128.344ZM328.227 124.648C328.227 125.427 328.435 126.024 328.851 126.44C329.277 126.845 329.859 127.048 330.595 127.048C331 127.048 331.357 126.984 331.667 126.856C331.976 126.728 332.237 126.557 332.451 126.344C332.675 126.12 332.84 125.869 332.947 125.592C333.064 125.304 333.123 125.005 333.123 124.696C333.123 124.312 333.059 123.971 332.931 123.672C332.813 123.363 332.648 123.107 332.435 122.904C332.221 122.691 331.965 122.531 331.667 122.424C331.368 122.307 331.048 122.248 330.707 122.248C329.96 122.248 329.357 122.472 328.899 122.92C328.451 123.357 328.227 123.933 328.227 124.648ZM343.838 133H337.502V131.816H340.11V123.144C340.11 123.08 340.115 123.021 340.126 122.968L337.998 124.872L337.214 123.928L340.366 121.208H341.534V131.816H343.838V133ZM350.041 121.272C350.638 121.272 351.182 121.325 351.673 121.432C352.174 121.539 352.601 121.709 352.953 121.944C353.305 122.168 353.577 122.461 353.769 122.824C353.972 123.187 354.073 123.624 354.073 124.136C354.073 124.723 353.924 125.251 353.625 125.72C353.326 126.179 352.9 126.499 352.345 126.68V126.76C353.049 126.899 353.625 127.203 354.073 127.672C354.521 128.131 354.745 128.76 354.745 129.56C354.745 130.136 354.633 130.643 354.409 131.08C354.196 131.507 353.892 131.864 353.497 132.152C353.113 132.429 352.649 132.643 352.105 132.792C351.561 132.931 350.958 133 350.297 133H346.553V121.272H350.041ZM349.785 126.264C350.798 126.264 351.524 126.093 351.961 125.752C352.398 125.4 352.617 124.925 352.617 124.328C352.617 123.624 352.388 123.133 351.929 122.856C351.481 122.579 350.788 122.44 349.849 122.44H348.041V126.264H349.785ZM350.089 131.816C351.124 131.816 351.913 131.635 352.457 131.272C353.012 130.899 353.289 130.312 353.289 129.512C353.289 128.776 353.012 128.243 352.457 127.912C351.913 127.571 351.124 127.4 350.089 127.4H348.041V131.816H350.089ZM364.189 133H356.317V131.976L360.365 128.088C360.674 127.757 360.957 127.448 361.213 127.16C361.479 126.861 361.703 126.563 361.885 126.264C362.077 125.965 362.226 125.667 362.333 125.368C362.439 125.059 362.493 124.733 362.493 124.392C362.471 123.688 362.258 123.171 361.853 122.84C361.447 122.499 360.941 122.328 360.333 122.328C360.002 122.328 359.693 122.387 359.405 122.504C359.117 122.611 358.866 122.771 358.653 122.984C358.45 123.187 358.29 123.427 358.173 123.704C358.055 123.981 357.997 124.291 357.997 124.632L356.557 124.392C356.631 123.848 356.781 123.373 357.005 122.968C357.229 122.552 357.506 122.205 357.837 121.928C358.178 121.64 358.567 121.427 359.005 121.288C359.442 121.139 359.911 121.064 360.413 121.064C360.914 121.064 361.378 121.139 361.805 121.288C362.242 121.437 362.621 121.656 362.941 121.944C363.261 122.221 363.511 122.563 363.693 122.968C363.874 123.373 363.965 123.837 363.965 124.36C363.965 124.797 363.901 125.203 363.773 125.576C363.645 125.949 363.469 126.312 363.245 126.664C363.021 127.005 362.759 127.341 362.461 127.672C362.162 127.992 361.847 128.317 361.517 128.648L358.237 131.896C358.461 131.832 358.685 131.784 358.909 131.752C359.143 131.72 359.362 131.704 359.565 131.704H364.189V133ZM370.088 121.272C370.685 121.272 371.229 121.325 371.72 121.432C372.221 121.539 372.648 121.709 373 121.944C373.352 122.168 373.624 122.461 373.816 122.824C374.019 123.187 374.12 123.624 374.12 124.136C374.12 124.723 373.971 125.251 373.672 125.72C373.373 126.179 372.947 126.499 372.392 126.68V126.76C373.096 126.899 373.672 127.203 374.12 127.672C374.568 128.131 374.792 128.76 374.792 129.56C374.792 130.136 374.68 130.643 374.456 131.08C374.243 131.507 373.939 131.864 373.544 132.152C373.16 132.429 372.696 132.643 372.152 132.792C371.608 132.931 371.005 133 370.344 133H366.6V121.272H370.088ZM369.832 126.264C370.845 126.264 371.571 126.093 372.008 125.752C372.445 125.4 372.664 124.925 372.664 124.328C372.664 123.624 372.435 123.133 371.976 122.856C371.528 122.579 370.835 122.44 369.896 122.44H368.088V126.264H369.832ZM370.136 131.816C371.171 131.816 371.96 131.635 372.504 131.272C373.059 130.899 373.336 130.312 373.336 129.512C373.336 128.776 373.059 128.243 372.504 127.912C371.96 127.571 371.171 127.4 370.136 127.4H368.088V131.816H370.136Z" fill="#222222"/>
<circle cx="343" cy="70" r="35" fill="#091B2B"/>
</svg>
