<svg width="92" height="61" viewBox="0 0 92 61" fill="none" xmlns="http://www.w3.org/2000/svg">
<rect x="15.25" width="61" height="61" rx="30.5" fill="#FFB948"/>
<path d="M30.066 34V24.393H33.823C35.2617 24.393 36.3927 24.8263 37.216 25.693C38.0393 26.551 38.451 27.7253 38.451 29.216C38.451 30.6893 38.0307 31.855 37.19 32.713C36.358 33.571 35.2097 34 33.745 34H30.066ZM31.99 32.154H33.836C34.668 32.154 35.3093 31.8723 35.76 31.309C36.2193 30.7457 36.449 30.035 36.449 29.177C36.449 28.3363 36.2193 27.6387 35.76 27.084C35.3093 26.5207 34.668 26.239 33.836 26.239H31.99V32.154ZM39.8105 34V26.915H41.5655V27.864C41.9988 27.1013 42.6488 26.72 43.5155 26.72C43.8015 26.72 44.0875 26.772 44.3735 26.876L44.2175 28.631C43.9142 28.5357 43.6325 28.488 43.3725 28.488C42.8525 28.488 42.4322 28.6613 42.1115 29.008C41.7995 29.3547 41.6435 29.8963 41.6435 30.633V34H39.8105ZM50.436 26.915H52.178V34H50.436V33.181C49.8207 33.8397 49.0667 34.169 48.174 34.169C47.16 34.169 46.3193 33.8137 45.652 33.103C44.9933 32.3837 44.664 31.491 44.664 30.425C44.664 29.359 44.9977 28.4793 45.665 27.786C46.3323 27.084 47.1687 26.733 48.174 26.733C49.058 26.733 49.812 27.0753 50.436 27.76V26.915ZM47.056 31.907C47.4287 32.3057 47.901 32.505 48.473 32.505C49.045 32.505 49.5173 32.3057 49.89 31.907C50.2713 31.5083 50.462 31.023 50.462 30.451C50.462 29.8877 50.2713 29.4067 49.89 29.008C49.5173 28.6093 49.045 28.41 48.473 28.41C47.8923 28.41 47.4157 28.6093 47.043 29.008C46.679 29.4067 46.497 29.8877 46.497 30.451C46.497 31.023 46.6833 31.5083 47.056 31.907ZM59.2471 26.915H60.9371V33.298C60.9371 34.4333 60.5731 35.3347 59.8451 36.002C59.1171 36.6693 58.1725 37.003 57.0111 37.003C55.7978 37.003 54.7145 36.6607 53.7611 35.976L54.4761 34.598C55.2995 35.1527 56.1271 35.43 56.9591 35.43C57.6611 35.43 58.2028 35.2437 58.5841 34.871C58.9741 34.507 59.1691 34.039 59.1691 33.467V33.103C58.6231 33.7097 57.8951 34.013 56.9851 34.013C55.9451 34.013 55.0958 33.6707 54.4371 32.986C53.7785 32.3013 53.4491 31.4347 53.4491 30.386C53.4491 29.3287 53.7958 28.4577 54.4891 27.773C55.1825 27.0797 56.0405 26.733 57.0631 26.733C57.9385 26.733 58.6665 27.0537 59.2471 27.695V26.915ZM55.8541 31.842C56.2268 32.2233 56.6948 32.414 57.2581 32.414C57.8215 32.414 58.2895 32.2233 58.6621 31.842C59.0348 31.452 59.2211 30.971 59.2211 30.399C59.2211 29.827 59.0348 29.3547 58.6621 28.982C58.2895 28.6007 57.8215 28.41 57.2581 28.41C56.6948 28.41 56.2268 28.6007 55.8541 28.982C55.4815 29.3547 55.2951 29.827 55.2951 30.399C55.2951 30.9797 55.4815 31.4607 55.8541 31.842Z" fill="white"/>
<rect y="26.6875" width="7.625" height="7.625" rx="3.8125" fill="#FFB948"/>
<rect x="83.875" y="26.6875" width="7.625" height="7.625" rx="3.8125" fill="#FFB948"/>
</svg>
