<svg width="494" height="154" viewBox="0 0 494 154" fill="none" xmlns="http://www.w3.org/2000/svg">
<rect x="341" y="1" width="152" height="152" rx="76" fill="white"/>
<rect x="341" y="1" width="152" height="152" rx="76" stroke="#F67499" stroke-width="2"/>
<path d="M368.367 63.224C367.567 63.224 366.788 63.0747 366.031 62.776C365.284 62.4773 364.623 62.0507 364.047 61.496L365.407 59.864C365.834 60.2587 366.308 60.5787 366.831 60.824C367.364 61.0587 367.892 61.176 368.415 61.176C369.034 61.176 369.503 61.0533 369.823 60.808C370.143 60.5627 370.303 60.232 370.303 59.816C370.303 59.592 370.26 59.4053 370.175 59.256C370.09 59.1067 369.967 58.9733 369.807 58.856C369.658 58.7387 369.471 58.632 369.247 58.536C369.034 58.44 368.794 58.3333 368.527 58.216L366.943 57.544C366.527 57.3733 366.138 57.1493 365.775 56.872C365.423 56.5947 365.13 56.2533 364.895 55.848C364.66 55.432 364.543 54.936 364.543 54.36C364.543 53.88 364.644 53.432 364.847 53.016C365.05 52.5893 365.332 52.2267 365.695 51.928C366.058 51.6187 366.49 51.3787 366.991 51.208C367.492 51.0267 368.042 50.936 368.639 50.936C369.343 50.936 370.015 51.0693 370.655 51.336C371.306 51.592 371.871 51.9653 372.351 52.456L371.151 53.944C370.778 53.6347 370.388 53.3947 369.983 53.224C369.578 53.0533 369.13 52.968 368.639 52.968C368.116 52.968 367.7 53.08 367.391 53.304C367.082 53.5173 366.927 53.8213 366.927 54.216C366.927 54.4187 366.975 54.5947 367.071 54.744C367.178 54.8933 367.311 55.0267 367.471 55.144C367.642 55.2613 367.839 55.3733 368.063 55.48C368.287 55.576 368.527 55.672 368.783 55.768L370.335 56.424C371.071 56.7227 371.652 57.1173 372.079 57.608C372.506 58.0987 372.719 58.776 372.719 59.64C372.719 60.12 372.618 60.5787 372.415 61.016C372.223 61.4533 371.94 61.8373 371.567 62.168C371.194 62.488 370.735 62.744 370.191 62.936C369.658 63.128 369.05 63.224 368.367 63.224ZM378.367 63.224C377.813 63.224 377.274 63.1173 376.751 62.904C376.229 62.6907 375.77 62.3867 375.375 61.992C374.981 61.5867 374.661 61.096 374.415 60.52C374.181 59.9333 374.063 59.272 374.063 58.536C374.063 57.7893 374.181 57.1227 374.415 56.536C374.661 55.9493 374.981 55.4587 375.375 55.064C375.77 54.6587 376.229 54.3493 376.751 54.136C377.274 53.9227 377.813 53.816 378.367 53.816C378.933 53.816 379.471 53.9227 379.983 54.136C380.506 54.3493 380.965 54.6587 381.359 55.064C381.754 55.4587 382.069 55.9493 382.303 56.536C382.549 57.1227 382.671 57.7893 382.671 58.536C382.671 59.272 382.549 59.9333 382.303 60.52C382.069 61.096 381.754 61.5867 381.359 61.992C380.965 62.3867 380.506 62.6907 379.983 62.904C379.471 63.1173 378.933 63.224 378.367 63.224ZM378.367 61.304C378.975 61.304 379.445 61.0533 379.775 60.552C380.106 60.0507 380.271 59.3787 380.271 58.536C380.271 57.672 380.106 56.9893 379.775 56.488C379.445 55.9867 378.975 55.736 378.367 55.736C377.759 55.736 377.29 55.9867 376.959 56.488C376.629 56.9893 376.463 57.672 376.463 58.536C376.463 59.3787 376.629 60.0507 376.959 60.552C377.29 61.0533 377.759 61.304 378.367 61.304ZM386.559 54.04L386.719 54.968H386.783C387.156 54.648 387.567 54.376 388.015 54.152C388.474 53.928 388.943 53.816 389.423 53.816C389.978 53.816 390.468 53.928 390.895 54.152C391.332 54.3653 391.7 54.6693 391.999 55.064C392.308 55.4587 392.543 55.9387 392.703 56.504C392.863 57.0587 392.943 57.6827 392.943 58.376C392.943 59.144 392.836 59.832 392.623 60.44C392.41 61.0373 392.127 61.544 391.775 61.96C391.423 62.3653 391.018 62.68 390.559 62.904C390.1 63.1173 389.626 63.224 389.135 63.224C388.74 63.224 388.356 63.1387 387.983 62.968C387.61 62.7973 387.252 62.5573 386.911 62.248L386.975 63.72V66.44H384.639V54.04H386.559ZM388.607 61.288C389.151 61.288 389.604 61.0587 389.967 60.6C390.34 60.1307 390.527 59.4 390.527 58.408C390.527 57.544 390.383 56.888 390.095 56.44C389.818 55.9813 389.37 55.752 388.751 55.752C388.442 55.752 388.143 55.832 387.855 55.992C387.578 56.1413 387.284 56.3707 386.975 56.68V60.616C387.263 60.8613 387.546 61.0373 387.823 61.144C388.1 61.24 388.362 61.288 388.607 61.288ZM397.272 50.232V53.448L397.176 55.128C397.539 54.7867 397.944 54.4827 398.392 54.216C398.851 53.9493 399.384 53.816 399.992 53.816C400.963 53.816 401.667 54.136 402.104 54.776C402.541 55.4053 402.76 56.2853 402.76 57.416V63H400.408V57.704C400.408 57.0107 400.307 56.5253 400.104 56.248C399.912 55.9707 399.592 55.832 399.144 55.832C398.771 55.832 398.451 55.9173 398.184 56.088C397.917 56.2587 397.613 56.5093 397.272 56.84V63H394.936V50.232H397.272ZM404.962 52.6V50.328H407.298V52.6H404.962ZM404.946 54.04H407.282V63H404.946V54.04ZM412.152 63.224C411.544 63.224 410.936 63.1067 410.328 62.872C409.72 62.6373 409.192 62.3333 408.744 61.96L409.816 60.488C410.221 60.7973 410.616 61.0373 411 61.208C411.395 61.3787 411.8 61.464 412.216 61.464C412.664 61.464 412.989 61.3787 413.192 61.208C413.405 61.0267 413.512 60.7973 413.512 60.52C413.512 60.3493 413.459 60.2053 413.352 60.088C413.245 59.96 413.101 59.848 412.92 59.752C412.749 59.6453 412.552 59.5493 412.328 59.464C412.104 59.368 411.875 59.272 411.64 59.176C411.352 59.0693 411.064 58.9467 410.776 58.808C410.488 58.6587 410.227 58.4827 409.992 58.28C409.757 58.0667 409.565 57.8213 409.416 57.544C409.267 57.2667 409.192 56.9413 409.192 56.568C409.192 56.1627 409.272 55.7947 409.432 55.464C409.592 55.1227 409.816 54.8293 410.104 54.584C410.392 54.3387 410.739 54.152 411.144 54.024C411.56 53.8853 412.019 53.816 412.52 53.816C413.192 53.816 413.773 53.9333 414.264 54.168C414.765 54.392 415.203 54.6427 415.576 54.92L414.52 56.344C414.2 56.12 413.88 55.9387 413.56 55.8C413.251 55.6507 412.925 55.576 412.584 55.576C412.179 55.576 411.88 55.656 411.688 55.816C411.496 55.976 411.4 56.184 411.4 56.44C411.4 56.6 411.448 56.7387 411.544 56.856C411.651 56.9733 411.789 57.08 411.96 57.176C412.131 57.272 412.323 57.3627 412.536 57.448C412.76 57.5227 412.989 57.6027 413.224 57.688C413.523 57.8053 413.816 57.9333 414.104 58.072C414.403 58.2107 414.669 58.3813 414.904 58.584C415.149 58.7867 415.347 59.0373 415.496 59.336C415.645 59.624 415.72 59.976 415.72 60.392C415.72 60.7867 415.64 61.1547 415.48 61.496C415.331 61.8373 415.107 62.136 414.808 62.392C414.509 62.648 414.136 62.8507 413.688 63C413.251 63.1493 412.739 63.224 412.152 63.224ZM420.419 63.224C419.886 63.224 419.432 63.144 419.059 62.984C418.686 62.824 418.382 62.6 418.147 62.312C417.912 62.0133 417.742 61.656 417.635 61.24C417.528 60.824 417.475 60.3653 417.475 59.864V55.896H416.211V54.152L417.587 54.04L417.859 51.64H419.827V54.04H422.035V55.896H419.827V59.864C419.827 60.8667 420.232 61.368 421.043 61.368C421.192 61.368 421.347 61.352 421.507 61.32C421.667 61.2773 421.806 61.2293 421.923 61.176L422.307 62.888C422.062 62.9733 421.784 63.048 421.475 63.112C421.166 63.1867 420.814 63.224 420.419 63.224ZM423.65 52.6V50.328H425.986V52.6H423.65ZM423.634 54.04H425.97V63H423.634V54.04ZM432.088 63.224C431.469 63.224 430.893 63.1173 430.36 62.904C429.826 62.6907 429.362 62.3867 428.968 61.992C428.584 61.5867 428.28 61.096 428.056 60.52C427.832 59.9333 427.72 59.272 427.72 58.536C427.72 57.7893 427.842 57.1227 428.088 56.536C428.344 55.9493 428.68 55.4587 429.096 55.064C429.512 54.6587 429.997 54.3493 430.552 54.136C431.106 53.9227 431.688 53.816 432.296 53.816C432.85 53.816 433.341 53.912 433.768 54.104C434.194 54.296 434.573 54.5307 434.904 54.808L433.784 56.328C433.56 56.136 433.336 55.992 433.112 55.896C432.898 55.7893 432.664 55.736 432.408 55.736C431.725 55.736 431.17 55.9867 430.744 56.488C430.328 56.9893 430.12 57.672 430.12 58.536C430.12 58.8773 430.162 59.2133 430.248 59.544C430.333 59.8747 430.466 60.1733 430.648 60.44C430.829 60.696 431.058 60.904 431.336 61.064C431.624 61.224 431.96 61.304 432.344 61.304C432.664 61.304 432.973 61.24 433.272 61.112C433.57 60.9733 433.842 60.7973 434.088 60.584L435.016 62.136C434.589 62.5093 434.12 62.7867 433.608 62.968C433.106 63.1387 432.6 63.224 432.088 63.224ZM438.925 63.16C438.53 63.16 438.168 63.1013 437.837 62.984C437.506 62.856 437.224 62.68 436.989 62.456C436.765 62.2213 436.589 61.944 436.461 61.624C436.333 61.304 436.269 60.952 436.269 60.568C436.216 59.4693 436.594 58.6587 437.405 58.136C438.226 57.6027 439.565 57.3093 441.421 57.256C441.464 56.8827 441.394 56.504 441.213 56.12C441.021 55.8427 440.584 55.704 439.901 55.704C439.485 55.704 439.048 55.7787 438.589 55.928C438.141 56.0773 437.714 56.2853 437.309 56.552L436.605 54.872C437.096 54.5733 437.661 54.3227 438.301 54.12C438.952 53.9173 439.629 53.816 440.333 53.816C442.626 53.816 443.773 55.1333 443.773 57.768V63H441.853L441.677 62.088H441.629C441.245 62.4187 440.824 62.68 440.365 62.872C439.917 63.064 439.437 63.16 438.925 63.16ZM439.645 61.368C439.986 61.3573 440.296 61.2827 440.573 61.144C440.861 60.9947 441.144 60.7813 441.421 60.504V58.696C441.144 58.7173 440.866 58.744 440.589 58.776C440.322 58.7973 440.061 58.8293 439.805 58.872C439.293 58.9467 438.93 59.1013 438.717 59.336C438.514 59.5707 438.418 59.848 438.429 60.168C438.44 60.5413 438.557 60.8347 438.781 61.048C439.016 61.2613 439.304 61.368 439.645 61.368ZM449.153 63.224C448.62 63.224 448.167 63.144 447.793 62.984C447.42 62.824 447.116 62.6 446.881 62.312C446.647 62.0133 446.476 61.656 446.369 61.24C446.263 60.824 446.209 60.3653 446.209 59.864V55.896H444.945V54.152L446.321 54.04L446.593 51.64H448.561V54.04H450.769V55.896H448.561V59.864C448.561 60.8667 448.967 61.368 449.777 61.368C449.927 61.368 450.081 61.352 450.241 61.32C450.401 61.2773 450.54 61.2293 450.657 61.176L451.041 62.888C450.796 62.9733 450.519 63.048 450.209 63.112C449.9 63.1867 449.548 63.224 449.153 63.224ZM456.183 63.224C455.565 63.224 454.983 63.1173 454.439 62.904C453.895 62.6907 453.421 62.3867 453.015 61.992C452.621 61.5867 452.306 61.096 452.071 60.52C451.847 59.9333 451.735 59.272 451.735 58.536C451.735 57.8107 451.853 57.16 452.087 56.584C452.322 55.9973 452.631 55.5013 453.015 55.096C453.41 54.68 453.858 54.3653 454.359 54.152C454.861 53.928 455.378 53.816 455.911 53.816C456.53 53.816 457.069 53.9227 457.527 54.136C457.997 54.3493 458.386 54.648 458.695 55.032C459.015 55.416 459.255 55.8693 459.415 56.392C459.575 56.9147 459.655 57.4853 459.655 58.104C459.655 58.3173 459.645 58.5253 459.623 58.728C459.602 58.92 459.575 59.0693 459.543 59.176H454.023C454.119 59.912 454.386 60.472 454.823 60.856C455.271 61.2293 455.831 61.416 456.503 61.416C456.877 61.416 457.223 61.3627 457.543 61.256C457.874 61.1493 458.199 60.9947 458.519 60.792L459.319 62.232C458.871 62.5413 458.381 62.7867 457.847 62.968C457.314 63.1387 456.759 63.224 456.183 63.224ZM457.639 57.624C457.639 57.016 457.501 56.536 457.223 56.184C456.946 55.8213 456.519 55.64 455.943 55.64C455.474 55.64 455.053 55.8107 454.679 56.152C454.306 56.4827 454.077 56.9733 453.991 57.624H457.639ZM464.744 63.224C464.189 63.224 463.683 63.1173 463.224 62.904C462.776 62.6907 462.392 62.3813 462.072 61.976C461.752 61.5707 461.507 61.08 461.336 60.504C461.165 59.928 461.08 59.272 461.08 58.536C461.08 57.8 461.181 57.144 461.384 56.568C461.597 55.9813 461.88 55.4853 462.232 55.08C462.584 54.6747 462.984 54.3653 463.432 54.152C463.891 53.928 464.36 53.816 464.84 53.816C465.352 53.816 465.779 53.9067 466.12 54.088C466.461 54.2587 466.792 54.4933 467.112 54.792L467.016 53.384V50.232H469.368V63H467.464L467.272 62.072H467.224C466.893 62.392 466.515 62.664 466.088 62.888C465.672 63.112 465.224 63.224 464.744 63.224ZM465.352 61.288C465.661 61.288 465.949 61.2187 466.216 61.08C466.493 60.9413 466.76 60.7013 467.016 60.36V56.424C466.739 56.1787 466.461 56.008 466.184 55.912C465.907 55.8053 465.629 55.752 465.352 55.752C465.096 55.752 464.856 55.8107 464.632 55.928C464.408 56.0453 464.211 56.2213 464.04 56.456C463.88 56.6907 463.747 56.9787 463.64 57.32C463.544 57.6613 463.496 58.056 463.496 58.504C463.496 60.36 464.115 61.288 465.352 61.288ZM389.444 83.224C388.698 83.224 387.994 83.0907 387.332 82.824C386.671 82.5573 386.095 82.168 385.604 81.656C385.114 81.144 384.724 80.5093 384.436 79.752C384.159 78.9947 384.02 78.12 384.02 77.128C384.02 76.1467 384.164 75.2773 384.452 74.52C384.751 73.752 385.151 73.1013 385.652 72.568C386.154 72.0347 386.735 71.6293 387.396 71.352C388.068 71.0747 388.778 70.936 389.524 70.936C390.292 70.936 390.964 71.0907 391.54 71.4C392.127 71.6987 392.612 72.0507 392.996 72.456L391.748 73.96C391.45 73.672 391.124 73.4373 390.772 73.256C390.42 73.064 390.02 72.968 389.572 72.968C389.124 72.968 388.708 73.064 388.324 73.256C387.94 73.4373 387.61 73.704 387.332 74.056C387.055 74.408 386.836 74.8347 386.676 75.336C386.516 75.8373 386.436 76.408 386.436 77.048C386.436 77.688 386.506 78.264 386.644 78.776C386.794 79.288 387.002 79.7253 387.268 80.088C387.546 80.44 387.871 80.712 388.244 80.904C388.628 81.0853 389.055 81.176 389.524 81.176C390.036 81.176 390.49 81.0693 390.884 80.856C391.29 80.632 391.652 80.3493 391.972 80.008L393.22 81.48C392.25 82.6427 390.991 83.224 389.444 83.224ZM398.68 83.224C398.125 83.224 397.587 83.1173 397.064 82.904C396.541 82.6907 396.083 82.3867 395.688 81.992C395.293 81.5867 394.973 81.096 394.728 80.52C394.493 79.9333 394.376 79.272 394.376 78.536C394.376 77.7893 394.493 77.1227 394.728 76.536C394.973 75.9493 395.293 75.4587 395.688 75.064C396.083 74.6587 396.541 74.3493 397.064 74.136C397.587 73.9227 398.125 73.816 398.68 73.816C399.245 73.816 399.784 73.9227 400.296 74.136C400.819 74.3493 401.277 74.6587 401.672 75.064C402.067 75.4587 402.381 75.9493 402.616 76.536C402.861 77.1227 402.984 77.7893 402.984 78.536C402.984 79.272 402.861 79.9333 402.616 80.52C402.381 81.096 402.067 81.5867 401.672 81.992C401.277 82.3867 400.819 82.6907 400.296 82.904C399.784 83.1173 399.245 83.224 398.68 83.224ZM398.68 81.304C399.288 81.304 399.757 81.0533 400.088 80.552C400.419 80.0507 400.584 79.3787 400.584 78.536C400.584 77.672 400.419 76.9893 400.088 76.488C399.757 75.9867 399.288 75.736 398.68 75.736C398.072 75.736 397.603 75.9867 397.272 76.488C396.941 76.9893 396.776 77.672 396.776 78.536C396.776 79.3787 396.941 80.0507 397.272 80.552C397.603 81.0533 398.072 81.304 398.68 81.304ZM406.872 74.04L407.032 75.224H407.096C407.49 74.84 407.922 74.5093 408.391 74.232C408.861 73.9547 409.4 73.816 410.008 73.816C410.978 73.816 411.682 74.136 412.12 74.776C412.557 75.4053 412.776 76.2853 412.776 77.416V83H410.424V77.704C410.424 77.0107 410.322 76.5253 410.12 76.248C409.928 75.9707 409.608 75.832 409.16 75.832C408.786 75.832 408.466 75.9173 408.2 76.088C407.933 76.2587 407.629 76.5093 407.288 76.84V83H404.952V74.04H406.872ZM418.482 83.224C417.948 83.224 417.495 83.144 417.122 82.984C416.748 82.824 416.444 82.6 416.21 82.312C415.975 82.0133 415.804 81.656 415.698 81.24C415.591 80.824 415.538 80.3653 415.538 79.864V75.896H414.274V74.152L415.65 74.04L415.922 71.64H417.89V74.04H420.098V75.896H417.89V79.864C417.89 80.8667 418.295 81.368 419.106 81.368C419.255 81.368 419.41 81.352 419.57 81.32C419.73 81.2773 419.868 81.2293 419.986 81.176L420.37 82.888C420.124 82.9733 419.847 83.048 419.538 83.112C419.228 83.1867 418.876 83.224 418.482 83.224ZM423.84 74.04L424 75.624H424.064C424.395 75.0373 424.779 74.5893 425.216 74.28C425.664 73.9707 426.128 73.816 426.608 73.816C426.854 73.816 427.056 73.8373 427.216 73.88C427.376 73.912 427.526 73.9547 427.664 74.008L427.248 76.04C427.099 75.9867 426.95 75.9493 426.8 75.928C426.662 75.9067 426.502 75.896 426.32 75.896C425.968 75.896 425.6 76.0293 425.216 76.296C424.832 76.552 424.512 77.0053 424.256 77.656V83H421.92V74.04H423.84ZM430.597 83.16C430.202 83.16 429.84 83.1013 429.509 82.984C429.178 82.856 428.896 82.68 428.661 82.456C428.437 82.2213 428.261 81.944 428.133 81.624C428.005 81.304 427.941 80.952 427.941 80.568C427.888 79.4693 428.266 78.6587 429.077 78.136C429.898 77.6027 431.237 77.3093 433.093 77.256C433.136 76.8827 433.066 76.504 432.885 76.12C432.693 75.8427 432.256 75.704 431.573 75.704C431.157 75.704 430.72 75.7787 430.261 75.928C429.813 76.0773 429.386 76.2853 428.981 76.552L428.277 74.872C428.768 74.5733 429.333 74.3227 429.973 74.12C430.624 73.9173 431.301 73.816 432.005 73.816C434.298 73.816 435.445 75.1333 435.445 77.768V83H433.525L433.349 82.088H433.301C432.917 82.4187 432.496 82.68 432.037 82.872C431.589 83.064 431.109 83.16 430.597 83.16ZM431.317 81.368C431.658 81.3573 431.968 81.2827 432.245 81.144C432.533 80.9947 432.816 80.7813 433.093 80.504V78.696C432.816 78.7173 432.538 78.744 432.261 78.776C431.994 78.7973 431.733 78.8293 431.477 78.872C430.965 78.9467 430.602 79.1013 430.389 79.336C430.186 79.5707 430.09 79.848 430.101 80.168C430.112 80.5413 430.229 80.8347 430.453 81.048C430.688 81.2613 430.976 81.368 431.317 81.368ZM440.402 83.224C439.794 83.224 439.186 83.1067 438.578 82.872C437.97 82.6373 437.442 82.3333 436.994 81.96L438.066 80.488C438.471 80.7973 438.866 81.0373 439.25 81.208C439.645 81.3787 440.05 81.464 440.466 81.464C440.914 81.464 441.239 81.3787 441.442 81.208C441.655 81.0267 441.762 80.7973 441.762 80.52C441.762 80.3493 441.709 80.2053 441.602 80.088C441.495 79.96 441.351 79.848 441.17 79.752C440.999 79.6453 440.802 79.5493 440.578 79.464C440.354 79.368 440.125 79.272 439.89 79.176C439.602 79.0693 439.314 78.9467 439.026 78.808C438.738 78.6587 438.477 78.4827 438.242 78.28C438.007 78.0667 437.815 77.8213 437.666 77.544C437.517 77.2667 437.442 76.9413 437.442 76.568C437.442 76.1627 437.522 75.7947 437.682 75.464C437.842 75.1227 438.066 74.8293 438.354 74.584C438.642 74.3387 438.989 74.152 439.394 74.024C439.81 73.8853 440.269 73.816 440.77 73.816C441.442 73.816 442.023 73.9333 442.514 74.168C443.015 74.392 443.453 74.6427 443.826 74.92L442.77 76.344C442.45 76.12 442.13 75.9387 441.81 75.8C441.501 75.6507 441.175 75.576 440.834 75.576C440.429 75.576 440.13 75.656 439.938 75.816C439.746 75.976 439.65 76.184 439.65 76.44C439.65 76.6 439.698 76.7387 439.794 76.856C439.901 76.9733 440.039 77.08 440.21 77.176C440.381 77.272 440.573 77.3627 440.786 77.448C441.01 77.5227 441.239 77.6027 441.474 77.688C441.773 77.8053 442.066 77.9333 442.354 78.072C442.653 78.2107 442.919 78.3813 443.154 78.584C443.399 78.7867 443.597 79.0373 443.746 79.336C443.895 79.624 443.97 79.976 443.97 80.392C443.97 80.7867 443.89 81.1547 443.73 81.496C443.581 81.8373 443.357 82.136 443.058 82.392C442.759 82.648 442.386 82.8507 441.938 83C441.501 83.1493 440.989 83.224 440.402 83.224ZM448.669 83.224C448.136 83.224 447.682 83.144 447.309 82.984C446.936 82.824 446.632 82.6 446.397 82.312C446.162 82.0133 445.992 81.656 445.885 81.24C445.778 80.824 445.725 80.3653 445.725 79.864V75.896H444.461V74.152L445.837 74.04L446.109 71.64H448.077V74.04H450.285V75.896H448.077V79.864C448.077 80.8667 448.482 81.368 449.293 81.368C449.442 81.368 449.597 81.352 449.757 81.32C449.917 81.2773 450.056 81.2293 450.173 81.176L450.557 82.888C450.312 82.9733 450.034 83.048 449.725 83.112C449.416 83.1867 449.064 83.224 448.669 83.224ZM376.088 105.592C375.33 104.355 374.744 103.069 374.328 101.736C373.912 100.392 373.704 98.9147 373.704 97.304C373.704 95.704 373.912 94.2373 374.328 92.904C374.744 91.56 375.33 90.2693 376.088 89.032L377.56 89.656C376.888 90.8507 376.392 92.0827 376.072 93.352C375.762 94.6107 375.608 95.928 375.608 97.304C375.608 98.7013 375.762 100.029 376.072 101.288C376.392 102.547 376.888 103.773 377.56 104.968L376.088 105.592ZM391.719 104.376H389.719V89.64H391.719V104.376ZM388.695 89.88V103.72H386.727V96.328H384.887V94.616H386.727V89.88H388.695ZM383.783 93.32C383.783 93.9173 383.825 94.5147 383.911 95.112C383.996 95.6987 384.14 96.264 384.343 96.808C384.556 97.3413 384.828 97.8373 385.159 98.296C385.5 98.7547 385.921 99.1493 386.423 99.48L385.271 101.112C384.631 100.728 384.113 100.237 383.719 99.64C383.324 99.032 383.009 98.3547 382.775 97.608C382.519 98.44 382.172 99.1867 381.735 99.848C381.297 100.509 380.743 101.043 380.071 101.448L378.807 99.864C379.351 99.5333 379.809 99.128 380.183 98.648C380.556 98.168 380.855 97.6453 381.079 97.08C381.313 96.5147 381.484 95.9173 381.591 95.288C381.697 94.6587 381.751 94.0293 381.751 93.4V90.92H383.783V93.32ZM401.653 96.888V95.192H404.005V93.544H401.653V91.864H404.005V89.64H406.117V100.552H404.005V96.888H401.653ZM401.541 98.36C401.083 98.4453 400.629 98.5147 400.181 98.568C399.733 98.6107 399.269 98.648 398.789 98.68C398.309 98.7013 397.797 98.7173 397.253 98.728C396.72 98.7387 396.133 98.744 395.493 98.744H394.357V93.816H398.709V92.328H394.341V90.648H400.789V95.4H396.453V97.048C396.944 97.048 397.397 97.0427 397.813 97.032C398.24 97.0107 398.645 96.984 399.029 96.952C399.424 96.92 399.808 96.8827 400.181 96.84C400.555 96.7867 400.933 96.728 401.317 96.664L401.541 98.36ZM406.485 104.104H396.277V99.688H398.389V102.424H406.485V104.104ZM418.66 100.728V89.624H420.788V100.728H418.66ZM417.924 98.552C416.399 98.7653 414.889 98.904 413.396 98.968C411.913 99.032 410.399 99.064 408.852 99.064L408.58 97.384H410.404C411.033 97.384 411.673 97.3733 412.324 97.352V95.832H409.796V90.52H416.916V92.2H411.908V94.152H417.012V95.832H414.436V97.272C415.012 97.2507 415.577 97.224 416.132 97.192C416.687 97.1493 417.236 97.1013 417.78 97.048L417.924 98.552ZM421.172 104.12H410.804V99.928H412.932V102.44H421.172V104.12ZM439.5 104.376H437.5V97H436.172V103.688H434.204V89.912H436.172V95.304H437.5V89.624H439.5V104.376ZM429.356 99.32C430.06 99.2987 430.732 99.2667 431.372 99.224C432.012 99.1707 432.684 99.08 433.388 98.952L433.548 100.664C432.652 100.835 431.788 100.947 430.956 101C430.124 101.043 429.239 101.064 428.3 101.064H427.276V91.336H432.732V93.048H429.356V99.32ZM453.787 104.408H451.675V89.624H453.787V104.408ZM444.395 94.376H447.467V90.808H449.563V100.968H442.299V90.808H444.395V94.376ZM447.467 99.288V96.024H444.395V99.288H447.467ZM456.441 104.968C457.113 103.773 457.604 102.547 457.913 101.288C458.233 100.029 458.393 98.7013 458.393 97.304C458.393 95.928 458.233 94.6107 457.913 93.352C457.604 92.0827 457.113 90.8507 456.441 89.656L457.897 89.032C458.665 90.2693 459.257 91.56 459.673 92.904C460.089 94.2373 460.297 95.704 460.297 97.304C460.297 98.9147 460.084 100.392 459.657 101.736C459.241 103.069 458.655 104.355 457.897 105.592L456.441 104.968Z" fill="#F67499"/>
<rect x="1" y="1" width="152" height="152" rx="76" fill="white"/>
<rect x="1" y="1" width="152" height="152" rx="76" stroke="#F67499" stroke-width="2"/>
<path d="M36.3613 61.16L38.3773 66.696C38.5053 67.0693 38.6279 67.448 38.7453 67.832L39.0973 68.984H39.1773C39.3053 68.6 39.4226 68.216 39.5293 67.832C39.6466 67.448 39.7693 67.0693 39.8973 66.696L41.8653 61.16H44.4893V73H42.3293V68.056C42.3293 67.7787 42.3346 67.4747 42.3453 67.144C42.3666 66.8027 42.3933 66.4613 42.4253 66.12C42.4573 65.768 42.4893 65.4267 42.5213 65.096C42.5533 64.7547 42.5853 64.4453 42.6173 64.168H42.5533L41.5933 66.952L39.7693 71.928H38.4093L36.5693 66.952L35.6253 64.168H35.5613C35.5933 64.4453 35.6253 64.7547 35.6573 65.096C35.6999 65.4267 35.7319 65.768 35.7533 66.12C35.7853 66.4613 35.8119 66.8027 35.8333 67.144C35.8546 67.4747 35.8653 67.7787 35.8653 68.056V73H33.7373V61.16H36.3613ZM46.9935 62.6V60.328H49.3295V62.6H46.9935ZM46.9775 64.04H49.3135V73H46.9775V64.04ZM53.5434 64.04L53.7034 65.224H53.7674C54.162 64.84 54.594 64.5093 55.0634 64.232C55.5327 63.9547 56.0714 63.816 56.6794 63.816C57.65 63.816 58.354 64.136 58.7914 64.776C59.2287 65.4053 59.4474 66.2853 59.4474 67.416V73H57.0954V67.704C57.0954 67.0107 56.994 66.5253 56.7914 66.248C56.5994 65.9707 56.2794 65.832 55.8314 65.832C55.458 65.832 55.138 65.9173 54.8714 66.088C54.6047 66.2587 54.3007 66.5093 53.9594 66.84V73H51.6234V64.04H53.5434ZM61.6654 62.6V60.328H64.0014V62.6H61.6654ZM61.6494 64.04H63.9854V73H61.6494V64.04ZM68.2153 64.04L68.3753 65.24H68.4393C68.8126 64.8453 69.2179 64.5093 69.6553 64.232C70.0926 63.9547 70.6046 63.816 71.1913 63.816C71.8313 63.816 72.3486 63.9493 72.7433 64.216C73.1379 64.4827 73.4419 64.872 73.6553 65.384C74.0606 64.936 74.4873 64.5627 74.9353 64.264C75.3939 63.9653 75.9166 63.816 76.5033 63.816C77.4633 63.816 78.1673 64.136 78.6153 64.776C79.0633 65.4053 79.2873 66.2853 79.2873 67.416V73H76.9353V67.704C76.9353 67 76.8339 66.5147 76.6313 66.248C76.4286 65.9707 76.1139 65.832 75.6873 65.832C75.1753 65.832 74.5993 66.168 73.9593 66.84V73H71.6073V67.704C71.6073 67 71.5059 66.5147 71.3033 66.248C71.1006 65.9707 70.7859 65.832 70.3593 65.832C69.8473 65.832 69.2713 66.168 68.6313 66.84V73H66.2953V64.04H68.2153ZM83.9251 73.16C83.5305 73.16 83.1678 73.1013 82.8371 72.984C82.5065 72.856 82.2238 72.68 81.9891 72.456C81.7651 72.2213 81.5891 71.944 81.4611 71.624C81.3331 71.304 81.2691 70.952 81.2691 70.568C81.2158 69.4693 81.5945 68.6587 82.4051 68.136C83.2265 67.6027 84.5651 67.3093 86.4211 67.256C86.4638 66.8827 86.3945 66.504 86.2131 66.12C86.0211 65.8427 85.5838 65.704 84.9011 65.704C84.4851 65.704 84.0478 65.7787 83.5891 65.928C83.1411 66.0773 82.7145 66.2853 82.3091 66.552L81.6051 64.872C82.0958 64.5733 82.6611 64.3227 83.3011 64.12C83.9518 63.9173 84.6291 63.816 85.3331 63.816C87.6265 63.816 88.7731 65.1333 88.7731 67.768V73H86.8531L86.6771 72.088H86.6291C86.2451 72.4187 85.8238 72.68 85.3651 72.872C84.9171 73.064 84.4371 73.16 83.9251 73.16ZM84.6451 71.368C84.9865 71.3573 85.2958 71.2827 85.5731 71.144C85.8611 70.9947 86.1438 70.7813 86.4211 70.504V68.696C86.1438 68.7173 85.8665 68.744 85.5891 68.776C85.3225 68.7973 85.0611 68.8293 84.8051 68.872C84.2931 68.9467 83.9305 69.1013 83.7171 69.336C83.5145 69.5707 83.4185 69.848 83.4291 70.168C83.4398 70.5413 83.5571 70.8347 83.7811 71.048C84.0158 71.2613 84.3038 71.368 84.6451 71.368ZM91.1703 60.232H93.5063V73H91.1703V60.232ZM96.0091 62.6V60.328H98.3451V62.6H96.0091ZM95.9931 64.04H98.3291V73H95.9931V64.04ZM103.199 73.224C102.591 73.224 101.983 73.1067 101.375 72.872C100.767 72.6373 100.239 72.3333 99.791 71.96L100.863 70.488C101.268 70.7973 101.663 71.0373 102.047 71.208C102.442 71.3787 102.847 71.464 103.263 71.464C103.711 71.464 104.036 71.3787 104.239 71.208C104.452 71.0267 104.559 70.7973 104.559 70.52C104.559 70.3493 104.506 70.2053 104.399 70.088C104.292 69.96 104.148 69.848 103.967 69.752C103.796 69.6453 103.599 69.5493 103.375 69.464C103.151 69.368 102.922 69.272 102.687 69.176C102.399 69.0693 102.111 68.9467 101.823 68.808C101.535 68.6587 101.274 68.4827 101.039 68.28C100.804 68.0667 100.612 67.8213 100.463 67.544C100.314 67.2667 100.239 66.9413 100.239 66.568C100.239 66.1627 100.319 65.7947 100.479 65.464C100.639 65.1227 100.863 64.8293 101.151 64.584C101.439 64.3387 101.786 64.152 102.191 64.024C102.607 63.8853 103.066 63.816 103.567 63.816C104.239 63.816 104.82 63.9333 105.311 64.168C105.812 64.392 106.25 64.6427 106.623 64.92L105.567 66.344C105.247 66.12 104.927 65.9387 104.607 65.8C104.298 65.6507 103.972 65.576 103.631 65.576C103.226 65.576 102.927 65.656 102.735 65.816C102.543 65.976 102.447 66.184 102.447 66.44C102.447 66.6 102.495 66.7387 102.591 66.856C102.698 66.9733 102.836 67.08 103.007 67.176C103.178 67.272 103.37 67.3627 103.583 67.448C103.807 67.5227 104.036 67.6027 104.271 67.688C104.57 67.8053 104.863 67.9333 105.151 68.072C105.45 68.2107 105.716 68.3813 105.951 68.584C106.196 68.7867 106.394 69.0373 106.543 69.336C106.692 69.624 106.767 69.976 106.767 70.392C106.767 70.7867 106.687 71.1547 106.527 71.496C106.378 71.8373 106.154 72.136 105.855 72.392C105.556 72.648 105.183 72.8507 104.735 73C104.298 73.1493 103.786 73.224 103.199 73.224ZM110.481 64.04L110.641 65.24H110.705C111.078 64.8453 111.484 64.5093 111.921 64.232C112.358 63.9547 112.87 63.816 113.457 63.816C114.097 63.816 114.614 63.9493 115.009 64.216C115.404 64.4827 115.708 64.872 115.921 65.384C116.326 64.936 116.753 64.5627 117.201 64.264C117.66 63.9653 118.182 63.816 118.769 63.816C119.729 63.816 120.433 64.136 120.881 64.776C121.329 65.4053 121.553 66.2853 121.553 67.416V73H119.201V67.704C119.201 67 119.1 66.5147 118.897 66.248C118.694 65.9707 118.38 65.832 117.953 65.832C117.441 65.832 116.865 66.168 116.225 66.84V73H113.873V67.704C113.873 67 113.772 66.5147 113.569 66.248C113.366 65.9707 113.052 65.832 112.625 65.832C112.113 65.832 111.537 66.168 110.897 66.84V73H108.561V64.04H110.481ZM38.4003 95.592C37.6429 94.3547 37.0563 93.0693 36.6403 91.736C36.2243 90.392 36.0163 88.9147 36.0163 87.304C36.0163 85.704 36.2243 84.2373 36.6403 82.904C37.0563 81.56 37.6429 80.2693 38.4003 79.032L39.8723 79.656C39.2003 80.8507 38.7043 82.0827 38.3843 83.352C38.0749 84.6107 37.9203 85.928 37.9203 87.304C37.9203 88.7013 38.0749 90.0293 38.3843 91.288C38.7043 92.5467 39.2003 93.7733 39.8723 94.968L38.4003 95.592ZM53.5991 94.408H51.4871V79.64H53.5991V94.408ZM49.1991 90.872H42.1111V80.968H49.1991V90.872ZM44.1911 89.208H47.1191V82.632H44.1911V89.208ZM68.4139 94.36H66.3019V79.624H68.4139V94.36ZM58.9739 88.936C59.9445 88.9147 60.9419 88.856 61.9659 88.76C63.0005 88.664 64.0672 88.5093 65.1659 88.296L65.3899 90.056C64.1312 90.3227 62.8992 90.504 61.6939 90.6C60.4885 90.696 59.3205 90.744 58.1899 90.744H56.8779V81.032H58.9739V88.936ZM71.4366 86.552V80.312H78.4126V82.568H81.0366V79.64H83.1486V87.016H81.0366V84.232H78.4126V86.552H71.4366ZM73.5166 81.976V84.904H76.3486V81.976H73.5166ZM83.5646 94.2H73.4526V90.12H81.0526V89.256H73.4206V87.64H83.1486V91.64H75.5326V92.568H83.5646V94.2ZM97.8034 94.408H95.6914V79.624H97.8034V94.408ZM88.4914 89.24C89.6114 89.24 90.662 89.2027 91.6434 89.128C92.6247 89.0533 93.6327 88.9307 94.6674 88.76L94.8914 90.472C94.2834 90.5787 93.6914 90.6693 93.1154 90.744C92.5394 90.808 91.958 90.8613 91.3714 90.904C90.7847 90.936 90.1874 90.9573 89.5794 90.968C88.9714 90.9787 88.3314 90.984 87.6594 90.984H86.3314V84.92H91.1154V82.568H86.3154V80.888H93.2754V86.584H88.4914V89.24ZM100.842 84.136C101.535 84.072 102.149 83.9707 102.682 83.832C103.215 83.6827 103.669 83.5067 104.042 83.304C104.415 83.1013 104.714 82.8827 104.938 82.648C105.162 82.4027 105.317 82.152 105.402 81.896H101.482V80.216H112.378V81.896H108.442C108.591 82.408 109.039 82.8773 109.786 83.304C110.543 83.7307 111.621 84.008 113.018 84.136L112.282 85.784C110.831 85.656 109.669 85.352 108.794 84.872C107.93 84.392 107.306 83.8 106.922 83.096C106.527 83.8 105.893 84.392 105.018 84.872C104.154 85.352 103.002 85.656 101.562 85.784L100.842 84.136ZM113.578 87.992H100.266V86.312H113.578V87.992ZM111.994 89.08V94.2H101.818V89.08H111.994ZM109.914 92.552V90.744H103.882V92.552H109.914ZM115.129 94.968C115.801 93.7733 116.292 92.5467 116.601 91.288C116.921 90.0293 117.081 88.7013 117.081 87.304C117.081 85.928 116.921 84.6107 116.601 83.352C116.292 82.0827 115.801 80.8507 115.129 79.656L116.585 79.032C117.353 80.2693 117.945 81.56 118.361 82.904C118.777 84.2373 118.985 85.704 118.985 87.304C118.985 88.9147 118.772 90.392 118.345 91.736C117.929 93.0693 117.342 94.3547 116.585 95.592L115.129 94.968Z" fill="#F67499"/>
<rect x="171" y="1" width="152" height="152" rx="76" fill="white"/>
<rect x="171" y="1" width="152" height="152" rx="76" stroke="#F67499" stroke-width="2"/>
<path d="M221.338 61.16L223.354 66.696C223.482 67.0693 223.604 67.448 223.722 67.832L224.074 68.984H224.154C224.282 68.6 224.399 68.216 224.506 67.832C224.623 67.448 224.746 67.0693 224.874 66.696L226.842 61.16H229.466V73H227.306V68.056C227.306 67.7787 227.311 67.4747 227.322 67.144C227.343 66.8027 227.37 66.4613 227.402 66.12C227.434 65.768 227.466 65.4267 227.498 65.096C227.53 64.7547 227.562 64.4453 227.594 64.168H227.53L226.57 66.952L224.746 71.928H223.386L221.546 66.952L220.602 64.168H220.538C220.57 64.4453 220.602 64.7547 220.634 65.096C220.676 65.4267 220.708 65.768 220.73 66.12C220.762 66.4613 220.788 66.8027 220.81 67.144C220.831 67.4747 220.842 67.7787 220.842 68.056V73H218.714V61.16H221.338ZM235.922 73.224C235.367 73.224 234.829 73.1173 234.306 72.904C233.783 72.6907 233.325 72.3867 232.93 71.992C232.535 71.5867 232.215 71.096 231.97 70.52C231.735 69.9333 231.618 69.272 231.618 68.536C231.618 67.7893 231.735 67.1227 231.97 66.536C232.215 65.9493 232.535 65.4587 232.93 65.064C233.325 64.6587 233.783 64.3493 234.306 64.136C234.829 63.9227 235.367 63.816 235.922 63.816C236.487 63.816 237.026 63.9227 237.538 64.136C238.061 64.3493 238.519 64.6587 238.914 65.064C239.309 65.4587 239.623 65.9493 239.858 66.536C240.103 67.1227 240.226 67.7893 240.226 68.536C240.226 69.272 240.103 69.9333 239.858 70.52C239.623 71.096 239.309 71.5867 238.914 71.992C238.519 72.3867 238.061 72.6907 237.538 72.904C237.026 73.1173 236.487 73.224 235.922 73.224ZM235.922 71.304C236.53 71.304 236.999 71.0533 237.33 70.552C237.661 70.0507 237.826 69.3787 237.826 68.536C237.826 67.672 237.661 66.9893 237.33 66.488C236.999 65.9867 236.53 65.736 235.922 65.736C235.314 65.736 234.845 65.9867 234.514 66.488C234.183 66.9893 234.018 67.672 234.018 68.536C234.018 69.3787 234.183 70.0507 234.514 70.552C234.845 71.0533 235.314 71.304 235.922 71.304ZM245.346 73.224C244.791 73.224 244.284 73.1173 243.826 72.904C243.378 72.6907 242.994 72.3813 242.674 71.976C242.354 71.5707 242.108 71.08 241.938 70.504C241.767 69.928 241.682 69.272 241.682 68.536C241.682 67.8 241.783 67.144 241.986 66.568C242.199 65.9813 242.482 65.4853 242.834 65.08C243.186 64.6747 243.586 64.3653 244.034 64.152C244.492 63.928 244.962 63.816 245.442 63.816C245.954 63.816 246.38 63.9067 246.722 64.088C247.063 64.2587 247.394 64.4933 247.714 64.792L247.618 63.384V60.232H249.97V73H248.066L247.874 72.072H247.826C247.495 72.392 247.116 72.664 246.69 72.888C246.274 73.112 245.826 73.224 245.346 73.224ZM245.954 71.288C246.263 71.288 246.551 71.2187 246.818 71.08C247.095 70.9413 247.362 70.7013 247.618 70.36V66.424C247.34 66.1787 247.063 66.008 246.786 65.912C246.508 65.8053 246.231 65.752 245.954 65.752C245.698 65.752 245.458 65.8107 245.234 65.928C245.01 66.0453 244.812 66.2213 244.642 66.456C244.482 66.6907 244.348 66.9787 244.242 67.32C244.146 67.6613 244.098 68.056 244.098 68.504C244.098 70.36 244.716 71.288 245.954 71.288ZM256.379 73.224C255.76 73.224 255.179 73.1173 254.635 72.904C254.091 72.6907 253.616 72.3867 253.211 71.992C252.816 71.5867 252.501 71.096 252.267 70.52C252.043 69.9333 251.931 69.272 251.931 68.536C251.931 67.8107 252.048 67.16 252.283 66.584C252.517 65.9973 252.827 65.5013 253.211 65.096C253.605 64.68 254.053 64.3653 254.555 64.152C255.056 63.928 255.573 63.816 256.107 63.816C256.725 63.816 257.264 63.9227 257.723 64.136C258.192 64.3493 258.581 64.648 258.891 65.032C259.211 65.416 259.451 65.8693 259.611 66.392C259.771 66.9147 259.851 67.4853 259.851 68.104C259.851 68.3173 259.84 68.5253 259.819 68.728C259.797 68.92 259.771 69.0693 259.739 69.176H254.219C254.315 69.912 254.581 70.472 255.019 70.856C255.467 71.2293 256.027 71.416 256.699 71.416C257.072 71.416 257.419 71.3627 257.739 71.256C258.069 71.1493 258.395 70.9947 258.715 70.792L259.515 72.232C259.067 72.5413 258.576 72.7867 258.043 72.968C257.509 73.1387 256.955 73.224 256.379 73.224ZM257.835 67.624C257.835 67.016 257.696 66.536 257.419 66.184C257.141 65.8213 256.715 65.64 256.139 65.64C255.669 65.64 255.248 65.8107 254.875 66.152C254.501 66.4827 254.272 66.9733 254.187 67.624H257.835ZM263.707 64.04L263.867 65.624H263.931C264.262 65.0373 264.646 64.5893 265.083 64.28C265.531 63.9707 265.995 63.816 266.475 63.816C266.721 63.816 266.923 63.8373 267.083 63.88C267.243 63.912 267.393 63.9547 267.531 64.008L267.115 66.04C266.966 65.9867 266.817 65.9493 266.667 65.928C266.529 65.9067 266.369 65.896 266.187 65.896C265.835 65.896 265.467 66.0293 265.083 66.296C264.699 66.552 264.379 67.0053 264.123 67.656V73H261.787V64.04H263.707ZM270.676 64.04L270.836 65.224H270.9C271.295 64.84 271.727 64.5093 272.196 64.232C272.666 63.9547 273.204 63.816 273.812 63.816C274.783 63.816 275.487 64.136 275.924 64.776C276.362 65.4053 276.58 66.2853 276.58 67.416V73H274.228V67.704C274.228 67.0107 274.127 66.5253 273.924 66.248C273.732 65.9707 273.412 65.832 272.964 65.832C272.591 65.832 272.271 65.9173 272.004 66.088C271.738 66.2587 271.434 66.5093 271.092 66.84V73H268.756V64.04H270.676ZM223.119 95.592C222.362 94.3547 221.775 93.0693 221.359 91.736C220.943 90.392 220.735 88.9147 220.735 87.304C220.735 85.704 220.943 84.2373 221.359 82.904C221.775 81.56 222.362 80.2693 223.119 79.032L224.591 79.656C223.919 80.8507 223.423 82.0827 223.103 83.352C222.794 84.6107 222.639 85.928 222.639 87.304C222.639 88.7013 222.794 90.0293 223.103 91.288C223.423 92.5467 223.919 93.7733 224.591 94.968L223.119 95.592ZM239.454 92.664H226.11V90.952H231.71V87.96H227.518V80.728H237.998V87.96H233.822V90.952H239.454V92.664ZM235.934 86.296V82.392H229.582V86.296H235.934ZM251.037 79.64H253.149V90.36H251.037V85.16H247.533V83.48H251.037V79.64ZM249.197 87.992C248.717 88.088 248.242 88.168 247.773 88.232C247.314 88.2853 246.834 88.328 246.333 88.36C245.831 88.392 245.298 88.4133 244.733 88.424C244.167 88.4347 243.549 88.44 242.877 88.44H241.693V80.648H248.365V82.328H243.789V86.744C244.834 86.744 245.762 86.712 246.573 86.648C247.394 86.5733 248.215 86.4667 249.037 86.328L249.197 87.992ZM253.485 94.168H243.437V89.496H245.549V92.472H253.485V94.168ZM255.531 82.632V80.968H258.811V79.544H260.939V80.968H264.219V82.632H255.531ZM267.147 85V88.52H265.035V79.656H267.147V83.272H269.099V85H267.147ZM263.499 85.72C263.499 86.1147 263.409 86.4773 263.227 86.808C263.057 87.1387 262.811 87.4213 262.491 87.656C262.171 87.88 261.787 88.056 261.339 88.184C260.902 88.312 260.417 88.376 259.883 88.376C259.35 88.376 258.859 88.312 258.411 88.184C257.974 88.056 257.595 87.88 257.275 87.656C256.955 87.4213 256.705 87.1387 256.523 86.808C256.353 86.4773 256.267 86.1147 256.267 85.72C256.267 85.3253 256.353 84.968 256.523 84.648C256.705 84.3173 256.955 84.04 257.275 83.816C257.595 83.5813 257.974 83.4 258.411 83.272C258.859 83.144 259.35 83.08 259.883 83.08C260.417 83.08 260.902 83.144 261.339 83.272C261.787 83.4 262.171 83.5813 262.491 83.816C262.811 84.04 263.057 84.3173 263.227 84.648C263.409 84.968 263.499 85.3253 263.499 85.72ZM258.283 85.72C258.283 86.0933 258.427 86.3707 258.715 86.552C259.014 86.7333 259.403 86.824 259.883 86.824C260.363 86.824 260.747 86.7333 261.035 86.552C261.334 86.3707 261.483 86.0933 261.483 85.72C261.483 85.3573 261.334 85.0853 261.035 84.904C260.747 84.7227 260.363 84.632 259.883 84.632C259.403 84.632 259.014 84.7227 258.715 84.904C258.427 85.0853 258.283 85.3573 258.283 85.72ZM267.147 89.16V94.2H257.563V89.16H267.147ZM265.083 92.552V90.824H259.643V92.552H265.083ZM270.41 94.968C271.082 93.7733 271.573 92.5467 271.882 91.288C272.202 90.0293 272.362 88.7013 272.362 87.304C272.362 85.928 272.202 84.6107 271.882 83.352C271.573 82.0827 271.082 80.8507 270.41 79.656L271.866 79.032C272.634 80.2693 273.226 81.56 273.642 82.904C274.058 84.2373 274.266 85.704 274.266 87.304C274.266 88.9147 274.053 90.392 273.626 91.736C273.21 93.0693 272.623 94.3547 271.866 95.592L270.41 94.968Z" fill="#F67499"/>
</svg>
