<svg width="292" height="54" viewBox="0 0 292 54" fill="none" xmlns="http://www.w3.org/2000/svg">
<path d="M4.93945 3.48242C6.21387 3.48242 7.33008 3.94824 8.10352 4.73047H11.7246V2.62109H13.957V11.9902H11.7246V10.0742H8.08594C7.3125 10.8477 6.20508 11.3135 4.93945 11.3047C2.51367 11.3223 0.667969 9.65234 0.685547 7.40234C0.667969 5.11719 2.51367 3.48242 4.93945 3.48242ZM4.93945 5.39844C3.69141 5.39844 2.79492 6.13672 2.8125 7.40234C2.79492 8.63281 3.69141 9.42383 4.93945 9.40625C6.15234 9.42383 7.03125 8.63281 7.03125 7.40234C7.03125 6.13672 6.15234 5.39844 4.93945 5.39844ZM8.49023 12.3242C11.8828 12.3242 13.9922 13.4844 14.0098 15.4707C13.9922 17.457 11.8828 18.6172 8.49023 18.6172C5.11523 18.6172 2.98828 17.457 2.98828 15.4707C2.98828 13.4844 5.11523 12.3242 8.49023 12.3242ZM8.49023 14.0293C6.36328 14.0293 5.18555 14.5039 5.18555 15.4707C5.18555 16.4023 6.36328 16.877 8.49023 16.877C10.6523 16.877 11.8125 16.4023 11.8125 15.4707C11.8125 14.5039 10.6523 14.0293 8.49023 14.0293ZM9.07031 6.50586C9.12305 6.78711 9.1582 7.09473 9.1582 7.40234C9.1582 7.70996 9.12305 8 9.07031 8.28125H11.7246V6.50586H9.07031ZM30.6562 10.5312V12.3066H24.627V15.0664H22.4121V12.3066H16.0137V10.5312H30.6562ZM28.7754 3.32422V9.21289H17.8418V3.32422H28.7754ZM20.0391 5.06445V7.47266H26.5781V5.06445H20.0391ZM29.0391 16.543V18.3359H17.7363V13.6777H19.9688V16.543H29.0391ZM44.877 3.20117V5.01172H42.7852V7.77148H44.7715V9.51172H39.9902V11.0059H46.1777V12.7637H31.5879V11.0059H37.7402V9.51172H32.9766V7.77148H34.9453V5.01172H32.8711V3.20117H44.877ZM44.5254 16.543V18.3359H33.3457V13.8008H35.5957V16.543H44.5254ZM37.1953 7.77148H40.5352V5.01172H37.1953V7.77148ZM60.1875 10.8828V12.6582H48.8672V3.79883H60.0645V5.60938H51.1523V7.29688H59.6953V9.05469H51.1523V10.8828H60.1875ZM61.7871 14.9258V16.7539H47.1445V14.9258H61.7871Z" fill="#222222"/>
<path d="M12.06 50H9.828L8.568 46.724H3.672L2.412 50H0.18L5.472 36.698H6.822L12.06 50ZM7.938 44.816L6.138 39.992L4.338 44.816H7.938ZM18.174 45.104L21.432 50H19.128L16.95 46.508L14.718 50H12.36L15.708 44.996L12.702 40.298H15.006L16.986 43.574L19.038 40.298H21.342L18.174 45.104ZM23.9783 39.02C23.5943 39.02 23.2703 38.894 23.0063 38.642C22.7423 38.378 22.6103 38.054 22.6103 37.67C22.6103 37.298 22.7423 36.986 23.0063 36.734C23.2703 36.482 23.5943 36.356 23.9783 36.356C24.3503 36.356 24.6623 36.482 24.9143 36.734C25.1663 36.986 25.2923 37.298 25.2923 37.67C25.2923 38.054 25.1663 38.378 24.9143 38.642C24.6623 38.894 24.3503 39.02 23.9783 39.02ZM24.9323 40.298V50H22.9523V40.298H24.9323ZM32.293 37.868C31.645 37.868 31.147 38.036 30.799 38.372C30.463 38.696 30.295 39.164 30.295 39.776V40.298H33.355V41.99H30.295V50H28.315V41.99H26.695V40.298H28.315V39.74C28.315 38.576 28.651 37.67 29.323 37.022C29.995 36.374 30.901 36.05 32.041 36.05C32.857 36.05 33.643 36.248 34.399 36.644L33.769 38.246C33.169 37.994 32.677 37.868 32.293 37.868ZM33.9422 45.14C33.9422 43.736 34.4222 42.536 35.3822 41.54C36.3542 40.544 37.5842 40.046 39.0722 40.046C40.5602 40.046 41.7842 40.544 42.7442 41.54C43.7162 42.524 44.2022 43.724 44.2022 45.14C44.2022 46.58 43.7162 47.792 42.7442 48.776C41.7962 49.76 40.5722 50.252 39.0722 50.252C37.5842 50.252 36.3542 49.76 35.3822 48.776C34.4222 47.78 33.9422 46.568 33.9422 45.14ZM42.2042 45.14C42.2042 44.252 41.8982 43.49 41.2862 42.854C40.6982 42.206 39.9602 41.882 39.0722 41.882C38.1962 41.882 37.4522 42.206 36.8402 42.854C36.2402 43.49 35.9402 44.252 35.9402 45.14C35.9402 46.04 36.2402 46.808 36.8402 47.444C37.4522 48.08 38.1962 48.398 39.0722 48.398C39.9482 48.398 40.6862 48.08 41.2862 47.444C41.8982 46.808 42.2042 46.04 42.2042 45.14ZM48.1701 50H46.1901V40.298H48.0801V41.684C48.6561 40.592 49.5741 40.046 50.8341 40.046C51.2421 40.046 51.6261 40.1 51.9861 40.208L51.8061 42.134C51.4821 42.014 51.1281 41.954 50.7441 41.954C49.9641 41.954 49.3401 42.218 48.8721 42.746C48.4041 43.274 48.1701 44.036 48.1701 45.032V50ZM64.7556 40.028C65.9196 40.028 66.8556 40.406 67.5636 41.162C68.2836 41.894 68.6436 42.908 68.6436 44.204V50H66.6636V44.528C66.6636 43.688 66.4656 43.04 66.0696 42.584C65.6736 42.116 65.1336 41.882 64.4496 41.882C63.7296 41.882 63.1416 42.128 62.6856 42.62C62.2416 43.112 62.0196 43.766 62.0196 44.582V50H60.0396V44.564C60.0396 43.736 59.8356 43.082 59.4276 42.602C59.0316 42.122 58.4916 41.882 57.8076 41.882C57.0876 41.882 56.4996 42.134 56.0436 42.638C55.5876 43.13 55.3596 43.79 55.3596 44.618V50H53.3796V40.298H55.3236V41.702C55.6116 41.186 56.0136 40.778 56.5296 40.478C57.0456 40.178 57.6216 40.028 58.2576 40.028C58.9176 40.04 59.5176 40.202 60.0576 40.514C60.5976 40.826 60.9936 41.258 61.2456 41.81C61.5816 41.27 62.0616 40.838 62.6856 40.514C63.3216 40.19 64.0116 40.028 64.7556 40.028ZM78.6587 41.648V40.298H80.5667V50H78.6587V48.668C77.7707 49.712 76.6667 50.234 75.3467 50.234C73.9427 50.234 72.7847 49.742 71.8727 48.758C70.9607 47.774 70.5047 46.55 70.5047 45.086C70.5047 43.634 70.9607 42.434 71.8727 41.486C72.7847 40.538 73.9427 40.064 75.3467 40.064C76.6787 40.064 77.7827 40.592 78.6587 41.648ZM75.6167 48.416C76.5167 48.416 77.2667 48.098 77.8667 47.462C78.4547 46.838 78.7487 46.064 78.7487 45.14C78.7487 44.228 78.4547 43.46 77.8667 42.836C77.2667 42.2 76.5167 41.882 75.6167 41.882C74.6927 41.882 73.9427 42.2 73.3667 42.836C72.7907 43.46 72.5027 44.234 72.5027 45.158C72.5027 46.082 72.7907 46.856 73.3667 47.48C73.9427 48.104 74.6927 48.416 75.6167 48.416Z" fill="#222222"/>
<path d="M204.201 2.63867V7.54297H206.363V9.37109H204.201V14.5742H201.951V2.63867H204.201ZM201.002 4.30859V6.08398H191.51V4.30859H195.148V2.60352H197.381V4.30859H201.002ZM196.256 6.64648C198.576 6.64648 200.193 7.89453 200.193 9.74023C200.193 11.5859 198.576 12.7988 196.256 12.7988C193.918 12.7988 192.283 11.5859 192.283 9.74023C192.283 7.89453 193.918 6.64648 196.256 6.64648ZM196.256 8.35156C195.184 8.36914 194.463 8.86133 194.48 9.74023C194.463 10.6191 195.184 11.0938 196.256 11.0938C197.328 11.0938 198.066 10.6191 198.066 9.74023C198.066 8.86133 197.328 8.36914 196.256 8.35156ZM204.781 16.543V18.3359H193.83V13.6602H196.062V16.543H204.781ZM219.969 3.27148V4.36133C219.969 5.38965 219.969 6.67285 219.67 8.28125H221.709V10.0391H207.066V8.28125H217.402C217.666 6.98047 217.719 5.93457 217.736 5.04688H208.859V3.27148H219.969ZM219.898 11.1641V15.6465H210.969V16.7715H220.338V18.4941H208.736V13.959H217.684V12.9043H208.719V11.1641H219.898ZM235.912 3.20117V5.01172H233.82V7.77148H235.807V9.51172H231.025V11.0059H237.213V12.7637H222.623V11.0059H228.775V9.51172H224.012V7.77148H225.98V5.01172H223.906V3.20117H235.912ZM235.561 16.543V18.3359H224.381V13.8008H226.631V16.543H235.561ZM228.23 7.77148H231.57V5.01172H228.23V7.77148ZM251.223 10.8828V12.6582H239.902V3.79883H251.1V5.60938H242.188V7.29688H250.73V9.05469H242.188V10.8828H251.223ZM252.822 14.9258V16.7539H238.18V14.9258H252.822Z" fill="#222222"/>
<path d="M205.291 43.762C203.839 43.474 202.597 42.952 201.565 42.196C200.545 41.44 199.765 40.534 199.225 39.478C198.685 40.534 197.905 41.446 196.885 42.214C195.865 42.97 194.629 43.486 193.177 43.762L192.169 41.782C193.105 41.626 193.933 41.356 194.653 40.972C195.373 40.576 195.979 40.12 196.471 39.604C196.963 39.088 197.335 38.53 197.587 37.93C197.839 37.318 197.965 36.718 197.965 36.13V34.942H200.503V36.13C200.503 36.73 200.629 37.336 200.881 37.948C201.133 38.548 201.505 39.106 201.997 39.622C202.489 40.138 203.095 40.588 203.815 40.972C204.535 41.356 205.363 41.626 206.299 41.782L205.291 43.762ZM206.821 48.532H191.809V46.606H206.821V48.532ZM223.38 48.676H208.368V46.768H214.65V43.816H209.628V41.926H211.788V37.228H209.538V35.338H222.138V37.228H219.888V41.926H222.084V43.816H217.026V46.768H223.38V48.676ZM217.53 41.926V37.228H214.146V41.926H217.53ZM237.904 42.25V50.512H235.528V33.952H237.904V40.288H240.226V42.25H237.904ZM233.494 35.554C233.494 36.826 233.398 38.05 233.206 39.226C233.014 40.39 232.648 41.5 232.108 42.556C231.58 43.6 230.836 44.584 229.876 45.508C228.916 46.432 227.662 47.29 226.114 48.082L224.854 46.246C226.21 45.574 227.308 44.848 228.148 44.068C228.988 43.288 229.642 42.442 230.11 41.53L225.304 41.998L224.998 39.982L230.794 39.64C230.878 39.292 230.95 38.938 231.01 38.578C231.07 38.218 231.112 37.84 231.136 37.444H225.88V35.554H233.494ZM241.485 37.57V35.716H245.157V33.952H247.551V35.716H251.259L251.241 37.57H241.485ZM256.731 40.99H254.535V46.372H252.159V33.97H254.535V39.028H256.731V40.99ZM250.431 41.35C250.431 41.83 250.329 42.268 250.125 42.664C249.921 43.048 249.639 43.384 249.279 43.672C248.919 43.948 248.487 44.164 247.983 44.32C247.491 44.476 246.951 44.554 246.363 44.554C245.763 44.554 245.211 44.476 244.707 44.32C244.215 44.164 243.789 43.948 243.429 43.672C243.069 43.384 242.787 43.048 242.583 42.664C242.391 42.268 242.295 41.83 242.295 41.35C242.295 40.882 242.391 40.456 242.583 40.072C242.787 39.676 243.069 39.34 243.429 39.064C243.789 38.776 244.215 38.554 244.707 38.398C245.211 38.242 245.763 38.164 246.363 38.164C246.951 38.164 247.491 38.242 247.983 38.398C248.487 38.554 248.919 38.776 249.279 39.064C249.639 39.34 249.921 39.676 250.125 40.072C250.329 40.456 250.431 40.882 250.431 41.35ZM244.563 41.35C244.563 41.806 244.725 42.154 245.049 42.394C245.385 42.634 245.823 42.754 246.363 42.754C246.903 42.754 247.335 42.634 247.659 42.394C247.995 42.154 248.163 41.806 248.163 41.35C248.163 40.894 247.995 40.552 247.659 40.324C247.335 40.084 246.903 39.964 246.363 39.964C245.823 39.964 245.385 40.084 245.049 40.324C244.725 40.552 244.563 40.894 244.563 41.35ZM255.129 48.37V50.26H243.843V45.454H246.219V48.37H255.129ZM273.29 40.738H271.094V46.102H268.718V33.97H271.094V38.776H273.29V40.738ZM266.738 43.69C265.838 43.39 265.076 42.958 264.452 42.394C263.84 41.83 263.354 41.17 262.994 40.414C262.622 41.242 262.106 41.968 261.446 42.592C260.798 43.216 260 43.684 259.052 43.996L257.792 42.142C258.488 41.914 259.082 41.614 259.574 41.242C260.078 40.858 260.492 40.432 260.816 39.964C261.14 39.484 261.374 38.974 261.518 38.434C261.674 37.882 261.752 37.324 261.752 36.76V34.978H264.164V36.778C264.164 37.306 264.236 37.828 264.38 38.344C264.524 38.848 264.746 39.328 265.046 39.784C265.358 40.228 265.754 40.63 266.234 40.99C266.714 41.338 267.29 41.62 267.962 41.836L266.738 43.69ZM271.67 48.37V50.26H260.42V44.95H262.796V48.37H271.67ZM288.084 43.762C286.632 43.474 285.39 42.952 284.358 42.196C283.338 41.44 282.558 40.534 282.018 39.478C281.478 40.534 280.698 41.446 279.678 42.214C278.658 42.97 277.422 43.486 275.97 43.762L274.962 41.782C275.898 41.626 276.726 41.356 277.446 40.972C278.166 40.576 278.772 40.12 279.264 39.604C279.756 39.088 280.128 38.53 280.38 37.93C280.632 37.318 280.758 36.718 280.758 36.13V34.942H283.296V36.13C283.296 36.73 283.422 37.336 283.674 37.948C283.926 38.548 284.298 39.106 284.79 39.622C285.282 40.138 285.888 40.588 286.608 40.972C287.328 41.356 288.156 41.626 289.092 41.782L288.084 43.762ZM289.614 48.532H274.602V46.606H289.614V48.532Z" fill="#222222"/>
</svg>
