<svg width="140" height="51" viewBox="0 0 140 51" fill="none" xmlns="http://www.w3.org/2000/svg">
<g clip-path="url(#clip0_35_59)">
<path d="M74.4525 0.000710549C73.3154 -0.0265591 72.1806 0.728676 71.0535 2.68378C69.4138 5.52181 64.2535 13.2557 63.6991 15.566C63.2728 17.3026 64.4243 17.2803 65.7881 16.433C72.313 12.3668 74.8932 11.5165 79.6474 13.8916C84.0581 16.0941 89.1537 16.2637 89.3894 13.9538C88.2385 14.2305 87.3204 14.0609 86.4678 13.8264C86.6611 12.7676 88.4515 13.149 88.3663 11.7513C87.8972 11.7935 85.6583 12.2168 85.5731 11.6661C85.4878 11.1776 86.8316 11.432 86.5959 10.1191C85.7005 9.84505 84.8482 10.0765 84.7202 9.42137C84.5697 8.80614 86.2354 8.151 85.8717 7.154C85.1668 7.40807 82.9304 7.25842 82.9304 7.25842C82.9304 7.25842 84.0805 6.47592 84.2938 5.43668C82.9922 5.52148 78.9201 2.8301 77.11 1.28538C76.2233 0.51584 75.3372 0.0216616 74.4525 0.000710549ZM16.3512 8.5095C15.8169 9.5065 15.3281 10.8191 15.2201 12.4935C15.1348 14.1457 15.3481 15.4167 15.8821 17.0063C15.2201 19.5058 14.774 21.265 14.7513 24.7383L16.63 26.8367L17.4398 24.6112L19.3781 27.579L21.8309 24.9504L23.4926 27.113L25.4114 24.6112L27.6081 27.3874L24.9223 29.9933L24.388 27.9601L22.3618 29.7392L21.2959 27.9178L18.1841 30.2477L14.8794 27.1553C14.6035 28.2767 14.7316 31.4339 14.9646 32.408C15.2204 33.4699 17.2268 33.4469 18.8896 33.5739C21.3818 33.7236 27.4142 33.7016 30.8045 33.3006C38.5231 32.3661 40.3563 29.4429 40.143 24.3372C39.93 18.85 36.9035 16.1171 32.2968 15.3745C30.5916 15.1201 27.6506 15.0126 27.6081 15.0126C27.6081 15.0126 25.369 12.7256 24.6016 9.90723C23.5357 10.9465 23.2174 13.8068 23.2174 15.1001C22.2565 15.1427 20.9779 15.4393 20.9779 15.4393C20.0825 14.8008 17.6725 12.1975 16.3512 8.5095ZM101.813 14.2092C100.054 14.2098 98.1848 14.3721 96.4656 14.7163C94.3572 15.1427 92.4815 16.5181 91.2852 19.0622C90.3473 21.0954 89.8782 26.9012 91.5633 29.1233C92.3731 30.1852 94.3769 31.9002 101.499 32.3658C104.312 32.5354 106.85 32.0492 107.892 31.5184C108.958 30.9677 111.135 30.143 111.794 26.3927C111.965 25.5005 112.712 21.0106 110.919 18.0655C109.663 16.0096 107.404 14.6967 104.804 14.3775C103.884 14.2661 102.868 14.2085 101.813 14.2092ZM124.156 14.6807C122.551 14.7127 121.021 15.1962 119.726 16.2438C117.7 15.713 113.329 15.5015 113.693 18.1503C114.139 21.3498 114.332 24.4217 114.46 28.9118C114.503 29.9511 114.395 32.9813 113.139 33.3006C112.073 33.5547 110.772 33.3624 109.834 33.4895C108.703 33.6817 107.637 34.3372 107.296 35.4602C106.594 37.6637 107.68 39.1256 110.132 39.7615C109.598 38.6384 109.706 37.4309 110.024 36.6045C110.194 38.0877 110.302 39.3162 112.817 40.2487C112.263 38.8925 112.925 37.3248 113.158 36.9225C113.565 38.5536 114.673 39.825 116.484 40.3973C115.503 37.9604 115.952 37.113 116.08 36.5626C117.103 36.8377 118.661 37.1552 119.47 36.6468C120.343 36.117 120.409 31.4562 120.514 28.0874C120.343 23.5746 124.012 23.3828 125.694 25.3116C128.402 28.4263 127.123 38.702 121.005 43.2148C115.801 47.0498 106.722 47.8556 100.879 45.8213C96.1473 44.1898 93.8232 41.8799 92.439 40.2065C92.2909 40.0465 92.1047 39.9996 91.9468 40.0458C91.9468 40.0428 91.9468 40.0395 91.9475 40.0368C91.7543 40.0791 91.563 40.2913 91.4353 40.4818C90.9237 41.3714 90.5402 42.6002 90.6027 43.9989C90.6255 44.9524 90.9244 45.7152 91.3082 46.0332C91.6493 46.3085 91.8395 46.1389 91.9475 45.6727C92.1033 44.9554 92.4236 43.6873 92.7994 43.2896C92.7296 43.8423 92.8419 44.4861 93.0555 45.1432C93.2261 45.694 93.6948 46.3717 94.0586 46.6684C94.2916 46.838 94.5277 46.7741 94.5902 46.4988C94.6812 46.0708 94.4679 45.388 94.7286 45.1063C97.5526 47.6431 101.067 49.7418 107.233 50.5882C115.483 51.7325 123.114 49.7618 128.317 45.5453C135.053 40.3335 135.928 34.1898 136.59 31.7106L140 28.8074L136.931 26.5201L139.957 23.2783L135.607 21.3073L138.209 16.2637L130.386 16.5604C128.407 15.3452 126.219 14.6395 124.156 14.6807ZM51.8808 15.6492C47.0594 15.576 42.5122 16.6625 42.445 19.3365C42.4022 20.7991 42.104 28.9541 41.5072 33.5739C41.3139 35.0997 40.1858 36.3288 38.6712 36.6468C37.074 36.9647 35.3885 36.986 34.2377 37.9181C31.9357 39.7405 32.7234 43.8719 36.0087 43.554C35.2839 42.0076 35.9429 40.5876 35.9429 40.5876C35.9429 40.5876 37.4775 43.5327 39.1627 43.6175C38.5234 41.5623 39.1627 40.5031 39.1627 40.5031C39.1627 40.5031 40.484 42.3887 42.212 42.1133C41.1661 40.3125 41.7633 38.5533 41.7633 38.5533C41.7633 38.5533 46.0055 38.0877 46.6876 37.1978C47.4977 36.1386 47.7739 32.9388 47.9668 31.9221C48.3734 29.6548 52.9547 30.2281 54.1055 31.2643C56.1117 33.131 56.0033 34.846 55.3868 36.1805C54.8525 37.2823 54.0427 37.4519 53.5936 38.8077C52.613 41.7528 56.325 42.7914 56.7085 42.7279C55.9612 41.3504 56.3875 40.5663 56.3875 40.5663C56.3875 40.5663 57.6233 42.0498 58.9249 41.393C57.774 40.7149 58.0074 39.1469 58.0074 39.1469C58.0074 39.1469 59.3512 40.7146 60.9935 40.1004C59.9905 38.9773 59.5217 38.4476 59.499 37.6212C59.4789 36.4133 60.4599 36.414 61.037 35.1639C61.5485 34.0631 60.3091 31.6877 58.1151 30.397C62.4857 30.6514 64.1485 27.006 64.1485 24.0183C64.1485 20.8187 62.9321 18.0233 59.948 16.9415C57.7657 16.155 54.7736 15.6931 51.8808 15.6492ZM77.2932 16.577C76.5922 16.5793 75.8914 16.6019 75.1918 16.6448C72.8871 16.7945 68.2406 17.3452 66.5555 20.5447C65.0863 23.2783 64.8503 30.714 66.5123 33.0239C67.6662 34.6345 69.6044 35.3545 72.077 35.7994C76.1721 36.5197 81.9069 35.969 84.8255 34.8882C89.4519 33.1732 89.8785 30.1207 88.6424 25.6505C88.2586 24.2723 88.8554 22.5783 88.8554 22.5783C88.8554 22.5783 87.2158 22.1347 86.2354 24.2527C85.8061 23.0243 87.1499 22.0894 87.3632 21.7506C86.0415 21.4965 84.8054 22.2195 83.9528 24.0831C83.4841 22.7276 84.6128 21.7509 84.9338 21.3921C83.3991 21.3076 81.4575 22.3884 81.2245 23.998C80.8835 26.4549 83.8024 26.5627 84.8255 28.0452C86.5761 30.567 79.5394 33.108 77.4279 28.5956C76.3848 26.3505 76.4483 21.138 79.0285 19.867C80.9042 18.9551 84.2514 19.7173 85.0187 19.7399C85.7633 19.7596 85.9793 18.9351 85.2518 18.277C84.4313 17.5357 81.8982 16.5673 77.2932 16.577Z" fill="white"/>
<path d="M9.10307 21.5193L4.51977 20.4375L7.18456 23.1711L5.09486 23.8489L0 20.8189L2.72865 26.2862L7.5042 26.9014L3.51772 28.2569L8.35713 29.9938L11.384 27.0707L14.2825 26.3284L10.5311 24.1681L9.10307 21.5193Z" fill="#FF0614"/>
<path d="M101.05 27.7259H101.499C101.499 25.3961 103.374 23.5324 105.719 23.5324V23.0861C103.374 23.0861 101.499 21.1999 101.499 18.8926H101.05C101.05 21.1999 99.1538 23.0861 96.8293 23.0861V23.5324C99.1541 23.5324 101.05 25.3961 101.05 27.7259Z" fill="#FFBC00"/>
</g>
<defs>
<clipPath id="clip0_35_59">
<rect width="140" height="50.9091" fill="white"/>
</clipPath>
</defs>
</svg>
