<svg width="18" height="19" viewBox="0 0 18 19" fill="none" xmlns="http://www.w3.org/2000/svg">
<path fill-rule="evenodd" clip-rule="evenodd" d="M0.206543 5.03713C0.206543 2.39325 2.34979 0.25 4.99367 0.25H13.2001C15.8439 0.25 17.9872 2.39325 17.9872 5.03713V13.2436C17.9872 15.8874 15.8439 18.0306 13.2001 18.0306H4.99367C2.34979 18.0306 0.206543 15.8874 0.206543 13.2436V5.03713ZM6.29123 9.41213C6.29123 11.1117 7.66904 12.4895 9.36867 12.4895C11.0682 12.4895 12.446 11.1117 12.446 9.41213C12.446 7.7125 11.0682 6.33469 9.36867 6.33469C7.66904 6.33469 6.29123 7.7125 6.29123 9.41213ZM9.36867 4.625C6.72479 4.625 4.58154 6.76825 4.58154 9.41213C4.58154 12.0559 6.72479 14.1992 9.36867 14.1992C12.0125 14.1992 14.1557 12.0559 14.1557 9.41213C14.1557 6.76825 12.0125 4.625 9.36867 4.625ZM14.3574 2.75C13.7908 2.75 13.3315 3.20925 13.3315 3.77581C13.3315 4.34231 13.7908 4.80163 14.3574 4.80163C14.9239 4.80163 15.3832 4.34231 15.3832 3.77581C15.3832 3.20925 14.9239 2.75 14.3574 2.75Z" fill="white"/>
</svg>
