<svg width="321" height="115" viewBox="0 0 321 115" fill="none" xmlns="http://www.w3.org/2000/svg">
<path d="M108.878 1.71484H23.1487C11.312 1.71484 1.71643 11.3107 1.71643 23.1477C1.71643 34.9847 11.312 44.5805 23.1487 44.5805H108.878C120.714 44.5805 130.31 34.9847 130.31 23.1477C130.31 11.3107 120.714 1.71484 108.878 1.71484Z" stroke="white" stroke-width="1.71455"/>
<path d="M297.481 1.71484H211.752C199.916 1.71484 190.32 11.3107 190.32 23.1477C190.32 34.9847 199.916 44.5805 211.752 44.5805H297.481C309.318 44.5805 318.914 34.9847 318.914 23.1477C318.914 11.3107 309.318 1.71484 297.481 1.71484Z" stroke="white" stroke-width="1.71455"/>
<path d="M160.315 70.2998H74.586C62.7493 70.2998 53.1538 79.8956 53.1538 91.7326C53.1538 103.57 62.7493 113.165 74.586 113.165H160.315C172.152 113.165 181.747 103.57 181.747 91.7326C181.747 79.8956 172.152 70.2998 160.315 70.2998Z" stroke="white" stroke-width="1.71455"/>
<path d="M160.315 44.5805C172.152 44.5805 181.747 34.9847 181.747 23.1477C181.747 11.3107 172.152 1.71484 160.315 1.71484C148.478 1.71484 138.883 11.3107 138.883 23.1477C138.883 34.9847 148.478 44.5805 160.315 44.5805Z" fill="white" stroke="white" stroke-width="1.71455"/>
<path d="M23.1487 113.165C34.9854 113.165 44.5809 103.57 44.5809 91.7326C44.5809 79.8956 34.9854 70.2998 23.1487 70.2998C11.312 70.2998 1.71643 79.8956 1.71643 91.7326C1.71643 103.57 11.312 113.165 23.1487 113.165Z" fill="white" stroke="white" stroke-width="1.71455"/>
<path d="M297.481 70.2998H211.752C199.916 70.2998 190.32 79.8956 190.32 91.7326C190.32 103.57 199.916 113.165 211.752 113.165H297.481C309.318 113.165 318.914 103.57 318.914 91.7326C318.914 79.8956 309.318 70.2998 297.481 70.2998Z" fill="white" stroke="white" stroke-width="1.71455"/>
</svg>
