<svg width="18" height="17" viewBox="0 0 18 17" fill="none" xmlns="http://www.w3.org/2000/svg">
<path fill-rule="evenodd" clip-rule="evenodd" d="M2.31784 0H16.5952C17.347 0 17.9565 0.6095 17.9565 1.3613V15.6387C17.9565 16.3905 17.347 17 16.5952 17H2.31784C1.56604 17 0.956543 16.3905 0.956543 15.6387V1.3613C0.956543 0.6095 1.56604 0 2.31784 0ZM14.5564 3.25H12.8696L10.0902 6.7649L7.68714 3.25H4.20654L8.36524 9.2662L4.42374 14.25H6.11154L9.15354 10.4045L11.8121 14.25H15.2065L10.8714 7.9095L14.5564 3.25ZM13.2123 13.1331H12.2777L6.17624 4.3083H7.17924L13.2123 13.1331Z" fill="white"/>
</svg>
