<svg width="181" height="438" viewBox="0 0 181 438" fill="none" xmlns="http://www.w3.org/2000/svg">
<path d="M130.5 109C157 109 170 134 170 177.5V339C170 389 160 419 120 419H60C20 419 10 389 10 339V251.5C10 250 11 249 12.5 249H72.5C74 249 75 250 75 251.5V359H105V174H75V216.5C75 218 74 219 72.5 219H12.5C11 219 10 218 10 216.5V21.5C10 20 11 19 12.5 19H162.5C164 19 165 20 165 21.5V76.5C165 78 164 79 162.5 79H75V159H85C90 144 98 109 130.5 109Z" fill="#EEC6C7"/>
<path d="M95.0916 346.874C104.596 340.253 113.943 332.971 120.326 323.345C126.709 313.72 129.754 301.299 125.775 290.545C123.032 283.135 117.323 277.236 113.523 270.31C109.722 263.385 108.204 253.979 113.562 248.081C102.583 254.887 97.44 269.634 102.86 281.216C104.078 283.817 105.729 286.233 106.537 288.989C107.344 291.746 107.11 295.07 104.987 297.045C102.914 298.972 99.5623 299.014 97.0516 297.731C94.541 296.447 92.7651 294.1 91.43 291.63C85.9427 281.483 86.9121 268.874 90.9962 258.028C95.0846 247.186 101.972 237.636 108.308 227.905C114.644 218.173 120.604 207.823 122.449 196.409C124.04 186.563 122.398 176.254 117.83 167.417C113.241 158.532 105.824 151.272 97.3457 145.891C107.426 161.888 105.704 182.063 95.2728 197.985C87.5755 209.733 75.3128 217.831 66.7782 228.991C56.2707 242.726 52.0364 260.878 54.9173 277.804C57.8026 294.731 67.6466 310.248 81.4556 320.517C86.0293 323.916 91.0806 326.831 94.7308 331.191C98.3809 335.55 97.7814 341.833 95.0871 346.874L95.0916 346.874Z" fill="#181818"/>
<path d="M95.0922 322.825C104.597 316.205 113.944 308.922 120.327 299.297C126.71 289.672 129.755 277.251 125.775 266.496C123.033 259.087 117.324 253.188 113.523 246.262C109.723 239.336 108.204 229.931 113.562 224.032C102.583 230.838 97.4406 245.586 102.861 257.167C104.079 259.768 105.73 262.184 106.537 264.941C107.345 267.697 107.111 271.021 104.988 272.996C102.914 274.924 99.5629 274.966 97.0522 273.682C94.5417 272.399 92.7657 270.052 91.4306 267.582C85.9433 257.434 86.9127 244.825 90.9968 233.979C95.0852 223.138 101.972 213.588 108.308 203.856C114.644 194.125 120.604 183.774 122.45 172.36C124.041 162.514 122.399 152.206 117.831 143.369C113.241 134.483 105.825 127.223 97.3464 121.842C107.427 137.839 105.704 158.014 95.2734 173.936C87.5761 185.684 75.3134 193.782 66.7788 204.943C56.2713 218.678 52.037 236.829 54.9179 253.756C57.8032 270.683 67.6472 286.199 81.4562 296.468C86.03 299.868 91.0812 302.783 94.7314 307.142C98.3815 311.502 97.782 317.784 95.0877 322.825L95.0922 322.825Z" fill="#EB4545"/>
</svg>
