<svg xmlns="http://www.w3.org/2000/svg" version="1.1" width="100px" height="100px" style="shape-rendering:geometricPrecision; text-rendering:geometricPrecision; image-rendering:optimizeQuality; fill-rule:evenodd; clip-rule:evenodd" xmlns:xlink="http://www.w3.org/1999/xlink">
<g><path style="opacity:1" fill="#FFF" d="M 10.5,2.5 C 18.84,2.3336 27.1733,2.50027 35.5,3C 37.6396,11.1628 42.1396,12.9961 49,8.5C 50.128,6.65472 50.628,4.65472 50.5,2.5C 59.1667,2.5 67.8333,2.5 76.5,2.5C 76.5,9.5 76.5,16.5 76.5,23.5C 72.5,23.5 68.5,23.5 64.5,23.5C 64.3433,24.8734 64.51,26.2068 65,27.5C 71.1656,23.6665 74.6656,25.3331 75.5,32.5C 92.0247,35.8837 98.858,45.8837 96,62.5C 94.3981,67.8769 91.2315,72.0435 86.5,75C 87.3097,78.2025 88.3097,81.3692 89.5,84.5C 89.3918,85.4419 89.0585,86.2753 88.5,87C 76.0402,90.3765 63.5402,93.5431 51,96.5C 46.5834,97.0398 44.2501,95.0398 44,90.5C 43.6954,95.3085 41.1954,97.3085 36.5,96.5C 28.4695,95.194 20.4695,93.694 12.5,92C 9.0779,91.3264 5.91124,90.1598 3,88.5C 3.99835,73.3355 6.83168,58.5022 11.5,44C 14.7603,43.2165 17.9269,43.3832 21,44.5C 21.5004,37.4941 22.0004,30.4941 22.5,23.5C 18.5,23.5 14.5,23.5 10.5,23.5C 10.5,16.5 10.5,9.5 10.5,2.5 Z M 14.5,6.5 C 15.8001,8.22299 16.4668,10.3897 16.5,13C 16.1667,15.1667 15.8333,17.3333 15.5,19.5C 14.5078,15.2172 14.1744,10.8839 14.5,6.5 Z M 50.5,30.5 C 52.2706,24.0828 49.9372,20.4161 43.5,19.5C 38.6752,19.8729 36.3418,22.3729 36.5,27C 36.5625,29.6848 37.5625,31.8515 39.5,33.5C 36.674,34.5796 33.8407,35.5796 31,36.5C 30.4653,39.827 30.9653,42.9937 32.5,46C 30.2028,46.0178 27.8695,45.8511 25.5,45.5C 26.3398,36.8616 26.6732,28.195 26.5,19.5C 24.5,19.5 22.5,19.5 20.5,19.5C 20.5,15.1667 20.5,10.8333 20.5,6.5C 24.5123,5.88744 26.5123,7.55411 26.5,11.5C 29.766,11.5674 31.266,9.90076 31,6.5C 33.9588,14.2296 39.4588,17.0629 47.5,15C 51.3642,13.3022 54.0309,10.4689 55.5,6.5C 56.5896,7.39138 56.5896,8.39138 55.5,9.5C 59.2309,12.4633 60.8976,11.4633 60.5,6.5C 62.5,6.5 64.5,6.5 66.5,6.5C 66.5,10.8333 66.5,15.1667 66.5,19.5C 64.5,19.5 62.5,19.5 60.5,19.5C 60.5,22.5 60.5,25.5 60.5,28.5C 57.1667,29.1667 53.8333,29.8333 50.5,30.5 Z M 70.5,6.5 C 71.8001,8.22299 72.4668,10.3897 72.5,13C 72.1667,15.1667 71.8333,17.3333 71.5,19.5C 70.5078,15.2172 70.1744,10.8839 70.5,6.5 Z M 41.5,24.5 C 42.8333,24.5 44.1667,24.5 45.5,24.5C 45.6716,29.7498 44.0049,30.5831 40.5,27C 40.7432,26.0979 41.0766,25.2646 41.5,24.5 Z M 67.5,30.5 C 68.5,30.5 69.5,30.5 70.5,30.5C 74.1834,45.8996 78.1834,61.2329 82.5,76.5C 70.9903,80.3363 59.3236,83.6697 47.5,86.5C 46.0363,78.3003 46.8696,70.3003 50,62.5C 53.259,63.6494 56.5923,64.6494 60,65.5C 64.2678,63.5681 67.1012,60.4015 68.5,56C 67.7503,52.8365 67.0836,49.6699 66.5,46.5C 62.2428,45.1833 57.9095,44.6833 53.5,45C 51.6667,46.8333 49.8333,48.6667 48,50.5C 44.9006,49.5447 41.734,48.7114 38.5,48C 36.6644,45.5071 35.6644,42.6738 35.5,39.5C 46.4431,37.1007 57.1098,34.1007 67.5,30.5 Z M 77.5,38.5 C 82.1615,38.4896 85.4949,40.4896 87.5,44.5C 90.9854,47.4294 92.652,51.2627 92.5,56C 92.243,61.4465 90.0764,65.9465 86,69.5C 82.3505,59.4341 79.5172,49.1008 77.5,38.5 Z M 14.5,47.5 C 24.7949,49.8235 35.1282,51.9902 45.5,54C 46.0219,54.5613 46.3552,55.228 46.5,56C 43.9922,67.886 41.3255,79.7194 38.5,91.5C 37.8333,91.8333 37.1667,92.1667 36.5,92.5C 26.6026,89.8577 16.6026,87.8577 6.5,86.5C 8.90993,73.4504 11.5766,60.4504 14.5,47.5 Z M 55.5,49.5 C 62.0001,48.4987 64.5001,51.1653 63,57.5C 59.6435,61.3241 56.3102,61.3241 53,57.5C 52.0182,54.2253 52.8515,51.5586 55.5,49.5 Z M 27.5,62.5 C 31.1563,64.2661 31.1563,66.2661 27.5,68.5C 23.9284,66.6713 23.9284,64.6713 27.5,62.5 Z M 82.5,81.5 C 83.2891,81.7828 83.9558,82.2828 84.5,83C 72.9042,86.9445 61.2376,89.7779 49.5,91.5C 60.5873,88.1349 71.5873,84.8015 82.5,81.5 Z"/></g>
<g><path style="opacity:1" fill="#fff" d="M 77.5,27.5 C 81.5991,27.3666 85.2657,28.5333 88.5,31C 87.9288,32.2051 87.2621,33.3717 86.5,34.5C 83.3199,32.9054 79.9865,31.9054 76.5,31.5C 76.4326,30.0413 76.7659,28.7079 77.5,27.5 Z"/></g>
<g><path style="opacity:1" fill="#fff" d="M 90.5,32.5 C 93.9656,33.109 94.9656,34.9423 93.5,38C 88.7217,38.0734 87.7217,36.2401 90.5,32.5 Z"/></g>
<g><path style="opacity:1" fill="#fff" d="M 87.5,44.5 C 88.8678,47.0231 88.0345,48.6898 85,49.5C 82.7178,48.2885 82.2178,46.6219 83.5,44.5C 84.8084,43.3744 86.1417,43.3744 87.5,44.5 Z"/></g>
<g><path style="opacity:1" fill="#fff" d="M 88.5,49.5 C 89.1174,49.6107 89.6174,49.944 90,50.5C 91.1315,55.8888 90.2982,60.8888 87.5,65.5C 86.1667,64.8333 85.1667,63.8333 84.5,62.5C 86.4357,59.0808 86.769,55.5808 85.5,52C 86.5707,51.1482 87.5707,50.3149 88.5,49.5 Z"/></g>
<g><path style="opacity:1" fill="#fff" d="M 24.5,58.5 C 34.2567,58.3713 37.2567,62.7046 33.5,71.5C 24.8419,74.3157 20.6753,71.3157 21,62.5C 21.6897,60.6498 22.8564,59.3164 24.5,58.5 Z M 27.5,62.5 C 23.9284,64.6713 23.9284,66.6713 27.5,68.5C 31.1563,66.2661 31.1563,64.2661 27.5,62.5 Z"/></g>
<g><path style="opacity:1" fill="#fff" d="M 68.5,64.5 C 69.9778,64.238 71.3112,64.5713 72.5,65.5C 73.5896,66.6086 73.5896,67.6086 72.5,68.5C 65.2176,70.7834 58.051,72.45 51,73.5C 50.2195,72.0563 50.3861,70.723 51.5,69.5C 57.4104,68.277 63.0771,66.6103 68.5,64.5 Z"/></g>
<g><path style="opacity:1" fill="#fff" d="M 12.5,76.5 C 20.4419,78.4218 28.4419,80.0884 36.5,81.5C 36.5,82.8333 36.5,84.1667 36.5,85.5C 28.1617,84.277 19.8284,82.9437 11.5,81.5C 11.366,79.7085 11.6993,78.0418 12.5,76.5 Z"/></g>
</svg>
