<svg width="49" height="48" viewBox="0 0 49 48" fill="none" xmlns="http://www.w3.org/2000/svg">
<path d="M1.29662 29.7976L1.29757 29.805L1.29949 29.8124C2.07025 34.5722 4.11497 38.4195 7.20879 41.218C10.2836 43.9985 14.3083 45.667 18.9372 46.2407C27.9872 48.0225 36.8239 46.1478 42.4953 38.2196C46.6279 32.7745 48.8186 24.663 46.0145 17.9433C45.2447 13.3251 42.6588 9.13862 38.676 6.16645C32.5398 0.888568 24.8371 -0.601035 17.3277 2.89192C17.0761 3.00007 16.8188 3.10952 16.5568 3.22073C14.5968 4.05408 12.4043 4.98623 10.512 6.20803C8.39472 7.57503 6.49281 9.40105 5.61044 12.0519C3.45127 14.1991 2.18489 17.2167 1.54358 20.2996C0.881297 23.4849 0.856461 26.8827 1.29662 29.7976Z" fill="#7F0019" stroke="white" stroke-width="2"/>
<path d="M20.3775 33.1849C20.4221 33.2069 20.6567 33.2963 21.2295 33.1466L21.3539 33.114L21.4825 33.114C21.517 33.114 21.5442 33.1141 21.5686 33.1142C21.5913 33.1142 21.6115 33.1143 21.6329 33.1143C21.6473 33.0999 21.6634 33.0834 21.6817 33.0646L21.6938 33.0521L21.7064 33.0401C22.064 32.6965 22.4305 32.3476 22.8093 32.0053L22.8213 31.9945L22.8336 31.984C24.9772 30.1696 27.3425 28.6228 29.8249 27.3433L29.837 27.3371L29.8371 27.3372C30.6354 26.9394 31.4395 26.5672 32.2458 26.2098C32.6739 26.0019 33.1823 25.8492 33.6327 25.7199C33.7213 25.6944 33.8085 25.6696 33.8946 25.6452C34.2836 25.5346 34.6473 25.4313 34.9932 25.307C35.8884 24.9852 36.1586 24.6926 36.2162 24.4299C36.2302 24.2647 36.1232 23.9353 35.5754 23.5187C35.0466 23.1164 34.3703 22.8508 33.928 22.7906L33.8824 22.7843L33.8376 22.774C33.0656 22.5953 32.3109 22.3803 31.5603 22.1244L31.5482 22.1203L31.5361 22.1158C28.8232 21.1127 26.1059 20.0253 23.4784 18.7243C22.2132 18.127 21.4708 17.3439 20.844 16.6828C20.8263 16.6642 20.8088 16.6457 20.7914 16.6273C20.1862 15.9895 19.6769 15.4709 18.8105 15.0716C18.785 15.0671 18.7596 15.0626 18.7345 15.058C18.5144 15.0185 18.308 14.9814 18.0749 15.0078C17.9463 15.0224 17.8835 15.0534 17.8566 15.0727L17.856 15.0731C17.8494 15.0778 17.8341 15.0887 17.8154 15.1167C17.9102 15.8079 18.3807 16.4921 19.0386 17.2807L19.0387 17.2809C20.2409 18.7223 21.7158 19.5635 23.1775 20.1831C23.7846 20.4405 24.3726 20.6532 24.9459 20.8605C25.0699 20.9053 25.1933 20.95 25.316 20.9947C25.9817 21.2375 26.6554 21.4939 27.2153 21.8103L30.552 23.6958L26.7194 23.6809L13.0157 23.6276L12.9847 23.6275L12.9538 23.6254C12.4331 23.5911 11.9857 24.0144 12.001 24.5567C12.0159 25.0454 12.4087 25.4281 12.8826 25.4365L20.3775 33.1849ZM20.3775 33.1849L20.4368 33.1306C20.4196 33.1095 20.3991 33.0854 20.3752 33.0597C20.3668 33.0171 20.3645 32.8962 20.4663 32.6351C20.626 32.2255 20.9448 31.777 21.2351 31.4882L21.2581 31.4653L21.2796 31.4409C23.0839 29.3959 25.3399 28.282 27.9346 27.0008C28.3088 26.816 28.6901 26.6278 29.0781 26.4327L28.6168 24.5393C24.4862 24.5895 21.3376 24.8295 18.818 25.0493C18.4386 25.0823 18.0754 25.1147 17.7267 25.1458C15.7368 25.3234 14.2202 25.4586 12.8828 25.4366L20.3775 33.1849ZM19.6425 33.8578C19.7506 33.9924 19.9955 34.1728 20.437 34.2196C20.4953 34.1211 20.5284 34.0261 20.5466 33.951C20.6067 33.7044 20.5515 33.5123 20.5379 33.4658C20.4977 33.3284 20.4383 33.2518 20.423 33.2327C20.4003 33.2043 20.3833 33.1902 20.3769 33.1854L19.6425 33.8578ZM20.3769 33.0671C20.3813 33.074 20.3824 33.0781 20.3819 33.0785C20.3813 33.0788 20.3791 33.0754 20.3769 33.0671ZM20.3724 33.1822C20.3704 33.1811 20.3694 33.1804 20.3694 33.1803C20.3694 33.1803 20.3705 33.1809 20.3724 33.1822Z" fill="white" stroke="white" stroke-width="2"/>
</svg>
