<svg width="415" height="82" viewBox="0 0 415 82" fill="none" xmlns="http://www.w3.org/2000/svg">
<path d="M10.16 11.0087L9.98782 11.079L9.83745 11.162C4.40671 14.1583 2.3699 17.6301 1.6605 21.0064C1.17802 23.3028 1.30351 25.7005 1.41666 27.8627C1.46468 28.7803 1.51049 29.6555 1.50666 30.4624C1.46849 38.8769 1.84242 47.2879 2.62534 55.6794C2.73485 56.8483 2.74018 58.1911 2.74607 59.6738C2.7492 60.4626 2.75249 61.2909 2.7717 62.154C2.82587 64.5872 3.00967 67.2185 3.72753 69.6679C4.4402 72.0996 5.71411 74.4852 8.11515 76.3463C10.5942 78.2679 14.25 79.6013 19.3702 79.8444C36.573 80.6639 57.5812 80.123 76.379 79.639C82.0682 79.4925 87.5548 79.3512 92.6724 79.2544C104.346 79.0335 114.832 78.8333 125.217 78.635C137.507 78.4004 149.656 78.1685 163.467 77.908C188.909 77.4265 214.372 76.945 239.831 76.4636C265.348 75.981 290.863 75.4985 316.362 75.016L380.578 73.803C389.365 73.6363 396.999 72.4569 402.53 69.6836C408.08 66.8997 411.039 62.7503 411.428 57.1749L411.428 57.173L413.828 21.5742L413.829 21.5503L413.831 21.5264C413.848 18.4099 413.498 14.6855 411.739 11.3494C409.986 8.02313 406.701 4.8524 400.514 3.20478C395.565 1.88527 390.112 1.67021 385.354 1.52162C356.388 0.612022 327.306 1.46497 298.419 2.31222C285.714 2.68484 273.046 3.05638 260.443 3.27636L260.421 3.27675L260.4 3.27728C218.236 4.34883 194.754 4.87275 152.776 5.46585L152.758 5.46609L152.74 5.46647L49.7156 7.61067L49.6966 7.61108L49.6777 7.6116C48.429 7.64635 46.806 7.67179 44.937 7.70109C40.7783 7.76628 35.4017 7.85057 30.2203 8.09891C26.4155 8.28128 22.5581 8.5568 19.1301 8.99446C15.7627 9.42438 12.5167 10.0458 10.16 11.0087Z" fill="#7F0019" stroke="white" stroke-width="2"/>
</svg>
