<svg width="327" height="82" viewBox="0 0 327 82" fill="none" xmlns="http://www.w3.org/2000/svg">
<path d="M8.22243 10.5558L8.08722 10.6259L7.96919 10.7087C3.70663 13.7013 2.11663 17.1847 1.57088 20.5771C1.19969 22.8845 1.30732 25.296 1.40437 27.4706C1.44556 28.3934 1.48485 29.2736 1.48482 30.085C1.48593 38.5462 1.81132 47.0052 2.45849 55.4463C2.54899 56.6221 2.55816 57.9723 2.56829 59.4633C2.57367 60.2565 2.57932 61.0895 2.59763 61.9574C2.64927 64.4043 2.80365 67.0509 3.37763 69.5166C3.94745 71.9645 4.95878 74.3681 6.85513 76.2485C8.8131 78.1901 11.6949 79.5446 15.7251 79.8083C29.2657 80.697 45.7959 80.2319 60.5868 79.8157C65.0633 79.6898 69.3803 79.5683 73.4072 79.4902C82.5929 79.3119 90.8436 79.15 99.0155 78.9895C108.686 78.7998 118.246 78.6121 129.114 78.402C149.133 78.0133 169.169 77.6248 189.201 77.2362C209.28 76.8468 229.357 76.4574 249.421 76.0679L299.951 75.0892C306.865 74.9546 312.868 73.7973 317.211 71.0293C321.568 68.2508 323.881 64.0894 324.166 58.4846L324.166 58.4827L325.923 22.6952L325.924 22.6712L325.925 22.6472C325.927 19.5134 325.638 15.767 324.242 12.4058C322.849 9.05449 320.253 5.85382 315.378 4.17384C311.479 2.82842 307.186 2.5917 303.442 2.42442C280.644 1.40104 257.761 2.14956 235.032 2.89308C225.035 3.22008 215.068 3.54613 205.151 3.72002L205.133 3.72034L205.117 3.72079C171.941 4.64001 153.464 5.0787 120.432 5.51752L120.418 5.5177L120.404 5.51802L39.3377 7.2874L39.3227 7.28773L39.3079 7.28819C38.3253 7.31844 37.0482 7.33793 35.5776 7.36038C32.3052 7.41032 28.0744 7.47489 23.9979 7.70517C21.0044 7.87427 17.9699 8.13683 15.2739 8.56406C12.6256 8.98372 10.0735 9.59642 8.22243 10.5558Z" fill="#7F0019" stroke="white" stroke-width="2"/>
</svg>
