<svg xmlns="http://www.w3.org/2000/svg" version="1.1" width="100px" height="100px" style="shape-rendering:geometricPrecision; text-rendering:geometricPrecision; image-rendering:optimizeQuality; fill-rule:evenodd; clip-rule:evenodd" xmlns:xlink="http://www.w3.org/1999/xlink">
<g><path style="opacity:1" fill="#fff" d="M 67.5,-0.5 C 70.5,-0.5 73.5,-0.5 76.5,-0.5C 76.6107,0.117425 76.944,0.617425 77.5,1C 80.1667,1.33333 82.8333,1.66667 85.5,2C 88.1135,5.40003 91.2801,8.23336 95,10.5C 95.9734,12.3921 96.6401,14.3921 97,16.5C 97.7083,17.3805 98.5416,18.0472 99.5,18.5C 99.5,21.5 99.5,24.5 99.5,27.5C 98.1667,27.8333 98.1667,28.1667 99.5,28.5C 99.5,31.5 99.5,34.5 99.5,37.5C 97.3766,41.0061 95.0433,44.5061 92.5,48C 89.5971,48.5686 87.5971,50.2352 86.5,53C 84.5405,53.9309 82.5405,54.7643 80.5,55.5C 74.4651,56.8247 68.4651,56.8247 62.5,55.5C 61.2054,54.9017 59.8721,54.4017 58.5,54C 55.579,50.4084 52.079,47.5751 48,45.5C 47.8078,43.4233 47.3078,41.4233 46.5,39.5C 45.2011,38.91 44.3678,37.91 44,36.5C 44.6667,30.8333 44.6667,25.1667 44,19.5C 46.5272,15.8872 48.6938,12.0539 50.5,8C 53.5755,7.08901 55.9089,5.25568 57.5,2.5C 61.1221,2.04801 64.4555,1.04801 67.5,-0.5 Z M 69.5,3.5 C 72.7916,3.11955 75.1249,4.45289 76.5,7.5C 81.5301,4.09144 84.1968,5.42477 84.5,11.5C 88.1006,10.126 90.7673,11.2927 92.5,15C 89.4268,18.0409 90.0934,19.8743 94.5,20.5C 96.0521,23.5674 95.3855,26.0674 92.5,28C 96.8412,32.1413 96.1745,35.308 90.5,37.5C 93.3595,40.1454 93.0262,42.3121 89.5,44C 87.8659,44.4935 86.1992,44.6602 84.5,44.5C 84.1968,50.5752 81.5301,51.9086 76.5,48.5C 73.1667,53.8333 69.8333,53.8333 66.5,48.5C 61.4699,51.9086 58.8032,50.5752 58.5,44.5C 52.2806,44.9507 50.2806,42.284 52.5,36.5C 46.7555,35.0208 46.0888,32.1875 50.5,28C 46.0888,23.8125 46.7555,20.9792 52.5,19.5C 49.8511,12.8413 51.8511,10.1746 58.5,11.5C 58.8032,5.42477 61.4699,4.09144 66.5,7.5C 67.5244,6.14819 68.5244,4.81486 69.5,3.5 Z"/></g>
<g><path style="opacity:1" fill="#fff" d="M 69.5,13.5 C 70.8333,13.5 72.1667,13.5 73.5,13.5C 73.5,15.8333 73.5,18.1667 73.5,20.5C 72.1667,20.5 70.8333,20.5 69.5,20.5C 69.5,18.1667 69.5,15.8333 69.5,13.5 Z"/></g>
<g><path style="opacity:1" fill="#fff" d="M 59.5,19.5 C 62.3576,19.5954 64.6909,20.7621 66.5,23C 63.7054,25.9939 61.0388,25.6606 58.5,22C 58.7432,21.0979 59.0766,20.2646 59.5,19.5 Z"/></g>
<g><path style="opacity:1" fill="#fff" d="M 80.5,19.5 C 83.6802,19.1762 84.8469,20.5096 84,23.5C 81.9935,24.6687 79.8268,25.3354 77.5,25.5C 77.0283,22.6421 78.0283,20.6421 80.5,19.5 Z"/></g>
<g><path style="opacity:0.54" fill="#fff" d="M 63.5,29.5 C 64.8366,30.3149 65.8366,31.4815 66.5,33C 64.7348,34.2978 62.9014,35.4645 61,36.5C 59.6988,35.9019 58.8655,34.9019 58.5,33.5C 60.21,32.1128 61.8767,30.7794 63.5,29.5 Z"/></g>
<g><path style="opacity:0.543" fill="#fff" d="M 78.5,29.5 C 80.3863,30.3606 82.2196,31.3606 84,32.5C 84.6838,33.7839 84.5171,34.9505 83.5,36C 78.5767,36.226 76.91,34.0594 78.5,29.5 Z"/></g>
<g><path style="opacity:0.613" fill="#fff" d="M 69.5,35.5 C 70.8333,35.5 72.1667,35.5 73.5,35.5C 73.5,37.8333 73.5,40.1667 73.5,42.5C 72.1667,42.5 70.8333,42.5 69.5,42.5C 69.5,40.1667 69.5,37.8333 69.5,35.5 Z"/></g>
<g><path style="opacity:0.675" fill="#fff" d="M 31.5,99.5 C 28.5,99.5 25.5,99.5 22.5,99.5C 22.3893,98.8826 22.056,98.3826 21.5,98C 18.8333,97.6667 16.1667,97.3333 13.5,97C 10.8865,93.6 7.71985,90.7666 4,88.5C 3.02655,86.6079 2.35989,84.6079 2,82.5C 1.2917,81.6195 0.458367,80.9528 -0.5,80.5C -0.5,77.5 -0.5,74.5 -0.5,71.5C 0.833333,71.1667 0.833333,70.8333 -0.5,70.5C -0.5,67.5 -0.5,64.5 -0.5,61.5C 1.62341,57.9939 3.95674,54.4939 6.5,51C 9.84424,47.9066 13.6776,45.4066 18,43.5C 24.2152,42.1963 30.3819,42.1963 36.5,43.5C 37.7946,44.0983 39.1279,44.5983 40.5,45C 43.421,48.5916 46.921,51.4249 51,53.5C 51.3333,55.5 51.6667,57.5 52,59.5C 53.3333,60.1667 54.3333,61.1667 55,62.5C 54.3333,68.1667 54.3333,73.8333 55,79.5C 52.4612,82.5865 50.6279,86.0865 49.5,90C 46.2436,91.4589 43.5769,93.6255 41.5,96.5C 37.689,98.0084 34.0368,99.0084 31.5,99.5 Z M 31.5,96.5C 33.4717,96.3026 35.4384,95.4692 36.5,94C 38.0942,92.3286 39.0284,90.3286 39.5,88.5C 41.9333,87.8333 44.1667,87.8333 46.5,88.5C 47.6667,90.1667 48.1667,92.5 47.5,94.5C 46.7919,96.2855 45.4586,97.2855 43.5,97.5C 40.5123,98.5977 37.1856,97.5977 34,96.5C 32.0133,96.4082 30.2133,96.4082 31.5,96.5 Z"/></g>
</svg>
