<svg width="202" height="70" viewBox="0 0 202 70" fill="none" xmlns="http://www.w3.org/2000/svg">
<path d="M4.47821 6.90714L4.39506 6.96918L4.32309 7.04273C1.70462 9.69957 0.740028 12.8088 0.419468 15.8417C0.200981 17.9044 0.27983 20.0629 0.350421 22.0092C0.3804 22.8352 0.408809 23.623 0.412328 24.3491C0.434377 28.1821 0.738091 31.9987 1.08868 35.7735C1.1654 36.6023 1.24482 37.428 1.32328 38.2516C1.60444 41.1953 1.88325 44.1107 2.05416 47.0314C2.07118 47.3247 2.08847 47.6336 2.106 47.9557C2.28589 51.1815 2.53969 55.7567 3.63453 59.741C4.81538 64.038 7.17923 68.3487 12.1984 68.8641C17.7074 69.4314 23.2686 69.2684 28.762 68.9439C30.4675 68.8432 32.16 68.7275 33.8424 68.6125C37.6196 68.3543 41.3474 68.0994 45.0637 68.0246C50.7365 67.9101 55.8318 67.8058 60.8778 67.7023C66.8498 67.58 72.7541 67.4591 79.4656 67.3244C91.8344 67.0749 104.208 67.0469 116.597 67.0189L116.603 67.0189C128.986 66.9909 141.383 66.9629 153.779 66.7127L184.984 66.0853C189.289 65.9981 192.889 64.878 195.434 62.2985C197.963 59.7347 199.234 55.9459 199.383 50.969C199.383 50.9659 199.383 50.9629 199.384 50.9598L200.768 19.3497L200.77 19.3184L200.77 19.287C200.756 16.4828 200.559 13.1291 199.68 10.1145C198.803 7.10896 197.184 4.23221 194.165 2.70499C191.75 1.48194 189.097 1.24904 186.784 1.08096C173.118 0.0840085 159.503 0.704235 145.951 1.32165C139.393 1.62039 132.85 1.91846 126.323 2.03241L126.312 2.03258L126.301 2.03292C109.36 2.57838 98.4643 2.69105 83.6396 2.84437C80.5478 2.87635 77.2848 2.9101 73.7611 2.9499L73.752 2.95L73.7437 2.9502L23.6806 4.13534L23.6715 4.13556L23.6623 4.1359C23.0558 4.15814 22.2669 4.16931 21.359 4.18216C19.3382 4.21078 16.7252 4.24778 14.2083 4.43382C12.3606 4.57042 10.4868 4.79048 8.82441 5.15952C7.19026 5.52203 5.61684 6.05775 4.47821 6.90714Z" fill="#2A2D29"/>
</svg>
