<svg width="178" height="72" viewBox="0 0 178 72" fill="none" xmlns="http://www.w3.org/2000/svg">
<g clip-path="url(#clip0_1_1134)">
<mask id="mask0_1_1134" style="mask-type:luminance" maskUnits="userSpaceOnUse" x="0" y="0" width="178" height="72">
<path d="M178 0H0V72H178V0Z" fill="white"/>
</mask>
<g mask="url(#mask0_1_1134)">
<path d="M141.463 8.3478C146.982 3.61384 148.353 0 148.353 0H4.8852e-05C4.8852e-05 0 -0.0864886 1.76165 7.02485 8.21069C14.1362 14.6623 22.454 15.3504 25.5744 15.3504H106.607C95.9089 31.1976 80.4112 54.1663 80.0244 54.756C79.4312 55.6613 76.5349 58.9959 78.2835 63.259C80.032 67.5221 86.8252 71.9974 86.8252 71.9974L125.044 15.3504C125.915 15.3504 135.948 13.0817 141.463 8.35037V8.3478Z" fill="white"/>
<path d="M159.55 0.00776058C159.55 0.00776058 159.547 0.0129343 159.542 0.0206949L159.55 0C159.55 0 155.429 6.28864 149.552 9.9982C143.678 13.7052 136.737 15.5729 136.737 15.5729L149.041 15.5806C138.292 31.5105 123.11 54.0214 122.725 54.606C122.13 55.5139 119.226 58.8614 120.972 63.1296C122.718 67.398 129.654 71.6688 129.654 71.6688L178 0.0232818L159.55 0.00776058Z" fill="white"/>
<path d="M99.2176 19.1766H25.7651C25.7651 19.1766 26.1394 20.007 29.4761 23.1009C32.8156 26.1948 36.2031 26.8725 37.2901 26.8725H94.0203C95.7792 24.2649 97.5329 21.6677 99.2151 19.1766H99.2176Z" fill="white"/>
<path d="M91.1697 31.0991H40.7056C40.7056 31.0991 40.9525 32.4183 44.2512 35.1941C47.5472 37.9672 49.843 38.7975 50.8483 38.7975H85.9774C87.6319 36.3451 89.3856 33.7455 91.1697 31.1017V31.0991Z" fill="white"/>
<path d="M83.5317 42.4217H54.8622C54.8622 42.4217 54.8393 43.2831 58.4765 46.4467C62.1137 49.6105 64.2897 50.1201 65.2569 50.1201H78.3395C79.7316 48.0533 81.516 45.412 83.5317 42.4242V42.4217Z" fill="white"/>
</g>
</g>
<defs>
<clipPath id="clip0_1_1134">
<rect width="178" height="72" fill="white"/>
</clipPath>
</defs>
</svg>
