<svg width="323" height="5" viewBox="0 0 323 5" fill="none" xmlns="http://www.w3.org/2000/svg">
<path d="M144.88 0.167278C146.803 0.313779 148.825 0.400789 150.589 1.04295C151.253 1.26238 151.913 1.86973 151.366 2.39223C150.53 2.96163 149.263 3.01194 148.204 3.20718C144.611 3.72446 140.932 3.62747 137.288 3.60112C135.974 3.58301 134.919 2.70877 134.967 1.74246C134.992 0.770566 136.17 -0.0408139 137.462 0.00159032C139.076 0.0128791 140.694 0.0192904 142.306 0.062869C143.163 0.086051 144.02 0.119168 144.876 0.169672L144.88 0.167278Z" fill="white"/>
<path d="M117.567 0.703078C119.312 0.81492 121.113 0.86362 122.758 1.35333C123.508 1.52782 124.583 2.09664 123.936 2.73832C122.893 3.45882 121.224 3.61518 119.922 3.81131C116.88 4.18426 113.809 4.34005 110.729 4.35132C109.371 4.35689 108.283 3.41459 108.331 2.4309C108.355 1.42414 109.574 0.593967 110.91 0.632571C112.592 0.618335 114.277 0.591769 115.959 0.637235C116.494 0.651701 117.029 0.673619 117.563 0.705472L117.567 0.703078Z" fill="white"/>
<path d="M90.5521 1.30679C92.1239 1.35674 93.7098 1.39215 95.2625 1.61321C95.8204 1.70043 96.4903 1.81057 96.924 2.10586C98.2842 3.32414 95.2618 4.01353 94.0645 4.18264C91.8492 4.53069 89.5849 4.54659 87.3331 4.57775C86.3169 4.59505 85.2899 4.62947 84.2762 4.59958C82.4828 4.58593 81.4584 2.87427 82.6697 1.87475C83.4584 1.18716 84.7277 1.22894 85.9372 1.26909C86.4126 1.28194 86.8776 1.29949 87.3019 1.27116C88.3403 1.27436 89.3821 1.27516 90.4225 1.30328C90.4657 1.30445 90.5122 1.30571 90.5554 1.30688L90.5521 1.30679Z" fill="white"/>
<path d="M67.2947 1.21558C68.4508 1.38364 69.8515 1.39663 70.729 2.04966C71.4315 2.61091 71.1412 3.50349 70.3142 3.90897C68.3996 4.73775 66.0629 4.80144 63.9024 4.92959C61.6751 5.00121 59.4414 5.0055 57.2159 4.91549C55.8162 4.88512 54.6237 3.95742 54.703 2.90242C54.9772 0.554274 58.1625 1.06075 60.4082 1.01947C61.6801 1.01157 62.952 1.00615 64.225 1.04057C65.2521 1.06833 66.2745 1.12084 67.2946 1.21807L67.2947 1.21558Z" fill="white"/>
<path d="M41.9522 2.16707C42.7242 2.35957 44.0816 2.81165 43.4958 3.56442C43.2341 3.85583 42.7489 3.96709 42.3205 4.07242C41.0883 4.33511 39.815 4.4947 38.5531 4.62724C35.4325 4.84635 32.2796 4.73376 29.1521 4.64424C25.8429 4.46524 26.0084 0.902789 29.331 0.890625C30.0294 0.902043 30.731 0.916034 31.4323 0.934993C34.9989 1.03141 38.568 1.26718 41.9522 2.16707Z" fill="white"/>
<path d="M15.6569 3.21661C14.1482 4.55135 10.8377 4.21063 8.70251 4.36434C7.5191 4.39702 6.33915 4.42731 5.15878 4.40287C3.0667 4.309 0.137147 4.44124 0.103027 2.32106C0.152084 1.3324 1.3155 0.483314 2.66075 0.537091C3.18221 0.558649 3.70113 0.565215 4.21966 0.579232C4.59193 0.589295 4.96779 0.594481 5.34007 0.604545C7.26243 0.823166 17.4374 0.648003 15.6568 3.21909L15.6569 3.21661Z" fill="white"/>
<path d="M304.88 0.167278C306.803 0.313779 308.825 0.400789 310.589 1.04295C311.253 1.26238 311.913 1.86973 311.366 2.39223C310.53 2.96163 309.263 3.01194 308.204 3.20718C304.611 3.72446 300.932 3.62747 297.288 3.60112C295.974 3.58301 294.919 2.70877 294.967 1.74246C294.992 0.770566 296.17 -0.0408139 297.462 0.00159032C299.076 0.0128791 300.694 0.0192904 302.306 0.062869C303.163 0.086051 304.02 0.119168 304.876 0.169672L304.88 0.167278Z" fill="white"/>
<path d="M277.567 0.703078C279.312 0.81492 281.113 0.86362 282.758 1.35333C283.508 1.52782 284.583 2.09664 283.936 2.73832C282.893 3.45882 281.224 3.61518 279.922 3.81131C276.88 4.18426 273.809 4.34005 270.729 4.35132C269.371 4.35689 268.283 3.41459 268.331 2.4309C268.355 1.42414 269.574 0.593967 270.91 0.632571C272.592 0.618335 274.277 0.591769 275.959 0.637235C276.494 0.651701 277.029 0.673619 277.563 0.705472L277.567 0.703078Z" fill="white"/>
<path d="M250.552 1.30679C252.124 1.35674 253.71 1.39215 255.262 1.61321C255.82 1.70043 256.49 1.81057 256.924 2.10586C258.284 3.32414 255.262 4.01353 254.064 4.18264C251.849 4.53069 249.585 4.54659 247.333 4.57775C246.317 4.59505 245.29 4.62947 244.276 4.59958C242.483 4.58593 241.458 2.87427 242.67 1.87475C243.458 1.18716 244.728 1.22894 245.937 1.26909C246.413 1.28194 246.878 1.29949 247.302 1.27116C248.34 1.27436 249.382 1.27516 250.422 1.30328C250.466 1.30445 250.512 1.30571 250.555 1.30688L250.552 1.30679Z" fill="white"/>
<path d="M227.295 1.21558C228.451 1.38364 229.851 1.39663 230.729 2.04966C231.431 2.61091 231.141 3.50349 230.314 3.90897C228.4 4.73775 226.063 4.80144 223.902 4.92959C221.675 5.00121 219.441 5.0055 217.216 4.91549C215.816 4.88512 214.624 3.95742 214.703 2.90242C214.977 0.554274 218.162 1.06075 220.408 1.01947C221.68 1.01157 222.952 1.00615 224.225 1.04057C225.252 1.06833 226.274 1.12084 227.295 1.21807L227.295 1.21558Z" fill="white"/>
<path d="M201.952 2.16707C202.724 2.35957 204.082 2.81165 203.496 3.56442C203.234 3.85583 202.749 3.96709 202.32 4.07242C201.088 4.33511 199.815 4.4947 198.553 4.62724C195.432 4.84635 192.28 4.73376 189.152 4.64424C185.843 4.46524 186.008 0.902789 189.331 0.890625C190.029 0.902043 190.731 0.916034 191.432 0.934993C194.999 1.03141 198.568 1.26718 201.952 2.16707Z" fill="white"/>
<path d="M175.657 3.21661C174.148 4.55135 170.838 4.21063 168.703 4.36434C167.519 4.39702 166.339 4.42731 165.159 4.40287C163.067 4.309 160.137 4.44124 160.103 2.32106C160.152 1.3324 161.316 0.483314 162.661 0.537091C163.182 0.558649 163.701 0.565215 164.22 0.579232C164.592 0.589295 164.968 0.594481 165.34 0.604545C167.262 0.823166 177.437 0.648003 175.657 3.21909L175.657 3.21661Z" fill="white"/>
</svg>
