<svg width="48" height="49" viewBox="0 0 48 49" fill="none" xmlns="http://www.w3.org/2000/svg">
<g clip-path="url(#clip0_21_45)">
<path d="M32.6562 24.6348C32.6562 26.6943 32.5449 28.6797 32.3501 30.5723H15.1592C14.9551 28.6797 14.853 26.6943 14.853 24.6348C14.853 22.5752 14.9644 20.5898 15.1592 18.6973H32.3501C32.5542 20.5898 32.6562 22.5752 32.6562 24.6348ZM35.3281 18.6973H46.7485C47.2402 20.5991 47.5 22.5845 47.5 24.6348C47.5 26.6851 47.2402 28.6704 46.7485 30.5723H35.3281C35.5229 28.6611 35.625 26.6758 35.625 24.6348C35.625 22.5938 35.5229 20.6084 35.3281 18.6973ZM45.7744 15.7285H34.9478C34.02 9.80029 32.1831 4.83691 29.8174 1.66406C37.0815 3.58447 42.9912 8.854 45.7651 15.7285H45.7744ZM31.9419 15.7285H15.5581C16.124 12.3516 16.9961 9.36426 18.063 6.94287C19.0371 4.75342 20.1226 3.16699 21.1709 2.16504C22.21 1.18164 23.0728 0.884766 23.75 0.884766C24.4272 0.884766 25.29 1.18164 26.3291 2.16504C27.3774 3.16699 28.4629 4.75342 29.437 6.94287C30.5132 9.35498 31.376 12.3423 31.9419 15.7285ZM12.5522 15.7285H1.72559C4.50879 8.854 10.4092 3.58447 17.6826 1.66406C15.3169 4.83691 13.48 9.80029 12.5522 15.7285ZM0.751465 18.6973H12.1719C11.9771 20.6084 11.875 22.5938 11.875 24.6348C11.875 26.6758 11.9771 28.6611 12.1719 30.5723H0.751465C0.259766 28.6704 0 26.6851 0 24.6348C0 22.5845 0.259766 20.5991 0.751465 18.6973ZM18.063 42.3174C16.9868 39.9053 16.124 36.918 15.5581 33.541H31.9419C31.376 36.918 30.5039 39.9053 29.437 42.3174C28.4629 44.5068 27.3774 46.0933 26.3291 47.0952C25.29 48.0879 24.4272 48.3848 23.75 48.3848C23.0728 48.3848 22.21 48.0879 21.1709 47.1045C20.1226 46.1025 19.0371 44.5161 18.063 42.3267V42.3174ZM12.5522 33.541C13.48 39.4692 15.3169 44.4326 17.6826 47.6055C10.4092 45.6851 4.50879 40.4155 1.72559 33.541H12.5522ZM45.7744 33.541C42.9912 40.4155 37.0908 45.6851 29.8267 47.6055C32.1924 44.4326 34.02 39.4692 34.957 33.541H45.7837H45.7744Z" fill="white"/>
</g>
<defs>
<clipPath id="clip0_21_45">
<rect width="47.5" height="47.5" fill="white" transform="translate(0 0.884766)"/>
</clipPath>
</defs>
</svg>
