<svg width="413" height="80" viewBox="0 0 413 80" fill="none" xmlns="http://www.w3.org/2000/svg">
<path d="M9.15997 10.0087L8.98782 10.079L8.83745 10.162C3.40671 13.1583 1.3699 16.6301 0.6605 20.0064C0.178015 22.3028 0.303509 24.7005 0.41666 26.8627C0.464681 27.7803 0.510494 28.6555 0.506664 29.4624C0.468494 37.8769 0.842419 46.2879 1.62534 54.6794C1.73485 55.8483 1.74018 57.1911 1.74607 58.6738C1.7492 59.4626 1.75249 60.2909 1.7717 61.154C1.82587 63.5872 2.00967 66.2185 2.72753 68.6679C3.4402 71.0996 4.71411 73.4852 7.11515 75.3463C9.5942 77.2679 13.25 78.6013 18.3702 78.8444C35.573 79.6639 56.5812 79.123 75.379 78.639C81.0682 78.4925 86.5548 78.3512 91.6724 78.2544C103.346 78.0335 113.832 77.8333 124.217 77.635C136.507 77.4004 148.656 77.1684 162.467 76.908C187.909 76.4265 213.372 75.945 238.831 75.4636C264.348 74.981 289.863 74.4985 315.362 74.016L379.578 72.803C388.365 72.6363 395.999 71.4569 401.53 68.6836C407.08 65.8997 410.039 61.7503 410.428 56.1749L410.428 56.173L412.828 20.5742L412.829 20.5503L412.831 20.5264C412.848 17.4099 412.498 13.6855 410.739 10.3494C408.986 7.02313 405.701 3.8524 399.514 2.20478C394.565 0.885266 389.112 0.670214 384.354 0.521617C355.388 -0.387978 326.306 0.464975 297.419 1.31222C284.714 1.68484 272.046 2.05638 259.443 2.27636L259.421 2.27675L259.4 2.27728C217.236 3.34883 193.754 3.87275 151.776 4.46585L151.758 4.46609L151.74 4.46647L48.7156 6.61067L48.6966 6.61108L48.6777 6.6116C47.429 6.64635 45.806 6.67179 43.937 6.70109C39.7783 6.76628 34.4017 6.85057 29.2203 7.09891C25.4155 7.28128 21.5581 7.5568 18.1301 7.99447C14.7627 8.42438 11.5167 9.04581 9.15997 10.0087Z" fill="#7F0019"/>
</svg>
