<svg width="41" height="41" viewBox="0 0 41 41" fill="none" xmlns="http://www.w3.org/2000/svg">
<g clip-path="url(#clip0_17_137)">
<path d="M5.22401 12.7856C5.07819 13.1248 5.11468 13.4255 5.13136 13.5504L5.13219 13.598L5.14816 13.6819C5.24184 14.192 5.45175 14.586 5.62128 14.9031L5.64318 14.9437C5.87923 15.365 6.1453 15.7801 6.44132 16.1859C7.53347 17.6544 8.78599 18.9783 9.9763 20.1904L9.99101 20.2045C12.092 22.2657 12.4137 22.547 13.9579 23.9001C14.2831 24.1847 14.6626 24.517 15.1181 24.9178C15.7063 25.4447 16.1338 25.8438 16.5104 26.195C17.0683 26.7147 17.5151 27.1311 18.1705 27.6735C18.3088 27.8616 18.4702 28.0316 18.6512 28.1813C19.0904 28.5414 19.6059 28.734 20.1011 28.7253C20.4947 28.7185 20.855 28.587 21.1431 28.345C22.2536 27.4107 22.7832 26.8808 23.5168 26.1481C23.882 25.784 24.2953 25.3703 24.8571 24.8299C25.3049 24.4067 25.6727 24.0625 25.9865 23.7668C27.4837 22.3606 27.7954 22.0672 29.8233 19.934L29.8375 19.9193C30.986 18.6665 32.1905 17.2998 33.2372 15.7851C33.5135 15.377 33.7649 14.9529 33.9862 14.5248L34.0067 14.4834C34.165 14.1606 34.3611 13.7596 34.4369 13.2465L34.4488 13.1621L34.448 13.1145C34.4614 12.9891 34.4863 12.6874 34.3299 12.3534L34.294 12.2843C34.0234 11.8005 33.5399 11.5165 33.0012 11.5259C32.3566 11.5372 31.8563 11.9557 31.5584 12.2068C31.5352 12.226 31.5143 12.2441 31.4967 12.2577L31.4449 12.2896L31.3734 12.354C29.8719 13.7027 29.1156 14.5377 28.3834 15.3469C27.6412 16.1673 26.9396 16.9416 25.4453 18.2592C24.0888 19.4746 23.0642 20.475 22.0747 21.4414C21.3903 22.1102 20.7343 22.7508 20.0086 23.4225C19.2248 22.7494 18.522 22.1093 17.7874 21.4397C16.7649 20.5084 15.706 19.5443 14.3022 18.3715C12.7697 17.1123 12.0415 16.3629 11.2713 15.5689C10.5113 14.7869 9.7263 13.9776 8.17858 12.682L8.10503 12.6202L8.05206 12.5901C8.03392 12.576 8.01246 12.5586 7.98869 12.5402C7.68109 12.3008 7.16758 11.8988 6.52295 11.9101C5.98426 11.9195 5.51089 12.219 5.25733 12.713L5.22395 12.7823L5.22401 12.7856Z" fill="white"/>
</g>
<defs>
<clipPath id="clip0_17_137">
<rect width="39.576" height="39.576" fill="white" transform="translate(0 1.05322) rotate(-0.998999)"/>
</clipPath>
</defs>
</svg>
