<svg width="62" height="270" viewBox="0 0 62 270" fill="none" xmlns="http://www.w3.org/2000/svg">
<g opacity="0.5" clip-path="url(#clip0_8_2406)">
<path d="M3.16554 268.877C0.148895 268.077 -0.788756 264.688 0.685998 262.069C2.62615 257.264 4.0785 252.232 5.42331 247.165C8.42249 237.072 10.4852 226.633 13.2062 216.444C13.1557 216.117 13.346 215.785 13.6554 215.724C15.9399 215.312 15.0598 222.369 15.0809 223.958C14.3774 231.377 13.0269 238.684 11.3389 245.879C25.7903 221.049 38.7679 194.883 45.679 166.008C57.5935 115.928 54.9562 52.3243 42.4939 1.11999C42.1729 0.842132 42.0995 0.180735 42.6108 0.0255154C44.0467 -0.262955 45.1604 1.966 45.8405 3.10672C61.1248 36.5773 62.7898 85.5836 61.224 121.649C60.0421 152.042 54.1152 182.1 41.9393 208.967C34.7065 224.468 26.2197 239.196 17.1835 253.475C23.5659 249.727 30.058 246.181 36.7751 243.116C41.0368 241.42 44.1206 248.239 40.1693 250.578C36.9751 252.292 33.8162 254.082 30.7484 256.032C24.9661 259.577 9.45279 270.514 3.15626 268.866L3.16554 268.877Z" fill="white"/>
</g>
<defs>
<clipPath id="clip0_8_2406">
<rect width="62" height="270" fill="white"/>
</clipPath>
</defs>
</svg>
