<svg width="325" height="80" viewBox="0 0 325 80" fill="none" xmlns="http://www.w3.org/2000/svg">
<path d="M7.22243 9.55581L7.08722 9.62589L6.96919 9.70875C2.70663 12.7013 1.11663 16.1847 0.570879 19.5771C0.199694 21.8845 0.307324 24.296 0.404371 26.4706C0.445557 27.3934 0.484848 28.2736 0.484821 29.085C0.485931 37.5462 0.81132 46.0052 1.45849 54.4463C1.54899 55.6221 1.55816 56.9723 1.56829 58.4633C1.57367 59.2565 1.57932 60.0895 1.59763 60.9574C1.64927 63.4043 1.80365 66.0509 2.37763 68.5166C2.94745 70.9645 3.95878 73.3681 5.85513 75.2485C7.8131 77.1901 10.6949 78.5446 14.7251 78.8083C28.2657 79.697 44.7959 79.2319 59.5868 78.8157C64.0633 78.6898 68.3803 78.5683 72.4072 78.4902C81.5929 78.3119 89.8436 78.15 98.0155 77.9895C107.686 77.7998 117.246 77.6121 128.114 77.402C148.133 77.0133 168.169 76.6248 188.201 76.2362C208.28 75.8468 228.357 75.4574 248.421 75.0679L298.951 74.0892C305.865 73.9546 311.868 72.7973 316.211 70.0293C320.568 67.2508 322.881 63.0894 323.166 57.4846L323.166 57.4827L324.923 21.6952L324.924 21.6712L324.925 21.6472C324.927 18.5134 324.638 14.767 323.242 11.4058C321.849 8.05449 319.253 4.85382 314.378 3.17384C310.479 1.82842 306.186 1.5917 302.442 1.42442C279.644 0.401043 256.761 1.14956 234.032 1.89308C224.035 2.22008 214.068 2.54613 204.151 2.72002L204.133 2.72034L204.117 2.72079C170.941 3.64001 152.464 4.0787 119.432 4.51752L119.418 4.5177L119.404 4.51802L38.3377 6.2874L38.3227 6.28773L38.3079 6.28819C37.3253 6.31844 36.0482 6.33793 34.5776 6.36038C31.3052 6.41032 27.0744 6.47489 22.9979 6.70517C20.0044 6.87427 16.9699 7.13683 14.2739 7.56406C11.6256 7.98372 9.0735 8.59642 7.22243 9.55581Z" fill="#7F0019"/>
</svg>
