<svg width="93" height="160" viewBox="0 0 93 160" fill="none" xmlns="http://www.w3.org/2000/svg">
<path d="M54.0973 107.966C52.5738 105.385 53.2372 102.11 53.2499 99.2517C53.4212 96.1696 53.6597 93.0974 53.8534 90.0187C54.3737 80.1717 54.5805 70.3138 55.226 60.4736C55.4081 56.7225 55.4298 52.9712 55.2332 49.2226C55.1568 48.0479 55.074 46.8781 54.9687 45.7049C54.5869 42.7205 56.8071 39.7805 59.8237 39.4549C62.7545 39.0882 65.8153 41.2683 66.0694 44.303C66.2703 46.6765 66.4246 49.0547 66.4986 51.4327C66.715 59.9131 65.6919 68.3631 65.1781 76.8181C65.0458 80.9776 62.8969 109.906 55.973 108.909C55.3834 108.823 54.7566 108.521 54.0925 107.96L54.0973 107.966Z" fill="white"/>
<path d="M51.6315 136.116C46.4011 132.888 49.2255 123.913 55.5153 124.853C63.6758 126.373 60.4246 137.819 53.822 136.863C53.1257 136.762 52.392 136.524 51.6251 136.121L51.6315 136.116Z" fill="white"/>
<path d="M72.9985 131.411C70.9209 129.012 72.0059 125.558 72.3917 122.736C72.9132 119.849 73.5292 116.98 74.0957 114.099C75.157 108.709 76.034 103.288 76.8051 97.8449C77.4231 93.5378 77.9625 89.2195 78.5357 84.906C79.8669 77.7329 90.2224 79.1809 89.4959 86.4929C87.7423 99.6692 85.9427 113.005 81.1601 125.485C80.0627 127.877 79.2831 131.043 76.6693 132.189C76.0944 132.398 75.4532 132.472 74.8468 132.383C74.1449 132.282 73.474 131.967 72.9929 131.411L72.9985 131.411Z" fill="white"/>
<path d="M66.2438 155.924C62.5033 153.095 64.2862 146.721 68.9564 146.256C71.1384 146.034 73.2801 147.037 74.3851 148.986C76.7494 153.244 72.8939 157.661 68.8514 157.075C67.97 156.948 67.0769 156.584 66.2438 155.924Z" fill="white"/>
</svg>
