<svg width="51" height="64" viewBox="0 0 51 64" fill="none" xmlns="http://www.w3.org/2000/svg">
<path d="M14.7285 3.70457C14.419 2.55203 13.2301 1.86743 12.0777 2.17696C10.2644 2.66492 6.29018 1.8128 4.24205 0.989821C3.43372 0.663908 2.51798 0.851447 1.90627 1.46504C1.29274 2.07863 1.1034 2.99447 1.42746 3.79925C4.57885 11.6685 6.62881 18.8515 7.65378 25.6338C6.73258 25.3133 5.68939 25.2241 4.62801 25.4334C3.12787 25.7266 1.80432 26.586 0.999629 27.7823C0.304175 28.8164 0.0492971 30.0254 0.276867 31.1852C0.504437 32.345 1.19989 33.3665 2.23579 34.062C3.4319 34.8668 4.9812 35.1581 6.48315 34.8631C7.98512 34.5682 9.30685 33.7106 10.1115 32.5144C10.33 32.1867 10.4993 31.8443 10.6304 31.4893C11.6808 31.3254 12.4582 30.4333 12.4582 29.3572L12.4492 29.1497C11.7664 21.9576 9.97862 14.4616 6.98381 6.23178C8.74065 6.57772 11.2439 6.87815 13.201 6.35013C13.7581 6.20082 14.226 5.84214 14.5136 5.34325C14.8031 4.84255 14.8795 4.2599 14.7303 3.70275L14.7285 3.70457Z" fill="#836F75"/>
<path d="M48.2782 25.0819C41.4966 22.3908 36.9616 18.1776 32.1625 13.7168C31.3669 12.9793 30.22 12.7919 29.2369 13.2433C28.252 13.6949 27.6421 14.6817 27.684 15.7579C28.0718 26.0396 27.491 35.1033 25.9216 43.2985C24.9568 42.523 23.7643 41.9967 22.4827 41.8056C20.622 41.5251 18.7359 41.9694 17.3067 43.0254C16.0743 43.934 15.2769 45.2285 15.0584 46.667C14.8436 48.1054 15.2259 49.5784 16.1343 50.811C17.1903 52.2385 18.8615 53.2181 20.7239 53.4966C22.5864 53.777 24.4725 53.3327 25.8999 52.2786C26.1802 52.071 26.4351 51.8416 26.6681 51.5958C26.6845 51.6012 26.7009 51.6049 26.7172 51.6103C27.4054 51.7869 28.1209 51.6813 28.7308 51.319C29.3425 50.9566 29.774 50.3758 29.9487 49.6876C31.3906 44.0178 32.3264 37.9911 32.7816 31.4418C36.1951 34.4096 39.9636 37.2263 44.7626 39.3748C44.3603 44.5567 43.5082 50.1155 42.3249 53.7897C41.2671 52.5863 39.7452 51.7651 38.0703 51.5157C36.206 51.2352 34.3199 51.6796 32.8926 52.7337C31.6601 53.6441 30.8627 54.9368 30.646 56.3771C30.1618 59.5998 32.7051 62.6641 36.3134 63.2067C38.722 63.569 41.0069 62.7133 42.4032 61.1474C43.4172 61.3877 44.5242 61.0182 45.1723 60.1241C49.6363 53.9719 51.131 33.6795 49.9112 27.0757C49.7419 26.1707 49.132 25.426 48.2764 25.0856L48.2782 25.0819ZM33.0765 24.5357C33.0947 23.6125 33.1038 22.6858 33.1056 21.7427C37.2073 25.2658 40.8339 27.6365 44.8664 29.419C44.9811 30.5897 45.0303 32.0117 45.0212 33.583C40.3533 31.1414 36.7468 27.9368 33.0765 24.5339V24.5357Z" fill="#836F75"/>
</svg>
