<svg width="49" height="49" viewBox="0 0 49 49" fill="none" xmlns="http://www.w3.org/2000/svg">
<g clip-path="url(#clip0_8_3845)">
<path d="M39.3285 10.1997C42.5004 13.0875 44.7696 16.8957 45.2478 20.1281C46.0644 25.2138 44.6315 28.9897 43.1217 32.0134L43.1087 32.0376C42.8148 32.5818 42.4969 33.1166 42.1662 33.628C39.7779 37.3144 36.5074 40.0601 32.4454 41.7899C30.2303 42.7717 27.7514 43.665 24.6418 43.5699C21.9255 43.5035 18.851 42.5244 15.7433 40.7349C13.2049 39.2429 10.8414 36.9069 9.09029 34.1615C8.59356 33.3922 8.19614 32.6683 7.90942 32.011L7.8975 31.9826C7.56668 31.1424 7.9214 30.5387 8.41937 30.3126C9.189 29.9639 10.2861 30.5266 10.8166 31.5395L10.8324 31.5701C12.1747 34.4164 14.9734 37.0633 17.9628 38.3119L17.9883 38.3235C20.2391 39.3492 22.372 39.8547 24.1576 39.7844C25.8233 39.7241 27.4356 39.3519 29.2386 38.6096C32.0717 37.4775 34.2857 36.0918 36.0054 34.3749C37.8999 32.4751 39.1956 30.6814 40.0845 28.7289C41.1671 26.3435 42.4734 22.6712 41.3263 18.3356C40.4829 15.3623 37.5896 12.0746 34.1201 10.1523C31.5821 8.79865 29.013 8.15237 26.4957 8.22948C24.1137 8.32488 21.9257 9.08678 19.7983 10.5641C17.6915 12.0019 15.869 13.6418 14.3819 15.4421C13.3539 16.6862 12.4248 17.9867 11.6202 19.3075C10.8806 20.5746 10.2368 21.9903 9.61426 23.359C9.35123 23.9377 9.07975 24.5352 8.80118 25.1199C8.67066 25.4061 8.576 25.6775 8.50958 25.9479C8.49132 26.2039 8.36829 26.4406 8.16217 26.6013C7.88142 26.8189 7.49859 26.8517 7.16285 26.6865C6.91005 26.5616 6.6522 26.3001 6.5649 25.9637C6.38377 25.4884 6.33607 25.0709 6.30241 24.7611L6.30018 24.7306C6.17927 23.1407 6.47847 21.8433 6.7992 20.6386C6.86077 20.4198 6.92499 20.2033 6.99436 19.9902C8.34119 15.7774 10.9511 12.6992 13.3518 10.23L13.3956 10.1876C15.4777 8.32802 17.7617 6.41818 20.7757 5.2851C23.2523 4.3785 26.2053 4.19861 29.0918 4.77766C32.6915 5.49934 36.1353 7.32314 39.3309 10.1995L39.3285 10.1997Z" fill="white"/>
<path d="M35.1458 21.956C34.7285 21.4821 34.0689 21.18 33.3314 21.1249C32.8931 21.0564 32.4782 20.9704 32.0656 20.8646C29.9853 20.2696 28.4237 19.7493 27.0048 19.177L26.9883 19.1708C26.3491 18.9286 25.733 18.632 25.0813 18.3183C24.3185 17.9516 23.5302 17.572 22.6969 17.284L22.5921 17.2475L22.4807 17.2385C22.1478 17.2138 21.8326 17.3298 21.5962 17.565C21.3368 17.8226 21.1998 18.2036 21.2287 18.5834L21.2307 18.6114C21.3347 19.5478 21.9144 20.2571 22.525 20.8835L22.5674 20.9246C22.8662 21.1917 23.1815 21.4477 23.5146 21.6941L17.846 21.7488L17.829 21.7501C17.0036 21.7736 9.22887 22.3456 8.22439 22.4948L3.38935 23.211L3.36014 23.2157C2.47234 23.3783 1.80904 24.0878 1.70921 24.9802C1.61061 25.8725 2.10225 26.7072 2.93274 27.058C3.25648 27.1935 3.61097 27.2447 3.95995 27.2034C12.8538 26.164 14.7001 26.0661 17.7602 25.9029C19.6285 25.8033 21.8745 25.6835 26.298 25.3302C25.4285 26.0818 24.6399 26.9142 23.9394 27.8223C23.5916 28.2321 23.4185 28.7784 23.4621 29.3262C23.5073 29.8775 23.7573 30.371 24.1691 30.7168C24.5715 31.0718 25.12 31.251 25.6746 31.2105C26.2292 31.1701 26.7459 30.9145 27.0965 30.5069C27.3163 30.2644 27.5022 30.0623 27.6922 29.866C28.8395 28.7552 30.153 27.7486 31.5864 26.8813C32.0054 26.6353 32.4548 26.3858 32.9999 26.0975L33.0295 26.0807C33.1653 26.0022 33.323 25.9209 33.4891 25.8353C34.3325 25.4016 35.4868 24.8093 35.63 23.4657L35.6328 23.4349C35.6719 22.875 35.5029 22.3633 35.1433 21.9549L35.1458 21.956Z" fill="white"/>
</g>
<defs>
<clipPath id="clip0_8_3845">
<rect width="47.5073" height="47.4973" fill="white" transform="translate(0 1.09448) rotate(-0.999999)"/>
</clipPath>
</defs>
</svg>
