<svg width="303" height="164" viewBox="0 0 303 164" fill="none" xmlns="http://www.w3.org/2000/svg">
<mask id="mask0_16_26" style="mask-type:alpha" maskUnits="userSpaceOnUse" x="-1" y="-7" width="319" height="177">
<path d="M301.841 52.0678C311.722 89.243 255.55 132.545 176.375 148.784C97.202 165.024 25.0086 148.052 15.1274 110.877C5.24598 73.702 61.4185 30.4007 140.592 14.161C219.766 -2.07879 291.959 14.8927 301.841 52.0678Z" stroke="white" stroke-width="29.6839" stroke-linecap="round" stroke-dasharray="639.88 33.88"/>
</mask>
<g mask="url(#mask0_16_26)">
<path d="M102.744 163.279C76.3906 162.553 48.9905 159.882 25.3756 146.987C10.508 139.119 0.59034 123.73 0.875626 105.913C1.88168 67.7976 37.7073 41.8773 68.6877 29.6361C89.9687 21.3527 112.396 16.9137 134.668 12.9939C165.408 8.72877 196.744 5.97392 227.503 10.3899C235.889 11.6755 244.362 13.1853 252.193 16.6375C253.929 17.4757 255.682 18.3512 257.073 19.7531C257.441 19.8972 257.6 20.3786 257.411 20.7421C257.213 21.1168 256.787 21.2017 256.458 20.9966C253.69 20.4915 250.889 20.22 248.075 20.0842C231.484 19.4432 214.904 18.234 198.288 18.389C185.443 18.6308 172.603 19.4188 159.798 20.649C139.726 22.5782 119.84 26.1562 100.191 30.9973C81.6674 35.4751 63.3736 41.9735 47.0903 52.5678C34.1039 61.1446 22.1907 72.4865 15.3252 87.1005C7.91479 103.875 10.0402 123.075 24.9425 134.035C44.3511 147.713 72.7864 151.198 95.8834 152.334C115.043 153.265 134.224 151.583 153.235 148.825C175.052 145.63 196.396 139.507 217.167 131.702C229.71 127.072 242.057 121.584 253.383 114.173C264.114 107.184 273.236 97.6685 279.832 86.3422C288.62 72.6142 289.701 55.5217 278.946 42.8337C275.969 38.8088 281.194 33.7663 284.726 37.1932C287.04 39.683 288.955 42.5976 290.539 45.6534C296.626 57.1171 297.762 70.4768 292.891 82.8043C286.649 97.9759 275.854 110.988 262.919 120.337C247.691 131.457 230.216 138.474 212.775 144.624C181.81 155.826 149.213 161.994 116.584 163.117C111.969 163.275 107.358 163.331 102.744 163.29L102.744 163.279Z" fill="#181818"/>
<path d="M107.837 155.302C81.4833 154.571 54.0829 151.898 30.4669 139C15.5986 131.13 5.6799 115.741 5.96395 97.9237C6.96735 59.8085 42.7913 33.8927 73.771 21.6553C95.0516 13.3745 117.479 8.93828 139.75 5.02129C170.491 0.759905 201.826 -1.9911 232.586 2.42862C240.973 3.71524 249.445 5.22607 257.277 8.67917C259.012 9.51763 260.765 10.3934 262.156 11.7954C262.525 11.9396 262.683 12.4209 262.496 12.7844C262.296 13.1591 261.87 13.244 261.543 13.0388C258.773 12.5334 255.972 12.2615 253.159 12.1254C236.569 11.4824 219.987 10.2711 203.372 10.4242C190.526 10.6644 177.686 11.4507 164.88 12.6795C144.809 14.6061 124.924 18.1817 105.275 23.0204C86.7512 27.4959 68.4578 33.992 52.1752 44.5842C39.1892 53.1594 27.2769 64.4999 20.4122 79.1129C13.0031 95.8864 15.1297 115.087 30.0328 126.049C49.4425 139.729 77.8782 143.217 100.975 144.356C120.135 145.29 139.316 143.609 158.327 140.854C180.144 137.661 201.488 131.542 222.258 123.738C234.801 119.111 247.147 113.625 258.473 106.216C269.204 99.2264 278.326 89.7128 284.92 78.3869C293.707 64.66 294.788 47.5677 284.031 34.8786C281.054 30.8534 286.278 25.8114 289.81 29.2388C292.124 31.7288 294.04 34.6436 295.624 37.6997C301.713 49.1641 302.85 62.5237 297.979 74.8506C291.738 90.0211 280.945 103.032 268.01 112.379C252.782 123.498 235.308 130.513 217.868 136.661C186.903 147.858 154.306 154.023 121.677 155.141C117.062 155.299 112.451 155.355 107.837 155.312V155.302Z" fill="#E2012D"/>
</g>
</svg>
