<svg width="164" height="22" viewBox="0 0 164 22" fill="none" xmlns="http://www.w3.org/2000/svg">
<path d="M90.2745 16.2068C87.3901 15.8719 84.7703 13.8811 82.1856 12.0359C81.313 11.4469 80.3451 11.2875 79.4865 11.8786C78.0108 12.8297 76.6658 14.1395 75.2356 15.2136C73.6202 16.4243 71.8924 17.5494 70.0153 17.6272C68.8598 17.6805 67.6942 17.3191 66.637 16.5669C65.4807 15.7823 64.4527 14.4643 63.1752 14.1366C61.8815 14.0881 60.7404 15.1408 59.548 15.6807C58.6307 16.1678 57.7111 16.6226 56.7728 17.0208C55.172 17.7031 53.4484 18.0333 51.7611 17.754C50.1883 17.5493 48.7518 16.4061 47.2019 16.0227C46.623 15.8815 46.0554 16.0211 45.5042 16.2209C43.0009 17.4253 40.5973 19.0448 37.9767 19.7594C35.0958 20.71 32.1732 19.6556 29.5377 17.6118C28.3399 16.8411 27.0217 16.2779 25.7644 16.8516C21.4217 19.0015 16.7035 23.0899 11.9645 19.8189C10.0925 18.7082 8.67384 15.9312 6.6164 15.5818C5.2363 15.6192 4.17707 17.0378 3.10505 18.0781C2.42725 18.84 1.04444 20.4777 0.532007 18.5364C0.318821 16.5332 1.28974 14.7599 2.05146 13.2803C3.44194 10.7138 5.7455 9.12338 8.0722 9.78144C10.1868 10.2421 11.8682 12.335 13.7399 13.7023C17.9409 15.7671 22.4251 9.32665 26.7366 9.50511C29.2843 9.41355 31.5327 11.3958 33.8728 12.6632C38.5706 14.1602 42.425 8.34442 47.0632 8.83454C48.5497 8.97705 49.967 9.75678 51.3822 10.4319C54.2619 11.4029 56.9544 9.15514 59.559 7.90355C60.9102 7.16759 62.3773 6.7192 63.8519 7.09374C65.3433 7.4201 66.7188 8.50633 68.006 9.65327C69.0357 10.7688 70.2425 10.56 71.3095 9.85239C71.2429 9.89346 71.1851 9.92663 71.123 9.96374C74.4848 8.09613 77.3726 3.71008 81.2825 4.39151C83.3669 4.69913 85.2015 6.40144 87.0858 7.663C91.9641 11.0826 97.1086 7.60182 101.803 6.02541C104.032 5.10872 105.746 5.64965 107.786 7.30058C109.464 7.84068 111.073 6.69186 112.607 5.97487C115.036 4.62796 117.465 3.06067 120.143 2.94501C122.752 2.72251 125.342 3.63195 127.942 4.00239C129.66 4.28307 131.385 4.31394 133.097 4.17609C137.567 3.82987 141.909 2.33741 146.334 1.61527C147.519 1.47321 148.71 1.77489 149.9 1.80212C151.121 1.76927 152.336 1.66472 153.553 1.57796C155.826 1.43095 158.085 1.11519 160.299 0.445271C161.443 0.107539 162.635 1.27962 162.905 2.93911C163.18 4.63795 162.44 6.25682 161.299 6.60154C159.042 7.28194 156.751 7.76617 154.477 8.33949C152.702 8.83963 150.888 9.03922 149.064 8.91098C148.155 8.84843 147.242 8.62354 146.339 8.8387C141.721 9.81709 137.135 11.1832 132.435 11.3984C129.482 11.5742 126.531 10.9516 123.595 10.3316C118.428 8.95246 115.434 13.0177 110.728 14.3494C108.625 14.9967 106.38 14.4842 104.492 12.7967C103.985 12.614 103.478 12.9153 102.987 13.0492C101.672 13.5695 100.359 14.0895 99.0359 14.5778C96.1965 15.6265 93.2676 16.6782 90.2693 16.2072L90.2745 16.2068Z" fill="white"/>
</svg>
