<svg width="57" height="78" viewBox="0 0 57 78" fill="none" xmlns="http://www.w3.org/2000/svg">
<g opacity="0.5">
<path d="M29.8482 49.9916C30.2308 48.9737 29.4281 50.7267 29.9235 49.7968C30.0678 49.5203 30.2058 49.2376 30.3562 48.9674C30.6071 48.5087 30.8455 48.0374 31.1152 47.5912C31.3848 47.139 31.6859 46.7053 31.9869 46.2718C32.1562 46.0267 32.3193 45.7 32.5387 45.4989C31.6232 46.3535 32.6454 45.4047 32.8398 45.191C33.5674 44.3805 34.3575 43.6264 35.1791 42.9102C35.4299 42.6902 35.6872 42.4765 35.9443 42.2692C35.9882 42.2315 36.8662 41.5718 36.2703 42.0053C35.6683 42.4451 36.5715 41.7916 36.609 41.7603C36.9729 41.4964 37.3429 41.2324 37.7129 40.9748C42.0904 37.9337 46.8005 35.4076 50.6012 31.5936C54.9849 27.1952 57.7445 21.5902 56.8226 15.2879C56.0763 10.1481 52.3321 5.9067 47.8604 3.52527C39.1177 -1.13079 27.8727 -0.841749 18.7224 2.45079C8.92605 5.97582 -0.305815 14.2826 0.00776649 25.5363C0.20846 32.668 4.57979 39.6364 12.0869 40.447C18.4087 41.1257 24.8309 36.5512 24.9689 29.9411C25.0191 27.7292 23.2504 25.8693 21.1306 25.5866C19.0987 25.3164 16.6966 26.5919 16.2765 28.766C16.2262 29.0173 16.1509 29.2624 16.0945 29.5074C15.9691 30.0102 15.7998 29.5075 16.2702 29.1179C16.1823 29.1932 16.0068 29.5326 15.9628 29.6456C15.7809 30.1483 16.7719 28.8038 16.1698 29.3817C16.0005 29.5389 15.0472 30.3746 15.7433 29.8341C16.4269 29.3064 15.7433 29.8091 15.6116 29.8907C15.3921 30.0226 15.1664 30.1359 14.9405 30.2552C14.1315 30.695 15.8812 29.9724 15.2792 30.1107C15.0722 30.1546 14.8715 30.2615 14.6645 30.3181C14.4952 30.3683 14.326 30.4122 14.1567 30.45C13.567 30.5883 13.266 30.3306 14.4388 30.4437C14.0688 30.4122 13.636 30.4688 13.2597 30.4814C12.758 30.5003 12.4444 30.1861 13.68 30.5757C13.4354 30.5002 13.1657 30.4751 12.9148 30.4122C12.7455 30.3683 12.5761 30.3243 12.4131 30.274C12.3315 30.2489 12.25 30.2174 12.1685 30.1924C11.6793 30.0039 11.8424 30.073 12.6577 30.3998C12.5134 30.2552 11.3532 29.4823 11.9866 30.0415C12.6389 30.6196 11.88 29.9222 11.7922 29.8404C11.6479 29.7022 11.5162 29.5389 11.3657 29.4006C10.5943 28.678 11.9552 30.3683 11.3971 29.4697C11.234 29.2121 11.0647 28.9608 10.9079 28.6906C10.8075 28.5147 10.7197 28.3262 10.6194 28.144C10.1302 27.2076 10.9142 29.0236 10.7009 28.3575C10.5629 27.9114 10.3999 27.4716 10.287 27.013C10.2494 26.8558 10.2055 26.1897 10.0988 26.0829C10.1553 26.1395 10.2117 27.39 10.1553 26.4851C10.1114 25.8442 10.0738 25.2159 10.0988 24.575C10.1051 24.3613 10.1239 24.1476 10.1365 23.9403C10.1804 23.0668 10.1177 24.2419 10.0675 24.3361C10.2807 23.9591 10.2682 23.2303 10.3873 22.7905C10.5128 22.3066 10.6696 21.8228 10.8389 21.3515C10.8891 21.2132 11.027 20.9556 11.0521 20.7923C10.7323 21.54 10.6758 21.6719 10.8953 21.1819C10.9581 21.0499 11.0208 20.9179 11.0835 20.786C11.4911 19.9566 11.9678 19.1585 12.5009 18.3982C12.6012 18.2601 12.7643 18.084 12.8458 17.927C12.2814 19.0391 12.4758 18.4045 12.7894 18.0401C13.103 17.6694 13.4354 17.3112 13.7803 16.9594C14.1253 16.6074 14.4827 16.2745 14.8465 15.9477C15.0284 15.7843 15.2228 15.6273 15.4109 15.4638C15.7872 15.1371 16.1823 15.1497 15.2102 15.6084C16.0758 15.2062 16.8785 14.4333 17.7126 13.937C18.597 13.4217 19.5064 12.9568 20.4345 12.5295C20.6226 12.4415 20.8108 12.3598 20.9989 12.2719C21.971 11.8257 20.1335 12.6112 20.7982 12.3536C21.3313 12.1462 21.8645 11.9326 22.4037 11.7441C24.3794 11.0529 26.4176 10.5376 28.481 10.1795C28.688 10.1418 28.895 10.1104 29.0957 10.0789C29.2211 10.0601 30.2559 9.89044 29.3715 10.035C28.4936 10.1795 29.5158 10.0224 29.6475 10.0098C29.8545 9.98469 30.0615 9.96584 30.2622 9.94699C31.3659 9.84646 32.4697 9.78361 33.5798 9.78361C34.4767 9.78361 35.3735 9.83389 36.2642 9.91557C36.515 9.9407 36.7659 9.9784 37.0167 9.99725C37.7129 10.0475 35.7499 9.79619 36.7847 9.97212C37.3366 10.0664 37.8823 10.1606 38.4278 10.28C39.3624 10.4811 40.2842 10.7324 41.1873 11.0403C41.6139 11.1848 42.1407 11.5053 42.5734 11.5556C42.4793 11.543 41.5135 11.0654 42.2347 11.4236C42.4919 11.5556 42.7616 11.6749 43.0187 11.8069C43.4388 12.0268 43.8528 12.2593 44.2605 12.5169C44.4612 12.6425 44.6492 12.7808 44.8501 12.9065C45.2326 13.1453 45.3768 13.5474 44.6681 12.7368C44.9315 13.0321 45.3141 13.271 45.6026 13.5474C45.9225 13.8554 46.2486 14.402 46.6186 14.6344C45.935 14.2009 46.1295 13.9182 46.443 14.4272C46.5622 14.6157 46.6939 14.7979 46.8067 14.9927C46.9009 15.1497 46.9886 15.3068 47.0702 15.4638C47.3399 15.9791 47.183 16.3121 47.0513 15.3194C47.1016 15.7089 47.3399 16.1236 47.4403 16.5069C47.503 16.7394 47.5406 16.972 47.6033 17.1981C47.8164 18.059 47.5657 16.1676 47.6033 17.217C47.6221 17.7636 47.6158 18.2977 47.6033 18.8443C47.5781 19.6109 47.5657 18.5051 47.6534 18.5428C47.6847 18.5554 47.5093 19.2465 47.4904 19.3219C47.3774 19.7933 47.2144 20.2394 47.0702 20.698C46.7316 21.7411 47.5657 19.7994 47.0326 20.7608C46.8757 21.0499 46.7377 21.3452 46.5747 21.628C46.3302 22.0615 46.0605 22.4825 45.7782 22.8972C45.6215 23.1234 45.4772 23.3873 45.289 23.5821C46.004 22.8344 45.5462 23.2553 45.3893 23.4377C44.5364 24.3989 43.6835 25.329 42.7301 26.196C42.2912 26.5919 41.8459 26.9752 41.3943 27.3459C41.363 27.3711 40.4536 28.0874 41.0369 27.635C41.5762 27.2202 40.4849 28.0372 40.3846 28.1125C39.3748 28.8414 38.3275 29.5137 37.2801 30.1861C34.9596 31.6815 32.6767 33.2146 30.5005 34.9176C28.3493 36.5953 26.4866 38.4363 24.8372 40.6167C22.9933 43.0609 22.109 45.8822 21.9523 48.9235C21.8456 50.9278 23.5641 52.6369 25.4455 52.8884C27.534 53.171 29.1521 51.9081 29.8671 49.9979L29.8482 49.9916Z" fill="white"/>
<path d="M22.8489 77.3703C23.8022 77.408 24.6989 77.207 25.5267 76.7733C26.3859 76.4906 27.1323 76.013 27.7593 75.3344C28.4367 74.7061 28.9133 73.9582 29.1954 73.0975C29.6283 72.268 29.829 71.3757 29.7913 70.4143C29.7097 69.7986 29.6283 69.1827 29.5404 68.5669C29.208 67.3856 28.6123 66.3676 27.753 65.4942C27.2827 65.1298 26.8187 64.7716 26.3483 64.4072C25.2633 63.7788 24.0969 63.4583 22.8426 63.4583C21.8893 63.4206 20.9926 63.6217 20.1648 64.0552C19.3055 64.338 18.5592 64.8156 17.9322 65.4942C17.2548 66.1226 16.7782 66.8703 16.4961 67.7312C16.0634 68.5607 15.8627 69.4529 15.9002 70.4143L16.1511 72.2617C16.4835 73.4431 17.0792 74.4611 17.9384 75.3344C18.4088 75.6988 18.8728 76.0571 19.3432 76.4215C20.4282 77.0499 21.5946 77.3703 22.8489 77.3703Z" fill="white"/>
</g>
</svg>
