<svg width="189" height="25" viewBox="0 0 189 25" fill="none" xmlns="http://www.w3.org/2000/svg">
<g opacity="0.5">
<path d="M0.165584 12.3646C0.165584 12.3646 0.165584 12.3646 0.161677 12.3644C0.338022 11.99 0.784367 11.8467 1.09419 11.6169C2.60523 10.8205 4.27945 10.4246 5.91827 10.031C8.22595 9.5098 10.5592 9.09842 12.8992 8.78326C22.2049 7.58646 31.5842 7.15238 40.9448 6.85074C60.1632 6.47784 79.3687 7.25086 98.5772 7.59459C112.666 7.75756 126.757 7.95403 140.816 8.85341C155.43 9.90285 170.023 11.2889 184.606 12.641C189.557 13.0506 189.246 20.7812 184.183 20.716C179.657 20.4955 175.146 20.0798 170.632 19.7015C161.245 18.8759 151.867 17.9342 142.466 17.2705C118.943 15.7459 95.3526 16.0439 71.8055 15.1976C49.9658 14.2991 28.0901 15.3583 6.25492 14.5975C5.0189 14.4076 -0.629165 14.5953 0.165148 12.3729L0.165584 12.3646Z" fill="white"/>
</g>
</svg>
