<svg width="24" height="28" viewBox="0 0 24 28" fill="none" xmlns="http://www.w3.org/2000/svg">
<g clip-path="url(#clip0_17_221)">
<path d="M7.50843 25.2238C7.6711 25.3364 7.81446 25.3101 7.87399 25.2981L7.89673 25.2977L7.93671 25.2859C8.17976 25.2172 8.36682 25.0595 8.51739 24.9321L8.53665 24.9157C8.7366 24.7382 8.93346 24.5379 9.12575 24.3148C9.82142 23.4913 10.4473 22.5452 11.0201 21.6459L11.0267 21.6348C12.0004 20.047 12.1331 19.8037 12.7715 18.6359C12.9057 18.39 13.0625 18.103 13.2516 17.7585C13.5002 17.3137 13.6886 16.9905 13.8545 16.7059C14.0998 16.2841 14.2964 15.9463 14.5521 15.4505C14.6412 15.3462 14.7216 15.2243 14.7922 15.0874C14.9619 14.7551 15.0513 14.364 15.0447 13.9874C15.0395 13.6879 14.975 13.4133 14.858 13.1929C14.4065 12.3437 14.1509 11.9383 13.7975 11.3767C13.6218 11.0972 13.4223 10.7807 13.1615 10.3508C12.9573 10.0081 12.7911 9.7267 12.6484 9.48652C11.9697 8.34085 11.8281 8.10232 10.7996 6.54943L10.7926 6.53855C10.1888 5.65886 9.53034 4.736 8.80205 3.93237C8.60588 3.72021 8.40215 3.52689 8.19669 3.35653L8.17683 3.34072C8.02191 3.21869 7.82949 3.06756 7.58416 3.00739L7.54381 2.9979L7.52111 2.9983C7.46118 2.98747 7.31701 2.96706 7.15831 3.08436L7.12549 3.11128C6.89588 3.3147 6.7627 3.68107 6.76985 4.09085C6.7784 4.58115 6.98066 4.96378 7.10203 5.1916C7.11132 5.20928 7.12006 5.22528 7.12662 5.23872L7.14213 5.27834L7.17321 5.33298C7.82453 6.48168 8.22691 7.06106 8.61683 7.62195C9.01216 8.19045 9.38528 8.7279 10.0217 9.87095C10.6086 10.9087 11.0913 11.6929 11.5576 12.4503C11.8802 12.9742 12.1893 13.4762 12.5136 14.0315C12.1961 14.6243 11.894 15.1557 11.578 15.7111C11.1384 16.4842 10.6833 17.2848 10.1303 18.3467C9.53675 19.5061 9.18259 20.0562 8.80732 20.6382C8.43774 21.2123 8.05526 21.8054 7.44438 22.9761L7.41523 23.0318L7.40111 23.0719C7.39448 23.0856 7.38629 23.1019 7.37763 23.1198C7.26484 23.3526 7.07547 23.7412 7.08402 24.2315C7.09117 24.6413 7.23653 25.0028 7.47361 25.1981L7.50683 25.2238L7.50843 25.2238Z" fill="white"/>
</g>
<defs>
<clipPath id="clip0_17_221">
<rect width="26.787" height="22.1746" fill="white" transform="translate(0.852539 28) rotate(-90.999)"/>
</clipPath>
</defs>
</svg>
