<svg width="162" height="63" viewBox="0 0 162 63" fill="none" xmlns="http://www.w3.org/2000/svg">
<path d="M3.59084 6.97413L3.52381 7.0294L3.46533 7.09482C1.35328 9.45761 0.56869 12.2143 0.302388 14.9009C0.121267 16.7282 0.177995 18.6389 0.229145 20.3619C0.250853 21.093 0.271562 21.7905 0.272658 22.4333C0.284771 29.1366 0.45787 35.8387 0.790692 42.5273C0.837229 43.459 0.843626 44.5287 0.85069 45.71C0.854444 46.3384 0.858389 46.9983 0.868666 47.6859C0.897644 49.6246 0.977904 51.7216 1.26622 53.6761C1.55246 55.6165 2.05781 57.5227 3.00182 59.016C3.97651 60.5578 5.40904 61.6364 7.41019 61.8529C14.1336 62.5823 22.3393 62.2449 29.6817 61.943C31.9038 61.8517 34.0469 61.7635 36.0459 61.7092C40.6058 61.5852 44.7017 61.4724 48.7584 61.3607C53.559 61.2285 58.3048 61.0978 63.6997 60.9518C73.6376 60.6815 83.5839 60.4113 93.5286 60.1411C103.496 59.8703 113.463 59.5996 123.423 59.3287L148.507 58.6483C151.94 58.5547 154.918 57.6491 157.07 55.4644C159.229 53.2713 160.372 49.9788 160.506 45.539L160.506 45.5374L161.329 17.1885L161.33 17.1695L161.33 17.1505C161.327 14.6678 161.179 11.6992 160.48 9.03365C159.785 6.37601 158.491 3.83543 156.069 2.49532C154.131 1.42209 152 1.22649 150.141 1.08692C138.822 0.233321 127.462 0.783326 116.18 1.32965C111.217 1.56993 106.269 1.80951 101.346 1.92864L101.338 1.92885L101.329 1.92918C84.8605 2.59508 75.6883 2.9079 59.2902 3.19347L59.2832 3.19359L59.2762 3.19381L19.0335 4.44324L19.026 4.44347L19.0187 4.44381C18.5309 4.46593 17.8969 4.47897 17.1669 4.49399C15.5424 4.52741 13.4421 4.57061 11.4186 4.74538C9.93278 4.87373 8.42667 5.07604 7.08881 5.40944C5.77464 5.73693 4.50849 6.21754 3.59084 6.97413Z" fill="#800019"/>
</svg>
