<svg width="164" height="65" viewBox="0 0 164 65" fill="none" xmlns="http://www.w3.org/2000/svg">
<path d="M4.59084 7.97413L4.52381 8.0294L4.46533 8.09482C2.35328 10.4576 1.56869 13.2143 1.30239 15.9009C1.12127 17.7282 1.178 19.6389 1.22915 21.3619C1.25085 22.093 1.27156 22.7905 1.27266 23.4333C1.28477 30.1366 1.45787 36.8387 1.79069 43.5273C1.83723 44.459 1.84363 45.5287 1.85069 46.71C1.85444 47.3384 1.85839 47.9983 1.86867 48.6859C1.89764 50.6246 1.9779 52.7216 2.26622 54.6761C2.55246 56.6165 3.05781 58.5227 4.00182 60.016C4.97651 61.5578 6.40904 62.6364 8.41019 62.8529C15.1336 63.5823 23.3393 63.2449 30.6817 62.943C32.9038 62.8517 35.0469 62.7635 37.0459 62.7092C41.6058 62.5852 45.7017 62.4724 49.7584 62.3607C54.559 62.2285 59.3048 62.0978 64.6997 61.9518C74.6376 61.6815 84.5839 61.4113 94.5286 61.1411C104.496 60.8703 114.463 60.5996 124.423 60.3287L149.507 59.6483C152.94 59.5547 155.918 58.6491 158.07 56.4644C160.229 54.2713 161.372 50.9788 161.506 46.539L161.506 46.5374L162.329 18.1885L162.33 18.1695L162.33 18.1505C162.327 15.6678 162.179 12.6992 161.48 10.0337C160.785 7.37601 159.491 4.83543 157.069 3.49532C155.131 2.42209 153 2.22649 151.141 2.08692C139.821 1.23332 128.462 1.78333 117.18 2.32965C112.217 2.56993 107.269 2.80951 102.346 2.92864L102.338 2.92885L102.329 2.92918C85.8605 3.59508 76.6883 3.9079 60.2902 4.19347L60.2832 4.19359L60.2762 4.19381L20.0335 5.44324L20.026 5.44347L20.0187 5.44381C19.5309 5.46593 18.8969 5.47897 18.1669 5.49399C16.5424 5.52741 14.4421 5.57061 12.4186 5.74538C10.9328 5.87373 9.42667 6.07604 8.08881 6.40944C6.77464 6.73693 5.50849 7.21754 4.59084 7.97413Z" stroke="white" stroke-width="2"/>
</svg>
