<?xml version="1.0" encoding="UTF-8"?>
<svg version="1.1" xmlns="http://www.w3.org/2000/svg" width="100" height="100">
<path d="M0 0 C5.49097924 1.15390143 10.48463943 4.71420687 15.13671875 7.7421875 C19.04096401 10.22589501 21.45174615 10.46365598 26 10.21875 C29.71718176 10.6227915 32.42422807 12.72322087 35.50390625 14.73046875 C40.87671128 18.22002253 46.59379821 21.19702118 52.34375 24.015625 C53.271875 24.49 54.2 24.964375 55.15625 25.453125 C55.86136719 25.6696875 56.56648438 25.88625 57.29296875 26.109375 C60.1171219 27.25283666 61.3670154 27.94285556 63.15625 30.453125 C64.20407719 36.36855938 63.60131363 42.50039896 63.15625 48.453125 C61.17625 47.958125 61.17625 47.958125 59.15625 47.453125 C58.82625 44.153125 58.49625 40.853125 58.15625 37.453125 C55.86562494 38.59843753 53.57512945 39.74400968 51.28515625 40.890625 C49.06584628 41.99889465 46.84425399 43.10259927 44.62109375 44.203125 C44.01604004 44.503396 43.41098633 44.80366699 42.78759766 45.11303711 C41.04261981 45.97896773 39.29672051 46.84304073 37.55078125 47.70703125 C35.87048828 48.57134766 35.87048828 48.57134766 34.15625 49.453125 C32.94984863 49.96512451 31.74344727 50.47712402 30.50048828 51.00463867 C28.31086556 52.27326798 27.34754304 52.90542929 26.50498962 55.31776428 C26.24734707 57.69417626 26.212977 59.98494018 26.25390625 62.375 C26.24161484 63.23498596 26.22932343 64.09497192 26.21665955 64.98101807 C26.18491444 67.72258715 26.20120918 70.46147155 26.21875 73.203125 C26.20564191 75.0638271 26.18940251 76.92450996 26.16992188 78.78515625 C26.1290541 83.34171916 26.13125861 87.89646653 26.15625 92.453125 C30.81521405 90.28631809 35.45839402 88.09781906 40.06640625 85.82421875 C43.10718496 84.35126168 46.03304341 83.11345431 49.27734375 82.17578125 C53.41673074 80.73137977 55.4156555 79.92205466 58.15625 76.453125 C60.02805302 68.30041519 59.59146526 59.75376569 59.15625 51.453125 C60.47625 51.123125 61.79625 50.793125 63.15625 50.453125 C63.37988929 54.47251563 63.54253486 58.48947272 63.65063477 62.51367188 C63.69571167 63.87987356 63.7570017 65.2456453 63.83520508 66.61035156 C64.46226512 77.84005421 64.46226512 77.84005421 61.45117188 81.55908203 C59.09096046 83.18444235 56.79064757 84.32974527 54.15625 85.453125 C53.36130127 85.85450684 52.56635254 86.25588867 51.74731445 86.66943359 C49.36626159 87.86765345 46.96039345 88.98109247 44.53125 90.078125 C42.91279594 90.8175465 41.29558508 91.55969576 39.6796875 92.3046875 C38.9072168 92.65821289 38.13474609 93.01173828 37.33886719 93.37597656 C35.30966585 94.37741239 33.47013602 95.50271018 31.5703125 96.7265625 C27.48080202 98.79471311 24.64226949 99.26946978 20.15625 98.453125 C17.57006077 97.36375645 15.40891361 96.30941273 13.03125 94.890625 C11.7289428 94.15304092 10.4255285 93.41740864 9.12109375 92.68359375 C8.46608887 92.31024902 7.81108398 91.9369043 7.13623047 91.55224609 C2.94077709 89.22327801 -1.4069287 87.18807244 -5.72265625 85.09375 C-8.95983357 83.39210485 -11.93790806 81.67851206 -14.84375 79.453125 C-15.71875 75.703125 -15.71875 75.703125 -15.84375 72.453125 C-14.52375 72.453125 -13.20375 72.453125 -11.84375 72.453125 C-11.50537109 73.35998047 -11.50537109 73.35998047 -11.16015625 74.28515625 C-9.43143136 77.13216609 -7.79855591 77.75855778 -4.78125 79.140625 C-3.18796875 79.89472656 -3.18796875 79.89472656 -1.5625 80.6640625 C-0.9746875 80.94217773 -0.386875 81.22029297 0.21875 81.50683594 C4.698329 83.69469483 9.06615779 86.10697068 13.45532227 88.46948242 C14.15197998 88.84177979 14.8486377 89.21407715 15.56640625 89.59765625 C16.18652588 89.93128174 16.80664551 90.26490723 17.44555664 90.60864258 C19.32720254 91.5858743 19.32720254 91.5858743 22.15625 92.453125 C21.82625 79.583125 21.49625 66.713125 21.15625 53.453125 C18.51625 52.133125 15.87625 50.813125 13.15625 49.453125 C13.15625 53.413125 13.15625 57.373125 13.15625 61.453125 C11.50625 61.453125 9.85625 61.453125 8.15625 61.453125 C7.681875 60.793125 7.2075 60.133125 6.71875 59.453125 C6.203125 58.793125 5.6875 58.133125 5.15625 57.453125 C2.07259129 57.2029093 2.07259129 57.2029093 -0.84375 57.453125 C-1.84375 56.453125 -1.84375 56.453125 -1.94140625 52.85546875 C-1.9347322 51.36715633 -1.92277183 49.87886068 -1.90625 48.390625 C-1.90173828 47.63201172 -1.89722656 46.87339844 -1.89257812 46.09179688 C-1.8807568 44.21220629 -1.86282078 42.33265601 -1.84375 40.453125 C-2.771875 40.164375 -3.7 39.875625 -4.65625 39.578125 C-7.84375 38.453125 -7.84375 38.453125 -10.84375 36.453125 C-11.17375 43.053125 -11.50375 49.653125 -11.84375 56.453125 C-10.52375 56.783125 -9.20375 57.113125 -7.84375 57.453125 C-5.94429837 58.36203165 -4.07019955 59.32504856 -2.21875 60.328125 C-0.77628906 61.09769531 -0.77628906 61.09769531 0.6953125 61.8828125 C3.15625 63.453125 3.15625 63.453125 5.15625 66.453125 C5.53194856 70.21011057 5.3204735 71.20678976 3.15625 74.453125 C-0.83569897 75.56295564 -4.60251019 75.04325486 -8.30859375 73.28125 C-9.99008859 72.2505707 -11.65391122 71.19061567 -13.30078125 70.10546875 C-17.29315737 67.51134418 -21.566535 65.52924072 -25.84375 63.453125 C-27.3864171 62.68429578 -28.92816978 61.9136274 -30.46875 61.140625 C-31.5825 60.58375 -32.69625 60.026875 -33.84375 59.453125 C-33.84375 58.793125 -33.84375 58.133125 -33.84375 57.453125 C-34.83375 57.123125 -35.82375 56.793125 -36.84375 56.453125 C-37.32538757 49.10815209 -37.32538757 49.10815209 -35.28125 46.328125 C-31.7030457 45.0436414 -29.18342804 45.9903978 -25.84375 47.453125 C-22.78330281 49.02233519 -19.8002762 50.69664004 -16.84375 52.453125 C-16.51375 51.793125 -16.18375 51.133125 -15.84375 50.453125 C-16.7925 50.164375 -17.74125 49.875625 -18.71875 49.578125 C-21.84375 48.453125 -21.84375 48.453125 -23.84375 46.453125 C-23.84375 45.133125 -23.84375 43.813125 -23.84375 42.453125 C-20.46912285 43.00036183 -18.7614 43.508025 -15.84375 45.453125 C-15.84375 44.463125 -15.84375 43.473125 -15.84375 42.453125 C-16.40707031 42.17597656 -16.97039063 41.89882813 -17.55078125 41.61328125 C-19.90727703 40.4209827 -22.22089531 39.16991231 -24.53125 37.890625 C-25.31886719 37.45621094 -26.10648438 37.02179687 -26.91796875 36.57421875 C-28.84375 35.453125 -28.84375 35.453125 -29.84375 34.453125 C-30.11689815 28.71701389 -30.11689815 28.71701389 -29.84375 26.453125 C-27.84375 24.453125 -27.84375 24.453125 -24.78125 24.015625 C-19.63913163 24.58697149 -16.15588658 26.71526051 -11.84375 29.453125 C-11.84375 28.793125 -11.84375 28.133125 -11.84375 27.453125 C-11.33400635 27.22125488 -10.8242627 26.98938477 -10.29907227 26.75048828 C-7.99841936 25.69955655 -5.70233927 24.63898799 -3.40625 23.578125 C-2.60380859 23.21332031 -1.80136719 22.84851563 -0.97460938 22.47265625 C-0.21083984 22.11816406 0.55292969 21.76367188 1.33984375 21.3984375 C2.04681396 21.07375488 2.75378418 20.74907227 3.48217773 20.41455078 C5.33553261 19.55530794 5.33553261 19.55530794 6.15625 17.453125 C5.475625 17.205625 4.795 16.958125 4.09375 16.703125 C-0.2494692 14.85494662 -4.47798737 12.81888763 -7.84375 9.453125 C-8.15625 5.953125 -8.15625 5.953125 -7.84375 2.453125 C-4.9401922 0.5174198 -3.44217248 -0.08751286 0 0 Z M-1.84375 4.453125 C-1.84375 5.773125 -1.84375 7.093125 -1.84375 8.453125 C0.22982305 9.68168707 2.31221754 10.88537846 4.40625 12.078125 C4.99277344 12.42875 5.57929687 12.779375 6.18359375 13.140625 C8.12322741 14.27599437 8.12322741 14.27599437 11.15625 15.453125 C13.55654534 14.81979803 13.55654534 14.81979803 15.15625 13.453125 C6.73037594 8.81112914 6.73037594 8.81112914 -1.84375 4.453125 Z M17.99609375 17.4296875 C17.2069458 17.85072754 16.41779785 18.27176758 15.60473633 18.70556641 C14.77611084 19.15851074 13.94748535 19.61145508 13.09375 20.078125 C12.24772217 20.5323584 11.40169434 20.9865918 10.5300293 21.45458984 C8.06753123 22.77919202 5.61121144 24.11461847 3.15625 25.453125 C1.92465282 26.12011242 0.69290484 26.78682154 -0.5390625 27.453125 C-2.97873135 28.77806265 -5.41407367 30.10997808 -7.84375 31.453125 C-5.6771685 34.11968685 -4.50386918 35.34094183 -1.0625 35.92578125 C2.95543093 35.33576955 6.12617025 33.79063851 9.65625 31.890625 C11.06237431 31.15991433 12.46862709 30.42945084 13.875 29.69921875 C14.58269531 29.32651855 15.29039063 28.95381836 16.01953125 28.56982422 C19.3746195 26.81637659 22.76564646 25.13654382 26.15625 23.453125 C27.31125 22.875625 28.46625 22.298125 29.65625 21.703125 C30.48125 21.290625 31.30625 20.878125 32.15625 20.453125 C31.48808313 17.28285263 31.48808313 17.28285263 28.84375 16.265625 C24.53087135 14.96173145 21.84028415 15.35362261 17.99609375 17.4296875 Z M27.96875 26.453125 C27.13174561 26.86941162 26.29474121 27.28569824 25.43237305 27.71459961 C19.26110027 30.80709496 13.14577957 34.02092266 7.15625 37.453125 C7.15625 38.443125 7.15625 39.433125 7.15625 40.453125 C8.91889945 41.65579681 8.91889945 41.65579681 11.15625 42.453125 C13.2472221 41.9129296 13.2472221 41.9129296 15.28125 40.671875 C16.06516113 40.24455078 16.84907227 39.81722656 17.65673828 39.37695312 C18.48157715 38.90708984 19.30641602 38.43722656 20.15625 37.953125 C21.86135376 37.014488 23.56708346 36.07698718 25.2734375 35.140625 C26.10456055 34.67914063 26.93568359 34.21765625 27.79199219 33.7421875 C31.82189602 31.54496608 35.9583847 29.58340985 40.1015625 27.609375 C42.30530295 26.62181897 42.30530295 26.62181897 43.15625 24.453125 C37.06817116 21.31595072 33.56965044 23.54123481 27.96875 26.453125 Z M-24.84375 28.453125 C-25.17375 29.443125 -25.50375 30.433125 -25.84375 31.453125 C-24.52375 31.783125 -23.20375 32.113125 -21.84375 32.453125 C-21.84375 33.113125 -21.84375 33.773125 -21.84375 34.453125 C-19.86375 35.113125 -17.88375 35.773125 -15.84375 36.453125 C-16.03563156 34.513616 -16.03563156 34.513616 -16.84375 32.453125 C-18.68358424 31.11081058 -18.68358424 31.11081058 -20.90625 30.203125 C-21.63972656 29.86796875 -22.37320312 29.5328125 -23.12890625 29.1875 C-23.69480469 28.94515625 -24.26070312 28.7028125 -24.84375 28.453125 Z M42.99609375 30.46484375 C42.2069458 30.89104004 41.41779785 31.31723633 40.60473633 31.75634766 C39.3617981 32.44156494 39.3617981 32.44156494 38.09375 33.140625 C31.21316274 36.85578829 24.35186028 40.38084196 17.15625 43.453125 C17.15625 44.113125 17.15625 44.773125 17.15625 45.453125 C19.87183321 47.18674424 19.87183321 47.18674424 23.15625 48.453125 C25.62006447 47.71302706 25.62006447 47.71302706 28.15625 46.453125 C28.99542969 46.08574219 29.83460937 45.71835937 30.69921875 45.33984375 C39.38966654 41.39897599 47.92344378 37.2854243 56.15625 32.453125 C51.4624117 28.28082429 48.59863154 27.38860171 42.99609375 30.46484375 Z M2.15625 43.453125 C2.15625 46.423125 2.15625 49.393125 2.15625 52.453125 C4.46625 52.453125 6.77625 52.453125 9.15625 52.453125 C9.57371608 49.57947709 9.57371608 49.57947709 9.15625 46.453125 C6.76732499 44.56713157 5.23773442 43.453125 2.15625 43.453125 Z M-31.84375 50.453125 C-31.84375 51.773125 -31.84375 53.093125 -31.84375 54.453125 C-25.19179542 58.20240849 -18.46164774 61.78816828 -11.69750977 65.32983398 C-10.98522217 65.70438721 -10.27293457 66.07894043 -9.5390625 66.46484375 C-8.89984863 66.79959717 -8.26063477 67.13435059 -7.60205078 67.47924805 C-5.96586535 68.38548849 -4.40001205 69.41561697 -2.84375 70.453125 C-1.85375 70.453125 -0.86375 70.453125 0.15625 70.453125 C0.15625 69.463125 0.15625 68.473125 0.15625 67.453125 C-10.40721031 61.61354919 -21.04717889 55.85141056 -31.84375 50.453125 Z " fill="#FFFFFF" transform="translate(36.84375,0.546875)"/>
<path d="M0 0 C5.35425582 0.01713362 7.87101464 1.96735289 11.875 5.375 C11.545 6.365 11.215 7.355 10.875 8.375 C6.31045749 7.83160208 2.9021824 6.58036179 -1.125 4.375 C-0.42330732 7.56733596 -0.42330732 7.56733596 2.38671875 8.875 C3.43472656 9.37 4.48273437 9.865 5.5625 10.375 C6.59761719 10.87 7.63273438 11.365 8.69921875 11.875 C9.74722656 12.37 10.79523437 12.865 11.875 13.375 C13.48181641 14.18904297 13.48181641 14.18904297 15.12109375 15.01953125 C17.426653 16.15432424 19.36920468 16.89311628 21.875 17.375 C19.6793301 15.66725675 17.57391966 14.21077436 15.125 12.875 C14.3825 12.38 13.64 11.885 12.875 11.375 C12.875 10.385 12.875 9.395 12.875 8.375 C18.22321648 7.82926362 21.40105284 8.54510873 25.5546875 11.8046875 C26.875 13.375 26.875 13.375 27.4375 17.0625 C26.875 20.375 26.875 20.375 24.875 22.375 C19.56153583 23.56594887 15.50436588 22.4939942 10.9375 19.6875 C9.70386719 18.87152344 9.70386719 18.87152344 8.4453125 18.0390625 C5.03935217 15.83398788 1.45874756 14.11505928 -2.19140625 12.35546875 C-4.125 11.375 -4.125 11.375 -5.125 10.375 C-5.2229057 8.87761876 -5.25474864 7.37557108 -5.25 5.875 C-5.25257813 5.0603125 -5.25515625 4.245625 -5.2578125 3.40625 C-5.02079261 -0.21876011 -3.23881829 0.14272759 0 0 Z " fill="#FFFFFF" transform="translate(5.125,2.625)"/>
<path d="M0 0 C-0.185625 0.556875 -0.37125 1.11375 -0.5625 1.6875 C-1.07598217 4.40162004 -0.59846534 6.32685483 0 9 C-1.5725165 9.89429374 -3.15853741 10.76487427 -4.75 11.625 C-5.63171875 12.11226562 -6.5134375 12.59953125 -7.421875 13.1015625 C-10 14 -10 14 -12.328125 13.1484375 C-12.87984375 12.76945312 -13.4315625 12.39046875 -14 12 C-13.67 11.01 -13.34 10.02 -13 9 C-12.34 8.67 -11.68 8.34 -11 8 C-11.99 7.01 -12.98 6.02 -14 5 C-12.67753846 2.35507692 -11.35464102 2.02166213 -8.6875 0.8125 C-7.90761719 0.44769531 -7.12773438 0.08289063 -6.32421875 -0.29296875 C-3.7433438 -1.07807525 -2.50336038 -0.89937661 0 0 Z " fill="#FFFFFF" transform="translate(78,75)"/>
<path d="M0 0 C5.15464734 0.48324819 8.81550319 3.18610761 13 6 C12.67 7.32 12.34 8.64 12 10 C9.06984666 9.3547078 6.51243525 8.4319105 3.8125 7.125 C3.11769531 6.79757813 2.42289062 6.47015625 1.70703125 6.1328125 C0 5 0 5 -1 2 C-0.67 1.34 -0.34 0.68 0 0 Z " fill="#FFFFFF" transform="translate(76,11)"/>
</svg>
