<?xml version="1.0" encoding="UTF-8"?>
<svg version="1.1" xmlns="http://www.w3.org/2000/svg" width="100" height="100">
<path d="M0 0 C0.495 0.495 0.495 0.495 1 1 C2.2375 1.0825 3.475 1.165 4.75 1.25 C9.27808149 1.75850113 11.0178845 3.53429821 14 7 C14.86625 7.61875 15.7325 8.2375 16.625 8.875 C19.73496401 11.65759938 20.53525999 14.11843896 22 18 C22.33 18.33 22.66 18.66 23 19 C23.24966567 22.1382345 23.18521791 25.29049613 23.1875 28.4375 C23.19974609 29.32244141 23.21199219 30.20738281 23.22460938 31.11914062 C23.22654297 31.96541016 23.22847656 32.81167969 23.23046875 33.68359375 C23.23457764 34.46275146 23.23868652 35.24190918 23.24291992 36.04467773 C23 38 23 38 21 40 C20.38125 41.670625 20.38125 41.670625 19.75 43.375 C18.11690731 47.37897854 15.71411822 48.8018484 12 51 C11.401875 51.70125 10.80375 52.4025 10.1875 53.125 C5.04741595 57.53078633 -2.53828879 57.32856159 -9 57 C-11.125 56.625 -11.125 56.625 -13 56 C-13.94875 55.7525 -14.8975 55.505 -15.875 55.25 C-19.61036832 53.75585267 -22.00809245 51.66670021 -25 49 C-25.78375 48.525625 -26.5675 48.05125 -27.375 47.5625 C-29 46 -29 46 -29.25 42.8125 C-29.1675 41.884375 -29.085 40.95625 -29 40 C-29.99 39.67 -30.98 39.34 -32 39 C-33.63405901 35.73188198 -33.18453757 32.15000593 -33.1875 28.5625 C-33.19974609 27.78583984 -33.21199219 27.00917969 -33.22460938 26.20898438 C-33.23474195 22.28767691 -33.2225417 20.33381255 -31 17 C-30.34 17 -29.68 17 -29 17 C-28.979375 15.948125 -28.95875 14.89625 -28.9375 13.8125 C-27.95070643 9.79953947 -27.77963959 9.42172031 -24.625 7.25 C-24.01914062 6.88390625 -23.41328125 6.5178125 -22.7890625 6.140625 C-20.94011054 5.06556737 -20.94011054 5.06556737 -19.53125 3.43359375 C-14.95070374 -0.85482583 -5.91094124 -0.56734481 0 0 Z M-7 4 C-7.66 5.32 -8.32 6.64 -9 8 C-9.99 7.34 -10.98 6.68 -12 6 C-14.64632287 6.3121764 -14.64632287 6.3121764 -17 7 C-17.33 8.65 -17.66 10.3 -18 12 C-18.598125 11.79375 -19.19625 11.5875 -19.8125 11.375 C-22.28450846 10.69328085 -22.28450846 10.69328085 -25 13 C-24.67 15.31 -24.34 17.62 -24 20 C-25.32 20.33 -26.64 20.66 -28 21 C-28.6878236 23.35367713 -28.6878236 23.35367713 -29 26 C-28.34 26.99 -27.68 27.98 -27 29 C-27.66 29.66 -28.32 30.32 -29 31 C-28.67958603 33.60280568 -28.67958603 33.60280568 -28 36 C-26.68 36.33 -25.36 36.66 -24 37 C-24.20625 37.94875 -24.4125 38.8975 -24.625 39.875 C-24.74875 40.90625 -24.8725 41.9375 -25 43 C-23.16116119 45.28728734 -23.16116119 45.28728734 -20.375 45.125 C-19.199375 45.063125 -19.199375 45.063125 -18 45 C-17.67 46.65 -17.34 48.3 -17 50 C-14.64632287 50.6878236 -14.64632287 50.6878236 -12 51 C-11.01 50.34 -10.02 49.68 -9 49 C-8.34 50.32 -7.68 51.64 -7 53 C-4.525 52.505 -4.525 52.505 -2 52 C-1.67 51.01 -1.34 50.02 -1 49 C-0.01 49.66 0.98 50.32 2 51 C4.64632287 50.6878236 4.64632287 50.6878236 7 50 C7.33 48.35 7.66 46.7 8 45 C10.31 44.67 12.62 44.34 15 44 C16.33304698 41.10813214 16.33304698 41.10813214 15.0625 38.8125 C14.711875 38.214375 14.36125 37.61625 14 37 C15.98 36.505 15.98 36.505 18 36 C18.6878236 33.64632287 18.6878236 33.64632287 19 31 C18.34 30.01 17.68 29.02 17 28 C17.66 27.34 18.32 26.68 19 26 C19.16687448 23.41645782 19.16687448 23.41645782 19 21 C17.35 20.67 15.7 20.34 14 20 C14.66 18.35 15.32 16.7 16 15 C14.27144074 12.85432087 14.27144074 12.85432087 12 11 C9.78141747 11.13641377 9.78141747 11.13641377 8 12 C7.505 9.525 7.505 9.525 7 7 C4.64632287 6.3121764 4.64632287 6.3121764 2 6 C1.01 6.66 0.02 7.32 -1 8 C-1.66 6.68 -2.32 5.36 -3 4 C-4.32 4 -5.64 4 -7 4 Z " fill="#FFFFFF" transform="translate(77,0)"/>
<path d="M0 0 C0.94875 0.2475 1.8975 0.495 2.875 0.75 C6.61036832 2.24414733 9.00809245 4.33329979 12 7 C12.763125 7.474375 13.52625 7.94875 14.3125 8.4375 C16.71582103 10.66279725 16.53771556 12.83004956 17 16 C17.49653076 16.47630859 17.99306152 16.95261719 18.50463867 17.44335938 C20.72324305 19.75288125 20.36398583 22.09316612 20.36132812 25.16015625 C20.34521484 25.93230469 20.32910156 26.70445313 20.3125 27.5 C20.31572266 28.27214844 20.31894531 29.04429688 20.32226562 29.83984375 C20.28523859 33.72431666 20.19788099 35.70317851 18 39 C17.34 39 16.68 39 16 39 C15.979375 40.051875 15.95875 41.10375 15.9375 42.1875 C14.95070643 46.20046053 14.77963959 46.57827969 11.625 48.75 C11.01914062 49.11609375 10.41328125 49.4821875 9.7890625 49.859375 C7.94011054 50.93443263 7.94011054 50.93443263 6.53125 52.56640625 C2.17926014 56.64084574 -5.62869527 56.2167648 -11.25 56.16796875 C-13 56 -13 56 -14 55 C-15.2375 54.9175 -16.475 54.835 -17.75 54.75 C-22.27808149 54.24149887 -24.0178845 52.46570179 -27 49 C-27.86625 48.38125 -28.7325 47.7625 -29.625 47.125 C-32.73496401 44.34240062 -33.53525999 41.88156104 -35 38 C-35.33 37.67 -35.66 37.34 -36 37 C-36.24966567 33.8617655 -36.18521791 30.70950387 -36.1875 27.5625 C-36.19974609 26.67755859 -36.21199219 25.79261719 -36.22460938 24.88085938 C-36.22654297 24.03458984 -36.22847656 23.18832031 -36.23046875 22.31640625 C-36.23457764 21.53724854 -36.23868652 20.75809082 -36.24291992 19.95532227 C-36 18 -36 18 -34 16 C-33.5875 14.88625 -33.175 13.7725 -32.75 12.625 C-31.11690731 8.62102146 -28.71411822 7.1981516 -25 5 C-24.401875 4.29875 -23.80375 3.5975 -23.1875 2.875 C-17.51450548 -1.98756673 -6.86774862 -2.28924954 0 0 Z M-10 3 C-10.66 4.32 -11.32 5.64 -12 7 C-12.99 6.34 -13.98 5.68 -15 5 C-17.64632287 5.3121764 -17.64632287 5.3121764 -20 6 C-20.33 7.65 -20.66 9.3 -21 11 C-22.98 11 -24.96 11 -27 11 C-28.21690533 12.76529595 -28.21690533 12.76529595 -29 15 C-28.21690533 17.23470405 -28.21690533 17.23470405 -27 19 C-28.32 19.33 -29.64 19.66 -31 20 C-31.6878236 22.35367713 -31.6878236 22.35367713 -32 25 C-31.34 25.99 -30.68 26.98 -30 28 C-30.66 28.66 -31.32 29.32 -32 30 C-32.16687448 32.58354218 -32.16687448 32.58354218 -32 35 C-30.35 35.33 -28.7 35.66 -27 36 C-27.99 38.475 -27.99 38.475 -29 41 C-27.27144074 43.14567913 -27.27144074 43.14567913 -25 45 C-22.78141747 44.86358623 -22.78141747 44.86358623 -21 44 C-20.67 45.65 -20.34 47.3 -20 49 C-17.64632287 49.6878236 -17.64632287 49.6878236 -15 50 C-14.01 49.34 -13.02 48.68 -12 48 C-11.34 49.32 -10.68 50.64 -10 52 C-7.525 51.505 -7.525 51.505 -5 51 C-4.67 50.01 -4.34 49.02 -4 48 C-3.01 48.66 -2.02 49.32 -1 50 C1.64632287 49.6878236 1.64632287 49.6878236 4 49 C4.33 47.35 4.66 45.7 5 44 C5.598125 44.20625 6.19625 44.4125 6.8125 44.625 C9.28450846 45.30671915 9.28450846 45.30671915 12 43 C11.505 39.535 11.505 39.535 11 36 C12.98 35.505 12.98 35.505 15 35 C15.6878236 32.64632287 15.6878236 32.64632287 16 30 C15.34 29.01 14.68 28.02 14 27 C14.66 26.34 15.32 25.68 16 25 C15.67958603 22.39719432 15.67958603 22.39719432 15 20 C13.68 19.67 12.36 19.34 11 19 C11.33 16.69 11.66 14.38 12 12 C9.69 11.67 7.38 11.34 5 11 C4.505 8.525 4.505 8.525 4 6 C1.64632287 5.3121764 1.64632287 5.3121764 -1 5 C-1.99 5.66 -2.98 6.32 -4 7 C-4.66 5.68 -5.32 4.36 -6 3 C-7.32 3 -8.64 3 -10 3 Z " fill="#FFFFFF" transform="translate(36,44)"/>
<path d="M0 0 C1.98 0.99 3.96 1.98 6 3 C5.67 4.32 5.34 5.64 5 7 C3.02 6.34 1.04 5.68 -1 5 C-0.67 3.35 -0.34 1.7 0 0 Z " fill="#FFFFFF" transform="translate(79,30)"/>
<path d="M0 0 C0.99 0.99 1.98 1.98 3 3 C1.1875 5 1.1875 5 -1 7 C-1.99 7 -2.98 7 -4 7 C-4.33 5.68 -4.66 4.36 -5 3 C-3.35 2.01 -1.7 1.02 0 0 Z " fill="#FFFFFF" transform="translate(64,30)"/>
<path d="M0 0 C-0.33 1.32 -0.66 2.64 -1 4 C-2.98 4.33 -4.96 4.66 -7 5 C-6.625 2.5625 -6.625 2.5625 -6 0 C-3.50907189 -1.24546405 -2.58919267 -0.7767578 0 0 Z " fill="#FFFFFF" transform="translate(85,21)"/>
<path d="M0 0 C2.375 0.3125 2.375 0.3125 5 1 C5.66 1.99 6.32 2.98 7 4 C6.67 4.66 6.34 5.32 6 6 C1.25 5.125 1.25 5.125 -1 4 C-0.67 2.68 -0.34 1.36 0 0 Z " fill="#FFFFFF" transform="translate(60,20)"/>
<path d="M0 0 C1.32 0 2.64 0 4 0 C4 2.31 4 4.62 4 7 C2.68 7 1.36 7 0 7 C0 4.69 0 2.38 0 0 Z " fill="#FFFFFF" transform="translate(70,36)"/>
<path d="M0 0 C1.32 0 2.64 0 4 0 C4 2.31 4 4.62 4 7 C2.68 7 1.36 7 0 7 C0 4.69 0 2.38 0 0 Z " fill="#FFFFFF" transform="translate(70,14)"/>
<path d="M0 0 C1.32 0 2.64 0 4 0 C4 1.32 4 2.64 4 4 C2.68 4 1.36 4 0 4 C0 2.68 0 1.36 0 0 Z " fill="#FFFFFF" transform="translate(19,58)"/>
<path d="M0 0 C1.32 0 2.64 0 4 0 C4 1.32 4 2.64 4 4 C2.68 4 1.36 4 0 4 C0 2.68 0 1.36 0 0 Z " fill="#FFFFFF" transform="translate(13,58)"/>
</svg>
