<svg width="93" height="93" viewBox="0 0 93 93" fill="none" xmlns="http://www.w3.org/2000/svg">
<path d="M88.5468 33.3233L88.5437 33.3099L88.5405 33.2964C84.4444 15.8311 69.9816 4.46457 52.5039 3.52251C35.3465 1.38008 19.8785 7.8802 10.5732 23.0259C3.66182 33.5884 0.672044 48.8117 6.70352 60.8278C8.71598 69.2354 14.019 76.6138 21.7367 81.5754C33.7198 90.5067 48.0987 92.2582 61.4793 84.8564C69.7448 80.5902 77.2233 72.5706 79.5745 63.0782C86.6143 55.2105 90.9984 44.2901 88.5468 33.3233Z" fill="#800019"/>
<path d="M32.9748 61.263C36.0089 57.8868 45.9451 46.5252 53.283 37.8736C52.1374 42.3652 51.8284 47.038 52.4426 51.6549C52.5404 53.097 53.8672 54.2782 55.3183 54.1547C56.0395 54.1209 56.6886 53.7674 57.145 53.2424C57.6035 52.7151 57.8668 52.0142 57.8062 51.2929C57.7716 50.61 57.7411 49.9268 57.7279 49.2426C57.7771 45.4676 58.2937 41.6953 59.1892 38.0308C59.4944 36.852 59.8322 35.6858 60.1897 34.5247C60.7276 32.4881 62.0335 29.9477 60.5084 28.0524C59.2026 26.5454 57.2211 27.0779 55.9002 28.2362C55.0493 28.8537 54.178 29.4216 53.2698 29.9495C49.7714 31.8658 46.2114 33.6927 42.5243 35.2312C39.3905 36.6138 36.002 37.411 32.9172 38.8835C32.5314 39.2129 32.7446 39.7817 33.0728 40.0672C34.2988 41.0578 35.9803 41.1862 37.4997 41.2172C40.5257 41.0703 43.5118 40.4021 46.3793 39.3854L29.133 57.6425C28.0414 58.7429 28.1419 60.5433 29.3465 61.5312C30.4382 62.4248 32.036 62.3064 32.9748 61.263Z" fill="white"/>
</svg>
