<svg width="26" height="15" viewBox="0 0 26 15" fill="none" xmlns="http://www.w3.org/2000/svg">
<path d="M0.747146 8.07232C0.280086 7.77282 0.000972598 7.25427 7.62526e-06 6.68543C-0.00137708 6.21189 0.185877 5.76375 0.52378 5.42587C0.863617 5.08752 1.30645 4.90566 1.77322 4.91661C2.90937 4.94215 3.94983 4.96606 4.76524 4.98556C5.66199 5.00605 6.28797 5.02183 6.47198 5.02379L14.9828 5.31965L13.4217 3.98759C13.0883 3.70216 12.7684 3.40322 12.4726 3.09743L12.4439 3.06537C11.8047 2.30052 11.3742 1.62175 11.3492 0.793612L11.3489 0.771144C11.3497 0.549844 11.4509 0.312721 11.6129 0.167473C11.747 0.0453255 11.91 -0.00709828 12.0848 0.0145254L12.12 0.0183229L12.1533 0.032879C13.0345 0.394786 13.8761 0.864495 14.6905 1.32028C15.4194 1.72797 16.1026 2.1097 16.8315 2.43554L16.8431 2.44303C18.4183 3.18519 20.1624 3.87873 22.4913 4.68282L22.5077 4.68809C22.9891 4.83988 23.4724 4.96553 23.9857 5.07282L24.0132 5.07851L24.0403 5.08225C24.4323 5.13057 24.7991 5.25657 25.0989 5.44878C25.2894 5.57097 25.449 5.71594 25.5716 5.87996C25.8331 6.22672 25.9305 6.63733 25.8629 7.10078L25.8602 7.11782C25.6589 8.20186 24.7716 8.69085 23.6341 9.2173C23.4288 9.31257 23.2354 9.40189 23.058 9.49457L23.0432 9.50219C22.3927 9.81366 21.8526 10.0833 21.3451 10.3534C19.5807 11.3207 17.9595 12.4534 16.5173 13.7212L16.501 13.7363C16.2399 13.9801 15.9865 14.2322 15.7509 14.4668L15.7381 14.4791C15.4347 14.7964 15.0046 14.9865 14.5587 14.9992C14.229 15.0096 13.9138 14.9234 13.6454 14.7513C13.5536 14.6925 13.468 14.6239 13.3941 14.5475L13.3828 14.5369C13.08 14.242 12.9136 13.8316 12.9126 13.3805C12.9116 12.9293 13.0856 12.4864 13.3879 12.1632L13.4103 12.1384C14.2506 11.1602 15.1921 10.259 16.207 9.46106L17.9161 8.11698L15.7921 8.19513C10.7357 8.38247 8.15082 8.40733 6.07412 8.42708C5.15374 8.4358 4.0513 8.40115 2.77609 8.35981C2.39221 8.34742 1.99013 8.3353 1.56867 8.32269C1.27582 8.31407 0.991911 8.22757 0.747926 8.07111L0.747146 8.07232Z" fill="#836F75"/>
</svg>
