<svg width="53" height="53" viewBox="0 0 53 53" fill="none" xmlns="http://www.w3.org/2000/svg">
<path d="M50.8208 20.868L50.8196 20.8603L50.8183 20.8524C49.1882 10.7867 41.4381 3.76817 31.5651 2.541C21.9213 0.64589 12.8928 3.71832 7.01587 11.9374C2.67811 17.6525 0.379205 26.166 3.32278 33.2186C4.13054 38.0658 6.84497 42.4598 11.0244 45.5792C17.465 51.1186 25.5488 52.6819 33.4295 49.0154C38.2854 46.924 42.8439 42.6733 44.5535 37.3841C48.8572 33.202 51.7761 27.1837 50.8208 20.868Z" fill="#7F0019" stroke="#7F0019" stroke-width="3"/>
<path d="M22.0917 37.3814C21.2247 37.3814 20.5069 37.0167 20.1682 36.4043C19.8252 35.786 19.9232 35.0313 20.4323 34.3117C20.3705 34.1303 20.3194 33.9411 20.2768 33.7441C19.4737 29.9528 19.4908 25.8807 19.5078 21.9431C19.5121 20.9095 19.5163 19.8408 19.5078 18.8032C19.5504 16.5253 20.7007 15.5093 21.819 15.5093H21.8425C21.9234 15.5034 22.0065 15.4995 22.0938 15.4995C22.7158 15.4995 23.6979 15.6848 24.846 16.5643C28.3395 18.9319 32.6829 21.8788 36.5151 25.0011C36.8751 25.3112 37.1307 25.6018 37.2883 25.871C37.4247 26.0309 37.4886 26.2259 37.4779 26.4404C37.4886 26.655 37.4247 26.85 37.2883 27.0099C37.1307 27.279 36.8751 27.5677 36.5236 27.8719C32.6808 31.004 28.3374 33.9489 24.846 36.3165C23.6957 37.198 22.7158 37.3833 22.0938 37.3833L22.0917 37.3814ZM24.1026 21.2801C23.9961 24.5838 23.8448 28.3088 23.4848 31.9967C23.7618 31.8192 24.0408 31.6398 24.3199 31.4604C27.1104 29.6661 29.9883 27.8134 33.0259 26.4404C29.9883 25.0655 27.1083 23.2147 24.3177 21.4185L24.1047 21.282L24.1026 21.2801Z" fill="white"/>
</svg>
