<svg width="53" height="53" viewBox="0 0 53 53" fill="none" xmlns="http://www.w3.org/2000/svg">
<path d="M2.18167 20.868L2.18287 20.8603L2.18417 20.8524C3.81427 10.7867 11.5644 3.76817 21.4374 2.541C31.0812 0.64589 40.1097 3.71832 45.9866 11.9374C50.3243 17.6525 52.6232 26.166 49.6797 33.2186C48.8719 38.0658 46.1575 42.4598 41.9781 45.5792C35.5375 51.1186 27.4537 52.6819 19.573 49.0154C14.7171 46.924 10.1586 42.6733 8.44897 37.3841C4.14528 33.202 1.22638 27.1837 2.18167 20.868Z" fill="#7F0019" stroke="#7F0019" stroke-width="3"/>
<path d="M30.9107 37.3814C31.7777 37.3814 32.4955 37.0167 32.8342 36.4043C33.1772 35.786 33.0792 35.0313 32.5701 34.3117C32.6319 34.1303 32.683 33.9411 32.7256 33.7441C33.5287 29.9528 33.5116 25.8807 33.4946 21.9431C33.4903 20.9095 33.4861 19.8408 33.4946 18.8032C33.452 16.5253 32.3017 15.5093 31.1834 15.5093H31.1599C31.079 15.5034 30.9959 15.4995 30.9086 15.4995C30.2866 15.4995 29.3045 15.6848 28.1564 16.5643C24.6629 18.9319 20.3195 21.8788 16.4873 25.0011C16.1273 25.3112 15.8717 25.6018 15.7141 25.871C15.5777 26.0309 15.5138 26.2259 15.5245 26.4404C15.5138 26.655 15.5777 26.85 15.7141 27.0099C15.8717 27.279 16.1273 27.5677 16.4788 27.8719C20.3216 31.004 24.665 33.9489 28.1564 36.3165C29.3067 37.198 30.2866 37.3833 30.9086 37.3833L30.9107 37.3814ZM28.8998 21.2801C29.0063 24.5838 29.1576 28.3088 29.5176 31.9967C29.2406 31.8192 28.9616 31.6398 28.6825 31.4604C25.892 29.6661 23.0141 27.8134 19.9765 26.4404C23.0141 25.0655 25.8941 23.2147 28.6847 21.4185L28.8977 21.282L28.8998 21.2801Z" fill="white"/>
</svg>
