<svg width="27" height="381" viewBox="0 0 27 381" fill="none" xmlns="http://www.w3.org/2000/svg">
<path opacity="0.5" d="M24.1971 146.611C26.0439 146.617 26.8486 144.973 26.1669 143.392C25.37 140.599 24.8788 137.755 24.4539 134.908C23.4178 129.193 22.9621 123.428 22.0979 117.702C22.1518 117.537 22.0635 117.336 21.8844 117.26C20.5606 116.722 20.5638 120.547 20.4347 121.377C20.3065 125.366 20.5702 129.388 21.0421 133.399C14.3006 118.341 8.53067 102.79 6.55567 86.6739C3.17291 58.7337 9.40913 25.7547 20.5579 0.663891C20.7686 0.563489 20.8607 0.227032 20.569 0.0735124C19.7392 -0.280323 18.9153 0.731311 18.4283 1.23349C6.90973 16.6275 2.32234 42.0891 0.600623 61.2214C-0.931798 77.3247 0.372979 93.9214 5.61611 109.727C8.76443 118.875 12.7128 127.796 17.0198 136.557C13.512 133.692 9.92449 130.917 6.1682 128.362C3.7667 126.871 1.4379 130.012 3.60809 131.796C5.37551 133.145 7.11638 134.53 8.79148 135.985C11.9584 138.66 20.3501 146.583 24.2034 146.607L24.1971 146.611Z" fill="white"/>
<path opacity="0.5" d="M24.1971 380.611C26.0439 380.617 26.8486 378.973 26.1669 377.392C25.37 374.599 24.8788 371.755 24.4539 368.908C23.4178 363.193 22.9621 357.428 22.0979 351.702C22.1518 351.537 22.0635 351.336 21.8844 351.26C20.5606 350.722 20.5638 354.547 20.4347 355.377C20.3065 359.366 20.5702 363.388 21.0421 367.399C14.3006 352.341 8.53067 336.79 6.55567 320.674C3.17291 292.734 9.40913 259.755 20.5579 234.664C20.7686 234.563 20.8607 234.227 20.569 234.074C19.7392 233.72 18.9153 234.731 18.4283 235.233C6.90973 250.627 2.32234 276.089 0.600623 295.221C-0.931798 311.325 0.372979 327.921 5.61611 343.727C8.76443 352.875 12.7128 361.796 17.0198 370.557C13.512 367.692 9.92449 364.917 6.1682 362.362C3.7667 360.871 1.4379 364.012 3.60809 365.796C5.37551 367.145 7.11638 368.53 8.79148 369.985C11.9584 372.66 20.3501 380.583 24.2034 380.607L24.1971 380.611Z" fill="white"/>
</svg>
