<svg width="47" height="46" viewBox="0 0 47 46" fill="none" xmlns="http://www.w3.org/2000/svg">
<path d="M0.296622 28.7976L0.297575 28.805L0.299486 28.8124C1.07025 33.5722 3.11497 37.4195 6.20879 40.218C9.28356 42.9985 13.3083 44.667 17.9372 45.2407C26.9872 47.0225 35.8239 45.1478 41.4953 37.2196C45.6279 31.7745 47.8186 23.663 45.0145 16.9433C44.2447 12.3251 41.6588 8.13862 37.676 5.16645C31.5398 -0.111432 23.8371 -1.60103 16.3277 1.89192C16.0761 2.00007 15.8188 2.10952 15.5568 2.22073C13.5968 3.05408 11.4043 3.98623 9.51195 5.20803C7.39472 6.57503 5.49281 8.40105 4.61044 11.0519C2.45127 13.1991 1.18489 16.2167 0.543576 19.2996C-0.118703 22.4849 -0.143539 25.8827 0.296622 28.7976Z" fill="#7F0019"/>
</svg>
