<svg width="47" height="46" viewBox="0 0 47 46" fill="none" xmlns="http://www.w3.org/2000/svg">
<path d="M0.296622 28.7976L0.297575 28.805L0.299486 28.8124C1.07025 33.5722 3.11497 37.4195 6.20879 40.218C9.28356 42.9985 13.3083 44.667 17.9372 45.2407C26.9872 47.0225 35.8239 45.1478 41.4953 37.2196C45.6279 31.7745 47.8186 23.663 45.0145 16.9433C44.2447 12.3251 41.6588 8.13862 37.676 5.16645C31.5398 -0.111432 23.8371 -1.60103 16.3277 1.89192C16.0761 2.00007 15.8188 2.10952 15.5568 2.22073C13.5968 3.05408 11.4043 3.98623 9.51195 5.20803C7.39472 6.57503 5.49281 8.40105 4.61044 11.0519C2.45127 13.1991 1.18489 16.2167 0.543576 19.2996C-0.118703 22.4849 -0.143539 25.8827 0.296622 28.7976Z" fill="#7F0019"/>
<path d="M11.8661 25.4364C15.1439 25.4906 19.4374 24.6388 27.6289 24.5393C24.638 26.0428 21.7546 27.2575 19.5297 29.7793C18.7894 30.516 17.906 32.0289 18.6607 32.7612C18.3977 32.4375 18.6607 33.5904 20.4825 33.114C20.9866 33.114 21.0351 33.1361 21.3991 32.7612C21.7555 32.4189 22.1128 32.0788 22.4797 31.7473C24.5607 29.9859 26.8618 28.4801 29.283 27.2322C30.0701 26.8401 30.8657 26.4718 31.668 26.1165C33.0325 25.4449 35.8939 25.3155 36.2045 23.5865C36.4065 22.161 34.3198 20.971 33.063 20.7997C32.3236 20.6286 31.6014 20.4228 30.883 20.1779C28.1817 19.1791 25.4985 18.1044 22.9135 16.8239C20.6753 15.7709 20.3647 14.0897 18.1008 13.106C17.7377 13.0519 16.1951 12.6294 15.7996 13.9639C15.8406 15.1013 16.5676 16.0785 17.2708 16.9214C19.9577 20.143 23.81 20.5998 25.7233 21.6809L12.0196 21.6276C10.9029 21.5539 9.96905 22.4617 10.0014 23.5861C10.0319 24.6044 10.8532 25.4191 11.8661 25.4364Z" fill="white"/>
</svg>
