<svg width="15" height="35" viewBox="0 0 15 35" fill="none" xmlns="http://www.w3.org/2000/svg">
<path d="M14.7285 3.70458C14.419 2.55203 13.2301 1.86744 12.0777 2.17696C10.2644 2.66492 6.29018 1.81281 4.24205 0.989825C3.43372 0.663912 2.51798 0.85145 1.90627 1.46504C1.29274 2.07864 1.1034 2.99448 1.42746 3.79925C4.57885 11.6685 6.62881 18.8515 7.65378 25.6338C6.73258 25.3133 5.68939 25.2241 4.62801 25.4334C3.12787 25.7266 1.80432 26.586 0.999629 27.7823C0.304175 28.8164 0.0492971 30.0254 0.276867 31.1852C0.504437 32.345 1.19989 33.3665 2.23579 34.062C3.4319 34.8668 4.9812 35.1581 6.48315 34.8631C7.98512 34.5682 9.30685 33.7106 10.1115 32.5144C10.33 32.1867 10.4993 31.8443 10.6304 31.4893C11.6808 31.3254 12.4582 30.4333 12.4582 29.3572L12.4492 29.1497C11.7664 21.9576 9.97862 14.4616 6.98381 6.23178C8.74065 6.57773 11.2439 6.87815 13.201 6.35013C13.7581 6.20083 14.226 5.84214 14.5136 5.34326C14.8031 4.84255 14.8795 4.2599 14.7303 3.70276L14.7285 3.70458Z" fill="#836F75"/>
</svg>
