<svg width="36" height="51" viewBox="0 0 36 51" fill="none" xmlns="http://www.w3.org/2000/svg">
<path d="M33.2782 12.0819C26.4966 9.39082 21.9616 5.17758 17.1625 0.716772C16.3669 -0.0206655 15.22 -0.208145 14.2369 0.243333C13.252 0.694908 12.6421 1.68174 12.684 2.75786C13.0718 13.0396 12.491 22.1033 10.9216 30.2985C9.95676 29.523 8.7643 28.9967 7.48265 28.8056C5.62199 28.5251 3.73589 28.9694 2.30673 30.0254C1.07426 30.934 0.276853 32.2285 0.0583825 33.667C-0.156441 35.1054 0.225877 36.5784 1.13434 37.811C2.19027 39.2385 3.86154 40.2181 5.72394 40.4966C7.58644 40.777 9.47254 40.3327 10.8999 39.2786C11.1802 39.071 11.4351 38.8416 11.6681 38.5958C11.6845 38.6012 11.7009 38.6049 11.7172 38.6103C12.4054 38.7869 13.1209 38.6813 13.7308 38.319C14.3425 37.9566 14.774 37.3758 14.9487 36.6876C16.3906 31.0178 17.3264 24.9911 17.7816 18.4418C21.1951 21.4096 24.9636 24.2263 29.7626 26.3748C29.3603 31.5567 28.5082 37.1155 27.3249 40.7897C26.2671 39.5863 24.7452 38.7651 23.0703 38.5157C21.206 38.2352 19.3199 38.6796 17.8926 39.7337C16.6601 40.6441 15.8627 41.9368 15.646 43.3771C15.1618 46.5998 17.7051 49.6641 21.3134 50.2067C23.722 50.569 26.0069 49.7133 27.4032 48.1474C28.4172 48.3877 29.5242 48.0182 30.1723 47.1241C34.6363 40.9719 36.131 20.6795 34.9112 14.0757C34.7419 13.1707 34.132 12.426 33.2764 12.0856L33.2782 12.0819ZM18.0765 11.5357C18.0947 10.6125 18.1038 9.68578 18.1056 8.74268C22.2073 12.2658 25.8339 14.6365 29.8664 16.419C29.9811 17.5897 30.0303 19.0117 30.0212 20.583C25.3533 18.1414 21.7468 14.9368 18.0765 11.5339V11.5357Z" fill="#836F75"/>
</svg>
