<svg width="60" height="60" viewBox="0 0 60 60" fill="none" xmlns="http://www.w3.org/2000/svg">
<g clip-path="url(#clip0_20_15)">
<path d="M57.0198 23.7427L57.0185 23.7342L57.017 23.7255C55.2058 12.5414 46.5946 4.74295 35.6246 3.37943C24.9093 1.27375 14.8776 4.68756 8.34771 13.8198C3.52797 20.17 0.973639 29.6295 4.24427 37.4657C5.14179 42.8514 8.15782 47.7336 12.8016 51.1996C19.9578 57.3545 28.9398 59.0915 37.6961 55.0176C43.0916 52.6939 48.1566 47.9708 50.0561 42.0939C54.838 37.4472 58.0813 30.7602 57.0198 23.7427Z" fill="#800019"/>
<path d="M31.6513 44.3887C31.5144 44.3887 31.3776 44.3698 31.2471 44.3352C30.9827 44.288 30.7246 44.2031 30.4791 44.0804C30.0188 43.8603 29.4032 43.4074 29.0798 42.8067C28.5823 41.8821 28.1502 40.9417 27.7335 40.0297L27.6744 39.9007C27.1085 38.7056 25.4543 35.2114 25.0625 32.774C24.9288 32.7426 24.8045 32.7017 24.6894 32.6546C23.881 32.3086 23.1036 31.9186 22.3512 31.5443L22.2331 31.4846C16.3346 28.6194 15.5448 27.2577 15.5573 26.3959C15.4888 25.0247 17.4322 23.7792 21.8444 22.3577C25.1558 21.2915 28.9462 20.4392 30.3702 20.1183L30.6065 20.0618C32.239 19.6781 33.9273 19.2849 35.6498 18.9641C35.9266 18.9138 36.2282 18.8887 36.5485 18.8887C37.1828 18.8887 37.8762 18.9925 38.4514 19.1749C39.6267 19.5271 40.3978 20.2033 40.5751 21.0336C40.6871 21.2758 40.7772 21.5211 40.8456 21.7852C41.1037 22.7099 41.1255 23.8107 40.9016 24.6503C40.4383 26.3676 39.8942 28.0439 39.3686 29.6636L39.291 29.9026C36.8718 37.5891 34.857 42.1022 33.1375 43.6937C32.8764 44.0301 32.4877 44.2566 32.04 44.3383C31.9093 44.3698 31.7787 44.3856 31.6513 44.3856V44.3887ZM28.1346 31.7361C28.2527 31.9532 28.3646 32.1639 28.4611 32.3526C28.5823 32.5822 28.6943 32.7992 28.7565 32.8936L28.7751 32.9187L28.7906 32.947C29.2104 33.7553 29.6426 34.5636 30.0717 35.3718C30.535 36.2399 31.0076 37.1268 31.4678 38.0168C31.4865 37.9382 31.5021 37.8721 31.5144 37.8156L31.5206 37.7903L31.5268 37.7652C31.9497 36.2619 32.3633 34.746 32.7768 33.2332C33.3023 31.3148 33.8372 29.3459 34.3968 27.3991C32.7582 28.7169 30.1556 30.7172 28.1377 31.7361H28.1346ZM21.3313 27.2513C22.9108 27.937 24.5402 28.6446 26.098 29.4088C26.412 29.1163 26.7354 28.8301 27.009 28.5911C27.2577 28.3741 27.4723 28.1854 27.575 28.0817L27.5935 28.0628L27.6122 28.047C28.4331 27.33 29.2508 26.6034 30.0686 25.877C30.3577 25.6191 30.647 25.3611 30.9392 25.1065C29.4903 25.3895 28.0382 25.6631 26.6172 25.9304C25.103 26.2167 23.5887 26.5028 22.0837 26.7953L22.0403 26.8016C21.8226 26.8268 21.4184 26.9053 20.9551 26.9966C20.9084 27.006 20.8618 27.0154 20.8152 27.0249C20.9893 27.1003 21.1634 27.1759 21.3375 27.2513H21.3313Z" fill="white"/>
</g>
<defs>
<clipPath id="clip0_20_15">
<rect width="60" height="60" fill="white"/>
</clipPath>
</defs>
</svg>
