<svg width="467" height="10" viewBox="0 0 467 10" fill="none" xmlns="http://www.w3.org/2000/svg">
<path d="M0.155312 8.54115C0.155312 8.54115 0.155312 8.54115 0.145614 8.54115C0.533525 8.25629 1.61968 8.13248 2.35671 7.94977C5.99338 7.29958 10.0859 6.94044 14.091 6.58439C19.7352 6.10758 25.4568 5.71129 31.2077 5.3862C54.0848 4.13534 77.2432 3.44799 100.372 2.85973C147.892 1.8349 195.527 1.66152 243.114 1.16923C278.006 0.741964 312.91 0.339463 347.822 0.460212C384.131 0.670749 420.43 1.13208 456.699 1.56864C469.006 1.68009 469.239 7.43272 456.699 7.58134C445.468 7.59372 434.249 7.46058 423.028 7.35534C399.686 7.10763 376.353 6.77324 353 6.64629C294.579 6.42958 236.229 7.56896 177.838 7.85691C123.667 8.03958 69.6595 9.67743 15.5166 9.96229C12.4327 9.86939 -1.52241 10.2286 0.155312 8.54734V8.54115Z" fill="#800019"/>
</svg>
