<svg width="327" height="60" viewBox="0 0 327 60" fill="none" xmlns="http://www.w3.org/2000/svg">
<path d="M6.29346 4.61271C12.3243 2.16181 19.3073 2.61178 26.1745 2.49776C34.7328 2.35397 43.2911 2.23131 51.8496 2.12835C69.3776 1.9186 86.9063 1.79052 104.433 1.74694C138.188 1.66187 172.212 1.36538 206.111 0.88656C239.499 0.688189 272.915 -0.841098 306.281 0.637842C310.131 0.807893 314.067 1.03094 317.57 2.03671C325.915 4.43036 326.999 11.1425 326.916 16.228C326.901 17.1631 326.844 18.0619 326.78 18.8917C326.076 27.8028 325.374 36.7153 324.67 45.6264C323.975 54.4501 315.504 57.7913 301.989 57.8928C284.786 58.0203 267.583 58.1479 250.38 58.2754C209.424 58.5807 168.465 58.8846 127.506 59.1899C107.029 59.3412 86.5499 59.4938 66.0701 59.6465C48.1869 59.7795 29.7997 60.4942 11.9942 59.4073C-1.511 58.5849 1.23469 46.4636 0.750315 40.4253C0.197576 33.5031 -0.0273362 26.569 0.0779041 19.6358C0.151517 14.846 -1.37534 7.65778 6.29346 4.61271Z" fill="white"/>
</svg>
