<svg width="37" height="47" viewBox="0 0 37 47" fill="none" xmlns="http://www.w3.org/2000/svg">
<path d="M36.3175 24.3775C36.1355 23.5418 35.8736 22.6848 35.5323 21.832C34.9413 20.3404 34.1265 18.8724 33.1521 17.5347C32.7622 16.9974 32.0544 16.7888 31.4279 17.0123C30.4684 17.3522 30.1221 18.5118 30.7158 19.3374C31.3094 20.1688 31.8168 21.1008 32.2148 22.1085C32.684 23.2906 32.9779 24.5211 33.0722 25.7013C33.3147 27.8964 33.144 29.8379 32.5875 31.3214C32.0693 32.7107 31.2988 33.9684 30.1575 35.2865C28.3878 37.3751 26.5792 38.8635 24.6283 39.8358C22.4661 40.9083 20.5653 41.4999 18.6493 41.7007C16.308 41.943 12.8024 42.0129 9.45074 39.8271C7.81015 38.7194 6.3125 36.6824 5.3415 34.2365C4.97041 33.3049 4.69278 32.3575 4.5177 31.4338C4.07625 28.8994 4.24837 26.544 5.0183 24.4389C5.46349 23.2578 6.07878 22.2239 6.88888 21.2857C8.29217 24.1037 9.80596 26.9085 10.6127 28.2292C11.4018 29.5305 12.1826 30.8346 12.9887 32.1242C13.9344 33.6069 14.8924 35.4719 16.7759 35.8442C17.2656 35.9263 17.7198 35.9155 18.147 35.8202C21.5472 35.0775 22.959 29.2145 24.109 26.4281C26.2497 20.0222 28.7731 13.7457 31.8777 7.73959C32.4431 6.61869 33.0516 5.51971 33.6028 4.39056C34.2775 3.01551 33.6372 1.2979 32.2658 0.650263C31.0429 0.0481914 29.398 0.493655 28.6915 1.67088C27.7432 3.31147 26.9154 5.0293 26.076 6.72751C25.3599 8.17414 24.6696 9.6345 24.0052 11.1057C23.0063 10.8172 22.0791 10.7342 21.1979 10.6788C16.8271 10.4692 13.1692 11.9136 10.1644 13.355L10.1306 13.3698L10.0997 13.3873C9.43607 13.7646 8.74182 14.1707 8.04539 14.6194C7.80103 14.2836 7.56848 13.9758 7.35676 13.716C6.42506 12.7149 5.64058 11.3626 4.33091 10.8357C2.72281 10.7818 3.67297 13.5029 3.87036 14.4063C4.06065 15.0633 4.42594 15.9894 4.89603 17.061C4.46315 17.4766 4.04772 17.9204 3.65567 18.4005C2.38277 19.993 -1.48141 25.9133 2.19446 35.1703C2.31317 35.4658 2.43765 35.7669 2.57358 36.0734C4.1952 39.6897 6.89543 42.7911 9.61094 44.1548C13.8546 46.3563 17.5916 46.2057 20.7217 45.7654C21.2822 45.6677 21.8452 45.5473 22.3908 45.4073C26.3259 44.3974 29.6921 42.3403 32.3795 39.306C33.8872 37.6556 35.396 35.7473 36.2198 32.9894C36.9534 30.5873 36.987 27.6108 36.3147 24.3747L36.3175 24.3775ZM14.5985 16.2219C15.9637 15.6964 17.3477 15.2753 18.6968 14.9683C19.9333 14.7113 21.2653 14.566 22.5663 14.4299C21.7622 16.3599 21.0065 18.3089 20.3139 20.2822C19.2768 23.1912 18.3654 26.1491 17.1768 28.9984C15.7156 26.7737 12.9455 22.0978 10.5229 18.3085C11.8513 17.4576 13.2163 16.7563 14.6013 16.2219L14.5985 16.2219Z" fill="white"/>
</svg>
