<svg width="49" height="49" viewBox="0 0 49 49" fill="none" xmlns="http://www.w3.org/2000/svg">
<g clip-path="url(#clip0_21_25)">
<path d="M42.4042 12.2541C41.8823 11.0998 40.9806 10.3526 40.5861 10.7443C37.4631 13.8441 35.3373 15.0956 31.8916 18.2659C29.542 20.4765 28.4702 20.9702 26.9151 22.0806C25.5958 23.0227 23.8639 23.0978 22.468 22.2737C20.8224 21.3004 19.7119 20.903 17.1797 18.9042C13.4724 16.0443 11.2461 14.9801 7.86645 12.164C7.43945 11.808 6.60595 12.6305 6.18588 13.8257C5.89881 14.6438 5.90228 15.3831 6.19268 15.6305C8.10279 17.2444 8.70264 17.4461 10.9798 19.0215C14.3164 21.3955 14.1564 21.3718 17.631 23.4442C19.3458 24.403 21.09 25.3074 22.9692 25.8798C23.3667 25.995 23.7755 26.0773 24.1956 26.1301C24.4349 26.1891 24.6545 26.1941 24.865 26.1769C25.0763 26.1758 25.2946 26.1518 25.5279 26.0723C25.942 25.9833 26.3435 25.8642 26.7281 25.7167C28.5492 24.9854 30.2084 23.9334 31.8354 22.8279C35.1173 20.4622 34.9617 20.5013 38.0785 17.8458C40.2105 16.0789 40.7907 15.8261 42.5538 14.0528C42.8233 13.7827 42.7628 13.0459 42.4042 12.2541Z" fill="white"/>
<path d="M12.3272 9.32602C12.0505 9.35498 11.7718 9.37906 11.4946 9.40139C9.62942 9.56084 7.30893 9.75815 5.12467 11.3137C1.70657 13.7216 1.99797 18.6553 2.08863 19.9784C2.11783 20.4044 2.15888 20.8098 2.19486 21.1654C2.22397 21.4449 2.25029 21.7079 2.26506 21.9235C2.46389 24.7766 2.75956 27.663 3.14166 30.5035C3.17913 30.7841 3.21062 31.195 3.24391 31.6325C3.35709 33.1389 3.49868 35.0113 4.20456 36.767C5.35822 39.6346 7.72646 41.2962 10.7044 41.3254L10.8555 41.3267L33.0122 39.8435L37.7101 39.6265L37.7993 39.6204C40.5917 39.3625 42.7279 38.5582 44.334 37.1588C45.6818 35.9837 47.2679 33.8096 47.17 30.1284L46.8829 19.356C46.8742 19.0351 46.8596 18.6047 46.8272 18.1306L46.8263 18.1189C46.7041 16.335 46.3805 14.8563 45.8397 13.5975C44.6356 10.7916 42.6056 9.61315 41.1169 9.11887C39.5688 8.60365 38.0858 8.58033 36.6989 8.60207L36.5962 8.60411L12.4012 9.31595L12.3271 9.32436L12.3272 9.32602ZM36.7616 12.5921C37.8123 12.5768 38.8874 12.5798 39.8703 12.9072C42.2128 13.6845 42.7224 16.353 42.8639 18.3938C42.8897 18.7684 42.9028 19.1307 42.9125 19.4648C43.0075 23.0546 43.7374 26.5967 43.8324 30.1865C43.9265 33.7396 41.7352 35.2641 38.0706 35.6001L33.4207 35.8154L10.6339 37.2739C6.94226 37.2387 7.29675 32.3172 6.97225 29.9058C6.60033 27.1413 6.42129 24.4288 6.22734 21.647C6.09389 19.724 5.44746 16.8749 7.43084 15.4864C8.98842 14.3719 10.8981 14.401 12.7592 14.2052L36.7616 12.5921Z" fill="white"/>
</g>
<defs>
<clipPath id="clip0_21_25">
<rect width="47.4973" height="47.4973" fill="white" transform="translate(0 0.884766) rotate(-0.999999)"/>
</clipPath>
</defs>
</svg>
