<svg width="30" height="358" viewBox="0 0 30 358" fill="none" xmlns="http://www.w3.org/2000/svg">
<g opacity="0.5" clip-path="url(#clip0_92_9)">
<path d="M27.674 126.472C29.0929 126.096 29.534 124.501 28.8403 123.27C27.9277 121.009 27.2446 118.642 26.612 116.259C25.2013 111.512 24.231 106.601 22.9512 101.809C22.9749 101.655 22.8854 101.499 22.7399 101.47C21.6653 101.276 22.0793 104.596 22.0694 105.343C22.4003 108.833 23.0355 112.27 23.8295 115.654C17.032 103.975 10.9277 91.6672 7.67692 78.0853C2.07269 54.5291 3.3132 24.6118 9.17509 0.526811C9.32608 0.396114 9.36061 0.0850126 9.12011 0.0120017C8.4447 -0.123686 7.92085 0.924749 7.60095 1.46131C0.411671 17.2049 -0.371496 40.256 0.365009 57.2201C0.92094 71.5161 3.70878 85.6545 9.43596 98.2919C12.8381 105.583 16.83 112.511 21.0804 119.227C18.0783 117.464 15.0246 115.796 11.865 114.355C9.86047 113.557 8.40994 116.764 10.2685 117.865C11.771 118.671 13.2568 119.513 14.6998 120.43C17.4197 122.097 24.7167 127.242 27.6784 126.467L27.674 126.472Z" fill="white"/>
</g>
<path opacity="0.5" d="M27.674 357.472C29.0929 357.096 29.534 355.501 28.8403 354.27C27.9277 352.009 27.2446 349.642 26.612 347.259C25.2013 342.512 24.231 337.601 22.9512 332.809C22.9749 332.655 22.8854 332.499 22.7399 332.47C21.6653 332.276 22.0793 335.596 22.0694 336.343C22.4003 339.833 23.0355 343.27 23.8295 346.654C17.032 334.975 10.9277 322.667 7.67692 309.085C2.07269 285.529 3.3132 255.612 9.17509 231.527C9.32608 231.396 9.36061 231.085 9.12011 231.012C8.4447 230.876 7.92085 231.925 7.60095 232.461C0.411671 248.205 -0.371496 271.256 0.365009 288.22C0.92094 302.516 3.70878 316.654 9.43596 329.292C12.8381 336.583 16.83 343.511 21.0804 350.227C18.0783 348.464 15.0246 346.796 11.865 345.355C9.86047 344.557 8.40994 347.764 10.2685 348.865C11.771 349.671 13.2568 350.513 14.6998 351.43C17.4197 353.097 24.7167 358.242 27.6784 357.467L27.674 357.472Z" fill="white"/>
<defs>
<clipPath id="clip0_92_9">
<rect width="29.163" height="127" fill="white" transform="matrix(-1 0 0 1 29.163 0)"/>
</clipPath>
</defs>
</svg>
