<svg width="55" height="143" viewBox="0 0 55 143" fill="none" xmlns="http://www.w3.org/2000/svg">
<g opacity="0.5">
<path d="M27.2218 103.223C29.2635 103.294 30.9917 101.953 32.8 101.187C35.9193 99.6163 39.127 98.1939 42.0791 96.3233C45.0835 94.6327 48.0392 91.0599 46.3788 87.48C44.7109 83.8212 40.0077 85.0029 37.3393 86.7814C38.4043 83.9364 38.7617 80.4132 37.0146 77.7614C35.8293 76.0859 33.4311 75.4035 31.6342 76.4863C27.8878 78.6884 27.4571 83.5362 26.3679 87.351C25.7796 89.7425 25.1492 92.1218 24.6225 94.5294C24.1453 96.7219 23.4896 100.225 24.9468 102.059C25.4367 102.675 26.1669 103.104 27.223 103.229L27.2218 103.223ZM31.9326 96.0487C31.0576 96.4705 30.181 96.8903 29.3064 97.3086C28.935 97.4865 28.563 97.6715 28.1877 97.8525C27.8691 95.2181 28.3458 92.5638 28.7545 89.9667C29.2599 87.2342 29.8445 84.4909 30.9773 81.9435C31.696 80.1777 33.9248 77.8499 34.0644 81.3167C34.2356 83.5084 33.7382 85.6713 33.0773 87.7427C32.6261 88.6938 32.6868 89.9216 33.751 90.4238C33.5382 90.8501 33.2147 91.5986 33.807 91.8703C34.2154 92.0373 34.7279 91.7962 35.1051 91.6462C35.6187 91.4431 36.1141 91.1928 36.6161 90.9631C38.4546 90.2022 40.3348 89.1834 42.3777 89.2432C42.9135 91.4445 33.8216 94.9839 31.9326 96.0487Z" fill="white"/>
<path d="M13.0136 81.0488C14.2968 80.8159 15.1588 79.757 15.8825 78.7572C16.89 77.4058 17.9269 76.0764 18.9885 74.7661C23.7156 69.2065 28.696 63.7823 32.3547 57.4265C34.3968 54.0614 35.7373 48.2048 31.1372 46.3256C28.878 45.4568 26.4813 46.7735 24.6844 48.091C21.4191 50.545 18.9334 54.0472 17.8539 57.9894C18.1702 51.4202 19.079 42.9897 14.8433 37.4666C13.8525 36.2598 12.448 35.2018 10.8098 35.2457C8.38391 35.2686 6.87851 37.3544 6.33403 39.5135C5.15233 43.0687 4.88913 46.8247 5.0002 50.5494C5.14071 57.9005 5.92623 65.2649 7.62595 72.4256C8.07064 74.3135 8.58218 76.192 9.27318 78.0063C9.8114 79.6193 11.0945 81.3857 13.0136 81.0488ZM21.6215 64.7012C18.4796 68.258 15.2585 71.7674 12.5721 75.6914C10.8851 71.0625 10.1283 66.1694 9.59015 61.293C9.08784 55.6832 8.41042 50.0058 8.99371 44.3791C9.25714 43.1999 9.8094 39.0419 10.9752 38.7113C13.1324 39.0431 14.1668 42.5338 14.6757 44.3665C15.4121 47.6993 15.6645 51.1159 15.7795 54.5204C15.8708 56.6262 15.9468 58.7313 15.8924 60.8398C15.8785 61.5436 16.7973 61.9835 17.3492 61.5825C17.3969 61.9845 17.8365 62.3636 18.2248 62.1143C18.5523 61.8542 18.7216 61.4485 18.9489 61.1042C19.7112 59.8062 20.4288 58.4829 21.2232 57.2044C22.8256 54.7778 24.7454 52.528 27.0568 50.7439C27.8724 50.1812 28.753 49.594 29.7514 49.4402C31.2611 49.5117 31.1923 51.3116 30.8352 52.3791C30.114 54.5975 28.5916 56.4256 27.167 58.2332C25.3629 60.4203 23.497 62.5662 21.6267 64.699L21.6215 64.7012Z" fill="white"/>
</g>
</svg>
