<svg width="13" height="15" viewBox="0 0 13 15" fill="none" xmlns="http://www.w3.org/2000/svg">
<path d="M9.87532 8.68978C9.32681 9.54111 8.80122 10.4045 8.22331 11.2377C7.6963 11.9959 6.81155 13.1728 5.62281 13.1706C5.22329 13.1699 4.78799 13.0354 4.32195 12.7067C3.4767 12.0257 3.21979 11.0677 2.74322 10.2401C2.00429 8.74307 1.17692 7.25787 0.603403 5.73557C-0.0504013 4.2462 -0.0696136 2.26191 1.77483 1.85941C3.64714 1.43892 5.15155 3.3733 5.64342 4.77219C6.14987 3.63368 7.16052 2.55471 8.73426 2.43432C9.76096 2.38658 10.9518 3.02461 11.3201 3.93474C12.1058 5.8182 10.6885 7.28125 9.8753 8.69129L9.87532 8.68978Z" fill="white"/>
</svg>
