<svg width="27" height="21" viewBox="0 0 27 21" fill="none" xmlns="http://www.w3.org/2000/svg">
<path d="M1.86568 12.4364C5.14344 12.4906 9.43696 11.6388 17.6285 11.5393C14.6375 13.0428 11.7542 14.2575 9.52929 16.7793C8.78893 17.516 7.90561 19.0289 8.66025 19.7612C8.39727 19.4375 8.66024 20.5904 10.4821 20.114C10.9861 20.114 11.0347 20.1361 11.3987 19.7612C11.7551 19.4189 12.1124 19.0788 12.4792 18.7473C14.5603 16.9859 16.8614 15.4801 19.2826 14.2322C20.0696 13.8401 20.8653 13.4718 21.6676 13.1165C23.0321 12.4449 25.8934 12.3155 26.2041 10.5865C26.4061 9.16101 24.3194 7.97095 23.0626 7.79972C22.3232 7.62859 21.601 7.42278 20.8825 7.1779C18.1813 6.17906 15.4981 5.10437 12.913 3.82389C10.6748 2.77094 10.3643 1.08967 8.10033 0.105981C7.7373 0.0518572 6.19465 -0.370629 5.7992 0.963917C5.84015 2.10134 6.56715 3.07852 7.27033 3.92136C9.95729 7.14303 13.8096 7.59976 15.7229 8.68091L2.01915 8.6276C0.902425 8.55393 -0.031377 9.46172 0.000999881 10.5861C0.031473 11.6044 0.852807 12.4191 1.86568 12.4364Z" fill="white"/>
</svg>
