<svg width="385" height="139" viewBox="0 0 385 139" fill="none" xmlns="http://www.w3.org/2000/svg">
<circle cx="35" cy="70" r="35" fill="#E2012D"/>
<path d="M2.94469 129.416V128.328H4.48069L4.81669 125.672H3.29669V124.584H4.94469L5.34469 121.384H6.36869L5.98469 124.584H8.19269L8.60869 121.384H9.61669L9.23269 124.584H10.6407V125.672H9.10469L8.76869 128.328H10.2887V129.416H8.64069L8.20869 133H7.16869L7.60069 129.416H5.39269L4.94469 133H3.92069L4.35269 129.416H2.94469ZM8.06469 125.672H5.84069L5.52069 128.328H7.72869L8.06469 125.672ZM19.5477 121.272V122.52H14.2677V126.2H18.7157V127.464H14.2677V131.736H19.7237V133H12.7797V121.272H19.5477ZM29.3059 133H21.4339V131.976L25.4819 128.088C25.7913 127.757 26.0739 127.448 26.3299 127.16C26.5966 126.861 26.8206 126.563 27.0019 126.264C27.1939 125.965 27.3433 125.667 27.4499 125.368C27.5566 125.059 27.6099 124.733 27.6099 124.392C27.5886 123.688 27.3753 123.171 26.9699 122.84C26.5646 122.499 26.0579 122.328 25.4499 122.328C25.1193 122.328 24.8099 122.387 24.5219 122.504C24.2339 122.611 23.9833 122.771 23.7699 122.984C23.5673 123.187 23.4073 123.427 23.2899 123.704C23.1726 123.981 23.1139 124.291 23.1139 124.632L21.6739 124.392C21.7486 123.848 21.8979 123.373 22.1219 122.968C22.3459 122.552 22.6233 122.205 22.9539 121.928C23.2953 121.64 23.6846 121.427 24.1219 121.288C24.5593 121.139 25.0286 121.064 25.5299 121.064C26.0313 121.064 26.4953 121.139 26.9219 121.288C27.3593 121.437 27.7379 121.656 28.0579 121.944C28.3779 122.221 28.6286 122.563 28.8099 122.968C28.9913 123.373 29.0819 123.837 29.0819 124.36C29.0819 124.797 29.0179 125.203 28.8899 125.576C28.7619 125.949 28.5859 126.312 28.3619 126.664C28.1379 127.005 27.8766 127.341 27.5779 127.672C27.2793 127.992 26.9646 128.317 26.6339 128.648L23.3539 131.896C23.5779 131.832 23.8019 131.784 24.0259 131.752C24.2606 131.72 24.4793 131.704 24.6819 131.704H29.3059V133ZM39.2212 127.16C39.2212 128.195 39.1092 129.096 38.8852 129.864C38.6612 130.621 38.3572 131.251 37.9732 131.752C37.5892 132.253 37.1359 132.627 36.6132 132.872C36.0905 133.107 35.5252 133.224 34.9172 133.224C34.3092 133.224 33.7439 133.107 33.2212 132.872C32.6985 132.627 32.2399 132.253 31.8452 131.752C31.4612 131.251 31.1572 130.621 30.9332 129.864C30.7199 129.096 30.6132 128.195 30.6132 127.16C30.6132 126.115 30.7199 125.213 30.9332 124.456C31.1572 123.688 31.4612 123.053 31.8452 122.552C32.2399 122.051 32.6985 121.683 33.2212 121.448C33.7439 121.203 34.3092 121.08 34.9172 121.08C35.5252 121.08 36.0905 121.203 36.6132 121.448C37.1359 121.683 37.5892 122.051 37.9732 122.552C38.3572 123.053 38.6612 123.688 38.8852 124.456C39.1092 125.213 39.2212 126.115 39.2212 127.16ZM37.7492 127.16C37.7492 126.243 37.6692 125.475 37.5092 124.856C37.3599 124.227 37.1519 123.725 36.8852 123.352C36.6292 122.968 36.3305 122.696 35.9892 122.536C35.6479 122.365 35.2905 122.28 34.9172 122.28C34.5439 122.28 34.1865 122.365 33.8452 122.536C33.5039 122.696 33.2052 122.968 32.9492 123.352C32.6932 123.725 32.4852 124.227 32.3252 124.856C32.1759 125.475 32.1012 126.243 32.1012 127.16C32.1012 128.067 32.1759 128.835 32.3252 129.464C32.4852 130.083 32.6932 130.584 32.9492 130.968C33.2052 131.352 33.5039 131.629 33.8452 131.8C34.1865 131.96 34.5439 132.04 34.9172 132.04C35.2905 132.04 35.6479 131.96 35.9892 131.8C36.3305 131.629 36.6292 131.352 36.8852 130.968C37.1519 130.584 37.3599 130.083 37.5092 129.464C37.6692 128.835 37.7492 128.067 37.7492 127.16ZM48.0644 133H41.7284V131.816H44.3364V123.144C44.3364 123.08 44.3418 123.021 44.3524 122.968L42.2244 124.872L41.4404 123.928L44.5924 121.208H45.7604V131.816H48.0644V133ZM57.8997 133H50.0277V131.976L54.0757 128.088C54.385 127.757 54.6677 127.448 54.9237 127.16C55.1904 126.861 55.4144 126.563 55.5957 126.264C55.7877 125.965 55.937 125.667 56.0437 125.368C56.1504 125.059 56.2037 124.733 56.2037 124.392C56.1824 123.688 55.969 123.171 55.5637 122.84C55.1584 122.499 54.6517 122.328 54.0437 122.328C53.713 122.328 53.4037 122.387 53.1157 122.504C52.8277 122.611 52.577 122.771 52.3637 122.984C52.161 123.187 52.001 123.427 51.8837 123.704C51.7664 123.981 51.7077 124.291 51.7077 124.632L50.2677 124.392C50.3424 123.848 50.4917 123.373 50.7157 122.968C50.9397 122.552 51.217 122.205 51.5477 121.928C51.889 121.64 52.2784 121.427 52.7157 121.288C53.153 121.139 53.6224 121.064 54.1237 121.064C54.625 121.064 55.089 121.139 55.5157 121.288C55.953 121.437 56.3317 121.656 56.6517 121.944C56.9717 122.221 57.2224 122.563 57.4037 122.968C57.585 123.373 57.6757 123.837 57.6757 124.36C57.6757 124.797 57.6117 125.203 57.4837 125.576C57.3557 125.949 57.1797 126.312 56.9557 126.664C56.7317 127.005 56.4704 127.341 56.1717 127.672C55.873 127.992 55.5584 128.317 55.2277 128.648L51.9477 131.896C52.1717 131.832 52.3957 131.784 52.6197 131.752C52.8544 131.72 53.073 131.704 53.2757 131.704H57.8997V133ZM63.2549 121.272C65.1109 121.272 66.4976 121.763 67.4149 122.744C68.3323 123.725 68.7909 125.176 68.7909 127.096C68.7909 128.024 68.6683 128.856 68.4229 129.592C68.1883 130.317 67.8363 130.936 67.3669 131.448C66.9083 131.949 66.3376 132.333 65.6549 132.6C64.9829 132.867 64.2043 133 63.3189 133H60.3109V121.272H63.2549ZM63.1269 131.784C64.5136 131.784 65.5483 131.373 66.2309 130.552C66.9136 129.731 67.2549 128.579 67.2549 127.096C67.2549 125.581 66.9189 124.435 66.2469 123.656C65.5856 122.867 64.5456 122.472 63.1269 122.472H61.7989V131.784H63.1269Z" fill="#222222"/>
<path d="M5.48463 4.16C6.13529 4.16 6.74329 4.224 7.30863 4.352C7.87396 4.46933 8.36463 4.672 8.78063 4.96C9.19663 5.248 9.52196 5.632 9.75663 6.112C10.002 6.58133 10.1246 7.168 10.1246 7.872C10.1246 8.544 10.002 9.13067 9.75663 9.632C9.52196 10.1227 9.19663 10.528 8.78063 10.848C8.37529 11.168 7.89529 11.408 7.34063 11.568C6.78596 11.7173 6.18863 11.792 5.54863 11.792H3.96463V16H1.59663V4.16H5.48463ZM5.38863 9.92C6.99929 9.92 7.80463 9.23733 7.80463 7.872C7.80463 7.17867 7.59129 6.69867 7.16463 6.432C6.74863 6.16533 6.12996 6.032 5.30863 6.032H3.96463V9.92H5.38863ZM13.9965 7.04L14.1565 8.624H14.2205C14.5512 8.03733 14.9352 7.58933 15.3725 7.28C15.8205 6.97067 16.2845 6.816 16.7645 6.816C17.0098 6.816 17.2125 6.83733 17.3725 6.88C17.5325 6.912 17.6818 6.95467 17.8205 7.008L17.4045 9.04C17.2552 8.98667 17.1058 8.94933 16.9565 8.928C16.8178 8.90667 16.6578 8.896 16.4765 8.896C16.1245 8.896 15.7565 9.02933 15.3725 9.296C14.9885 9.552 14.6685 10.0053 14.4125 10.656V16H12.0765V7.04H13.9965ZM18.8372 5.6V3.328H21.1733V5.6H18.8372ZM18.8213 7.04H21.1573V16H18.8213V7.04ZM25.3871 7.04L25.5471 8.24H25.6111C25.9845 7.84533 26.3898 7.50933 26.8271 7.232C27.2645 6.95467 27.7765 6.816 28.3631 6.816C29.0031 6.816 29.5205 6.94933 29.9151 7.216C30.3098 7.48267 30.6138 7.872 30.8271 8.384C31.2325 7.936 31.6591 7.56267 32.1071 7.264C32.5658 6.96533 33.0885 6.816 33.6751 6.816C34.6351 6.816 35.3391 7.136 35.7871 7.776C36.2351 8.40533 36.4591 9.28533 36.4591 10.416V16H34.1071V10.704C34.1071 10 34.0058 9.51467 33.8031 9.248C33.6005 8.97067 33.2858 8.832 32.8591 8.832C32.3471 8.832 31.7711 9.168 31.1311 9.84V16H28.7791V10.704C28.7791 10 28.6778 9.51467 28.4751 9.248C28.2725 8.97067 27.9578 8.832 27.5311 8.832C27.0191 8.832 26.4431 9.168 25.8031 9.84V16H23.4671V7.04H25.3871ZM41.097 16.16C40.7023 16.16 40.3397 16.1013 40.009 15.984C39.6783 15.856 39.3957 15.68 39.161 15.456C38.937 15.2213 38.761 14.944 38.633 14.624C38.505 14.304 38.441 13.952 38.441 13.568C38.3877 12.4693 38.7663 11.6587 39.577 11.136C40.3983 10.6027 41.737 10.3093 43.593 10.256C43.6357 9.88267 43.5663 9.504 43.385 9.12C43.193 8.84267 42.7557 8.704 42.073 8.704C41.657 8.704 41.2197 8.77867 40.761 8.928C40.313 9.07733 39.8863 9.28533 39.481 9.552L38.777 7.872C39.2677 7.57333 39.833 7.32267 40.473 7.12C41.1237 6.91733 41.801 6.816 42.505 6.816C44.7983 6.816 45.945 8.13333 45.945 10.768V16H44.025L43.849 15.088H43.801C43.417 15.4187 42.9957 15.68 42.537 15.872C42.089 16.064 41.609 16.16 41.097 16.16ZM41.817 14.368C42.1583 14.3573 42.4677 14.2827 42.745 14.144C43.033 13.9947 43.3157 13.7813 43.593 13.504V11.696C43.3157 11.7173 43.0383 11.744 42.761 11.776C42.4943 11.7973 42.233 11.8293 41.977 11.872C41.465 11.9467 41.1023 12.1013 40.889 12.336C40.6863 12.5707 40.5903 12.848 40.601 13.168C40.6117 13.5413 40.729 13.8347 40.953 14.048C41.1877 14.2613 41.4757 14.368 41.817 14.368ZM50.2621 7.04L50.4221 8.624H50.4861C50.8168 8.03733 51.2008 7.58933 51.6381 7.28C52.0861 6.97067 52.5501 6.816 53.0301 6.816C53.2755 6.816 53.4781 6.83733 53.6381 6.88C53.7981 6.912 53.9475 6.95467 54.0861 7.008L53.6701 9.04C53.5208 8.98667 53.3715 8.94933 53.2221 8.928C53.0835 8.90667 52.9235 8.896 52.7421 8.896C52.3901 8.896 52.0221 9.02933 51.6381 9.296C51.2541 9.552 50.9341 10.0053 50.6781 10.656V16H48.3421V7.04H50.2621ZM56.4789 19.6L57.7269 16.048L54.2549 7.04H56.6229L58.0469 11.2C58.1855 11.6053 58.3135 12.016 58.4309 12.432C58.5482 12.848 58.6709 13.28 58.7989 13.728H58.8789C58.9855 13.312 59.0922 12.8907 59.1989 12.464C59.3055 12.0373 59.4122 11.616 59.5189 11.2L60.7509 7.04H63.0069L59.9029 16.256L58.7989 19.6H56.4789ZM71.9314 16.224C71.3127 16.224 70.7367 16.1173 70.2034 15.904C69.67 15.6907 69.206 15.3867 68.8114 14.992C68.4274 14.5867 68.1234 14.096 67.8994 13.52C67.6754 12.9333 67.5634 12.272 67.5634 11.536C67.5634 10.7893 67.686 10.1227 67.9314 9.536C68.1874 8.94933 68.5234 8.45867 68.9394 8.064C69.3554 7.65867 69.8407 7.34933 70.3954 7.136C70.95 6.92267 71.5314 6.816 72.1394 6.816C72.694 6.816 73.1847 6.912 73.6114 7.104C74.038 7.296 74.4167 7.53067 74.7474 7.808L73.6274 9.328C73.4034 9.136 73.1794 8.992 72.9554 8.896C72.742 8.78933 72.5074 8.736 72.2514 8.736C71.5687 8.736 71.014 8.98667 70.5874 9.488C70.1714 9.98933 69.9634 10.672 69.9634 11.536C69.9634 11.8773 70.006 12.2133 70.0914 12.544C70.1767 12.8747 70.31 13.1733 70.4914 13.44C70.6727 13.696 70.902 13.904 71.1794 14.064C71.4674 14.224 71.8034 14.304 72.1874 14.304C72.5074 14.304 72.8167 14.24 73.1154 14.112C73.414 13.9733 73.686 13.7973 73.9314 13.584L74.8594 15.136C74.4327 15.5093 73.9634 15.7867 73.4514 15.968C72.95 16.1387 72.4434 16.224 71.9314 16.224ZM79.8205 16.224C79.2658 16.224 78.7272 16.1173 78.2045 15.904C77.6818 15.6907 77.2232 15.3867 76.8285 14.992C76.4338 14.5867 76.1138 14.096 75.8685 13.52C75.6338 12.9333 75.5165 12.272 75.5165 11.536C75.5165 10.7893 75.6338 10.1227 75.8685 9.536C76.1138 8.94933 76.4338 8.45867 76.8285 8.064C77.2232 7.65867 77.6818 7.34933 78.2045 7.136C78.7272 6.92267 79.2658 6.816 79.8205 6.816C80.3858 6.816 80.9245 6.92267 81.4365 7.136C81.9592 7.34933 82.4178 7.65867 82.8125 8.064C83.2072 8.45867 83.5218 8.94933 83.7565 9.536C84.0018 10.1227 84.1245 10.7893 84.1245 11.536C84.1245 12.272 84.0018 12.9333 83.7565 13.52C83.5218 14.096 83.2072 14.5867 82.8125 14.992C82.4178 15.3867 81.9592 15.6907 81.4365 15.904C80.9245 16.1173 80.3858 16.224 79.8205 16.224ZM79.8205 14.304C80.4285 14.304 80.8978 14.0533 81.2285 13.552C81.5592 13.0507 81.7245 12.3787 81.7245 11.536C81.7245 10.672 81.5592 9.98933 81.2285 9.488C80.8978 8.98667 80.4285 8.736 79.8205 8.736C79.2125 8.736 78.7432 8.98667 78.4125 9.488C78.0818 9.98933 77.9165 10.672 77.9165 11.536C77.9165 12.3787 78.0818 13.0507 78.4125 13.552C78.7432 14.0533 79.2125 14.304 79.8205 14.304ZM86.0921 3.232H88.4281V16H86.0921V3.232ZM94.883 16.224C94.3283 16.224 93.7897 16.1173 93.267 15.904C92.7443 15.6907 92.2857 15.3867 91.891 14.992C91.4963 14.5867 91.1763 14.096 90.931 13.52C90.6963 12.9333 90.579 12.272 90.579 11.536C90.579 10.7893 90.6963 10.1227 90.931 9.536C91.1763 8.94933 91.4963 8.45867 91.891 8.064C92.2857 7.65867 92.7443 7.34933 93.267 7.136C93.7897 6.92267 94.3283 6.816 94.883 6.816C95.4483 6.816 95.987 6.92267 96.499 7.136C97.0217 7.34933 97.4803 7.65867 97.875 8.064C98.2697 8.45867 98.5843 8.94933 98.819 9.536C99.0643 10.1227 99.187 10.7893 99.187 11.536C99.187 12.272 99.0643 12.9333 98.819 13.52C98.5843 14.096 98.2697 14.5867 97.875 14.992C97.4803 15.3867 97.0217 15.6907 96.499 15.904C95.987 16.1173 95.4483 16.224 94.883 16.224ZM94.883 14.304C95.491 14.304 95.9603 14.0533 96.291 13.552C96.6217 13.0507 96.787 12.3787 96.787 11.536C96.787 10.672 96.6217 9.98933 96.291 9.488C95.9603 8.98667 95.491 8.736 94.883 8.736C94.275 8.736 93.8057 8.98667 93.475 9.488C93.1443 9.98933 92.979 10.672 92.979 11.536C92.979 12.3787 93.1443 13.0507 93.475 13.552C93.8057 14.0533 94.275 14.304 94.883 14.304ZM103.075 7.04L103.235 8.624H103.299C103.629 8.03733 104.013 7.58933 104.451 7.28C104.899 6.97067 105.363 6.816 105.843 6.816C106.088 6.816 106.291 6.83733 106.451 6.88C106.611 6.912 106.76 6.95467 106.899 7.008L106.483 9.04C106.333 8.98667 106.184 8.94933 106.035 8.928C105.896 8.90667 105.736 8.896 105.555 8.896C105.203 8.896 104.835 9.02933 104.451 9.296C104.067 9.552 103.747 10.0053 103.491 10.656V16H101.155V7.04H103.075Z" fill="#222222"/>
<path d="M212.383 16.224C211.583 16.224 210.804 16.0747 210.047 15.776C209.3 15.4773 208.639 15.0507 208.063 14.496L209.423 12.864C209.849 13.2587 210.324 13.5787 210.847 13.824C211.38 14.0587 211.908 14.176 212.431 14.176C213.049 14.176 213.519 14.0533 213.839 13.808C214.159 13.5627 214.319 13.232 214.319 12.816C214.319 12.592 214.276 12.4053 214.191 12.256C214.105 12.1067 213.983 11.9733 213.823 11.856C213.673 11.7387 213.487 11.632 213.263 11.536C213.049 11.44 212.809 11.3333 212.543 11.216L210.959 10.544C210.543 10.3733 210.153 10.1493 209.791 9.872C209.439 9.59467 209.145 9.25333 208.911 8.848C208.676 8.432 208.559 7.936 208.559 7.36C208.559 6.88 208.66 6.432 208.863 6.016C209.065 5.58933 209.348 5.22667 209.711 4.928C210.073 4.61867 210.505 4.37867 211.007 4.208C211.508 4.02667 212.057 3.936 212.655 3.936C213.359 3.936 214.031 4.06933 214.671 4.336C215.321 4.592 215.887 4.96533 216.367 5.456L215.167 6.944C214.793 6.63467 214.404 6.39467 213.999 6.224C213.593 6.05333 213.145 5.968 212.655 5.968C212.132 5.968 211.716 6.08 211.407 6.304C211.097 6.51733 210.943 6.82133 210.943 7.216C210.943 7.41867 210.991 7.59467 211.087 7.744C211.193 7.89333 211.327 8.02667 211.487 8.144C211.657 8.26133 211.855 8.37333 212.079 8.48C212.303 8.576 212.543 8.672 212.799 8.768L214.351 9.424C215.087 9.72267 215.668 10.1173 216.095 10.608C216.521 11.0987 216.735 11.776 216.735 12.64C216.735 13.12 216.633 13.5787 216.431 14.016C216.239 14.4533 215.956 14.8373 215.583 15.168C215.209 15.488 214.751 15.744 214.207 15.936C213.673 16.128 213.065 16.224 212.383 16.224ZM222.527 16.224C221.908 16.224 221.327 16.1173 220.783 15.904C220.239 15.6907 219.764 15.3867 219.359 14.992C218.964 14.5867 218.65 14.096 218.415 13.52C218.191 12.9333 218.079 12.272 218.079 11.536C218.079 10.8107 218.196 10.16 218.431 9.584C218.666 8.99733 218.975 8.50133 219.359 8.096C219.754 7.68 220.202 7.36533 220.703 7.152C221.204 6.928 221.722 6.816 222.255 6.816C222.874 6.816 223.412 6.92267 223.871 7.136C224.34 7.34933 224.73 7.648 225.039 8.032C225.359 8.416 225.599 8.86933 225.759 9.392C225.919 9.91467 225.999 10.4853 225.999 11.104C225.999 11.3173 225.988 11.5253 225.967 11.728C225.946 11.92 225.919 12.0693 225.887 12.176H220.367C220.463 12.912 220.73 13.472 221.167 13.856C221.615 14.2293 222.175 14.416 222.847 14.416C223.22 14.416 223.567 14.3627 223.887 14.256C224.218 14.1493 224.543 13.9947 224.863 13.792L225.663 15.232C225.215 15.5413 224.724 15.7867 224.191 15.968C223.658 16.1387 223.103 16.224 222.527 16.224ZM223.983 10.624C223.983 10.016 223.844 9.536 223.567 9.184C223.29 8.82133 222.863 8.64 222.287 8.64C221.818 8.64 221.396 8.81067 221.023 9.152C220.65 9.48267 220.42 9.97333 220.335 10.624H223.983ZM231.744 16.224C231.125 16.224 230.549 16.1173 230.016 15.904C229.483 15.6907 229.019 15.3867 228.624 14.992C228.24 14.5867 227.936 14.096 227.712 13.52C227.488 12.9333 227.376 12.272 227.376 11.536C227.376 10.7893 227.499 10.1227 227.744 9.536C228 8.94933 228.336 8.45867 228.752 8.064C229.168 7.65867 229.653 7.34933 230.208 7.136C230.763 6.92267 231.344 6.816 231.952 6.816C232.507 6.816 232.997 6.912 233.424 7.104C233.851 7.296 234.229 7.53067 234.56 7.808L233.44 9.328C233.216 9.136 232.992 8.992 232.768 8.896C232.555 8.78933 232.32 8.736 232.064 8.736C231.381 8.736 230.827 8.98667 230.4 9.488C229.984 9.98933 229.776 10.672 229.776 11.536C229.776 11.8773 229.819 12.2133 229.904 12.544C229.989 12.8747 230.123 13.1733 230.304 13.44C230.485 13.696 230.715 13.904 230.992 14.064C231.28 14.224 231.616 14.304 232 14.304C232.32 14.304 232.629 14.24 232.928 14.112C233.227 13.9733 233.499 13.7973 233.744 13.584L234.672 15.136C234.245 15.5093 233.776 15.7867 233.264 15.968C232.763 16.1387 232.256 16.224 231.744 16.224ZM239.633 16.224C239.078 16.224 238.54 16.1173 238.017 15.904C237.494 15.6907 237.036 15.3867 236.641 14.992C236.246 14.5867 235.926 14.096 235.681 13.52C235.446 12.9333 235.329 12.272 235.329 11.536C235.329 10.7893 235.446 10.1227 235.681 9.536C235.926 8.94933 236.246 8.45867 236.641 8.064C237.036 7.65867 237.494 7.34933 238.017 7.136C238.54 6.92267 239.078 6.816 239.633 6.816C240.198 6.816 240.737 6.92267 241.249 7.136C241.772 7.34933 242.23 7.65867 242.625 8.064C243.02 8.45867 243.334 8.94933 243.569 9.536C243.814 10.1227 243.937 10.7893 243.937 11.536C243.937 12.272 243.814 12.9333 243.569 13.52C243.334 14.096 243.02 14.5867 242.625 14.992C242.23 15.3867 241.772 15.6907 241.249 15.904C240.737 16.1173 240.198 16.224 239.633 16.224ZM239.633 14.304C240.241 14.304 240.71 14.0533 241.041 13.552C241.372 13.0507 241.537 12.3787 241.537 11.536C241.537 10.672 241.372 9.98933 241.041 9.488C240.71 8.98667 240.241 8.736 239.633 8.736C239.025 8.736 238.556 8.98667 238.225 9.488C237.894 9.98933 237.729 10.672 237.729 11.536C237.729 12.3787 237.894 13.0507 238.225 13.552C238.556 14.0533 239.025 14.304 239.633 14.304ZM247.825 7.04L247.985 8.224H248.049C248.443 7.84 248.875 7.50933 249.345 7.232C249.814 6.95467 250.353 6.816 250.961 6.816C251.931 6.816 252.635 7.136 253.073 7.776C253.51 8.40533 253.729 9.28533 253.729 10.416V16H251.377V10.704C251.377 10.0107 251.275 9.52533 251.073 9.248C250.881 8.97067 250.561 8.832 250.113 8.832C249.739 8.832 249.419 8.91733 249.153 9.088C248.886 9.25867 248.582 9.50933 248.241 9.84V16H245.905V7.04H247.825ZM259.307 16.224C258.752 16.224 258.245 16.1173 257.787 15.904C257.339 15.6907 256.955 15.3813 256.635 14.976C256.315 14.5707 256.069 14.08 255.899 13.504C255.728 12.928 255.643 12.272 255.643 11.536C255.643 10.8 255.744 10.144 255.947 9.568C256.16 8.98133 256.443 8.48533 256.795 8.08C257.147 7.67467 257.547 7.36533 257.995 7.152C258.453 6.928 258.923 6.816 259.403 6.816C259.915 6.816 260.341 6.90667 260.683 7.088C261.024 7.25867 261.355 7.49333 261.675 7.792L261.579 6.384V3.232H263.931V16H262.027L261.835 15.072H261.787C261.456 15.392 261.077 15.664 260.651 15.888C260.235 16.112 259.787 16.224 259.307 16.224ZM259.915 14.288C260.224 14.288 260.512 14.2187 260.779 14.08C261.056 13.9413 261.323 13.7013 261.579 13.36V9.424C261.301 9.17867 261.024 9.008 260.747 8.912C260.469 8.80533 260.192 8.752 259.915 8.752C259.659 8.752 259.419 8.81067 259.195 8.928C258.971 9.04533 258.773 9.22133 258.603 9.456C258.443 9.69067 258.309 9.97867 258.203 10.32C258.107 10.6613 258.059 11.056 258.059 11.504C258.059 13.36 258.677 14.288 259.915 14.288ZM266.452 3.232H268.788V16H266.452V3.232ZM272.666 19.6L273.914 16.048L270.442 7.04H272.81L274.234 11.2C274.373 11.6053 274.501 12.016 274.618 12.432C274.736 12.848 274.858 13.28 274.986 13.728H275.066C275.173 13.312 275.28 12.8907 275.386 12.464C275.493 12.0373 275.6 11.616 275.706 11.2L276.938 7.04H279.194L276.09 16.256L274.986 19.6H272.666ZM289.335 16.224C288.588 16.224 287.884 16.0907 287.223 15.824C286.562 15.5573 285.986 15.168 285.495 14.656C285.004 14.144 284.615 13.5093 284.327 12.752C284.05 11.9947 283.911 11.12 283.911 10.128C283.911 9.14667 284.055 8.27733 284.343 7.52C284.642 6.752 285.042 6.10133 285.543 5.568C286.044 5.03467 286.626 4.62933 287.287 4.352C287.959 4.07467 288.668 3.936 289.415 3.936C290.183 3.936 290.855 4.09067 291.431 4.4C292.018 4.69867 292.503 5.05067 292.887 5.456L291.639 6.96C291.34 6.672 291.015 6.43733 290.663 6.256C290.311 6.064 289.911 5.968 289.463 5.968C289.015 5.968 288.599 6.064 288.215 6.256C287.831 6.43733 287.5 6.704 287.223 7.056C286.946 7.408 286.727 7.83467 286.567 8.336C286.407 8.83733 286.327 9.408 286.327 10.048C286.327 10.688 286.396 11.264 286.535 11.776C286.684 12.288 286.892 12.7253 287.159 13.088C287.436 13.44 287.762 13.712 288.135 13.904C288.519 14.0853 288.946 14.176 289.415 14.176C289.927 14.176 290.38 14.0693 290.775 13.856C291.18 13.632 291.543 13.3493 291.863 13.008L293.111 14.48C292.14 15.6427 290.882 16.224 289.335 16.224ZM298.571 16.224C298.016 16.224 297.477 16.1173 296.955 15.904C296.432 15.6907 295.973 15.3867 295.579 14.992C295.184 14.5867 294.864 14.096 294.618 13.52C294.384 12.9333 294.267 12.272 294.267 11.536C294.267 10.7893 294.384 10.1227 294.618 9.536C294.864 8.94933 295.184 8.45867 295.579 8.064C295.973 7.65867 296.432 7.34933 296.955 7.136C297.477 6.92267 298.016 6.816 298.571 6.816C299.136 6.816 299.675 6.92267 300.187 7.136C300.709 7.34933 301.168 7.65867 301.562 8.064C301.957 8.45867 302.272 8.94933 302.507 9.536C302.752 10.1227 302.875 10.7893 302.875 11.536C302.875 12.272 302.752 12.9333 302.507 13.52C302.272 14.096 301.957 14.5867 301.562 14.992C301.168 15.3867 300.709 15.6907 300.187 15.904C299.675 16.1173 299.136 16.224 298.571 16.224ZM298.571 14.304C299.179 14.304 299.648 14.0533 299.979 13.552C300.309 13.0507 300.475 12.3787 300.475 11.536C300.475 10.672 300.309 9.98933 299.979 9.488C299.648 8.98667 299.179 8.736 298.571 8.736C297.963 8.736 297.493 8.98667 297.163 9.488C296.832 9.98933 296.667 10.672 296.667 11.536C296.667 12.3787 296.832 13.0507 297.163 13.552C297.493 14.0533 297.963 14.304 298.571 14.304ZM304.842 3.232H307.178V16H304.842V3.232ZM313.633 16.224C313.078 16.224 312.54 16.1173 312.017 15.904C311.494 15.6907 311.036 15.3867 310.641 14.992C310.246 14.5867 309.926 14.096 309.681 13.52C309.446 12.9333 309.329 12.272 309.329 11.536C309.329 10.7893 309.446 10.1227 309.681 9.536C309.926 8.94933 310.246 8.45867 310.641 8.064C311.036 7.65867 311.494 7.34933 312.017 7.136C312.54 6.92267 313.078 6.816 313.633 6.816C314.198 6.816 314.737 6.92267 315.249 7.136C315.772 7.34933 316.23 7.65867 316.625 8.064C317.02 8.45867 317.334 8.94933 317.569 9.536C317.814 10.1227 317.937 10.7893 317.937 11.536C317.937 12.272 317.814 12.9333 317.569 13.52C317.334 14.096 317.02 14.5867 316.625 14.992C316.23 15.3867 315.772 15.6907 315.249 15.904C314.737 16.1173 314.198 16.224 313.633 16.224ZM313.633 14.304C314.241 14.304 314.71 14.0533 315.041 13.552C315.372 13.0507 315.537 12.3787 315.537 11.536C315.537 10.672 315.372 9.98933 315.041 9.488C314.71 8.98667 314.241 8.736 313.633 8.736C313.025 8.736 312.556 8.98667 312.225 9.488C311.894 9.98933 311.729 10.672 311.729 11.536C311.729 12.3787 311.894 13.0507 312.225 13.552C312.556 14.0533 313.025 14.304 313.633 14.304ZM321.825 7.04L321.985 8.624H322.049C322.379 8.03733 322.763 7.58933 323.201 7.28C323.649 6.97067 324.113 6.816 324.593 6.816C324.838 6.816 325.041 6.83733 325.201 6.88C325.361 6.912 325.51 6.95467 325.649 7.008L325.233 9.04C325.083 8.98667 324.934 8.94933 324.785 8.928C324.646 8.90667 324.486 8.896 324.305 8.896C323.953 8.896 323.585 9.02933 323.201 9.296C322.817 9.552 322.497 10.0053 322.241 10.656V16H319.905V7.04H321.825Z" fill="#222222"/>
<path d="M211.109 129.416V128.328H212.645L212.981 125.672H211.461V124.584H213.109L213.509 121.384H214.533L214.149 124.584H216.357L216.773 121.384H217.781L217.397 124.584H218.805V125.672H217.269L216.933 128.328H218.453V129.416H216.805L216.373 133H215.333L215.765 129.416H213.557L213.109 133H212.085L212.517 129.416H211.109ZM216.229 125.672H214.005L213.685 128.328H215.893L216.229 125.672ZM227.76 133H221.424V131.816H224.032V123.144C224.032 123.08 224.037 123.021 224.048 122.968L221.92 124.872L221.136 123.928L224.288 121.208H225.456V131.816H227.76V133ZM235.355 126.888C236.102 127.091 236.672 127.443 237.067 127.944C237.472 128.445 237.675 129.08 237.675 129.848C237.675 130.371 237.574 130.845 237.371 131.272C237.179 131.688 236.902 132.045 236.539 132.344C236.187 132.643 235.766 132.872 235.275 133.032C234.784 133.192 234.24 133.272 233.643 133.272C233.046 133.272 232.496 133.192 231.995 133.032C231.494 132.872 231.062 132.643 230.699 132.344C230.347 132.045 230.07 131.688 229.867 131.272C229.675 130.845 229.579 130.371 229.579 129.848C229.579 129.08 229.782 128.445 230.187 127.944C230.592 127.443 231.163 127.091 231.899 126.888C231.291 126.653 230.822 126.307 230.491 125.848C230.171 125.379 230.011 124.808 230.011 124.136C230.011 123.699 230.096 123.293 230.267 122.92C230.438 122.536 230.678 122.2 230.987 121.912C231.307 121.624 231.691 121.4 232.139 121.24C232.587 121.069 233.088 120.984 233.643 120.984C234.176 120.984 234.667 121.069 235.115 121.24C235.563 121.4 235.947 121.624 236.267 121.912C236.587 122.2 236.832 122.536 237.003 122.92C237.184 123.293 237.275 123.699 237.275 124.136C237.275 125.501 236.635 126.419 235.355 126.888ZM233.643 122.152C233.28 122.152 232.96 122.205 232.683 122.312C232.406 122.419 232.176 122.563 231.995 122.744C231.824 122.925 231.691 123.144 231.595 123.4C231.51 123.645 231.467 123.907 231.467 124.184C231.467 124.451 231.504 124.712 231.579 124.968C231.654 125.224 231.776 125.453 231.947 125.656C232.118 125.859 232.342 126.024 232.619 126.152C232.896 126.269 233.238 126.328 233.643 126.328C234.038 126.328 234.368 126.269 234.635 126.152C234.912 126.024 235.136 125.859 235.307 125.656C235.478 125.453 235.6 125.224 235.675 124.968C235.75 124.712 235.787 124.451 235.787 124.184C235.787 123.907 235.739 123.645 235.643 123.4C235.558 123.144 235.424 122.925 235.243 122.744C235.072 122.563 234.854 122.419 234.587 122.312C234.32 122.205 234.006 122.152 233.643 122.152ZM233.643 132.072C234.443 132.072 235.056 131.869 235.483 131.464C235.91 131.048 236.123 130.504 236.123 129.832C236.123 129.416 236.054 129.064 235.915 128.776C235.787 128.477 235.606 128.237 235.371 128.056C235.147 127.864 234.886 127.725 234.587 127.64C234.288 127.544 233.974 127.496 233.643 127.496C233.312 127.496 232.992 127.544 232.683 127.64C232.384 127.725 232.118 127.864 231.883 128.056C231.648 128.237 231.462 128.477 231.323 128.776C231.195 129.064 231.131 129.416 231.131 129.832C231.131 130.504 231.35 131.048 231.787 131.464C232.224 131.869 232.843 132.072 233.643 132.072ZM246.822 133H240.486V131.816H243.094V123.144C243.094 123.08 243.1 123.021 243.11 122.968L240.982 124.872L240.198 123.928L243.35 121.208H244.518V131.816H246.822V133ZM254.418 126.888C255.164 127.091 255.735 127.443 256.13 127.944C256.535 128.445 256.738 129.08 256.738 129.848C256.738 130.371 256.636 130.845 256.434 131.272C256.242 131.688 255.964 132.045 255.602 132.344C255.25 132.643 254.828 132.872 254.338 133.032C253.847 133.192 253.303 133.272 252.706 133.272C252.108 133.272 251.559 133.192 251.058 133.032C250.556 132.872 250.124 132.643 249.762 132.344C249.41 132.045 249.132 131.688 248.93 131.272C248.738 130.845 248.642 130.371 248.642 129.848C248.642 129.08 248.844 128.445 249.25 127.944C249.655 127.443 250.226 127.091 250.962 126.888C250.354 126.653 249.884 126.307 249.554 125.848C249.234 125.379 249.074 124.808 249.074 124.136C249.074 123.699 249.159 123.293 249.33 122.92C249.5 122.536 249.74 122.2 250.049 121.912C250.37 121.624 250.754 121.4 251.202 121.24C251.65 121.069 252.151 120.984 252.706 120.984C253.239 120.984 253.73 121.069 254.178 121.24C254.626 121.4 255.01 121.624 255.33 121.912C255.65 122.2 255.895 122.536 256.066 122.92C256.247 123.293 256.338 123.699 256.338 124.136C256.338 125.501 255.698 126.419 254.418 126.888ZM252.706 122.152C252.343 122.152 252.023 122.205 251.746 122.312C251.468 122.419 251.239 122.563 251.058 122.744C250.887 122.925 250.754 123.144 250.658 123.4C250.572 123.645 250.53 123.907 250.53 124.184C250.53 124.451 250.567 124.712 250.642 124.968C250.716 125.224 250.839 125.453 251.01 125.656C251.18 125.859 251.404 126.024 251.682 126.152C251.959 126.269 252.3 126.328 252.706 126.328C253.1 126.328 253.431 126.269 253.698 126.152C253.975 126.024 254.199 125.859 254.37 125.656C254.54 125.453 254.663 125.224 254.738 124.968C254.812 124.712 254.85 124.451 254.85 124.184C254.85 123.907 254.802 123.645 254.706 123.4C254.62 123.144 254.487 122.925 254.306 122.744C254.135 122.563 253.916 122.419 253.65 122.312C253.383 122.205 253.068 122.152 252.706 122.152ZM252.706 132.072C253.506 132.072 254.119 131.869 254.546 131.464C254.972 131.048 255.186 130.504 255.186 129.832C255.186 129.416 255.116 129.064 254.978 128.776C254.85 128.477 254.668 128.237 254.434 128.056C254.21 127.864 253.948 127.725 253.65 127.64C253.351 127.544 253.036 127.496 252.706 127.496C252.375 127.496 252.055 127.544 251.746 127.64C251.447 127.725 251.18 127.864 250.946 128.056C250.711 128.237 250.524 128.477 250.386 128.776C250.258 129.064 250.194 129.416 250.194 129.832C250.194 130.504 250.412 131.048 250.85 131.464C251.287 131.869 251.906 132.072 252.706 132.072ZM265.885 133H259.549V131.816H262.157V123.144C262.157 123.08 262.162 123.021 262.173 122.968L260.045 124.872L259.261 123.928L262.413 121.208H263.581V131.816H265.885V133ZM273.48 126.888C274.227 127.091 274.797 127.443 275.192 127.944C275.597 128.445 275.8 129.08 275.8 129.848C275.8 130.371 275.699 130.845 275.496 131.272C275.304 131.688 275.027 132.045 274.664 132.344C274.312 132.643 273.891 132.872 273.4 133.032C272.909 133.192 272.365 133.272 271.768 133.272C271.171 133.272 270.621 133.192 270.12 133.032C269.619 132.872 269.187 132.643 268.824 132.344C268.472 132.045 268.195 131.688 267.992 131.272C267.8 130.845 267.704 130.371 267.704 129.848C267.704 129.08 267.907 128.445 268.312 127.944C268.717 127.443 269.288 127.091 270.024 126.888C269.416 126.653 268.947 126.307 268.616 125.848C268.296 125.379 268.136 124.808 268.136 124.136C268.136 123.699 268.221 123.293 268.392 122.92C268.563 122.536 268.803 122.2 269.112 121.912C269.432 121.624 269.816 121.4 270.264 121.24C270.712 121.069 271.213 120.984 271.768 120.984C272.301 120.984 272.792 121.069 273.24 121.24C273.688 121.4 274.072 121.624 274.392 121.912C274.712 122.2 274.957 122.536 275.128 122.92C275.309 123.293 275.4 123.699 275.4 124.136C275.4 125.501 274.76 126.419 273.48 126.888ZM271.768 122.152C271.405 122.152 271.085 122.205 270.808 122.312C270.531 122.419 270.301 122.563 270.12 122.744C269.949 122.925 269.816 123.144 269.72 123.4C269.635 123.645 269.592 123.907 269.592 124.184C269.592 124.451 269.629 124.712 269.704 124.968C269.779 125.224 269.901 125.453 270.072 125.656C270.243 125.859 270.467 126.024 270.744 126.152C271.021 126.269 271.363 126.328 271.768 126.328C272.163 126.328 272.493 126.269 272.76 126.152C273.037 126.024 273.261 125.859 273.432 125.656C273.603 125.453 273.725 125.224 273.8 124.968C273.875 124.712 273.912 124.451 273.912 124.184C273.912 123.907 273.864 123.645 273.768 123.4C273.683 123.144 273.549 122.925 273.368 122.744C273.197 122.563 272.979 122.419 272.712 122.312C272.445 122.205 272.131 122.152 271.768 122.152ZM271.768 132.072C272.568 132.072 273.181 131.869 273.608 131.464C274.035 131.048 274.248 130.504 274.248 129.832C274.248 129.416 274.179 129.064 274.04 128.776C273.912 128.477 273.731 128.237 273.496 128.056C273.272 127.864 273.011 127.725 272.712 127.64C272.413 127.544 272.099 127.496 271.768 127.496C271.437 127.496 271.117 127.544 270.808 127.64C270.509 127.725 270.243 127.864 270.008 128.056C269.773 128.237 269.587 128.477 269.448 128.776C269.32 129.064 269.256 129.416 269.256 129.832C269.256 130.504 269.475 131.048 269.912 131.464C270.349 131.869 270.968 132.072 271.768 132.072Z" fill="#222222"/>
<circle cx="242" cy="70" r="35" fill="#181818"/>
<path d="M304.115 124.312L305.411 129.336C305.497 129.752 305.582 130.163 305.667 130.568C305.753 130.963 305.838 131.363 305.923 131.768H306.003C306.099 131.363 306.19 130.957 306.275 130.552C306.371 130.147 306.478 129.741 306.595 129.336L307.939 124.312H309.363L310.723 129.336C310.83 129.752 310.931 130.163 311.027 130.568C311.123 130.963 311.225 131.363 311.331 131.768H311.395C311.491 131.363 311.582 130.963 311.667 130.568C311.753 130.163 311.843 129.752 311.939 129.336L313.219 124.312H314.595L312.259 133H310.499L309.235 128.312C309.118 127.907 309.017 127.501 308.931 127.096C308.846 126.691 308.75 126.264 308.643 125.816H308.563C308.467 126.264 308.371 126.696 308.275 127.112C308.19 127.517 308.089 127.928 307.971 128.344L306.755 133H305.043L302.627 124.312H304.115ZM317.951 120.264V123.752L317.903 125.544C318.309 125.139 318.741 124.797 319.199 124.52C319.658 124.232 320.186 124.088 320.783 124.088C321.722 124.088 322.399 124.376 322.815 124.952C323.231 125.517 323.439 126.365 323.439 127.496V133H321.983V127.688C321.983 126.856 321.85 126.264 321.583 125.912C321.327 125.549 320.911 125.368 320.335 125.368C319.887 125.368 319.487 125.48 319.135 125.704C318.783 125.928 318.389 126.259 317.951 126.696V133H316.495V120.264H317.951ZM325.958 122.52V121.016H327.414V122.52H325.958ZM325.942 124.312H327.398V133H325.942V124.312ZM332.81 133.208C332.351 133.208 331.962 133.139 331.642 133C331.322 132.861 331.066 132.669 330.874 132.424C330.682 132.168 330.543 131.864 330.458 131.512C330.372 131.149 330.33 130.749 330.33 130.312V125.496H329.034V124.392L330.394 124.312L330.57 121.88H331.786V124.312H334.138V125.496H331.786V130.344C331.786 130.888 331.882 131.304 332.074 131.592C332.266 131.88 332.618 132.024 333.13 132.024C333.279 132.024 333.444 132.003 333.626 131.96C333.807 131.907 333.972 131.853 334.122 131.8L334.41 132.888C334.164 132.973 333.903 133.048 333.626 133.112C333.348 133.176 333.076 133.208 332.81 133.208ZM339.609 133.208C339.033 133.208 338.489 133.107 337.977 132.904C337.475 132.701 337.038 132.408 336.665 132.024C336.291 131.629 335.993 131.149 335.769 130.584C335.555 130.019 335.449 129.379 335.449 128.664C335.449 127.96 335.555 127.325 335.769 126.76C335.993 126.195 336.286 125.715 336.649 125.32C337.011 124.925 337.427 124.621 337.897 124.408C338.377 124.195 338.867 124.088 339.369 124.088C339.923 124.088 340.414 124.184 340.841 124.376C341.267 124.568 341.625 124.845 341.913 125.208C342.211 125.56 342.435 125.987 342.585 126.488C342.745 126.989 342.825 127.549 342.825 128.168C342.825 128.328 342.819 128.483 342.809 128.632C342.798 128.771 342.782 128.893 342.761 129H336.905C336.958 129.939 337.241 130.68 337.753 131.224C338.275 131.768 338.953 132.04 339.785 132.04C340.211 132.04 340.601 131.981 340.953 131.864C341.305 131.736 341.641 131.565 341.961 131.352L342.489 132.312C342.105 132.557 341.678 132.771 341.209 132.952C340.75 133.123 340.217 133.208 339.609 133.208ZM341.545 127.96C341.545 127.053 341.353 126.376 340.969 125.928C340.595 125.48 340.067 125.256 339.385 125.256C339.075 125.256 338.777 125.32 338.489 125.448C338.211 125.565 337.961 125.741 337.737 125.976C337.513 126.2 337.326 126.483 337.177 126.824C337.027 127.155 336.931 127.533 336.889 127.96H341.545ZM351.966 133.208C351.39 133.208 350.852 133.107 350.35 132.904C349.86 132.701 349.428 132.408 349.054 132.024C348.692 131.629 348.404 131.149 348.19 130.584C347.988 130.019 347.886 129.379 347.886 128.664C347.886 127.939 347.998 127.293 348.222 126.728C348.457 126.163 348.766 125.683 349.15 125.288C349.534 124.893 349.977 124.595 350.478 124.392C350.99 124.189 351.524 124.088 352.078 124.088C352.654 124.088 353.145 124.189 353.55 124.392C353.956 124.595 354.313 124.835 354.622 125.112L353.87 126.088C353.614 125.853 353.348 125.667 353.07 125.528C352.793 125.379 352.478 125.304 352.126 125.304C351.732 125.304 351.369 125.384 351.038 125.544C350.708 125.704 350.42 125.933 350.174 126.232C349.94 126.531 349.753 126.888 349.614 127.304C349.476 127.709 349.406 128.163 349.406 128.664C349.406 129.165 349.47 129.624 349.598 130.04C349.726 130.445 349.908 130.792 350.142 131.08C350.388 131.368 350.676 131.592 351.006 131.752C351.337 131.912 351.7 131.992 352.094 131.992C352.5 131.992 352.873 131.912 353.214 131.752C353.556 131.581 353.865 131.373 354.142 131.128L354.766 132.104C354.382 132.456 353.95 132.728 353.47 132.92C352.99 133.112 352.489 133.208 351.966 133.208ZM359.668 133.208C359.135 133.208 358.623 133.107 358.132 132.904C357.652 132.701 357.226 132.408 356.852 132.024C356.479 131.629 356.18 131.149 355.956 130.584C355.743 130.019 355.636 129.379 355.636 128.664C355.636 127.939 355.743 127.293 355.956 126.728C356.18 126.163 356.479 125.683 356.852 125.288C357.226 124.893 357.652 124.595 358.132 124.392C358.623 124.189 359.135 124.088 359.668 124.088C360.202 124.088 360.708 124.189 361.188 124.392C361.679 124.595 362.111 124.893 362.484 125.288C362.858 125.683 363.151 126.163 363.364 126.728C363.588 127.293 363.7 127.939 363.7 128.664C363.7 129.379 363.588 130.019 363.364 130.584C363.151 131.149 362.858 131.629 362.484 132.024C362.111 132.408 361.679 132.701 361.188 132.904C360.708 133.107 360.202 133.208 359.668 133.208ZM359.668 131.992C360.042 131.992 360.383 131.912 360.692 131.752C361.002 131.592 361.268 131.368 361.492 131.08C361.716 130.792 361.887 130.445 362.004 130.04C362.132 129.624 362.196 129.165 362.196 128.664C362.196 128.163 362.132 127.709 362.004 127.304C361.887 126.888 361.716 126.531 361.492 126.232C361.268 125.933 361.002 125.704 360.692 125.544C360.383 125.384 360.042 125.304 359.668 125.304C359.295 125.304 358.954 125.384 358.644 125.544C358.335 125.704 358.068 125.933 357.844 126.232C357.631 126.531 357.46 126.888 357.332 127.304C357.215 127.709 357.156 128.163 357.156 128.664C357.156 129.165 357.215 129.624 357.332 130.04C357.46 130.445 357.631 130.792 357.844 131.08C358.068 131.368 358.335 131.592 358.644 131.752C358.954 131.912 359.295 131.992 359.668 131.992ZM365.995 120.264H367.451V133H365.995V120.264ZM373.746 133.208C373.213 133.208 372.701 133.107 372.21 132.904C371.73 132.701 371.304 132.408 370.93 132.024C370.557 131.629 370.258 131.149 370.034 130.584C369.821 130.019 369.714 129.379 369.714 128.664C369.714 127.939 369.821 127.293 370.034 126.728C370.258 126.163 370.557 125.683 370.93 125.288C371.304 124.893 371.73 124.595 372.21 124.392C372.701 124.189 373.213 124.088 373.746 124.088C374.28 124.088 374.786 124.189 375.266 124.392C375.757 124.595 376.189 124.893 376.562 125.288C376.936 125.683 377.229 126.163 377.442 126.728C377.666 127.293 377.778 127.939 377.778 128.664C377.778 129.379 377.666 130.019 377.442 130.584C377.229 131.149 376.936 131.629 376.562 132.024C376.189 132.408 375.757 132.701 375.266 132.904C374.786 133.107 374.28 133.208 373.746 133.208ZM373.746 131.992C374.12 131.992 374.461 131.912 374.77 131.752C375.08 131.592 375.346 131.368 375.57 131.08C375.794 130.792 375.965 130.445 376.082 130.04C376.21 129.624 376.274 129.165 376.274 128.664C376.274 128.163 376.21 127.709 376.082 127.304C375.965 126.888 375.794 126.531 375.57 126.232C375.346 125.933 375.08 125.704 374.77 125.544C374.461 125.384 374.12 125.304 373.746 125.304C373.373 125.304 373.032 125.384 372.722 125.544C372.413 125.704 372.146 125.933 371.922 126.232C371.709 126.531 371.538 126.888 371.41 127.304C371.293 127.709 371.234 128.163 371.234 128.664C371.234 129.165 371.293 129.624 371.41 130.04C371.538 130.445 371.709 130.792 371.922 131.08C372.146 131.368 372.413 131.592 372.722 131.752C373.032 131.912 373.373 131.992 373.746 131.992ZM381.274 124.312L381.402 125.896H381.45C381.759 125.341 382.122 124.904 382.538 124.584C382.964 124.253 383.423 124.088 383.914 124.088C384.106 124.088 384.271 124.104 384.41 124.136C384.559 124.157 384.703 124.205 384.842 124.28L384.57 125.56C384.42 125.507 384.287 125.469 384.17 125.448C384.052 125.427 383.903 125.416 383.722 125.416C383.551 125.416 383.364 125.453 383.162 125.528C382.959 125.592 382.762 125.704 382.57 125.864C382.378 126.013 382.191 126.216 382.01 126.472C381.828 126.728 381.668 127.043 381.53 127.416V133H380.074V124.312H381.274Z" fill="#222222"/>
<circle cx="344" cy="70" r="34.5" fill="white" stroke="black"/>
</svg>
