<svg width="494" height="154" viewBox="0 0 494 154" fill="none" xmlns="http://www.w3.org/2000/svg">
<rect x="341" y="1" width="152" height="152" rx="76" fill="white"/>
<rect x="341" y="1" width="152" height="152" rx="76" stroke="#F67499" stroke-width="2"/>
<path d="M395.814 47.16V49.128H390.918V51.864H395.078V53.848H390.918V57.016H395.99V59H388.55V47.16H395.814ZM398.202 46.232H400.538V59H398.202V46.232ZM407.136 59.224C406.518 59.224 405.936 59.1173 405.392 58.904C404.848 58.6907 404.374 58.3867 403.968 57.992C403.574 57.5867 403.259 57.096 403.024 56.52C402.8 55.9333 402.688 55.272 402.688 54.536C402.688 53.8107 402.806 53.16 403.04 52.584C403.275 51.9973 403.584 51.5013 403.968 51.096C404.363 50.68 404.811 50.3653 405.312 50.152C405.814 49.928 406.331 49.816 406.864 49.816C407.483 49.816 408.022 49.9227 408.48 50.136C408.95 50.3493 409.339 50.648 409.648 51.032C409.968 51.416 410.208 51.8693 410.368 52.392C410.528 52.9147 410.608 53.4853 410.608 54.104C410.608 54.3173 410.598 54.5253 410.576 54.728C410.555 54.92 410.528 55.0693 410.496 55.176H404.976C405.072 55.912 405.339 56.472 405.776 56.856C406.224 57.2293 406.784 57.416 407.456 57.416C407.83 57.416 408.176 57.3627 408.496 57.256C408.827 57.1493 409.152 56.9947 409.472 56.792L410.272 58.232C409.824 58.5413 409.334 58.7867 408.8 58.968C408.267 59.1387 407.712 59.224 407.136 59.224ZM408.592 53.624C408.592 53.016 408.454 52.536 408.176 52.184C407.899 51.8213 407.472 51.64 406.896 51.64C406.427 51.64 406.006 51.8107 405.632 52.152C405.259 52.4827 405.03 52.9733 404.944 53.624H408.592ZM415.697 62.888C415.175 62.888 414.684 62.84 414.225 62.744C413.767 62.6587 413.367 62.52 413.025 62.328C412.695 62.136 412.433 61.896 412.241 61.608C412.049 61.32 411.953 60.9787 411.953 60.584C411.953 60.2107 412.065 59.864 412.289 59.544C412.513 59.2347 412.828 58.9627 413.233 58.728V58.648C412.999 58.4987 412.801 58.3067 412.641 58.072C412.492 57.8267 412.417 57.5173 412.417 57.144C412.417 56.8027 412.513 56.488 412.705 56.2C412.908 55.9013 413.143 55.656 413.409 55.464V55.4C413.1 55.176 412.823 54.8613 412.577 54.456C412.343 54.0507 412.225 53.5867 412.225 53.064C412.225 52.5307 412.321 52.0667 412.513 51.672C412.716 51.2667 412.983 50.9253 413.313 50.648C413.655 50.3707 414.039 50.1627 414.465 50.024C414.903 49.8853 415.361 49.816 415.841 49.816C416.087 49.816 416.327 49.8373 416.561 49.88C416.796 49.9227 417.004 49.976 417.185 50.04H420.417V51.768H418.881C418.999 51.9173 419.095 52.1147 419.169 52.36C419.255 52.5947 419.297 52.8507 419.297 53.128C419.297 53.6293 419.207 54.072 419.025 54.456C418.844 54.8293 418.599 55.144 418.289 55.4C417.98 55.656 417.612 55.848 417.185 55.976C416.769 56.104 416.321 56.168 415.841 56.168C415.66 56.168 415.468 56.152 415.265 56.12C415.073 56.0773 414.881 56.024 414.689 55.96C414.561 56.0667 414.465 56.1787 414.401 56.296C414.337 56.4027 414.305 56.5467 414.305 56.728C414.305 56.9733 414.401 57.16 414.593 57.288C414.796 57.4053 415.169 57.464 415.713 57.464H417.233C418.332 57.464 419.159 57.64 419.713 57.992C420.279 58.3333 420.561 58.904 420.561 59.704C420.561 60.152 420.449 60.568 420.225 60.952C420.001 61.3467 419.676 61.688 419.249 61.976C418.833 62.264 418.327 62.488 417.729 62.648C417.132 62.808 416.455 62.888 415.697 62.888ZM415.841 54.712C416.236 54.712 416.567 54.5733 416.833 54.296C417.1 54.0187 417.233 53.608 417.233 53.064C417.233 52.52 417.1 52.1093 416.833 51.832C416.577 51.5547 416.247 51.416 415.841 51.416C415.436 51.416 415.1 51.5547 414.833 51.832C414.567 52.1093 414.433 52.52 414.433 53.064C414.433 53.608 414.567 54.0187 414.833 54.296C415.111 54.5733 415.447 54.712 415.841 54.712ZM416.049 61.4C416.721 61.4 417.265 61.272 417.681 61.016C418.108 60.76 418.321 60.456 418.321 60.104C418.321 59.784 418.193 59.5707 417.937 59.464C417.681 59.3573 417.313 59.304 416.833 59.304H415.745C415.468 59.304 415.228 59.2933 415.025 59.272C414.833 59.2507 414.657 59.2187 414.497 59.176C414.103 59.496 413.905 59.8427 413.905 60.216C413.905 60.5893 414.092 60.8773 414.465 61.08C414.849 61.2933 415.377 61.4 416.049 61.4ZM423.956 59.16C423.562 59.16 423.199 59.1013 422.868 58.984C422.538 58.856 422.255 58.68 422.02 58.456C421.796 58.2213 421.62 57.944 421.492 57.624C421.364 57.304 421.3 56.952 421.3 56.568C421.247 55.4693 421.626 54.6587 422.436 54.136C423.258 53.6027 424.596 53.3093 426.452 53.256C426.495 52.8827 426.426 52.504 426.244 52.12C426.052 51.8427 425.615 51.704 424.932 51.704C424.516 51.704 424.079 51.7787 423.62 51.928C423.172 52.0773 422.746 52.2853 422.34 52.552L421.636 50.872C422.127 50.5733 422.692 50.3227 423.332 50.12C423.983 49.9173 424.66 49.816 425.364 49.816C427.658 49.816 428.804 51.1333 428.804 53.768V59H426.884L426.708 58.088H426.66C426.276 58.4187 425.855 58.68 425.396 58.872C424.948 59.064 424.468 59.16 423.956 59.16ZM424.676 57.368C425.018 57.3573 425.327 57.2827 425.604 57.144C425.892 56.9947 426.175 56.7813 426.452 56.504V54.696C426.175 54.7173 425.898 54.744 425.62 54.776C425.354 54.7973 425.092 54.8293 424.836 54.872C424.324 54.9467 423.962 55.1013 423.748 55.336C423.546 55.5707 423.45 55.848 423.46 56.168C423.471 56.5413 423.588 56.8347 423.812 57.048C424.047 57.2613 424.335 57.368 424.676 57.368ZM433.122 50.04L433.282 51.224H433.346C433.74 50.84 434.172 50.5093 434.641 50.232C435.111 49.9547 435.65 49.816 436.258 49.816C437.228 49.816 437.932 50.136 438.37 50.776C438.807 51.4053 439.026 52.2853 439.026 53.416V59H436.674V53.704C436.674 53.0107 436.572 52.5253 436.37 52.248C436.178 51.9707 435.858 51.832 435.41 51.832C435.036 51.832 434.716 51.9173 434.45 52.088C434.183 52.2587 433.879 52.5093 433.538 52.84V59H431.202V50.04H433.122ZM444.732 59.224C444.198 59.224 443.745 59.144 443.372 58.984C442.998 58.824 442.694 58.6 442.46 58.312C442.225 58.0133 442.054 57.656 441.948 57.24C441.841 56.824 441.788 56.3653 441.788 55.864V51.896H440.524V50.152L441.9 50.04L442.172 47.64H444.14V50.04H446.348V51.896H444.14V55.864C444.14 56.8667 444.545 57.368 445.356 57.368C445.505 57.368 445.66 57.352 445.82 57.32C445.98 57.2773 446.118 57.2293 446.236 57.176L446.62 58.888C446.374 58.9733 446.097 59.048 445.788 59.112C445.478 59.1867 445.126 59.224 444.732 59.224ZM370.378 69.128V67.16H379.434V69.128H376.074V79H373.706V69.128H370.378ZM381.846 82.6L383.094 79.048L379.622 70.04H381.99L383.414 74.2C383.553 74.6053 383.681 75.016 383.798 75.432C383.915 75.848 384.038 76.28 384.166 76.728H384.246C384.353 76.312 384.459 75.8907 384.566 75.464C384.673 75.0373 384.779 74.616 384.886 74.2L386.118 70.04H388.374L385.27 79.256L384.166 82.6H381.846ZM391.786 70.04L391.946 70.968H392.01C392.383 70.648 392.794 70.376 393.242 70.152C393.7 69.928 394.17 69.816 394.65 69.816C395.204 69.816 395.695 69.928 396.122 70.152C396.559 70.3653 396.927 70.6693 397.226 71.064C397.535 71.4587 397.77 71.9387 397.93 72.504C398.09 73.0587 398.17 73.6827 398.17 74.376C398.17 75.144 398.063 75.832 397.85 76.44C397.636 77.0373 397.354 77.544 397.002 77.96C396.65 78.3653 396.244 78.68 395.786 78.904C395.327 79.1173 394.852 79.224 394.362 79.224C393.967 79.224 393.583 79.1387 393.21 78.968C392.836 78.7973 392.479 78.5573 392.138 78.248L392.202 79.72V82.44H389.866V70.04H391.786ZM393.834 77.288C394.378 77.288 394.831 77.0587 395.194 76.6C395.567 76.1307 395.754 75.4 395.754 74.408C395.754 73.544 395.61 72.888 395.322 72.44C395.044 71.9813 394.596 71.752 393.978 71.752C393.668 71.752 393.37 71.832 393.082 71.992C392.804 72.1413 392.511 72.3707 392.202 72.68V76.616C392.49 76.8613 392.772 77.0373 393.05 77.144C393.327 77.24 393.588 77.288 393.834 77.288ZM403.906 79.224C403.352 79.224 402.813 79.1173 402.29 78.904C401.768 78.6907 401.309 78.3867 400.914 77.992C400.52 77.5867 400.2 77.096 399.954 76.52C399.72 75.9333 399.602 75.272 399.602 74.536C399.602 73.7893 399.72 73.1227 399.954 72.536C400.2 71.9493 400.52 71.4587 400.914 71.064C401.309 70.6587 401.768 70.3493 402.29 70.136C402.813 69.9227 403.352 69.816 403.906 69.816C404.472 69.816 405.01 69.9227 405.522 70.136C406.045 70.3493 406.504 70.6587 406.898 71.064C407.293 71.4587 407.608 71.9493 407.842 72.536C408.088 73.1227 408.21 73.7893 408.21 74.536C408.21 75.272 408.088 75.9333 407.842 76.52C407.608 77.096 407.293 77.5867 406.898 77.992C406.504 78.3867 406.045 78.6907 405.522 78.904C405.01 79.1173 404.472 79.224 403.906 79.224ZM403.906 77.304C404.514 77.304 404.984 77.0533 405.314 76.552C405.645 76.0507 405.81 75.3787 405.81 74.536C405.81 73.672 405.645 72.9893 405.314 72.488C404.984 71.9867 404.514 71.736 403.906 71.736C403.298 71.736 402.829 71.9867 402.498 72.488C402.168 72.9893 402.002 73.672 402.002 74.536C402.002 75.3787 402.168 76.0507 402.498 76.552C402.829 77.0533 403.298 77.304 403.906 77.304ZM413.33 82.888C412.807 82.888 412.317 82.84 411.858 82.744C411.399 82.6587 410.999 82.52 410.658 82.328C410.327 82.136 410.066 81.896 409.874 81.608C409.682 81.32 409.586 80.9787 409.586 80.584C409.586 80.2107 409.698 79.864 409.922 79.544C410.146 79.2347 410.461 78.9627 410.866 78.728V78.648C410.631 78.4987 410.434 78.3067 410.274 78.072C410.125 77.8267 410.05 77.5173 410.05 77.144C410.05 76.8027 410.146 76.488 410.338 76.2C410.541 75.9013 410.775 75.656 411.042 75.464V75.4C410.733 75.176 410.455 74.8613 410.21 74.456C409.975 74.0507 409.858 73.5867 409.858 73.064C409.858 72.5307 409.954 72.0667 410.146 71.672C410.349 71.2667 410.615 70.9253 410.946 70.648C411.287 70.3707 411.671 70.1627 412.098 70.024C412.535 69.8853 412.994 69.816 413.474 69.816C413.719 69.816 413.959 69.8373 414.194 69.88C414.429 69.9227 414.637 69.976 414.818 70.04H418.05V71.768H416.514C416.631 71.9173 416.727 72.1147 416.802 72.36C416.887 72.5947 416.93 72.8507 416.93 73.128C416.93 73.6293 416.839 74.072 416.658 74.456C416.477 74.8293 416.231 75.144 415.922 75.4C415.613 75.656 415.245 75.848 414.818 75.976C414.402 76.104 413.954 76.168 413.474 76.168C413.293 76.168 413.101 76.152 412.898 76.12C412.706 76.0773 412.514 76.024 412.322 75.96C412.194 76.0667 412.098 76.1787 412.034 76.296C411.97 76.4027 411.938 76.5467 411.938 76.728C411.938 76.9733 412.034 77.16 412.226 77.288C412.429 77.4053 412.802 77.464 413.346 77.464H414.866C415.965 77.464 416.791 77.64 417.346 77.992C417.911 78.3333 418.194 78.904 418.194 79.704C418.194 80.152 418.082 80.568 417.858 80.952C417.634 81.3467 417.309 81.688 416.882 81.976C416.466 82.264 415.959 82.488 415.362 82.648C414.765 82.808 414.087 82.888 413.33 82.888ZM413.474 74.712C413.869 74.712 414.199 74.5733 414.466 74.296C414.733 74.0187 414.866 73.608 414.866 73.064C414.866 72.52 414.733 72.1093 414.466 71.832C414.21 71.5547 413.879 71.416 413.474 71.416C413.069 71.416 412.733 71.5547 412.466 71.832C412.199 72.1093 412.066 72.52 412.066 73.064C412.066 73.608 412.199 74.0187 412.466 74.296C412.743 74.5733 413.079 74.712 413.474 74.712ZM413.682 81.4C414.354 81.4 414.898 81.272 415.314 81.016C415.741 80.76 415.954 80.456 415.954 80.104C415.954 79.784 415.826 79.5707 415.57 79.464C415.314 79.3573 414.946 79.304 414.466 79.304H413.378C413.101 79.304 412.861 79.2933 412.658 79.272C412.466 79.2507 412.29 79.2187 412.13 79.176C411.735 79.496 411.538 79.8427 411.538 80.216C411.538 80.5893 411.725 80.8773 412.098 81.08C412.482 81.2933 413.01 81.4 413.682 81.4ZM421.645 70.04L421.805 71.624H421.869C422.2 71.0373 422.584 70.5893 423.021 70.28C423.469 69.9707 423.933 69.816 424.413 69.816C424.658 69.816 424.861 69.8373 425.021 69.88C425.181 69.912 425.33 69.9547 425.469 70.008L425.053 72.04C424.904 71.9867 424.754 71.9493 424.605 71.928C424.466 71.9067 424.306 71.896 424.125 71.896C423.773 71.896 423.405 72.0293 423.021 72.296C422.637 72.552 422.317 73.0053 422.061 73.656V79H419.725V70.04H421.645ZM428.402 79.16C428.007 79.16 427.644 79.1013 427.314 78.984C426.983 78.856 426.7 78.68 426.466 78.456C426.242 78.2213 426.066 77.944 425.938 77.624C425.81 77.304 425.746 76.952 425.746 76.568C425.692 75.4693 426.071 74.6587 426.882 74.136C427.703 73.6027 429.042 73.3093 430.898 73.256C430.94 72.8827 430.871 72.504 430.69 72.12C430.498 71.8427 430.06 71.704 429.378 71.704C428.962 71.704 428.524 71.7787 428.066 71.928C427.618 72.0773 427.191 72.2853 426.786 72.552L426.082 70.872C426.572 70.5733 427.138 70.3227 427.778 70.12C428.428 69.9173 429.106 69.816 429.81 69.816C432.103 69.816 433.25 71.1333 433.25 73.768V79H431.33L431.154 78.088H431.106C430.722 78.4187 430.3 78.68 429.842 78.872C429.394 79.064 428.914 79.16 428.402 79.16ZM429.122 77.368C429.463 77.3573 429.772 77.2827 430.05 77.144C430.338 76.9947 430.62 76.7813 430.898 76.504V74.696C430.62 74.7173 430.343 74.744 430.066 74.776C429.799 74.7973 429.538 74.8293 429.282 74.872C428.77 74.9467 428.407 75.1013 428.194 75.336C427.991 75.5707 427.895 75.848 427.906 76.168C427.916 76.5413 428.034 76.8347 428.258 77.048C428.492 77.2613 428.78 77.368 429.122 77.368ZM437.567 70.04L437.727 70.968H437.791C438.164 70.648 438.575 70.376 439.023 70.152C439.481 69.928 439.951 69.816 440.431 69.816C440.985 69.816 441.476 69.928 441.903 70.152C442.34 70.3653 442.708 70.6693 443.007 71.064C443.316 71.4587 443.551 71.9387 443.711 72.504C443.871 73.0587 443.951 73.6827 443.951 74.376C443.951 75.144 443.844 75.832 443.631 76.44C443.417 77.0373 443.135 77.544 442.783 77.96C442.431 78.3653 442.025 78.68 441.567 78.904C441.108 79.1173 440.633 79.224 440.143 79.224C439.748 79.224 439.364 79.1387 438.991 78.968C438.617 78.7973 438.26 78.5573 437.919 78.248L437.983 79.72V82.44H435.647V70.04H437.567ZM439.615 77.288C440.159 77.288 440.612 77.0587 440.975 76.6C441.348 76.1307 441.535 75.4 441.535 74.408C441.535 73.544 441.391 72.888 441.103 72.44C440.825 71.9813 440.377 71.752 439.759 71.752C439.449 71.752 439.151 71.832 438.863 71.992C438.585 72.1413 438.292 72.3707 437.983 72.68V76.616C438.271 76.8613 438.553 77.0373 438.831 77.144C439.108 77.24 439.369 77.288 439.615 77.288ZM448.28 66.232V69.448L448.184 71.128C448.546 70.7867 448.952 70.4827 449.4 70.216C449.858 69.9493 450.392 69.816 451 69.816C451.97 69.816 452.674 70.136 453.112 70.776C453.549 71.4053 453.768 72.2853 453.768 73.416V79H451.416V73.704C451.416 73.0107 451.314 72.5253 451.112 72.248C450.92 71.9707 450.6 71.832 450.152 71.832C449.778 71.832 449.458 71.9173 449.192 72.088C448.925 72.2587 448.621 72.5093 448.28 72.84V79H445.944V66.232H448.28ZM457.346 82.6L458.594 79.048L455.122 70.04H457.49L458.914 74.2C459.053 74.6053 459.181 75.016 459.298 75.432C459.415 75.848 459.538 76.28 459.666 76.728H459.746C459.853 76.312 459.959 75.8907 460.066 75.464C460.173 75.0373 460.279 74.616 460.386 74.2L461.618 70.04H463.874L460.77 79.256L459.666 82.6H457.346ZM355.444 106.268C354.781 105.185 354.268 104.061 353.904 102.894C353.54 101.718 353.358 100.425 353.358 99.016C353.358 97.616 353.54 96.3327 353.904 95.166C354.268 93.99 354.781 92.8607 355.444 91.778L356.732 92.324C356.144 93.3693 355.71 94.4473 355.43 95.558C355.159 96.6593 355.024 97.812 355.024 99.016C355.024 100.239 355.159 101.401 355.43 102.502C355.71 103.603 356.144 104.677 356.732 105.722L355.444 106.268ZM369.121 105.204H367.371V92.31H369.121V105.204ZM366.475 92.52V104.63H364.753V98.162H363.143V96.664H364.753V92.52H366.475ZM362.177 95.53C362.177 96.0527 362.214 96.5753 362.289 97.098C362.364 97.6113 362.49 98.106 362.667 98.582C362.854 99.0487 363.092 99.4827 363.381 99.884C363.68 100.285 364.048 100.631 364.487 100.92L363.479 102.348C362.919 102.012 362.466 101.583 362.121 101.06C361.776 100.528 361.5 99.9353 361.295 99.282C361.071 100.01 360.768 100.663 360.385 101.242C360.002 101.821 359.517 102.287 358.929 102.642L357.823 101.256C358.299 100.967 358.7 100.612 359.027 100.192C359.354 99.772 359.615 99.3147 359.811 98.82C360.016 98.3253 360.166 97.8027 360.259 97.252C360.352 96.7013 360.399 96.1507 360.399 95.6V93.43H362.177V95.53ZM377.814 98.652V97.168H379.872V95.726H377.814V94.256H379.872V92.31H381.72V101.858H379.872V98.652H377.814ZM377.716 99.94C377.315 100.015 376.918 100.075 376.526 100.122C376.134 100.159 375.728 100.192 375.308 100.22C374.888 100.239 374.44 100.253 373.964 100.262C373.497 100.271 372.984 100.276 372.424 100.276H371.43V95.964H375.238V94.662H371.416V93.192H377.058V97.35H373.264V98.792C373.693 98.792 374.09 98.7873 374.454 98.778C374.827 98.7593 375.182 98.736 375.518 98.708C375.863 98.68 376.199 98.6473 376.526 98.61C376.853 98.5633 377.184 98.512 377.52 98.456L377.716 99.94ZM382.042 104.966H373.11V101.102H374.958V103.496H382.042V104.966ZM392.695 102.012V92.296H394.557V102.012H392.695ZM392.051 100.108C390.716 100.295 389.395 100.416 388.089 100.472C386.791 100.528 385.466 100.556 384.113 100.556L383.875 99.086H385.471C386.021 99.086 386.581 99.0767 387.151 99.058V97.728H384.939V93.08H391.169V94.55H386.787V96.258H391.253V97.728H388.999V98.988C389.503 98.9693 389.997 98.946 390.483 98.918C390.968 98.8807 391.449 98.8387 391.925 98.792L392.051 100.108ZM394.893 104.98H385.821V101.312H387.683V103.51H394.893V104.98ZM409.964 98.722V105.218H408.116V92.31H409.964V97.196H411.84V98.722H409.964ZM402.222 100.808C403.127 100.808 403.972 100.785 404.756 100.738C405.549 100.691 406.366 100.603 407.206 100.472L407.374 101.942C406.879 102.017 406.398 102.077 405.932 102.124C405.465 102.171 404.994 102.208 404.518 102.236C404.042 102.255 403.552 102.269 403.048 102.278C402.553 102.287 402.026 102.292 401.466 102.292H400.374V93.374H406.436V94.872H402.222V96.972H406.254V98.414H402.222V100.808ZM423.43 105.232H421.582V92.296H423.43V105.232ZM416.5 93.206C416.986 93.206 417.434 93.3133 417.844 93.528C418.264 93.7427 418.624 94.0507 418.922 94.452C419.221 94.844 419.454 95.3247 419.622 95.894C419.8 96.454 419.888 97.0887 419.888 97.798C419.888 98.5073 419.8 99.1467 419.622 99.716C419.454 100.285 419.221 100.771 418.922 101.172C418.624 101.573 418.264 101.881 417.844 102.096C417.434 102.311 416.986 102.418 416.5 102.418C416.015 102.418 415.562 102.311 415.142 102.096C414.732 101.881 414.377 101.573 414.078 101.172C413.78 100.771 413.542 100.285 413.364 99.716C413.196 99.1467 413.112 98.5073 413.112 97.798C413.112 97.0887 413.196 96.454 413.364 95.894C413.542 95.3247 413.78 94.844 414.078 94.452C414.377 94.0507 414.732 93.7427 415.142 93.528C415.562 93.3133 416.015 93.206 416.5 93.206ZM416.5 94.872C416.024 94.872 415.637 95.1193 415.338 95.614C415.04 96.1087 414.89 96.8367 414.89 97.798C414.89 98.7593 415.04 99.492 415.338 99.996C415.637 100.491 416.024 100.738 416.5 100.738C416.976 100.738 417.364 100.491 417.662 99.996C417.961 99.492 418.11 98.7593 418.11 97.798C418.11 96.8367 417.961 96.1087 417.662 95.614C417.364 95.1193 416.976 94.872 416.5 94.872ZM437.303 103.748H425.627V102.264H430.513V99.968H426.607V98.498H428.287V94.844H426.537V93.374H436.337V94.844H434.587V98.498H436.295V99.968H432.361V102.264H437.303V103.748ZM432.753 98.498V94.844H430.121V98.498H432.753ZM439.71 94.97V93.5H448.74V95.026C448.74 95.474 448.736 95.9267 448.726 96.384C448.726 96.8413 448.712 97.322 448.684 97.826C448.656 98.3207 448.61 98.848 448.544 99.408C448.479 99.968 448.386 100.579 448.264 101.242L446.43 101.074C446.542 100.458 446.626 99.8793 446.682 99.338C446.748 98.7967 446.794 98.2787 446.822 97.784C446.86 97.2893 446.878 96.818 446.878 96.37C446.888 95.9127 446.892 95.4647 446.892 95.026V94.97H439.71ZM450.168 103.524H438.506V102.012H450.168V103.524ZM462.445 105.19H460.695V98.652H459.533V104.588H457.811V92.534H459.533V97.168H460.695V92.296H462.445V105.19ZM453.527 100.836C454.115 100.817 454.699 100.789 455.277 100.752C455.856 100.715 456.467 100.645 457.111 100.542L457.251 102.04C456.421 102.171 455.637 102.255 454.899 102.292C454.171 102.329 453.42 102.348 452.645 102.348H451.735V97.098H454.815V95.04H451.721V93.556H456.593V98.554H453.527V100.836ZM475.002 105.218H473.14V92.324H475.002V105.218ZM470.704 100.556C470.975 100.537 471.241 100.519 471.502 100.5C471.773 100.472 472.043 100.439 472.314 100.402L472.426 101.732C471.745 101.844 471.054 101.937 470.354 102.012C469.654 102.077 468.959 102.129 468.268 102.166C467.587 102.203 466.919 102.231 466.266 102.25C465.622 102.259 465.011 102.264 464.432 102.264L464.236 100.752H465.692V94.984H464.572V93.5H471.81V94.984H470.704V100.556ZM467.484 100.71C467.727 100.71 467.965 100.705 468.198 100.696C468.441 100.687 468.683 100.677 468.926 100.668V94.984H467.484V100.71ZM477.269 105.722C477.857 104.677 478.286 103.603 478.557 102.502C478.837 101.401 478.977 100.239 478.977 99.016C478.977 97.812 478.837 96.6593 478.557 95.558C478.286 94.4473 477.857 93.3693 477.269 92.324L478.543 91.778C479.215 92.8607 479.733 93.99 480.097 95.166C480.461 96.3327 480.643 97.616 480.643 99.016C480.643 100.425 480.456 101.718 480.083 102.894C479.719 104.061 479.206 105.185 478.543 106.268L477.269 105.722Z" fill="#F67499"/>
<rect x="1" y="1" width="152" height="152" rx="76" fill="white"/>
<rect x="1" y="1" width="152" height="152" rx="76" stroke="#F67499" stroke-width="2"/>
<path d="M36.3613 61.16L38.3773 66.696C38.5053 67.0693 38.6279 67.448 38.7453 67.832L39.0973 68.984H39.1773C39.3053 68.6 39.4226 68.216 39.5293 67.832C39.6466 67.448 39.7693 67.0693 39.8973 66.696L41.8653 61.16H44.4893V73H42.3293V68.056C42.3293 67.7787 42.3346 67.4747 42.3453 67.144C42.3666 66.8027 42.3933 66.4613 42.4253 66.12C42.4573 65.768 42.4893 65.4267 42.5213 65.096C42.5533 64.7547 42.5853 64.4453 42.6173 64.168H42.5533L41.5933 66.952L39.7693 71.928H38.4093L36.5693 66.952L35.6253 64.168H35.5613C35.5933 64.4453 35.6253 64.7547 35.6573 65.096C35.6999 65.4267 35.7319 65.768 35.7533 66.12C35.7853 66.4613 35.8119 66.8027 35.8333 67.144C35.8546 67.4747 35.8653 67.7787 35.8653 68.056V73H33.7373V61.16H36.3613ZM46.9935 62.6V60.328H49.3295V62.6H46.9935ZM46.9775 64.04H49.3135V73H46.9775V64.04ZM53.5434 64.04L53.7034 65.224H53.7674C54.162 64.84 54.594 64.5093 55.0634 64.232C55.5327 63.9547 56.0714 63.816 56.6794 63.816C57.65 63.816 58.354 64.136 58.7914 64.776C59.2287 65.4053 59.4474 66.2853 59.4474 67.416V73H57.0954V67.704C57.0954 67.0107 56.994 66.5253 56.7914 66.248C56.5994 65.9707 56.2794 65.832 55.8314 65.832C55.458 65.832 55.138 65.9173 54.8714 66.088C54.6047 66.2587 54.3007 66.5093 53.9594 66.84V73H51.6234V64.04H53.5434ZM61.6654 62.6V60.328H64.0014V62.6H61.6654ZM61.6494 64.04H63.9854V73H61.6494V64.04ZM68.2153 64.04L68.3753 65.24H68.4393C68.8126 64.8453 69.2179 64.5093 69.6553 64.232C70.0926 63.9547 70.6046 63.816 71.1913 63.816C71.8313 63.816 72.3486 63.9493 72.7433 64.216C73.1379 64.4827 73.4419 64.872 73.6553 65.384C74.0606 64.936 74.4873 64.5627 74.9353 64.264C75.3939 63.9653 75.9166 63.816 76.5033 63.816C77.4633 63.816 78.1673 64.136 78.6153 64.776C79.0633 65.4053 79.2873 66.2853 79.2873 67.416V73H76.9353V67.704C76.9353 67 76.8339 66.5147 76.6313 66.248C76.4286 65.9707 76.1139 65.832 75.6873 65.832C75.1753 65.832 74.5993 66.168 73.9593 66.84V73H71.6073V67.704C71.6073 67 71.5059 66.5147 71.3033 66.248C71.1006 65.9707 70.7859 65.832 70.3593 65.832C69.8473 65.832 69.2713 66.168 68.6313 66.84V73H66.2953V64.04H68.2153ZM83.9251 73.16C83.5305 73.16 83.1678 73.1013 82.8371 72.984C82.5065 72.856 82.2238 72.68 81.9891 72.456C81.7651 72.2213 81.5891 71.944 81.4611 71.624C81.3331 71.304 81.2691 70.952 81.2691 70.568C81.2158 69.4693 81.5945 68.6587 82.4051 68.136C83.2265 67.6027 84.5651 67.3093 86.4211 67.256C86.4638 66.8827 86.3945 66.504 86.2131 66.12C86.0211 65.8427 85.5838 65.704 84.9011 65.704C84.4851 65.704 84.0478 65.7787 83.5891 65.928C83.1411 66.0773 82.7145 66.2853 82.3091 66.552L81.6051 64.872C82.0958 64.5733 82.6611 64.3227 83.3011 64.12C83.9518 63.9173 84.6291 63.816 85.3331 63.816C87.6265 63.816 88.7731 65.1333 88.7731 67.768V73H86.8531L86.6771 72.088H86.6291C86.2451 72.4187 85.8238 72.68 85.3651 72.872C84.9171 73.064 84.4371 73.16 83.9251 73.16ZM84.6451 71.368C84.9865 71.3573 85.2958 71.2827 85.5731 71.144C85.8611 70.9947 86.1438 70.7813 86.4211 70.504V68.696C86.1438 68.7173 85.8665 68.744 85.5891 68.776C85.3225 68.7973 85.0611 68.8293 84.8051 68.872C84.2931 68.9467 83.9305 69.1013 83.7171 69.336C83.5145 69.5707 83.4185 69.848 83.4291 70.168C83.4398 70.5413 83.5571 70.8347 83.7811 71.048C84.0158 71.2613 84.3038 71.368 84.6451 71.368ZM91.1703 60.232H93.5063V73H91.1703V60.232ZM96.0091 62.6V60.328H98.3451V62.6H96.0091ZM95.9931 64.04H98.3291V73H95.9931V64.04ZM103.199 73.224C102.591 73.224 101.983 73.1067 101.375 72.872C100.767 72.6373 100.239 72.3333 99.791 71.96L100.863 70.488C101.268 70.7973 101.663 71.0373 102.047 71.208C102.442 71.3787 102.847 71.464 103.263 71.464C103.711 71.464 104.036 71.3787 104.239 71.208C104.452 71.0267 104.559 70.7973 104.559 70.52C104.559 70.3493 104.506 70.2053 104.399 70.088C104.292 69.96 104.148 69.848 103.967 69.752C103.796 69.6453 103.599 69.5493 103.375 69.464C103.151 69.368 102.922 69.272 102.687 69.176C102.399 69.0693 102.111 68.9467 101.823 68.808C101.535 68.6587 101.274 68.4827 101.039 68.28C100.804 68.0667 100.612 67.8213 100.463 67.544C100.314 67.2667 100.239 66.9413 100.239 66.568C100.239 66.1627 100.319 65.7947 100.479 65.464C100.639 65.1227 100.863 64.8293 101.151 64.584C101.439 64.3387 101.786 64.152 102.191 64.024C102.607 63.8853 103.066 63.816 103.567 63.816C104.239 63.816 104.82 63.9333 105.311 64.168C105.812 64.392 106.25 64.6427 106.623 64.92L105.567 66.344C105.247 66.12 104.927 65.9387 104.607 65.8C104.298 65.6507 103.972 65.576 103.631 65.576C103.226 65.576 102.927 65.656 102.735 65.816C102.543 65.976 102.447 66.184 102.447 66.44C102.447 66.6 102.495 66.7387 102.591 66.856C102.698 66.9733 102.836 67.08 103.007 67.176C103.178 67.272 103.37 67.3627 103.583 67.448C103.807 67.5227 104.036 67.6027 104.271 67.688C104.57 67.8053 104.863 67.9333 105.151 68.072C105.45 68.2107 105.716 68.3813 105.951 68.584C106.196 68.7867 106.394 69.0373 106.543 69.336C106.692 69.624 106.767 69.976 106.767 70.392C106.767 70.7867 106.687 71.1547 106.527 71.496C106.378 71.8373 106.154 72.136 105.855 72.392C105.556 72.648 105.183 72.8507 104.735 73C104.298 73.1493 103.786 73.224 103.199 73.224ZM110.481 64.04L110.641 65.24H110.705C111.078 64.8453 111.484 64.5093 111.921 64.232C112.358 63.9547 112.87 63.816 113.457 63.816C114.097 63.816 114.614 63.9493 115.009 64.216C115.404 64.4827 115.708 64.872 115.921 65.384C116.326 64.936 116.753 64.5627 117.201 64.264C117.66 63.9653 118.182 63.816 118.769 63.816C119.729 63.816 120.433 64.136 120.881 64.776C121.329 65.4053 121.553 66.2853 121.553 67.416V73H119.201V67.704C119.201 67 119.1 66.5147 118.897 66.248C118.694 65.9707 118.38 65.832 117.953 65.832C117.441 65.832 116.865 66.168 116.225 66.84V73H113.873V67.704C113.873 67 113.772 66.5147 113.569 66.248C113.366 65.9707 113.052 65.832 112.625 65.832C112.113 65.832 111.537 66.168 110.897 66.84V73H108.561V64.04H110.481ZM43.2877 100.268C42.6251 99.1853 42.1117 98.0607 41.7477 96.894C41.3837 95.718 41.2017 94.4253 41.2017 93.016C41.2017 91.616 41.3837 90.3327 41.7477 89.166C42.1117 87.99 42.6251 86.8607 43.2877 85.778L44.5757 86.324C43.9877 87.3693 43.5537 88.4473 43.2737 89.558C43.0031 90.6593 42.8677 91.812 42.8677 93.016C42.8677 94.2387 43.0031 95.4007 43.2737 96.502C43.5537 97.6033 43.9877 98.6767 44.5757 99.722L43.2877 100.268ZM56.5867 99.232H54.7387V86.31H56.5867V99.232ZM52.7367 96.138H46.5347V87.472H52.7367V96.138ZM48.3547 94.682H50.9167V88.928H48.3547V94.682ZM69.5496 99.19H67.7016V86.296H69.5496V99.19ZM61.2896 94.444C62.139 94.4253 63.0116 94.374 63.9076 94.29C64.813 94.206 65.7463 94.0707 66.7076 93.884L66.9036 95.424C65.8023 95.6573 64.7243 95.816 63.6696 95.9C62.615 95.984 61.593 96.026 60.6036 96.026H59.4556V87.528H61.2896V94.444ZM72.1945 92.358V86.898H78.2985V88.872H80.5945V86.31H82.4425V92.764H80.5945V90.328H78.2985V92.358H72.1945ZM74.0145 88.354V90.916H76.4925V88.354H74.0145ZM82.8065 99.05H73.9585V95.48H80.6085V94.724H73.9305V93.31H82.4425V96.81H75.7785V97.622H82.8065V99.05ZM95.2655 99.232H93.4175V86.296H95.2655V99.232ZM87.1175 94.71C88.0975 94.71 89.0168 94.6773 89.8755 94.612C90.7341 94.5467 91.6161 94.4393 92.5215 94.29L92.7175 95.788C92.1855 95.8813 91.6675 95.9607 91.1635 96.026C90.6595 96.082 90.1508 96.1287 89.6375 96.166C89.1241 96.194 88.6015 96.2127 88.0695 96.222C87.5375 96.2313 86.9775 96.236 86.3895 96.236H85.2275V90.93H89.4135V88.872H85.2135V87.402H91.3035V92.386H87.1175V94.71ZM97.9244 90.244C98.531 90.188 99.0677 90.0993 99.5344 89.978C100.001 89.8473 100.398 89.6933 100.724 89.516C101.051 89.3387 101.312 89.1473 101.508 88.942C101.704 88.7273 101.84 88.508 101.914 88.284H98.4844V86.814H108.018V88.284H104.574C104.705 88.732 105.097 89.1427 105.75 89.516C106.413 89.8893 107.356 90.132 108.578 90.244L107.934 91.686C106.665 91.574 105.648 91.308 104.882 90.888C104.126 90.468 103.58 89.95 103.244 89.334C102.899 89.95 102.344 90.468 101.578 90.888C100.822 91.308 99.8144 91.574 98.5544 91.686L97.9244 90.244ZM109.068 93.618H97.4204V92.148H109.068V93.618ZM107.682 94.57V99.05H98.7784V94.57H107.682ZM105.862 97.608V96.026H100.584V97.608H105.862ZM110.425 99.722C111.013 98.6767 111.443 97.6033 111.713 96.502C111.993 95.4007 112.133 94.2387 112.133 93.016C112.133 91.812 111.993 90.6593 111.713 89.558C111.443 88.4473 111.013 87.3693 110.425 86.324L111.699 85.778C112.371 86.8607 112.889 87.99 113.253 89.166C113.617 90.3327 113.799 91.616 113.799 93.016C113.799 94.4253 113.613 95.718 113.239 96.894C112.875 98.0607 112.362 99.1853 111.699 100.268L110.425 99.722Z" fill="#F67499"/>
<rect x="171" y="1" width="152" height="152" rx="76" fill="white"/>
<rect x="171" y="1" width="152" height="152" rx="76" stroke="#F67499" stroke-width="2"/>
<path d="M218.066 47.16V59H215.698V47.16H218.066ZM222.707 50.04L222.867 51.224H222.931C223.326 50.84 223.758 50.5093 224.227 50.232C224.697 49.9547 225.235 49.816 225.843 49.816C226.814 49.816 227.518 50.136 227.955 50.776C228.393 51.4053 228.611 52.2853 228.611 53.416V59H226.259V53.704C226.259 53.0107 226.158 52.5253 225.955 52.248C225.763 51.9707 225.443 51.832 224.995 51.832C224.622 51.832 224.302 51.9173 224.035 52.088C223.769 52.2587 223.465 52.5093 223.123 52.84V59H220.787V50.04H222.707ZM234.317 59.224C233.784 59.224 233.331 59.144 232.957 58.984C232.584 58.824 232.28 58.6 232.045 58.312C231.811 58.0133 231.64 57.656 231.533 57.24C231.427 56.824 231.373 56.3653 231.373 55.864V51.896H230.109V50.152L231.485 50.04L231.757 47.64H233.725V50.04H235.933V51.896H233.725V55.864C233.725 56.8667 234.131 57.368 234.941 57.368C235.091 57.368 235.245 57.352 235.405 57.32C235.565 57.2773 235.704 57.2293 235.821 57.176L236.205 58.888C235.96 58.9733 235.683 59.048 235.373 59.112C235.064 59.1867 234.712 59.224 234.317 59.224ZM240.412 59.224C239.452 59.224 238.754 58.9093 238.316 58.28C237.879 57.64 237.66 56.76 237.66 55.64V50.04H240.012V55.336C240.012 56.04 240.108 56.5307 240.3 56.808C240.492 57.0747 240.812 57.208 241.26 57.208C241.634 57.208 241.954 57.1227 242.22 56.952C242.487 56.7813 242.775 56.4933 243.084 56.088V50.04H245.436V59H243.516L243.34 57.72H243.276C242.892 58.1787 242.471 58.5467 242.012 58.824C241.564 59.0907 241.031 59.224 240.412 59.224ZM247.736 48.6V46.328H250.072V48.6H247.736ZM247.72 50.04H250.056V59H247.72V50.04ZM255.646 59.224C255.112 59.224 254.659 59.144 254.286 58.984C253.912 58.824 253.608 58.6 253.374 58.312C253.139 58.0133 252.968 57.656 252.862 57.24C252.755 56.824 252.702 56.3653 252.702 55.864V51.896H251.438V50.152L252.814 50.04L253.086 47.64H255.054V50.04H257.262V51.896H255.054V55.864C255.054 56.8667 255.459 57.368 256.27 57.368C256.419 57.368 256.574 57.352 256.734 57.32C256.894 57.2773 257.032 57.2293 257.15 57.176L257.534 58.888C257.288 58.9733 257.011 59.048 256.702 59.112C256.392 59.1867 256.04 59.224 255.646 59.224ZM258.876 48.6V46.328H261.212V48.6H258.876ZM258.86 50.04H261.196V59H258.86V50.04ZM264.834 50.04L266.146 54.504C266.264 54.952 266.381 55.4053 266.498 55.864C266.626 56.312 266.749 56.7653 266.866 57.224H266.946C267.064 56.7653 267.181 56.312 267.298 55.864C267.426 55.4053 267.549 54.952 267.666 54.504L268.978 50.04H271.234L268.242 59H265.522L262.466 50.04H264.834ZM276.613 59.224C275.994 59.224 275.413 59.1173 274.869 58.904C274.325 58.6907 273.85 58.3867 273.445 57.992C273.05 57.5867 272.736 57.096 272.501 56.52C272.277 55.9333 272.165 55.272 272.165 54.536C272.165 53.8107 272.282 53.16 272.517 52.584C272.752 51.9973 273.061 51.5013 273.445 51.096C273.84 50.68 274.288 50.3653 274.789 50.152C275.29 49.928 275.808 49.816 276.341 49.816C276.96 49.816 277.498 49.9227 277.957 50.136C278.426 50.3493 278.816 50.648 279.125 51.032C279.445 51.416 279.685 51.8693 279.845 52.392C280.005 52.9147 280.085 53.4853 280.085 54.104C280.085 54.3173 280.074 54.5253 280.053 54.728C280.032 54.92 280.005 55.0693 279.973 55.176H274.453C274.549 55.912 274.816 56.472 275.253 56.856C275.701 57.2293 276.261 57.416 276.933 57.416C277.306 57.416 277.653 57.3627 277.973 57.256C278.304 57.1493 278.629 56.9947 278.949 56.792L279.749 58.232C279.301 58.5413 278.81 58.7867 278.277 58.968C277.744 59.1387 277.189 59.224 276.613 59.224ZM278.069 53.624C278.069 53.016 277.93 52.536 277.653 52.184C277.376 51.8213 276.949 51.64 276.373 51.64C275.904 51.64 275.482 51.8107 275.109 52.152C274.736 52.4827 274.506 52.9733 274.421 53.624H278.069ZM223.926 67.16V77.016H228.726V79H221.558V67.16H223.926ZM232.808 79.16C232.413 79.16 232.051 79.1013 231.72 78.984C231.389 78.856 231.107 78.68 230.872 78.456C230.648 78.2213 230.472 77.944 230.344 77.624C230.216 77.304 230.152 76.952 230.152 76.568C230.099 75.4693 230.477 74.6587 231.288 74.136C232.109 73.6027 233.448 73.3093 235.304 73.256C235.347 72.8827 235.277 72.504 235.096 72.12C234.904 71.8427 234.467 71.704 233.784 71.704C233.368 71.704 232.931 71.7787 232.472 71.928C232.024 72.0773 231.597 72.2853 231.192 72.552L230.488 70.872C230.979 70.5733 231.544 70.3227 232.184 70.12C232.835 69.9173 233.512 69.816 234.216 69.816C236.509 69.816 237.656 71.1333 237.656 73.768V79H235.736L235.56 78.088H235.512C235.128 78.4187 234.707 78.68 234.248 78.872C233.8 79.064 233.32 79.16 232.808 79.16ZM233.528 77.368C233.869 77.3573 234.179 77.2827 234.456 77.144C234.744 76.9947 235.027 76.7813 235.304 76.504V74.696C235.027 74.7173 234.749 74.744 234.472 74.776C234.205 74.7973 233.944 74.8293 233.688 74.872C233.176 74.9467 232.813 75.1013 232.6 75.336C232.397 75.5707 232.301 75.848 232.312 76.168C232.323 76.5413 232.44 76.8347 232.664 77.048C232.899 77.2613 233.187 77.368 233.528 77.368ZM241.221 82.6L242.469 79.048L238.997 70.04H241.365L242.789 74.2C242.928 74.6053 243.056 75.016 243.173 75.432C243.29 75.848 243.413 76.28 243.541 76.728H243.621C243.728 76.312 243.834 75.8907 243.941 75.464C244.048 75.0373 244.154 74.616 244.261 74.2L245.493 70.04H247.749L244.645 79.256L243.541 82.6H241.221ZM252.985 79.224C252.43 79.224 251.891 79.1173 251.369 78.904C250.846 78.6907 250.387 78.3867 249.993 77.992C249.598 77.5867 249.278 77.096 249.033 76.52C248.798 75.9333 248.681 75.272 248.681 74.536C248.681 73.7893 248.798 73.1227 249.033 72.536C249.278 71.9493 249.598 71.4587 249.993 71.064C250.387 70.6587 250.846 70.3493 251.369 70.136C251.891 69.9227 252.43 69.816 252.985 69.816C253.55 69.816 254.089 69.9227 254.601 70.136C255.123 70.3493 255.582 70.6587 255.977 71.064C256.371 71.4587 256.686 71.9493 256.921 72.536C257.166 73.1227 257.289 73.7893 257.289 74.536C257.289 75.272 257.166 75.9333 256.921 76.52C256.686 77.096 256.371 77.5867 255.977 77.992C255.582 78.3867 255.123 78.6907 254.601 78.904C254.089 79.1173 253.55 79.224 252.985 79.224ZM252.985 77.304C253.593 77.304 254.062 77.0533 254.393 76.552C254.723 76.0507 254.889 75.3787 254.889 74.536C254.889 73.672 254.723 72.9893 254.393 72.488C254.062 71.9867 253.593 71.736 252.985 71.736C252.377 71.736 251.907 71.9867 251.577 72.488C251.246 72.9893 251.081 73.672 251.081 74.536C251.081 75.3787 251.246 76.0507 251.577 76.552C251.907 77.0533 252.377 77.304 252.985 77.304ZM261.912 79.224C260.952 79.224 260.254 78.9093 259.816 78.28C259.379 77.64 259.16 76.76 259.16 75.64V70.04H261.512V75.336C261.512 76.04 261.608 76.5307 261.8 76.808C261.992 77.0747 262.312 77.208 262.76 77.208C263.134 77.208 263.454 77.1227 263.72 76.952C263.987 76.7813 264.275 76.4933 264.584 76.088V70.04H266.936V79H265.016L264.84 77.72H264.776C264.392 78.1787 263.971 78.5467 263.512 78.824C263.064 79.0907 262.531 79.224 261.912 79.224ZM272.724 79.224C272.19 79.224 271.737 79.144 271.364 78.984C270.99 78.824 270.686 78.6 270.452 78.312C270.217 78.0133 270.046 77.656 269.94 77.24C269.833 76.824 269.78 76.3653 269.78 75.864V71.896H268.516V70.152L269.892 70.04L270.164 67.64H272.132V70.04H274.34V71.896H272.132V75.864C272.132 76.8667 272.537 77.368 273.348 77.368C273.497 77.368 273.652 77.352 273.812 77.32C273.972 77.2773 274.11 77.2293 274.228 77.176L274.612 78.888C274.366 78.9733 274.089 79.048 273.78 79.112C273.47 79.1867 273.118 79.224 272.724 79.224ZM192.383 106.268C191.721 105.185 191.207 104.061 190.843 102.894C190.479 101.718 190.297 100.425 190.297 99.016C190.297 97.616 190.479 96.3327 190.843 95.166C191.207 93.99 191.721 92.8607 192.383 91.778L193.671 92.324C193.083 93.3693 192.649 94.4473 192.369 95.558C192.099 96.6593 191.963 97.812 191.963 99.016C191.963 100.239 192.099 101.401 192.369 102.502C192.649 103.603 193.083 104.677 193.671 105.722L192.383 106.268ZM205.71 100.08H203.848V92.31H205.71V100.08ZM202.098 99.646C201.37 99.422 200.764 99.0953 200.278 98.666C199.793 98.2273 199.401 97.714 199.102 97.126C198.813 97.77 198.412 98.33 197.898 98.806C197.385 99.282 196.75 99.6413 195.994 99.884L195.056 98.442C195.579 98.274 196.032 98.05 196.414 97.77C196.797 97.49 197.114 97.1773 197.366 96.832C197.618 96.4867 197.805 96.118 197.926 95.726C198.057 95.334 198.127 94.9373 198.136 94.536H195.546V93.08H202.56V94.536H200.012C200.022 94.9093 200.087 95.2827 200.208 95.656C200.339 96.0293 200.526 96.3793 200.768 96.706C201.011 97.0233 201.319 97.3173 201.692 97.588C202.075 97.8493 202.523 98.064 203.036 98.232L202.098 99.646ZM205.71 100.654V105.218H203.848V102.124H196.932V100.654H205.71ZM219.709 97.756H218.169V101.956H216.321V92.296H218.169V96.23H219.709V97.756ZM212.961 97.63C213.064 97.014 213.134 96.4727 213.171 96.006C213.209 95.5393 213.232 95.11 213.241 94.718H208.439V93.248H215.061V94.046C215.061 94.494 215.047 95.0353 215.019 95.67C215.001 96.2953 214.917 97.0187 214.767 97.84L212.961 97.63ZM215.733 99.674C215.071 99.7953 214.389 99.8933 213.689 99.968C212.999 100.043 212.313 100.099 211.631 100.136C210.95 100.173 210.287 100.201 209.643 100.22C209.009 100.229 208.416 100.234 207.865 100.234L207.697 98.764H208.831C209.223 98.764 209.629 98.7593 210.049 98.75V96.244H211.855V98.68C212.499 98.652 213.134 98.6147 213.759 98.568C214.385 98.512 215.005 98.442 215.621 98.358L215.733 99.674ZM218.575 103.51V104.98H209.573V101.102H211.421V103.51H218.575ZM231.538 99.982H229.69V96.874H227.786V95.39H229.69V92.324H231.538V99.982ZM227.632 99.632C226.923 99.3987 226.326 99.0673 225.84 98.638C225.355 98.1993 224.977 97.686 224.706 97.098C224.417 97.742 224.02 98.3067 223.516 98.792C223.012 99.2773 222.382 99.6413 221.626 99.884L220.688 98.428C221.211 98.2507 221.659 98.022 222.032 97.742C222.415 97.462 222.728 97.1493 222.97 96.804C223.222 96.4493 223.409 96.076 223.53 95.684C223.652 95.292 223.717 94.8953 223.726 94.494H221.192V93.024H228.122V94.494H225.616C225.626 94.858 225.686 95.2267 225.798 95.6C225.92 95.964 226.097 96.314 226.33 96.65C226.573 96.9767 226.876 97.2753 227.24 97.546C227.604 97.8073 228.034 98.022 228.528 98.19L227.632 99.632ZM231.538 100.556V105.218H229.69V102.026H222.746V100.556H231.538ZM242.485 101.578V92.324H244.347V101.578H242.485ZM240.833 96.412C240.833 96.8787 240.744 97.3127 240.567 97.714C240.39 98.1153 240.142 98.4607 239.825 98.75C239.508 99.0393 239.134 99.268 238.705 99.436C238.285 99.5947 237.828 99.674 237.333 99.674C236.838 99.674 236.376 99.5947 235.947 99.436C235.518 99.268 235.144 99.0393 234.827 98.75C234.519 98.4607 234.272 98.1153 234.085 97.714C233.908 97.3127 233.819 96.8787 233.819 96.412C233.819 95.936 233.908 95.4973 234.085 95.096C234.272 94.6947 234.519 94.3493 234.827 94.06C235.144 93.7707 235.518 93.5467 235.947 93.388C236.376 93.22 236.838 93.136 237.333 93.136C237.828 93.136 238.285 93.22 238.705 93.388C239.134 93.5467 239.508 93.7707 239.825 94.06C240.142 94.3493 240.39 94.6947 240.567 95.096C240.744 95.4973 240.833 95.936 240.833 96.412ZM235.625 96.412C235.625 96.944 235.788 97.3547 236.115 97.644C236.451 97.9333 236.857 98.078 237.333 98.078C237.818 98.078 238.22 97.9333 238.537 97.644C238.864 97.3547 239.027 96.944 239.027 96.412C239.027 95.88 238.864 95.4693 238.537 95.18C238.22 94.8813 237.818 94.732 237.333 94.732C236.857 94.732 236.451 94.8813 236.115 95.18C235.788 95.4693 235.625 95.88 235.625 96.412ZM244.669 104.98H235.765V100.668H237.613V103.51H244.669V104.98ZM260.748 105.19H258.998V92.296H260.748V105.19ZM258.088 92.534V104.602H256.38V98.204H255.106V96.692H256.38V92.534H258.088ZM251.83 100.682C252.446 100.663 253.048 100.635 253.636 100.598C254.224 100.551 254.845 100.477 255.498 100.374L255.652 101.858C254.821 102.007 254.028 102.101 253.272 102.138C252.525 102.175 251.751 102.194 250.948 102.194H250.038V97.056H252.796V95.04H250.024V93.57H254.588V98.512H251.83V100.682ZM273.249 105.232H271.401V92.296H273.249V105.232ZM266.319 93.206C266.804 93.206 267.252 93.3133 267.663 93.528C268.083 93.7427 268.442 94.0507 268.741 94.452C269.04 94.844 269.273 95.3247 269.441 95.894C269.618 96.454 269.707 97.0887 269.707 97.798C269.707 98.5073 269.618 99.1467 269.441 99.716C269.273 100.285 269.04 100.771 268.741 101.172C268.442 101.573 268.083 101.881 267.663 102.096C267.252 102.311 266.804 102.418 266.319 102.418C265.834 102.418 265.381 102.311 264.961 102.096C264.55 101.881 264.196 101.573 263.897 101.172C263.598 100.771 263.36 100.285 263.183 99.716C263.015 99.1467 262.931 98.5073 262.931 97.798C262.931 97.0887 263.015 96.454 263.183 95.894C263.36 95.3247 263.598 94.844 263.897 94.452C264.196 94.0507 264.55 93.7427 264.961 93.528C265.381 93.3133 265.834 93.206 266.319 93.206ZM266.319 94.872C265.843 94.872 265.456 95.1193 265.157 95.614C264.858 96.1087 264.709 96.8367 264.709 97.798C264.709 98.7593 264.858 99.492 265.157 99.996C265.456 100.491 265.843 100.738 266.319 100.738C266.795 100.738 267.182 100.491 267.481 99.996C267.78 99.492 267.929 98.7593 267.929 97.798C267.929 96.8367 267.78 96.1087 267.481 95.614C267.182 95.1193 266.795 94.872 266.319 94.872ZM285.54 98.694V105.204H283.692V92.31H285.54V97.168H287.416V98.694H285.54ZM278.904 93.206C279.389 93.206 279.837 93.3133 280.248 93.528C280.668 93.7427 281.027 94.0507 281.326 94.452C281.624 94.844 281.858 95.3247 282.026 95.894C282.203 96.454 282.292 97.0887 282.292 97.798C282.292 98.5073 282.203 99.1467 282.026 99.716C281.858 100.285 281.624 100.771 281.326 101.172C281.027 101.573 280.668 101.881 280.248 102.096C279.837 102.311 279.389 102.418 278.904 102.418C278.418 102.418 277.966 102.311 277.546 102.096C277.135 101.881 276.776 101.573 276.468 101.172C276.169 100.771 275.936 100.285 275.768 99.716C275.6 99.1467 275.516 98.5073 275.516 97.798C275.516 97.0887 275.6 96.454 275.768 95.894C275.936 95.3247 276.169 94.844 276.468 94.452C276.776 94.0507 277.135 93.7427 277.546 93.528C277.966 93.3133 278.418 93.206 278.904 93.206ZM278.904 100.738C279.38 100.738 279.767 100.491 280.066 99.996C280.364 99.492 280.514 98.7593 280.514 97.798C280.514 96.8367 280.364 96.1087 280.066 95.614C279.767 95.1193 279.38 94.872 278.904 94.872C278.418 94.872 278.026 95.1193 277.728 95.614C277.438 96.1087 277.294 96.8367 277.294 97.798C277.294 98.7593 277.438 99.492 277.728 99.996C278.026 100.491 278.418 100.738 278.904 100.738ZM294.149 97.308C293.439 97.308 292.795 97.2567 292.217 97.154C291.638 97.042 291.148 96.8833 290.747 96.678C290.345 96.4633 290.033 96.2067 289.809 95.908C289.594 95.6093 289.487 95.2687 289.487 94.886C289.487 94.5033 289.594 94.1627 289.809 93.864C290.033 93.556 290.345 93.2993 290.747 93.094C291.148 92.8793 291.638 92.716 292.217 92.604C292.795 92.492 293.439 92.436 294.149 92.436C294.867 92.436 295.511 92.492 296.081 92.604C296.659 92.716 297.149 92.8793 297.551 93.094C297.961 93.2993 298.274 93.556 298.489 93.864C298.713 94.1627 298.825 94.5033 298.825 94.886C298.825 95.2687 298.713 95.6093 298.489 95.908C298.274 96.2067 297.961 96.4633 297.551 96.678C297.149 96.8833 296.659 97.042 296.081 97.154C295.511 97.2567 294.867 97.308 294.149 97.308ZM294.149 93.836C293.243 93.836 292.557 93.9247 292.091 94.102C291.624 94.27 291.391 94.5313 291.391 94.886C291.391 95.2313 291.624 95.4927 292.091 95.67C292.557 95.838 293.243 95.922 294.149 95.922C295.054 95.922 295.74 95.838 296.207 95.67C296.683 95.4927 296.921 95.2313 296.921 94.886C296.921 94.5313 296.683 94.27 296.207 94.102C295.74 93.9247 295.054 93.836 294.149 93.836ZM299.987 99.45H295.045V100.668H293.197V99.45H288.325V97.98H299.987V99.45ZM295.073 101.424C295.073 101.685 295.152 101.947 295.311 102.208C295.469 102.46 295.717 102.693 296.053 102.908C296.389 103.123 296.813 103.309 297.327 103.468C297.849 103.617 298.465 103.72 299.175 103.776L298.587 105.162C297.485 105.059 296.561 104.835 295.815 104.49C295.068 104.154 294.499 103.734 294.107 103.23C293.715 103.734 293.15 104.159 292.413 104.504C291.685 104.849 290.77 105.069 289.669 105.162L289.067 103.776C289.767 103.72 290.373 103.613 290.887 103.454C291.409 103.286 291.839 103.095 292.175 102.88C292.511 102.656 292.758 102.418 292.917 102.166C293.085 101.905 293.169 101.653 293.169 101.41V101.172H295.073V101.424ZM301.33 105.722C301.918 104.677 302.347 103.603 302.618 102.502C302.898 101.401 303.038 100.239 303.038 99.016C303.038 97.812 302.898 96.6593 302.618 95.558C302.347 94.4473 301.918 93.3693 301.33 92.324L302.604 91.778C303.276 92.8607 303.794 93.99 304.158 95.166C304.522 96.3327 304.704 97.616 304.704 99.016C304.704 100.425 304.517 101.718 304.144 102.894C303.78 104.061 303.266 105.185 302.604 106.268L301.33 105.722Z" fill="#F67499"/>
</svg>
