<svg width="470" height="70" viewBox="0 0 470 70" fill="none" xmlns="http://www.w3.org/2000/svg">
<path d="M1.07227 4.27344H4.3418L7.875 12.9043H8.01562L11.5488 4.27344H14.8184V17H12.252V8.66797H12.1465L8.82422 16.9473H7.06641L3.74414 8.63281H3.63867V17H1.07227V4.27344ZM19.0898 17H16.2422L20.6543 4.27344H24.0469L28.4414 17H25.6113L24.6621 14.0645H20.0566L19.0898 17ZM20.7246 12.0078H23.9941L22.3945 7.13867H22.3066L20.7246 12.0078ZM32.5195 4.27344V17H29.8828V4.27344H32.5195ZM45.2812 4.27344V17H42.9961L37.4062 8.91406H37.3008V17H34.6641V4.27344H36.9844L42.5391 12.3594H42.6621V4.27344H45.2812ZM64.2656 3.20117V5.01172H62.1738V7.77148H64.1602V9.51172H59.3789V11.0059H65.5664V12.7637H50.9766V11.0059H57.1289V9.51172H52.3652V7.77148H54.334V5.01172H52.2598V3.20117H64.2656ZM63.9141 16.543V18.3359H52.7344V13.8008H54.9844V16.543H63.9141ZM56.584 7.77148H59.9238V5.01172H56.584V7.77148ZM79.5762 10.8828V12.6582H68.2559V3.79883H79.4531V5.60938H70.541V7.29688H79.084V9.05469H70.541V10.8828H79.5762ZM81.1758 14.9258V16.7539H66.5332V14.9258H81.1758Z" fill="#222222"/>
<path d="M12.96 39.856C15.296 39.856 17.3387 40.3573 19.088 41.36C20.8693 42.3733 22.2133 43.728 23.12 45.424C24.0373 47.1307 24.496 49.0453 24.496 51.168C24.496 53.2907 24.032 55.2107 23.104 56.928C22.1973 58.624 20.8587 59.968 19.088 60.96C17.328 61.952 15.2907 62.448 12.976 62.448C11.2693 62.448 9.68533 62.1653 8.224 61.6C6.77333 61.024 5.54667 60.224 4.544 59.2C3.552 58.176 2.78933 56.9707 2.256 55.584C1.72267 54.1973 1.456 52.7147 1.456 51.136C1.456 49.6107 1.712 48.1653 2.224 46.8C2.74667 45.4347 3.49333 44.2347 4.464 43.2C5.44533 42.144 6.66667 41.3227 8.128 40.736C9.6 40.1493 11.2107 39.856 12.96 39.856ZM20.848 51.168C20.848 49.6533 20.5387 48.2933 19.92 47.088C19.312 45.8613 18.4 44.88 17.184 44.144C15.9893 43.408 14.5813 43.04 12.96 43.04C11.776 43.04 10.6773 43.2587 9.664 43.696C8.66133 44.1333 7.82933 44.7413 7.168 45.52C5.80267 47.088 5.12 48.9653 5.12 51.152C5.12 52.1973 5.30133 53.2107 5.664 54.192C6.02667 55.1627 6.53867 56.032 7.2 56.8C7.88267 57.5573 8.72533 58.16 9.728 58.608C10.7307 59.0453 11.8133 59.264 12.976 59.264C14.5547 59.264 15.9573 58.8853 17.184 58.128C18.3787 57.3707 19.2853 56.3893 19.904 55.184C20.5333 53.968 20.848 52.6293 20.848 51.168ZM37.0065 62.256C35.5345 62.256 33.8065 61.92 31.8225 61.248L28.8465 62.144L28.2865 61.984V38.368H31.9345V45.728C33.5452 45.12 35.3425 44.816 37.3265 44.816C39.5558 44.816 41.3692 45.6107 42.7665 47.2C44.1638 48.7893 44.8625 50.9227 44.8625 53.6C44.8625 54.88 44.6492 56.0747 44.2225 57.184C43.8065 58.2827 43.2252 59.2053 42.4785 59.952C41.7425 60.688 40.8998 61.2587 39.9505 61.664C39.0118 62.0587 38.0305 62.256 37.0065 62.256ZM36.4945 59.28C37.7745 59.28 38.8838 58.768 39.8225 57.744C40.7612 56.7307 41.2305 55.3493 41.2305 53.6C41.2305 51.8827 40.7985 50.4853 39.9345 49.408C39.0918 48.32 37.9665 47.776 36.5585 47.776C35.0225 47.776 33.4545 48.0747 31.8545 48.672V53.616C31.8545 55.9627 31.8598 57.5307 31.8705 58.32C32.3932 58.5653 33.0865 58.7893 33.9505 58.992C34.8358 59.184 35.6838 59.28 36.4945 59.28ZM48.2795 41.024C48.2795 40.3947 48.4982 39.904 48.9355 39.552C49.3728 39.1893 49.9008 39.008 50.5195 39.008C51.1275 39.008 51.6448 39.1893 52.0715 39.552C52.5195 39.904 52.7435 40.3947 52.7435 41.024C52.7435 41.6533 52.5195 42.1547 52.0715 42.528C51.6342 42.88 51.1168 43.056 50.5195 43.056C49.8902 43.056 49.3568 42.8747 48.9195 42.512C48.4928 42.1387 48.2795 41.6427 48.2795 41.024ZM52.3435 45.072V63.44C52.3435 65.5413 51.8902 67.0133 50.9835 67.856C50.0768 68.7093 48.7008 69.136 46.8555 69.136C45.5115 69.136 44.2315 68.768 43.0155 68.032L44.0875 65.552C44.9195 66.064 45.7462 66.32 46.5675 66.32C47.4208 66.32 47.9808 66.1067 48.2475 65.68C48.5355 65.2427 48.6795 64.496 48.6795 63.44V45.072H52.3435ZM64.6745 62.256C62.1572 62.256 60.0772 61.5467 58.4345 60.128C57.6132 59.4133 56.9732 58.5013 56.5145 57.392C56.0558 56.272 55.8265 55.024 55.8265 53.648C55.8265 52.272 56.0505 51.0133 56.4985 49.872C56.9572 48.7307 57.5865 47.7973 58.3865 47.072C60.0185 45.568 62.0132 44.816 64.3705 44.816C66.6852 44.816 68.6158 45.4613 70.1625 46.752C70.9412 47.392 71.5492 48.2293 71.9865 49.264C72.4345 50.288 72.6585 51.44 72.6585 52.72C72.6585 53.2853 72.5998 53.968 72.4825 54.768H59.5065C59.6985 56.4533 60.3278 57.6907 61.3945 58.48C62.3758 59.184 63.4958 59.536 64.7545 59.536C66.4292 59.536 68.0238 59.136 69.5385 58.336L71.2985 60.368C70.4345 60.9547 69.4158 61.4133 68.2425 61.744C67.0372 62.0853 65.8478 62.256 64.6745 62.256ZM59.5225 52.16H69.2025C69.1812 50.6773 68.7332 49.5467 67.8585 48.768C66.9838 47.968 65.8585 47.568 64.4825 47.568C63.1278 47.568 61.9918 47.9627 61.0745 48.752C60.1678 49.5307 59.6505 50.6667 59.5225 52.16ZM88.185 58.272L89.369 60.816C87.1503 61.776 85.0117 62.256 82.953 62.256C80.7663 62.256 78.8997 61.5467 77.353 60.128C76.5743 59.424 75.9663 58.5067 75.529 57.376C75.1023 56.2453 74.889 54.9813 74.889 53.584C74.889 52.144 75.1077 50.848 75.545 49.696C75.993 48.5333 76.6063 47.6053 77.385 46.912C78.9103 45.5147 80.729 44.816 82.841 44.816C84.8037 44.816 86.8783 45.264 89.065 46.16L87.929 48.688C86.393 48.1013 84.8837 47.808 83.401 47.808C81.9183 47.808 80.7237 48.32 79.817 49.344C78.9103 50.3467 78.457 51.744 78.457 53.536C78.457 55.296 78.921 56.6987 79.849 57.744C80.777 58.7787 81.993 59.296 83.497 59.296C84.9263 59.296 86.489 58.9547 88.185 58.272ZM97.2473 40.336V45.072H101.455V47.936H97.2313V56.448C97.2313 57.5893 97.3913 58.3787 97.7113 58.816C98.0419 59.2427 98.6499 59.456 99.5353 59.456C100.282 59.456 101.039 59.2747 101.807 58.912L102.671 61.488C101.477 62 100.106 62.256 98.5593 62.256C96.8419 62.256 95.5886 61.792 94.7993 60.864C94.0099 59.9253 93.6153 58.4533 93.6153 56.448V47.936H90.9273V45.072H93.6153V41.024L97.2473 40.336ZM128.46 41.584L127.26 44.384C124.796 43.3813 122.497 42.88 120.364 42.88C119.361 42.88 118.47 42.992 117.692 43.216C116.124 43.696 115.34 44.5973 115.34 45.92C115.34 46.2507 115.43 46.5867 115.612 46.928C115.686 47.056 115.804 47.1947 115.964 47.344C116.39 47.664 116.726 47.8773 116.972 47.984C117.548 48.2187 118.001 48.3893 118.332 48.496L119.1 48.72C119.516 48.8267 119.798 48.9013 119.948 48.944C120.353 49.0613 120.646 49.1413 120.828 49.184C123.068 49.792 124.673 50.3147 125.644 50.752C127.585 51.616 128.801 52.7733 129.292 54.224C129.484 54.7787 129.58 55.4027 129.58 56.096C129.58 56.96 129.404 57.76 129.052 58.496C128.7 59.232 128.214 59.8453 127.596 60.336C126.732 61.04 125.67 61.568 124.412 61.92C123.153 62.272 121.852 62.448 120.508 62.448C118.833 62.448 117.281 62.272 115.852 61.92C114.39 61.5467 112.929 61.008 111.468 60.304L112.476 57.552C115.292 58.8 117.964 59.424 120.492 59.424C121.804 59.424 122.988 59.2267 124.044 58.832C124.641 58.608 125.11 58.2773 125.452 57.84C125.793 57.392 125.964 56.864 125.964 56.256C125.964 55.3707 125.638 54.6667 124.988 54.144C124.689 53.8987 124.316 53.6747 123.868 53.472C123.26 53.184 122.278 52.8533 120.924 52.48L120.22 52.288C118.129 51.712 116.678 51.2747 115.868 50.976C114.044 50.272 112.833 49.376 112.236 48.288C111.884 47.648 111.708 46.9013 111.708 46.048C111.708 45.1627 111.878 44.3627 112.22 43.648C112.572 42.9333 113.03 42.3467 113.596 41.888C114.161 41.4187 114.828 41.0293 115.596 40.72C116.364 40.4107 117.148 40.192 117.948 40.064C118.758 39.9253 119.59 39.856 120.444 39.856C122.993 39.856 125.665 40.432 128.46 41.584ZM138.999 62.256C136.812 62.256 135.042 61.4667 133.687 59.888C132.322 58.2987 131.639 56.2133 131.639 53.632C131.639 51.0507 132.354 48.9333 133.783 47.28C135.202 45.6373 136.972 44.816 139.095 44.816C141.004 44.816 142.85 45.152 144.631 45.824L147.607 44.944L148.167 45.008V62H144.551L144.743 60.704C143.634 61.248 142.663 61.6427 141.831 61.888C140.935 62.1333 139.991 62.256 138.999 62.256ZM139.895 59.312C141.484 59.312 143.052 59.0133 144.599 58.416V53.488C144.599 51.1307 144.594 49.5573 144.583 48.768C144.135 48.5547 143.442 48.336 142.503 48.112C141.65 47.9093 140.802 47.808 139.959 47.808C138.679 47.808 137.57 48.32 136.631 49.344C135.692 50.3467 135.223 51.728 135.223 53.488C135.223 55.1947 135.65 56.5973 136.503 57.696C137.367 58.7733 138.498 59.312 139.895 59.312ZM156.231 62H152.615V45.088L153.175 44.928L156.167 45.824C156.775 45.5787 157.612 45.3547 158.679 45.152C159.756 44.928 160.7 44.816 161.511 44.816C163.495 44.816 165.068 45.4133 166.231 46.608C167.404 47.8133 167.991 49.632 167.991 52.064V62H164.343V52.096C164.343 50.6987 164.028 49.632 163.399 48.896C162.77 48.16 161.89 47.792 160.759 47.792C159.308 47.792 157.799 48.1067 156.231 48.736V62ZM177.983 62.256C175.626 62.256 173.338 61.776 171.119 60.816L172.207 58.192C174.351 59.0027 176.325 59.408 178.127 59.408C178.533 59.408 178.917 59.376 179.279 59.312C179.653 59.248 180.01 59.1413 180.351 58.992C180.703 58.8427 180.981 58.624 181.183 58.336C181.386 58.0373 181.487 57.6907 181.487 57.296C181.487 56.6987 181.215 56.208 180.671 55.824C180.426 55.6427 180.021 55.4827 179.455 55.344C179.103 55.2373 178.858 55.168 178.719 55.136L177.967 54.944C177.466 54.7947 177.125 54.6987 176.943 54.656L175.951 54.336C175.557 54.208 175.221 54.0853 174.943 53.968L174.063 53.552C173.722 53.392 173.439 53.2267 173.215 53.056C172.97 52.8533 172.746 52.656 172.543 52.464C171.946 51.856 171.615 50.992 171.551 49.872C171.551 49.1573 171.674 48.512 171.919 47.936C172.175 47.36 172.517 46.88 172.943 46.496C173.37 46.112 173.877 45.792 174.463 45.536C175.05 45.28 175.658 45.0987 176.287 44.992C176.927 44.8747 177.599 44.816 178.303 44.816C180.17 44.816 182.197 45.28 184.383 46.208L183.247 48.752C181.605 48.08 179.957 47.744 178.303 47.744C176.191 47.744 175.135 48.4267 175.135 49.792C175.135 50.0373 175.183 50.2667 175.279 50.48C175.397 50.6933 175.514 50.8587 175.631 50.976C175.749 51.0933 175.941 51.2107 176.207 51.328C176.527 51.4667 176.746 51.5573 176.863 51.6C177.375 51.7493 177.663 51.8347 177.727 51.856L178.607 52.096L179.471 52.352C180.026 52.5013 180.351 52.592 180.447 52.624C180.618 52.6667 180.933 52.7627 181.391 52.912C181.807 53.0507 182.127 53.184 182.351 53.312C183.162 53.728 183.695 54.0853 183.951 54.384C184.698 55.2053 185.071 56.144 185.071 57.2C185.071 57.9467 184.938 58.6133 184.671 59.2C184.405 59.7867 184.047 60.2667 183.599 60.64C183.151 61.0133 182.618 61.328 181.999 61.584C181.381 61.8293 180.741 62 180.079 62.096C179.418 62.2027 178.719 62.256 177.983 62.256Z" fill="#222222"/>
<path d="M244.98 7.91211C244.875 6.91016 244.066 6.3125 242.783 6.3125C241.447 6.3125 240.709 6.92773 240.691 7.77148C240.674 8.68555 241.641 9.10742 242.73 9.35352L243.873 9.63477C246.053 10.127 247.688 11.2344 247.688 13.3613C247.688 15.6992 245.859 17.1758 242.766 17.1758C239.689 17.1758 237.721 15.752 237.65 13.0273H240.217C240.305 14.3105 241.324 14.9609 242.73 14.9609C244.119 14.9609 245.016 14.3105 245.016 13.3613C245.016 12.5 244.225 12.0957 242.836 11.7441L241.447 11.4102C239.303 10.8828 237.984 9.81055 237.984 7.94727C237.984 5.62695 240.023 4.09766 242.801 4.09766C245.613 4.09766 247.477 5.66211 247.512 7.91211H244.98ZM257.285 4.27344H259.939V12.5352C259.939 15.3301 257.83 17.1758 254.666 17.1758C251.502 17.1758 249.41 15.3301 249.41 12.5352V4.27344H252.047V12.3242C252.047 13.7832 253.084 14.8555 254.666 14.8555C256.266 14.8555 257.285 13.7832 257.285 12.3242V4.27344ZM262.084 17V4.27344H267.146C269.959 4.27344 271.365 5.62695 271.365 7.54297C271.365 9.03711 270.398 9.96875 269.08 10.2676V10.3906C270.521 10.4609 271.875 11.6035 271.875 13.4844C271.875 15.5059 270.363 17 267.48 17H262.084ZM266.953 14.8203C268.482 14.8203 269.133 14.1875 269.133 13.2383C269.133 12.166 268.324 11.4102 267.023 11.4102H264.721V14.8203H266.953ZM266.76 9.59961C267.867 9.59961 268.693 8.98438 268.693 7.96484C268.693 7.05078 268.025 6.41797 266.812 6.41797H264.721V9.59961H266.76ZM290.385 3.20117V5.01172H288.293V7.77148H290.279V9.51172H285.498V11.0059H291.686V12.7637H277.096V11.0059H283.248V9.51172H278.484V7.77148H280.453V5.01172H278.379V3.20117H290.385ZM290.033 16.543V18.3359H278.854V13.8008H281.104V16.543H290.033ZM282.703 7.77148H286.043V5.01172H282.703V7.77148ZM305.695 10.8828V12.6582H294.375V3.79883H305.572V5.60938H296.66V7.29688H305.203V9.05469H296.66V10.8828H305.695ZM307.295 14.9258V16.7539H292.652V14.9258H307.295Z" fill="#222222"/>
<path d="M243.72 46.392V41.24H241.8V45.88C241.8 46.232 241.768 46.84 242.44 47.16L245 48.44C246.952 49.4 247.88 50.552 247.88 53.144V57.88C247.88 61.08 247.24 63 244.68 63H240.84C238.28 63 237.64 61.08 237.64 57.88V52.728C237.64 52.632 237.704 52.568 237.8 52.568H241.64C241.736 52.568 241.8 52.632 241.8 52.728V59.16H243.72V53.24C243.72 52.888 243.752 52.28 243.08 51.96L240.52 50.68C238.568 49.72 237.64 48.568 237.64 45.976V42.52C237.64 39.32 238.28 37.4 240.84 37.4H244.68C247.24 37.4 247.88 39.32 247.88 42.52V46.392C247.88 46.488 247.816 46.552 247.72 46.552H243.88C243.784 46.552 243.72 46.488 243.72 46.392ZM255.251 48.376V41.24H253.331V59.16H255.251V50.616C255.251 50.52 255.315 50.456 255.411 50.456H259.251C259.347 50.456 259.411 50.52 259.411 50.616V57.88C259.411 61.08 258.771 63 256.211 63H252.371C249.811 63 249.171 61.08 249.171 57.88V42.52C249.171 39.32 249.811 37.4 252.371 37.4H256.211C258.771 37.4 259.411 39.32 259.411 42.52V48.376C259.411 48.472 259.347 48.536 259.251 48.536H255.411C255.315 48.536 255.251 48.472 255.251 48.376ZM266.943 37.4H270.783C270.879 37.4 270.943 37.464 270.943 37.56V62.84C270.943 62.936 270.879 63 270.783 63H266.943C266.847 63 266.783 62.936 266.783 62.84V52.12H264.863V62.84C264.863 62.936 264.799 63 264.703 63H260.863C260.767 63 260.703 62.936 260.703 62.84V37.56C260.703 37.464 260.767 37.4 260.863 37.4H264.703C264.799 37.4 264.863 37.464 264.863 37.56V48.28H266.783V37.56C266.783 37.464 266.847 37.4 266.943 37.4ZM281.706 37.56L283.114 62.84C283.114 62.968 283.05 63 282.954 63H279.114C279.018 63 278.954 62.968 278.954 62.84L278.634 56.44H276.394L276.074 62.84C276.074 62.968 276.01 63 275.914 63H272.074C271.978 63 271.914 62.968 271.914 62.84L273.322 37.56C273.322 37.432 273.386 37.4 273.482 37.4H281.546C281.642 37.4 281.706 37.432 281.706 37.56ZM277.194 41.24L276.618 52.6H278.41L277.834 41.24H277.194ZM294.318 42.52V46.936C294.318 48.664 293.326 49.176 292.814 49.24V49.88C293.294 49.944 294.318 50.456 294.318 52.184V57.88C294.318 61.08 293.678 63 291.118 63H284.238C284.142 63 284.078 62.936 284.078 62.84V37.56C284.078 37.464 284.142 37.4 284.238 37.4H291.118C293.678 37.4 294.318 39.32 294.318 42.52ZM288.238 41.24V47.48H290.158V41.24H288.238ZM290.158 59.16V51.64H288.238V59.16H290.158ZM302.649 37.4C305.209 37.4 305.849 39.32 305.849 42.52V57.88C305.849 61.08 305.209 63 302.649 63H298.809C296.249 63 295.609 61.08 295.609 57.88V42.52C295.609 39.32 296.249 37.4 298.809 37.4H302.649ZM301.689 59.16V41.24H299.769V59.16H301.689Z" fill="#222222"/>
<path d="M359.072 17V4.27344H364.064C366.965 4.27344 368.617 6.04883 368.617 8.5625C368.617 11.1113 366.93 12.8516 363.994 12.8516H361.709V17H359.072ZM361.709 10.7246H363.572C365.137 10.7246 365.893 9.8457 365.893 8.5625C365.893 7.29688 365.137 6.43555 363.572 6.43555H361.709V10.7246ZM381.941 10.6367C381.941 14.7852 379.357 17.1758 376 17.1758C372.607 17.1758 370.041 14.7676 370.041 10.6367C370.041 6.48828 372.607 4.09766 376 4.09766C379.357 4.09766 381.941 6.48828 381.941 10.6367ZM379.252 10.6367C379.252 7.91211 377.969 6.43555 376 6.43555C374.031 6.43555 372.73 7.91211 372.73 10.6367C372.73 13.3613 374.031 14.8379 376 14.8379C377.969 14.8379 379.252 13.3613 379.252 10.6367ZM386.477 4.27344V17H383.84V4.27344H386.477ZM399.238 4.27344V17H396.953L391.363 8.91406H391.258V17H388.621V4.27344H390.941L396.496 12.3594H396.619V4.27344H399.238ZM400.891 6.45312V4.27344H411.314V6.45312H407.412V17H404.793V6.45312H400.891ZM429.789 3.20117V5.01172H427.697V7.77148H429.684V9.51172H424.902V11.0059H431.09V12.7637H416.5V11.0059H422.652V9.51172H417.889V7.77148H419.857V5.01172H417.783V3.20117H429.789ZM429.438 16.543V18.3359H418.258V13.8008H420.508V16.543H429.438ZM422.107 7.77148H425.447V5.01172H422.107V7.77148ZM445.1 10.8828V12.6582H433.779V3.79883H444.977V5.60938H436.064V7.29688H444.607V9.05469H436.064V10.8828H445.1ZM446.699 14.9258V16.7539H432.057V14.9258H446.699Z" fill="#222222"/>
<path d="M368.432 57.68C368.837 57.4453 369.243 57.4347 369.648 57.648C370.053 57.8613 370.309 58.2133 370.416 58.704C370.523 59.1947 370.427 59.7387 370.128 60.336C369.701 61.0827 369.104 61.712 368.336 62.224C367.568 62.7573 366.757 63.0667 365.904 63.152C364.56 63.28 363.365 62.96 362.32 62.192C361.296 61.424 360.507 60.3787 359.952 59.056C359.397 57.712 359.003 56.176 358.768 54.448C358.555 52.72 358.512 51.0027 358.64 49.296C358.789 47.5893 359.099 45.9573 359.568 44.4C360.037 42.8213 360.635 41.5413 361.36 40.56C361.829 39.92 362.427 39.3973 363.152 38.992C363.877 38.5867 364.592 38.4053 365.296 38.448C366.192 38.512 366.949 38.832 367.568 39.408C368.208 39.984 368.645 40.6773 368.88 41.488C369.136 42.2987 369.211 43.1307 369.104 43.984C369.061 44.304 368.944 44.6027 368.752 44.88C368.56 45.1573 368.325 45.3707 368.048 45.52C367.536 45.776 367.12 45.7547 366.8 45.456C366.48 45.136 366.267 44.7093 366.16 44.176C366.053 43.6427 365.925 43.1413 365.776 42.672C365.648 42.1813 365.488 41.936 365.296 41.936C364.677 41.936 364.133 42.5547 363.664 43.792C363.216 45.008 362.928 46.5013 362.8 48.272C362.672 50.0213 362.661 51.7707 362.768 53.52C362.875 55.248 363.195 56.72 363.728 57.936C364.283 59.152 364.987 59.7387 365.84 59.696C366.075 59.696 366.512 59.3973 367.152 58.8C367.792 58.1813 368.219 57.808 368.432 57.68ZM382.391 58.576C380.449 60.56 378.465 61.2853 376.439 60.752C375.564 60.496 374.785 59.984 374.103 59.216C373.42 58.448 372.897 57.6267 372.535 56.752C372.172 55.8773 371.916 54.96 371.767 54C371.681 53.4667 371.639 52.656 371.639 51.568C371.639 50.4587 371.681 49.6373 371.767 49.104C372.172 46.6933 372.865 44.688 373.847 43.088C374.337 42.2987 374.807 41.7333 375.255 41.392C375.724 41.0507 376.247 40.88 376.823 40.88C377.207 40.88 377.697 40.848 378.295 40.784C379.169 40.656 379.916 40.6987 380.535 40.912C381.175 41.1253 381.783 41.52 382.359 42.096C383.575 43.376 384.439 45.008 384.951 46.992C385.164 47.76 385.271 48.8693 385.271 50.32C385.249 53.9253 384.289 56.6773 382.391 58.576ZM378.039 44.176C377.847 44.2187 377.687 44.272 377.559 44.336C377.431 44.3787 377.292 44.4747 377.143 44.624C377.015 44.752 376.919 44.9333 376.855 45.168C375.873 47.3653 375.447 49.84 375.575 52.592C375.66 54.3413 376.055 55.7067 376.759 56.688C377.079 57.136 377.388 57.392 377.687 57.456C378.007 57.52 378.401 57.4133 378.871 57.136C379.148 56.9867 379.468 56.688 379.831 56.24C380.193 55.7707 380.492 55.3227 380.727 54.896C381.473 53.3813 381.783 51.6213 381.655 49.616C381.527 47.6107 381.004 46.0747 380.087 45.008C379.745 44.6027 379.447 44.3573 379.191 44.272C378.935 44.1653 378.551 44.1333 378.039 44.176ZM400.691 61.584C400.414 61.136 400.19 60.464 400.019 59.568C399.848 58.6507 399.678 57.1253 399.507 54.992C399.187 50.8747 399.006 48.7947 398.963 48.752C398.963 48.752 398.92 48.88 398.835 49.136C398.75 49.3707 398.643 49.6907 398.515 50.096C398.408 50.5013 398.291 50.9387 398.163 51.408C398.035 51.856 397.918 52.304 397.811 52.752C397.704 53.2 397.619 53.5627 397.555 53.84C397.448 54.3093 397.352 54.6933 397.267 54.992C397.075 55.6533 396.947 56.112 396.883 56.368C396.734 56.9653 396.574 57.392 396.403 57.648C396.232 57.904 395.934 58.192 395.507 58.512C394.974 58.896 394.451 59.056 393.939 58.992C393.427 58.928 392.979 58.6293 392.595 58.096C391.998 57.264 391.4 55.5893 390.803 53.072C390.611 52.2187 390.504 51.8133 390.483 51.856C390.398 51.9413 390.312 53.3707 390.227 56.144C390.099 59.8133 389.832 61.648 389.427 61.648C389.32 61.648 389.203 61.7227 389.075 61.872C388.734 62.2347 388.286 62.3307 387.731 62.16C387.368 62.0533 387.07 61.7973 386.835 61.392L386.451 60.784L386.483 58C386.483 56.3147 386.536 54.5653 386.643 52.752C386.707 51.408 386.782 50.064 386.867 48.72C386.91 47.696 386.995 46.288 387.123 44.496C387.272 42.6827 387.368 41.6053 387.411 41.264C387.539 40.432 387.859 39.8667 388.371 39.568C388.904 39.248 389.448 39.1733 390.003 39.344C390.558 39.4933 390.974 39.8453 391.251 40.4C391.678 41.1893 392.499 43.7173 393.715 47.984L394.579 50.96L394.739 50.352C394.867 49.7973 395.315 48.3787 396.083 46.096C396.872 43.8133 397.406 42.2987 397.683 41.552C398.003 40.8053 398.259 40.2933 398.451 40.016C398.664 39.7173 398.952 39.4933 399.315 39.344C399.592 39.2373 399.923 39.2053 400.307 39.248C400.691 39.2693 401 39.3547 401.235 39.504C401.704 39.8027 402.024 40.4213 402.195 41.36C402.387 42.2987 402.611 44.4427 402.867 47.792C403.08 50.5013 403.304 52.9653 403.539 55.184C403.774 57.5093 403.891 58.7893 403.891 59.024C403.934 60.5387 403.88 61.36 403.731 61.488C403.155 61.9573 402.728 62.2347 402.451 62.32C402.174 62.4267 401.854 62.416 401.491 62.288C401.192 62.16 400.926 61.9253 400.691 61.584ZM409.492 61.136C408.98 61.264 408.511 61.3493 408.084 61.392C407.657 61.4347 407.188 61.392 406.676 61.264C406.185 61.1147 405.812 60.8373 405.556 60.432C405.449 60.2613 405.375 60.1013 405.332 59.952C405.289 59.7813 405.247 59.536 405.204 59.216C405.183 58.8747 405.161 58.288 405.14 57.456C405.055 55.28 405.055 52.4747 405.14 49.04C405.225 45.6053 405.343 43.5253 405.492 42.8C405.727 41.584 406.057 40.848 406.484 40.592C406.697 40.464 406.943 40.3787 407.22 40.336C407.519 40.2933 408.148 40.2613 409.108 40.24C410.516 40.2187 411.465 40.24 411.956 40.304C412.447 40.368 412.82 40.5173 413.076 40.752C413.268 40.9653 413.407 41.232 413.492 41.552C413.599 41.8507 413.62 42.096 413.556 42.288C413.471 42.4587 413.279 42.6507 412.98 42.864C412.831 42.9707 412.724 43.0453 412.66 43.088C412.596 43.1307 412.468 43.1733 412.276 43.216C412.084 43.2373 411.881 43.2587 411.668 43.28C411.455 43.28 411.103 43.2907 410.612 43.312L408.692 43.376V46.448C408.692 46.4907 408.681 46.8213 408.66 47.44C408.639 48.0587 408.617 48.5813 408.596 49.008C408.596 49.4347 408.607 49.7227 408.628 49.872C408.692 49.9787 409.076 49.9467 409.78 49.776C411.529 49.328 412.596 49.456 412.98 50.16C413.044 50.3093 413.097 50.4907 413.14 50.704C413.183 50.9173 413.172 51.1627 413.108 51.44C413.065 51.7173 412.959 51.92 412.788 52.048C412.66 52.1547 412.479 52.272 412.244 52.4C412.009 52.5067 411.796 52.592 411.604 52.656C411.433 52.72 411.124 52.8267 410.676 52.976C410.228 53.104 409.897 53.2 409.684 53.264L408.564 53.648L408.532 54.768C408.489 55.4293 408.5 56.176 408.564 57.008C408.628 57.7547 408.735 58.128 408.884 58.128C409.055 58.128 409.663 57.968 410.708 57.648C411.732 57.3493 412.436 57.2 412.82 57.2C413.332 57.2 413.695 57.3067 413.908 57.52C413.951 57.5627 413.951 57.6053 413.908 57.648C413.844 57.712 413.897 57.7867 414.068 57.872C414.217 57.9573 414.292 58.1707 414.292 58.512C414.292 58.7253 414.26 58.896 414.196 59.024C414.132 59.1307 413.993 59.2693 413.78 59.44C413.481 59.6747 412.916 59.9627 412.084 60.304C411.273 60.624 410.409 60.9013 409.492 61.136ZM417.147 58.352C417.04 58.1387 416.944 57.7333 416.859 57.136C416.774 56.5173 416.71 55.7707 416.667 54.896C416.624 54 416.582 53.0933 416.539 52.176C416.496 51.2587 416.464 50.2667 416.443 49.2C416.443 48.112 416.443 47.1947 416.443 46.448C416.443 45.68 416.432 44.8907 416.411 44.08C416.411 43.248 416.411 42.7573 416.411 42.608C416.048 42.5013 415.782 42.2987 415.611 42C415.44 41.7013 415.408 41.36 415.515 40.976C415.664 40.4853 416.08 40.1227 416.763 39.888C417.467 39.632 418.16 39.5253 418.843 39.568C419.526 39.5893 420.112 39.6213 420.603 39.664C421.947 39.984 423.067 40.5067 423.963 41.232C424.859 41.9573 425.499 42.7573 425.883 43.632C426.267 44.5067 426.502 45.4987 426.587 46.608C426.694 47.696 426.683 48.7093 426.555 49.648C426.427 50.5867 426.214 51.5253 425.915 52.464C425.595 53.5307 425.115 54.6827 424.475 55.92C423.835 57.136 423.131 58.256 422.363 59.28C421.616 60.304 420.816 61.0827 419.963 61.616C419.11 62.128 418.363 62.2133 417.723 61.872C417.51 61.7653 417.328 61.584 417.179 61.328C417.051 61.0507 416.987 60.8053 416.987 60.592C416.987 60.3147 417.115 59.9947 417.371 59.632C417.648 59.184 417.723 58.9493 417.595 58.928C417.488 58.928 417.339 58.736 417.147 58.352ZM420.027 56.112L420.091 56.976C420.752 56.2933 421.36 55.3547 421.915 54.16C422.47 52.9653 422.864 51.7173 423.099 50.416C423.334 49.1147 423.419 47.888 423.355 46.736C423.291 45.5627 422.95 44.6133 422.331 43.888C421.712 43.1413 420.859 42.8 419.771 42.864C419.622 43.9093 419.59 46.0427 419.675 49.264C419.782 52.4853 419.899 54.768 420.027 56.112ZM428.53 56.656C428.509 56.3787 428.466 56.0053 428.402 55.536C428.359 55.0667 428.338 54.7787 428.338 54.672C428.253 54.0747 428.114 51.856 427.922 48.016C427.858 46.9493 427.826 45.4453 427.826 43.504C427.826 42.3947 427.837 41.6693 427.858 41.328C427.901 40.9653 427.965 40.688 428.05 40.496C428.285 40.0693 428.615 39.792 429.042 39.664C429.49 39.536 429.906 39.5893 430.29 39.824C430.653 40.0373 430.909 40.4107 431.058 40.944C431.229 41.456 431.346 42.288 431.41 43.44C431.559 45.5093 431.666 46.992 431.73 47.888C431.794 48.72 431.89 50.1493 432.018 52.176C432.125 54.224 432.231 55.664 432.338 56.496C432.466 57.6267 432.53 58.6507 432.53 59.568V60.944C432.53 61.4347 432.253 61.7653 431.698 61.936C431.143 62.1067 430.631 62.064 430.162 61.808C429.351 61.4027 428.807 59.6853 428.53 56.656ZM435.014 60.464C434.886 59.8027 434.704 57.584 434.47 53.808C434.278 50.672 434.118 48.1547 433.99 46.256C433.798 43.3973 433.691 41.488 433.67 40.528C433.648 39.568 433.702 38.9813 433.83 38.768C434.128 38.192 434.576 37.8933 435.174 37.872C435.792 37.8507 436.272 38.1173 436.614 38.672C436.955 39.2053 437.232 41.2107 437.446 44.688C437.531 46.3733 437.616 47.184 437.702 47.12C437.787 47.0133 438.406 45.488 439.558 42.544C440.475 40.1973 441.158 38.864 441.606 38.544C441.819 38.3947 442.118 38.3093 442.502 38.288C442.907 38.2667 443.131 38.32 443.174 38.448C443.195 38.5333 443.27 38.576 443.398 38.576C443.547 38.576 443.622 38.6507 443.622 38.8C443.622 38.928 443.654 38.992 443.718 38.992C443.803 38.992 443.867 39.1627 443.91 39.504C443.952 39.6747 443.952 39.8667 443.91 40.08C443.888 40.272 443.75 40.7307 443.494 41.456C443.238 42.1813 442.918 43.0133 442.534 43.952C442.171 44.8693 441.563 46.384 440.71 48.496L440.294 49.616H441.126C441.552 49.616 441.926 49.6693 442.246 49.776C442.566 49.8827 442.854 50.064 443.11 50.32C443.387 50.5547 443.643 50.8853 443.878 51.312C444.155 51.7387 444.347 52.2187 444.454 52.752C444.582 53.264 444.784 54.4267 445.062 56.24C445.424 58.544 445.691 59.8347 445.862 60.112C446.032 60.4107 446.235 60.72 446.47 61.04C446.896 61.68 446.971 62.288 446.694 62.864C446.416 63.4613 445.904 63.76 445.158 63.76C444.859 63.76 444.443 63.632 443.91 63.376C443.142 62.9707 442.523 62.256 442.054 61.232C441.584 60.1867 441.222 58.7147 440.966 56.816C440.752 55.0667 440.55 54.032 440.358 53.712C440.144 53.4773 439.856 53.3493 439.494 53.328C439.152 53.2853 438.811 53.456 438.47 53.84C438.15 54.224 438.011 54.7253 438.054 55.344L438.182 56.56C438.267 57.328 438.31 58.352 438.31 59.632V61.488L437.83 61.872C437.19 62.4053 436.603 62.5333 436.07 62.256C435.536 61.9787 435.184 61.3813 435.014 60.464Z" fill="#222222"/>
</svg>
