<svg width="180" height="276" viewBox="0 0 180 276" fill="none" xmlns="http://www.w3.org/2000/svg">
<path d="M90 60C74.4687 60 59.2017 64.0193 45.6837 71.6669C32.1658 79.3146 20.857 90.3303 12.8572 103.643C4.85731 116.955 0.438687 132.112 0.0310067 147.638C-0.376673 163.164 3.24047 178.531 10.5307 192.245C17.8208 205.959 28.5359 217.553 41.6339 225.899C54.7319 234.246 69.7669 239.061 85.2768 239.876C100.787 240.691 116.244 237.479 130.144 230.551C144.045 223.623 155.916 213.216 164.604 200.342L124.354 173.181C120.353 179.11 114.887 183.902 108.486 187.092C102.085 190.282 94.9671 191.762 87.825 191.386C80.683 191.011 73.7596 188.794 67.7282 184.95C61.6968 181.107 56.7627 175.768 53.4057 169.453C50.0487 163.138 48.3831 156.062 48.5708 148.912C48.7585 141.763 50.7932 134.784 54.477 128.653C58.1608 122.523 63.3683 117.451 69.5931 113.929C75.8179 110.407 82.8481 108.557 90 108.557L90 60Z" fill="#F67499"/>
<path d="M164.457 200.559C173.653 187.016 178.981 171.222 179.868 154.876C180.755 138.53 177.167 122.252 169.49 107.794C161.813 93.3358 150.338 81.2451 136.301 72.8235C122.264 64.402 106.195 59.9684 89.8254 60.0002L89.9196 108.557C97.4576 108.542 104.857 110.584 111.321 114.462C117.785 118.34 123.069 123.907 126.604 130.565C130.139 137.223 131.791 144.718 131.383 152.245C130.974 159.772 128.521 167.045 124.286 173.282L164.457 200.559Z" fill="#D2D2D2"/>
<rect x="45.7383" y="256.929" width="10.1641" height="10.1641" rx="2.25" fill="#F67499"/>
<path d="M63.3338 256.896C64.2776 256.896 65.0593 257.44 65.5225 258.378H68.0817V256.12H69.1702V266.519H68.0817V262.535H65.592C65.1461 263.578 64.3297 264.18 63.3338 264.18C61.7821 264.18 60.6935 262.767 60.7051 260.532C60.6935 258.309 61.7821 256.896 63.3338 256.896ZM63.3338 257.88C62.3958 257.88 61.7473 258.899 61.7473 260.532C61.7473 262.176 62.3958 263.195 63.3338 263.195C64.2718 263.195 64.9203 262.176 64.9203 260.532C64.9203 258.899 64.2718 257.88 63.3338 257.88ZM65.8351 259.281C65.9104 259.663 65.9625 260.08 65.9625 260.532C65.9625 260.926 65.9278 261.29 65.8583 261.632H68.0817V259.281H65.8351ZM74.4508 257.672C74.4508 259.131 75.3888 260.428 76.9637 260.937L76.3615 261.794C75.2209 261.383 74.3813 260.584 73.9297 259.548C73.4781 260.735 72.5748 261.655 71.3242 262.107L70.7336 261.227C72.3895 260.659 73.3507 259.281 73.3623 257.718V256.699H74.4508V257.672ZM79.4187 256.12V262.246H78.3186V259.131H76.1299V258.228H78.3186V256.12H79.4187ZM75.9446 262.535C78.1217 262.535 79.4534 263.253 79.4534 264.516C79.4534 265.766 78.1217 266.484 75.9446 266.473C73.7676 266.484 72.4243 265.766 72.4358 264.516C72.4243 263.253 73.7676 262.535 75.9446 262.535ZM75.9446 263.392C74.4276 263.392 73.5244 263.798 73.5244 264.516C73.5244 265.21 74.4276 265.604 75.9446 265.604C77.4616 265.604 78.3649 265.21 78.3649 264.516C78.3649 263.798 77.4616 263.392 75.9446 263.392Z" fill="#222222"/>
<rect x="98.0771" y="256.929" width="10.1641" height="10.1641" rx="2.25" fill="#D2D2D2"/>
<path d="M122.959 259.096H121.441V261.764H120.22V255.717H121.441V258.088H122.959V259.096ZM119.39 260.602C118.481 260.784 117.623 260.907 116.817 260.97C116.01 261.033 115.212 261.065 114.421 261.065H113.556V256.238H114.777V260.057C115.496 260.041 116.22 260.001 116.947 259.938C117.682 259.875 118.445 259.764 119.236 259.606L119.39 260.602ZM114.599 262.31H121.441V266.294H114.599V262.31ZM115.797 265.31H120.244V263.282H115.797V265.31ZM131.638 258.847H129.468V257.851H131.638V255.705H132.86V262.025H131.638V258.847ZM129.694 261.598C129.117 261.393 128.622 261.096 128.211 260.709C127.8 260.314 127.48 259.855 127.251 259.333C127.014 259.926 126.67 260.448 126.219 260.899C125.776 261.349 125.231 261.689 124.583 261.918L123.942 260.934C124.369 260.792 124.749 260.598 125.081 260.353C125.413 260.108 125.69 259.827 125.911 259.511C126.14 259.195 126.31 258.851 126.421 258.48C126.539 258.108 126.599 257.729 126.599 257.341V256.286H127.832V257.282C127.832 257.654 127.887 258.013 127.998 258.361C128.109 258.701 128.271 259.021 128.484 259.322C128.698 259.614 128.958 259.875 129.267 260.104C129.583 260.326 129.943 260.503 130.346 260.638L129.694 261.598ZM129.29 262.322C129.852 262.322 130.354 262.369 130.796 262.464C131.247 262.551 131.626 262.685 131.935 262.867C132.251 263.041 132.492 263.254 132.658 263.507C132.824 263.76 132.907 264.049 132.907 264.373C132.907 264.697 132.824 264.986 132.658 265.239C132.492 265.492 132.251 265.705 131.935 265.879C131.626 266.061 131.247 266.195 130.796 266.282C130.354 266.377 129.852 266.425 129.29 266.425C128.737 266.425 128.235 266.377 127.784 266.282C127.342 266.195 126.962 266.061 126.646 265.879C126.338 265.705 126.101 265.492 125.935 265.239C125.769 264.986 125.686 264.697 125.686 264.373C125.686 264.049 125.769 263.76 125.935 263.507C126.101 263.254 126.338 263.041 126.646 262.867C126.962 262.685 127.342 262.551 127.784 262.464C128.235 262.369 128.737 262.322 129.29 262.322ZM129.29 265.464C130.057 265.464 130.646 265.373 131.057 265.191C131.476 265.002 131.686 264.729 131.686 264.373C131.686 264.017 131.476 263.749 131.057 263.567C130.646 263.377 130.057 263.282 129.29 263.282C128.524 263.282 127.935 263.377 127.524 263.567C127.112 263.749 126.907 264.017 126.907 264.373C126.907 264.729 127.112 265.002 127.524 265.191C127.935 265.373 128.524 265.464 129.29 265.464Z" fill="#222222"/>
<path d="M29.7508 189.274L26.5745 193.213C27.0149 192.967 27.4892 192.844 27.9974 192.844C28.4209 192.844 28.8021 192.916 29.1409 193.06C29.4882 193.196 29.7804 193.39 30.0176 193.645C30.2632 193.89 30.4495 194.187 30.5766 194.534C30.7121 194.873 30.7799 195.245 30.7799 195.652C30.7799 196.109 30.6952 196.529 30.5258 196.91C30.3564 197.291 30.1234 197.621 29.827 197.901C29.5305 198.172 29.1833 198.384 28.7852 198.536C28.3871 198.688 27.9593 198.765 27.5019 198.765C27.0192 198.765 26.5787 198.688 26.1806 198.536C25.791 198.384 25.4564 198.168 25.1769 197.888C24.9059 197.6 24.6941 197.257 24.5417 196.859C24.3977 196.452 24.3257 195.999 24.3257 195.5C24.3257 194.991 24.4358 194.5 24.656 194.026C24.8847 193.543 25.1473 193.102 25.4437 192.704L28.0101 189.274H29.7508ZM27.4765 197.609C27.7391 197.609 27.9847 197.566 28.2134 197.482C28.4506 197.388 28.6539 197.261 28.8233 197.1C28.9927 196.931 29.1282 196.736 29.2298 196.516C29.3315 196.287 29.3823 196.033 29.3823 195.754C29.3823 195.195 29.2129 194.75 28.8741 194.42C28.5353 194.081 28.0864 193.911 27.5274 193.911C27.2648 193.911 27.0192 193.958 26.7905 194.051C26.5618 194.144 26.3627 194.271 26.1933 194.432C26.0324 194.593 25.9053 194.784 25.8122 195.004C25.719 195.224 25.6724 195.466 25.6724 195.728C25.6724 196.279 25.8249 196.732 26.1298 197.088C26.4432 197.435 26.8921 197.609 27.4765 197.609ZM38.6279 196.287H37.3319V198.663H36.1122V196.287H31.513V195.271L36.0233 189.261H37.3319V195.195H38.6279V196.287ZM36.1122 195.195V191.764C36.1122 191.62 36.1165 191.476 36.1249 191.332C36.1419 191.188 36.1588 191.032 36.1758 190.862L33.0249 195.195H36.1122ZM40.911 198.828H39.4118V197.253H40.911V198.828ZM48.2501 189.274L45.0738 193.213C45.5143 192.967 45.9886 192.844 46.4968 192.844C46.9203 192.844 47.3014 192.916 47.6402 193.06C47.9875 193.196 48.2797 193.39 48.5169 193.645C48.7625 193.89 48.9489 194.187 49.0759 194.534C49.2114 194.873 49.2792 195.245 49.2792 195.652C49.2792 196.109 49.1945 196.529 49.0251 196.91C48.8557 197.291 48.6228 197.621 48.3263 197.901C48.0299 198.172 47.6826 198.384 47.2845 198.536C46.8864 198.688 46.4587 198.765 46.0013 198.765C45.5185 198.765 45.078 198.688 44.68 198.536C44.2903 198.384 43.9558 198.168 43.6763 197.888C43.4052 197.6 43.1935 197.257 43.041 196.859C42.897 196.452 42.825 195.999 42.825 195.5C42.825 194.991 42.9351 194.5 43.1553 194.026C43.384 193.543 43.6466 193.102 43.9431 192.704L46.5095 189.274H48.2501ZM45.9759 197.609C46.2384 197.609 46.4841 197.566 46.7128 197.482C46.9499 197.388 47.1532 197.261 47.3226 197.1C47.492 196.931 47.6275 196.736 47.7292 196.516C47.8308 196.287 47.8816 196.033 47.8816 195.754C47.8816 195.195 47.7122 194.75 47.3734 194.42C47.0346 194.081 46.5857 193.911 46.0267 193.911C45.7641 193.911 45.5185 193.958 45.2898 194.051C45.0611 194.144 44.8621 194.271 44.6927 194.432C44.5317 194.593 44.4047 194.784 44.3115 195.004C44.2183 195.224 44.1718 195.466 44.1718 195.728C44.1718 196.279 44.3242 196.732 44.6291 197.088C44.9425 197.435 45.3914 197.609 45.9759 197.609ZM57.826 189.16H59.0838L53.4427 198.816H52.1722L57.826 189.16ZM52.4136 189.16C52.8202 189.16 53.159 189.24 53.43 189.401C53.7095 189.562 53.9297 189.774 54.0907 190.036C54.2601 190.299 54.3787 190.6 54.4464 190.938C54.5142 191.269 54.5481 191.612 54.5481 191.967C54.5481 192.315 54.5142 192.658 54.4464 192.997C54.3787 193.335 54.2601 193.64 54.0907 193.911C53.9297 194.174 53.7095 194.39 53.43 194.559C53.159 194.72 52.8202 194.801 52.4136 194.801C52.007 194.801 51.664 194.72 51.3845 194.559C51.1134 194.39 50.8932 194.174 50.7238 193.911C50.5629 193.64 50.4443 193.335 50.3681 192.997C50.3003 192.658 50.2664 192.315 50.2664 191.967C50.2664 191.612 50.3003 191.269 50.3681 190.938C50.4443 190.6 50.5629 190.299 50.7238 190.036C50.8932 189.774 51.1134 189.562 51.3845 189.401C51.664 189.24 52.007 189.16 52.4136 189.16ZM52.4136 193.81C52.6423 193.81 52.8244 193.746 52.9599 193.619C53.0954 193.492 53.1971 193.335 53.2648 193.149C53.3326 192.963 53.375 192.764 53.3919 192.552C53.4173 192.34 53.43 192.15 53.43 191.98C53.43 191.811 53.4173 191.62 53.3919 191.408C53.375 191.197 53.3326 190.998 53.2648 190.811C53.1971 190.625 53.0954 190.468 52.9599 190.341C52.8244 190.214 52.6423 190.151 52.4136 190.151C52.1849 190.151 51.9986 190.214 51.8546 190.341C51.7191 190.468 51.6174 190.625 51.5497 190.811C51.4819 190.998 51.4353 191.197 51.4099 191.408C51.393 191.62 51.3845 191.811 51.3845 191.98C51.3845 192.15 51.393 192.34 51.4099 192.552C51.4353 192.764 51.4819 192.963 51.5497 193.149C51.6259 193.335 51.7318 193.492 51.8673 193.619C52.0028 193.746 52.1849 193.81 52.4136 193.81ZM58.8424 193.149C59.249 193.149 59.5878 193.23 59.8588 193.39C60.1383 193.551 60.3585 193.763 60.5195 194.026C60.6889 194.288 60.8074 194.589 60.8752 194.928C60.943 195.267 60.9768 195.61 60.9768 195.957C60.9768 196.313 60.943 196.66 60.8752 196.999C60.8074 197.338 60.6889 197.642 60.5195 197.913C60.3585 198.176 60.1425 198.388 59.8715 198.549C59.6005 198.71 59.2574 198.79 58.8424 198.79C58.4358 198.79 58.0928 198.71 57.8133 198.549C57.5422 198.388 57.322 198.176 57.1526 197.913C56.9917 197.642 56.8731 197.338 56.7969 196.999C56.7291 196.66 56.6952 196.313 56.6952 195.957C56.6952 195.61 56.7291 195.267 56.7969 194.928C56.8731 194.589 56.9959 194.288 57.1653 194.026C57.3347 193.763 57.5549 193.551 57.826 193.39C58.097 193.23 58.4358 193.149 58.8424 193.149ZM58.8424 197.799C59.0711 197.799 59.2532 197.736 59.3887 197.609C59.5242 197.482 59.6259 197.325 59.6936 197.138C59.7614 196.952 59.8037 196.753 59.8207 196.541C59.8461 196.33 59.8588 196.139 59.8588 195.97C59.8588 195.8 59.8461 195.61 59.8207 195.398C59.8037 195.186 59.7614 194.987 59.6936 194.801C59.6259 194.614 59.5242 194.458 59.3887 194.331C59.2532 194.204 59.0711 194.14 58.8424 194.14C58.6137 194.14 58.4274 194.204 58.2834 194.331C58.1478 194.458 58.0462 194.614 57.9784 194.801C57.9107 194.987 57.8641 195.186 57.8387 195.398C57.8217 195.61 57.8133 195.8 57.8133 195.97C57.8133 196.139 57.8217 196.33 57.8387 196.541C57.8641 196.753 57.9107 196.952 57.9784 197.138C58.0547 197.325 58.1605 197.482 58.2961 197.609C58.4316 197.736 58.6137 197.799 58.8424 197.799Z" fill="#222222"/>
<path d="M128.868 117.867C128.893 118.104 128.965 118.333 129.084 118.553C129.211 118.773 129.363 118.964 129.541 119.125C129.719 119.286 129.922 119.417 130.151 119.519C130.38 119.612 130.612 119.659 130.85 119.659C131.087 119.659 131.311 119.62 131.523 119.544C131.743 119.468 131.934 119.362 132.095 119.227C132.264 119.083 132.395 118.913 132.489 118.718C132.59 118.515 132.641 118.291 132.641 118.045C132.641 117.689 132.573 117.406 132.438 117.194C132.311 116.982 132.141 116.821 131.93 116.711C131.718 116.601 131.476 116.529 131.205 116.495C130.934 116.461 130.655 116.444 130.367 116.444V115.428C130.629 115.428 130.888 115.407 131.142 115.364C131.396 115.322 131.62 115.246 131.815 115.136C132.01 115.017 132.167 114.86 132.285 114.665C132.412 114.471 132.476 114.217 132.476 113.903C132.476 113.446 132.34 113.09 132.069 112.836C131.807 112.573 131.443 112.442 130.977 112.442C130.739 112.442 130.511 112.489 130.291 112.582C130.079 112.667 129.897 112.785 129.744 112.938C129.592 113.09 129.473 113.272 129.389 113.484C129.312 113.696 129.283 113.929 129.3 114.183L127.915 113.941C128.033 113.103 128.368 112.446 128.918 111.972C129.469 111.489 130.18 111.248 131.053 111.248C131.409 111.248 131.752 111.299 132.082 111.4C132.421 111.502 132.717 111.654 132.971 111.858C133.234 112.061 133.441 112.315 133.594 112.62C133.755 112.916 133.835 113.264 133.835 113.662C133.835 114.204 133.712 114.653 133.467 115.009C133.221 115.364 132.827 115.627 132.285 115.796C132.844 115.957 133.276 116.22 133.581 116.584C133.886 116.94 134.039 117.414 134.039 118.007C134.039 118.456 133.954 118.858 133.784 119.214C133.615 119.561 133.386 119.858 133.098 120.103C132.81 120.349 132.472 120.535 132.082 120.662C131.701 120.789 131.294 120.853 130.862 120.853C129.998 120.853 129.308 120.654 128.791 120.256C128.275 119.858 127.889 119.231 127.635 118.375L128.868 117.867ZM136.068 118.769C136.339 119.023 136.652 119.235 137.008 119.404C137.364 119.565 137.732 119.646 138.113 119.646C138.418 119.646 138.693 119.595 138.939 119.493C139.185 119.383 139.388 119.239 139.549 119.061C139.718 118.875 139.845 118.659 139.93 118.413C140.023 118.159 140.07 117.888 140.07 117.6C140.07 117.016 139.896 116.575 139.549 116.279C139.21 115.983 138.748 115.834 138.164 115.834C137.918 115.834 137.673 115.86 137.427 115.911C137.19 115.953 136.953 116.008 136.716 116.076L135.852 115.834L136.614 111.349H141.162V112.633H137.592L137.211 114.818C137.635 114.725 138.05 114.678 138.456 114.678C138.888 114.678 139.286 114.742 139.65 114.869C140.015 114.987 140.332 115.169 140.603 115.415C140.874 115.652 141.086 115.949 141.239 116.304C141.391 116.652 141.467 117.058 141.467 117.524C141.467 118.015 141.383 118.469 141.213 118.884C141.044 119.29 140.807 119.637 140.502 119.925C140.197 120.213 139.833 120.438 139.409 120.599C138.986 120.76 138.524 120.84 138.024 120.84C137.66 120.84 137.283 120.785 136.893 120.675C136.504 120.565 136.161 120.4 135.864 120.18C135.67 120.061 135.496 119.93 135.343 119.786L136.068 118.769ZM144.246 120.904H142.747V119.328H144.246V120.904ZM152.894 118.363H151.598V120.739H150.378V118.363H145.779V117.346L150.289 111.337H151.598V117.27H152.894V118.363ZM150.378 117.27V113.84C150.378 113.696 150.382 113.552 150.391 113.408C150.408 113.264 150.425 113.107 150.442 112.938L147.291 117.27H150.378ZM161.161 111.235H162.419L156.778 120.891H155.507L161.161 111.235ZM155.749 111.235C156.155 111.235 156.494 111.316 156.765 111.476C157.044 111.637 157.265 111.849 157.426 112.112C157.595 112.374 157.714 112.675 157.781 113.014C157.849 113.344 157.883 113.687 157.883 114.043C157.883 114.39 157.849 114.733 157.781 115.072C157.714 115.411 157.595 115.716 157.426 115.987C157.265 116.249 157.044 116.465 156.765 116.635C156.494 116.796 156.155 116.876 155.749 116.876C155.342 116.876 154.999 116.796 154.719 116.635C154.448 116.465 154.228 116.249 154.059 115.987C153.898 115.716 153.779 115.411 153.703 115.072C153.635 114.733 153.601 114.39 153.601 114.043C153.601 113.687 153.635 113.344 153.703 113.014C153.779 112.675 153.898 112.374 154.059 112.112C154.228 111.849 154.448 111.637 154.719 111.476C154.999 111.316 155.342 111.235 155.749 111.235ZM155.749 115.885C155.977 115.885 156.159 115.822 156.295 115.695C156.43 115.568 156.532 115.411 156.6 115.225C156.668 115.038 156.71 114.839 156.727 114.627C156.752 114.416 156.765 114.225 156.765 114.056C156.765 113.886 156.752 113.696 156.727 113.484C156.71 113.272 156.668 113.073 156.6 112.887C156.532 112.7 156.43 112.544 156.295 112.417C156.159 112.29 155.977 112.226 155.749 112.226C155.52 112.226 155.334 112.29 155.19 112.417C155.054 112.544 154.952 112.7 154.885 112.887C154.817 113.073 154.77 113.272 154.745 113.484C154.728 113.696 154.719 113.886 154.719 114.056C154.719 114.225 154.728 114.416 154.745 114.627C154.77 114.839 154.817 115.038 154.885 115.225C154.961 115.411 155.067 115.568 155.202 115.695C155.338 115.822 155.52 115.885 155.749 115.885ZM162.177 115.225C162.584 115.225 162.923 115.305 163.194 115.466C163.473 115.627 163.693 115.839 163.854 116.101C164.024 116.364 164.142 116.664 164.21 117.003C164.278 117.342 164.312 117.685 164.312 118.032C164.312 118.388 164.278 118.735 164.21 119.074C164.142 119.413 164.024 119.718 163.854 119.989C163.693 120.251 163.478 120.463 163.206 120.624C162.935 120.785 162.592 120.866 162.177 120.866C161.771 120.866 161.428 120.785 161.148 120.624C160.877 120.463 160.657 120.251 160.488 119.989C160.327 119.718 160.208 119.413 160.132 119.074C160.064 118.735 160.03 118.388 160.03 118.032C160.03 117.685 160.064 117.342 160.132 117.003C160.208 116.664 160.331 116.364 160.5 116.101C160.67 115.839 160.89 115.627 161.161 115.466C161.432 115.305 161.771 115.225 162.177 115.225ZM162.177 119.875C162.406 119.875 162.588 119.811 162.724 119.684C162.859 119.557 162.961 119.4 163.029 119.214C163.096 119.028 163.139 118.829 163.156 118.617C163.181 118.405 163.194 118.214 163.194 118.045C163.194 117.876 163.181 117.685 163.156 117.473C163.139 117.262 163.096 117.063 163.029 116.876C162.961 116.69 162.859 116.533 162.724 116.406C162.588 116.279 162.406 116.216 162.177 116.216C161.949 116.216 161.762 116.279 161.618 116.406C161.483 116.533 161.381 116.69 161.313 116.876C161.246 117.063 161.199 117.262 161.174 117.473C161.157 117.685 161.148 117.876 161.148 118.045C161.148 118.214 161.157 118.405 161.174 118.617C161.199 118.829 161.246 119.028 161.313 119.214C161.39 119.4 161.496 119.557 161.631 119.684C161.767 119.811 161.949 119.875 162.177 119.875Z" fill="#222222"/>
<path d="M48.8268 13.884H45.5328V12.372H48.8268V9.114H50.6808V18.708H48.8268V13.884ZM45.8748 18.06C44.9988 17.748 44.2488 17.298 43.6248 16.71C43.0008 16.11 42.5148 15.414 42.1668 14.622C41.8068 15.522 41.2848 16.314 40.6008 16.998C39.9288 17.682 39.1008 18.198 38.1168 18.546L37.1448 17.052C37.7928 16.836 38.3688 16.542 38.8728 16.17C39.3768 15.798 39.7968 15.372 40.1328 14.892C40.4808 14.412 40.7388 13.89 40.9068 13.326C41.0868 12.762 41.1768 12.186 41.1768 11.598V9.996H43.0488V11.508C43.0488 12.072 43.1328 12.618 43.3008 13.146C43.4688 13.662 43.7148 14.148 44.0388 14.604C44.3628 15.048 44.7588 15.444 45.2268 15.792C45.7068 16.128 46.2528 16.398 46.8648 16.602L45.8748 18.06ZM45.2628 19.158C46.1148 19.158 46.8768 19.23 47.5488 19.374C48.2328 19.506 48.8088 19.71 49.2768 19.986C49.7568 20.25 50.1228 20.574 50.3748 20.958C50.6268 21.342 50.7528 21.78 50.7528 22.272C50.7528 22.764 50.6268 23.202 50.3748 23.586C50.1228 23.97 49.7568 24.294 49.2768 24.558C48.8088 24.834 48.2328 25.038 47.5488 25.17C46.8768 25.314 46.1148 25.386 45.2628 25.386C44.4228 25.386 43.6608 25.314 42.9768 25.17C42.3048 25.038 41.7288 24.834 41.2488 24.558C40.7808 24.294 40.4208 23.97 40.1688 23.586C39.9168 23.202 39.7908 22.764 39.7908 22.272C39.7908 21.78 39.9168 21.342 40.1688 20.958C40.4208 20.574 40.7808 20.25 41.2488 19.986C41.7288 19.71 42.3048 19.506 42.9768 19.374C43.6608 19.23 44.4228 19.158 45.2628 19.158ZM45.2628 23.928C46.4268 23.928 47.3208 23.79 47.9448 23.514C48.5808 23.226 48.8988 22.812 48.8988 22.272C48.8988 21.732 48.5808 21.324 47.9448 21.048C47.3208 20.76 46.4268 20.616 45.2628 20.616C44.0988 20.616 43.2048 20.76 42.5808 21.048C41.9568 21.324 41.6448 21.732 41.6448 22.272C41.6448 22.812 41.9568 23.226 42.5808 23.514C43.2048 23.79 44.0988 23.928 45.2628 23.928ZM62.0014 16.998H54.5134V9.852H56.3494V11.976H60.1834V9.852H62.0014V11.328H65.3674V9.132H67.2394V17.556H65.3674V15.72H62.0014V16.998ZM62.0014 12.75V14.28H65.3674V12.75H62.0014ZM60.1834 13.398H56.3494V15.522H60.1834V13.398ZM67.7794 23.73V25.188H56.6734V20.976H65.4034V19.734H56.6554V18.276H67.2394V22.344H58.5094V23.73H67.7794ZM87.8234 9.114V18.33H85.9694V14.694H82.7474V13.164H85.9694V9.114H87.8234ZM82.7114 10.104C82.7114 11.16 82.5374 12.132 82.1894 13.02C81.8534 13.908 81.3614 14.712 80.7134 15.432C80.0774 16.14 79.2974 16.758 78.3734 17.286C77.4494 17.802 76.3994 18.228 75.2234 18.564L74.4674 17.088C76.3874 16.584 77.8634 15.864 78.8954 14.928C79.9394 13.992 80.5454 12.888 80.7134 11.616H75.3314V10.104H82.7114ZM77.2394 18.996H87.8234V25.188H77.2394V18.996ZM79.0574 23.694H86.0054V20.472H79.0574V23.694ZM104.67 9.132V18.978H102.906V14.748H101.196V18.888H99.45V9.402H101.196V13.236H102.906V9.132H104.67ZM98.064 18.042C97.344 17.742 96.732 17.334 96.228 16.818C95.724 16.29 95.322 15.696 95.022 15.036C94.722 15.792 94.308 16.47 93.78 17.07C93.264 17.658 92.61 18.126 91.818 18.474L90.828 17.052C91.368 16.8 91.842 16.494 92.25 16.134C92.67 15.762 93.012 15.36 93.276 14.928C93.552 14.484 93.756 14.028 93.888 13.56C94.032 13.08 94.104 12.606 94.104 12.138V10.068H95.904V12.138C95.904 12.594 95.97 13.044 96.102 13.488C96.234 13.932 96.426 14.352 96.678 14.748C96.942 15.144 97.272 15.504 97.668 15.828C98.064 16.152 98.526 16.422 99.054 16.638L98.064 18.042ZM93.654 19.788H104.67V25.404H102.816V21.282H93.654V19.788ZM124.876 9.114V25.422H123.004V9.114H124.876ZM114.202 10.464V14.604H118.324V10.464H120.178V21.552H112.366V10.464H114.202ZM114.202 20.058H118.324V16.08H114.202V20.058ZM135.405 14.91C133.521 14.91 132.081 14.67 131.085 14.19C130.101 13.71 129.609 13.014 129.609 12.102C129.609 11.19 130.101 10.494 131.085 10.014C132.081 9.534 133.521 9.294 135.405 9.294C137.277 9.294 138.711 9.534 139.707 10.014C140.703 10.494 141.201 11.19 141.201 12.102C141.201 13.014 140.703 13.71 139.707 14.19C138.711 14.67 137.277 14.91 135.405 14.91ZM135.405 10.68C134.133 10.68 133.167 10.8 132.507 11.04C131.859 11.28 131.535 11.634 131.535 12.102C131.535 12.57 131.859 12.924 132.507 13.164C133.167 13.404 134.133 13.524 135.405 13.524C136.677 13.524 137.637 13.404 138.285 13.164C138.945 12.924 139.275 12.57 139.275 12.102C139.275 11.634 138.945 11.28 138.285 11.04C137.637 10.8 136.677 10.68 135.405 10.68ZM138.861 17.196V18.582H140.913V22.47H131.661V23.82H141.381V25.242H129.825V21.156H139.095V19.986H129.789V18.582H131.895V17.196H128.043V15.72H142.767V17.196H138.861ZM137.007 17.196H133.749V18.582H137.007V17.196Z" fill="#222222"/>
</svg>
