<svg width="40" height="40" viewBox="0 0 40 40" fill="none" xmlns="http://www.w3.org/2000/svg">
<rect width="40" height="40" rx="20" fill="#F890AD"/>
<path d="M9.344 14.16C9.99467 14.16 10.6027 14.224 11.168 14.352C11.7333 14.4693 12.224 14.672 12.64 14.96C13.056 15.248 13.3813 15.632 13.616 16.112C13.8613 16.5813 13.984 17.168 13.984 17.872C13.984 18.544 13.8613 19.1307 13.616 19.632C13.3813 20.1227 13.056 20.528 12.64 20.848C12.2347 21.168 11.7547 21.408 11.2 21.568C10.6453 21.7173 10.048 21.792 9.408 21.792H7.824V26H5.456V14.16H9.344ZM9.248 19.92C10.8587 19.92 11.664 19.2373 11.664 17.872C11.664 17.1787 11.4507 16.6987 11.024 16.432C10.608 16.1653 9.98933 16.032 9.168 16.032H7.824V19.92H9.248ZM19.3759 14.16C20.2825 14.16 21.0932 14.2773 21.8079 14.512C22.5332 14.7467 23.1465 15.1093 23.6479 15.6C24.1599 16.08 24.5492 16.688 24.8159 17.424C25.0932 18.16 25.2319 19.0293 25.2319 20.032C25.2319 21.024 25.0932 21.8933 24.8159 22.64C24.5492 23.3867 24.1652 24.0107 23.6639 24.512C23.1732 25.0027 22.5759 25.376 21.8719 25.632C21.1679 25.8773 20.3785 26 19.5039 26H16.1279V14.16H19.3759ZM19.2319 24.096C19.7865 24.096 20.2825 24.0213 20.7199 23.872C21.1679 23.712 21.5465 23.472 21.8559 23.152C22.1652 22.8213 22.3999 22.4 22.5599 21.888C22.7305 21.3653 22.8159 20.7467 22.8159 20.032C22.8159 19.3067 22.7305 18.6933 22.5599 18.192C22.3999 17.68 22.1652 17.2693 21.8559 16.96C21.5465 16.64 21.1679 16.4107 20.7199 16.272C20.2825 16.1227 19.7865 16.048 19.2319 16.048H18.4959V24.096H19.2319ZM34.8458 14.16V16.128H29.9178V19.216H34.1258V21.2H29.9178V26H27.5498V14.16H34.8458Z" fill="white"/>
</svg>
