<svg width="40" height="40" viewBox="0 0 40 40" fill="none" xmlns="http://www.w3.org/2000/svg">
<rect width="40" height="40" rx="20" fill="white"/>
<path d="M9.344 14.16C9.99467 14.16 10.6027 14.224 11.168 14.352C11.7333 14.4693 12.224 14.672 12.64 14.96C13.056 15.248 13.3813 15.632 13.616 16.112C13.8613 16.5813 13.984 17.168 13.984 17.872C13.984 18.544 13.8613 19.1307 13.616 19.632C13.3813 20.1227 13.056 20.528 12.64 20.848C12.2347 21.168 11.7547 21.408 11.2 21.568C10.6453 21.7173 10.048 21.792 9.408 21.792H7.824V26H5.456V14.16H9.344ZM9.248 19.92C10.8587 19.92 11.664 19.2373 11.664 17.872C11.664 17.1787 11.4507 16.6987 11.024 16.432C10.608 16.1653 9.98933 16.032 9.168 16.032H7.824V19.92H9.248ZM20.0159 14.16C20.6665 14.16 21.2745 14.224 21.8399 14.352C22.4052 14.4693 22.8959 14.672 23.3119 14.96C23.7279 15.248 24.0532 15.632 24.2879 16.112C24.5332 16.5813 24.6559 17.168 24.6559 17.872C24.6559 18.544 24.5332 19.1307 24.2879 19.632C24.0532 20.1227 23.7279 20.528 23.3119 20.848C22.9065 21.168 22.4265 21.408 21.8719 21.568C21.3172 21.7173 20.7199 21.792 20.0799 21.792H18.4959V26H16.1279V14.16H20.0159ZM19.9199 19.92C21.5305 19.92 22.3359 19.2373 22.3359 17.872C22.3359 17.1787 22.1225 16.6987 21.6959 16.432C21.2799 16.1653 20.6612 16.032 19.8399 16.032H18.4959V19.92H19.9199ZM25.5269 16.128V14.16H34.5829V16.128H31.2229V26H28.8549V16.128H25.5269Z" fill="#F890AD"/>
</svg>
