<svg width="222" height="205" viewBox="0 0 222 205" fill="none" xmlns="http://www.w3.org/2000/svg">
<path d="M51.1973 15.2637C51.1973 16.6035 52.0586 17.957 53.6445 18.5586L52.9609 19.5566C51.8193 19.1191 51.0195 18.2852 50.582 17.2734C50.1309 18.415 49.29 19.4062 48.1074 19.9121L47.3965 18.9004C49.0508 18.1758 49.9395 16.6309 49.9395 15.2637V13.6777H51.1973V15.2637ZM57.8965 12.9258V20.459H56.666V17.1777H55.2305V20.0762H54.0273V13.1445H55.2305V16.1113H56.666V12.9258H57.8965ZM53.7949 20.6914C56.3516 20.6914 57.9512 21.5254 57.9648 22.9199C57.9512 24.3145 56.3516 25.1484 53.7949 25.1348C51.2383 25.1484 49.6387 24.3145 49.6523 22.9199C49.6387 21.5254 51.2383 20.6914 53.7949 20.6914ZM53.7949 21.6895C52.0176 21.6895 50.9238 22.1406 50.9375 22.9199C50.9238 23.6992 52.0176 24.1504 53.7949 24.1367C55.5723 24.1504 56.6523 23.6992 56.666 22.9199C56.6523 22.1406 55.5723 21.6895 53.7949 21.6895ZM69.7227 12.9121V25.1895H68.4238V12.9121H69.7227ZM65.9766 14.0195V18.4902H61.5742V21.1699C63.5566 21.1631 65.293 21.0742 67.3438 20.7324L67.4668 21.7988C65.293 22.168 63.4473 22.25 61.2871 22.25H60.248V17.4512H64.6504V15.0723H60.2344V14.0195H65.9766Z" fill="#F5F5F5"/>
<rect x="0.75" y="0.75" width="220.5" height="36.5" rx="18.25" stroke="#F67499" stroke-width="1.5"/>
<path fill-rule="evenodd" clip-rule="evenodd" d="M26.0626 9.75C24.7637 9.7501 23.4836 10.0338 22.3292 10.5775C21.1748 11.1211 20.1795 11.909 19.4264 12.8753C18.6733 13.8416 18.1842 14.9583 17.9999 16.1323C17.8156 17.3063 17.9415 18.5035 18.367 19.624C18.7925 20.7445 19.5054 21.7559 20.4461 22.5738C21.3867 23.3916 22.528 23.9922 23.7746 24.3254C25.0212 24.6586 26.337 24.7148 27.6123 24.4893C28.8875 24.2638 30.0852 23.7631 31.1054 23.029L34.6052 26.2245C34.7859 26.3839 35.028 26.4721 35.2793 26.4701C35.5306 26.4681 35.7709 26.3761 35.9486 26.2138C36.1263 26.0516 36.2271 25.8321 36.2293 25.6027C36.2315 25.3733 36.1349 25.1523 35.9603 24.9873L32.4605 21.7918C33.4073 20.695 33.9968 19.3771 34.1616 17.9888C34.3264 16.6004 34.0597 15.1978 33.3922 13.9413C32.7246 12.6849 31.6831 11.6254 30.3869 10.8842C29.0907 10.143 27.5921 9.74991 26.0626 9.75ZM19.8335 17.1875C19.8335 15.6791 20.4897 14.2324 21.6579 13.1658C22.8261 12.0992 24.4105 11.5 26.0626 11.5C27.7147 11.5 29.2991 12.0992 30.4673 13.1658C31.6355 14.2324 32.2918 15.6791 32.2918 17.1875C32.2918 18.6959 31.6355 20.1426 30.4673 21.2092C29.2991 22.2758 27.7147 22.875 26.0626 22.875C24.4105 22.875 22.8261 22.2758 21.6579 21.2092C20.4897 20.1426 19.8335 18.6959 19.8335 17.1875Z" fill="#F67499"/>
<path d="M47.5 175C47.5 191.292 60.7076 204.5 77 204.5H192C208.292 204.5 221.5 191.292 221.5 175V76C221.5 59.7076 208.292 46.5 192 46.5H47.5V175Z" fill="#F67499" stroke="#F67499"/>
<path d="M74.8975 67.8877C74.8975 69.1318 75.6973 70.3887 77.1699 70.9473L76.5352 71.874C75.4751 71.4678 74.7324 70.6934 74.3262 69.7539C73.9072 70.814 73.1265 71.7344 72.0283 72.2041L71.3682 71.2646C72.9043 70.5918 73.7295 69.1572 73.7295 67.8877V66.415H74.8975V67.8877ZM81.1182 65.7168V72.7119H79.9756V69.665H78.6426V72.3564H77.5254V65.9199H78.6426V68.6748H79.9756V65.7168H81.1182ZM77.3096 72.9277C79.6836 72.9277 81.1689 73.7021 81.1816 74.9971C81.1689 76.292 79.6836 77.0664 77.3096 77.0537C74.9355 77.0664 73.4502 76.292 73.4629 74.9971C73.4502 73.7021 74.9355 72.9277 77.3096 72.9277ZM77.3096 73.8545C75.6592 73.8545 74.6436 74.2734 74.6562 74.9971C74.6436 75.7207 75.6592 76.1396 77.3096 76.127C78.96 76.1396 79.9629 75.7207 79.9756 74.9971C79.9629 74.2734 78.96 73.8545 77.3096 73.8545ZM92.0996 65.7041V77.1045H90.8936V65.7041H92.0996ZM88.6211 66.7324V70.8838H84.5332V73.3721C86.374 73.3657 87.9863 73.2832 89.8906 72.9658L90.0049 73.9561C87.9863 74.2988 86.2725 74.375 84.2666 74.375H83.3018V69.9189H87.3896V67.71H83.2891V66.7324H88.6211ZM104.262 72.1152V73.0928H99.6406V77.0664H98.46V73.0928H93.8896V72.1152H104.262ZM103.284 66.377V67.3418H99.7676C99.7866 68.751 101.539 70.0078 103.69 70.2998L103.246 71.252C101.38 70.96 99.7676 70.0396 99.082 68.7383C98.3774 70.0396 96.7715 70.96 94.9307 71.252L94.4736 70.2998C96.6001 70.0078 98.3521 68.751 98.3965 67.3418H94.8545V66.377H103.284ZM114.583 65.7041V77.0791H113.364V65.7041H114.583ZM111.193 66.9229C111.193 70.249 109.771 73.1436 105.874 75.0098L105.239 74.0322C108.267 72.5913 109.74 70.541 109.975 67.8877H105.785V66.9229H111.193Z" fill="white"/>
<path d="M167.85 72.3047C167.859 70.4688 168.377 68.9355 169.295 67.627H170.252C169.578 68.5938 168.934 70.5664 168.934 72.3047C168.934 74.0527 169.578 76.0156 170.252 76.9922H169.295C168.377 75.6836 167.859 74.1504 167.85 72.3047ZM173.602 75.0977C172.264 75.0977 171.258 74.2773 171.209 73.1543H172.254C172.312 73.7598 172.889 74.1992 173.602 74.1992C174.461 74.1992 175.076 73.5742 175.076 72.7344C175.076 71.875 174.441 71.25 173.553 71.2402C172.986 71.2402 172.557 71.4258 172.312 71.8652H171.297L171.756 67.9297H175.76V68.8477H172.645L172.41 70.8301H172.479C172.771 70.5469 173.27 70.3516 173.807 70.3516C175.135 70.3516 176.121 71.3379 176.121 72.7051C176.121 74.1016 175.076 75.0977 173.602 75.0977ZM177.703 75.0684C177.322 75.0684 177 74.7559 177.01 74.375C177 73.9941 177.322 73.6816 177.703 73.6816C178.074 73.6816 178.396 73.9941 178.396 74.375C178.396 74.7559 178.074 75.0684 177.703 75.0684ZM181.99 67.832C183.289 67.8418 184.656 68.623 184.656 71.2109C184.656 73.6914 183.592 75.0977 181.893 75.0977C180.594 75.0977 179.676 74.2969 179.51 73.1445H180.574C180.721 73.7402 181.18 74.1602 181.893 74.1602C182.986 74.1602 183.621 73.2031 183.631 71.5918H183.543C183.162 72.1875 182.498 72.5488 181.736 72.5488C180.467 72.5488 179.451 71.582 179.451 70.2246C179.451 68.877 180.457 67.8223 181.99 67.832ZM181.99 68.7305C181.131 68.7305 180.496 69.3945 180.496 70.2051C180.496 71.0254 181.111 71.6699 181.971 71.6699C182.82 71.6699 183.484 70.9766 183.484 70.1953C183.484 69.4336 182.859 68.7305 181.99 68.7305ZM189.92 67.8516V71.9336H185.828V67.8516H189.92ZM186.736 68.6035V71.2012H189.012V68.6035H186.736ZM192.361 67.0703V69.6875H193.631V70.4688H192.361V73.4863H191.434V67.0703H192.361ZM192.732 74.8926V75.6445H186.814V72.8711H187.742V74.8926H192.732ZM196.531 72.3047C196.521 74.1504 196.004 75.6836 195.086 76.9922H194.129C194.803 76.0156 195.447 74.0527 195.447 72.3047C195.447 70.5664 194.803 68.5938 194.129 67.627H195.086C196.004 68.9355 196.521 70.4688 196.531 72.3047Z" fill="white"/>
<line x1="65" y1="82.5" x2="204" y2="82.5" stroke="white" stroke-opacity="0.8"/>
<path d="M167.85 104.305C167.859 102.469 168.377 100.936 169.295 99.627H170.252C169.578 100.594 168.934 102.566 168.934 104.305C168.934 106.053 169.578 108.016 170.252 108.992H169.295C168.377 107.684 167.859 106.15 167.85 104.305ZM173.709 107.098C172.244 107.098 171.199 106.307 171.16 105.154H172.254C172.293 105.779 172.908 106.17 173.699 106.17C174.549 106.17 175.174 105.701 175.174 105.018C175.174 104.324 174.588 103.816 173.582 103.816H172.977V102.938H173.582C174.383 102.938 174.949 102.488 174.949 101.814C174.949 101.17 174.471 100.73 173.719 100.73C173.006 100.73 172.381 101.121 172.352 101.766H171.316C171.346 100.613 172.41 99.832 173.729 99.832C175.115 99.832 175.994 100.711 175.984 101.756C175.994 102.557 175.496 103.143 174.734 103.328V103.377C175.701 103.514 176.258 104.158 176.258 105.057C176.258 106.238 175.174 107.098 173.709 107.098ZM177.918 107.068C177.537 107.068 177.215 106.756 177.225 106.375C177.215 105.994 177.537 105.682 177.918 105.682C178.289 105.682 178.611 105.994 178.611 106.375C178.611 106.756 178.289 107.068 177.918 107.068ZM182.088 107.098C180.555 107.098 179.48 106.268 179.49 105.115C179.48 104.207 180.135 103.465 180.965 103.338V103.299C180.242 103.133 179.754 102.488 179.754 101.717C179.754 100.633 180.74 99.832 182.088 99.832C183.426 99.832 184.402 100.633 184.412 101.717C184.402 102.488 183.914 103.133 183.201 103.299V103.338C184.021 103.465 184.676 104.207 184.686 105.115C184.676 106.268 183.602 107.098 182.088 107.098ZM182.088 106.209C183.006 106.209 183.592 105.73 183.592 105.037C183.592 104.305 182.957 103.777 182.088 103.777C181.209 103.777 180.564 104.305 180.584 105.037C180.564 105.73 181.15 106.209 182.088 106.209ZM182.088 102.928C182.83 102.928 183.357 102.479 183.357 101.814C183.357 101.16 182.84 100.711 182.088 100.711C181.307 100.711 180.799 101.15 180.799 101.814C180.799 102.479 181.336 102.928 182.088 102.928ZM189.93 99.8516V103.934H185.838V99.8516H189.93ZM186.746 100.604V103.201H189.021V100.604H186.746ZM192.371 99.0703V101.688H193.641V102.469H192.371V105.486H191.443V99.0703H192.371ZM192.742 106.893V107.645H186.824V104.871H187.752V106.893H192.742ZM196.541 104.305C196.531 106.15 196.014 107.684 195.096 108.992H194.139C194.812 108.016 195.457 106.053 195.457 104.305C195.457 102.566 194.812 100.594 194.139 99.627H195.096C196.014 100.936 196.531 102.469 196.541 104.305Z" fill="white"/>
<path d="M74.8975 99.8877C74.8975 101.132 75.6973 102.389 77.1699 102.947L76.5352 103.874C75.4751 103.468 74.7324 102.693 74.3262 101.754C73.9072 102.814 73.1265 103.734 72.0283 104.204L71.3682 103.265C72.9043 102.592 73.7295 101.157 73.7295 99.8877V98.415H74.8975V99.8877ZM81.1182 97.7168V104.712H79.9756V101.665H78.6426V104.356H77.5254V97.9199H78.6426V100.675H79.9756V97.7168H81.1182ZM77.3096 104.928C79.6836 104.928 81.1689 105.702 81.1816 106.997C81.1689 108.292 79.6836 109.066 77.3096 109.054C74.9355 109.066 73.4502 108.292 73.4629 106.997C73.4502 105.702 74.9355 104.928 77.3096 104.928ZM77.3096 105.854C75.6592 105.854 74.6436 106.273 74.6562 106.997C74.6436 107.721 75.6592 108.14 77.3096 108.127C78.96 108.14 79.9629 107.721 79.9756 106.997C79.9629 106.273 78.96 105.854 77.3096 105.854ZM92.0996 97.7041V109.104H90.8936V97.7041H92.0996ZM88.6211 98.7324V102.884H84.5332V105.372C86.374 105.366 87.9863 105.283 89.8906 104.966L90.0049 105.956C87.9863 106.299 86.2725 106.375 84.2666 106.375H83.3018V101.919H87.3896V99.71H83.2891V98.7324H88.6211ZM106.268 100.738V101.729H98.4727V97.9961H99.6914V100.738H106.268ZM107.448 102.782V103.76H97.0635V102.782H107.448ZM106.242 104.839V105.791H102.916C103.176 106.953 104.7 107.835 106.699 108.089L106.255 109.016C104.446 108.768 102.941 108.019 102.256 106.883C101.57 108.019 100.072 108.768 98.2695 109.016L97.8125 108.089C99.812 107.835 101.335 106.953 101.608 105.791H98.2822V104.839H106.242ZM111.384 98.5547C112.926 98.5547 114.056 99.8623 114.24 101.97H116.589V97.7041H117.782V109.104H116.589V102.947H114.253C114.12 105.163 112.964 106.54 111.384 106.54C109.683 106.54 108.489 104.991 108.502 102.541C108.489 100.104 109.683 98.5547 111.384 98.5547ZM111.384 99.6338C110.355 99.6338 109.645 100.751 109.645 102.541C109.645 104.344 110.355 105.461 111.384 105.461C112.412 105.461 113.123 104.344 113.123 102.541C113.123 100.751 112.412 99.6338 111.384 99.6338ZM128.954 97.7041V103.582H127.761V97.7041H128.954ZM128.967 104.103V106.921H122.695V108.025H129.348V108.965H121.527V106.045H127.773V105.029H121.489V104.103H128.967ZM123.749 99.291C123.749 100.675 124.841 101.957 126.605 102.465L126.021 103.392C124.682 102.992 123.673 102.135 123.165 101.043C122.657 102.249 121.623 103.195 120.22 103.633L119.661 102.681C121.426 102.135 122.518 100.764 122.53 99.291H119.979V98.3135H126.25V99.291H123.749ZM138.336 97.9326V102.274H139.542V97.7041H140.685V109.079H139.542V103.265H138.336V108.533H137.219V97.9326H138.336ZM133.524 99.1133V100.104H132.166V105.156C132.566 105.137 133.042 105.086 133.562 104.953L133.664 105.969C132.75 106.172 132.052 106.185 131.531 106.185H131.062V99.1133H133.524ZM136.521 99.1133V100.104H135.086V105.156C135.575 105.144 136.108 105.093 136.711 104.928L136.812 105.943C135.898 106.172 135.149 106.185 134.477 106.185H133.994V99.1133H136.521Z" fill="white"/>
<line x1="65" y1="114.5" x2="204" y2="114.5" stroke="white" stroke-opacity="0.8"/>
<path d="M167.85 136.305C167.859 134.469 168.377 132.936 169.295 131.627H170.252C169.578 132.594 168.934 134.566 168.934 136.305C168.934 138.053 169.578 140.016 170.252 140.992H169.295C168.377 139.684 167.859 138.15 167.85 136.305ZM171.199 139V138.219L173.65 135.748C174.422 134.938 174.812 134.488 174.812 133.873C174.812 133.18 174.246 132.73 173.504 132.73C172.723 132.73 172.215 133.229 172.215 133.98H171.199C171.189 132.691 172.176 131.832 173.523 131.832C174.891 131.832 175.828 132.691 175.838 133.844C175.828 134.635 175.457 135.26 174.129 136.568L172.693 138.023V138.082H175.955V139H171.199ZM177.84 139.068C177.459 139.068 177.137 138.756 177.146 138.375C177.137 137.994 177.459 137.682 177.84 137.682C178.211 137.682 178.533 137.994 178.533 138.375C178.533 138.756 178.211 139.068 177.84 139.068ZM182.068 139.098C180.73 139.098 179.725 138.277 179.676 137.154H180.721C180.779 137.76 181.355 138.199 182.068 138.199C182.928 138.199 183.543 137.574 183.543 136.734C183.543 135.875 182.908 135.25 182.02 135.24C181.453 135.24 181.023 135.426 180.779 135.865H179.764L180.223 131.93H184.227V132.848H181.111L180.877 134.83H180.945C181.238 134.547 181.736 134.352 182.273 134.352C183.602 134.352 184.588 135.338 184.588 136.705C184.588 138.102 183.543 139.098 182.068 139.098ZM189.861 131.852V135.934H185.77V131.852H189.861ZM186.678 132.604V135.201H188.953V132.604H186.678ZM192.303 131.07V133.688H193.572V134.469H192.303V137.486H191.375V131.07H192.303ZM192.674 138.893V139.645H186.756V136.871H187.684V138.893H192.674ZM196.473 136.305C196.463 138.15 195.945 139.684 195.027 140.992H194.07C194.744 140.016 195.389 138.053 195.389 136.305C195.389 134.566 194.744 132.594 194.07 131.627H195.027C195.945 132.936 196.463 134.469 196.473 136.305Z" fill="white"/>
<path d="M74.8975 131.888C74.8975 133.132 75.6973 134.389 77.1699 134.947L76.5352 135.874C75.4751 135.468 74.7324 134.693 74.3262 133.754C73.9072 134.814 73.1265 135.734 72.0283 136.204L71.3682 135.265C72.9043 134.592 73.7295 133.157 73.7295 131.888V130.415H74.8975V131.888ZM81.1182 129.717V136.712H79.9756V133.665H78.6426V136.356H77.5254V129.92H78.6426V132.675H79.9756V129.717H81.1182ZM77.3096 136.928C79.6836 136.928 81.1689 137.702 81.1816 138.997C81.1689 140.292 79.6836 141.066 77.3096 141.054C74.9355 141.066 73.4502 140.292 73.4629 138.997C73.4502 137.702 74.9355 136.928 77.3096 136.928ZM77.3096 137.854C75.6592 137.854 74.6436 138.273 74.6562 138.997C74.6436 139.721 75.6592 140.14 77.3096 140.127C78.96 140.14 79.9629 139.721 79.9756 138.997C79.9629 138.273 78.96 137.854 77.3096 137.854ZM92.0996 129.704V141.104H90.8936V129.704H92.0996ZM88.6211 130.732V134.884H84.5332V137.372C86.374 137.366 87.9863 137.283 89.8906 136.966L90.0049 137.956C87.9863 138.299 86.2725 138.375 84.2666 138.375H83.3018V133.919H87.3896V131.71H83.2891V130.732H88.6211ZM104.262 136.115V137.093H99.6406V141.066H98.46V137.093H93.8896V136.115H104.262ZM103.284 130.377V131.342H99.7676C99.7866 132.751 101.539 134.008 103.69 134.3L103.246 135.252C101.38 134.96 99.7676 134.04 99.082 132.738C98.3774 134.04 96.7715 134.96 94.9307 135.252L94.4736 134.3C96.6001 134.008 98.3521 132.751 98.3965 131.342H94.8545V130.377H103.284ZM114.583 129.704V141.079H113.364V129.704H114.583ZM111.193 130.923C111.193 134.249 109.771 137.144 105.874 139.01L105.239 138.032C108.267 136.591 109.74 134.541 109.975 131.888H105.785V130.923H111.193ZM126.136 129.704V141.079H124.993V129.704H126.136ZM123.812 129.996V140.521H122.67V136.648H120.728V135.658H122.67V133.805H120.918C120.366 135.715 119.153 137.372 117.008 138.654L116.297 137.791C118.709 136.356 119.871 134.446 120.08 132.104H116.855V131.113H121.273C121.273 131.697 121.229 132.262 121.134 132.814H122.67V129.996H123.812ZM131.544 131.786C131.544 133.31 132.61 134.744 134.337 135.328L133.715 136.28C132.439 135.83 131.493 134.922 130.985 133.779C130.49 135.055 129.513 136.052 128.18 136.547L127.507 135.595C129.31 134.973 130.351 133.449 130.351 131.748V130.402H131.544V131.786ZM136.533 129.691V133.119H138.184V134.147H136.533V138.083H135.327V129.691H136.533ZM137.028 139.86V140.838H129.335V137.271H130.566V139.86H137.028Z" fill="white"/>
<line x1="65" y1="146.5" x2="204" y2="146.5" stroke="white" stroke-opacity="0.8"/>
<path d="M169.85 168.305C169.859 166.469 170.377 164.936 171.295 163.627H172.252C171.578 164.594 170.934 166.566 170.934 168.305C170.934 170.053 171.578 172.016 172.252 172.992H171.295C170.377 171.684 169.859 170.15 169.85 168.305ZM175.885 163.93V171H174.801V165.004H174.762L173.072 166.107V165.082L174.83 163.93H175.885ZM177.975 171.068C177.594 171.068 177.271 170.756 177.281 170.375C177.271 169.994 177.594 169.682 177.975 169.682C178.346 169.682 178.668 169.994 178.668 170.375C178.668 170.756 178.346 171.068 177.975 171.068ZM181.744 163.93V171H180.66V165.004H180.621L178.932 166.107V165.082L180.689 163.93H181.744ZM187.672 163.852V167.934H183.58V163.852H187.672ZM184.488 164.604V167.201H186.764V164.604H184.488ZM190.113 163.07V165.688H191.383V166.469H190.113V169.486H189.186V163.07H190.113ZM190.484 170.893V171.645H184.566V168.871H185.494V170.893H190.484ZM194.283 168.305C194.273 170.15 193.756 171.684 192.838 172.992H191.881C192.555 172.016 193.199 170.053 193.199 168.305C193.199 166.566 192.555 164.594 191.881 163.627H192.838C193.756 164.936 194.273 166.469 194.283 168.305Z" fill="white"/>
<path d="M74.8975 163.888C74.8975 165.132 75.6973 166.389 77.1699 166.947L76.5352 167.874C75.4751 167.468 74.7324 166.693 74.3262 165.754C73.9072 166.814 73.1265 167.734 72.0283 168.204L71.3682 167.265C72.9043 166.592 73.7295 165.157 73.7295 163.888V162.415H74.8975V163.888ZM81.1182 161.717V168.712H79.9756V165.665H78.6426V168.356H77.5254V161.92H78.6426V164.675H79.9756V161.717H81.1182ZM77.3096 168.928C79.6836 168.928 81.1689 169.702 81.1816 170.997C81.1689 172.292 79.6836 173.066 77.3096 173.054C74.9355 173.066 73.4502 172.292 73.4629 170.997C73.4502 169.702 74.9355 168.928 77.3096 168.928ZM77.3096 169.854C75.6592 169.854 74.6436 170.273 74.6562 170.997C74.6436 171.721 75.6592 172.14 77.3096 172.127C78.96 172.14 79.9629 171.721 79.9756 170.997C79.9629 170.273 78.96 169.854 77.3096 169.854ZM92.0996 161.704V173.104H90.8936V161.704H92.0996ZM88.6211 162.732V166.884H84.5332V169.372C86.374 169.366 87.9863 169.283 89.8906 168.966L90.0049 169.956C87.9863 170.299 86.2725 170.375 84.2666 170.375H83.3018V165.919H87.3896V163.71H83.2891V162.732H88.6211ZM104.262 168.115V169.093H99.6406V173.066H98.46V169.093H93.8896V168.115H104.262ZM103.284 162.377V163.342H99.7676C99.7866 164.751 101.539 166.008 103.69 166.3L103.246 167.252C101.38 166.96 99.7676 166.04 99.082 164.738C98.3774 166.04 96.7715 166.96 94.9307 167.252L94.4736 166.3C96.6001 166.008 98.3521 164.751 98.3965 163.342H94.8545V162.377H103.284ZM114.583 161.704V173.079H113.364V161.704H114.583ZM111.193 162.923C111.193 166.249 109.771 169.144 105.874 171.01L105.239 170.032C108.267 168.591 109.74 166.541 109.975 163.888H105.785V162.923H111.193ZM128.802 161.704V164.116H130.147V165.106H128.802V167.671H127.634V161.704H128.802ZM120.791 162.237V163.735H121.934V162.237H122.924V167.125H119.801V162.237H120.791ZM120.791 166.186H121.934V164.662H120.791V166.186ZM124.574 162.237V163.735H125.704V162.237H126.707V167.125H123.571V162.237H124.574ZM124.574 166.186H125.704V164.662H124.574V166.186ZM128.802 168.128V170.921H122.441V172H129.208V172.965H121.248V170.032H127.621V169.08H121.235V168.128H128.802ZM139.631 161.704V166.147H141.459V167.163H139.631V173.104H138.438V161.704H139.631ZM136.419 162.732V166.909H132.433V169.372C134.388 169.366 135.835 169.296 137.498 168.991L137.612 169.969C135.835 170.299 134.299 170.375 132.166 170.388H131.239V165.932H135.226V163.71H131.214V162.732H136.419ZM146.22 163.646C146.22 165.119 147.312 166.465 149.063 167.036L148.441 167.963C147.134 167.55 146.144 166.655 145.636 165.513C145.122 166.744 144.112 167.715 142.754 168.191L142.132 167.239C143.896 166.643 144.988 165.195 145.001 163.646V163.431H142.449V162.453H148.721V163.431H146.22V163.646ZM151.438 161.717V168.318H150.231V161.717H151.438ZM151.438 168.877V172.939H143.96V168.877H151.438ZM145.153 169.842V171.962H150.257V169.842H145.153Z" fill="white"/>
<line x1="65" y1="178.5" x2="204" y2="178.5" stroke="white" stroke-opacity="0.8"/>
</svg>
