<svg width="300" height="247" viewBox="0 0 300 247" fill="none" xmlns="http://www.w3.org/2000/svg">
<path d="M92.6415 16.98C92.2575 17.424 91.7895 17.772 91.2375 18.024C90.6975 18.276 90.0855 18.396 89.4015 18.384C88.8015 18.384 88.2375 18.282 87.7095 18.078C87.1935 17.874 86.7435 17.592 86.3595 17.232C85.9875 16.86 85.6935 16.422 85.4775 15.918C85.2615 15.414 85.1535 14.862 85.1535 14.262C85.1535 13.662 85.2615 13.11 85.4775 12.606C85.6935 12.102 85.9875 11.67 86.3595 11.31C86.7435 10.938 87.1935 10.65 87.7095 10.446C88.2375 10.242 88.8015 10.14 89.4015 10.14C90.0855 10.14 90.6975 10.266 91.2375 10.518C91.7895 10.77 92.2575 11.112 92.6415 11.544H96.5475V9.15H98.4015V21.102H96.5475V16.98H92.6415ZM86.9175 14.262C86.9175 14.634 86.9775 14.976 87.0975 15.288C87.2295 15.6 87.4035 15.87 87.6195 16.098C87.8475 16.314 88.1115 16.482 88.4115 16.602C88.7115 16.722 89.0415 16.782 89.4015 16.782C89.7495 16.782 90.0735 16.722 90.3735 16.602C90.6735 16.482 90.9315 16.314 91.1475 16.098C91.3635 15.87 91.5315 15.6 91.6515 15.288C91.7835 14.976 91.8495 14.634 91.8495 14.262C91.8495 13.89 91.7835 13.554 91.6515 13.254C91.5315 12.942 91.3635 12.678 91.1475 12.462C90.9315 12.246 90.6735 12.078 90.3735 11.958C90.0735 11.838 89.7495 11.778 89.4015 11.778C89.0415 11.778 88.7115 11.838 88.4115 11.958C88.1115 12.078 87.8475 12.246 87.6195 12.462C87.4035 12.678 87.2295 12.942 87.0975 13.254C86.9775 13.554 86.9175 13.89 86.9175 14.262ZM93.4335 13.056C93.5535 13.344 93.6135 13.746 93.6135 14.262C93.6135 14.778 93.5535 15.18 93.4335 15.468H96.5475V13.056H93.4335ZM98.8155 23.568V25.08H87.8715V19.896H89.7255V23.568H98.8155ZM113.106 16.35H110.19V14.838H113.106V13.02H110.19V11.508H113.106V9.15H114.96V19.122H113.106V16.35ZM110.136 18.006C109.656 18.09 109.176 18.162 108.696 18.222C108.228 18.27 107.724 18.306 107.184 18.33C106.656 18.354 106.08 18.372 105.456 18.384C104.832 18.396 104.124 18.402 103.332 18.402H102.144V13.398H107.328V11.508H102.108V10.014H109.164V14.802H103.98V16.89C104.652 16.89 105.258 16.884 105.798 16.872C106.338 16.86 106.842 16.842 107.31 16.818C107.778 16.782 108.222 16.74 108.642 16.692C109.062 16.644 109.494 16.584 109.938 16.512L110.136 18.006ZM109.542 19.392C110.394 19.392 111.162 19.464 111.846 19.608C112.53 19.74 113.106 19.938 113.574 20.202C114.054 20.454 114.42 20.772 114.672 21.156C114.924 21.528 115.05 21.954 115.05 22.434C115.05 22.914 114.924 23.346 114.672 23.73C114.42 24.102 114.054 24.414 113.574 24.666C113.106 24.93 112.53 25.128 111.846 25.26C111.162 25.404 110.394 25.476 109.542 25.476C108.702 25.476 107.94 25.404 107.256 25.26C106.584 25.128 106.008 24.93 105.528 24.666C105.06 24.414 104.7 24.102 104.448 23.73C104.196 23.346 104.07 22.914 104.07 22.434C104.07 21.954 104.196 21.528 104.448 21.156C104.7 20.772 105.06 20.454 105.528 20.202C106.008 19.938 106.584 19.74 107.256 19.608C107.94 19.464 108.702 19.392 109.542 19.392ZM109.542 24.054C110.706 24.054 111.606 23.922 112.242 23.658C112.878 23.382 113.196 22.974 113.196 22.434C113.196 21.894 112.878 21.492 112.242 21.228C111.606 20.952 110.706 20.814 109.542 20.814C108.378 20.814 107.484 20.952 106.86 21.228C106.236 21.492 105.924 21.894 105.924 22.434C105.924 22.974 106.236 23.382 106.86 23.658C107.484 23.922 108.378 24.054 109.542 24.054ZM126.281 16.998H118.793V9.852H120.629V11.976H124.463V9.852H126.281V11.328H129.647V9.132H131.519V17.556H129.647V15.72H126.281V16.998ZM126.281 12.75V14.28H129.647V12.75H126.281ZM124.463 13.398H120.629V15.522H124.463V13.398ZM132.059 23.73V25.188H120.953V20.976H129.683V19.734H120.935V18.276H131.519V22.344H122.789V23.73H132.059ZM152.103 9.114V18.33H150.249V14.694H147.027V13.164H150.249V9.114H152.103ZM146.991 10.104C146.991 11.16 146.817 12.132 146.469 13.02C146.133 13.908 145.641 14.712 144.993 15.432C144.357 16.14 143.577 16.758 142.653 17.286C141.729 17.802 140.679 18.228 139.503 18.564L138.747 17.088C140.667 16.584 142.143 15.864 143.175 14.928C144.219 13.992 144.825 12.888 144.993 11.616H139.611V10.104H146.991ZM141.519 18.996H152.103V25.188H141.519V18.996ZM143.337 23.694H150.285V20.472H143.337V23.694ZM168.949 9.132V18.978H167.185V14.748H165.475V18.888H163.729V9.402H165.475V13.236H167.185V9.132H168.949ZM162.343 18.042C161.623 17.742 161.011 17.334 160.507 16.818C160.003 16.29 159.601 15.696 159.301 15.036C159.001 15.792 158.587 16.47 158.059 17.07C157.543 17.658 156.889 18.126 156.097 18.474L155.107 17.052C155.647 16.8 156.121 16.494 156.529 16.134C156.949 15.762 157.291 15.36 157.555 14.928C157.831 14.484 158.035 14.028 158.167 13.56C158.311 13.08 158.383 12.606 158.383 12.138V10.068H160.183V12.138C160.183 12.594 160.249 13.044 160.381 13.488C160.513 13.932 160.705 14.352 160.957 14.748C161.221 15.144 161.551 15.504 161.947 15.828C162.343 16.152 162.805 16.422 163.333 16.638L162.343 18.042ZM157.933 19.788H168.949V25.404H167.095V21.282H157.933V19.788ZM189.155 9.114V25.422H187.283V9.114H189.155ZM178.481 10.464V14.604H182.603V10.464H184.457V21.552H176.645V10.464H178.481ZM178.481 20.058H182.603V16.08H178.481V20.058ZM199.684 14.91C197.8 14.91 196.36 14.67 195.364 14.19C194.38 13.71 193.888 13.014 193.888 12.102C193.888 11.19 194.38 10.494 195.364 10.014C196.36 9.534 197.8 9.294 199.684 9.294C201.556 9.294 202.99 9.534 203.986 10.014C204.982 10.494 205.48 11.19 205.48 12.102C205.48 13.014 204.982 13.71 203.986 14.19C202.99 14.67 201.556 14.91 199.684 14.91ZM199.684 10.68C198.412 10.68 197.446 10.8 196.786 11.04C196.138 11.28 195.814 11.634 195.814 12.102C195.814 12.57 196.138 12.924 196.786 13.164C197.446 13.404 198.412 13.524 199.684 13.524C200.956 13.524 201.916 13.404 202.564 13.164C203.224 12.924 203.554 12.57 203.554 12.102C203.554 11.634 203.224 11.28 202.564 11.04C201.916 10.8 200.956 10.68 199.684 10.68ZM203.14 17.196V18.582H205.192V22.47H195.94V23.82H205.66V25.242H194.104V21.156H203.374V19.986H194.068V18.582H196.174V17.196H192.322V15.72H207.046V17.196H203.14ZM201.286 17.196H198.028V18.582H201.286V17.196Z" fill="#222222"/>
<path d="M32.2812 171.49H297.922" stroke="#CACACA" stroke-width="0.931677" stroke-dasharray="1.86 1.86"/>
<path d="M32.2812 140.966H297.922" stroke="#CACACA" stroke-width="0.931677" stroke-dasharray="1.86 1.86"/>
<path d="M32.2812 110.442H297.922" stroke="#CACACA" stroke-width="0.931677" stroke-dasharray="1.86 1.86"/>
<path d="M32.2812 79.9177H297.922" stroke="#CACACA" stroke-width="0.931677" stroke-dasharray="1.86 1.86"/>
<path d="M53.9403 222.767L53.2583 221.94L55.4943 220.028H56.5005V227.239H58.0546V228.312H53.549V227.239H55.2707V221.917C55.2707 221.828 55.2744 221.735 55.2819 221.638L53.9403 222.767ZM65.173 224.187C65.173 224.679 65.1245 225.175 65.0277 225.674C64.9308 226.173 64.7631 226.628 64.5245 227.038C64.2935 227.44 63.9842 227.768 63.5966 228.022C63.209 228.275 62.7283 228.402 62.1544 228.402C61.5804 228.402 61.0997 228.275 60.7121 228.022C60.3245 227.768 60.0152 227.44 59.7842 227.038C59.5531 226.628 59.3891 226.173 59.2922 225.674C59.1954 225.175 59.1469 224.679 59.1469 224.187C59.1469 223.695 59.1954 223.199 59.2922 222.7C59.3891 222.193 59.5531 221.739 59.7842 221.336C60.0152 220.934 60.3245 220.606 60.7121 220.352C61.0997 220.091 61.5804 219.961 62.1544 219.961C62.7357 219.961 63.2202 220.091 63.6078 220.352C63.9954 220.613 64.3047 220.949 64.5357 221.358C64.7668 221.768 64.9308 222.223 65.0277 222.722C65.1245 223.222 65.173 223.71 65.173 224.187ZM63.8985 224.187C63.8985 223.896 63.8798 223.568 63.8426 223.203C63.8053 222.838 63.7233 222.491 63.5966 222.163C63.4773 221.835 63.3022 221.56 63.0711 221.336C62.8475 221.112 62.5419 221.001 62.1544 221.001C61.7668 221.001 61.4575 221.112 61.2264 221.336C61.0028 221.56 60.8277 221.835 60.7009 222.163C60.5817 222.491 60.5034 222.838 60.4662 223.203C60.4289 223.568 60.4103 223.896 60.4103 224.187C60.4103 224.478 60.4289 224.806 60.4662 225.171C60.5034 225.536 60.5817 225.883 60.7009 226.211C60.8277 226.539 61.0065 226.814 61.2376 227.038C61.4686 227.262 61.7742 227.373 62.1544 227.373C62.5419 227.373 62.8475 227.262 63.0711 227.038C63.3022 226.814 63.4773 226.539 63.5966 226.211C63.7233 225.883 63.8053 225.536 63.8426 225.171C63.8798 224.806 63.8985 224.478 63.8985 224.187ZM74.6728 219.067V229.162H73.5771V223.997H72.3809V228.67H71.2964V219.279H72.3809V223.058H73.5771V219.067H74.6728ZM67.5287 225.819C68.11 225.812 68.643 225.79 69.1274 225.752C69.6194 225.715 70.1262 225.644 70.6479 225.54L70.7486 226.49C70.443 226.55 70.1448 226.598 69.8541 226.635C69.5709 226.673 69.2802 226.703 68.9821 226.725C68.6914 226.74 68.3896 226.751 68.0765 226.758C67.7635 226.766 67.4281 226.77 67.0703 226.77H66.3995V220.274H70.1337V221.213H67.5287V225.819Z" fill="#222222"/>
<path d="M53.6459 239.012L53.0776 238.323L54.9409 236.73H55.7794V242.739H57.0744V243.634H53.3198V242.739H54.7546V238.304C54.7546 238.23 54.7577 238.152 54.7639 238.071L53.6459 239.012ZM63.0065 240.196C63.0065 240.606 62.9661 241.019 62.8853 241.435C62.8046 241.851 62.6649 242.23 62.4661 242.571C62.2735 242.907 62.0158 243.18 61.6928 243.391C61.3698 243.602 60.9692 243.708 60.4909 243.708C60.0127 243.708 59.6121 243.602 59.2891 243.391C58.9661 243.18 58.7083 242.907 58.5158 242.571C58.3232 242.23 58.1866 241.851 58.1058 241.435C58.0251 241.019 57.9847 240.606 57.9847 240.196C57.9847 239.786 58.0251 239.373 58.1058 238.957C58.1866 238.534 58.3232 238.155 58.5158 237.82C58.7083 237.484 58.9661 237.211 59.2891 237C59.6121 236.783 60.0127 236.674 60.4909 236.674C60.9754 236.674 61.3791 236.783 61.7021 237C62.0251 237.217 62.2829 237.497 62.4754 237.839C62.668 238.18 62.8046 238.559 62.8853 238.975C62.9661 239.391 63.0065 239.798 63.0065 240.196ZM61.9444 240.196C61.9444 239.953 61.9288 239.68 61.8978 239.376C61.8667 239.071 61.7984 238.783 61.6928 238.509C61.5934 238.236 61.4475 238.006 61.2549 237.82C61.0686 237.634 60.8139 237.54 60.4909 237.54C60.168 237.54 59.9102 237.634 59.7176 237.82C59.5313 238.006 59.3853 238.236 59.2798 238.509C59.1804 238.783 59.1152 239.071 59.0841 239.376C59.0531 239.68 59.0375 239.953 59.0375 240.196C59.0375 240.438 59.0531 240.711 59.0841 241.016C59.1152 241.32 59.1804 241.609 59.2798 241.882C59.3853 242.155 59.5344 242.385 59.727 242.571C59.9195 242.758 60.1742 242.851 60.4909 242.851C60.8139 242.851 61.0686 242.758 61.2549 242.571C61.4475 242.385 61.5934 242.155 61.6928 241.882C61.7984 241.609 61.8667 241.32 61.8978 241.016C61.9288 240.711 61.9444 240.438 61.9444 240.196ZM64.7832 243.755H63.6838V242.599H64.7832V243.755ZM70.165 236.748L67.8358 239.637C68.1588 239.457 68.5066 239.366 68.8793 239.366C69.1899 239.366 69.4694 239.419 69.7178 239.525C69.9725 239.624 70.1868 239.767 70.3607 239.953C70.5408 240.134 70.6774 240.351 70.7706 240.606C70.87 240.854 70.9197 241.127 70.9197 241.425C70.9197 241.761 70.8576 242.068 70.7333 242.348C70.6091 242.627 70.4383 242.87 70.2209 243.075C70.0035 243.273 69.7489 243.429 69.4569 243.54C69.165 243.652 68.8514 243.708 68.516 243.708C68.1619 243.708 67.8389 243.652 67.547 243.54C67.2613 243.429 67.016 243.27 66.811 243.065C66.6122 242.854 66.4569 242.602 66.3451 242.311C66.2396 242.012 66.1868 241.68 66.1868 241.314C66.1868 240.941 66.2675 240.581 66.429 240.233C66.5967 239.879 66.7892 239.556 67.0066 239.264L68.8886 236.748H70.165ZM68.4973 242.86C68.6899 242.86 68.87 242.829 69.0377 242.767C69.2116 242.699 69.3607 242.606 69.4849 242.488C69.6091 242.363 69.7085 242.221 69.783 242.059C69.8576 241.891 69.8948 241.705 69.8948 241.5C69.8948 241.09 69.7706 240.764 69.5222 240.522C69.2737 240.273 68.9445 240.149 68.5346 240.149C68.342 240.149 68.1619 240.183 67.9942 240.252C67.8265 240.32 67.6805 240.413 67.5563 240.531C67.4383 240.649 67.3451 240.789 67.2768 240.95C67.2085 241.112 67.1743 241.289 67.1743 241.481C67.1743 241.885 67.2861 242.217 67.5097 242.478C67.7396 242.733 68.0687 242.86 68.4973 242.86ZM77.1871 236.665H78.1095L73.9728 243.745H73.0411L77.1871 236.665ZM73.2182 236.665C73.5163 236.665 73.7647 236.724 73.9635 236.842C74.1685 236.96 74.33 237.115 74.448 237.307C74.5722 237.5 74.6592 237.721 74.7088 237.969C74.7585 238.211 74.7834 238.463 74.7834 238.724C74.7834 238.978 74.7585 239.23 74.7088 239.478C74.6592 239.727 74.5722 239.95 74.448 240.149C74.33 240.342 74.1685 240.5 73.9635 240.624C73.7647 240.742 73.5163 240.801 73.2182 240.801C72.92 240.801 72.6685 240.742 72.4635 240.624C72.2647 240.5 72.1032 240.342 71.979 240.149C71.861 239.95 71.7741 239.727 71.7182 239.478C71.6685 239.23 71.6436 238.978 71.6436 238.724C71.6436 238.463 71.6685 238.211 71.7182 237.969C71.7741 237.721 71.861 237.5 71.979 237.307C72.1032 237.115 72.2647 236.96 72.4635 236.842C72.6685 236.724 72.92 236.665 73.2182 236.665ZM73.2182 240.075C73.3859 240.075 73.5194 240.028 73.6188 239.935C73.7182 239.842 73.7927 239.727 73.8424 239.59C73.8921 239.453 73.9231 239.307 73.9355 239.152C73.9542 238.997 73.9635 238.857 73.9635 238.733C73.9635 238.609 73.9542 238.469 73.9355 238.314C73.9231 238.158 73.8921 238.012 73.8424 237.876C73.7927 237.739 73.7182 237.624 73.6188 237.531C73.5194 237.438 73.3859 237.391 73.2182 237.391C73.0505 237.391 72.9138 237.438 72.8082 237.531C72.7088 237.624 72.6343 237.739 72.5846 237.876C72.5349 238.012 72.5008 238.158 72.4821 238.314C72.4697 238.469 72.4635 238.609 72.4635 238.733C72.4635 238.857 72.4697 238.997 72.4821 239.152C72.5008 239.307 72.5349 239.453 72.5846 239.59C72.6405 239.727 72.7182 239.842 72.8175 239.935C72.9169 240.028 73.0505 240.075 73.2182 240.075ZM77.9324 239.59C78.2306 239.59 78.479 239.649 78.6778 239.767C78.8828 239.885 79.0442 240.04 79.1623 240.233C79.2865 240.425 79.3734 240.646 79.4231 240.894C79.4728 241.143 79.4977 241.394 79.4977 241.649C79.4977 241.91 79.4728 242.165 79.4231 242.413C79.3734 242.661 79.2865 242.885 79.1623 243.084C79.0442 243.276 78.8859 243.432 78.6871 243.55C78.4883 243.668 78.2368 243.727 77.9324 243.727C77.6343 243.727 77.3828 243.668 77.1778 243.55C76.979 243.432 76.8175 243.276 76.6933 243.084C76.5753 242.885 76.4883 242.661 76.4324 242.413C76.3828 242.165 76.3579 241.91 76.3579 241.649C76.3579 241.394 76.3828 241.143 76.4324 240.894C76.4883 240.646 76.5784 240.425 76.7026 240.233C76.8269 240.04 76.9883 239.885 77.1871 239.767C77.3859 239.649 77.6343 239.59 77.9324 239.59ZM77.9324 243C78.1001 243 78.2337 242.953 78.3331 242.86C78.4324 242.767 78.507 242.652 78.5567 242.516C78.6064 242.379 78.6374 242.233 78.6498 242.078C78.6685 241.922 78.6778 241.783 78.6778 241.658C78.6778 241.534 78.6685 241.394 78.6498 241.239C78.6374 241.084 78.6064 240.938 78.5567 240.801C78.507 240.665 78.4324 240.55 78.3331 240.457C78.2337 240.363 78.1001 240.317 77.9324 240.317C77.7647 240.317 77.6281 240.363 77.5225 240.457C77.4231 240.55 77.3486 240.665 77.2989 240.801C77.2492 240.938 77.2151 241.084 77.1964 241.239C77.184 241.394 77.1778 241.534 77.1778 241.658C77.1778 241.783 77.184 241.922 77.1964 242.078C77.2151 242.233 77.2492 242.379 77.2989 242.516C77.3548 242.652 77.4324 242.767 77.5318 242.86C77.6312 242.953 77.7647 243 77.9324 243Z" fill="#222222"/>
<path d="M1.91366 170.564L1.17484 169.668L3.59721 167.597H4.68727V175.409H6.37081V176.572H1.48975V175.409H3.35497V169.644C3.35497 169.547 3.35901 169.446 3.36708 169.341L1.91366 170.564ZM14.0824 172.103C14.0824 172.635 14.0299 173.172 13.925 173.713C13.82 174.254 13.6383 174.747 13.3799 175.191C13.1296 175.627 12.7945 175.982 12.3747 176.257C11.9548 176.531 11.434 176.669 10.8122 176.669C10.1905 176.669 9.6697 176.531 9.24982 176.257C8.82994 175.982 8.49485 175.627 8.24454 175.191C7.99423 174.747 7.81659 174.254 7.71162 173.713C7.60665 173.172 7.55417 172.635 7.55417 172.103C7.55417 171.57 7.60665 171.033 7.71162 170.492C7.81659 169.943 7.99423 169.45 8.24454 169.014C8.49485 168.578 8.82994 168.223 9.24982 167.948C9.6697 167.666 10.1905 167.524 10.8122 167.524C11.4421 167.524 11.9669 167.666 12.3868 167.948C12.8067 168.231 13.1417 168.594 13.3921 169.038C13.6424 169.482 13.82 169.975 13.925 170.516C14.0299 171.057 14.0824 171.586 14.0824 172.103ZM12.7017 172.103C12.7017 171.788 12.6815 171.432 12.6411 171.037C12.6008 170.641 12.5119 170.266 12.3747 169.91C12.2455 169.555 12.0557 169.256 11.8054 169.014C11.5632 168.772 11.2321 168.651 10.8122 168.651C10.3924 168.651 10.0573 168.772 9.80696 169.014C9.56473 169.256 9.37498 169.555 9.23771 169.91C9.10852 170.266 9.02373 170.641 8.98336 171.037C8.94299 171.432 8.9228 171.788 8.9228 172.103C8.9228 172.417 8.94299 172.773 8.98336 173.168C9.02373 173.564 9.10852 173.939 9.23771 174.295C9.37498 174.65 9.56876 174.949 9.81908 175.191C10.0694 175.433 10.4004 175.554 10.8122 175.554C11.2321 175.554 11.5632 175.433 11.8054 175.191C12.0557 174.949 12.2455 174.65 12.3747 174.295C12.5119 173.939 12.6008 173.564 12.6411 173.168C12.6815 172.773 12.7017 172.417 12.7017 172.103ZM22.0968 167.512H23.2959L17.9183 176.717H16.7071L22.0968 167.512ZM16.9372 167.512C17.3248 167.512 17.6478 167.589 17.9062 167.742C18.1726 167.896 18.3826 168.098 18.536 168.348C18.6975 168.598 18.8105 168.885 18.8751 169.208C18.9397 169.523 18.972 169.85 18.972 170.189C18.972 170.52 18.9397 170.847 18.8751 171.17C18.8105 171.493 18.6975 171.784 18.536 172.042C18.3826 172.292 18.1726 172.498 17.9062 172.66C17.6478 172.813 17.3248 172.89 16.9372 172.89C16.5496 172.89 16.2226 172.813 15.9562 172.66C15.6978 172.498 15.4878 172.292 15.3263 172.042C15.1729 171.784 15.0599 171.493 14.9872 171.17C14.9226 170.847 14.8903 170.52 14.8903 170.189C14.8903 169.85 14.9226 169.523 14.9872 169.208C15.0599 168.885 15.1729 168.598 15.3263 168.348C15.4878 168.098 15.6978 167.896 15.9562 167.742C16.2226 167.589 16.5496 167.512 16.9372 167.512ZM16.9372 171.945C17.1552 171.945 17.3288 171.885 17.458 171.763C17.5872 171.642 17.6841 171.493 17.7487 171.315C17.8133 171.138 17.8537 170.948 17.8698 170.746C17.8941 170.544 17.9062 170.362 17.9062 170.201C17.9062 170.039 17.8941 169.858 17.8698 169.656C17.8537 169.454 17.8133 169.264 17.7487 169.087C17.6841 168.909 17.5872 168.76 17.458 168.639C17.3288 168.517 17.1552 168.457 16.9372 168.457C16.7192 168.457 16.5416 168.517 16.4043 168.639C16.2751 168.76 16.1782 168.909 16.1136 169.087C16.049 169.264 16.0046 169.454 15.9804 169.656C15.9642 169.858 15.9562 170.039 15.9562 170.201C15.9562 170.362 15.9642 170.544 15.9804 170.746C16.0046 170.948 16.049 171.138 16.1136 171.315C16.1863 171.493 16.2872 171.642 16.4164 171.763C16.5456 171.885 16.7192 171.945 16.9372 171.945ZM23.0658 171.315C23.4534 171.315 23.7763 171.392 24.0347 171.545C24.3012 171.699 24.5111 171.901 24.6645 172.151C24.826 172.401 24.9391 172.688 25.0037 173.011C25.0683 173.334 25.1006 173.661 25.1006 173.992C25.1006 174.331 25.0683 174.662 25.0037 174.985C24.9391 175.308 24.826 175.599 24.6645 175.857C24.5111 176.107 24.3052 176.309 24.0468 176.463C23.7885 176.616 23.4614 176.693 23.0658 176.693C22.6782 176.693 22.3512 176.616 22.0847 176.463C21.8263 176.309 21.6164 176.107 21.4549 175.857C21.3015 175.599 21.1885 175.308 21.1158 174.985C21.0512 174.662 21.0189 174.331 21.0189 173.992C21.0189 173.661 21.0512 173.334 21.1158 173.011C21.1885 172.688 21.3055 172.401 21.467 172.151C21.6285 171.901 21.8385 171.699 22.0968 171.545C22.3552 171.392 22.6782 171.315 23.0658 171.315ZM23.0658 175.748C23.2838 175.748 23.4574 175.688 23.5866 175.566C23.7158 175.445 23.8127 175.296 23.8773 175.118C23.9419 174.941 23.9822 174.751 23.9984 174.549C24.0226 174.347 24.0347 174.166 24.0347 174.004C24.0347 173.843 24.0226 173.661 23.9984 173.459C23.9822 173.257 23.9419 173.067 23.8773 172.89C23.8127 172.712 23.7158 172.563 23.5866 172.442C23.4574 172.321 23.2838 172.26 23.0658 172.26C22.8478 172.26 22.6701 172.321 22.5329 172.442C22.4037 172.563 22.3068 172.712 22.2422 172.89C22.1776 173.067 22.1332 173.257 22.109 173.459C22.0928 173.661 22.0847 173.843 22.0847 174.004C22.0847 174.166 22.0928 174.347 22.109 174.549C22.1332 174.751 22.1776 174.941 22.2422 175.118C22.3149 175.296 22.4158 175.445 22.545 175.566C22.6742 175.688 22.8478 175.748 23.0658 175.748Z" fill="#222222"/>
<path d="M12.6418 202.626C12.6418 203.159 12.5893 203.696 12.4844 204.237C12.3794 204.778 12.1977 205.271 11.9393 205.715C11.689 206.151 11.3539 206.506 10.934 206.781C10.5142 207.055 9.99336 207.193 9.37162 207.193C8.74988 207.193 8.22907 207.055 7.8092 206.781C7.38932 206.506 7.05423 206.151 6.80392 205.715C6.55361 205.271 6.37597 204.778 6.271 204.237C6.16603 203.696 6.11354 203.159 6.11354 202.626C6.11354 202.094 6.16603 201.557 6.271 201.016C6.37597 200.467 6.55361 199.974 6.80392 199.538C7.05423 199.102 7.38932 198.747 7.8092 198.472C8.22907 198.189 8.74988 198.048 9.37162 198.048C10.0014 198.048 10.5263 198.189 10.9462 198.472C11.366 198.755 11.7011 199.118 11.9514 199.562C12.2017 200.006 12.3794 200.499 12.4844 201.04C12.5893 201.581 12.6418 202.11 12.6418 202.626ZM11.2611 202.626C11.2611 202.312 11.2409 201.956 11.2005 201.561C11.1601 201.165 11.0713 200.789 10.934 200.434C10.8048 200.079 10.6151 199.78 10.3648 199.538C10.1226 199.296 9.79149 199.175 9.37162 199.175C8.95174 199.175 8.61665 199.296 8.36634 199.538C8.1241 199.78 7.93435 200.079 7.79708 200.434C7.66789 200.789 7.58311 201.165 7.54274 201.561C7.50236 201.956 7.48218 202.312 7.48218 202.626C7.48218 202.941 7.50236 203.297 7.54274 203.692C7.58311 204.088 7.66789 204.463 7.79708 204.819C7.93435 205.174 8.12814 205.473 8.37845 205.715C8.62876 205.957 8.95982 206.078 9.37162 206.078C9.79149 206.078 10.1226 205.957 10.3648 205.715C10.6151 205.473 10.8048 205.174 10.934 204.819C11.0713 204.463 11.1601 204.088 11.2005 203.692C11.2409 203.297 11.2611 202.941 11.2611 202.626ZM20.6562 198.036H21.8553L16.4777 207.241H15.2665L20.6562 198.036ZM15.4966 198.036C15.8842 198.036 16.2072 198.113 16.4655 198.266C16.732 198.42 16.9419 198.621 17.0954 198.872C17.2568 199.122 17.3699 199.409 17.4345 199.732C17.4991 200.047 17.5314 200.374 17.5314 200.713C17.5314 201.044 17.4991 201.371 17.4345 201.694C17.3699 202.017 17.2568 202.308 17.0954 202.566C16.9419 202.816 16.732 203.022 16.4655 203.184C16.2072 203.337 15.8842 203.414 15.4966 203.414C15.109 203.414 14.782 203.337 14.5155 203.184C14.2572 203.022 14.0472 202.816 13.8857 202.566C13.7323 202.308 13.6193 202.017 13.5466 201.694C13.482 201.371 13.4497 201.044 13.4497 200.713C13.4497 200.374 13.482 200.047 13.5466 199.732C13.6193 199.409 13.7323 199.122 13.8857 198.872C14.0472 198.621 14.2572 198.42 14.5155 198.266C14.782 198.113 15.109 198.036 15.4966 198.036ZM15.4966 202.469C15.7146 202.469 15.8882 202.408 16.0174 202.287C16.1466 202.166 16.2435 202.017 16.3081 201.839C16.3727 201.662 16.4131 201.472 16.4292 201.27C16.4534 201.068 16.4655 200.886 16.4655 200.725C16.4655 200.563 16.4534 200.382 16.4292 200.18C16.4131 199.978 16.3727 199.788 16.3081 199.611C16.2435 199.433 16.1466 199.284 16.0174 199.162C15.8882 199.041 15.7146 198.981 15.4966 198.981C15.2786 198.981 15.1009 199.041 14.9637 199.162C14.8345 199.284 14.7376 199.433 14.673 199.611C14.6084 199.788 14.564 199.978 14.5398 200.18C14.5236 200.382 14.5155 200.563 14.5155 200.725C14.5155 200.886 14.5236 201.068 14.5398 201.27C14.564 201.472 14.6084 201.662 14.673 201.839C14.7457 202.017 14.8466 202.166 14.9758 202.287C15.105 202.408 15.2786 202.469 15.4966 202.469ZM21.6252 201.839C22.0127 201.839 22.3357 201.916 22.5941 202.069C22.8606 202.223 23.0705 202.425 23.2239 202.675C23.3854 202.925 23.4985 203.212 23.5631 203.535C23.6277 203.858 23.6599 204.185 23.6599 204.516C23.6599 204.855 23.6277 205.186 23.5631 205.509C23.4985 205.832 23.3854 206.123 23.2239 206.381C23.0705 206.631 22.8646 206.833 22.6062 206.987C22.3478 207.14 22.0208 207.217 21.6252 207.217C21.2376 207.217 20.9106 207.14 20.6441 206.987C20.3857 206.833 20.1758 206.631 20.0143 206.381C19.8609 206.123 19.7478 205.832 19.6752 205.509C19.6106 205.186 19.5783 204.855 19.5783 204.516C19.5783 204.185 19.6106 203.858 19.6752 203.535C19.7478 203.212 19.8649 202.925 20.0264 202.675C20.1879 202.425 20.3978 202.223 20.6562 202.069C20.9146 201.916 21.2376 201.839 21.6252 201.839ZM21.6252 206.272C21.8432 206.272 22.0168 206.212 22.146 206.09C22.2752 205.969 22.3721 205.82 22.4367 205.642C22.5013 205.465 22.5416 205.275 22.5578 205.073C22.582 204.871 22.5941 204.689 22.5941 204.528C22.5941 204.367 22.582 204.185 22.5578 203.983C22.5416 203.781 22.5013 203.591 22.4367 203.414C22.3721 203.236 22.2752 203.087 22.146 202.966C22.0168 202.844 21.8432 202.784 21.6252 202.784C21.4072 202.784 21.2295 202.844 21.0922 202.966C20.9631 203.087 20.8662 203.236 20.8016 203.414C20.737 203.591 20.6926 203.781 20.6683 203.983C20.6522 204.185 20.6441 204.367 20.6441 204.528C20.6441 204.689 20.6522 204.871 20.6683 205.073C20.6926 205.275 20.737 205.465 20.8016 205.642C20.8742 205.82 20.9752 205.969 21.1044 206.09C21.2336 206.212 21.4072 206.272 21.6252 206.272Z" fill="#222222"/>
<path d="M6.62516 146.048H0.569255V145.273L3.58509 142.245C3.79503 142.035 3.99286 141.825 4.17857 141.615C4.36429 141.405 4.53789 141.175 4.69938 140.925C4.8528 140.65 4.96584 140.352 5.03851 140.029C5.11118 139.706 5.11522 139.407 5.05062 139.132C4.9941 138.85 4.8528 138.615 4.62671 138.43C4.4087 138.236 4.08571 138.139 3.65776 138.139C3.41553 138.139 3.19348 138.183 2.99161 138.272C2.78975 138.353 2.61615 138.466 2.47081 138.611C2.32547 138.757 2.21646 138.93 2.14379 139.132C2.07112 139.334 2.04286 139.556 2.05901 139.798L0.726708 139.556C0.839752 138.749 1.1587 138.123 1.68354 137.679C2.21646 137.227 2.89876 137.001 3.73044 137.001C4.10994 137.001 4.46522 137.057 4.79627 137.17C5.12733 137.275 5.41398 137.437 5.65621 137.655C5.90652 137.865 6.10435 138.127 6.24969 138.442C6.39503 138.757 6.4677 139.116 6.4677 139.52C6.4677 139.859 6.41522 140.174 6.31025 140.465C6.20528 140.755 6.06398 141.034 5.88634 141.3C5.71677 141.559 5.52298 141.805 5.30497 142.039C5.08696 142.273 4.86491 142.503 4.63882 142.729L2.3618 145.031C2.54752 144.982 2.73727 144.942 2.93106 144.91C3.13292 144.877 3.33075 144.861 3.52453 144.861H6.62516V146.048ZM14.0824 141.579C14.0824 142.112 14.0299 142.649 13.925 143.19C13.82 143.731 13.6383 144.223 13.3799 144.667C13.1296 145.103 12.7945 145.459 12.3747 145.733C11.9548 146.008 11.434 146.145 10.8122 146.145C10.1905 146.145 9.6697 146.008 9.24982 145.733C8.82994 145.459 8.49485 145.103 8.24454 144.667C7.99423 144.223 7.81659 143.731 7.71162 143.19C7.60665 142.649 7.55417 142.112 7.55417 141.579C7.55417 141.046 7.60665 140.509 7.71162 139.968C7.81659 139.419 7.99423 138.926 8.24454 138.49C8.49485 138.054 8.82994 137.699 9.24982 137.424C9.6697 137.142 10.1905 137.001 10.8122 137.001C11.4421 137.001 11.9669 137.142 12.3868 137.424C12.8067 137.707 13.1417 138.07 13.3921 138.515C13.6424 138.959 13.82 139.451 13.925 139.992C14.0299 140.533 14.0824 141.062 14.0824 141.579ZM12.7017 141.579C12.7017 141.264 12.6815 140.909 12.6411 140.513C12.6008 140.117 12.5119 139.742 12.3747 139.387C12.2455 139.031 12.0557 138.733 11.8054 138.49C11.5632 138.248 11.2321 138.127 10.8122 138.127C10.3924 138.127 10.0573 138.248 9.80696 138.49C9.56473 138.733 9.37498 139.031 9.23771 139.387C9.10852 139.742 9.02373 140.117 8.98336 140.513C8.94299 140.909 8.9228 141.264 8.9228 141.579C8.9228 141.894 8.94299 142.249 8.98336 142.645C9.02373 143.04 9.10852 143.416 9.23771 143.771C9.37498 144.126 9.56876 144.425 9.81908 144.667C10.0694 144.91 10.4004 145.031 10.8122 145.031C11.2321 145.031 11.5632 144.91 11.8054 144.667C12.0557 144.425 12.2455 144.126 12.3747 143.771C12.5119 143.416 12.6008 143.04 12.6411 142.645C12.6815 142.249 12.7017 141.894 12.7017 141.579ZM22.0968 136.988H23.2959L17.9183 146.193H16.7071L22.0968 136.988ZM16.9372 136.988C17.3248 136.988 17.6478 137.065 17.9062 137.219C18.1726 137.372 18.3826 137.574 18.536 137.824C18.6975 138.074 18.8105 138.361 18.8751 138.684C18.9397 138.999 18.972 139.326 18.972 139.665C18.972 139.996 18.9397 140.323 18.8751 140.646C18.8105 140.969 18.6975 141.26 18.536 141.518C18.3826 141.769 18.1726 141.974 17.9062 142.136C17.6478 142.289 17.3248 142.366 16.9372 142.366C16.5496 142.366 16.2226 142.289 15.9562 142.136C15.6978 141.974 15.4878 141.769 15.3263 141.518C15.1729 141.26 15.0599 140.969 14.9872 140.646C14.9226 140.323 14.8903 139.996 14.8903 139.665C14.8903 139.326 14.9226 138.999 14.9872 138.684C15.0599 138.361 15.1729 138.074 15.3263 137.824C15.4878 137.574 15.6978 137.372 15.9562 137.219C16.2226 137.065 16.5496 136.988 16.9372 136.988ZM16.9372 141.421C17.1552 141.421 17.3288 141.361 17.458 141.24C17.5872 141.119 17.6841 140.969 17.7487 140.792C17.8133 140.614 17.8537 140.424 17.8698 140.222C17.8941 140.02 17.9062 139.839 17.9062 139.677C17.9062 139.516 17.8941 139.334 17.8698 139.132C17.8537 138.93 17.8133 138.741 17.7487 138.563C17.6841 138.385 17.5872 138.236 17.458 138.115C17.3288 137.994 17.1552 137.933 16.9372 137.933C16.7192 137.933 16.5416 137.994 16.4043 138.115C16.2751 138.236 16.1782 138.385 16.1136 138.563C16.049 138.741 16.0046 138.93 15.9804 139.132C15.9642 139.334 15.9562 139.516 15.9562 139.677C15.9562 139.839 15.9642 140.02 15.9804 140.222C16.0046 140.424 16.049 140.614 16.1136 140.792C16.1863 140.969 16.2872 141.119 16.4164 141.24C16.5456 141.361 16.7192 141.421 16.9372 141.421ZM23.0658 140.792C23.4534 140.792 23.7763 140.868 24.0347 141.022C24.3012 141.175 24.5111 141.377 24.6645 141.627C24.826 141.878 24.9391 142.164 25.0037 142.487C25.0683 142.81 25.1006 143.137 25.1006 143.468C25.1006 143.807 25.0683 144.138 25.0037 144.461C24.9391 144.784 24.826 145.075 24.6645 145.333C24.5111 145.584 24.3052 145.786 24.0468 145.939C23.7885 146.093 23.4614 146.169 23.0658 146.169C22.6782 146.169 22.3512 146.093 22.0847 145.939C21.8263 145.786 21.6164 145.584 21.4549 145.333C21.3015 145.075 21.1885 144.784 21.1158 144.461C21.0512 144.138 21.0189 143.807 21.0189 143.468C21.0189 143.137 21.0512 142.81 21.1158 142.487C21.1885 142.164 21.3055 141.878 21.467 141.627C21.6285 141.377 21.8385 141.175 22.0968 141.022C22.3552 140.868 22.6782 140.792 23.0658 140.792ZM23.0658 145.224C23.2838 145.224 23.4574 145.164 23.5866 145.043C23.7158 144.922 23.8127 144.772 23.8773 144.595C23.9419 144.417 23.9822 144.227 23.9984 144.025C24.0226 143.824 24.0347 143.642 24.0347 143.48C24.0347 143.319 24.0226 143.137 23.9984 142.935C23.9822 142.733 23.9419 142.544 23.8773 142.366C23.8127 142.188 23.7158 142.039 23.5866 141.918C23.4574 141.797 23.2838 141.736 23.0658 141.736C22.8478 141.736 22.6701 141.797 22.5329 141.918C22.4037 142.039 22.3068 142.188 22.2422 142.366C22.1776 142.544 22.1332 142.733 22.109 142.935C22.0928 143.137 22.0847 143.319 22.0847 143.48C22.0847 143.642 22.0928 143.824 22.109 144.025C22.1332 144.227 22.1776 144.417 22.2422 144.595C22.3149 144.772 22.4158 144.922 22.545 145.043C22.6742 145.164 22.8478 145.224 23.0658 145.224Z" fill="#222222"/>
<path d="M1.73199 112.786C1.75621 113.013 1.82484 113.231 1.93789 113.44C2.05901 113.65 2.20435 113.832 2.37391 113.985C2.54348 114.139 2.73727 114.264 2.95528 114.361C3.17329 114.45 3.39534 114.494 3.62143 114.494C3.84752 114.494 4.06149 114.458 4.26335 114.385C4.47329 114.313 4.65497 114.212 4.80839 114.082C4.96988 113.945 5.09503 113.784 5.18385 113.598C5.28075 113.404 5.32919 113.19 5.32919 112.956C5.32919 112.617 5.2646 112.346 5.1354 112.144C5.01429 111.943 4.8528 111.789 4.65093 111.684C4.44907 111.579 4.21894 111.511 3.96056 111.478C3.70217 111.446 3.43571 111.43 3.16118 111.43V110.461C3.41149 110.461 3.65776 110.441 3.9 110.4C4.14224 110.36 4.35621 110.287 4.54193 110.182C4.72764 110.069 4.87702 109.92 4.99006 109.734C5.11118 109.549 5.17174 109.306 5.17174 109.008C5.17174 108.572 5.04255 108.232 4.78416 107.99C4.53385 107.74 4.18665 107.615 3.74255 107.615C3.51646 107.615 3.29845 107.659 3.08851 107.748C2.88665 107.829 2.71304 107.942 2.5677 108.087C2.42236 108.232 2.30932 108.406 2.22857 108.608C2.1559 108.81 2.12764 109.032 2.14379 109.274L0.823603 109.044C0.936646 108.244 1.25559 107.619 1.78043 107.167C2.30528 106.706 2.98354 106.476 3.81522 106.476C4.15435 106.476 4.48137 106.525 4.79627 106.622C5.11925 106.718 5.40186 106.864 5.6441 107.058C5.89441 107.251 6.09224 107.494 6.23758 107.784C6.39099 108.067 6.4677 108.398 6.4677 108.777C6.4677 109.294 6.35062 109.722 6.11646 110.061C5.8823 110.4 5.50683 110.651 4.99006 110.812C5.52298 110.966 5.93478 111.216 6.22547 111.563C6.51615 111.902 6.66149 112.354 6.66149 112.92C6.66149 113.348 6.58075 113.731 6.41925 114.07C6.25776 114.401 6.03975 114.684 5.76522 114.918C5.49068 115.152 5.1677 115.33 4.79627 115.451C4.43292 115.572 4.04534 115.633 3.63354 115.633C2.80994 115.633 2.15186 115.443 1.65932 115.063C1.16677 114.684 0.799379 114.086 0.557143 113.271L1.73199 112.786ZM14.0824 111.054C14.0824 111.587 14.0299 112.124 13.925 112.665C13.82 113.206 13.6383 113.699 13.3799 114.143C13.1296 114.579 12.7945 114.934 12.3747 115.209C11.9548 115.483 11.434 115.621 10.8122 115.621C10.1905 115.621 9.6697 115.483 9.24982 115.209C8.82994 114.934 8.49485 114.579 8.24454 114.143C7.99423 113.699 7.81659 113.206 7.71162 112.665C7.60665 112.124 7.55417 111.587 7.55417 111.054C7.55417 110.522 7.60665 109.985 7.71162 109.444C7.81659 108.894 7.99423 108.402 8.24454 107.966C8.49485 107.53 8.82994 107.175 9.24982 106.9C9.6697 106.617 10.1905 106.476 10.8122 106.476C11.4421 106.476 11.9669 106.617 12.3868 106.9C12.8067 107.183 13.1417 107.546 13.3921 107.99C13.6424 108.434 13.82 108.927 13.925 109.468C14.0299 110.009 14.0824 110.538 14.0824 111.054ZM12.7017 111.054C12.7017 110.74 12.6815 110.384 12.6411 109.989C12.6008 109.593 12.5119 109.217 12.3747 108.862C12.2455 108.507 12.0557 108.208 11.8054 107.966C11.5632 107.724 11.2321 107.603 10.8122 107.603C10.3924 107.603 10.0573 107.724 9.80696 107.966C9.56473 108.208 9.37498 108.507 9.23771 108.862C9.10852 109.217 9.02373 109.593 8.98336 109.989C8.94299 110.384 8.9228 110.74 8.9228 111.054C8.9228 111.369 8.94299 111.725 8.98336 112.12C9.02373 112.516 9.10852 112.891 9.23771 113.247C9.37498 113.602 9.56876 113.901 9.81908 114.143C10.0694 114.385 10.4004 114.506 10.8122 114.506C11.2321 114.506 11.5632 114.385 11.8054 114.143C12.0557 113.901 12.2455 113.602 12.3747 113.247C12.5119 112.891 12.6008 112.516 12.6411 112.12C12.6815 111.725 12.7017 111.369 12.7017 111.054ZM22.0968 106.464H23.2959L17.9183 115.669H16.7071L22.0968 106.464ZM16.9372 106.464C17.3248 106.464 17.6478 106.541 17.9062 106.694C18.1726 106.848 18.3826 107.049 18.536 107.3C18.6975 107.55 18.8105 107.837 18.8751 108.16C18.9397 108.475 18.972 108.802 18.972 109.141C18.972 109.472 18.9397 109.799 18.8751 110.122C18.8105 110.445 18.6975 110.735 18.536 110.994C18.3826 111.244 18.1726 111.45 17.9062 111.612C17.6478 111.765 17.3248 111.842 16.9372 111.842C16.5496 111.842 16.2226 111.765 15.9562 111.612C15.6978 111.45 15.4878 111.244 15.3263 110.994C15.1729 110.735 15.0599 110.445 14.9872 110.122C14.9226 109.799 14.8903 109.472 14.8903 109.141C14.8903 108.802 14.9226 108.475 14.9872 108.16C15.0599 107.837 15.1729 107.55 15.3263 107.3C15.4878 107.049 15.6978 106.848 15.9562 106.694C16.2226 106.541 16.5496 106.464 16.9372 106.464ZM16.9372 110.897C17.1552 110.897 17.3288 110.836 17.458 110.715C17.5872 110.594 17.6841 110.445 17.7487 110.267C17.8133 110.09 17.8537 109.9 17.8698 109.698C17.8941 109.496 17.9062 109.314 17.9062 109.153C17.9062 108.991 17.8941 108.81 17.8698 108.608C17.8537 108.406 17.8133 108.216 17.7487 108.039C17.6841 107.861 17.5872 107.712 17.458 107.59C17.3288 107.469 17.1552 107.409 16.9372 107.409C16.7192 107.409 16.5416 107.469 16.4043 107.59C16.2751 107.712 16.1782 107.861 16.1136 108.039C16.049 108.216 16.0046 108.406 15.9804 108.608C15.9642 108.81 15.9562 108.991 15.9562 109.153C15.9562 109.314 15.9642 109.496 15.9804 109.698C16.0046 109.9 16.049 110.09 16.1136 110.267C16.1863 110.445 16.2872 110.594 16.4164 110.715C16.5456 110.836 16.7192 110.897 16.9372 110.897ZM23.0658 110.267C23.4534 110.267 23.7763 110.344 24.0347 110.497C24.3012 110.651 24.5111 110.853 24.6645 111.103C24.826 111.353 24.9391 111.64 25.0037 111.963C25.0683 112.286 25.1006 112.613 25.1006 112.944C25.1006 113.283 25.0683 113.614 25.0037 113.937C24.9391 114.26 24.826 114.551 24.6645 114.809C24.5111 115.059 24.3052 115.261 24.0468 115.415C23.7885 115.568 23.4614 115.645 23.0658 115.645C22.6782 115.645 22.3512 115.568 22.0847 115.415C21.8263 115.261 21.6164 115.059 21.4549 114.809C21.3015 114.551 21.1885 114.26 21.1158 113.937C21.0512 113.614 21.0189 113.283 21.0189 112.944C21.0189 112.613 21.0512 112.286 21.1158 111.963C21.1885 111.64 21.3055 111.353 21.467 111.103C21.6285 110.853 21.8385 110.651 22.0968 110.497C22.3552 110.344 22.6782 110.267 23.0658 110.267ZM23.0658 114.7C23.2838 114.7 23.4574 114.64 23.5866 114.518C23.7158 114.397 23.8127 114.248 23.8773 114.07C23.9419 113.893 23.9822 113.703 23.9984 113.501C24.0226 113.299 24.0347 113.117 24.0347 112.956C24.0347 112.794 24.0226 112.613 23.9984 112.411C23.9822 112.209 23.9419 112.019 23.8773 111.842C23.8127 111.664 23.7158 111.515 23.5866 111.394C23.4574 111.272 23.2838 111.212 23.0658 111.212C22.8478 111.212 22.6701 111.272 22.5329 111.394C22.4037 111.515 22.3068 111.664 22.2422 111.842C22.1776 112.019 22.1332 112.209 22.109 112.411C22.0928 112.613 22.0847 112.794 22.0847 112.956C22.0847 113.117 22.0928 113.299 22.109 113.501C22.1332 113.703 22.1776 113.893 22.2422 114.07C22.3149 114.248 22.4158 114.397 22.545 114.518C22.6742 114.64 22.8478 114.7 23.0658 114.7Z" fill="#222222"/>
<path d="M7.00062 82.7351H5.76522V85H4.60248V82.7351H0.218012V81.7661L4.5177 76.0373H5.76522V81.6935H7.00062V82.7351ZM4.60248 81.6935V78.4233C4.60248 78.286 4.60652 78.1488 4.6146 78.0115C4.63075 77.8742 4.64689 77.7248 4.66304 77.5634L1.65932 81.6935H4.60248ZM14.0824 80.5307C14.0824 81.0637 14.0299 81.6006 13.925 82.1416C13.82 82.6826 13.6383 83.1752 13.3799 83.6193C13.1296 84.0553 12.7945 84.4106 12.3747 84.6851C11.9548 84.9596 11.434 85.0969 10.8122 85.0969C10.1905 85.0969 9.6697 84.9596 9.24982 84.6851C8.82994 84.4106 8.49485 84.0553 8.24454 83.6193C7.99423 83.1752 7.81659 82.6826 7.71162 82.1416C7.60665 81.6006 7.55417 81.0637 7.55417 80.5307C7.55417 79.9978 7.60665 79.4609 7.71162 78.9199C7.81659 78.3708 7.99423 77.8783 8.24454 77.4422C8.49485 77.0062 8.82994 76.6509 9.24982 76.3764C9.6697 76.0938 10.1905 75.9525 10.8122 75.9525C11.4421 75.9525 11.9669 76.0938 12.3868 76.3764C12.8067 76.659 13.1417 77.0224 13.3921 77.4665C13.6424 77.9106 13.82 78.4031 13.925 78.9441C14.0299 79.4851 14.0824 80.014 14.0824 80.5307ZM12.7017 80.5307C12.7017 80.2158 12.6815 79.8606 12.6411 79.4649C12.6008 79.0693 12.5119 78.6938 12.3747 78.3385C12.2455 77.9832 12.0557 77.6845 11.8054 77.4422C11.5632 77.2 11.2321 77.0789 10.8122 77.0789C10.3924 77.0789 10.0573 77.2 9.80696 77.4422C9.56473 77.6845 9.37498 77.9832 9.23771 78.3385C9.10852 78.6938 9.02373 79.0693 8.98336 79.4649C8.94299 79.8606 8.9228 80.2158 8.9228 80.5307C8.9228 80.8457 8.94299 81.2009 8.98336 81.5966C9.02373 81.9922 9.10852 82.3677 9.23771 82.723C9.37498 83.0783 9.56876 83.377 9.81908 83.6193C10.0694 83.8615 10.4004 83.9826 10.8122 83.9826C11.2321 83.9826 11.5632 83.8615 11.8054 83.6193C12.0557 83.377 12.2455 83.0783 12.3747 82.723C12.5119 82.3677 12.6008 81.9922 12.6411 81.5966C12.6815 81.2009 12.7017 80.8457 12.7017 80.5307ZM22.0968 75.9404H23.2959L17.9183 85.1453H16.7071L22.0968 75.9404ZM16.9372 75.9404C17.3248 75.9404 17.6478 76.0171 17.9062 76.1705C18.1726 76.3239 18.3826 76.5258 18.536 76.7761C18.6975 77.0264 18.8105 77.313 18.8751 77.636C18.9397 77.9509 18.972 78.278 18.972 78.6171C18.972 78.9481 18.9397 79.2752 18.8751 79.5981C18.8105 79.9211 18.6975 80.2118 18.536 80.4702C18.3826 80.7205 18.1726 80.9264 17.9062 81.0879C17.6478 81.2413 17.3248 81.318 16.9372 81.318C16.5496 81.318 16.2226 81.2413 15.9562 81.0879C15.6978 80.9264 15.4878 80.7205 15.3263 80.4702C15.1729 80.2118 15.0599 79.9211 14.9872 79.5981C14.9226 79.2752 14.8903 78.9481 14.8903 78.6171C14.8903 78.278 14.9226 77.9509 14.9872 77.636C15.0599 77.313 15.1729 77.0264 15.3263 76.7761C15.4878 76.5258 15.6978 76.3239 15.9562 76.1705C16.2226 76.0171 16.5496 75.9404 16.9372 75.9404ZM16.9372 80.3733C17.1552 80.3733 17.3288 80.3127 17.458 80.1916C17.5872 80.0705 17.6841 79.9211 17.7487 79.7435C17.8133 79.5658 17.8537 79.3761 17.8698 79.1742C17.8941 78.9724 17.9062 78.7907 17.9062 78.6292C17.9062 78.4677 17.8941 78.286 17.8698 78.0842C17.8537 77.8823 17.8133 77.6925 17.7487 77.5149C17.6841 77.3373 17.5872 77.1879 17.458 77.0668C17.3288 76.9457 17.1552 76.8851 16.9372 76.8851C16.7192 76.8851 16.5416 76.9457 16.4043 77.0668C16.2751 77.1879 16.1782 77.3373 16.1136 77.5149C16.049 77.6925 16.0046 77.8823 15.9804 78.0842C15.9642 78.286 15.9562 78.4677 15.9562 78.6292C15.9562 78.7907 15.9642 78.9724 15.9804 79.1742C16.0046 79.3761 16.049 79.5658 16.1136 79.7435C16.1863 79.9211 16.2872 80.0705 16.4164 80.1916C16.5456 80.3127 16.7192 80.3733 16.9372 80.3733ZM23.0658 79.7435C23.4534 79.7435 23.7763 79.8202 24.0347 79.9736C24.3012 80.127 24.5111 80.3289 24.6645 80.5792C24.826 80.8295 24.9391 81.1161 25.0037 81.4391C25.0683 81.7621 25.1006 82.0891 25.1006 82.4202C25.1006 82.7593 25.0683 83.0904 25.0037 83.4134C24.9391 83.7363 24.826 84.027 24.6645 84.2854C24.5111 84.5357 24.3052 84.7376 24.0468 84.891C23.7885 85.0444 23.4614 85.1211 23.0658 85.1211C22.6782 85.1211 22.3512 85.0444 22.0847 84.891C21.8263 84.7376 21.6164 84.5357 21.4549 84.2854C21.3015 84.027 21.1885 83.7363 21.1158 83.4134C21.0512 83.0904 21.0189 82.7593 21.0189 82.4202C21.0189 82.0891 21.0512 81.7621 21.1158 81.4391C21.1885 81.1161 21.3055 80.8295 21.467 80.5792C21.6285 80.3289 21.8385 80.127 22.0968 79.9736C22.3552 79.8202 22.6782 79.7435 23.0658 79.7435ZM23.0658 84.1764C23.2838 84.1764 23.4574 84.1158 23.5866 83.9947C23.7158 83.8736 23.8127 83.7242 23.8773 83.5466C23.9419 83.3689 23.9822 83.1792 23.9984 82.9773C24.0226 82.7755 24.0347 82.5938 24.0347 82.4323C24.0347 82.2708 24.0226 82.0891 23.9984 81.8873C23.9822 81.6854 23.9419 81.4957 23.8773 81.318C23.8127 81.1404 23.7158 80.991 23.5866 80.8699C23.4574 80.7488 23.2838 80.6882 23.0658 80.6882C22.8478 80.6882 22.6701 80.7488 22.5329 80.8699C22.4037 80.991 22.3068 81.1404 22.2422 81.318C22.1776 81.4957 22.1332 81.6854 22.109 81.8873C22.0928 82.0891 22.0847 82.2708 22.0847 82.4323C22.0847 82.5938 22.0928 82.7755 22.109 82.9773C22.1332 83.1792 22.1776 83.3689 22.2422 83.5466C22.3149 83.7242 22.4158 83.8736 22.545 83.9947C22.6742 84.1158 22.8478 84.1764 23.0658 84.1764Z" fill="#222222"/>
<path d="M108.6 228.312H103.01V227.597L105.794 224.802C105.987 224.608 106.17 224.414 106.342 224.221C106.513 224.027 106.673 223.814 106.822 223.583C106.964 223.33 107.068 223.054 107.135 222.756C107.202 222.458 107.206 222.182 107.146 221.929C107.094 221.668 106.964 221.452 106.755 221.28C106.554 221.101 106.256 221.012 105.861 221.012C105.637 221.012 105.432 221.053 105.246 221.135C105.06 221.209 104.899 221.314 104.765 221.448C104.631 221.582 104.53 221.742 104.463 221.929C104.396 222.115 104.37 222.32 104.385 222.544L103.155 222.32C103.26 221.575 103.554 220.997 104.038 220.587C104.53 220.17 105.16 219.961 105.928 219.961C106.278 219.961 106.606 220.013 106.912 220.117C107.217 220.214 107.482 220.363 107.705 220.565C107.937 220.758 108.119 221.001 108.253 221.291C108.387 221.582 108.455 221.914 108.455 222.286C108.455 222.599 108.406 222.89 108.309 223.158C108.212 223.427 108.082 223.684 107.918 223.93C107.761 224.168 107.583 224.396 107.381 224.612C107.18 224.828 106.975 225.04 106.766 225.249L104.664 227.373C104.836 227.329 105.011 227.291 105.19 227.262C105.376 227.232 105.559 227.217 105.738 227.217H108.6V228.312ZM115.484 224.187C115.484 224.679 115.435 225.175 115.338 225.674C115.241 226.173 115.074 226.628 114.835 227.038C114.604 227.44 114.295 227.768 113.907 228.022C113.52 228.275 113.039 228.402 112.465 228.402C111.891 228.402 111.41 228.275 111.023 228.022C110.635 227.768 110.326 227.44 110.095 227.038C109.864 226.628 109.7 226.173 109.603 225.674C109.506 225.175 109.457 224.679 109.457 224.187C109.457 223.695 109.506 223.199 109.603 222.7C109.7 222.193 109.864 221.739 110.095 221.336C110.326 220.934 110.635 220.606 111.023 220.352C111.41 220.091 111.891 219.961 112.465 219.961C113.046 219.961 113.531 220.091 113.918 220.352C114.306 220.613 114.615 220.949 114.846 221.358C115.077 221.768 115.241 222.223 115.338 222.722C115.435 223.222 115.484 223.71 115.484 224.187ZM114.209 224.187C114.209 223.896 114.19 223.568 114.153 223.203C114.116 222.838 114.034 222.491 113.907 222.163C113.788 221.835 113.613 221.56 113.382 221.336C113.158 221.112 112.852 221.001 112.465 221.001C112.077 221.001 111.768 221.112 111.537 221.336C111.313 221.56 111.138 221.835 111.011 222.163C110.892 222.491 110.814 222.838 110.777 223.203C110.739 223.568 110.721 223.896 110.721 224.187C110.721 224.478 110.739 224.806 110.777 225.171C110.814 225.536 110.892 225.883 111.011 226.211C111.138 226.539 111.317 226.814 111.548 227.038C111.779 227.262 112.085 227.373 112.465 227.373C112.852 227.373 113.158 227.262 113.382 227.038C113.613 226.814 113.788 226.539 113.907 226.211C114.034 225.883 114.116 225.536 114.153 225.171C114.19 224.806 114.209 224.478 114.209 224.187ZM124.983 219.067V229.162H123.888V223.997H122.691V228.67H121.607V219.279H122.691V223.058H123.888V219.067H124.983ZM117.839 225.819C118.421 225.812 118.954 225.79 119.438 225.752C119.93 225.715 120.437 225.644 120.958 225.54L121.059 226.49C120.754 226.55 120.455 226.598 120.165 226.635C119.881 226.673 119.591 226.703 119.293 226.725C119.002 226.74 118.7 226.751 118.387 226.758C118.074 226.766 117.739 226.77 117.381 226.77H116.71V220.274H120.444V221.213H117.839V225.819Z" fill="#F67499"/>
<path d="M103.817 241.528C103.835 241.702 103.888 241.87 103.975 242.031C104.068 242.193 104.18 242.332 104.31 242.45C104.441 242.568 104.59 242.665 104.758 242.739C104.925 242.807 105.096 242.842 105.27 242.842C105.444 242.842 105.609 242.814 105.764 242.758C105.925 242.702 106.065 242.624 106.183 242.525C106.307 242.419 106.404 242.295 106.472 242.152C106.546 242.003 106.584 241.839 106.584 241.658C106.584 241.398 106.534 241.189 106.435 241.034C106.342 240.879 106.217 240.761 106.062 240.68C105.907 240.599 105.73 240.547 105.531 240.522C105.332 240.497 105.127 240.484 104.916 240.484V239.739C105.109 239.739 105.298 239.724 105.484 239.693C105.671 239.661 105.835 239.606 105.978 239.525C106.121 239.438 106.236 239.323 106.323 239.18C106.416 239.037 106.463 238.851 106.463 238.621C106.463 238.286 106.363 238.025 106.164 237.839C105.972 237.646 105.705 237.55 105.363 237.55C105.189 237.55 105.022 237.584 104.86 237.652C104.705 237.714 104.571 237.801 104.46 237.913C104.348 238.025 104.261 238.158 104.199 238.314C104.143 238.469 104.121 238.64 104.133 238.826L103.118 238.649C103.205 238.034 103.45 237.553 103.854 237.205C104.258 236.851 104.779 236.674 105.419 236.674C105.68 236.674 105.932 236.711 106.174 236.786C106.422 236.86 106.64 236.972 106.826 237.121C107.019 237.27 107.171 237.457 107.283 237.68C107.401 237.898 107.46 238.152 107.46 238.444C107.46 238.842 107.369 239.171 107.189 239.432C107.009 239.693 106.72 239.885 106.323 240.009C106.733 240.127 107.05 240.32 107.273 240.587C107.497 240.848 107.609 241.196 107.609 241.63C107.609 241.96 107.546 242.255 107.422 242.516C107.298 242.77 107.13 242.988 106.919 243.168C106.708 243.348 106.46 243.484 106.174 243.578C105.894 243.671 105.596 243.717 105.279 243.717C104.646 243.717 104.14 243.571 103.761 243.28C103.382 242.988 103.099 242.528 102.913 241.901L103.817 241.528ZM112.46 236.748L110.131 239.637C110.454 239.457 110.801 239.366 111.174 239.366C111.485 239.366 111.764 239.419 112.013 239.525C112.267 239.624 112.482 239.767 112.656 239.953C112.836 240.134 112.972 240.351 113.065 240.606C113.165 240.854 113.215 241.127 113.215 241.425C113.215 241.761 113.152 242.068 113.028 242.348C112.904 242.627 112.733 242.87 112.516 243.075C112.298 243.273 112.044 243.429 111.752 243.54C111.46 243.652 111.146 243.708 110.811 243.708C110.457 243.708 110.134 243.652 109.842 243.54C109.556 243.429 109.311 243.27 109.106 243.065C108.907 242.854 108.752 242.602 108.64 242.311C108.534 242.012 108.482 241.68 108.482 241.314C108.482 240.941 108.562 240.581 108.724 240.233C108.892 239.879 109.084 239.556 109.301 239.264L111.183 236.748H112.46ZM110.792 242.86C110.985 242.86 111.165 242.829 111.333 242.767C111.506 242.699 111.656 242.606 111.78 242.488C111.904 242.363 112.003 242.221 112.078 242.059C112.152 241.891 112.19 241.705 112.19 241.5C112.19 241.09 112.065 240.764 111.817 240.522C111.569 240.273 111.239 240.149 110.829 240.149C110.637 240.149 110.457 240.183 110.289 240.252C110.121 240.32 109.975 240.413 109.851 240.531C109.733 240.649 109.64 240.789 109.572 240.95C109.503 241.112 109.469 241.289 109.469 241.481C109.469 241.885 109.581 242.217 109.805 242.478C110.034 242.733 110.364 242.86 110.792 242.86ZM115.094 243.755H113.994V242.599H115.094V243.755ZM120.476 236.748L118.146 239.637C118.469 239.457 118.817 239.366 119.19 239.366C119.5 239.366 119.78 239.419 120.028 239.525C120.283 239.624 120.497 239.767 120.671 239.953C120.851 240.134 120.988 240.351 121.081 240.606C121.181 240.854 121.23 241.127 121.23 241.425C121.23 241.761 121.168 242.068 121.044 242.348C120.92 242.627 120.749 242.87 120.531 243.075C120.314 243.273 120.059 243.429 119.767 243.54C119.476 243.652 119.162 243.708 118.826 243.708C118.472 243.708 118.149 243.652 117.858 243.54C117.572 243.429 117.326 243.27 117.122 243.065C116.923 242.854 116.767 242.602 116.656 242.311C116.55 242.012 116.497 241.68 116.497 241.314C116.497 240.941 116.578 240.581 116.74 240.233C116.907 239.879 117.1 239.556 117.317 239.264L119.199 236.748H120.476ZM118.808 242.86C119 242.86 119.181 242.829 119.348 242.767C119.522 242.699 119.671 242.606 119.795 242.488C119.92 242.363 120.019 242.221 120.094 242.059C120.168 241.891 120.205 241.705 120.205 241.5C120.205 241.09 120.081 240.764 119.833 240.522C119.584 240.273 119.255 240.149 118.845 240.149C118.653 240.149 118.472 240.183 118.305 240.252C118.137 240.32 117.991 240.413 117.867 240.531C117.749 240.649 117.656 240.789 117.587 240.95C117.519 241.112 117.485 241.289 117.485 241.481C117.485 241.885 117.597 242.217 117.82 242.478C118.05 242.733 118.379 242.86 118.808 242.86ZM127.498 236.665H128.42L124.283 243.745H123.352L127.498 236.665ZM123.529 236.665C123.827 236.665 124.075 236.724 124.274 236.842C124.479 236.96 124.641 237.115 124.759 237.307C124.883 237.5 124.97 237.721 125.019 237.969C125.069 238.211 125.094 238.463 125.094 238.724C125.094 238.978 125.069 239.23 125.019 239.478C124.97 239.727 124.883 239.95 124.759 240.149C124.641 240.342 124.479 240.5 124.274 240.624C124.075 240.742 123.827 240.801 123.529 240.801C123.231 240.801 122.979 240.742 122.774 240.624C122.575 240.5 122.414 240.342 122.29 240.149C122.172 239.95 122.085 239.727 122.029 239.478C121.979 239.23 121.954 238.978 121.954 238.724C121.954 238.463 121.979 238.211 122.029 237.969C122.085 237.721 122.172 237.5 122.29 237.307C122.414 237.115 122.575 236.96 122.774 236.842C122.979 236.724 123.231 236.665 123.529 236.665ZM123.529 240.075C123.696 240.075 123.83 240.028 123.929 239.935C124.029 239.842 124.103 239.727 124.153 239.59C124.203 239.453 124.234 239.307 124.246 239.152C124.265 238.997 124.274 238.857 124.274 238.733C124.274 238.609 124.265 238.469 124.246 238.314C124.234 238.158 124.203 238.012 124.153 237.876C124.103 237.739 124.029 237.624 123.929 237.531C123.83 237.438 123.696 237.391 123.529 237.391C123.361 237.391 123.224 237.438 123.119 237.531C123.019 237.624 122.945 237.739 122.895 237.876C122.845 238.012 122.811 238.158 122.793 238.314C122.78 238.469 122.774 238.609 122.774 238.733C122.774 238.857 122.78 238.997 122.793 239.152C122.811 239.307 122.845 239.453 122.895 239.59C122.951 239.727 123.029 239.842 123.128 239.935C123.227 240.028 123.361 240.075 123.529 240.075ZM128.243 239.59C128.541 239.59 128.79 239.649 128.988 239.767C129.193 239.885 129.355 240.04 129.473 240.233C129.597 240.425 129.684 240.646 129.734 240.894C129.783 241.143 129.808 241.394 129.808 241.649C129.808 241.91 129.783 242.165 129.734 242.413C129.684 242.661 129.597 242.885 129.473 243.084C129.355 243.276 129.196 243.432 128.998 243.55C128.799 243.668 128.547 243.727 128.243 243.727C127.945 243.727 127.693 243.668 127.488 243.55C127.29 243.432 127.128 243.276 127.004 243.084C126.886 242.885 126.799 242.661 126.743 242.413C126.693 242.165 126.668 241.91 126.668 241.649C126.668 241.394 126.693 241.143 126.743 240.894C126.799 240.646 126.889 240.425 127.013 240.233C127.137 240.04 127.299 239.885 127.498 239.767C127.696 239.649 127.945 239.59 128.243 239.59ZM128.243 243C128.411 243 128.544 242.953 128.644 242.86C128.743 242.767 128.818 242.652 128.867 242.516C128.917 242.379 128.948 242.233 128.96 242.078C128.979 241.922 128.988 241.783 128.988 241.658C128.988 241.534 128.979 241.394 128.96 241.239C128.948 241.084 128.917 240.938 128.867 240.801C128.818 240.665 128.743 240.55 128.644 240.457C128.544 240.363 128.411 240.317 128.243 240.317C128.075 240.317 127.939 240.363 127.833 240.457C127.734 240.55 127.659 240.665 127.609 240.801C127.56 240.938 127.526 241.084 127.507 241.239C127.495 241.394 127.488 241.534 127.488 241.658C127.488 241.783 127.495 241.922 127.507 242.078C127.526 242.233 127.56 242.379 127.609 242.516C127.665 242.652 127.743 242.767 127.842 242.86C127.942 242.953 128.075 243 128.243 243Z" fill="#F67499"/>
<path d="M158.12 225.786C158.143 225.994 158.206 226.196 158.31 226.39C158.422 226.583 158.556 226.751 158.713 226.893C158.869 227.034 159.048 227.15 159.249 227.239C159.451 227.321 159.656 227.362 159.864 227.362C160.073 227.362 160.271 227.329 160.457 227.262C160.651 227.194 160.818 227.101 160.96 226.982C161.109 226.855 161.225 226.706 161.307 226.535C161.396 226.356 161.441 226.158 161.441 225.942C161.441 225.629 161.381 225.38 161.262 225.193C161.15 225.007 161.001 224.865 160.815 224.768C160.628 224.672 160.416 224.608 160.177 224.578C159.939 224.549 159.693 224.534 159.439 224.534V223.639C159.671 223.639 159.898 223.621 160.121 223.583C160.345 223.546 160.543 223.479 160.714 223.382C160.885 223.278 161.023 223.14 161.128 222.968C161.239 222.797 161.295 222.573 161.295 222.298C161.295 221.895 161.176 221.582 160.938 221.358C160.707 221.127 160.386 221.012 159.976 221.012C159.767 221.012 159.566 221.053 159.372 221.135C159.186 221.209 159.026 221.314 158.892 221.448C158.758 221.582 158.653 221.742 158.579 221.929C158.512 222.115 158.485 222.32 158.5 222.544L157.282 222.331C157.386 221.593 157.68 221.016 158.165 220.598C158.649 220.173 159.276 219.961 160.043 219.961C160.356 219.961 160.658 220.006 160.949 220.095C161.247 220.185 161.508 220.319 161.731 220.498C161.962 220.676 162.145 220.9 162.279 221.168C162.421 221.429 162.492 221.735 162.492 222.085C162.492 222.562 162.384 222.957 162.167 223.27C161.951 223.583 161.605 223.814 161.128 223.963C161.62 224.105 162 224.336 162.268 224.657C162.536 224.97 162.671 225.387 162.671 225.909C162.671 226.304 162.596 226.658 162.447 226.971C162.298 227.276 162.097 227.537 161.843 227.753C161.59 227.97 161.292 228.134 160.949 228.245C160.613 228.357 160.256 228.413 159.876 228.413C159.115 228.413 158.508 228.238 158.053 227.888C157.599 227.537 157.259 226.986 157.036 226.233L158.12 225.786ZM169.521 224.187C169.521 224.679 169.472 225.175 169.375 225.674C169.278 226.173 169.111 226.628 168.872 227.038C168.641 227.44 168.332 227.768 167.944 228.022C167.557 228.275 167.076 228.402 166.502 228.402C165.928 228.402 165.447 228.275 165.06 228.022C164.672 227.768 164.363 227.44 164.132 227.038C163.901 226.628 163.737 226.173 163.64 225.674C163.543 225.175 163.495 224.679 163.495 224.187C163.495 223.695 163.543 223.199 163.64 222.7C163.737 222.193 163.901 221.739 164.132 221.336C164.363 220.934 164.672 220.606 165.06 220.352C165.447 220.091 165.928 219.961 166.502 219.961C167.083 219.961 167.568 220.091 167.955 220.352C168.343 220.613 168.652 220.949 168.883 221.358C169.114 221.768 169.278 222.223 169.375 222.722C169.472 223.222 169.521 223.71 169.521 224.187ZM168.246 224.187C168.246 223.896 168.227 223.568 168.19 223.203C168.153 222.838 168.071 222.491 167.944 222.163C167.825 221.835 167.65 221.56 167.419 221.336C167.195 221.112 166.89 221.001 166.502 221.001C166.114 221.001 165.805 221.112 165.574 221.336C165.35 221.56 165.175 221.835 165.049 222.163C164.929 222.491 164.851 222.838 164.814 223.203C164.777 223.568 164.758 223.896 164.758 224.187C164.758 224.478 164.777 224.806 164.814 225.171C164.851 225.536 164.929 225.883 165.049 226.211C165.175 226.539 165.354 226.814 165.585 227.038C165.816 227.262 166.122 227.373 166.502 227.373C166.89 227.373 167.195 227.262 167.419 227.038C167.65 226.814 167.825 226.539 167.944 226.211C168.071 225.883 168.153 225.536 168.19 225.171C168.227 224.806 168.246 224.478 168.246 224.187ZM179.02 219.067V229.162H177.925V223.997H176.729V228.67H175.644V219.279H176.729V223.058H177.925V219.067H179.02ZM171.876 225.819C172.458 225.812 172.991 225.79 173.475 225.752C173.967 225.715 174.474 225.644 174.996 225.54L175.096 226.49C174.791 226.55 174.492 226.598 174.202 226.635C173.919 226.673 173.628 226.703 173.33 226.725C173.039 226.74 172.737 226.751 172.424 226.758C172.111 226.766 171.776 226.77 171.418 226.77H170.747V220.274H174.481V221.213H171.876V225.819Z" fill="#F67499"/>
<path d="M161.618 243.634H156.959V243.037L159.279 240.708C159.441 240.547 159.593 240.385 159.736 240.224C159.879 240.062 160.012 239.885 160.136 239.693C160.254 239.481 160.341 239.252 160.397 239.003C160.453 238.755 160.456 238.525 160.407 238.314C160.363 238.096 160.254 237.916 160.08 237.773C159.913 237.624 159.664 237.55 159.335 237.55C159.149 237.55 158.978 237.584 158.823 237.652C158.667 237.714 158.534 237.801 158.422 237.913C158.31 238.025 158.226 238.158 158.171 238.314C158.115 238.469 158.093 238.64 158.105 238.826L157.08 238.64C157.167 238.019 157.413 237.537 157.817 237.196C158.226 236.848 158.751 236.674 159.391 236.674C159.683 236.674 159.956 236.717 160.211 236.804C160.466 236.885 160.686 237.009 160.872 237.177C161.065 237.339 161.217 237.54 161.329 237.783C161.441 238.025 161.497 238.301 161.497 238.612C161.497 238.873 161.456 239.115 161.376 239.339C161.295 239.562 161.186 239.776 161.049 239.981C160.919 240.18 160.77 240.37 160.602 240.55C160.435 240.73 160.264 240.907 160.09 241.081L158.338 242.851C158.481 242.814 158.627 242.783 158.776 242.758C158.931 242.733 159.084 242.721 159.233 242.721H161.618V243.634ZM166.497 236.748L164.168 239.637C164.491 239.457 164.839 239.366 165.211 239.366C165.522 239.366 165.801 239.419 166.05 239.525C166.304 239.624 166.519 239.767 166.693 239.953C166.873 240.134 167.009 240.351 167.103 240.606C167.202 240.854 167.252 241.127 167.252 241.425C167.252 241.761 167.19 242.068 167.065 242.348C166.941 242.627 166.77 242.87 166.553 243.075C166.335 243.273 166.081 243.429 165.789 243.54C165.497 243.652 165.183 243.708 164.848 243.708C164.494 243.708 164.171 243.652 163.879 243.54C163.593 243.429 163.348 243.27 163.143 243.065C162.944 242.854 162.789 242.602 162.677 242.311C162.572 242.012 162.519 241.68 162.519 241.314C162.519 240.941 162.599 240.581 162.761 240.233C162.929 239.879 163.121 239.556 163.339 239.264L165.221 236.748H166.497ZM164.829 242.86C165.022 242.86 165.202 242.829 165.37 242.767C165.544 242.699 165.693 242.606 165.817 242.488C165.941 242.363 166.04 242.221 166.115 242.059C166.19 241.891 166.227 241.705 166.227 241.5C166.227 241.09 166.103 240.764 165.854 240.522C165.606 240.273 165.276 240.149 164.867 240.149C164.674 240.149 164.494 240.183 164.326 240.252C164.158 240.32 164.013 240.413 163.888 240.531C163.77 240.649 163.677 240.789 163.609 240.95C163.54 241.112 163.506 241.289 163.506 241.481C163.506 241.885 163.618 242.217 163.842 242.478C164.072 242.733 164.401 242.86 164.829 242.86ZM169.131 243.755H168.031V242.599H169.131V243.755ZM173.954 240.037C174.364 240.161 174.677 240.366 174.895 240.652C175.112 240.932 175.221 241.286 175.221 241.714C175.221 242.056 175.156 242.354 175.025 242.609C174.895 242.857 174.718 243.062 174.494 243.224C174.277 243.385 174.025 243.506 173.739 243.587C173.46 243.668 173.168 243.708 172.864 243.708C172.547 243.708 172.246 243.668 171.96 243.587C171.674 243.506 171.423 243.382 171.205 243.214C170.994 243.047 170.823 242.839 170.693 242.59C170.569 242.342 170.506 242.05 170.506 241.714C170.506 241.28 170.615 240.922 170.833 240.643C171.056 240.363 171.373 240.161 171.783 240.037C171.435 239.907 171.174 239.711 171 239.45C170.826 239.183 170.739 238.866 170.739 238.5C170.739 238.208 170.798 237.95 170.916 237.727C171.034 237.497 171.19 237.304 171.382 237.149C171.581 236.994 171.808 236.876 172.062 236.795C172.323 236.714 172.59 236.674 172.864 236.674C173.137 236.674 173.401 236.714 173.656 236.795C173.916 236.876 174.143 236.994 174.336 237.149C174.534 237.304 174.693 237.497 174.811 237.727C174.929 237.95 174.988 238.208 174.988 238.5C174.988 238.866 174.901 239.183 174.727 239.45C174.553 239.711 174.295 239.907 173.954 240.037ZM172.864 237.457C172.528 237.457 172.255 237.55 172.044 237.736C171.839 237.922 171.736 238.183 171.736 238.519C171.736 238.885 171.836 239.168 172.034 239.366C172.233 239.559 172.51 239.655 172.864 239.655C173.211 239.655 173.485 239.556 173.683 239.357C173.888 239.158 173.991 238.879 173.991 238.519C173.991 238.177 173.882 237.916 173.665 237.736C173.447 237.55 173.18 237.457 172.864 237.457ZM172.864 242.898C173.044 242.898 173.211 242.873 173.367 242.823C173.528 242.773 173.668 242.699 173.786 242.599C173.904 242.494 173.997 242.366 174.065 242.217C174.134 242.068 174.168 241.894 174.168 241.696C174.168 241.286 174.044 240.981 173.795 240.783C173.547 240.578 173.236 240.475 172.864 240.475C172.491 240.475 172.18 240.578 171.932 240.783C171.683 240.981 171.559 241.286 171.559 241.696C171.559 242.075 171.68 242.37 171.923 242.581C172.171 242.792 172.485 242.898 172.864 242.898ZM181.535 236.665H182.457L178.32 243.745H177.389L181.535 236.665ZM177.566 236.665C177.864 236.665 178.112 236.724 178.311 236.842C178.516 236.96 178.678 237.115 178.796 237.307C178.92 237.5 179.007 237.721 179.056 237.969C179.106 238.211 179.131 238.463 179.131 238.724C179.131 238.978 179.106 239.23 179.056 239.478C179.007 239.727 178.92 239.95 178.796 240.149C178.678 240.342 178.516 240.5 178.311 240.624C178.112 240.742 177.864 240.801 177.566 240.801C177.268 240.801 177.016 240.742 176.811 240.624C176.612 240.5 176.451 240.342 176.327 240.149C176.209 239.95 176.122 239.727 176.066 239.478C176.016 239.23 175.991 238.978 175.991 238.724C175.991 238.463 176.016 238.211 176.066 237.969C176.122 237.721 176.209 237.5 176.327 237.307C176.451 237.115 176.612 236.96 176.811 236.842C177.016 236.724 177.268 236.665 177.566 236.665ZM177.566 240.075C177.734 240.075 177.867 240.028 177.966 239.935C178.066 239.842 178.14 239.727 178.19 239.59C178.24 239.453 178.271 239.307 178.283 239.152C178.302 238.997 178.311 238.857 178.311 238.733C178.311 238.609 178.302 238.469 178.283 238.314C178.271 238.158 178.24 238.012 178.19 237.876C178.14 237.739 178.066 237.624 177.966 237.531C177.867 237.438 177.734 237.391 177.566 237.391C177.398 237.391 177.261 237.438 177.156 237.531C177.056 237.624 176.982 237.739 176.932 237.876C176.883 238.012 176.848 238.158 176.83 238.314C176.817 238.469 176.811 238.609 176.811 238.733C176.811 238.857 176.817 238.997 176.83 239.152C176.848 239.307 176.883 239.453 176.932 239.59C176.988 239.727 177.066 239.842 177.165 239.935C177.265 240.028 177.398 240.075 177.566 240.075ZM182.28 239.59C182.578 239.59 182.827 239.649 183.025 239.767C183.23 239.885 183.392 240.04 183.51 240.233C183.634 240.425 183.721 240.646 183.771 240.894C183.82 241.143 183.845 241.394 183.845 241.649C183.845 241.91 183.82 242.165 183.771 242.413C183.721 242.661 183.634 242.885 183.51 243.084C183.392 243.276 183.234 243.432 183.035 243.55C182.836 243.668 182.584 243.727 182.28 243.727C181.982 243.727 181.73 243.668 181.525 243.55C181.327 243.432 181.165 243.276 181.041 243.084C180.923 242.885 180.836 242.661 180.78 242.413C180.73 242.165 180.706 241.91 180.706 241.649C180.706 241.394 180.73 241.143 180.78 240.894C180.836 240.646 180.926 240.425 181.05 240.233C181.175 240.04 181.336 239.885 181.535 239.767C181.734 239.649 181.982 239.59 182.28 239.59ZM182.28 243C182.448 243 182.581 242.953 182.681 242.86C182.78 242.767 182.855 242.652 182.904 242.516C182.954 242.379 182.985 242.233 182.997 242.078C183.016 241.922 183.025 241.783 183.025 241.658C183.025 241.534 183.016 241.394 182.997 241.239C182.985 241.084 182.954 240.938 182.904 240.801C182.855 240.665 182.78 240.55 182.681 240.457C182.581 240.363 182.448 240.317 182.28 240.317C182.112 240.317 181.976 240.363 181.87 240.457C181.771 240.55 181.696 240.665 181.647 240.801C181.597 240.938 181.563 241.084 181.544 241.239C181.532 241.394 181.525 241.534 181.525 241.658C181.525 241.783 181.532 241.922 181.544 242.078C181.563 242.233 181.597 242.379 181.647 242.516C181.702 242.652 181.78 242.767 181.879 242.86C181.979 242.953 182.112 243 182.28 243Z" fill="#F67499"/>
<path d="M214.462 226.222H213.322V228.312H212.248V226.222H208.201V225.327L212.17 220.039H213.322V225.26H214.462V226.222ZM212.248 225.26V222.242C212.248 222.115 212.252 221.988 212.26 221.862C212.275 221.735 212.289 221.597 212.304 221.448L209.532 225.26H212.248ZM220.999 224.187C220.999 224.679 220.951 225.175 220.854 225.674C220.757 226.173 220.589 226.628 220.351 227.038C220.12 227.44 219.81 227.768 219.423 228.022C219.035 228.275 218.554 228.402 217.981 228.402C217.407 228.402 216.926 228.275 216.538 228.022C216.151 227.768 215.841 227.44 215.61 227.038C215.379 226.628 215.215 226.173 215.118 225.674C215.022 225.175 214.973 224.679 214.973 224.187C214.973 223.695 215.022 223.199 215.118 222.7C215.215 222.193 215.379 221.739 215.61 221.336C215.841 220.934 216.151 220.606 216.538 220.352C216.926 220.091 217.407 219.961 217.981 219.961C218.562 219.961 219.046 220.091 219.434 220.352C219.822 220.613 220.131 220.949 220.362 221.358C220.593 221.768 220.757 222.223 220.854 222.722C220.951 223.222 220.999 223.71 220.999 224.187ZM219.725 224.187C219.725 223.896 219.706 223.568 219.669 223.203C219.631 222.838 219.549 222.491 219.423 222.163C219.304 221.835 219.128 221.56 218.897 221.336C218.674 221.112 218.368 221.001 217.981 221.001C217.593 221.001 217.284 221.112 217.053 221.336C216.829 221.56 216.654 221.835 216.527 222.163C216.408 222.491 216.33 222.838 216.292 223.203C216.255 223.568 216.236 223.896 216.236 224.187C216.236 224.478 216.255 224.806 216.292 225.171C216.33 225.536 216.408 225.883 216.527 226.211C216.654 226.539 216.833 226.814 217.064 227.038C217.295 227.262 217.6 227.373 217.981 227.373C218.368 227.373 218.674 227.262 218.897 227.038C219.128 226.814 219.304 226.539 219.423 226.211C219.549 225.883 219.631 225.536 219.669 225.171C219.706 224.806 219.725 224.478 219.725 224.187ZM230.499 219.067V229.162H229.403V223.997H228.207V228.67H227.123V219.279H228.207V223.058H229.403V219.067H230.499ZM223.355 225.819C223.936 225.812 224.469 225.79 224.954 225.752C225.446 225.715 225.952 225.644 226.474 225.54L226.575 226.49C226.269 226.55 225.971 226.598 225.68 226.635C225.397 226.673 225.106 226.703 224.808 226.725C224.518 226.74 224.216 226.751 223.903 226.758C223.59 226.766 223.254 226.77 222.896 226.77H222.226V220.274H225.96V221.213H223.355V225.819Z" fill="#222222"/>
<path d="M214.96 243.634H210.301V243.037L212.621 240.708C212.783 240.547 212.935 240.385 213.078 240.224C213.22 240.062 213.354 239.885 213.478 239.693C213.596 239.481 213.683 239.252 213.739 239.003C213.795 238.755 213.798 238.525 213.748 238.314C213.705 238.096 213.596 237.916 213.422 237.773C213.255 237.624 213.006 237.55 212.677 237.55C212.491 237.55 212.32 237.584 212.165 237.652C212.009 237.714 211.876 237.801 211.764 237.913C211.652 238.025 211.568 238.158 211.512 238.314C211.456 238.469 211.435 238.64 211.447 238.826L210.422 238.64C210.509 238.019 210.755 237.537 211.158 237.196C211.568 236.848 212.093 236.674 212.733 236.674C213.025 236.674 213.298 236.717 213.553 236.804C213.807 236.885 214.028 237.009 214.214 237.177C214.407 237.339 214.559 237.54 214.671 237.783C214.783 238.025 214.838 238.301 214.838 238.612C214.838 238.873 214.798 239.115 214.717 239.339C214.637 239.562 214.528 239.776 214.391 239.981C214.261 240.18 214.112 240.37 213.944 240.55C213.776 240.73 213.606 240.907 213.432 241.081L211.68 242.851C211.823 242.814 211.969 242.783 212.118 242.758C212.273 242.733 212.425 242.721 212.574 242.721H214.96V243.634ZM216.885 239.012L216.317 238.323L218.18 236.73H219.019V242.739H220.314V243.634H216.559V242.739H217.994V238.304C217.994 238.23 217.997 238.152 218.003 238.071L216.885 239.012ZM222.473 243.755H221.373V242.599H222.473V243.755ZM224.491 242.189C224.69 242.376 224.92 242.531 225.181 242.655C225.441 242.773 225.712 242.832 225.991 242.832C226.215 242.832 226.417 242.795 226.597 242.721C226.777 242.64 226.926 242.534 227.044 242.404C227.168 242.267 227.261 242.109 227.323 241.929C227.392 241.742 227.426 241.543 227.426 241.332C227.426 240.904 227.299 240.581 227.044 240.363C226.795 240.146 226.457 240.037 226.028 240.037C225.848 240.037 225.668 240.056 225.488 240.093C225.314 240.124 225.14 240.165 224.966 240.214L224.333 240.037L224.892 236.748H228.227V237.689H225.609L225.33 239.292C225.64 239.224 225.945 239.189 226.243 239.189C226.559 239.189 226.851 239.236 227.118 239.329C227.386 239.416 227.618 239.55 227.817 239.73C228.016 239.904 228.171 240.121 228.283 240.382C228.395 240.637 228.451 240.935 228.451 241.276C228.451 241.637 228.389 241.969 228.264 242.273C228.14 242.571 227.966 242.826 227.743 243.037C227.519 243.248 227.252 243.413 226.941 243.531C226.631 243.649 226.292 243.708 225.926 243.708C225.659 243.708 225.382 243.668 225.097 243.587C224.811 243.506 224.559 243.385 224.342 243.224C224.199 243.137 224.072 243.04 223.96 242.935L224.491 242.189ZM234.877 236.665H235.799L231.662 243.745H230.731L234.877 236.665ZM230.908 236.665C231.206 236.665 231.454 236.724 231.653 236.842C231.858 236.96 232.019 237.115 232.137 237.307C232.262 237.5 232.349 237.721 232.398 237.969C232.448 238.211 232.473 238.463 232.473 238.724C232.473 238.978 232.448 239.23 232.398 239.478C232.349 239.727 232.262 239.95 232.137 240.149C232.019 240.342 231.858 240.5 231.653 240.624C231.454 240.742 231.206 240.801 230.908 240.801C230.609 240.801 230.358 240.742 230.153 240.624C229.954 240.5 229.793 240.342 229.668 240.149C229.55 239.95 229.464 239.727 229.408 239.478C229.358 239.23 229.333 238.978 229.333 238.724C229.333 238.463 229.358 238.211 229.408 237.969C229.464 237.721 229.55 237.5 229.668 237.307C229.793 237.115 229.954 236.96 230.153 236.842C230.358 236.724 230.609 236.665 230.908 236.665ZM230.908 240.075C231.075 240.075 231.209 240.028 231.308 239.935C231.408 239.842 231.482 239.727 231.532 239.59C231.582 239.453 231.613 239.307 231.625 239.152C231.644 238.997 231.653 238.857 231.653 238.733C231.653 238.609 231.644 238.469 231.625 238.314C231.613 238.158 231.582 238.012 231.532 237.876C231.482 237.739 231.408 237.624 231.308 237.531C231.209 237.438 231.075 237.391 230.908 237.391C230.74 237.391 230.603 237.438 230.498 237.531C230.398 237.624 230.324 237.739 230.274 237.876C230.224 238.012 230.19 238.158 230.172 238.314C230.159 238.469 230.153 238.609 230.153 238.733C230.153 238.857 230.159 238.997 230.172 239.152C230.19 239.307 230.224 239.453 230.274 239.59C230.33 239.727 230.408 239.842 230.507 239.935C230.606 240.028 230.74 240.075 230.908 240.075ZM235.622 239.59C235.92 239.59 236.168 239.649 236.367 239.767C236.572 239.885 236.734 240.04 236.852 240.233C236.976 240.425 237.063 240.646 237.113 240.894C237.162 241.143 237.187 241.394 237.187 241.649C237.187 241.91 237.162 242.165 237.113 242.413C237.063 242.661 236.976 242.885 236.852 243.084C236.734 243.276 236.575 243.432 236.377 243.55C236.178 243.668 235.926 243.727 235.622 243.727C235.324 243.727 235.072 243.668 234.867 243.55C234.668 243.432 234.507 243.276 234.383 243.084C234.265 242.885 234.178 242.661 234.122 242.413C234.072 242.165 234.047 241.91 234.047 241.649C234.047 241.394 234.072 241.143 234.122 240.894C234.178 240.646 234.268 240.425 234.392 240.233C234.516 240.04 234.678 239.885 234.877 239.767C235.075 239.649 235.324 239.59 235.622 239.59ZM235.622 243C235.79 243 235.923 242.953 236.023 242.86C236.122 242.767 236.196 242.652 236.246 242.516C236.296 242.379 236.327 242.233 236.339 242.078C236.358 241.922 236.367 241.783 236.367 241.658C236.367 241.534 236.358 241.394 236.339 241.239C236.327 241.084 236.296 240.938 236.246 240.801C236.196 240.665 236.122 240.55 236.023 240.457C235.923 240.363 235.79 240.317 235.622 240.317C235.454 240.317 235.318 240.363 235.212 240.457C235.113 240.55 235.038 240.665 234.988 240.801C234.939 240.938 234.905 241.084 234.886 241.239C234.873 241.394 234.867 241.534 234.867 241.658C234.867 241.783 234.873 241.922 234.886 242.078C234.905 242.233 234.939 242.379 234.988 242.516C235.044 242.652 235.122 242.767 235.221 242.86C235.321 242.953 235.454 243 235.622 243Z" fill="#222222"/>
<path d="M253.759 226.58C253.997 226.803 254.273 226.99 254.586 227.139C254.899 227.28 255.224 227.351 255.559 227.351C255.827 227.351 256.069 227.306 256.286 227.217C256.502 227.12 256.681 226.993 256.822 226.837C256.971 226.673 257.083 226.483 257.158 226.267C257.24 226.043 257.281 225.804 257.281 225.551C257.281 225.037 257.128 224.649 256.822 224.388C256.524 224.127 256.118 223.997 255.604 223.997C255.387 223.997 255.171 224.019 254.955 224.064C254.746 224.101 254.538 224.15 254.329 224.209L253.569 223.997L254.24 220.05H258.242V221.18H255.101L254.765 223.103C255.138 223.021 255.503 222.98 255.861 222.98C256.241 222.98 256.591 223.035 256.912 223.147C257.232 223.252 257.512 223.412 257.75 223.628C257.989 223.837 258.175 224.098 258.309 224.411C258.443 224.716 258.51 225.074 258.51 225.484C258.51 225.916 258.436 226.315 258.287 226.68C258.138 227.038 257.929 227.344 257.661 227.597C257.392 227.85 257.072 228.048 256.699 228.19C256.327 228.331 255.92 228.402 255.481 228.402C255.16 228.402 254.828 228.353 254.486 228.257C254.143 228.16 253.841 228.014 253.58 227.821C253.409 227.716 253.256 227.601 253.122 227.474L253.759 226.58ZM265.484 224.187C265.484 224.679 265.435 225.175 265.338 225.674C265.241 226.173 265.074 226.628 264.835 227.038C264.604 227.44 264.295 227.768 263.907 228.022C263.52 228.275 263.039 228.402 262.465 228.402C261.891 228.402 261.41 228.275 261.023 228.022C260.635 227.768 260.326 227.44 260.095 227.038C259.864 226.628 259.7 226.173 259.603 225.674C259.506 225.175 259.457 224.679 259.457 224.187C259.457 223.695 259.506 223.199 259.603 222.7C259.7 222.193 259.864 221.739 260.095 221.336C260.326 220.934 260.635 220.606 261.023 220.352C261.41 220.091 261.891 219.961 262.465 219.961C263.046 219.961 263.531 220.091 263.918 220.352C264.306 220.613 264.615 220.949 264.846 221.358C265.077 221.768 265.241 222.223 265.338 222.722C265.435 223.222 265.484 223.71 265.484 224.187ZM264.209 224.187C264.209 223.896 264.19 223.568 264.153 223.203C264.116 222.838 264.034 222.491 263.907 222.163C263.788 221.835 263.613 221.56 263.382 221.336C263.158 221.112 262.852 221.001 262.465 221.001C262.077 221.001 261.768 221.112 261.537 221.336C261.313 221.56 261.138 221.835 261.011 222.163C260.892 222.491 260.814 222.838 260.777 223.203C260.739 223.568 260.721 223.896 260.721 224.187C260.721 224.478 260.739 224.806 260.777 225.171C260.814 225.536 260.892 225.883 261.011 226.211C261.138 226.539 261.317 226.814 261.548 227.038C261.779 227.262 262.085 227.373 262.465 227.373C262.852 227.373 263.158 227.262 263.382 227.038C263.613 226.814 263.788 226.539 263.907 226.211C264.034 225.883 264.116 225.536 264.153 225.171C264.19 224.806 264.209 224.478 264.209 224.187ZM274.983 219.067V229.162H273.888V223.997H272.691V228.67H271.607V219.279H272.691V223.058H273.888V219.067H274.983ZM267.839 225.819C268.421 225.812 268.954 225.79 269.438 225.752C269.93 225.715 270.437 225.644 270.958 225.54L271.059 226.49C270.754 226.55 270.455 226.598 270.165 226.635C269.881 226.673 269.591 226.703 269.293 226.725C269.002 226.74 268.7 226.751 268.387 226.758C268.074 226.766 267.739 226.77 267.381 226.77H266.71V220.274H270.444V221.213H267.839V225.819ZM287.467 219.067V229.196H286.304V219.067H287.467ZM282.089 219.816C282.469 219.816 282.816 219.901 283.129 220.073C283.449 220.237 283.725 220.475 283.956 220.788C284.187 221.094 284.366 221.467 284.493 221.906C284.627 222.339 284.694 222.827 284.694 223.371C284.694 223.915 284.627 224.411 284.493 224.858C284.366 225.298 284.187 225.67 283.956 225.976C283.725 226.281 283.449 226.52 283.129 226.691C282.816 226.855 282.469 226.937 282.089 226.937C281.716 226.937 281.37 226.855 281.049 226.691C280.736 226.52 280.464 226.281 280.233 225.976C280.002 225.67 279.819 225.298 279.685 224.858C279.558 224.411 279.495 223.915 279.495 223.371C279.495 222.827 279.558 222.339 279.685 221.906C279.819 221.467 280.002 221.094 280.233 220.788C280.464 220.475 280.736 220.237 281.049 220.073C281.37 219.901 281.716 219.816 282.089 219.816ZM282.089 220.855C281.642 220.855 281.28 221.079 281.004 221.526C280.736 221.966 280.602 222.581 280.602 223.371C280.602 224.183 280.736 224.809 281.004 225.249C281.28 225.689 281.642 225.909 282.089 225.909C282.536 225.909 282.898 225.689 283.173 225.249C283.449 224.809 283.587 224.183 283.587 223.371C283.587 222.581 283.449 221.966 283.173 221.526C282.898 221.079 282.536 220.855 282.089 220.855ZM298.758 221.571V222.521H297.327V225.137H296.175V219.067H297.327V221.571H298.758ZM294.71 224.601C294.166 224.407 293.697 224.127 293.302 223.762C292.914 223.39 292.612 222.965 292.396 222.488C292.173 223.047 291.856 223.531 291.446 223.941C291.036 224.351 290.54 224.664 289.959 224.88L289.344 223.963C289.739 223.829 290.089 223.647 290.395 223.416C290.7 223.185 290.958 222.92 291.166 222.622C291.375 222.324 291.532 222.003 291.636 221.66C291.74 221.31 291.792 220.952 291.792 220.587V219.592H292.955V220.676C292.955 221.004 293.007 221.321 293.112 221.627C293.216 221.932 293.369 222.219 293.57 222.488C293.771 222.749 294.017 222.983 294.308 223.192C294.606 223.401 294.941 223.568 295.314 223.695L294.71 224.601ZM294.073 225.383C295.124 225.383 295.948 225.551 296.544 225.886C297.14 226.214 297.438 226.676 297.438 227.273C297.438 227.571 297.36 227.839 297.204 228.078C297.054 228.309 296.835 228.506 296.544 228.67C296.253 228.834 295.899 228.957 295.482 229.039C295.072 229.129 294.602 229.173 294.073 229.173C293.551 229.173 293.082 229.129 292.664 229.039C292.254 228.957 291.904 228.834 291.614 228.67C291.323 228.506 291.099 228.309 290.943 228.078C290.786 227.839 290.708 227.571 290.708 227.273C290.708 226.975 290.786 226.71 290.943 226.479C291.099 226.24 291.323 226.043 291.614 225.886C291.904 225.722 292.254 225.599 292.664 225.517C293.082 225.428 293.551 225.383 294.073 225.383ZM294.073 228.268C294.796 228.268 295.348 228.186 295.728 228.022C296.108 227.858 296.298 227.608 296.298 227.273C296.298 226.96 296.108 226.717 295.728 226.546C295.348 226.375 294.796 226.289 294.073 226.289C293.35 226.289 292.799 226.375 292.418 226.546C292.038 226.717 291.848 226.96 291.848 227.273C291.848 227.608 292.038 227.858 292.418 228.022C292.799 228.186 293.35 228.268 294.073 228.268Z" fill="#222222"/>
<path d="M269.982 241.891H269.031V243.634H268.137V241.891H264.764V241.146L268.072 236.739H269.031V241.09H269.982V241.891ZM268.137 241.09V238.575C268.137 238.469 268.14 238.363 268.146 238.258C268.159 238.152 268.171 238.037 268.184 237.913L265.873 241.09H268.137ZM271.656 243.755H270.557V242.599H271.656V243.755ZM273.674 242.189C273.873 242.376 274.103 242.531 274.364 242.655C274.625 242.773 274.895 242.832 275.174 242.832C275.398 242.832 275.6 242.795 275.78 242.721C275.96 242.64 276.109 242.534 276.227 242.404C276.352 242.267 276.445 242.109 276.507 241.929C276.575 241.742 276.609 241.543 276.609 241.332C276.609 240.904 276.482 240.581 276.227 240.363C275.979 240.146 275.64 240.037 275.212 240.037C275.032 240.037 274.852 240.056 274.671 240.093C274.497 240.124 274.324 240.165 274.15 240.214L273.516 240.037L274.075 236.748H277.411V237.689H274.793L274.513 239.292C274.824 239.224 275.128 239.189 275.426 239.189C275.743 239.189 276.035 239.236 276.302 239.329C276.569 239.416 276.802 239.55 277.001 239.73C277.199 239.904 277.355 240.121 277.466 240.382C277.578 240.637 277.634 240.935 277.634 241.276C277.634 241.637 277.572 241.969 277.448 242.273C277.324 242.571 277.15 242.826 276.926 243.037C276.702 243.248 276.435 243.413 276.125 243.531C275.814 243.649 275.476 243.708 275.109 243.708C274.842 243.708 274.566 243.668 274.28 243.587C273.994 243.506 273.743 243.385 273.525 243.224C273.383 243.137 273.255 243.04 273.143 242.935L273.674 242.189ZM284.06 236.665H284.982L280.846 243.745H279.914L284.06 236.665ZM280.091 236.665C280.389 236.665 280.638 236.724 280.836 236.842C281.041 236.96 281.203 237.115 281.321 237.307C281.445 237.5 281.532 237.721 281.582 237.969C281.631 238.211 281.656 238.463 281.656 238.724C281.656 238.978 281.631 239.23 281.582 239.478C281.532 239.727 281.445 239.95 281.321 240.149C281.203 240.342 281.041 240.5 280.836 240.624C280.638 240.742 280.389 240.801 280.091 240.801C279.793 240.801 279.541 240.742 279.336 240.624C279.138 240.5 278.976 240.342 278.852 240.149C278.734 239.95 278.647 239.727 278.591 239.478C278.541 239.23 278.516 238.978 278.516 238.724C278.516 238.463 278.541 238.211 278.591 237.969C278.647 237.721 278.734 237.5 278.852 237.307C278.976 237.115 279.138 236.96 279.336 236.842C279.541 236.724 279.793 236.665 280.091 236.665ZM280.091 240.075C280.259 240.075 280.392 240.028 280.492 239.935C280.591 239.842 280.666 239.727 280.715 239.59C280.765 239.453 280.796 239.307 280.808 239.152C280.827 238.997 280.836 238.857 280.836 238.733C280.836 238.609 280.827 238.469 280.808 238.314C280.796 238.158 280.765 238.012 280.715 237.876C280.666 237.739 280.591 237.624 280.492 237.531C280.392 237.438 280.259 237.391 280.091 237.391C279.923 237.391 279.787 237.438 279.681 237.531C279.582 237.624 279.507 237.739 279.457 237.876C279.408 238.012 279.374 238.158 279.355 238.314C279.343 238.469 279.336 238.609 279.336 238.733C279.336 238.857 279.343 238.997 279.355 239.152C279.374 239.307 279.408 239.453 279.457 239.59C279.513 239.727 279.591 239.842 279.69 239.935C279.79 240.028 279.923 240.075 280.091 240.075ZM284.805 239.59C285.103 239.59 285.352 239.649 285.551 239.767C285.756 239.885 285.917 240.04 286.035 240.233C286.159 240.425 286.246 240.646 286.296 240.894C286.346 241.143 286.37 241.394 286.37 241.649C286.37 241.91 286.346 242.165 286.296 242.413C286.246 242.661 286.159 242.885 286.035 243.084C285.917 243.276 285.759 243.432 285.56 243.55C285.361 243.668 285.11 243.727 284.805 243.727C284.507 243.727 284.256 243.668 284.051 243.55C283.852 243.432 283.69 243.276 283.566 243.084C283.448 242.885 283.361 242.661 283.305 242.413C283.256 242.165 283.231 241.91 283.231 241.649C283.231 241.394 283.256 241.143 283.305 240.894C283.361 240.646 283.451 240.425 283.575 240.233C283.7 240.04 283.861 239.885 284.06 239.767C284.259 239.649 284.507 239.59 284.805 239.59ZM284.805 243C284.973 243 285.107 242.953 285.206 242.86C285.305 242.767 285.38 242.652 285.429 242.516C285.479 242.379 285.51 242.233 285.523 242.078C285.541 241.922 285.551 241.783 285.551 241.658C285.551 241.534 285.541 241.394 285.523 241.239C285.51 241.084 285.479 240.938 285.429 240.801C285.38 240.665 285.305 240.55 285.206 240.457C285.107 240.363 284.973 240.317 284.805 240.317C284.638 240.317 284.501 240.363 284.395 240.457C284.296 240.55 284.221 240.665 284.172 240.801C284.122 240.938 284.088 241.084 284.069 241.239C284.057 241.394 284.051 241.534 284.051 241.658C284.051 241.783 284.057 241.922 284.069 242.078C284.088 242.233 284.122 242.379 284.172 242.516C284.228 242.652 284.305 242.767 284.405 242.86C284.504 242.953 284.638 243 284.805 243Z" fill="#222222"/>
<path d="M155.456 137.578C155.456 130.631 161.087 125 168.034 125V125C174.98 125 180.611 130.631 180.611 137.578V206.056H155.456V137.578Z" fill="#F67499"/>
<path d="M103.282 102.127C103.282 95.181 108.913 89.5498 115.86 89.5498V89.5498C122.806 89.5498 128.438 95.181 128.438 102.127V206.009H103.282V102.127Z" fill="#F67499"/>
<path d="M50.1768 182.252C50.1768 175.305 55.808 169.674 62.7544 169.674V169.674C69.7008 169.674 75.332 175.305 75.332 182.252V206.009H50.1768V182.252Z" fill="#D2D2D2"/>
<path d="M207.63 150.575C207.63 143.628 213.261 137.997 220.208 137.997V137.997C227.154 137.997 232.785 143.628 232.785 150.575V206.009H207.63V150.575Z" fill="#D2D2D2"/>
<path d="M259.804 204.612C259.804 197.666 265.435 192.034 272.381 192.034V192.034C279.328 192.034 284.959 197.666 284.959 204.612V206.01H259.804V204.612Z" fill="#D2D2D2"/>
<path d="M32.2812 206.01H297.922" stroke="#CACACA" stroke-width="0.931677"/>
</svg>
