<svg width="410" height="110" viewBox="0 0 410 110" fill="none" xmlns="http://www.w3.org/2000/svg">
<path d="M5.344 4.16C5.99467 4.16 6.60267 4.224 7.168 4.352C7.73333 4.46933 8.224 4.672 8.64 4.96C9.056 5.248 9.38133 5.632 9.616 6.112C9.86133 6.58133 9.984 7.168 9.984 7.872C9.984 8.544 9.86133 9.13067 9.616 9.632C9.38133 10.1227 9.056 10.528 8.64 10.848C8.23467 11.168 7.75467 11.408 7.2 11.568C6.64533 11.7173 6.048 11.792 5.408 11.792H3.824V16H1.456V4.16H5.344ZM5.248 9.92C6.85867 9.92 7.664 9.23733 7.664 7.872C7.664 7.17867 7.45067 6.69867 7.024 6.432C6.608 6.16533 5.98933 6.032 5.168 6.032H3.824V9.92H5.248ZM13.8559 7.04L14.0159 8.624H14.0799C14.4105 8.03733 14.7945 7.58933 15.2319 7.28C15.6799 6.97067 16.1439 6.816 16.6239 6.816C16.8692 6.816 17.0719 6.83733 17.2319 6.88C17.3919 6.912 17.5412 6.95467 17.6799 7.008L17.2639 9.04C17.1145 8.98667 16.9652 8.94933 16.8159 8.928C16.6772 8.90667 16.5172 8.896 16.3359 8.896C15.9839 8.896 15.6159 9.02933 15.2319 9.296C14.8479 9.552 14.5279 10.0053 14.2719 10.656V16H11.9359V7.04H13.8559ZM18.6966 5.6V3.328H21.0326V5.6H18.6966ZM18.6806 7.04H21.0166V16H18.6806V7.04ZM25.2465 7.04L25.4065 8.24H25.4705C25.8438 7.84533 26.2492 7.50933 26.6865 7.232C27.1238 6.95467 27.6358 6.816 28.2225 6.816C28.8625 6.816 29.3798 6.94933 29.7745 7.216C30.1692 7.48267 30.4732 7.872 30.6865 8.384C31.0918 7.936 31.5185 7.56267 31.9665 7.264C32.4252 6.96533 32.9478 6.816 33.5345 6.816C34.4945 6.816 35.1985 7.136 35.6465 7.776C36.0945 8.40533 36.3185 9.28533 36.3185 10.416V16H33.9665V10.704C33.9665 10 33.8652 9.51467 33.6625 9.248C33.4598 8.97067 33.1452 8.832 32.7185 8.832C32.2065 8.832 31.6305 9.168 30.9905 9.84V16H28.6385V10.704C28.6385 10 28.5372 9.51467 28.3345 9.248C28.1318 8.97067 27.8172 8.832 27.3905 8.832C26.8785 8.832 26.3025 9.168 25.6625 9.84V16H23.3265V7.04H25.2465ZM40.9564 16.16C40.5617 16.16 40.199 16.1013 39.8684 15.984C39.5377 15.856 39.255 15.68 39.0204 15.456C38.7964 15.2213 38.6204 14.944 38.4924 14.624C38.3644 14.304 38.3004 13.952 38.3004 13.568C38.247 12.4693 38.6257 11.6587 39.4364 11.136C40.2577 10.6027 41.5964 10.3093 43.4524 10.256C43.495 9.88267 43.4257 9.504 43.2444 9.12C43.0524 8.84267 42.615 8.704 41.9324 8.704C41.5164 8.704 41.079 8.77867 40.6204 8.928C40.1724 9.07733 39.7457 9.28533 39.3404 9.552L38.6364 7.872C39.127 7.57333 39.6924 7.32267 40.3324 7.12C40.983 6.91733 41.6604 6.816 42.3644 6.816C44.6577 6.816 45.8044 8.13333 45.8044 10.768V16H43.8844L43.7084 15.088H43.6604C43.2764 15.4187 42.855 15.68 42.3964 15.872C41.9484 16.064 41.4684 16.16 40.9564 16.16ZM41.6764 14.368C42.0177 14.3573 42.327 14.2827 42.6044 14.144C42.8924 13.9947 43.175 13.7813 43.4524 13.504V11.696C43.175 11.7173 42.8977 11.744 42.6204 11.776C42.3537 11.7973 42.0924 11.8293 41.8364 11.872C41.3244 11.9467 40.9617 12.1013 40.7484 12.336C40.5457 12.5707 40.4497 12.848 40.4604 13.168C40.471 13.5413 40.5884 13.8347 40.8124 14.048C41.047 14.2613 41.335 14.368 41.6764 14.368ZM50.1215 7.04L50.2815 8.624H50.3455C50.6762 8.03733 51.0602 7.58933 51.4975 7.28C51.9455 6.97067 52.4095 6.816 52.8895 6.816C53.1348 6.816 53.3375 6.83733 53.4975 6.88C53.6575 6.912 53.8068 6.95467 53.9455 7.008L53.5295 9.04C53.3802 8.98667 53.2308 8.94933 53.0815 8.928C52.9428 8.90667 52.7828 8.896 52.6015 8.896C52.2495 8.896 51.8815 9.02933 51.4975 9.296C51.1135 9.552 50.7935 10.0053 50.5375 10.656V16H48.2015V7.04H50.1215ZM56.3383 19.6L57.5863 16.048L54.1143 7.04H56.4823L57.9062 11.2C58.0449 11.6053 58.1729 12.016 58.2903 12.432C58.4076 12.848 58.5303 13.28 58.6583 13.728H58.7383C58.8449 13.312 58.9516 12.8907 59.0583 12.464C59.1649 12.0373 59.2716 11.616 59.3783 11.2L60.6103 7.04H62.8663L59.7623 16.256L58.6583 19.6H56.3383ZM71.7908 16.224C71.1721 16.224 70.5961 16.1173 70.0628 15.904C69.5294 15.6907 69.0654 15.3867 68.6708 14.992C68.2868 14.5867 67.9828 14.096 67.7588 13.52C67.5348 12.9333 67.4228 12.272 67.4228 11.536C67.4228 10.7893 67.5454 10.1227 67.7908 9.536C68.0468 8.94933 68.3828 8.45867 68.7988 8.064C69.2148 7.65867 69.7001 7.34933 70.2548 7.136C70.8094 6.92267 71.3908 6.816 71.9988 6.816C72.5534 6.816 73.0441 6.912 73.4708 7.104C73.8974 7.296 74.2761 7.53067 74.6068 7.808L73.4868 9.328C73.2628 9.136 73.0388 8.992 72.8148 8.896C72.6014 8.78933 72.3668 8.736 72.1108 8.736C71.4281 8.736 70.8734 8.98667 70.4468 9.488C70.0308 9.98933 69.8228 10.672 69.8228 11.536C69.8228 11.8773 69.8654 12.2133 69.9508 12.544C70.0361 12.8747 70.1694 13.1733 70.3508 13.44C70.5321 13.696 70.7614 13.904 71.0388 14.064C71.3268 14.224 71.6628 14.304 72.0468 14.304C72.3668 14.304 72.6761 14.24 72.9748 14.112C73.2734 13.9733 73.5454 13.7973 73.7908 13.584L74.7188 15.136C74.2921 15.5093 73.8228 15.7867 73.3108 15.968C72.8094 16.1387 72.3028 16.224 71.7908 16.224ZM79.6799 16.224C79.1252 16.224 78.5865 16.1173 78.0639 15.904C77.5412 15.6907 77.0825 15.3867 76.6879 14.992C76.2932 14.5867 75.9732 14.096 75.7279 13.52C75.4932 12.9333 75.3759 12.272 75.3759 11.536C75.3759 10.7893 75.4932 10.1227 75.7279 9.536C75.9732 8.94933 76.2932 8.45867 76.6879 8.064C77.0825 7.65867 77.5412 7.34933 78.0639 7.136C78.5865 6.92267 79.1252 6.816 79.6799 6.816C80.2452 6.816 80.7839 6.92267 81.2959 7.136C81.8185 7.34933 82.2772 7.65867 82.6719 8.064C83.0665 8.45867 83.3812 8.94933 83.6159 9.536C83.8612 10.1227 83.9839 10.7893 83.9839 11.536C83.9839 12.272 83.8612 12.9333 83.6159 13.52C83.3812 14.096 83.0665 14.5867 82.6719 14.992C82.2772 15.3867 81.8185 15.6907 81.2959 15.904C80.7839 16.1173 80.2452 16.224 79.6799 16.224ZM79.6799 14.304C80.2879 14.304 80.7572 14.0533 81.0879 13.552C81.4185 13.0507 81.5839 12.3787 81.5839 11.536C81.5839 10.672 81.4185 9.98933 81.0879 9.488C80.7572 8.98667 80.2879 8.736 79.6799 8.736C79.0719 8.736 78.6025 8.98667 78.2719 9.488C77.9412 9.98933 77.7759 10.672 77.7759 11.536C77.7759 12.3787 77.9412 13.0507 78.2719 13.552C78.6025 14.0533 79.0719 14.304 79.6799 14.304ZM85.9515 3.232H88.2875V16H85.9515V3.232ZM94.7424 16.224C94.1877 16.224 93.649 16.1173 93.1264 15.904C92.6037 15.6907 92.145 15.3867 91.7504 14.992C91.3557 14.5867 91.0357 14.096 90.7904 13.52C90.5557 12.9333 90.4384 12.272 90.4384 11.536C90.4384 10.7893 90.5557 10.1227 90.7904 9.536C91.0357 8.94933 91.3557 8.45867 91.7504 8.064C92.145 7.65867 92.6037 7.34933 93.1264 7.136C93.649 6.92267 94.1877 6.816 94.7424 6.816C95.3077 6.816 95.8464 6.92267 96.3584 7.136C96.881 7.34933 97.3397 7.65867 97.7344 8.064C98.129 8.45867 98.4437 8.94933 98.6784 9.536C98.9237 10.1227 99.0464 10.7893 99.0464 11.536C99.0464 12.272 98.9237 12.9333 98.6784 13.52C98.4437 14.096 98.129 14.5867 97.7344 14.992C97.3397 15.3867 96.881 15.6907 96.3584 15.904C95.8464 16.1173 95.3077 16.224 94.7424 16.224ZM94.7424 14.304C95.3504 14.304 95.8197 14.0533 96.1504 13.552C96.481 13.0507 96.6464 12.3787 96.6464 11.536C96.6464 10.672 96.481 9.98933 96.1504 9.488C95.8197 8.98667 95.3504 8.736 94.7424 8.736C94.1344 8.736 93.665 8.98667 93.3344 9.488C93.0037 9.98933 92.8384 10.672 92.8384 11.536C92.8384 12.3787 93.0037 13.0507 93.3344 13.552C93.665 14.0533 94.1344 14.304 94.7424 14.304ZM102.934 7.04L103.094 8.624H103.158C103.489 8.03733 103.873 7.58933 104.31 7.28C104.758 6.97067 105.222 6.816 105.702 6.816C105.947 6.816 106.15 6.83733 106.31 6.88C106.47 6.912 106.619 6.95467 106.758 7.008L106.342 9.04C106.193 8.98667 106.043 8.94933 105.894 8.928C105.755 8.90667 105.595 8.896 105.414 8.896C105.062 8.896 104.694 9.02933 104.31 9.296C103.926 9.552 103.606 10.0053 103.35 10.656V16H101.014V7.04H102.934Z" fill="#222222"/>
<rect x="6" y="35" width="50" height="50" rx="25" fill="#FF9900"/>
<path d="M7.48 104.312V103.496H8.632L8.884 101.504H7.744V100.688H8.98L9.28 98.288H10.048L9.76 100.688H11.416L11.728 98.288H12.484L12.196 100.688H13.252V101.504H12.1L11.848 103.496H12.988V104.312H11.752L11.428 107H10.648L10.972 104.312H9.316L8.98 107H8.212L8.536 104.312H7.48ZM11.32 101.504H9.652L9.412 103.496H11.068L11.32 101.504ZM19.9323 98.204V99.14H15.9723V102.116H19.3323V103.052H15.9723V107H14.8563V98.204H19.9323ZM26.5533 98.204V99.14H22.5933V102.116H25.9533V103.052H22.5933V107H21.4773V98.204H26.5533ZM31.2784 103.508C31.4064 103.34 31.5064 103.2 31.5784 103.088C31.6584 102.976 31.7184 102.892 31.7584 102.836C31.2864 103.212 30.7224 103.4 30.0664 103.4C29.7224 103.4 29.3944 103.344 29.0824 103.232C28.7784 103.12 28.5104 102.956 28.2784 102.74C28.0544 102.516 27.8744 102.244 27.7384 101.924C27.6024 101.604 27.5344 101.236 27.5344 100.82C27.5344 100.428 27.6064 100.06 27.7504 99.716C27.9024 99.372 28.1104 99.072 28.3744 98.816C28.6384 98.56 28.9504 98.36 29.3104 98.216C29.6784 98.064 30.0824 97.988 30.5224 97.988C30.9544 97.988 31.3464 98.06 31.6984 98.204C32.0504 98.348 32.3504 98.548 32.5984 98.804C32.8544 99.06 33.0504 99.368 33.1864 99.728C33.3224 100.08 33.3904 100.472 33.3904 100.904C33.3904 101.424 33.2984 101.9 33.1144 102.332C32.9304 102.764 32.6704 103.212 32.3344 103.676L29.9224 107H28.5424L31.2784 103.508ZM28.6504 100.736C28.6504 101.32 28.8064 101.768 29.1184 102.08C29.4384 102.384 29.8744 102.536 30.4264 102.536C30.7304 102.536 30.9984 102.488 31.2304 102.392C31.4624 102.296 31.6584 102.168 31.8184 102.008C31.9864 101.84 32.1104 101.652 32.1904 101.444C32.2784 101.228 32.3224 101.004 32.3224 100.772C32.3224 100.484 32.2744 100.228 32.1784 100.004C32.0904 99.772 31.9664 99.58 31.8064 99.428C31.6464 99.268 31.4544 99.148 31.2304 99.068C31.0064 98.98 30.7664 98.936 30.5104 98.936C29.9504 98.936 29.4984 99.104 29.1544 99.44C28.8184 99.768 28.6504 100.2 28.6504 100.736ZM38.4269 103.508C38.5549 103.34 38.6549 103.2 38.7269 103.088C38.8069 102.976 38.8669 102.892 38.9069 102.836C38.4349 103.212 37.8709 103.4 37.2149 103.4C36.8709 103.4 36.5429 103.344 36.2309 103.232C35.9269 103.12 35.6589 102.956 35.4269 102.74C35.2029 102.516 35.0229 102.244 34.8869 101.924C34.7509 101.604 34.6829 101.236 34.6829 100.82C34.6829 100.428 34.7549 100.06 34.8989 99.716C35.0509 99.372 35.2589 99.072 35.5229 98.816C35.7869 98.56 36.0989 98.36 36.4589 98.216C36.8269 98.064 37.2309 97.988 37.6709 97.988C38.1029 97.988 38.4949 98.06 38.8469 98.204C39.1989 98.348 39.4989 98.548 39.7469 98.804C40.0029 99.06 40.1989 99.368 40.3349 99.728C40.4709 100.08 40.5389 100.472 40.5389 100.904C40.5389 101.424 40.4469 101.9 40.2629 102.332C40.0789 102.764 39.8189 103.212 39.4829 103.676L37.0709 107H35.6909L38.4269 103.508ZM35.7989 100.736C35.7989 101.32 35.9549 101.768 36.2669 102.08C36.5869 102.384 37.0229 102.536 37.5749 102.536C37.8789 102.536 38.1469 102.488 38.3789 102.392C38.6109 102.296 38.8069 102.168 38.9669 102.008C39.1349 101.84 39.2589 101.652 39.3389 101.444C39.4269 101.228 39.4709 101.004 39.4709 100.772C39.4709 100.484 39.4229 100.228 39.3269 100.004C39.2389 99.772 39.1149 99.58 38.9549 99.428C38.7949 99.268 38.6029 99.148 38.3789 99.068C38.1549 98.98 37.9149 98.936 37.6589 98.936C37.0989 98.936 36.6469 99.104 36.3029 99.44C35.9669 99.768 35.7989 100.2 35.7989 100.736ZM48.0233 102.62C48.0233 103.396 47.9393 104.072 47.7713 104.648C47.6033 105.216 47.3753 105.688 47.0873 106.064C46.7993 106.44 46.4593 106.72 46.0673 106.904C45.6753 107.08 45.2513 107.168 44.7953 107.168C44.3393 107.168 43.9153 107.08 43.5233 106.904C43.1313 106.72 42.7873 106.44 42.4913 106.064C42.2033 105.688 41.9753 105.216 41.8073 104.648C41.6473 104.072 41.5673 103.396 41.5673 102.62C41.5673 101.836 41.6473 101.16 41.8073 100.592C41.9753 100.016 42.2033 99.54 42.4913 99.164C42.7873 98.788 43.1313 98.512 43.5233 98.336C43.9153 98.152 44.3393 98.06 44.7953 98.06C45.2513 98.06 45.6753 98.152 46.0673 98.336C46.4593 98.512 46.7993 98.788 47.0873 99.164C47.3753 99.54 47.6033 100.016 47.7713 100.592C47.9393 101.16 48.0233 101.836 48.0233 102.62ZM46.9193 102.62C46.9193 101.932 46.8593 101.356 46.7393 100.892C46.6273 100.42 46.4713 100.044 46.2713 99.764C46.0793 99.476 45.8553 99.272 45.5993 99.152C45.3433 99.024 45.0753 98.96 44.7953 98.96C44.5153 98.96 44.2473 99.024 43.9913 99.152C43.7353 99.272 43.5113 99.476 43.3193 99.764C43.1273 100.044 42.9713 100.42 42.8513 100.892C42.7393 101.356 42.6833 101.932 42.6833 102.62C42.6833 103.3 42.7393 103.876 42.8513 104.348C42.9713 104.812 43.1273 105.188 43.3193 105.476C43.5113 105.764 43.7353 105.972 43.9913 106.1C44.2473 106.22 44.5153 106.28 44.7953 106.28C45.0753 106.28 45.3433 106.22 45.5993 106.1C45.8553 105.972 46.0793 105.764 46.2713 105.476C46.4713 105.188 46.6273 104.812 46.7393 104.348C46.8593 103.876 46.9193 103.3 46.9193 102.62ZM55.1718 102.62C55.1718 103.396 55.0878 104.072 54.9198 104.648C54.7518 105.216 54.5238 105.688 54.2358 106.064C53.9478 106.44 53.6078 106.72 53.2158 106.904C52.8238 107.08 52.3998 107.168 51.9438 107.168C51.4878 107.168 51.0638 107.08 50.6718 106.904C50.2798 106.72 49.9358 106.44 49.6398 106.064C49.3518 105.688 49.1238 105.216 48.9558 104.648C48.7958 104.072 48.7158 103.396 48.7158 102.62C48.7158 101.836 48.7958 101.16 48.9558 100.592C49.1238 100.016 49.3518 99.54 49.6398 99.164C49.9358 98.788 50.2798 98.512 50.6718 98.336C51.0638 98.152 51.4878 98.06 51.9438 98.06C52.3998 98.06 52.8238 98.152 53.2158 98.336C53.6078 98.512 53.9478 98.788 54.2358 99.164C54.5238 99.54 54.7518 100.016 54.9198 100.592C55.0878 101.16 55.1718 101.836 55.1718 102.62ZM54.0678 102.62C54.0678 101.932 54.0078 101.356 53.8878 100.892C53.7758 100.42 53.6198 100.044 53.4198 99.764C53.2278 99.476 53.0038 99.272 52.7478 99.152C52.4918 99.024 52.2238 98.96 51.9438 98.96C51.6638 98.96 51.3958 99.024 51.1398 99.152C50.8838 99.272 50.6598 99.476 50.4678 99.764C50.2758 100.044 50.1198 100.42 49.9998 100.892C49.8878 101.356 49.8318 101.932 49.8318 102.62C49.8318 103.3 49.8878 103.876 49.9998 104.348C50.1198 104.812 50.2758 105.188 50.4678 105.476C50.6598 105.764 50.8838 105.972 51.1398 106.1C51.3958 106.22 51.6638 106.28 51.9438 106.28C52.2238 106.28 52.4918 106.22 52.7478 106.1C53.0038 105.972 53.2278 105.764 53.4198 105.476C53.6198 105.188 53.7758 104.812 53.8878 104.348C54.0078 103.876 54.0678 103.3 54.0678 102.62Z" fill="#222222"/>
<path d="M211.992 16.224C211.192 16.224 210.413 16.0747 209.656 15.776C208.909 15.4773 208.248 15.0507 207.672 14.496L209.032 12.864C209.459 13.2587 209.933 13.5787 210.456 13.824C210.989 14.0587 211.517 14.176 212.04 14.176C212.659 14.176 213.128 14.0533 213.448 13.808C213.768 13.5627 213.928 13.232 213.928 12.816C213.928 12.592 213.885 12.4053 213.8 12.256C213.715 12.1067 213.592 11.9733 213.432 11.856C213.283 11.7387 213.096 11.632 212.872 11.536C212.659 11.44 212.419 11.3333 212.152 11.216L210.568 10.544C210.152 10.3733 209.763 10.1493 209.4 9.872C209.048 9.59467 208.755 9.25333 208.52 8.848C208.285 8.432 208.168 7.936 208.168 7.36C208.168 6.88 208.269 6.432 208.472 6.016C208.675 5.58933 208.957 5.22667 209.32 4.928C209.683 4.61867 210.115 4.37867 210.616 4.208C211.117 4.02667 211.667 3.936 212.264 3.936C212.968 3.936 213.64 4.06933 214.28 4.336C214.931 4.592 215.496 4.96533 215.976 5.456L214.776 6.944C214.403 6.63467 214.013 6.39467 213.608 6.224C213.203 6.05333 212.755 5.968 212.264 5.968C211.741 5.968 211.325 6.08 211.016 6.304C210.707 6.51733 210.552 6.82133 210.552 7.216C210.552 7.41867 210.6 7.59467 210.696 7.744C210.803 7.89333 210.936 8.02667 211.096 8.144C211.267 8.26133 211.464 8.37333 211.688 8.48C211.912 8.576 212.152 8.672 212.408 8.768L213.96 9.424C214.696 9.72267 215.277 10.1173 215.704 10.608C216.131 11.0987 216.344 11.776 216.344 12.64C216.344 13.12 216.243 13.5787 216.04 14.016C215.848 14.4533 215.565 14.8373 215.192 15.168C214.819 15.488 214.36 15.744 213.816 15.936C213.283 16.128 212.675 16.224 211.992 16.224ZM222.136 16.224C221.518 16.224 220.936 16.1173 220.392 15.904C219.848 15.6907 219.374 15.3867 218.968 14.992C218.574 14.5867 218.259 14.096 218.024 13.52C217.8 12.9333 217.688 12.272 217.688 11.536C217.688 10.8107 217.806 10.16 218.04 9.584C218.275 8.99733 218.584 8.50133 218.968 8.096C219.363 7.68 219.811 7.36533 220.312 7.152C220.814 6.928 221.331 6.816 221.864 6.816C222.483 6.816 223.022 6.92267 223.48 7.136C223.95 7.34933 224.339 7.648 224.648 8.032C224.968 8.416 225.208 8.86933 225.368 9.392C225.528 9.91467 225.608 10.4853 225.608 11.104C225.608 11.3173 225.598 11.5253 225.576 11.728C225.555 11.92 225.528 12.0693 225.496 12.176H219.976C220.072 12.912 220.339 13.472 220.776 13.856C221.224 14.2293 221.784 14.416 222.456 14.416C222.83 14.416 223.176 14.3627 223.496 14.256C223.827 14.1493 224.152 13.9947 224.472 13.792L225.272 15.232C224.824 15.5413 224.334 15.7867 223.8 15.968C223.267 16.1387 222.712 16.224 222.136 16.224ZM223.592 10.624C223.592 10.016 223.454 9.536 223.176 9.184C222.899 8.82133 222.472 8.64 221.896 8.64C221.427 8.64 221.006 8.81067 220.632 9.152C220.259 9.48267 220.03 9.97333 219.944 10.624H223.592ZM231.353 16.224C230.735 16.224 230.159 16.1173 229.625 15.904C229.092 15.6907 228.628 15.3867 228.233 14.992C227.849 14.5867 227.545 14.096 227.321 13.52C227.097 12.9333 226.985 12.272 226.985 11.536C226.985 10.7893 227.108 10.1227 227.353 9.536C227.609 8.94933 227.945 8.45867 228.361 8.064C228.777 7.65867 229.263 7.34933 229.817 7.136C230.372 6.92267 230.953 6.816 231.561 6.816C232.116 6.816 232.607 6.912 233.033 7.104C233.46 7.296 233.839 7.53067 234.169 7.808L233.049 9.328C232.825 9.136 232.601 8.992 232.377 8.896C232.164 8.78933 231.929 8.736 231.673 8.736C230.991 8.736 230.436 8.98667 230.009 9.488C229.593 9.98933 229.385 10.672 229.385 11.536C229.385 11.8773 229.428 12.2133 229.513 12.544C229.599 12.8747 229.732 13.1733 229.913 13.44C230.095 13.696 230.324 13.904 230.601 14.064C230.889 14.224 231.225 14.304 231.609 14.304C231.929 14.304 232.239 14.24 232.537 14.112C232.836 13.9733 233.108 13.7973 233.353 13.584L234.281 15.136C233.855 15.5093 233.385 15.7867 232.873 15.968C232.372 16.1387 231.865 16.224 231.353 16.224ZM239.242 16.224C238.688 16.224 238.149 16.1173 237.626 15.904C237.104 15.6907 236.645 15.3867 236.25 14.992C235.856 14.5867 235.536 14.096 235.29 13.52C235.056 12.9333 234.938 12.272 234.938 11.536C234.938 10.7893 235.056 10.1227 235.29 9.536C235.536 8.94933 235.856 8.45867 236.25 8.064C236.645 7.65867 237.104 7.34933 237.626 7.136C238.149 6.92267 238.688 6.816 239.242 6.816C239.808 6.816 240.346 6.92267 240.858 7.136C241.381 7.34933 241.84 7.65867 242.234 8.064C242.629 8.45867 242.944 8.94933 243.178 9.536C243.424 10.1227 243.546 10.7893 243.546 11.536C243.546 12.272 243.424 12.9333 243.178 13.52C242.944 14.096 242.629 14.5867 242.234 14.992C241.84 15.3867 241.381 15.6907 240.858 15.904C240.346 16.1173 239.808 16.224 239.242 16.224ZM239.242 14.304C239.85 14.304 240.32 14.0533 240.65 13.552C240.981 13.0507 241.146 12.3787 241.146 11.536C241.146 10.672 240.981 9.98933 240.65 9.488C240.32 8.98667 239.85 8.736 239.242 8.736C238.634 8.736 238.165 8.98667 237.834 9.488C237.504 9.98933 237.338 10.672 237.338 11.536C237.338 12.3787 237.504 13.0507 237.834 13.552C238.165 14.0533 238.634 14.304 239.242 14.304ZM247.434 7.04L247.594 8.224H247.658C248.053 7.84 248.485 7.50933 248.954 7.232C249.423 6.95467 249.962 6.816 250.57 6.816C251.541 6.816 252.245 7.136 252.682 7.776C253.119 8.40533 253.338 9.28533 253.338 10.416V16H250.986V10.704C250.986 10.0107 250.885 9.52533 250.682 9.248C250.49 8.97067 250.17 8.832 249.722 8.832C249.349 8.832 249.029 8.91733 248.762 9.088C248.495 9.25867 248.191 9.50933 247.85 9.84V16H245.514V7.04H247.434ZM258.916 16.224C258.361 16.224 257.855 16.1173 257.396 15.904C256.948 15.6907 256.564 15.3813 256.244 14.976C255.924 14.5707 255.679 14.08 255.508 13.504C255.337 12.928 255.252 12.272 255.252 11.536C255.252 10.8 255.353 10.144 255.556 9.568C255.769 8.98133 256.052 8.48533 256.404 8.08C256.756 7.67467 257.156 7.36533 257.604 7.152C258.063 6.928 258.532 6.816 259.012 6.816C259.524 6.816 259.951 6.90667 260.292 7.088C260.633 7.25867 260.964 7.49333 261.284 7.792L261.188 6.384V3.232H263.54V16H261.636L261.444 15.072H261.396C261.065 15.392 260.687 15.664 260.26 15.888C259.844 16.112 259.396 16.224 258.916 16.224ZM259.524 14.288C259.833 14.288 260.121 14.2187 260.388 14.08C260.665 13.9413 260.932 13.7013 261.188 13.36V9.424C260.911 9.17867 260.633 9.008 260.356 8.912C260.079 8.80533 259.801 8.752 259.524 8.752C259.268 8.752 259.028 8.81067 258.804 8.928C258.58 9.04533 258.383 9.22133 258.212 9.456C258.052 9.69067 257.919 9.97867 257.812 10.32C257.716 10.6613 257.668 11.056 257.668 11.504C257.668 13.36 258.287 14.288 259.524 14.288ZM266.061 3.232H268.397V16H266.061V3.232ZM272.276 19.6L273.524 16.048L270.052 7.04H272.42L273.844 11.2C273.982 11.6053 274.11 12.016 274.228 12.432C274.345 12.848 274.468 13.28 274.596 13.728H274.676C274.782 13.312 274.889 12.8907 274.996 12.464C275.102 12.0373 275.209 11.616 275.316 11.2L276.548 7.04H278.804L275.7 16.256L274.596 19.6H272.276ZM288.944 16.224C288.198 16.224 287.494 16.0907 286.832 15.824C286.171 15.5573 285.595 15.168 285.104 14.656C284.614 14.144 284.224 13.5093 283.936 12.752C283.659 11.9947 283.52 11.12 283.52 10.128C283.52 9.14667 283.664 8.27733 283.952 7.52C284.251 6.752 284.651 6.10133 285.152 5.568C285.654 5.03467 286.235 4.62933 286.896 4.352C287.568 4.07467 288.278 3.936 289.024 3.936C289.792 3.936 290.464 4.09067 291.04 4.4C291.627 4.69867 292.112 5.05067 292.496 5.456L291.248 6.96C290.95 6.672 290.624 6.43733 290.272 6.256C289.92 6.064 289.52 5.968 289.072 5.968C288.624 5.968 288.208 6.064 287.824 6.256C287.44 6.43733 287.11 6.704 286.832 7.056C286.555 7.408 286.336 7.83467 286.176 8.336C286.016 8.83733 285.936 9.408 285.936 10.048C285.936 10.688 286.006 11.264 286.144 11.776C286.294 12.288 286.502 12.7253 286.768 13.088C287.046 13.44 287.371 13.712 287.744 13.904C288.128 14.0853 288.555 14.176 289.024 14.176C289.536 14.176 289.99 14.0693 290.384 13.856C290.79 13.632 291.152 13.3493 291.472 13.008L292.72 14.48C291.75 15.6427 290.491 16.224 288.944 16.224ZM298.18 16.224C297.625 16.224 297.087 16.1173 296.564 15.904C296.041 15.6907 295.583 15.3867 295.188 14.992C294.793 14.5867 294.473 14.096 294.228 13.52C293.993 12.9333 293.876 12.272 293.876 11.536C293.876 10.7893 293.993 10.1227 294.228 9.536C294.473 8.94933 294.793 8.45867 295.188 8.064C295.583 7.65867 296.041 7.34933 296.564 7.136C297.087 6.92267 297.625 6.816 298.18 6.816C298.745 6.816 299.284 6.92267 299.796 7.136C300.319 7.34933 300.777 7.65867 301.172 8.064C301.567 8.45867 301.881 8.94933 302.116 9.536C302.361 10.1227 302.484 10.7893 302.484 11.536C302.484 12.272 302.361 12.9333 302.116 13.52C301.881 14.096 301.567 14.5867 301.172 14.992C300.777 15.3867 300.319 15.6907 299.796 15.904C299.284 16.1173 298.745 16.224 298.18 16.224ZM298.18 14.304C298.788 14.304 299.257 14.0533 299.588 13.552C299.919 13.0507 300.084 12.3787 300.084 11.536C300.084 10.672 299.919 9.98933 299.588 9.488C299.257 8.98667 298.788 8.736 298.18 8.736C297.572 8.736 297.103 8.98667 296.772 9.488C296.441 9.98933 296.276 10.672 296.276 11.536C296.276 12.3787 296.441 13.0507 296.772 13.552C297.103 14.0533 297.572 14.304 298.18 14.304ZM304.452 3.232H306.788V16H304.452V3.232ZM313.242 16.224C312.688 16.224 312.149 16.1173 311.626 15.904C311.104 15.6907 310.645 15.3867 310.25 14.992C309.856 14.5867 309.536 14.096 309.29 13.52C309.056 12.9333 308.938 12.272 308.938 11.536C308.938 10.7893 309.056 10.1227 309.29 9.536C309.536 8.94933 309.856 8.45867 310.25 8.064C310.645 7.65867 311.104 7.34933 311.626 7.136C312.149 6.92267 312.688 6.816 313.242 6.816C313.808 6.816 314.346 6.92267 314.858 7.136C315.381 7.34933 315.84 7.65867 316.234 8.064C316.629 8.45867 316.944 8.94933 317.178 9.536C317.424 10.1227 317.546 10.7893 317.546 11.536C317.546 12.272 317.424 12.9333 317.178 13.52C316.944 14.096 316.629 14.5867 316.234 14.992C315.84 15.3867 315.381 15.6907 314.858 15.904C314.346 16.1173 313.808 16.224 313.242 16.224ZM313.242 14.304C313.85 14.304 314.32 14.0533 314.65 13.552C314.981 13.0507 315.146 12.3787 315.146 11.536C315.146 10.672 314.981 9.98933 314.65 9.488C314.32 8.98667 313.85 8.736 313.242 8.736C312.634 8.736 312.165 8.98667 311.834 9.488C311.504 9.98933 311.338 10.672 311.338 11.536C311.338 12.3787 311.504 13.0507 311.834 13.552C312.165 14.0533 312.634 14.304 313.242 14.304ZM321.434 7.04L321.594 8.624H321.658C321.989 8.03733 322.373 7.58933 322.81 7.28C323.258 6.97067 323.722 6.816 324.202 6.816C324.447 6.816 324.65 6.83733 324.81 6.88C324.97 6.912 325.119 6.95467 325.258 7.008L324.842 9.04C324.693 8.98667 324.543 8.94933 324.394 8.928C324.255 8.90667 324.095 8.896 323.914 8.896C323.562 8.896 323.194 9.02933 322.81 9.296C322.426 9.552 322.106 10.0053 321.85 10.656V16H319.514V7.04H321.434Z" fill="#222222"/>
<path d="M209.48 104.312V103.496H210.632L210.884 101.504H209.744V100.688H210.98L211.28 98.288H212.048L211.76 100.688H213.416L213.728 98.288H214.484L214.196 100.688H215.252V101.504H214.1L213.848 103.496H214.988V104.312H213.752L213.428 107H212.648L212.972 104.312H211.316L210.98 107H210.212L210.536 104.312H209.48ZM213.32 101.504H211.652L211.412 103.496H213.068L213.32 101.504ZM217.672 104.312L216.82 107H215.692L218.68 98.204H219.916L222.904 107H221.728L220.888 104.312H217.672ZM220.192 102.08C220.032 101.576 219.88 101.084 219.736 100.604C219.592 100.116 219.448 99.616 219.304 99.104H219.256C219.12 99.632 218.98 100.136 218.836 100.616C218.692 101.088 218.54 101.576 218.38 102.08L217.948 103.424H220.612L220.192 102.08ZM229.221 98.204V99.14H225.261V101.9H228.597V102.848H225.261V106.052H229.353V107H224.145V98.204H229.221ZM233.408 98.204C234.8 98.204 235.84 98.572 236.528 99.308C237.216 100.044 237.56 101.132 237.56 102.572C237.56 103.268 237.468 103.892 237.284 104.444C237.108 104.988 236.844 105.452 236.492 105.836C236.148 106.212 235.72 106.5 235.208 106.7C234.704 106.9 234.12 107 233.456 107H231.2V98.204H233.408ZM233.312 106.088C234.352 106.088 235.128 105.78 235.64 105.164C236.152 104.548 236.408 103.684 236.408 102.572C236.408 101.436 236.156 100.576 235.652 99.992C235.156 99.4 234.376 99.104 233.312 99.104H232.316V106.088H233.312ZM240.254 104.312L239.402 107H238.274L241.262 98.204H242.498L245.486 107H244.31L243.47 104.312H240.254ZM242.774 102.08C242.614 101.576 242.462 101.084 242.318 100.604C242.174 100.116 242.03 99.616 241.886 99.104H241.838C241.702 99.632 241.562 100.136 241.418 100.616C241.274 101.088 241.122 101.576 240.962 102.08L240.53 103.424H243.194L242.774 102.08ZM252.139 98.912L248.167 107H246.955L250.543 99.812L250.951 99.14H246.355V98.204H252.139V98.912ZM259.636 104.66H258.304V107H257.332V104.66H252.94V103.844L257.272 98.108H258.304V103.796H259.636V104.66ZM257.332 100.124C257.332 100.02 257.336 99.904 257.344 99.776C257.352 99.64 257.364 99.508 257.38 99.38L254.14 103.796H257.332V100.124Z" fill="#222222"/>
<rect x="210" y="35" width="50" height="50" rx="25" fill="#AEDA74"/>
<rect x="285" y="35" width="50" height="50" rx="25" fill="#EF3E41"/>
<rect x="360" y="35" width="50" height="50" rx="25" fill="#0039CC"/>
<path d="M288.48 104.312V103.496H289.632L289.884 101.504H288.744V100.688H289.98L290.28 98.288H291.048L290.76 100.688H292.416L292.728 98.288H293.484L293.196 100.688H294.252V101.504H293.1L292.848 103.496H293.988V104.312H292.752L292.428 107H291.648L291.972 104.312H290.316L289.98 107H289.212L289.536 104.312H288.48ZM292.32 101.504H290.652L290.412 103.496H292.068L292.32 101.504ZM300.932 98.204V99.14H296.972V101.9H300.308V102.848H296.972V106.052H301.064V107H295.856V98.204H300.932ZM307.987 98.204V99.14H304.027V102.116H307.387V103.052H304.027V107H302.911V98.204H307.987ZM309.184 100.568C309.24 100.168 309.352 99.812 309.52 99.5C309.688 99.188 309.896 98.928 310.144 98.72C310.4 98.504 310.692 98.34 311.02 98.228C311.348 98.116 311.7 98.06 312.076 98.06C312.46 98.06 312.808 98.116 313.12 98.228C313.44 98.34 313.716 98.496 313.948 98.696C314.18 98.896 314.36 99.136 314.488 99.416C314.616 99.696 314.68 100.004 314.68 100.34C314.68 100.916 314.54 101.364 314.26 101.684C313.988 101.996 313.612 102.232 313.132 102.392C313.708 102.536 314.144 102.788 314.44 103.148C314.736 103.508 314.884 103.964 314.884 104.516C314.884 104.916 314.804 105.28 314.644 105.608C314.492 105.936 314.28 106.216 314.008 106.448C313.744 106.672 313.428 106.848 313.06 106.976C312.7 107.096 312.316 107.156 311.908 107.156C311.436 107.156 311.032 107.096 310.696 106.976C310.368 106.856 310.088 106.692 309.856 106.484C309.624 106.276 309.432 106.032 309.28 105.752C309.136 105.464 309.012 105.16 308.908 104.84L309.892 104.432C309.916 104.56 309.976 104.74 310.072 104.972C310.256 105.356 310.492 105.66 310.78 105.884C311.068 106.1 311.44 106.208 311.896 106.208C312.208 106.208 312.48 106.16 312.712 106.064C312.952 105.96 313.148 105.828 313.3 105.668C313.46 105.508 313.576 105.328 313.648 105.128C313.728 104.928 313.768 104.732 313.768 104.54C313.768 104.3 313.736 104.08 313.672 103.88C313.616 103.68 313.504 103.508 313.336 103.364C313.168 103.22 312.936 103.108 312.64 103.028C312.344 102.94 311.96 102.896 311.488 102.896V102.104C311.872 102.096 312.196 102.052 312.46 101.972C312.732 101.892 312.952 101.784 313.12 101.648C313.288 101.504 313.408 101.336 313.48 101.144C313.552 100.952 313.588 100.744 313.588 100.52C313.588 100.016 313.44 99.64 313.144 99.392C312.856 99.144 312.48 99.02 312.016 99.02C311.768 99.02 311.536 99.064 311.32 99.152C311.104 99.24 310.92 99.364 310.768 99.524C310.616 99.676 310.496 99.856 310.408 100.064C310.32 100.272 310.276 100.5 310.276 100.748L309.184 100.568ZM321.756 98.204V99.14H317.796V101.9H321.132V102.848H317.796V106.052H321.888V107H316.68V98.204H321.756ZM329.495 104.66H328.163V107H327.191V104.66H322.799V103.844L327.131 98.108H328.163V103.796H329.495V104.66ZM327.191 100.124C327.191 100.02 327.195 99.904 327.203 99.776C327.211 99.64 327.223 99.508 327.239 99.38L323.999 103.796H327.191V100.124ZM335.996 107H331.244V106.112H333.2V99.608C333.2 99.56 333.204 99.516 333.212 99.476L331.616 100.904L331.028 100.196L333.392 98.156H334.268V106.112H335.996V107Z" fill="#222222"/>
<path d="M359.48 104.312V103.496H360.632L360.884 101.504H359.744V100.688H360.98L361.28 98.288H362.048L361.76 100.688H363.416L363.728 98.288H364.484L364.196 100.688H365.252V101.504H364.1L363.848 103.496H364.988V104.312H363.752L363.428 107H362.648L362.972 104.312H361.316L360.98 107H360.212L360.536 104.312H359.48ZM363.32 101.504H361.652L361.412 103.496H363.068L363.32 101.504ZM372.484 102.62C372.484 103.396 372.4 104.072 372.232 104.648C372.064 105.216 371.836 105.688 371.548 106.064C371.26 106.44 370.92 106.72 370.528 106.904C370.136 107.08 369.712 107.168 369.256 107.168C368.8 107.168 368.376 107.08 367.984 106.904C367.592 106.72 367.248 106.44 366.952 106.064C366.664 105.688 366.436 105.216 366.268 104.648C366.108 104.072 366.028 103.396 366.028 102.62C366.028 101.836 366.108 101.16 366.268 100.592C366.436 100.016 366.664 99.54 366.952 99.164C367.248 98.788 367.592 98.512 367.984 98.336C368.376 98.152 368.8 98.06 369.256 98.06C369.712 98.06 370.136 98.152 370.528 98.336C370.92 98.512 371.26 98.788 371.548 99.164C371.836 99.54 372.064 100.016 372.232 100.592C372.4 101.16 372.484 101.836 372.484 102.62ZM371.38 102.62C371.38 101.932 371.32 101.356 371.2 100.892C371.088 100.42 370.932 100.044 370.732 99.764C370.54 99.476 370.316 99.272 370.06 99.152C369.804 99.024 369.536 98.96 369.256 98.96C368.976 98.96 368.708 99.024 368.452 99.152C368.196 99.272 367.972 99.476 367.78 99.764C367.588 100.044 367.432 100.42 367.312 100.892C367.2 101.356 367.144 101.932 367.144 102.62C367.144 103.3 367.2 103.876 367.312 104.348C367.432 104.812 367.588 105.188 367.78 105.476C367.972 105.764 368.196 105.972 368.452 106.1C368.708 106.22 368.976 106.28 369.256 106.28C369.536 106.28 369.804 106.22 370.06 106.1C370.316 105.972 370.54 105.764 370.732 105.476C370.932 105.188 371.088 104.812 371.2 104.348C371.32 103.876 371.38 103.3 371.38 102.62ZM379.633 102.62C379.633 103.396 379.549 104.072 379.381 104.648C379.213 105.216 378.985 105.688 378.697 106.064C378.409 106.44 378.069 106.72 377.677 106.904C377.285 107.08 376.861 107.168 376.405 107.168C375.949 107.168 375.525 107.08 375.133 106.904C374.741 106.72 374.397 106.44 374.101 106.064C373.813 105.688 373.585 105.216 373.417 104.648C373.257 104.072 373.177 103.396 373.177 102.62C373.177 101.836 373.257 101.16 373.417 100.592C373.585 100.016 373.813 99.54 374.101 99.164C374.397 98.788 374.741 98.512 375.133 98.336C375.525 98.152 375.949 98.06 376.405 98.06C376.861 98.06 377.285 98.152 377.677 98.336C378.069 98.512 378.409 98.788 378.697 99.164C378.985 99.54 379.213 100.016 379.381 100.592C379.549 101.16 379.633 101.836 379.633 102.62ZM378.529 102.62C378.529 101.932 378.469 101.356 378.349 100.892C378.237 100.42 378.081 100.044 377.881 99.764C377.689 99.476 377.465 99.272 377.209 99.152C376.953 99.024 376.685 98.96 376.405 98.96C376.125 98.96 375.857 99.024 375.601 99.152C375.345 99.272 375.121 99.476 374.929 99.764C374.737 100.044 374.581 100.42 374.461 100.892C374.349 101.356 374.293 101.932 374.293 102.62C374.293 103.3 374.349 103.876 374.461 104.348C374.581 104.812 374.737 105.188 374.929 105.476C375.121 105.764 375.345 105.972 375.601 106.1C375.857 106.22 376.125 106.28 376.405 106.28C376.685 106.28 376.953 106.22 377.209 106.1C377.465 105.972 377.689 105.764 377.881 105.476C378.081 105.188 378.237 104.812 378.349 104.348C378.469 103.876 378.529 103.3 378.529 102.62ZM380.805 100.568C380.861 100.168 380.973 99.812 381.141 99.5C381.309 99.188 381.517 98.928 381.765 98.72C382.021 98.504 382.313 98.34 382.641 98.228C382.969 98.116 383.321 98.06 383.697 98.06C384.081 98.06 384.429 98.116 384.741 98.228C385.061 98.34 385.337 98.496 385.569 98.696C385.801 98.896 385.981 99.136 386.109 99.416C386.237 99.696 386.301 100.004 386.301 100.34C386.301 100.916 386.161 101.364 385.881 101.684C385.609 101.996 385.233 102.232 384.753 102.392C385.329 102.536 385.765 102.788 386.061 103.148C386.357 103.508 386.505 103.964 386.505 104.516C386.505 104.916 386.425 105.28 386.265 105.608C386.113 105.936 385.901 106.216 385.629 106.448C385.365 106.672 385.049 106.848 384.681 106.976C384.321 107.096 383.937 107.156 383.529 107.156C383.057 107.156 382.653 107.096 382.317 106.976C381.989 106.856 381.709 106.692 381.477 106.484C381.245 106.276 381.053 106.032 380.901 105.752C380.757 105.464 380.633 105.16 380.529 104.84L381.513 104.432C381.537 104.56 381.597 104.74 381.693 104.972C381.877 105.356 382.113 105.66 382.401 105.884C382.689 106.1 383.061 106.208 383.517 106.208C383.829 106.208 384.101 106.16 384.333 106.064C384.573 105.96 384.769 105.828 384.921 105.668C385.081 105.508 385.197 105.328 385.269 105.128C385.349 104.928 385.389 104.732 385.389 104.54C385.389 104.3 385.357 104.08 385.293 103.88C385.237 103.68 385.125 103.508 384.957 103.364C384.789 103.22 384.557 103.108 384.261 103.028C383.965 102.94 383.581 102.896 383.109 102.896V102.104C383.493 102.096 383.817 102.052 384.081 101.972C384.353 101.892 384.573 101.784 384.741 101.648C384.909 101.504 385.029 101.336 385.101 101.144C385.173 100.952 385.209 100.744 385.209 100.52C385.209 100.016 385.061 99.64 384.765 99.392C384.477 99.144 384.101 99.02 383.637 99.02C383.389 99.02 383.157 99.064 382.941 99.152C382.725 99.24 382.541 99.364 382.389 99.524C382.237 99.676 382.117 99.856 382.029 100.064C381.941 100.272 381.897 100.5 381.897 100.748L380.805 100.568ZM391.482 103.508C391.61 103.34 391.71 103.2 391.782 103.088C391.862 102.976 391.922 102.892 391.962 102.836C391.49 103.212 390.926 103.4 390.27 103.4C389.926 103.4 389.598 103.344 389.286 103.232C388.982 103.12 388.714 102.956 388.482 102.74C388.258 102.516 388.078 102.244 387.942 101.924C387.806 101.604 387.738 101.236 387.738 100.82C387.738 100.428 387.81 100.06 387.954 99.716C388.106 99.372 388.314 99.072 388.578 98.816C388.842 98.56 389.154 98.36 389.514 98.216C389.882 98.064 390.286 97.988 390.726 97.988C391.158 97.988 391.55 98.06 391.902 98.204C392.254 98.348 392.554 98.548 392.802 98.804C393.058 99.06 393.254 99.368 393.39 99.728C393.526 100.08 393.594 100.472 393.594 100.904C393.594 101.424 393.502 101.9 393.318 102.332C393.134 102.764 392.874 103.212 392.538 103.676L390.126 107H388.746L391.482 103.508ZM388.854 100.736C388.854 101.32 389.01 101.768 389.322 102.08C389.642 102.384 390.078 102.536 390.63 102.536C390.934 102.536 391.202 102.488 391.434 102.392C391.666 102.296 391.862 102.168 392.022 102.008C392.19 101.84 392.314 101.652 392.394 101.444C392.482 101.228 392.526 101.004 392.526 100.772C392.526 100.484 392.478 100.228 392.382 100.004C392.294 99.772 392.17 99.58 392.01 99.428C391.85 99.268 391.658 99.148 391.434 99.068C391.21 98.98 390.97 98.936 390.714 98.936C390.154 98.936 389.702 99.104 389.358 99.44C389.022 99.768 388.854 100.2 388.854 100.736ZM398.774 107.156C398.23 107.156 397.722 107.052 397.25 106.844C396.786 106.636 396.382 106.34 396.038 105.956C395.702 105.564 395.434 105.088 395.234 104.528C395.042 103.96 394.946 103.32 394.946 102.608C394.946 101.896 395.042 101.26 395.234 100.7C395.434 100.132 395.706 99.652 396.05 99.26C396.402 98.86 396.814 98.556 397.286 98.348C397.766 98.14 398.286 98.036 398.846 98.036C399.11 98.036 399.362 98.068 399.602 98.132C399.842 98.188 400.062 98.268 400.262 98.372C400.47 98.476 400.654 98.592 400.814 98.72C400.982 98.848 401.13 98.984 401.258 99.128L400.658 99.848C400.426 99.6 400.162 99.4 399.866 99.248C399.578 99.088 399.242 99.008 398.858 99.008C398.442 99.008 398.062 99.092 397.718 99.26C397.382 99.42 397.09 99.656 396.842 99.968C396.602 100.272 396.414 100.644 396.278 101.084C396.15 101.524 396.086 102.02 396.086 102.572C396.086 103.124 396.15 103.624 396.278 104.072C396.406 104.52 396.586 104.9 396.818 105.212C397.058 105.524 397.346 105.764 397.682 105.932C398.026 106.1 398.406 106.184 398.822 106.184C399.254 106.184 399.63 106.096 399.95 105.92C400.278 105.744 400.582 105.504 400.862 105.2L401.474 105.896C401.114 106.304 400.718 106.616 400.286 106.832C399.854 107.048 399.35 107.156 398.774 107.156ZM406.04 107.156C405.496 107.156 404.988 107.052 404.516 106.844C404.052 106.636 403.648 106.34 403.304 105.956C402.968 105.564 402.7 105.088 402.5 104.528C402.308 103.96 402.212 103.32 402.212 102.608C402.212 101.896 402.308 101.26 402.5 100.7C402.7 100.132 402.972 99.652 403.316 99.26C403.668 98.86 404.08 98.556 404.552 98.348C405.032 98.14 405.552 98.036 406.112 98.036C406.376 98.036 406.628 98.068 406.868 98.132C407.108 98.188 407.328 98.268 407.528 98.372C407.736 98.476 407.92 98.592 408.08 98.72C408.248 98.848 408.396 98.984 408.524 99.128L407.924 99.848C407.692 99.6 407.428 99.4 407.132 99.248C406.844 99.088 406.508 99.008 406.124 99.008C405.708 99.008 405.328 99.092 404.984 99.26C404.648 99.42 404.356 99.656 404.108 99.968C403.868 100.272 403.68 100.644 403.544 101.084C403.416 101.524 403.352 102.02 403.352 102.572C403.352 103.124 403.416 103.624 403.544 104.072C403.672 104.52 403.852 104.9 404.084 105.212C404.324 105.524 404.612 105.764 404.948 105.932C405.292 106.1 405.672 106.184 406.088 106.184C406.52 106.184 406.896 106.096 407.216 105.92C407.544 105.744 407.848 105.504 408.128 105.2L408.74 105.896C408.38 106.304 407.984 106.616 407.552 106.832C407.12 107.048 406.616 107.156 406.04 107.156Z" fill="#222222"/>
</svg>
