<svg width="272" height="61" viewBox="0 0 272 61" fill="none" xmlns="http://www.w3.org/2000/svg">
<g filter="url(#filter0_d_310_2232)">
<rect x="14" y="10" width="110" height="45" rx="7.71909" fill="white"/>
</g>
<path d="M0.276336 25.1221C0.276336 25.5218 0.600331 25.8458 1 25.8458C1.39967 25.8458 1.72366 25.5218 1.72366 25.1221H0.276336ZM1.72366 25.1221V8.71909H0.276336V25.1221H1.72366ZM8.71909 1.72366H25.1221V0.276336H8.71909V1.72366ZM1.72366 8.71909C1.72366 4.85562 4.85562 1.72366 8.71909 1.72366V0.276336C4.05628 0.276336 0.276336 4.05629 0.276336 8.71909H1.72366Z" fill="#656565"/>
<path d="M37.9919 29L35.9879 25.436H34.5599V29H33.1679V20.168H36.0599C36.5159 20.168 36.9359 20.212 37.3199 20.3C37.7119 20.388 38.0519 20.532 38.3399 20.732C38.6279 20.932 38.8519 21.196 39.0119 21.524C39.1719 21.844 39.2519 22.244 39.2519 22.724C39.2519 23.42 39.0839 23.972 38.7479 24.38C38.4119 24.788 37.9639 25.08 37.4039 25.256L39.5639 29H37.9919ZM34.5599 24.32H35.8919C36.5399 24.32 37.0319 24.188 37.3679 23.924C37.7039 23.66 37.8719 23.26 37.8719 22.724C37.8719 22.188 37.7039 21.816 37.3679 21.608C37.0319 21.392 36.5399 21.284 35.8919 21.284H34.5599V24.32ZM43.4223 29.156C43.0143 29.156 42.6223 29.08 42.2463 28.928C41.8703 28.768 41.5383 28.544 41.2503 28.256C40.9703 27.96 40.7423 27.6 40.5663 27.176C40.3983 26.744 40.3143 26.256 40.3143 25.712C40.3143 25.16 40.3983 24.668 40.5663 24.236C40.7423 23.804 40.9703 23.44 41.2503 23.144C41.5383 22.848 41.8703 22.624 42.2463 22.472C42.6223 22.312 43.0143 22.232 43.4223 22.232C43.8303 22.232 44.2223 22.312 44.5983 22.472C44.9743 22.624 45.3023 22.848 45.5823 23.144C45.8703 23.44 46.0983 23.804 46.2663 24.236C46.4423 24.668 46.5303 25.16 46.5303 25.712C46.5303 26.256 46.4423 26.744 46.2663 27.176C46.0983 27.6 45.8703 27.96 45.5823 28.256C45.3023 28.544 44.9743 28.768 44.5983 28.928C44.2223 29.08 43.8303 29.156 43.4223 29.156ZM43.4223 28.028C43.6863 28.028 43.9223 27.972 44.1303 27.86C44.3383 27.748 44.5143 27.592 44.6583 27.392C44.8023 27.192 44.9143 26.948 44.9943 26.66C45.0743 26.372 45.1143 26.056 45.1143 25.712C45.1143 25.008 44.9623 24.444 44.6583 24.02C44.3623 23.588 43.9503 23.372 43.4223 23.372C42.8943 23.372 42.4823 23.588 42.1863 24.02C41.8903 24.444 41.7423 25.008 41.7423 25.712C41.7423 26.056 41.7823 26.372 41.8623 26.66C41.9423 26.948 42.0543 27.192 42.1983 27.392C42.3423 27.592 42.5183 27.748 42.7263 27.86C42.9343 27.972 43.1663 28.028 43.4223 28.028ZM50.0734 29.156C49.3694 29.156 48.8574 28.936 48.5374 28.496C48.2174 28.048 48.0574 27.4 48.0574 26.552V22.4H49.4374V26.384C49.4374 26.96 49.5214 27.368 49.6894 27.608C49.8654 27.848 50.1494 27.968 50.5414 27.968C50.8454 27.968 51.1174 27.892 51.3574 27.74C51.5974 27.58 51.8534 27.328 52.1254 26.984V22.4H53.5054V29H52.3774L52.2694 28.004H52.2334C51.9294 28.364 51.6054 28.648 51.2614 28.856C50.9254 29.056 50.5294 29.156 50.0734 29.156ZM55.5828 22.4H56.7108L56.8188 23.312H56.8548C57.1588 23.016 57.4868 22.764 57.8388 22.556C58.1908 22.34 58.5908 22.232 59.0388 22.232C59.7428 22.232 60.2548 22.456 60.5748 22.904C60.9028 23.352 61.0668 24 61.0668 24.848V29H59.6868V25.016C59.6868 24.44 59.5988 24.032 59.4228 23.792C59.2468 23.544 58.9628 23.42 58.5708 23.42C58.2668 23.42 57.9948 23.496 57.7548 23.648C57.5148 23.8 57.2468 24.024 56.9508 24.32V29H55.5828V22.4ZM65.3631 29.156C64.5151 29.156 63.8471 28.864 63.3591 28.28C62.8791 27.688 62.6391 26.832 62.6391 25.712C62.6391 25.168 62.7151 24.684 62.8671 24.26C63.0271 23.828 63.2391 23.464 63.5031 23.168C63.7671 22.864 64.0671 22.632 64.4031 22.472C64.7471 22.312 65.1031 22.232 65.4711 22.232C65.8551 22.232 66.1791 22.3 66.4431 22.436C66.7071 22.564 66.9751 22.744 67.2471 22.976L67.1871 21.884V19.436H68.5671V29H67.4391L67.3191 28.256H67.2831C67.0351 28.512 66.7471 28.728 66.4191 28.904C66.0991 29.072 65.7471 29.156 65.3631 29.156ZM65.6871 28.016C66.2231 28.016 66.7231 27.748 67.1871 27.212V23.984C66.9391 23.76 66.6951 23.604 66.4551 23.516C66.2231 23.428 65.9831 23.384 65.7351 23.384C65.5031 23.384 65.2831 23.44 65.0751 23.552C64.8751 23.656 64.6991 23.808 64.5471 24.008C64.4031 24.2 64.2871 24.44 64.1991 24.728C64.1111 25.008 64.0671 25.328 64.0671 25.688C64.0671 26.44 64.2031 27.016 64.4751 27.416C64.7551 27.816 65.1591 28.016 65.6871 28.016ZM74.5613 23.372H73.1453V21.884H74.5613V23.372ZM74.5613 28.316H73.1453V26.828H74.5613V28.316ZM80.0015 23.048L79.2695 22.16L81.6695 20.108H82.7495V27.848H84.4175V29H79.5815V27.848H81.4295V22.136C81.4295 22.04 81.4335 21.94 81.4415 21.836L80.0015 23.048ZM90.9539 20.132L87.9539 23.852C88.3699 23.62 88.8179 23.504 89.2979 23.504C89.6979 23.504 90.0579 23.572 90.3779 23.708C90.7059 23.836 90.9819 24.02 91.2059 24.26C91.4379 24.492 91.6139 24.772 91.7339 25.1C91.8619 25.42 91.9259 25.772 91.9259 26.156C91.9259 26.588 91.8459 26.984 91.6859 27.344C91.5259 27.704 91.3059 28.016 91.0259 28.28C90.7459 28.536 90.4179 28.736 90.0419 28.88C89.6659 29.024 89.2619 29.096 88.8299 29.096C88.3739 29.096 87.9579 29.024 87.5819 28.88C87.2139 28.736 86.8979 28.532 86.6339 28.268C86.3779 27.996 86.1779 27.672 86.0339 27.296C85.8979 26.912 85.8299 26.484 85.8299 26.012C85.8299 25.532 85.9339 25.068 86.1419 24.62C86.3579 24.164 86.6059 23.748 86.8859 23.372L89.3099 20.132H90.9539ZM88.8059 28.004C89.0539 28.004 89.2859 27.964 89.5019 27.884C89.7259 27.796 89.9179 27.676 90.0779 27.524C90.2379 27.364 90.3659 27.18 90.4619 26.972C90.5579 26.756 90.6059 26.516 90.6059 26.252C90.6059 25.724 90.4459 25.304 90.1259 24.992C89.8059 24.672 89.3819 24.512 88.8539 24.512C88.6059 24.512 88.3739 24.556 88.1579 24.644C87.9419 24.732 87.7539 24.852 87.5939 25.004C87.4419 25.156 87.3219 25.336 87.2339 25.544C87.1459 25.752 87.1019 25.98 87.1019 26.228C87.1019 26.748 87.2459 27.176 87.5339 27.512C87.8299 27.84 88.2539 28.004 88.8059 28.004ZM93.4463 22.4H94.5743L94.6823 23.12H94.7183C95.0063 22.88 95.3223 22.672 95.6663 22.496C96.0183 22.32 96.3783 22.232 96.7463 22.232C97.1703 22.232 97.5423 22.312 97.8623 22.472C98.1903 22.632 98.4623 22.86 98.6783 23.156C98.9023 23.444 99.0703 23.796 99.1823 24.212C99.3023 24.628 99.3623 25.088 99.3623 25.592C99.3623 26.152 99.2823 26.656 99.1223 27.104C98.9703 27.544 98.7623 27.916 98.4983 28.22C98.2343 28.524 97.9303 28.756 97.5863 28.916C97.2503 29.076 96.8943 29.156 96.5183 29.156C96.2223 29.156 95.9263 29.092 95.6303 28.964C95.3423 28.836 95.0583 28.652 94.7783 28.412L94.8143 29.54V31.676H93.4463V22.4ZM96.2543 28.016C96.7343 28.016 97.1343 27.812 97.4543 27.404C97.7743 26.988 97.9343 26.392 97.9343 25.616C97.9343 24.912 97.8143 24.364 97.5743 23.972C97.3343 23.58 96.9383 23.384 96.3863 23.384C96.1303 23.384 95.8743 23.452 95.6183 23.588C95.3623 23.716 95.0943 23.916 94.8143 24.188V27.416C95.0703 27.64 95.3223 27.796 95.5703 27.884C95.8183 27.972 96.0463 28.016 96.2543 28.016ZM101.996 25.556L100.016 22.4H101.504L102.296 23.732C102.384 23.916 102.48 24.1 102.584 24.284C102.696 24.468 102.808 24.652 102.92 24.836H102.968C103.048 24.676 103.128 24.516 103.208 24.356L103.28 24.212C103.36 24.052 103.44 23.892 103.52 23.732L104.216 22.4H105.656L103.676 25.712L105.8 29H104.3L103.436 27.608L103.1 27.008C102.988 26.808 102.872 26.616 102.752 26.432H102.692C102.588 26.616 102.484 26.808 102.38 27.008C102.284 27.2 102.184 27.4 102.08 27.608L101.312 29H99.8597L101.996 25.556Z" fill="#656565"/>
<path d="M29.3317 40.42C29.8437 40.348 30.3197 40.228 30.7597 40.06C31.1997 39.884 31.5797 39.676 31.8997 39.436C32.2277 39.188 32.4877 38.916 32.6797 38.62C32.8717 38.324 32.9757 38.016 32.9917 37.696H29.6917V36.7H37.6717V37.696H34.3957C34.4117 38.016 34.5157 38.324 34.7077 38.62C34.8997 38.916 35.1557 39.188 35.4757 39.436C35.8037 39.676 36.1877 39.884 36.6277 40.06C37.0677 40.228 37.5437 40.348 38.0557 40.42L37.6117 41.392C36.7157 41.248 35.9237 40.972 35.2357 40.564C34.5477 40.156 34.0317 39.648 33.6877 39.04C33.3517 39.64 32.8397 40.148 32.1517 40.564C31.4637 40.98 30.6717 41.256 29.7757 41.392L29.3317 40.42ZM38.5837 43.18H34.2757V46.936H33.0397V43.18H28.7917V42.184H38.5957L38.5837 43.18ZM49.6468 44.584V45.592H39.8308V44.584H42.1228V41.764C41.6908 41.524 41.3508 41.216 41.1028 40.84C40.8628 40.456 40.7428 40.024 40.7428 39.544C40.7428 39.112 40.8388 38.724 41.0308 38.38C41.2308 38.028 41.5068 37.728 41.8588 37.48C42.2188 37.232 42.6428 37.044 43.1308 36.916C43.6188 36.78 44.1508 36.712 44.7268 36.712C45.3028 36.712 45.8348 36.78 46.3228 36.916C46.8108 37.044 47.2308 37.232 47.5828 37.48C47.9348 37.728 48.2108 38.028 48.4108 38.38C48.6108 38.724 48.7108 39.112 48.7108 39.544C48.7108 40.024 48.5868 40.452 48.3388 40.828C48.0988 41.204 47.7628 41.516 47.3308 41.764V44.584H49.6468ZM44.7268 37.684C44.3188 37.684 43.9428 37.728 43.5988 37.816C43.2548 37.904 42.9588 38.028 42.7108 38.188C42.4708 38.348 42.2828 38.544 42.1468 38.776C42.0108 39 41.9428 39.256 41.9428 39.544C41.9428 39.832 42.0108 40.092 42.1468 40.324C42.2828 40.556 42.4708 40.752 42.7108 40.912C42.9588 41.072 43.2548 41.196 43.5988 41.284C43.9428 41.372 44.3188 41.416 44.7268 41.416C45.1348 41.416 45.5068 41.372 45.8428 41.284C46.1868 41.196 46.4788 41.072 46.7188 40.912C46.9668 40.752 47.1588 40.556 47.2948 40.324C47.4308 40.092 47.4988 39.832 47.4988 39.544C47.4988 39.256 47.4308 39 47.2948 38.776C47.1588 38.544 46.9668 38.348 46.7188 38.188C46.4788 38.028 46.1868 37.904 45.8428 37.816C45.5068 37.728 45.1348 37.684 44.7268 37.684ZM43.3588 44.584H46.0948V42.22C45.8868 42.276 45.6668 42.316 45.4348 42.34C45.2028 42.364 44.9668 42.376 44.7268 42.376C44.2388 42.376 43.7828 42.328 43.3588 42.232V44.584ZM61.2934 39.46V36.088H62.5294V44.116H61.2934V40.48H59.1334V39.46H61.2934ZM59.1694 36.94C59.1694 37.668 59.0774 38.344 58.8934 38.968C58.7174 39.592 58.4334 40.164 58.0414 40.684C57.6574 41.196 57.1534 41.656 56.5294 42.064C55.9134 42.464 55.1614 42.808 54.2734 43.096L53.7694 42.112C54.6414 41.84 55.3494 41.524 55.8934 41.164C56.4374 40.804 56.8654 40.396 57.1774 39.94L53.9494 40.18L53.7574 39.196L57.6454 39.04C57.7014 38.864 57.7494 38.684 57.7894 38.5C57.8294 38.316 57.8574 38.128 57.8734 37.936H54.2974V36.94H59.1694ZM62.8414 45.712V46.72H55.6054V43.336H56.8534V45.712H62.8414ZM73.7605 44.212H72.5845V36.088H73.7605V44.212ZM70.4965 40.108H69.2125V39.1H70.4965V36.304H71.6485V43.948H70.4965V40.108ZM69.7045 42.268C69.3925 42.324 69.0885 42.372 68.7925 42.412C68.5045 42.444 68.2045 42.468 67.8925 42.484C67.5805 42.5 67.2525 42.512 66.9085 42.52C66.5645 42.528 66.1805 42.532 65.7565 42.532H65.0485V36.964H69.1405V37.96H66.2365V39.232H68.7325V40.192H66.2365V41.548C66.5805 41.548 66.8965 41.544 67.1845 41.536C67.4805 41.528 67.7605 41.512 68.0245 41.488C68.2885 41.464 68.5485 41.436 68.8045 41.404C69.0605 41.372 69.3205 41.332 69.5845 41.284L69.7045 42.268ZM74.0605 45.712V46.72H66.6565V43.324H67.9045V45.712H74.0605ZM76.0995 41.944C76.6675 41.856 77.1795 41.712 77.6355 41.512C78.0995 41.312 78.4955 41.068 78.8235 40.78C79.1515 40.492 79.4075 40.172 79.5915 39.82C79.7835 39.468 79.8875 39.1 79.9035 38.716H76.5075V37.708H79.9155V36.304H81.1515V37.708H84.5475V38.716H81.1635C81.1795 39.1 81.2795 39.468 81.4635 39.82C81.6555 40.172 81.9155 40.492 82.2435 40.78C82.5715 41.06 82.9675 41.304 83.4315 41.512C83.8955 41.712 84.4075 41.856 84.9675 41.944L84.4995 42.964C83.5795 42.804 82.7755 42.512 82.0875 42.088C81.4075 41.656 80.8875 41.116 80.5275 40.468C80.1675 41.116 79.6475 41.656 78.9675 42.088C78.2875 42.512 77.4875 42.804 76.5675 42.964L76.0995 41.944ZM85.4475 44.584V45.604H75.6315V44.584H85.4475ZM99.3502 38.764V39.784H97.8142V42.592H96.5782V36.076H97.8142V38.764H99.3502ZM95.0062 42.016C94.4222 41.808 93.9182 41.508 93.4942 41.116C93.0782 40.716 92.7542 40.26 92.5222 39.748C92.2822 40.348 91.9422 40.868 91.5022 41.308C91.0622 41.748 90.5302 42.084 89.9062 42.316L89.2462 41.332C89.6702 41.188 90.0462 40.992 90.3742 40.744C90.7022 40.496 90.9782 40.212 91.2022 39.892C91.4262 39.572 91.5942 39.228 91.7062 38.86C91.8182 38.484 91.8742 38.1 91.8742 37.708V36.64H93.1222V37.804C93.1222 38.156 93.1782 38.496 93.2902 38.824C93.4022 39.152 93.5662 39.46 93.7822 39.748C93.9982 40.028 94.2622 40.28 94.5742 40.504C94.8942 40.728 95.2542 40.908 95.6542 41.044L95.0062 42.016ZM94.3222 42.856C95.4502 42.856 96.3342 43.036 96.9742 43.396C97.6142 43.748 97.9342 44.244 97.9342 44.884C97.9342 45.204 97.8502 45.492 97.6822 45.748C97.5222 45.996 97.2862 46.208 96.9742 46.384C96.6622 46.56 96.2822 46.692 95.8342 46.78C95.3942 46.876 94.8902 46.924 94.3222 46.924C93.7622 46.924 93.2582 46.876 92.8102 46.78C92.3702 46.692 91.9942 46.56 91.6822 46.384C91.3702 46.208 91.1302 45.996 90.9622 45.748C90.7942 45.492 90.7102 45.204 90.7102 44.884C90.7102 44.564 90.7942 44.28 90.9622 44.032C91.1302 43.776 91.3702 43.564 91.6822 43.396C91.9942 43.22 92.3702 43.088 92.8102 43C93.2582 42.904 93.7622 42.856 94.3222 42.856ZM94.3222 45.952C95.0982 45.952 95.6902 45.864 96.0982 45.688C96.5062 45.512 96.7102 45.244 96.7102 44.884C96.7102 44.548 96.5062 44.288 96.0982 44.104C95.6902 43.92 95.0982 43.828 94.3222 43.828C93.5462 43.828 92.9542 43.92 92.5462 44.104C92.1382 44.288 91.9342 44.548 91.9342 44.884C91.9342 45.244 92.1382 45.512 92.5462 45.688C92.9542 45.864 93.5462 45.952 94.3222 45.952ZM110.473 41.38H108.781V46.924H107.545V36.088H108.781V40.36H110.473V41.38ZM104.185 39.232C104.185 39.648 104.249 40.076 104.377 40.516C104.505 40.948 104.685 41.364 104.917 41.764C105.157 42.156 105.445 42.516 105.781 42.844C106.117 43.164 106.489 43.42 106.897 43.612L106.213 44.584C105.605 44.296 105.077 43.876 104.629 43.324C104.181 42.772 103.833 42.144 103.585 41.44C103.465 41.816 103.317 42.18 103.141 42.532C102.965 42.876 102.761 43.196 102.529 43.492C102.305 43.78 102.053 44.044 101.773 44.284C101.501 44.516 101.209 44.708 100.897 44.86L100.189 43.876C100.605 43.676 100.981 43.408 101.317 43.072C101.661 42.728 101.953 42.348 102.193 41.932C102.433 41.508 102.617 41.064 102.745 40.6C102.881 40.136 102.949 39.68 102.949 39.232V38.188H100.585V37.168H106.477V38.188H104.185V39.232Z" fill="#656565"/>
<g filter="url(#filter1_d_310_2232)">
<rect x="157" y="10" width="110" height="46" rx="15.4382" fill="white"/>
</g>
<path d="M145.276 26.1221C145.276 26.5218 145.6 26.8458 146 26.8458C146.4 26.8458 146.724 26.5218 146.724 26.1221H145.276ZM146.724 26.1221V2.96489H145.276V26.1221H146.724ZM146.965 2.72366H170.122V1.27634H146.965V2.72366ZM146.724 2.96489C146.724 2.83166 146.832 2.72366 146.965 2.72366V1.27634C146.032 1.27634 145.276 2.03233 145.276 2.96489H146.724Z" fill="#656565"/>
<path d="M180.992 27L178.988 23.436H177.56V27H176.168V18.168H179.06C179.516 18.168 179.936 18.212 180.32 18.3C180.712 18.388 181.052 18.532 181.34 18.732C181.628 18.932 181.852 19.196 182.012 19.524C182.172 19.844 182.252 20.244 182.252 20.724C182.252 21.42 182.084 21.972 181.748 22.38C181.412 22.788 180.964 23.08 180.404 23.256L182.564 27H180.992ZM177.56 22.32H178.892C179.54 22.32 180.032 22.188 180.368 21.924C180.704 21.66 180.872 21.26 180.872 20.724C180.872 20.188 180.704 19.816 180.368 19.608C180.032 19.392 179.54 19.284 178.892 19.284H177.56V22.32ZM186.422 27.156C186.014 27.156 185.622 27.08 185.246 26.928C184.87 26.768 184.538 26.544 184.25 26.256C183.97 25.96 183.742 25.6 183.566 25.176C183.398 24.744 183.314 24.256 183.314 23.712C183.314 23.16 183.398 22.668 183.566 22.236C183.742 21.804 183.97 21.44 184.25 21.144C184.538 20.848 184.87 20.624 185.246 20.472C185.622 20.312 186.014 20.232 186.422 20.232C186.83 20.232 187.222 20.312 187.598 20.472C187.974 20.624 188.302 20.848 188.582 21.144C188.87 21.44 189.098 21.804 189.266 22.236C189.442 22.668 189.53 23.16 189.53 23.712C189.53 24.256 189.442 24.744 189.266 25.176C189.098 25.6 188.87 25.96 188.582 26.256C188.302 26.544 187.974 26.768 187.598 26.928C187.222 27.08 186.83 27.156 186.422 27.156ZM186.422 26.028C186.686 26.028 186.922 25.972 187.13 25.86C187.338 25.748 187.514 25.592 187.658 25.392C187.802 25.192 187.914 24.948 187.994 24.66C188.074 24.372 188.114 24.056 188.114 23.712C188.114 23.008 187.962 22.444 187.658 22.02C187.362 21.588 186.95 21.372 186.422 21.372C185.894 21.372 185.482 21.588 185.186 22.02C184.89 22.444 184.742 23.008 184.742 23.712C184.742 24.056 184.782 24.372 184.862 24.66C184.942 24.948 185.054 25.192 185.198 25.392C185.342 25.592 185.518 25.748 185.726 25.86C185.934 25.972 186.166 26.028 186.422 26.028ZM193.073 27.156C192.369 27.156 191.857 26.936 191.537 26.496C191.217 26.048 191.057 25.4 191.057 24.552V20.4H192.437V24.384C192.437 24.96 192.521 25.368 192.689 25.608C192.865 25.848 193.149 25.968 193.541 25.968C193.845 25.968 194.117 25.892 194.357 25.74C194.597 25.58 194.853 25.328 195.125 24.984V20.4H196.505V27H195.377L195.269 26.004H195.233C194.929 26.364 194.605 26.648 194.261 26.856C193.925 27.056 193.529 27.156 193.073 27.156ZM198.583 20.4H199.711L199.819 21.312H199.855C200.159 21.016 200.487 20.764 200.839 20.556C201.191 20.34 201.591 20.232 202.039 20.232C202.743 20.232 203.255 20.456 203.575 20.904C203.903 21.352 204.067 22 204.067 22.848V27H202.687V23.016C202.687 22.44 202.599 22.032 202.423 21.792C202.247 21.544 201.963 21.42 201.571 21.42C201.267 21.42 200.995 21.496 200.755 21.648C200.515 21.8 200.247 22.024 199.951 22.32V27H198.583V20.4ZM208.363 27.156C207.515 27.156 206.847 26.864 206.359 26.28C205.879 25.688 205.639 24.832 205.639 23.712C205.639 23.168 205.715 22.684 205.867 22.26C206.027 21.828 206.239 21.464 206.503 21.168C206.767 20.864 207.067 20.632 207.403 20.472C207.747 20.312 208.103 20.232 208.471 20.232C208.855 20.232 209.179 20.3 209.443 20.436C209.707 20.564 209.975 20.744 210.247 20.976L210.187 19.884V17.436H211.567V27H210.439L210.319 26.256H210.283C210.035 26.512 209.747 26.728 209.419 26.904C209.099 27.072 208.747 27.156 208.363 27.156ZM208.687 26.016C209.223 26.016 209.723 25.748 210.187 25.212V21.984C209.939 21.76 209.695 21.604 209.455 21.516C209.223 21.428 208.983 21.384 208.735 21.384C208.503 21.384 208.283 21.44 208.075 21.552C207.875 21.656 207.699 21.808 207.547 22.008C207.403 22.2 207.287 22.44 207.199 22.728C207.111 23.008 207.067 23.328 207.067 23.688C207.067 24.44 207.203 25.016 207.475 25.416C207.755 25.816 208.159 26.016 208.687 26.016ZM217.561 21.372H216.145V19.884H217.561V21.372ZM217.561 26.316H216.145V24.828H217.561V26.316ZM222.821 24.288C222.845 24.512 222.913 24.728 223.025 24.936C223.145 25.144 223.289 25.324 223.457 25.476C223.625 25.628 223.817 25.752 224.033 25.848C224.249 25.936 224.469 25.98 224.693 25.98C224.917 25.98 225.129 25.944 225.329 25.872C225.537 25.8 225.717 25.7 225.869 25.572C226.029 25.436 226.153 25.276 226.241 25.092C226.337 24.9 226.385 24.688 226.385 24.456C226.385 24.12 226.321 23.852 226.193 23.652C226.073 23.452 225.913 23.3 225.713 23.196C225.513 23.092 225.285 23.024 225.029 22.992C224.773 22.96 224.509 22.944 224.237 22.944V21.984C224.485 21.984 224.729 21.964 224.969 21.924C225.209 21.884 225.421 21.812 225.605 21.708C225.789 21.596 225.937 21.448 226.049 21.264C226.169 21.08 226.229 20.84 226.229 20.544C226.229 20.112 226.101 19.776 225.845 19.536C225.597 19.288 225.253 19.164 224.813 19.164C224.589 19.164 224.373 19.208 224.165 19.296C223.965 19.376 223.793 19.488 223.649 19.632C223.505 19.776 223.393 19.948 223.313 20.148C223.241 20.348 223.213 20.568 223.229 20.808L221.921 20.58C222.033 19.788 222.349 19.168 222.869 18.72C223.389 18.264 224.061 18.036 224.885 18.036C225.221 18.036 225.545 18.084 225.857 18.18C226.177 18.276 226.457 18.42 226.697 18.612C226.945 18.804 227.141 19.044 227.285 19.332C227.437 19.612 227.513 19.94 227.513 20.316C227.513 20.828 227.397 21.252 227.165 21.588C226.933 21.924 226.561 22.172 226.049 22.332C226.577 22.484 226.985 22.732 227.273 23.076C227.561 23.412 227.705 23.86 227.705 24.42C227.705 24.844 227.625 25.224 227.465 25.56C227.305 25.888 227.089 26.168 226.817 26.4C226.545 26.632 226.225 26.808 225.857 26.928C225.497 27.048 225.113 27.108 224.705 27.108C223.889 27.108 223.237 26.92 222.749 26.544C222.261 26.168 221.897 25.576 221.657 24.768L222.821 24.288ZM234.818 27H228.818V26.232L231.806 23.232C232.014 23.024 232.21 22.816 232.394 22.608C232.578 22.4 232.75 22.172 232.91 21.924C233.062 21.652 233.174 21.356 233.246 21.036C233.318 20.716 233.322 20.42 233.258 20.148C233.202 19.868 233.062 19.636 232.838 19.452C232.622 19.26 232.302 19.164 231.878 19.164C231.638 19.164 231.418 19.208 231.218 19.296C231.018 19.376 230.846 19.488 230.702 19.632C230.558 19.776 230.45 19.948 230.378 20.148C230.306 20.348 230.278 20.568 230.294 20.808L228.974 20.568C229.086 19.768 229.402 19.148 229.922 18.708C230.45 18.26 231.126 18.036 231.95 18.036C232.326 18.036 232.678 18.092 233.006 18.204C233.334 18.308 233.618 18.468 233.858 18.684C234.106 18.892 234.302 19.152 234.446 19.464C234.59 19.776 234.662 20.132 234.662 20.532C234.662 20.868 234.61 21.18 234.506 21.468C234.402 21.756 234.262 22.032 234.086 22.296C233.918 22.552 233.726 22.796 233.51 23.028C233.294 23.26 233.074 23.488 232.85 23.712L230.594 25.992C230.778 25.944 230.966 25.904 231.158 25.872C231.358 25.84 231.554 25.824 231.746 25.824H234.818V27ZM236.446 20.4H237.574L237.682 21.12H237.718C238.006 20.88 238.322 20.672 238.666 20.496C239.018 20.32 239.378 20.232 239.746 20.232C240.17 20.232 240.542 20.312 240.862 20.472C241.19 20.632 241.462 20.86 241.678 21.156C241.902 21.444 242.07 21.796 242.182 22.212C242.302 22.628 242.362 23.088 242.362 23.592C242.362 24.152 242.282 24.656 242.122 25.104C241.97 25.544 241.762 25.916 241.498 26.22C241.234 26.524 240.93 26.756 240.586 26.916C240.25 27.076 239.894 27.156 239.518 27.156C239.222 27.156 238.926 27.092 238.63 26.964C238.342 26.836 238.058 26.652 237.778 26.412L237.814 27.54V29.676H236.446V20.4ZM239.254 26.016C239.734 26.016 240.134 25.812 240.454 25.404C240.774 24.988 240.934 24.392 240.934 23.616C240.934 22.912 240.814 22.364 240.574 21.972C240.334 21.58 239.938 21.384 239.386 21.384C239.13 21.384 238.874 21.452 238.618 21.588C238.362 21.716 238.094 21.916 237.814 22.188V25.416C238.07 25.64 238.322 25.796 238.57 25.884C238.818 25.972 239.046 26.016 239.254 26.016ZM244.996 23.556L243.016 20.4H244.504L245.296 21.732C245.384 21.916 245.48 22.1 245.584 22.284C245.696 22.468 245.808 22.652 245.92 22.836H245.968C246.048 22.676 246.128 22.516 246.208 22.356L246.28 22.212C246.36 22.052 246.44 21.892 246.52 21.732L247.216 20.4H248.656L246.676 23.712L248.8 27H247.3L246.436 25.608L246.1 25.008C245.988 24.808 245.872 24.616 245.752 24.432H245.692C245.588 24.616 245.484 24.808 245.38 25.008C245.284 25.2 245.184 25.4 245.08 25.608L244.312 27H242.86L244.996 23.556Z" fill="#656565"/>
<path d="M193.488 38.168H196.224C196.68 38.168 197.096 38.208 197.472 38.288C197.856 38.36 198.184 38.484 198.456 38.66C198.736 38.828 198.952 39.052 199.104 39.332C199.264 39.604 199.344 39.94 199.344 40.34C199.344 40.764 199.232 41.156 199.008 41.516C198.792 41.868 198.484 42.112 198.084 42.248V42.308C198.588 42.42 199.004 42.648 199.332 42.992C199.66 43.336 199.824 43.808 199.824 44.408C199.824 44.848 199.74 45.232 199.572 45.56C199.404 45.88 199.168 46.148 198.864 46.364C198.568 46.58 198.212 46.74 197.796 46.844C197.388 46.948 196.936 47 196.44 47H193.488V38.168ZM196.068 41.852C196.74 41.852 197.224 41.736 197.52 41.504C197.824 41.264 197.976 40.936 197.976 40.52C197.976 40.056 197.82 39.728 197.508 39.536C197.196 39.344 196.728 39.248 196.104 39.248H194.88V41.852H196.068ZM196.284 45.908C196.988 45.908 197.524 45.784 197.892 45.536C198.268 45.288 198.456 44.888 198.456 44.336C198.456 43.832 198.268 43.468 197.892 43.244C197.524 43.02 196.988 42.908 196.284 42.908H194.88V45.908H196.284ZM203.292 47.156C202.588 47.156 202.076 46.936 201.756 46.496C201.436 46.048 201.276 45.4 201.276 44.552V40.4H202.656V44.384C202.656 44.96 202.74 45.368 202.908 45.608C203.084 45.848 203.368 45.968 203.76 45.968C204.064 45.968 204.336 45.892 204.576 45.74C204.816 45.58 205.072 45.328 205.344 44.984V40.4H206.724V47H205.596L205.488 46.004H205.452C205.148 46.364 204.824 46.648 204.48 46.856C204.144 47.056 203.748 47.156 203.292 47.156ZM211.022 47.156C210.654 47.156 210.342 47.1 210.086 46.988C209.83 46.876 209.622 46.72 209.462 46.52C209.302 46.32 209.186 46.076 209.114 45.788C209.05 45.5 209.018 45.184 209.018 44.84V41.504H208.058V40.472L209.078 40.4L209.234 38.576H210.398V40.4H212.114V41.504H210.398V44.852C210.398 45.26 210.47 45.564 210.614 45.764C210.766 45.956 211.014 46.052 211.358 46.052C211.47 46.052 211.59 46.036 211.718 46.004C211.854 45.972 211.97 45.936 212.066 45.896L212.318 46.916C212.134 46.98 211.93 47.036 211.706 47.084C211.49 47.132 211.262 47.156 211.022 47.156ZM215.51 47.156C215.142 47.156 214.83 47.1 214.574 46.988C214.318 46.876 214.11 46.72 213.95 46.52C213.79 46.32 213.674 46.076 213.602 45.788C213.538 45.5 213.506 45.184 213.506 44.84V41.504H212.546V40.472L213.566 40.4L213.722 38.576H214.886V40.4H216.602V41.504H214.886V44.852C214.886 45.26 214.958 45.564 215.102 45.764C215.254 45.956 215.502 46.052 215.846 46.052C215.958 46.052 216.078 46.036 216.206 46.004C216.342 45.972 216.458 45.936 216.554 45.896L216.806 46.916C216.622 46.98 216.418 47.036 216.194 47.084C215.978 47.132 215.75 47.156 215.51 47.156ZM220.5 47.156C220.092 47.156 219.7 47.08 219.324 46.928C218.948 46.768 218.616 46.544 218.328 46.256C218.048 45.96 217.82 45.6 217.644 45.176C217.476 44.744 217.392 44.256 217.392 43.712C217.392 43.16 217.476 42.668 217.644 42.236C217.82 41.804 218.048 41.44 218.328 41.144C218.616 40.848 218.948 40.624 219.324 40.472C219.7 40.312 220.092 40.232 220.5 40.232C220.908 40.232 221.3 40.312 221.676 40.472C222.052 40.624 222.38 40.848 222.66 41.144C222.948 41.44 223.176 41.804 223.344 42.236C223.52 42.668 223.608 43.16 223.608 43.712C223.608 44.256 223.52 44.744 223.344 45.176C223.176 45.6 222.948 45.96 222.66 46.256C222.38 46.544 222.052 46.768 221.676 46.928C221.3 47.08 220.908 47.156 220.5 47.156ZM220.5 46.028C220.764 46.028 221 45.972 221.208 45.86C221.416 45.748 221.592 45.592 221.736 45.392C221.88 45.192 221.992 44.948 222.072 44.66C222.152 44.372 222.192 44.056 222.192 43.712C222.192 43.008 222.04 42.444 221.736 42.02C221.44 41.588 221.028 41.372 220.5 41.372C219.972 41.372 219.56 41.588 219.264 42.02C218.968 42.444 218.82 43.008 218.82 43.712C218.82 44.056 218.86 44.372 218.94 44.66C219.02 44.948 219.132 45.192 219.276 45.392C219.42 45.592 219.596 45.748 219.804 45.86C220.012 45.972 220.244 46.028 220.5 46.028ZM225.22 40.4H226.348L226.456 41.312H226.492C226.796 41.016 227.124 40.764 227.476 40.556C227.828 40.34 228.228 40.232 228.676 40.232C229.38 40.232 229.892 40.456 230.212 40.904C230.54 41.352 230.704 42 230.704 42.848V47H229.324V43.016C229.324 42.44 229.236 42.032 229.06 41.792C228.884 41.544 228.6 41.42 228.208 41.42C227.904 41.42 227.632 41.496 227.392 41.648C227.152 41.8 226.884 42.024 226.588 42.32V47H225.22V40.4Z" fill="#656565"/>
<defs>
<filter id="filter0_d_310_2232" x="9.17557" y="5.17557" width="119.649" height="54.6489" filterUnits="userSpaceOnUse" color-interpolation-filters="sRGB">
<feFlood flood-opacity="0" result="BackgroundImageFix"/>
<feColorMatrix in="SourceAlpha" type="matrix" values="0 0 0 0 0 0 0 0 0 0 0 0 0 0 0 0 0 0 127 0" result="hardAlpha"/>
<feOffset/>
<feGaussianBlur stdDeviation="2.41221"/>
<feComposite in2="hardAlpha" operator="out"/>
<feColorMatrix type="matrix" values="0 0 0 0 0 0 0 0 0 0 0 0 0 0 0 0 0 0 0.25 0"/>
<feBlend mode="normal" in2="BackgroundImageFix" result="effect1_dropShadow_310_2232"/>
<feBlend mode="normal" in="SourceGraphic" in2="effect1_dropShadow_310_2232" result="shape"/>
</filter>
<filter id="filter1_d_310_2232" x="152.176" y="5.17557" width="119.649" height="55.6489" filterUnits="userSpaceOnUse" color-interpolation-filters="sRGB">
<feFlood flood-opacity="0" result="BackgroundImageFix"/>
<feColorMatrix in="SourceAlpha" type="matrix" values="0 0 0 0 0 0 0 0 0 0 0 0 0 0 0 0 0 0 127 0" result="hardAlpha"/>
<feOffset/>
<feGaussianBlur stdDeviation="2.41221"/>
<feComposite in2="hardAlpha" operator="out"/>
<feColorMatrix type="matrix" values="0 0 0 0 0 0 0 0 0 0 0 0 0 0 0 0 0 0 0.25 0"/>
<feBlend mode="normal" in2="BackgroundImageFix" result="effect1_dropShadow_310_2232"/>
<feBlend mode="normal" in="SourceGraphic" in2="effect1_dropShadow_310_2232" result="shape"/>
</filter>
</defs>
</svg>
