<svg width="656" height="119" viewBox="0 0 656 119" fill="none" xmlns="http://www.w3.org/2000/svg">
<path d="M2.29688 23V6.03125H7.40625C10.4297 6.03125 12.4219 8.14062 12.4219 11.0703C12.4219 13.9766 10.4297 16.0859 7.40625 16.0859H3.07031V23H2.29688ZM3.07031 15.3359H7.38281C9.96094 15.3359 11.6484 13.5547 11.6484 11.0703C11.6484 8.5625 9.96094 6.75781 7.38281 6.75781H3.07031V15.3359ZM15.5859 23V10.2734H16.7344V12.2656H16.8281C17.3672 10.9531 18.7734 10.0859 20.4141 10.0859L21.0234 10.1094V11.3047C20.8828 11.2812 20.6484 11.2344 20.3438 11.2344C18.2812 11.2344 16.7578 12.6875 16.7578 14.6797V23H15.5859ZM28.3125 23.2578C24.7266 23.2578 22.4766 20.5859 22.4766 16.7188C22.4766 12.8516 24.7734 10.0859 28.0781 10.0859C30.8438 10.0859 33.5156 12.0547 33.5156 16.3672V17.1172H24.0703C24.1406 19.9883 25.7695 21.8281 28.3125 21.8281C30.0703 21.8281 31.1016 20.9141 31.5469 20.1172H33.2578C32.6953 21.875 30.8906 23.2578 28.3125 23.2578ZM24.0938 15.7344H31.875C31.875 13.3438 30.3281 11.5391 28.1016 11.5391C25.793 11.5391 24.2227 13.4375 24.0938 15.7344ZM41.7422 10.2734V11.9609H39.0703V19.3438C39.0703 20.9844 39.8672 21.2422 40.7344 21.2422C41.1094 21.2422 41.625 21.2188 41.9297 21.1953V23.0703C41.625 23.1172 41.1094 23.1641 40.5234 23.1641C38.8359 23.1641 37.0312 22.1094 37.0312 19.8594V11.9609H35.1094V10.2734H37.0312V7.22656H39.0703V10.2734H41.7422ZM49.7344 23.2578C45.9844 23.2578 43.6875 20.6797 43.6875 16.7188C43.6875 12.8047 46.0312 10.1094 49.5703 10.1094C52.4766 10.1094 55.2188 11.9141 55.2188 16.5078V17.3984H46.1719C46.2422 19.8125 47.6602 21.1953 49.7578 21.1953C51.1875 21.1953 52.1016 20.5859 52.5234 19.8125H55.0547C54.4922 21.875 52.5234 23.2578 49.7344 23.2578ZM46.1953 15.5234H52.7578C52.7578 13.5781 51.5156 12.1719 49.5938 12.1719C47.5898 12.1719 46.2891 13.7188 46.1953 15.5234ZM60.6094 15.5469V23H57.6094V10.2734H60.4688V12.4297H60.6328C61.2188 11 62.5078 10.1094 64.4062 10.1094C67.0547 10.1094 68.7891 11.8438 68.7656 14.8906V23H65.7891V15.3594C65.7891 13.6484 64.875 12.6406 63.3047 12.6406C61.7109 12.6406 60.6094 13.6953 60.6094 15.5469ZM76.3594 23.2344C73.3594 23.2344 71.1094 20.8438 71.1094 16.6484C71.1094 12.4062 73.4297 10.1094 76.3828 10.1094C78.6328 10.1094 79.5703 11.4453 80.0156 12.3594H80.1328V6.03125H83.1094V23H80.1797V20.9844H80.0156C79.5469 21.9219 78.5625 23.2344 76.3594 23.2344ZM77.1797 20.7734C79.1016 20.7734 80.2031 19.1094 80.2031 16.625C80.2031 14.1641 79.125 12.5469 77.1797 12.5469C75.1875 12.5469 74.1562 14.2578 74.1562 16.625C74.1562 19.0391 75.2109 20.7734 77.1797 20.7734ZM85.4531 19.4375C85.4531 16.6016 87.75 15.6641 90.1875 15.5234C91.1016 15.4648 92.8125 15.3828 93.3516 15.3594V14.3281C93.3281 13.2734 92.6016 12.6406 91.3125 12.6406C90.1406 12.6406 89.3906 13.1797 89.2031 14.0469H85.8984C86.1094 11.8438 88.0312 10.1094 91.4062 10.1094C94.1719 10.1094 96.7969 11.3516 96.7969 14.4219V23H93.5156V21.2422H93.4219C92.7891 22.4141 91.5938 23.2344 89.6953 23.2344C87.2578 23.2344 85.4531 21.9688 85.4531 19.4375ZM88.7812 19.3438C88.7812 20.3281 89.5781 20.8438 90.6797 20.8438C92.25 20.8438 93.375 19.7891 93.3516 18.4531V17.5156C92.8242 17.5391 91.3477 17.6211 90.75 17.6797C89.5547 17.7969 88.7812 18.3594 88.7812 19.3438ZM99.3516 23V10.2734H103.195V12.5703H103.312C103.781 10.9062 104.906 10.0859 106.312 10.0859C106.688 10.0859 107.109 10.1562 107.438 10.2266V13.6719C107.062 13.5547 106.359 13.4844 105.867 13.4844C104.391 13.4844 103.312 14.5156 103.312 16.0391V23H99.3516ZM113.578 23.1641C110.836 23.1641 108.539 21.0312 108.539 16.6484C108.539 12.0547 110.977 10.1094 113.531 10.1094C115.453 10.1094 116.625 11.2109 117.117 12.4766H117.188V6.03125H121.617V23H117.234V20.9141H117.117C116.602 22.1797 115.406 23.1641 113.578 23.1641ZM115.172 19.7656C116.508 19.7656 117.305 18.5469 117.305 16.625C117.305 14.7031 116.508 13.5312 115.172 13.5312C113.859 13.5312 113.109 14.7031 113.109 16.625C113.109 18.5703 113.859 19.7656 115.172 19.7656Z" fill="black"/>
<path d="M157.688 21.0781V21.7812H139.031V21.0781H157.688ZM155.695 6.61719V7.32031H152.109V15.3828H155.695V16.0625H140.883V15.3828H144.516V7.32031H140.883V6.61719H155.695ZM145.242 15.3828H151.359V7.32031H145.242V15.3828ZM176.648 4.15625V24.8516H175.195V4.15625H176.648ZM162.586 18.5234C165.984 18.5234 169.148 18.3828 173.016 17.75L173.156 19.0156C169.242 19.625 166.078 19.7891 162.586 19.7891H160.875V12.0547H168.914V7.39062H160.852V6.125H170.391V13.2969H162.398V18.5234H162.586ZM198.164 4.01562V19.7188H196.055V4.01562H198.164ZM194.039 4.41406V19.2031H191.93V11.6797H189.328V9.875H191.93V4.41406H194.039ZM198.773 22.7422V24.5469H184.336V17.9844H186.586V22.7422H198.773ZM189.188 5.67969V7.48438H183.328V10.1094H188.367V11.8438H183.328V14.5859C186.094 14.5742 187.934 14.5039 190.078 14.0703L190.289 15.8516C187.875 16.3203 185.883 16.4141 182.555 16.4141H181.195V5.67969H189.188ZM217.688 3.82812V11.75H220.828V14.1875H217.688V25.2031H214.688V3.82812H217.688ZM211.711 5.79688V8.21094H204.68V17.5625C207.773 17.5273 210.328 17.3867 213.164 16.8828L213.492 19.3906C210.188 19.9531 207.281 20.0469 203.508 20.0234H201.703V5.79688H211.711ZM239.227 13.4375V16.4141H223.664V5.32812H239.086V8.35156H227.367V13.4375H239.227ZM241.266 19.8359V22.9062H221.461V19.8359H241.266Z" fill="black"/>
<path d="M4.48252 88V70.4042H8.12806V77.6953H15.7594V70.4042H19.4292V88H15.7594V80.7089H8.12806V88H4.48252ZM28.3001 88.2673C24.2657 88.2673 21.7867 85.6425 21.7867 81.4623C21.7867 77.3793 24.29 74.633 28.1542 74.633C31.6297 74.633 34.3517 76.8203 34.3517 81.3165V82.3373H25.335C25.335 84.3302 26.5259 85.5696 28.373 85.5696C29.5882 85.5696 30.4631 85.035 30.8276 84.2329H34.2544C33.7441 86.6633 31.5567 88.2673 28.3001 88.2673ZM25.335 80.077H30.9492C30.9492 78.473 29.8312 77.3307 28.2271 77.3307C26.5745 77.3307 25.3958 78.558 25.335 80.077ZM35.98 84.3059C35.98 81.3651 38.3618 80.393 40.8893 80.2471C41.8372 80.1864 43.6113 80.1013 44.1703 80.077V79.0077C44.146 77.914 43.3926 77.2578 42.0559 77.2578C40.8407 77.2578 40.063 77.8168 39.8686 78.716H36.4418C36.6605 76.4315 38.6534 74.633 42.1531 74.633C45.0209 74.633 47.7429 75.9211 47.7429 79.1049V88H44.3404V86.1772H44.2432C43.587 87.3924 42.3475 88.243 40.379 88.243C37.8514 88.243 35.98 86.9306 35.98 84.3059ZM39.4311 84.2086C39.4311 85.2294 40.2574 85.7641 41.3997 85.7641C43.028 85.7641 44.1946 84.6704 44.1703 83.2851V82.313C43.6235 82.3373 42.0924 82.4223 41.4726 82.4831C40.2331 82.6046 39.4311 83.1879 39.4311 84.2086ZM55.35 88.2187C52.3363 88.2187 49.9789 85.8127 49.9789 81.4137C49.9789 76.8932 52.4335 74.633 55.35 74.633C57.5616 74.633 58.6067 75.9454 59.0927 77.0148H59.2143V70.4042H62.8112V88H59.2629V85.8856H59.0927C58.5824 86.9792 57.4887 88.2187 55.35 88.2187ZM56.4679 85.3509C58.2664 85.3509 59.2872 83.7712 59.2872 81.3894C59.2872 79.0077 58.2664 77.5008 56.4679 77.5008C54.6452 77.5008 53.673 79.0806 53.673 81.3894C53.673 83.7226 54.6452 85.3509 56.4679 85.3509ZM69.3003 70.4042V88H65.7033V70.4042H69.3003ZM72.0952 88V74.8031H75.6921V88H72.0952ZM73.8936 73.0776C72.8 73.0776 71.925 72.2513 71.925 71.2548C71.925 70.2341 72.8 69.4077 73.8936 69.4077C74.963 69.4077 75.8379 70.2341 75.8379 71.2548C75.8379 72.2513 74.963 73.0776 73.8936 73.0776ZM82.084 80.3687V88H78.487V74.8031H81.9138V77.112H82.0596C82.6672 75.5809 84.0768 74.633 86.0211 74.633C88.7674 74.633 90.5902 76.5044 90.5659 79.591V88H86.9933V80.2228C86.9933 78.5945 86.094 77.6224 84.6115 77.6224C83.1047 77.6224 82.084 78.6188 82.084 80.3687ZM99.3395 88.2673C95.3051 88.2673 92.8261 85.6425 92.8261 81.4623C92.8261 77.3793 95.3294 74.633 99.1937 74.633C102.669 74.633 105.391 76.8203 105.391 81.3165V82.3373H96.3745C96.3745 84.3302 97.5654 85.5696 99.4124 85.5696C100.628 85.5696 101.503 85.035 101.867 84.2329H105.294C104.784 86.6633 102.596 88.2673 99.3395 88.2673ZM96.3745 80.077H101.989C101.989 78.473 100.871 77.3307 99.2666 77.3307C97.614 77.3307 96.4352 78.558 96.3745 80.077ZM120.945 70.4042V88H117.276V73.8796H117.178L113.144 76.4072V73.1748L117.494 70.4042H120.945Z" fill="#37313C"/>
<path d="M3.7478 117V110.232H4.58908V113.242H8.16919V110.232H9.01982V117H8.16919V113.981H4.58908V117H3.7478ZM12.7869 110.232V117H11.9363V111.111H11.8989L10.2537 112.205V111.354L11.9363 110.232H12.7869ZM16.9933 117L16.9839 116.383L19.2928 113.953C20.0967 113.102 20.4799 112.644 20.4799 112.018C20.4799 111.326 19.891 110.868 19.1339 110.868C18.33 110.868 17.8159 111.382 17.8159 112.139H17.0213C17.012 110.943 17.9374 110.139 19.1619 110.139C20.3864 110.139 21.2651 110.961 21.2651 112.018C21.2651 112.775 20.9099 113.364 19.7134 114.598L18.1617 116.196V116.252H21.3866V117H16.9933ZM22.2933 115.617V114.925L25.3406 110.232H26.3782V114.878H27.3223V115.617H26.3782V117H25.5743V115.617H22.2933ZM23.2 114.878H25.5743V111.298H25.4902L23.2 114.822V114.878ZM30.8557 109.915L28.6684 118.019H27.9392L30.1172 109.915H30.8557ZM33.9684 117.093C32.6224 117.093 31.6596 116.374 31.6128 115.299H32.4635C32.5102 115.944 33.1552 116.346 33.9591 116.346C34.8471 116.346 35.5014 115.86 35.5014 115.159C35.5014 114.42 34.9125 113.897 33.8562 113.897H33.3047V113.158H33.8562C34.6788 113.158 35.249 112.7 35.249 111.999C35.249 111.326 34.7536 110.868 33.9871 110.868C33.2673 110.868 32.6037 111.27 32.5663 111.934H31.753C31.7998 110.859 32.7906 110.139 33.9965 110.139C35.2864 110.139 36.0716 110.98 36.0623 111.952C36.0716 112.719 35.6229 113.289 34.9125 113.485V113.532C35.7912 113.672 36.3333 114.299 36.324 115.159C36.3333 116.271 35.3145 117.093 33.9684 117.093ZM37.3709 115.617V114.925L40.4182 110.232H41.4558V114.878H42.3999V115.617H41.4558V117H40.6519V115.617H37.3709ZM38.2776 114.878H40.6519V111.298H40.5678L38.2776 114.822V114.878ZM43.5216 118.907V111.924H44.2974V112.728H44.3909C44.5592 112.457 44.877 111.859 45.8585 111.859C47.1297 111.859 48.0178 112.868 48.0178 114.476C48.0178 116.084 47.1297 117.103 45.8678 117.103C44.8957 117.103 44.5592 116.505 44.3909 116.224H44.3255V118.907H43.5216ZM44.3068 114.457C44.3068 115.598 44.8209 116.383 45.7557 116.383C46.7185 116.383 47.2139 115.542 47.2139 114.457C47.2139 113.401 46.7278 112.579 45.7557 112.579C44.8022 112.579 44.3068 113.336 44.3068 114.457ZM49.4573 111.924L50.6538 113.99L51.8596 111.924H52.785L51.1492 114.457L52.785 117H51.869L50.6538 115.037L49.4573 117H48.5319L50.1303 114.457L48.5319 111.924H49.4573Z" fill="#9A9A9A" fill-opacity="0.9"/>
<path d="M145.944 92.5V74.9042H148.132V82.7299H157.44V74.9042H159.652V92.5H157.44V84.6499H148.132V92.5H145.944ZM168.79 92.7673C164.974 92.7673 162.617 90.0696 162.617 86.0109C162.617 81.9522 164.998 79.133 168.595 79.133C171.366 79.133 174.282 80.8343 174.282 85.7193V86.5942H164.707C164.804 89.3891 166.432 90.9203 168.79 90.9203C170.369 90.9203 171.366 90.2398 171.852 89.4134H174.088C173.456 91.4063 171.512 92.7673 168.79 92.7673ZM164.731 84.8201H172.168C172.168 82.6084 170.758 80.9801 168.595 80.9801C166.311 80.9801 164.852 82.7786 164.731 84.8201ZM176.372 88.7572C176.372 85.7193 179.046 85.0388 181.33 84.8687C182.169 84.8079 184.308 84.6985 184.903 84.6742V83.6049C184.903 81.9279 183.907 80.9558 181.914 80.9558C180.237 80.9558 179.24 81.7335 178.949 82.7299H176.761C177.029 80.6155 179.094 79.133 182.011 79.133C183.736 79.133 186.969 79.6434 186.969 83.7993V92.5H184.903V90.7015H184.806C184.368 91.6008 183.153 92.8159 180.869 92.8159C178.365 92.8159 176.372 91.3334 176.372 88.7572ZM178.463 88.8545C178.463 90.2398 179.629 90.9446 181.233 90.9446C183.591 90.9446 184.903 89.3648 184.903 87.7122V86.3755L181.573 86.6185C179.678 86.74 178.463 87.4205 178.463 88.8545ZM195.305 92.7673C192.024 92.7673 189.691 90.1182 189.691 85.938C189.691 81.7578 192.024 79.133 195.329 79.133C197.881 79.133 198.707 80.6884 199.145 81.3932H199.291V74.9042H201.405V92.5H199.364V90.4828H199.145C198.683 91.2119 197.832 92.7673 195.305 92.7673ZM195.597 90.896C198.003 90.896 199.364 88.8545 199.364 85.8894C199.364 82.973 198.051 81.0044 195.597 81.0044C193.069 81.0044 191.805 83.1431 191.805 85.8894C191.805 88.7086 193.093 90.896 195.597 90.896ZM207.116 74.9042V92.5H205.026V74.9042H207.116ZM210.446 92.5V79.3031H212.536V92.5H210.446ZM211.491 77.1158C210.689 77.1158 210.033 76.5082 210.033 75.7305C210.033 74.9528 210.689 74.3452 211.491 74.3452C212.293 74.3452 212.974 74.9528 212.974 75.7305C212.974 76.5082 212.293 77.1158 211.491 77.1158ZM217.956 84.577V92.5H215.866V79.3031H217.883V81.3689H218.053C218.685 80.0322 219.9 79.133 221.917 79.133C224.591 79.133 226.365 80.7614 226.365 84.1153V92.5H224.275V84.2611C224.275 82.2196 223.157 81.0044 221.285 81.0044C219.365 81.0044 217.956 82.2925 217.956 84.577ZM235.26 92.7673C231.444 92.7673 229.087 90.0696 229.087 86.0109C229.087 81.9522 231.469 79.133 235.066 79.133C237.836 79.133 240.753 80.8343 240.753 85.7193V86.5942H231.177C231.274 89.3891 232.903 90.9203 235.26 90.9203C236.84 90.9203 237.836 90.2398 238.322 89.4134H240.558C239.926 91.4063 237.982 92.7673 235.26 92.7673ZM231.201 84.8201H238.638C238.638 82.6084 237.229 80.9801 235.066 80.9801C232.781 80.9801 231.323 82.7786 231.201 84.8201ZM255.942 92.5L255.918 90.896L261.921 84.577C264.011 82.3654 265.008 81.1745 265.008 79.5462C265.008 77.7477 263.477 76.5568 261.508 76.5568C259.418 76.5568 258.081 77.8935 258.081 79.8621H256.015C255.991 76.7513 258.397 74.6611 261.581 74.6611C264.765 74.6611 267.049 76.7999 267.049 79.5462C267.049 81.5148 266.126 83.0459 263.015 86.254L258.98 90.4099V90.5557H267.365V92.5H255.942Z" fill="#37313C"/>
<path d="M144.748 112.5V105.732H145.589V108.742H149.169V105.732H150.02V112.5H149.169V109.481H145.589V112.5H144.748ZM151.394 112.5L151.385 111.883L153.693 109.453C154.497 108.602 154.881 108.144 154.881 107.518C154.881 106.826 154.292 106.368 153.534 106.368C152.731 106.368 152.216 106.882 152.216 107.639H151.422C151.413 106.443 152.338 105.639 153.563 105.639C154.787 105.639 155.666 106.461 155.666 107.518C155.666 108.275 155.311 108.864 154.114 110.098L152.562 111.696V111.752H155.787V112.5H151.394ZM159.414 112.5L159.405 111.883L161.714 109.453C162.517 108.602 162.901 108.144 162.901 107.518C162.901 106.826 162.312 106.368 161.555 106.368C160.751 106.368 160.237 106.882 160.237 107.639H159.442C159.433 106.443 160.358 105.639 161.583 105.639C162.807 105.639 163.686 106.461 163.686 107.518C163.686 108.275 163.331 108.864 162.134 110.098L160.583 111.696V111.752H163.807V112.5H159.414ZM167.247 112.593C165.742 112.593 164.882 111.332 164.882 109.116C164.882 106.92 165.761 105.639 167.247 105.639C168.734 105.639 169.612 106.92 169.612 109.116C169.612 111.332 168.743 112.593 167.247 112.593ZM167.247 111.846C168.219 111.846 168.79 110.864 168.79 109.116C168.79 107.368 168.219 106.368 167.247 106.368C166.275 106.368 165.696 107.368 165.696 109.116C165.696 110.864 166.266 111.846 167.247 111.846ZM170.743 114.407V107.424H171.519V108.228H171.613C171.781 107.957 172.099 107.359 173.08 107.359C174.351 107.359 175.239 108.368 175.239 109.976C175.239 111.584 174.351 112.603 173.09 112.603C172.117 112.603 171.781 112.005 171.613 111.724H171.547V114.407H170.743ZM171.529 109.957C171.529 111.098 172.043 111.883 172.977 111.883C173.94 111.883 174.436 111.042 174.436 109.957C174.436 108.901 173.95 108.079 172.977 108.079C172.024 108.079 171.529 108.836 171.529 109.957ZM176.679 107.424L177.875 109.49L179.081 107.424H180.007L178.371 109.957L180.007 112.5H179.091L177.875 110.537L176.679 112.5H175.754L177.352 109.957L175.754 107.424H176.679Z" fill="#9A9A9A" fill-opacity="0.9"/>
<path d="M290.496 89.5V75.9648H292.178V81.9846H299.338V75.9648H301.04V89.5H299.338V83.4615H292.178V89.5H290.496ZM308.069 89.7056C305.134 89.7056 303.32 87.6305 303.32 84.5084C303.32 81.3863 305.153 79.2177 307.919 79.2177C310.051 79.2177 312.294 80.5264 312.294 84.2841V84.9571H304.928C305.003 87.107 306.256 88.2848 308.069 88.2848C309.284 88.2848 310.051 87.7614 310.425 87.1257H312.145C311.658 88.6587 310.163 89.7056 308.069 89.7056ZM304.947 83.5924H310.668C310.668 81.8911 309.583 80.6385 307.919 80.6385C306.162 80.6385 305.04 82.022 304.947 83.5924ZM313.902 86.621C313.902 84.2841 315.958 83.7606 317.716 83.6297C318.361 83.583 320.006 83.4989 320.464 83.4802V82.6576C320.464 81.3676 319.697 80.6198 318.164 80.6198C316.874 80.6198 316.108 81.2181 315.884 81.9846H314.201C314.407 80.3581 315.996 79.2177 318.239 79.2177C319.566 79.2177 322.053 79.6103 322.053 82.8072V89.5H320.464V88.1166H320.389C320.053 88.8083 319.118 89.743 317.36 89.743C315.435 89.743 313.902 88.6026 313.902 86.621ZM315.51 86.6957C315.51 87.7614 316.407 88.3035 317.641 88.3035C319.454 88.3035 320.464 87.0883 320.464 85.8171V84.7888L317.903 84.9758C316.444 85.0693 315.51 85.5927 315.51 86.6957ZM328.465 89.7056C325.941 89.7056 324.147 87.6679 324.147 84.4523C324.147 81.2368 325.941 79.2177 328.484 79.2177C330.447 79.2177 331.083 80.4142 331.419 80.9563H331.531V75.9648H333.158V89.5H331.587V87.9483H331.419C331.064 88.5092 330.41 89.7056 328.465 89.7056ZM328.69 88.2661C330.54 88.2661 331.587 86.6957 331.587 84.4149C331.587 82.1715 330.578 80.6572 328.69 80.6572C326.745 80.6572 325.773 82.3024 325.773 84.4149C325.773 86.5836 326.764 88.2661 328.69 88.2661ZM337.551 75.9648V89.5H335.943V75.9648H337.551ZM340.112 89.5V79.3486H341.72V89.5H340.112ZM340.916 77.666C340.299 77.666 339.795 77.1986 339.795 76.6004C339.795 76.0021 340.299 75.5348 340.916 75.5348C341.533 75.5348 342.057 76.0021 342.057 76.6004C342.057 77.1986 341.533 77.666 340.916 77.666ZM345.889 83.4054V89.5H344.281V79.3486H345.833V80.9377H345.964C346.45 79.9094 347.385 79.2177 348.936 79.2177C350.993 79.2177 352.358 80.4703 352.358 83.0502V89.5H350.75V83.1624C350.75 81.592 349.89 80.6572 348.45 80.6572C346.973 80.6572 345.889 81.6481 345.889 83.4054ZM359.2 89.7056C356.265 89.7056 354.451 87.6305 354.451 84.5084C354.451 81.3863 356.284 79.2177 359.05 79.2177C361.182 79.2177 363.425 80.5264 363.425 84.2841V84.9571H356.059C356.134 87.107 357.387 88.2848 359.2 88.2848C360.415 88.2848 361.182 87.7614 361.556 87.1257H363.276C362.79 88.6587 361.294 89.7056 359.2 89.7056ZM356.078 83.5924H361.799C361.799 81.8911 360.714 80.6385 359.05 80.6385C357.293 80.6385 356.171 82.022 356.078 83.5924ZM374.979 89.687C372.287 89.687 370.361 88.2474 370.268 86.0975H371.969C372.062 87.3875 373.352 88.1913 374.96 88.1913C376.736 88.1913 378.045 87.2192 378.045 85.8171C378.045 84.3402 376.867 83.2932 374.754 83.2932H373.651V81.8163H374.754C376.4 81.8163 377.54 80.9003 377.54 79.4981C377.54 78.1521 376.549 77.236 375.016 77.236C373.577 77.236 372.249 78.0399 372.174 79.3673H370.548C370.641 77.2173 372.623 75.7778 375.035 75.7778C377.615 75.7778 379.185 77.4604 379.166 79.4047C379.185 80.9377 378.288 82.0781 376.867 82.4706V82.5641C378.624 82.8445 379.709 84.0971 379.69 85.8171C379.709 88.0418 377.671 89.687 374.979 89.687Z" fill="#37313C"/>
<path d="M289.748 109.5V102.732H290.589V105.742H294.169V102.732H295.02V109.5H294.169V106.481H290.589V109.5H289.748ZM298.731 109.593C297.385 109.593 296.422 108.874 296.375 107.799H297.226C297.273 108.444 297.918 108.846 298.721 108.846C299.609 108.846 300.264 108.36 300.264 107.659C300.264 106.92 299.675 106.397 298.619 106.397H298.067V105.658H298.619C299.441 105.658 300.011 105.2 300.011 104.499C300.011 103.826 299.516 103.368 298.749 103.368C298.03 103.368 297.366 103.77 297.329 104.434H296.515C296.562 103.359 297.553 102.639 298.759 102.639C300.049 102.639 300.834 103.48 300.825 104.452C300.834 105.219 300.385 105.789 299.675 105.985V106.032C300.554 106.172 301.096 106.799 301.086 107.659C301.096 108.771 300.077 109.593 298.731 109.593ZM307.097 102.732V109.5H306.246V103.611H306.209L304.564 104.705V103.854L306.246 102.732H307.097ZM311.163 109.593C309.742 109.593 308.751 108.808 308.761 107.705C308.751 106.827 309.359 106.107 310.135 105.985V105.948C309.462 105.789 309.022 105.172 309.022 104.434C309.022 103.396 309.929 102.639 311.163 102.639C312.397 102.639 313.304 103.396 313.313 104.434C313.304 105.172 312.855 105.789 312.191 105.948V105.985C312.958 106.107 313.565 106.827 313.575 107.705C313.565 108.808 312.575 109.593 311.163 109.593ZM311.163 108.855C312.135 108.855 312.733 108.369 312.733 107.659C312.733 106.911 312.07 106.359 311.163 106.359C310.256 106.359 309.583 106.911 309.602 107.659C309.583 108.369 310.191 108.855 311.163 108.855ZM311.163 105.649C311.93 105.649 312.49 105.181 312.49 104.499C312.49 103.826 311.958 103.368 311.163 103.368C310.359 103.368 309.836 103.826 309.836 104.499C309.836 105.181 310.387 105.649 311.163 105.649ZM314.715 111.407V104.424H315.491V105.228H315.584C315.753 104.957 316.07 104.359 317.052 104.359C318.323 104.359 319.211 105.368 319.211 106.976C319.211 108.584 318.323 109.603 317.061 109.603C316.089 109.603 315.753 109.005 315.584 108.724H315.519V111.407H314.715ZM315.5 106.957C315.5 108.098 316.014 108.883 316.949 108.883C317.912 108.883 318.407 108.042 318.407 106.957C318.407 105.901 317.921 105.079 316.949 105.079C315.996 105.079 315.5 105.836 315.5 106.957ZM320.651 104.424L321.847 106.49L323.053 104.424H323.979L322.343 106.957L323.979 109.5H323.062L321.847 107.537L320.651 109.5H319.725L321.324 106.957L319.725 104.424H320.651Z" fill="#9A9A9A" fill-opacity="0.9"/>
<path d="M402.346 92.5V80.3183H403.86V85.7361H410.305V80.3183H411.836V92.5H410.305V87.0653H403.86V92.5H402.346ZM418.162 92.6851C415.52 92.6851 413.888 90.8174 413.888 88.0076C413.888 85.1977 415.537 83.2459 418.027 83.2459C419.946 83.2459 421.965 84.4237 421.965 87.8057V88.4114H415.335C415.403 90.3463 416.53 91.4063 418.162 91.4063C419.256 91.4063 419.946 90.9352 420.282 90.3632H421.83C421.393 91.7428 420.047 92.6851 418.162 92.6851ZM415.352 87.1831H420.501C420.501 85.652 419.525 84.5247 418.027 84.5247C416.446 84.5247 415.436 85.7698 415.352 87.1831ZM423.412 89.9089C423.412 87.8057 425.262 87.3345 426.844 87.2168C427.425 87.1747 428.905 87.099 429.317 87.0822V86.3418C429.317 85.1809 428.628 84.5079 427.248 84.5079C426.087 84.5079 425.397 85.0463 425.195 85.7361H423.681C423.866 84.2723 425.296 83.2459 427.315 83.2459C428.51 83.2459 430.748 83.5993 430.748 86.4764V92.5H429.317V91.2549H429.25C428.947 91.8775 428.106 92.7187 426.524 92.7187C424.791 92.7187 423.412 91.6924 423.412 89.9089ZM424.859 89.9762C424.859 90.9352 425.666 91.4232 426.777 91.4232C428.409 91.4232 429.317 90.3295 429.317 89.1854V88.26L427.012 88.4282C425.7 88.5123 424.859 88.9835 424.859 89.9762ZM436.519 92.6851C434.247 92.6851 432.632 90.8511 432.632 87.9571C432.632 85.0631 434.247 83.2459 436.536 83.2459C438.302 83.2459 438.874 84.3228 439.177 84.8107H439.278V80.3183H440.742V92.5H439.329V91.1035H439.177C438.858 91.6082 438.269 92.6851 436.519 92.6851ZM436.721 91.3895C438.386 91.3895 439.329 89.9762 439.329 87.9234C439.329 85.9044 438.42 84.5415 436.721 84.5415C434.971 84.5415 434.096 86.0222 434.096 87.9234C434.096 89.8752 434.988 91.3895 436.721 91.3895ZM444.696 80.3183V92.5H443.249V80.3183H444.696ZM447.001 92.5V83.3637H448.448V92.5H447.001ZM447.725 81.8494C447.169 81.8494 446.715 81.4288 446.715 80.8904C446.715 80.3519 447.169 79.9313 447.725 79.9313C448.28 79.9313 448.751 80.3519 448.751 80.8904C448.751 81.4288 448.28 81.8494 447.725 81.8494ZM452.2 87.0149V92.5H450.753V83.3637H452.15V84.7939H452.268C452.705 83.8685 453.546 83.2459 454.943 83.2459C456.794 83.2459 458.022 84.3732 458.022 86.6952V92.5H456.575V86.7961C456.575 85.3828 455.801 84.5415 454.505 84.5415C453.176 84.5415 452.2 85.4333 452.2 87.0149ZM464.18 92.6851C461.538 92.6851 459.906 90.8174 459.906 88.0076C459.906 85.1977 461.555 83.2459 464.045 83.2459C465.964 83.2459 467.983 84.4237 467.983 87.8057V88.4114H461.353C461.421 90.3463 462.548 91.4063 464.18 91.4063C465.274 91.4063 465.964 90.9352 466.3 90.3632H467.848C467.411 91.7428 466.065 92.6851 464.18 92.6851ZM461.37 87.1831H466.519C466.519 85.652 465.543 84.5247 464.045 84.5247C462.464 84.5247 461.454 85.7698 461.37 87.1831ZM473.872 90.0098V88.7647L479.357 80.3183H481.224V88.6806H482.924V90.0098H481.224V92.5H479.777V90.0098H473.872ZM475.504 88.6806H479.777V82.2364H479.626L475.504 88.5796V88.6806Z" fill="#37313C"/>
<path d="M401.748 105.5V98.7324H402.589V101.742H406.169V98.7324H407.02V105.5H406.169V102.481H402.589V105.5H401.748ZM408.226 104.117V103.425L411.273 98.7324H412.311V103.378H413.255V104.117H412.311V105.5H411.507V104.117H408.226ZM409.132 103.378H411.507V99.798H411.423L409.132 103.322V103.378ZM419.162 98.7324V105.5H418.312V99.611H418.274L416.629 100.705V99.8541L418.312 98.7324H419.162ZM423.322 105.593C422.144 105.575 420.854 104.883 420.854 102.378C420.854 99.9849 421.836 98.6389 423.425 98.6389C424.612 98.6389 425.444 99.368 425.621 100.434H424.789C424.631 99.8354 424.182 99.3867 423.425 99.3867C422.312 99.3867 421.649 100.34 421.649 101.967H421.733C422.125 101.406 422.742 101.069 423.471 101.069C424.677 101.069 425.678 102.004 425.678 103.313C425.678 104.584 424.743 105.603 423.322 105.593ZM423.322 104.855C424.201 104.855 424.855 104.163 424.864 103.322C424.855 102.49 424.229 101.808 423.341 101.808C422.453 101.808 421.77 102.527 421.761 103.331C421.761 104.126 422.415 104.855 423.322 104.855ZM426.846 107.407V100.424H427.622V101.228H427.715C427.884 100.957 428.201 100.359 429.183 100.359C430.454 100.359 431.342 101.368 431.342 102.976C431.342 104.584 430.454 105.603 429.192 105.603C428.22 105.603 427.884 105.005 427.715 104.724H427.65V107.407H426.846ZM427.631 102.957C427.631 104.098 428.145 104.883 429.08 104.883C430.043 104.883 430.538 104.042 430.538 102.957C430.538 101.901 430.052 101.079 429.08 101.079C428.127 101.079 427.631 101.836 427.631 102.957ZM432.782 100.424L433.978 102.49L435.184 100.424H436.109L434.474 102.957L436.109 105.5H435.193L433.978 103.537L432.782 105.5H431.856L433.455 102.957L431.856 100.424H432.782Z" fill="#9A9A9A" fill-opacity="0.9"/>
<path d="M505.196 84.5V73.6718H508.995C511.269 73.6718 512.331 74.9431 512.331 76.5434C512.331 77.9343 511.508 78.5624 510.566 78.8167V78.9214C511.568 78.9812 512.764 79.9085 512.764 81.6284C512.764 83.2586 511.687 84.5 509.13 84.5H505.196ZM509.115 83.3035C510.805 83.3035 511.463 82.5557 511.463 81.6135C511.463 80.5067 510.581 79.5795 509.19 79.5795H506.543V83.3035H509.115ZM508.95 78.4129C510.117 78.4129 511.044 77.695 511.044 76.5583C511.044 75.6161 510.416 74.8683 508.995 74.8683H506.543V78.4129H508.95ZM517.834 84.6645C515.621 84.6645 514.125 83.0044 514.125 80.4768C514.125 77.9492 515.621 76.2742 517.834 76.2742C520.033 76.2742 521.514 77.9492 521.514 80.4768C521.514 83.0044 520.033 84.6645 517.834 84.6645ZM517.834 83.5279C519.465 83.5279 520.227 82.0921 520.227 80.4768C520.227 78.8616 519.465 77.4108 517.834 77.4108C516.174 77.4108 515.411 78.8616 515.411 80.4768C515.411 82.0921 516.174 83.5279 517.834 83.5279ZM526.27 84.6645C524.251 84.6645 522.815 83.0343 522.815 80.4619C522.815 77.8894 524.251 76.2742 526.285 76.2742C527.855 76.2742 528.363 77.2314 528.633 77.6651H528.722V73.6718H530.024V84.5H528.767V83.2586H528.633C528.348 83.7073 527.825 84.6645 526.27 84.6645ZM526.449 83.5129C527.93 83.5129 528.767 82.2566 528.767 80.4319C528.767 78.6372 527.96 77.4258 526.449 77.4258C524.894 77.4258 524.116 78.7419 524.116 80.4319C524.116 82.1669 524.909 83.5129 526.449 83.5129ZM533.075 87.551C532.79 87.551 532.521 87.5361 532.357 87.5211V86.3695C532.491 86.3845 532.79 86.3994 532.985 86.3994C533.508 86.3994 533.942 86.3546 534.376 85.173L534.615 84.5598L531.609 76.3789H533.015L535.228 82.8249H535.318L537.532 76.3789H538.937L535.497 85.6666C535.019 86.9378 534.226 87.551 533.075 87.551Z" fill="#37313C"/>
<path d="M504.748 110.5V103.732H507.122C508.543 103.732 509.207 104.527 509.207 105.527C509.207 106.396 508.692 106.789 508.104 106.948V107.013C508.73 107.051 509.478 107.63 509.478 108.705C509.478 109.724 508.805 110.5 507.206 110.5H504.748ZM507.197 109.752C508.253 109.752 508.664 109.285 508.664 108.696C508.664 108.004 508.113 107.425 507.244 107.425H505.589V109.752H507.197ZM507.094 106.696C507.823 106.696 508.403 106.247 508.403 105.536C508.403 104.948 508.01 104.48 507.122 104.48H505.589V106.696H507.094ZM515.357 103.732V110.5H514.507V104.611H514.469L512.824 105.705V104.854L514.507 103.732H515.357ZM519.517 110.593C518.339 110.575 517.049 109.883 517.049 107.378C517.049 104.985 518.031 103.639 519.62 103.639C520.807 103.639 521.639 104.368 521.816 105.434H520.984C520.826 104.835 520.377 104.387 519.62 104.387C518.507 104.387 517.844 105.34 517.844 106.967H517.928C518.32 106.406 518.937 106.069 519.666 106.069C520.872 106.069 521.873 107.004 521.873 108.313C521.873 109.584 520.938 110.603 519.517 110.593ZM519.517 109.855C520.396 109.855 521.05 109.163 521.059 108.322C521.05 107.49 520.424 106.808 519.536 106.808C518.648 106.808 517.965 107.527 517.956 108.331C517.956 109.126 518.61 109.855 519.517 109.855ZM523.041 112.407V105.424H523.817V106.228H523.91C524.079 105.957 524.396 105.359 525.378 105.359C526.649 105.359 527.537 106.368 527.537 107.976C527.537 109.584 526.649 110.603 525.387 110.603C524.415 110.603 524.079 110.005 523.91 109.724H523.845V112.407H523.041ZM523.826 107.957C523.826 109.098 524.34 109.883 525.275 109.883C526.238 109.883 526.733 109.042 526.733 107.957C526.733 106.901 526.247 106.079 525.275 106.079C524.322 106.079 523.826 106.836 523.826 107.957ZM528.977 105.424L530.173 107.49L531.379 105.424H532.304L530.669 107.957L532.304 110.5H531.388L530.173 108.537L528.977 110.5H528.051L529.65 107.957L528.051 105.424H528.977Z" fill="#9A9A9A" fill-opacity="0.9"/>
<path d="M556.047 86.5V77.0253H559.266C561.491 77.0253 562.499 78.3471 562.499 80.0352C562.499 81.7103 561.491 83.0582 559.279 83.0582H557.225V86.5H556.047ZM557.225 82.0113H559.227C560.732 82.0113 561.334 81.1607 561.334 80.0352C561.334 78.8967 560.732 78.0723 559.214 78.0723H557.225V82.0113ZM563.65 84.4847C563.65 82.8488 565.09 82.4824 566.32 82.3908C566.771 82.3581 567.923 82.2992 568.244 82.2861V81.7103C568.244 80.8073 567.707 80.2839 566.634 80.2839C565.731 80.2839 565.194 80.7027 565.037 81.2392H563.86C564.004 80.1007 565.116 79.3024 566.686 79.3024C567.615 79.3024 569.356 79.5772 569.356 81.815V86.5H568.244V85.5316H568.191C567.956 86.0158 567.301 86.6701 566.071 86.6701C564.723 86.6701 563.65 85.8718 563.65 84.4847ZM564.776 84.537C564.776 85.2829 565.404 85.6625 566.268 85.6625C567.537 85.6625 568.244 84.8118 568.244 83.9219V83.2022L566.451 83.3331C565.43 83.3985 564.776 83.7649 564.776 84.537ZM571.162 86.5V79.394H572.248V80.4802H572.327C572.588 79.7604 573.321 79.2762 574.159 79.2762C574.329 79.2762 574.617 79.2893 574.748 79.3024V80.4409C574.669 80.4147 574.355 80.3624 574.067 80.3624C573.046 80.3624 572.287 81.0691 572.287 82.0244V86.5H571.162ZM575.494 84.4847C575.494 82.8488 576.933 82.4824 578.163 82.3908C578.615 82.3581 579.766 82.2992 580.087 82.2861V81.7103C580.087 80.8073 579.55 80.2839 578.477 80.2839C577.574 80.2839 577.038 80.7027 576.881 81.2392H575.703C575.847 80.1007 576.959 79.3024 578.53 79.3024C579.459 79.3024 581.199 79.5772 581.199 81.815V86.5H580.087V85.5316H580.035C579.799 86.0158 579.145 86.6701 577.915 86.6701C576.567 86.6701 575.494 85.8718 575.494 84.4847ZM576.619 84.537C576.619 85.2829 577.247 85.6625 578.111 85.6625C579.38 85.6625 580.087 84.8118 580.087 83.9219V83.2022L578.294 83.3331C577.273 83.3985 576.619 83.7649 576.619 84.537ZM585.884 89.3136C584.17 89.3136 583.005 88.5677 582.874 87.2459H584.052C584.209 87.9657 584.877 88.3321 585.884 88.3321C587.101 88.3321 587.847 87.8087 587.847 86.6309V85.1913H587.756C587.52 85.5839 587.062 86.3953 585.688 86.3953C583.961 86.3953 582.665 85.0867 582.665 82.8488C582.665 80.6634 583.921 79.3024 585.701 79.3024C587.075 79.3024 587.52 80.1399 587.782 80.5194H587.873V79.394H588.973V86.6963C588.973 88.5284 587.612 89.3136 585.884 89.3136ZM585.845 85.3876C587.141 85.3876 587.873 84.4585 587.873 82.8881C587.873 81.3701 587.167 80.3101 585.845 80.3101C584.484 80.3101 583.804 81.4617 583.804 82.8881C583.804 84.3669 584.497 85.3876 585.845 85.3876ZM590.766 86.5V79.394H591.852V80.4802H591.93C592.192 79.7604 592.925 79.2762 593.762 79.2762C593.933 79.2762 594.22 79.2893 594.351 79.3024V80.4409C594.273 80.4147 593.959 80.3624 593.671 80.3624C592.65 80.3624 591.891 81.0691 591.891 82.0244V86.5H590.766ZM595.097 84.4847C595.097 82.8488 596.537 82.4824 597.767 82.3908C598.218 82.3581 599.37 82.2992 599.691 82.2861V81.7103C599.691 80.8073 599.154 80.2839 598.081 80.2839C597.178 80.2839 596.641 80.7027 596.484 81.2392H595.307C595.451 80.1007 596.563 79.3024 598.133 79.3024C599.062 79.3024 600.803 79.5772 600.803 81.815V86.5H599.691V85.5316H599.638C599.403 86.0158 598.748 86.6701 597.518 86.6701C596.17 86.6701 595.097 85.8718 595.097 84.4847ZM596.223 84.537C596.223 85.2829 596.851 85.6625 597.715 85.6625C598.984 85.6625 599.691 84.8118 599.691 83.9219V83.2022L597.898 83.3331C596.877 83.3985 596.223 83.7649 596.223 84.537ZM602.609 89.1697V79.394H603.695V80.5194H603.826C604.062 80.1399 604.506 79.3024 605.881 79.3024C607.66 79.3024 608.904 80.7157 608.904 82.9666C608.904 85.2175 607.66 86.644 605.894 86.644C604.533 86.644 604.062 85.8064 603.826 85.4138H603.734V89.1697H602.609ZM603.708 82.9405C603.708 84.537 604.428 85.6363 605.737 85.6363C607.085 85.6363 607.778 84.4585 607.778 82.9405C607.778 81.4617 607.098 80.3101 605.737 80.3101C604.402 80.3101 603.708 81.3701 603.708 82.9405ZM611.495 82.2338V86.5H610.369V77.0253H611.495V80.5064H611.586C611.913 79.7735 612.555 79.3024 613.68 79.3024C615.133 79.3024 616.101 80.1661 616.101 81.9851V86.5H614.976V82.0637C614.976 80.9513 614.361 80.3101 613.34 80.3101C612.28 80.3101 611.495 81.0036 611.495 82.2338Z" fill="#605866"/>
<path d="M555.748 108.5V101.732H558.047C559.636 101.732 560.356 102.676 560.356 103.882C560.356 105.079 559.636 106.042 558.057 106.042H556.589V108.5H555.748ZM556.589 105.294H558.019C559.094 105.294 559.524 104.686 559.524 103.882C559.524 103.069 559.094 102.48 558.01 102.48H556.589V105.294ZM566.217 101.732V108.5H565.366V102.611H565.329L563.684 103.705V102.854L565.366 101.732H566.217ZM567.853 107.117V106.425L570.9 101.732H571.938V106.378H572.882V107.117H571.938V108.5H571.134V107.117H567.853ZM568.76 106.378H571.134V102.798H571.05L568.76 106.322V106.378ZM574.004 110.407V103.424H574.779V104.228H574.873C575.041 103.957 575.359 103.359 576.34 103.359C577.612 103.359 578.5 104.368 578.5 105.976C578.5 107.584 577.612 108.603 576.35 108.603C575.378 108.603 575.041 108.005 574.873 107.724H574.807V110.407H574.004ZM574.789 105.957C574.789 107.098 575.303 107.883 576.238 107.883C577.2 107.883 577.696 107.042 577.696 105.957C577.696 104.901 577.21 104.079 576.238 104.079C575.284 104.079 574.789 104.836 574.789 105.957ZM579.939 103.424L581.136 105.49L582.342 103.424H583.267L581.631 105.957L583.267 108.5H582.351L581.136 106.537L579.939 108.5H579.014L580.612 105.957L579.014 103.424H579.939Z" fill="#9A9A9A" fill-opacity="0.9"/>
</svg>
