<svg width="260" height="60" viewBox="0 0 260 60" fill="none" xmlns="http://www.w3.org/2000/svg">
<rect x="1.5" y="1.5" width="57" height="57" rx="28.5" fill="white"/>
<rect x="1.5" y="1.5" width="57" height="57" rx="28.5" stroke="#F67499" stroke-width="3"/>
<path d="M17.104 29.888V28.192H18.896V26.912H17.104V25.216H18.896V22.64H21.008V33.504H18.896V29.888H17.104ZM17.136 31.216C16.4533 31.3333 15.7493 31.4293 15.024 31.504C14.2987 31.568 13.5787 31.616 12.864 31.648C12.1493 31.68 11.456 31.7013 10.784 31.712C10.112 31.7227 9.488 31.728 8.912 31.728L8.688 30.016H10.224V25.376H9.056V23.696H16.832V25.376H15.664V29.808C15.8987 29.7867 16.128 29.7653 16.352 29.744C16.576 29.7227 16.7947 29.7013 17.008 29.68L17.136 31.216ZM12.256 29.968C12.48 29.968 12.704 29.968 12.928 29.968C13.1627 29.9573 13.3973 29.9467 13.632 29.936V25.376H12.256V29.968ZM21.344 37.12H11.296V32.688H13.408V35.44H21.344V37.12ZM35.6628 37.408H33.5508V22.624H35.6628V37.408ZM26.3508 32.24C27.4708 32.24 28.5214 32.2027 29.5028 32.128C30.4841 32.0533 31.4921 31.9307 32.5268 31.76L32.7508 33.472C32.1428 33.5787 31.5508 33.6693 30.9748 33.744C30.3988 33.808 29.8174 33.8613 29.2308 33.904C28.6441 33.936 28.0468 33.9573 27.4388 33.968C26.8308 33.9787 26.1908 33.984 25.5188 33.984H24.1908V27.92H28.9748V25.568H24.1748V23.888H31.1348V29.584H26.3508V32.24ZM38.1255 25.84V24.192H41.3895V22.624H43.5175V24.192H46.8135L46.7975 25.84H38.1255ZM51.6775 28.88H49.7255V33.664H47.6135V22.64H49.7255V27.136H51.6775V28.88ZM46.0775 29.2C46.0775 29.6267 45.9868 30.016 45.8055 30.368C45.6242 30.7093 45.3735 31.008 45.0535 31.264C44.7335 31.5093 44.3495 31.7013 43.9015 31.84C43.4642 31.9787 42.9842 32.048 42.4615 32.048C41.9282 32.048 41.4375 31.9787 40.9895 31.84C40.5522 31.7013 40.1735 31.5093 39.8535 31.264C39.5335 31.008 39.2828 30.7093 39.1015 30.368C38.9308 30.016 38.8455 29.6267 38.8455 29.2C38.8455 28.784 38.9308 28.4053 39.1015 28.064C39.2828 27.712 39.5335 27.4133 39.8535 27.168C40.1735 26.912 40.5522 26.7147 40.9895 26.576C41.4375 26.4373 41.9282 26.368 42.4615 26.368C42.9842 26.368 43.4642 26.4373 43.9015 26.576C44.3495 26.7147 44.7335 26.912 45.0535 27.168C45.3735 27.4133 45.6242 27.712 45.8055 28.064C45.9868 28.4053 46.0775 28.784 46.0775 29.2ZM40.8615 29.2C40.8615 29.6053 41.0055 29.9147 41.2935 30.128C41.5922 30.3413 41.9815 30.448 42.4615 30.448C42.9415 30.448 43.3255 30.3413 43.6135 30.128C43.9122 29.9147 44.0615 29.6053 44.0615 29.2C44.0615 28.7947 43.9122 28.4907 43.6135 28.288C43.3255 28.0747 42.9415 27.968 42.4615 27.968C41.9815 27.968 41.5922 28.0747 41.2935 28.288C41.0055 28.4907 40.8615 28.7947 40.8615 29.2ZM50.2535 35.44V37.12H40.2215V32.848H42.3335V35.44H50.2535Z" fill="#F67499"/>
<rect x="101.5" y="1.5" width="57" height="57" rx="28.5" fill="white"/>
<rect x="101.5" y="1.5" width="57" height="57" rx="28.5" stroke="#F67499" stroke-width="3"/>
<path d="M122.032 35.712H108.688V34.016H114.272V31.392H109.808V29.712H111.728V25.536H109.728V23.856H120.928V25.536H118.928V29.712H120.88V31.392H116.384V34.016H122.032V35.712ZM116.832 29.712V25.536H113.824V29.712H116.832ZM136.751 30.848H123.407V29.168H132.751C132.911 28.336 133.012 27.6 133.055 26.96C133.097 26.32 133.119 25.712 133.119 25.136H125.055V23.456H135.199V24.736C135.199 25.376 135.183 26.048 135.151 26.752C135.129 27.456 135.033 28.2613 134.863 29.168H136.751V30.848ZM135.599 35.44V37.12H125.087V32.128H127.199V35.44H135.599ZM138.126 25.84V24.192H141.39V22.624H143.518V24.192H146.814L146.798 25.84H138.126ZM151.678 28.88H149.726V33.664H147.614V22.64H149.726V27.136H151.678V28.88ZM146.078 29.2C146.078 29.6267 145.987 30.016 145.806 30.368C145.624 30.7093 145.374 31.008 145.054 31.264C144.734 31.5093 144.35 31.7013 143.902 31.84C143.464 31.9787 142.984 32.048 142.462 32.048C141.928 32.048 141.438 31.9787 140.99 31.84C140.552 31.7013 140.174 31.5093 139.854 31.264C139.534 31.008 139.283 30.7093 139.102 30.368C138.931 30.016 138.846 29.6267 138.846 29.2C138.846 28.784 138.931 28.4053 139.102 28.064C139.283 27.712 139.534 27.4133 139.854 27.168C140.174 26.912 140.552 26.7147 140.99 26.576C141.438 26.4373 141.928 26.368 142.462 26.368C142.984 26.368 143.464 26.4373 143.902 26.576C144.35 26.7147 144.734 26.912 145.054 27.168C145.374 27.4133 145.624 27.712 145.806 28.064C145.987 28.4053 146.078 28.784 146.078 29.2ZM140.862 29.2C140.862 29.6053 141.006 29.9147 141.294 30.128C141.592 30.3413 141.982 30.448 142.462 30.448C142.942 30.448 143.326 30.3413 143.614 30.128C143.912 29.9147 144.062 29.6053 144.062 29.2C144.062 28.7947 143.912 28.4907 143.614 28.288C143.326 28.0747 142.942 27.968 142.462 27.968C141.982 27.968 141.592 28.0747 141.294 28.288C141.006 28.4907 140.862 28.7947 140.862 29.2ZM150.254 35.44V37.12H140.222V32.848H142.334V35.44H150.254Z" fill="#F67499"/>
<rect x="201.5" y="1.5" width="57" height="57" rx="28.5" fill="white"/>
<rect x="201.5" y="1.5" width="57" height="57" rx="28.5" stroke="#F67499" stroke-width="3"/>
<path d="M220.928 30.96H218.8V22.64H220.928V30.96ZM216.704 30.448C215.872 30.2027 215.168 29.84 214.592 29.36C214.027 28.8693 213.579 28.2987 213.248 27.648C212.907 28.352 212.437 28.9707 211.84 29.504C211.243 30.0373 210.512 30.4427 209.648 30.72L208.624 29.056C209.243 28.864 209.771 28.608 210.208 28.288C210.656 27.968 211.024 27.6107 211.312 27.216C211.6 26.8213 211.808 26.4 211.936 25.952C212.075 25.504 212.144 25.056 212.144 24.608V23.184H214.288V24.608C214.288 25.056 214.352 25.4933 214.48 25.92C214.619 26.3467 214.827 26.7467 215.104 27.12C215.381 27.4827 215.733 27.8133 216.16 28.112C216.597 28.4 217.115 28.6293 217.712 28.8L216.704 30.448ZM220.928 31.648V37.2H211.12V31.648H220.928ZM218.864 35.552V33.296H213.2V35.552H218.864ZM224.575 24.608V23.04H235.535V24.608H233.663V26.496H235.423V28.064H224.671V26.496H226.447V24.608H224.575ZM228.543 24.608V26.496H231.567V24.608H228.543ZM236.719 30.48H223.407V28.816H236.719V30.48ZM235.487 35.744V37.264H224.943V33.536H233.023V32.816H224.927V31.296H235.103V34.944H227.039V35.744H235.487ZM238.126 25.84V24.192H241.39V22.624H243.518V24.192H246.814L246.798 25.84H238.126ZM251.678 28.88H249.726V33.664H247.614V22.64H249.726V27.136H251.678V28.88ZM246.078 29.2C246.078 29.6267 245.987 30.016 245.806 30.368C245.624 30.7093 245.374 31.008 245.054 31.264C244.734 31.5093 244.35 31.7013 243.902 31.84C243.464 31.9787 242.984 32.048 242.462 32.048C241.928 32.048 241.438 31.9787 240.99 31.84C240.552 31.7013 240.174 31.5093 239.854 31.264C239.534 31.008 239.283 30.7093 239.102 30.368C238.931 30.016 238.846 29.6267 238.846 29.2C238.846 28.784 238.931 28.4053 239.102 28.064C239.283 27.712 239.534 27.4133 239.854 27.168C240.174 26.912 240.552 26.7147 240.99 26.576C241.438 26.4373 241.928 26.368 242.462 26.368C242.984 26.368 243.464 26.4373 243.902 26.576C244.35 26.7147 244.734 26.912 245.054 27.168C245.374 27.4133 245.624 27.712 245.806 28.064C245.987 28.4053 246.078 28.784 246.078 29.2ZM240.862 29.2C240.862 29.6053 241.006 29.9147 241.294 30.128C241.592 30.3413 241.982 30.448 242.462 30.448C242.942 30.448 243.326 30.3413 243.614 30.128C243.912 29.9147 244.062 29.6053 244.062 29.2C244.062 28.7947 243.912 28.4907 243.614 28.288C243.326 28.0747 242.942 27.968 242.462 27.968C241.982 27.968 241.592 28.0747 241.294 28.288C241.006 28.4907 240.862 28.7947 240.862 29.2ZM250.254 35.44V37.12H240.222V32.848H242.334V35.44H250.254Z" fill="#F67499"/>
</svg>
