<svg width="312" height="386" viewBox="0 0 312 386" fill="none" xmlns="http://www.w3.org/2000/svg">
<path d="M283.542 217.509L283.541 217.509L283.54 217.509L283.54 217.509L282.833 217.498L282.374 218.039L259.744 244.739C253.138 252.533 241.464 253.496 233.669 246.89L208.114 225.229L225.572 204.633L243.499 219.827L244.643 220.797L245.613 219.653L261.777 200.582L262.3 199.965L262.073 199.191L262.073 199.191L262.073 199.19L262.072 199.19L262.072 199.189L262.069 199.177C262.067 199.171 262.065 199.164 262.063 199.156C262.06 199.145 262.056 199.13 262.051 199.114C262.035 199.055 262.011 198.964 261.982 198.845C261.922 198.605 261.84 198.251 261.754 197.808C261.581 196.918 261.396 195.682 261.341 194.299C261.23 191.471 261.677 188.327 263.543 186.126C271.042 177.278 284.293 176.185 293.141 183.684C301.988 191.183 303.082 204.435 295.583 213.282C293.836 215.343 290.942 216.442 288.262 216.998C286.952 217.27 285.76 217.398 284.895 217.458C284.464 217.488 284.117 217.501 283.882 217.506C283.765 217.509 283.675 217.509 283.617 217.51C283.588 217.51 283.567 217.51 283.555 217.51L283.542 217.509L283.542 217.509Z" fill="white" stroke="black" stroke-width="3"/>
<path d="M30.5315 220.79L30.5322 220.79L30.5327 220.79L30.533 220.79L31.2304 220.671L31.7662 221.135L58.2154 244.058C65.9366 250.749 77.6203 249.915 84.3119 242.194L106.252 216.878L85.8482 199.195L70.4575 216.954L69.4751 218.087L68.3415 217.105L49.4492 200.732L48.8384 200.202L48.9444 199.403L48.9444 199.402L48.9445 199.402L48.9446 199.401L48.9446 199.401L48.9462 199.388C48.9469 199.382 48.9478 199.375 48.9488 199.367C48.9502 199.355 48.9519 199.34 48.9539 199.323C48.9607 199.262 48.9705 199.169 48.9816 199.046C49.0038 198.801 49.0307 198.438 49.0479 197.987C49.0823 197.081 49.0767 195.832 48.9189 194.456C48.5962 191.645 47.6729 188.606 45.4924 186.716C36.7279 179.12 23.4652 180.068 15.8694 188.832C8.27358 197.597 9.22099 210.859 17.9855 218.455C20.0267 220.224 23.0547 220.868 25.7888 221.007C27.1246 221.075 28.3226 221.02 29.1864 220.947C29.617 220.91 29.9614 220.87 30.1945 220.839C30.3109 220.824 30.3994 220.811 30.4566 220.802C30.4853 220.798 30.5061 220.794 30.5187 220.792L30.5314 220.79L30.5315 220.79Z" fill="white" stroke="black" stroke-width="3"/>
<path d="M108.612 330.5C107.784 330.5 107.112 331.172 107.112 332V358.167C104.731 357.403 101.659 357.208 98.5673 357.613C94.259 358.177 89.5445 359.946 86.0513 363.439C82.4317 367.059 81.9566 371.14 82.9598 374.571C83.9273 377.88 86.2685 380.603 88.3678 381.802C90.4282 382.98 93.2942 383.493 96.6108 383.746C99.9551 384 104.002 384 108.561 384H108.612C114.487 384 120.203 383.11 124.573 381.256C128.896 379.422 132.298 376.448 132.608 372.107C133.014 366.424 132.778 342.934 132.612 331.977C132.599 331.158 131.932 330.5 131.112 330.5H108.612Z" fill="white" stroke="black" stroke-width="3" stroke-linecap="round" stroke-linejoin="round"/>
<path d="M192.612 330.5C191.784 330.5 191.112 331.172 191.112 332V358.167C188.731 357.403 185.659 357.208 182.567 357.613C178.259 358.177 173.545 359.946 170.051 363.439C166.432 367.059 165.957 371.14 166.96 374.571C167.927 377.88 170.268 380.603 172.368 381.802C174.428 382.98 177.294 383.493 180.611 383.746C183.955 384 188.002 384 192.561 384H192.612C198.487 384 204.203 383.11 208.573 381.256C212.896 379.422 216.298 376.448 216.608 372.107C217.014 366.424 216.778 342.934 216.612 331.977C216.599 331.158 215.932 330.5 215.112 330.5H192.612Z" fill="white" stroke="black" stroke-width="3" stroke-linecap="round" stroke-linejoin="round"/>
<path d="M78 341L83.9472 283H228.51L234 341H164.463L156.229 326.374L149.824 341H78Z" fill="#1E3E62" stroke="black" stroke-width="3" stroke-linecap="round" stroke-linejoin="round"/>
<path d="M66.3895 197.301C81.3956 182.952 98 164 98 164H215.5C215.5 164 234.305 183.406 250.466 197.811C256.773 203.432 254.946 215.074 246.943 217.779L225.578 225L236.164 270.745C237.615 277.013 232.855 283 226.422 283H89.8209C83.636 283 78.9341 277.442 79.9592 271.343L88 223.5L70.3252 217.686C62.264 215.034 60.256 203.166 66.3895 197.301Z" fill="#1E3E62" stroke="black" stroke-width="3" stroke-miterlimit="2.3662" stroke-linecap="round" stroke-linejoin="round"/>
<path d="M126 181C128.667 191 137.4 205.9 151 185.5L126 181Z" fill="white"/>
<path d="M186 181C183.333 191 174.6 205.9 161 185.5L186 181Z" fill="white"/>
<path d="M126 181C128.667 191 137.4 205.9 151 185.5L126 181Z" stroke="black" stroke-width="3" stroke-linecap="round"/>
<path d="M186 181C183.333 191 174.6 205.9 161 185.5L186 181Z" stroke="black" stroke-width="3" stroke-linecap="round"/>
<path d="M155 184.5C205.534 184.5 246.5 143.534 246.5 93C246.5 42.4659 205.534 1.5 155 1.5C104.466 1.5 63.5 42.4659 63.5 93C63.5 143.534 104.466 184.5 155 184.5Z" fill="white" stroke="black" stroke-width="3"/>
<path d="M127.5 79C127.5 82.7174 126.491 85.9698 124.991 88.2199C123.479 90.4874 121.665 91.5 120 91.5C118.335 91.5 116.521 90.4874 115.009 88.2199C113.509 85.9698 112.5 82.7174 112.5 79C112.5 75.2826 113.509 72.0302 115.009 69.7801C116.521 67.5126 118.335 66.5 120 66.5C121.665 66.5 123.479 67.5126 124.991 69.7801C126.491 72.0302 127.5 75.2826 127.5 79Z" fill="black" stroke="black" stroke-width="5"/>
<path d="M125 78.5C125 82.6421 122.761 86 120 86C117.239 86 115 82.6421 115 78.5C115 74.3579 117.239 71 120 71C122.761 71 125 74.3579 125 78.5Z" fill="white"/>
<path d="M192.5 79C192.5 82.7174 191.491 85.9698 189.991 88.2199C188.479 90.4874 186.665 91.5 185 91.5C183.335 91.5 181.521 90.4874 180.009 88.2199C178.509 85.9698 177.5 82.7174 177.5 79C177.5 75.2826 178.509 72.0302 180.009 69.7801C181.521 67.5126 183.335 66.5 185 66.5C186.665 66.5 188.479 67.5126 189.991 69.7801C191.491 72.0302 192.5 75.2826 192.5 79Z" fill="black" stroke="black" stroke-width="5"/>
<path d="M190 78.5C190 82.6421 187.761 86 185 86C182.239 86 180 82.6421 180 78.5C180 74.3579 182.239 71 185 71C187.761 71 190 74.3579 190 78.5Z" fill="white"/>
<path d="M164 115C164 117.761 159.523 120 154 120C148.477 120 144 117.761 144 115C144 112.239 148.477 110 154 110C159.523 110 164 112.239 164 115Z" fill="black"/>
<path d="M185 208.5V202.5L206 200V206L185 208.5Z" fill="white" stroke="black" stroke-width="3" stroke-linecap="round"/>
<path d="M156.5 210.5C158.954 210.5 160.5 208.218 160.5 206C160.5 203.782 158.954 201.5 156.5 201.5C154.046 201.5 152.5 203.782 152.5 206C152.5 208.218 154.046 210.5 156.5 210.5Z" fill="white" stroke="black" stroke-width="3"/>
<path d="M155.5 235.5C157.954 235.5 159.5 233.218 159.5 231C159.5 228.782 157.954 226.5 155.5 226.5C153.046 226.5 151.5 228.782 151.5 231C151.5 233.218 153.046 235.5 155.5 235.5Z" fill="white" stroke="black" stroke-width="3"/>
<path d="M155.437 122.829L154.457 122.045L153.512 122.871C152.137 124.074 150.619 124.765 149.056 125.477C148.571 125.698 148.081 125.921 147.589 126.162C146.621 126.638 145.597 127.216 144.822 128.053C143.992 128.949 143.5 130.079 143.5 131.5C143.5 136.782 148.775 140.5 154.5 140.5C160.225 140.5 165.5 136.782 165.5 131.5C165.5 130.157 165.122 129.061 164.359 128.168C163.648 127.338 162.693 126.794 161.785 126.35C161.354 126.139 160.913 125.938 160.461 125.733C158.913 125.03 157.24 124.271 155.437 122.829Z" fill="#FF6D6D" stroke="black" stroke-width="3"/>
<path d="M155.5 260.5C157.954 260.5 159.5 258.218 159.5 256C159.5 253.782 157.954 251.5 155.5 251.5C153.046 251.5 151.5 253.782 151.5 256C151.5 258.218 153.046 260.5 155.5 260.5Z" fill="white" stroke="black" stroke-width="3"/>
<path d="M134 123C139.5 126.167 151.3 129.8 154.5 119C157.7 129.8 169.5 126.167 175 123" stroke="black" stroke-width="3" stroke-linecap="round"/>
<path d="M109.612 346.5H130.612" stroke="black" stroke-width="3" stroke-linecap="round" stroke-linejoin="round"/>
<path d="M194 346.5H215" stroke="black" stroke-width="3" stroke-linecap="round" stroke-linejoin="round"/>
</svg>
