<svg width="413" height="146" viewBox="0 0 413 146" fill="none" xmlns="http://www.w3.org/2000/svg">
<path d="M2 144L27.7812 18H42.7812H54.0312L42.7812 72H81.0179L72.7812 18H87.7812H98.0938L122 144H112.156H92L83.0938 85.6098H39.9459L27.7812 144H18.4062H2Z" fill="#F7C784"/>
<path d="M18.4062 144H2L27.7812 18H42.7812M18.4062 144L42.7812 18M18.4062 144H27.7812L39.9459 85.6098M42.7812 18H54.0312L42.7812 72M42.7812 72H81.0179L83.0938 85.6098H39.9459M42.7812 72L39.9459 85.6098M112.156 144H92L72.7812 18H87.7812M112.156 144L87.7812 18M112.156 144H122L98.0938 18H87.7812" stroke="black" stroke-width="3"/>
<path d="M291 144L316.781 18H331.781H343.031L331.781 72H370.018L361.781 18H376.781H387.094L411 144H401.156H381L372.094 85.6098H328.946L316.781 144H307.406H291Z" fill="#F7C784"/>
<path d="M307.406 144H291L316.781 18H331.781M307.406 144L331.781 18M307.406 144H316.781L328.946 85.6098M331.781 18H343.031L331.781 72M331.781 72H370.018L372.094 85.6098M331.781 72L328.946 85.6098M372.094 85.6098L361.781 18H376.781M372.094 85.6098L381 144H401.156M372.094 85.6098H328.946M401.156 144L376.781 18M401.156 144H411L387.094 18H376.781" stroke="black" stroke-width="3"/>
<path d="M8 19V2H299.007H405V19H340.174H329.291H314.149H299.007H8Z" fill="#FFBCBC"/>
<path d="M299.007 19H8V2H299.007M299.007 19V2M299.007 19H314.149H329.291H340.174H405V2H299.007" stroke="black" stroke-width="3"/>
</svg>
