<svg width="586" height="170" viewBox="0 0 586 170" fill="none" xmlns="http://www.w3.org/2000/svg">
<path d="M2 168L34.4414 23H53.3164H67.4727L53.3164 85.1429H101.431L91.0664 23H109.941H122.918L153 168H140.613H115.25L104.043 100.805H49.7486L34.4414 168H22.6445H2Z" fill="#F7C784"/>
<path d="M22.6445 168H2L34.4414 23H53.3164M22.6445 168L53.3164 23M22.6445 168H34.4414L49.7486 100.805M53.3164 23H67.4727L53.3164 85.1429M53.3164 85.1429H101.431L104.043 100.805H49.7486M53.3164 85.1429L49.7486 100.805M140.613 168H115.25L91.0664 23H109.941M140.613 168L109.941 23M140.613 168H153L122.918 23H109.941" stroke="black" stroke-width="3"/>
<path d="M433 168L465.441 23H484.316H498.473L484.316 85.1429H532.44L522.066 23H540.941H553.918L584 168H571.613H546.25L535 100.805H480.749L465.441 168H453.645H433Z" fill="#F7C784"/>
<path d="M453.645 168H433L465.441 23H484.316M453.645 168L484.316 23M453.645 168H465.441L480.749 100.805M484.316 23H498.473L484.316 85.1429M484.316 85.1429H540.941L546.25 100.805H480.749M484.316 85.1429L480.749 100.805M571.613 168H546.25L535 100.805M571.613 168L540.941 23M571.613 168H584L553.918 23H540.941M540.941 23H522.066L532.5 85.5" stroke="black" stroke-width="3"/>
<path d="M10 27V2H429.285H582V27H488.598H472.918H451.101H429.285H10Z" fill="#FFBCBC"/>
<path d="M429.285 27H10V2H429.285M429.285 27V2M429.285 27H451.101H472.918H488.598H582V2H429.285" stroke="black" stroke-width="3"/>
</svg>
