<svg xmlns="http://www.w3.org/2000/svg" data-name="Layer 1" xmlns:xlink="http://www.w3.org/1999/xlink" viewBox="0 0 200 200"> <path d="M160 32.5H40a30.09 30.09 0 0 0-30 30v75a30.09 30.09 0 0 0 30 30h120a30.09 30.09 0 0 0 30-30v-75a30.09 30.09 0 0 0-30-30Zm-32.5 20-12.5 14a20.24 20.24 0 0 1-28.62.88c-.31-.29-.6-.58-.88-.88l-13-14Zm42.5 85a10 10 0 0 1-10 10H40a10 10 0 0 1-10-10v-75a10 10 0 0 1 10-10 13.66 13.66 0 0 1 9.5 4l21 23c16 17.5 43.5 17.5 59 0l21-23a13.66 13.66 0 0 1 9.5-4 10 10 0 0 1 10 10Z"></path> </svg>