<svg width="57" height="58" viewBox="0 0 57 58" fill="none" xmlns="http://www.w3.org/2000/svg">
<rect x="12.5913" y="3.4147" width="43" height="43" transform="rotate(14.0099 12.5913 3.4147)" fill="#F7DF1E"/>
<rect x="12.5913" y="3.4147" width="43" height="43" transform="rotate(14.0099 12.5913 3.4147)" stroke="black" stroke-width="3"/>
<path d="M24.8889 45.2938C24.1373 45.1063 23.4881 44.79 22.9416 44.345C22.3951 43.8999 22.0095 43.3475 21.785 42.6875C21.5684 42.0229 21.5641 41.2736 21.7721 40.4398L22.8147 36.2613L26.1121 37.084L25.1191 41.0636C25.0466 41.3541 25.0452 41.602 25.1147 41.8073C25.1906 42.0141 25.358 42.1498 25.617 42.2144C26.1161 42.3389 26.442 42.0948 26.5949 41.4821L29.7983 28.6433L33.162 29.4826L30.0413 41.9898C29.8207 42.8741 29.4554 43.5983 28.9457 44.1622C28.4375 44.7198 27.8329 45.0991 27.1319 45.2999C26.4325 45.4945 25.6849 45.4924 24.8889 45.2938ZM36.153 48.1044C34.6306 47.7245 33.6261 47.0713 33.1393 46.1446C32.6589 45.2195 32.6251 43.9295 33.0381 42.2745L33.4447 40.6448L36.7421 41.4675L36.222 43.552C36.1258 43.9374 36.107 44.2548 36.1655 44.5042C36.232 44.7489 36.4105 44.9075 36.701 44.98C37.0043 45.0557 37.2348 45.0193 37.3926 44.8708C37.5568 44.7238 37.6893 44.4482 37.7901 44.044C37.9178 43.5323 37.9737 43.0933 37.9577 42.727C37.9433 42.3544 37.8484 41.9818 37.673 41.6092C37.5054 41.2319 37.2526 40.7796 36.9144 40.2524L35.772 38.4576C34.9171 37.1237 34.6591 35.7777 34.998 34.4196C35.3526 32.9984 35.9514 31.997 36.7943 31.4155C37.6435 30.8356 38.6935 30.7017 39.9442 31.0138C41.4729 31.3952 42.4546 32.0729 42.8892 33.047C43.3302 34.0226 43.3435 35.3411 42.9289 37.0024L39.5368 36.156L39.8229 35.0095C39.8796 34.7821 39.8575 34.5887 39.7563 34.4293C39.6615 34.2714 39.5036 34.1649 39.2825 34.1097C39.0172 34.0436 38.8024 34.0705 38.6383 34.1906C38.482 34.3059 38.3747 34.4804 38.3164 34.7142C38.2581 34.9479 38.2582 35.2163 38.3168 35.5195C38.3753 35.8226 38.5468 36.1975 38.8312 36.6443L40.2937 38.9718C40.5876 39.4344 40.8444 39.9111 41.0641 40.4021C41.2854 40.8867 41.4262 41.4251 41.4865 42.0172C41.5483 42.603 41.4823 43.2844 41.2884 44.0613C40.8976 45.6279 40.3004 46.784 39.4971 47.5296C38.7016 48.2706 37.5869 48.4621 36.153 48.1044Z" fill="black"/>
<circle cx="33.2088" cy="7.52836" r="4" transform="rotate(14.0099 33.2088 7.52836)" fill="white" stroke="black" stroke-width="3"/>
</svg>
