<svg width="59" height="60" viewBox="0 0 59 60" fill="none" xmlns="http://www.w3.org/2000/svg">
<rect x="2.50724" y="16.7183" width="43" height="43" transform="rotate(-18.8466 2.50724 16.7183)" fill="#0159BE"/>
<rect x="2.50724" y="16.7183" width="43" height="43" transform="rotate(-18.8466 2.50724 16.7183)" stroke="black" stroke-width="3"/>
<path d="M25.8425 49.2668C24.6656 49.6685 23.5917 49.6258 22.6205 49.1387C21.6555 48.6494 20.948 47.7455 20.4979 46.427L17.9364 38.9225C17.398 37.3451 17.2969 36.0313 17.6332 34.9809C17.9756 33.9285 18.8523 33.1614 20.2633 32.6798C21.0335 32.417 21.7657 32.3252 22.4601 32.4046C23.1607 32.482 23.7802 32.7452 24.3187 33.1942C24.8552 33.6371 25.2695 34.2868 25.5619 35.1432L26.5209 37.9528L23.2862 39.057L22.466 36.654C22.2998 36.1673 22.1267 35.8618 21.9467 35.7375C21.7646 35.607 21.5442 35.5859 21.2854 35.6743C20.9835 35.7773 20.818 35.9576 20.789 36.2152C20.7578 36.4666 20.8043 36.774 20.9284 37.1376L23.7076 45.2798C23.8612 45.7296 24.0342 46.0248 24.2266 46.1655C24.4253 46.3041 24.6478 46.3313 24.8943 46.2472C25.1716 46.1525 25.3267 45.9723 25.3598 45.7065C25.3991 45.4386 25.3567 45.1228 25.2326 44.7593L24.2326 41.8296L27.5042 40.7128L28.5547 43.7904C29.0427 45.2199 29.0366 46.3811 28.5365 47.2741C28.0344 48.161 27.1363 48.8252 25.8425 49.2668ZM36.7925 45.5292C35.3076 46.0361 34.1093 46.0323 33.1977 45.518C32.2922 45.0016 31.5639 43.9362 31.0129 42.3219L30.4703 40.7323L33.6866 39.6345L34.3806 41.6677C34.5089 42.0436 34.6653 42.3204 34.8498 42.4982C35.0384 42.6677 35.2744 42.7041 35.5578 42.6074C35.8535 42.5064 36.0274 42.3507 36.0794 42.1404C36.1376 41.9279 36.0994 41.6245 35.9648 41.2302C35.7944 40.7311 35.6032 40.332 35.3911 40.033C35.1768 39.7277 34.8949 39.4662 34.5454 39.2484C34.2 39.0224 33.7422 38.7797 33.1721 38.5202L31.2386 37.6324C29.7969 36.9756 28.8499 35.985 28.3977 34.6603C27.9245 33.2739 27.8842 32.1079 28.2769 31.1621C28.6756 30.2143 29.485 29.5321 30.705 29.1157C32.196 28.6068 33.3883 28.6435 34.2819 29.2259C35.1817 29.8062 35.9081 30.9066 36.4612 32.527L33.1526 33.6564L32.7709 32.5381C32.6952 32.3163 32.5716 32.1659 32.4001 32.0868C32.2348 32.0056 32.0444 32.0018 31.8287 32.0755C31.5699 32.1638 31.4042 32.3029 31.3314 32.4929C31.2627 32.6745 31.2673 32.8793 31.3451 33.1073C31.4229 33.3353 31.5687 33.5607 31.7823 33.7836C31.996 34.0065 32.3435 34.2284 32.8248 34.4493L35.316 35.6111C35.8139 35.8402 36.2882 36.1014 36.7392 36.3946C37.188 36.6817 37.5984 37.0575 37.9702 37.5222C38.34 37.9807 38.6542 38.5889 38.9129 39.3468C39.4345 40.8748 39.5601 42.1699 39.2898 43.2322C39.0235 44.2861 38.1911 45.0518 36.7925 45.5292ZM47.4282 41.8989C45.9433 42.4057 44.7451 42.402 43.8334 41.8876C42.9279 41.3712 42.1997 40.3058 41.6487 38.6916L41.1061 37.1019L44.3223 36.0041L45.0163 38.0374C45.1446 38.4132 45.301 38.69 45.4856 38.8678C45.6741 39.0373 45.9101 39.0737 46.1935 38.977C46.4893 38.8761 46.6632 38.7204 46.7152 38.51C46.7734 38.2975 46.7352 37.9941 46.6006 37.5998C46.4302 37.1007 46.239 36.7017 46.0268 36.4026C45.8126 36.0974 45.5307 35.8359 45.1812 35.6181C44.8357 35.392 44.378 35.1493 43.8079 34.8899L41.8744 34.002C40.4326 33.3453 39.4857 32.3546 39.0335 31.0299C38.5603 29.6436 38.52 28.4775 38.9126 27.5318C39.3114 26.5839 40.1208 25.9018 41.3407 25.4854C42.8318 24.9764 44.0241 25.0131 44.9177 25.5956C45.8175 26.1759 46.5439 27.2762 47.097 28.8967L43.7883 30.026L43.4066 28.9077C43.3309 28.6859 43.2073 28.5355 43.0359 28.4564C42.8706 28.3753 42.6801 28.3715 42.4645 28.4451C42.2057 28.5334 42.0399 28.6726 41.9672 28.8625C41.8985 29.0442 41.9031 29.249 41.9809 29.477C42.0587 29.7049 42.2044 29.9303 42.4181 30.1532C42.6317 30.3761 42.9792 30.598 43.4605 30.819L45.9518 31.9808C46.4496 32.2099 46.924 32.471 47.3749 32.7642C47.8238 33.0513 48.2341 33.4272 48.606 33.8919C48.9758 34.3504 49.29 34.9586 49.5487 35.7164C50.0702 37.2444 50.1959 38.5396 49.9255 39.6018C49.6593 40.6558 48.8268 41.4215 47.4282 41.8989Z" fill="white"/>
<circle cx="22.0583" cy="8.98819" r="4" transform="rotate(-18.8466 22.0583 8.98819)" fill="white" stroke="black" stroke-width="3"/>
</svg>
