<svg width="58" height="60" viewBox="0 0 58 60" fill="none" xmlns="http://www.w3.org/2000/svg">
<rect x="14.7004" y="3.45379" width="43" height="43" transform="rotate(17.2134 14.7004 3.45379)" fill="#50BAD6"/>
<rect x="14.7004" y="3.45379" width="43" height="43" transform="rotate(17.2134 14.7004 3.45379)" stroke="black" stroke-width="3"/>
<path d="M20.6511 45.7497L25.7375 29.332L30.7747 30.8926C31.6143 31.1527 32.1888 31.542 32.4985 32.0605C32.8101 32.5728 32.9304 33.1962 32.8596 33.9308C32.7969 34.6611 32.6221 35.4896 32.335 36.4162C32.0576 37.3117 31.7209 37.9912 31.3252 38.4547C30.9356 38.9202 30.395 39.1583 29.7033 39.1689C30.1867 39.4345 30.4674 39.8043 30.5455 40.2784C30.6317 40.7481 30.5746 41.3063 30.3742 41.9531L28.4495 48.1657L25.2126 47.1629L27.2038 40.7357C27.3522 40.2569 27.3442 39.9307 27.1799 39.7571C27.0237 39.5792 26.7279 39.4228 26.2926 39.2879L23.972 46.7785L20.6511 45.7497ZM27.1927 36.4486L27.9856 36.6943C28.4396 36.8349 28.8197 36.4108 29.1261 35.422C29.3245 34.7815 29.4048 34.3463 29.367 34.1165C29.3291 33.8867 29.1734 33.7294 28.8998 33.6446L28.1349 33.4076L27.1927 36.4486ZM35.4815 50.5078C34.4865 50.1996 33.7514 49.7674 33.2762 49.2112C32.8011 48.655 32.5448 47.9861 32.5076 47.2044C32.4703 46.4227 32.6048 45.5374 32.9112 44.5486L34.6538 38.9237C35.0565 37.624 35.734 36.757 36.6864 36.3228C37.6408 35.8823 38.7709 35.8644 40.0769 36.269C42.7634 37.1013 43.6982 38.8359 42.8813 41.4726L42.5663 42.4894C42.1848 43.7207 41.9162 44.544 41.7603 44.9592L36.9096 43.4564L36.0715 46.1616C35.9944 46.4103 35.9339 46.6608 35.8898 46.913C35.8477 47.1589 35.8554 47.376 35.913 47.5642C35.9768 47.7544 36.1299 47.887 36.3725 47.9621C36.7207 48.07 36.9846 47.9882 37.1641 47.7167C37.3456 47.4389 37.5115 47.0575 37.6618 46.5725L38.0779 45.2292L41.3988 46.258L41.1531 47.0509C40.8294 48.0957 40.4272 48.9321 39.9464 49.5601C39.4737 50.1838 38.8736 50.5807 38.1462 50.7506C37.427 50.9163 36.5387 50.8354 35.4815 50.5078ZM37.4054 41.7902L38.9911 42.2815L39.5749 40.3972C39.731 39.8935 39.7805 39.5135 39.7236 39.2573C39.6686 38.9949 39.5167 38.8252 39.2679 38.7481C39.0005 38.6653 38.7594 38.7064 38.5447 38.8716C38.3361 39.0388 38.151 39.3835 37.9891 39.9059L37.4054 41.7902Z" fill="white"/>
<circle cx="35.0557" cy="8.71312" r="4" transform="rotate(17.2134 35.0557 8.71312)" fill="white" stroke="black" stroke-width="3"/>
</svg>
