<svg width="277" height="41" viewBox="0 0 277 41" fill="none" xmlns="http://www.w3.org/2000/svg">
<path d="M15.0742 15.834C14.875 13.9414 13.3477 12.8125 10.9238 12.8125C8.40039 12.8125 7.00586 13.9746 6.97266 15.5684C6.93945 17.2949 8.76562 18.0918 10.8242 18.5566L12.9824 19.0879C17.0996 20.0176 20.1875 22.1094 20.1875 26.127C20.1875 30.543 16.7344 33.332 10.8906 33.332C5.08008 33.332 1.36133 30.6426 1.22852 25.4961H6.07617C6.24219 27.9199 8.16797 29.1484 10.8242 29.1484C13.4473 29.1484 15.1406 27.9199 15.1406 26.127C15.1406 24.5 13.6465 23.7363 11.0234 23.0723L8.40039 22.4414C4.34961 21.4453 1.85938 19.4199 1.85938 15.9004C1.85938 11.5176 5.71094 8.62891 10.957 8.62891C16.2695 8.62891 19.7891 11.584 19.8555 15.834H15.0742ZM23.3418 33V8.96094H28.2559V21.877H28.5215L34.3652 14.9707H40.0098L33.3027 22.7734L40.375 33H34.5977L29.6504 25.6621L28.2559 27.2227V33H23.3418ZM42.3008 33V14.9707H47.2148V33H42.3008ZM44.7578 12.6133C43.2637 12.6133 42.0684 11.4844 42.0684 10.123C42.0684 8.72852 43.2637 7.59961 44.7578 7.59961C46.2188 7.59961 47.4141 8.72852 47.4141 10.123C47.4141 11.4844 46.2188 12.6133 44.7578 12.6133ZM55.9473 8.96094V33H51.0332V8.96094H55.9473ZM64.6797 8.96094V33H59.7656V8.96094H64.6797ZM123.848 17.3281C123.449 14.6719 121.391 13.0449 118.602 13.0449C114.85 13.0449 112.393 15.9336 112.393 20.9805C112.393 26.1602 114.883 28.916 118.568 28.916C121.324 28.916 123.35 27.3887 123.848 24.7988L128.895 24.832C128.33 29.2812 124.611 33.332 118.502 33.332C112.061 33.332 107.312 28.8164 107.312 20.9805C107.312 13.1445 112.16 8.62891 118.502 8.62891C124.047 8.62891 128.23 11.8164 128.895 17.3281H123.848ZM140.449 33.3652C134.938 33.3652 131.551 29.7793 131.551 24.0684C131.551 18.4902 134.971 14.7383 140.25 14.7383C144.998 14.7383 148.717 17.7266 148.717 23.8691V25.2637H136.398C136.398 27.9863 138.025 29.6797 140.549 29.6797C142.209 29.6797 143.404 28.9492 143.902 27.8535H148.584C147.887 31.1738 144.898 33.3652 140.449 33.3652ZM136.398 22.1758H144.068C144.068 19.9844 142.541 18.4238 140.35 18.4238C138.092 18.4238 136.481 20.1006 136.398 22.1758ZM151.805 33V14.9707H156.553V18.0918H156.752C157.416 15.8672 159.076 14.7051 161.102 14.7051C161.6 14.7051 162.23 14.7715 162.662 14.8711V19.2539C162.197 19.1211 161.268 18.9883 160.57 18.9883C158.346 18.9883 156.719 20.5488 156.719 22.7402V33H151.805ZM175.445 14.9707V18.6562H172.059V27.4551C172.059 28.8828 172.756 29.248 173.752 29.2812C174.25 29.2812 175.113 29.248 175.711 29.1816V33.0664C175.18 33.166 174.316 33.2324 173.088 33.2324C169.535 33.2324 167.111 31.6387 167.145 28.1523V18.6562H164.654V14.9707H167.145V10.6543H172.059V14.9707H175.445ZM178.533 33V14.9707H183.447V33H178.533ZM180.99 12.6133C179.496 12.6133 178.301 11.4844 178.301 10.123C178.301 8.72852 179.496 7.59961 180.99 7.59961C182.451 7.59961 183.646 8.72852 183.646 10.123C183.646 11.4844 182.451 12.6133 180.99 12.6133ZM196.861 14.9707V18.6562H193.275V33H188.361V18.6562H185.805V14.9707H188.361V13.6094C188.361 9.82422 190.652 7.83203 194.271 7.83203C195.4 7.83203 196.33 7.93164 197.193 8.13086V11.8496C196.496 11.7832 195.965 11.75 195.699 11.75C194.105 11.75 193.275 12.3809 193.275 13.875V14.9707H196.861ZM199.75 33V14.9707H204.664V33H199.75ZM202.207 12.6133C200.713 12.6133 199.518 11.4844 199.518 10.123C199.518 8.72852 200.713 7.59961 202.207 7.59961C203.668 7.59961 204.863 8.72852 204.863 10.123C204.863 11.4844 203.668 12.6133 202.207 12.6133ZM216.584 33.3652C211.072 33.3652 207.752 29.5469 207.752 24.0352C207.752 18.5234 211.105 14.7383 216.584 14.7383C221.232 14.7383 224.387 17.4609 224.586 21.5781H219.971C219.672 19.7852 218.51 18.5566 216.65 18.5566C214.293 18.5566 212.732 20.5488 212.732 23.9688C212.732 27.4551 214.26 29.4473 216.65 29.4473C218.377 29.4473 219.672 28.3848 219.971 26.459H224.586C224.354 30.543 221.365 33.3652 216.584 33.3652ZM226.777 27.9531C226.777 23.9355 230.031 22.6074 233.484 22.4082C234.779 22.3252 237.203 22.209 237.967 22.1758V20.7148C237.934 19.2207 236.904 18.3242 235.078 18.3242C233.418 18.3242 232.355 19.0879 232.09 20.3164H227.408C227.707 17.1953 230.43 14.7383 235.211 14.7383C239.129 14.7383 242.848 16.498 242.848 20.8477V33H238.199V30.5098H238.066C237.17 32.1699 235.477 33.332 232.787 33.332C229.334 33.332 226.777 31.5391 226.777 27.9531ZM231.492 27.8203C231.492 29.2148 232.621 29.9453 234.182 29.9453C236.406 29.9453 238 28.4512 237.967 26.5586V25.2305C237.22 25.2637 235.128 25.3799 234.281 25.4629C232.588 25.6289 231.492 26.4258 231.492 27.8203ZM256.096 14.9707V18.6562H252.709V27.4551C252.709 28.8828 253.406 29.248 254.402 29.2812C254.9 29.2812 255.764 29.248 256.361 29.1816V33.0664C255.83 33.166 254.967 33.2324 253.738 33.2324C250.186 33.2324 247.762 31.6387 247.795 28.1523V18.6562H245.305V14.9707H247.795V10.6543H252.709V14.9707H256.096ZM267.152 33.3652C261.641 33.3652 258.254 29.7793 258.254 24.0684C258.254 18.4902 261.674 14.7383 266.953 14.7383C271.701 14.7383 275.42 17.7266 275.42 23.8691V25.2637H263.102C263.102 27.9863 264.729 29.6797 267.252 29.6797C268.912 29.6797 270.107 28.9492 270.605 27.8535H275.287C274.59 31.1738 271.602 33.3652 267.152 33.3652ZM263.102 22.1758H270.771C270.771 19.9844 269.244 18.4238 267.053 18.4238C264.795 18.4238 263.185 20.1006 263.102 22.1758Z" fill="black"/>
<path d="M81.5217 19.3449H93.4783C93.4783 18.2299 94.1304 16 96.7391 16C99.3478 16 100 18.2299 100 19.3449C100 20.1811 99.7826 21.8536 98.913 21.8536C99.2754 22.0394 100 22.9128 100 24.9198C100 26.9267 98.0072 27.6143 97.0109 27.7072C95.8333 27.8001 93.4783 27.3727 93.4783 24.9198H81.5217C81.5217 27.3727 79.1667 27.8001 77.9891 27.7072C76.9928 27.6143 75 26.9267 75 24.9198C75 22.9128 75.7246 22.0394 76.087 21.8536C75.2174 21.8536 75 20.1811 75 19.3449C75 18.2299 75.6522 16 78.2609 16C80.8696 16 81.5217 18.2299 81.5217 19.3449Z" fill="white"/>
<path d="M97.2075 30.1995L97.2253 30.1981L97.243 30.1964C98.0647 30.1198 99.2531 29.8185 100.309 29.0817C101.455 28.2824 102.5 26.9048 102.5 24.9198C102.5 23.8081 102.329 22.8533 102.028 22.0548C102.086 21.9116 102.132 21.7773 102.169 21.6574C102.433 20.8118 102.5 19.9123 102.5 19.3449C102.5 18.4 102.244 17.0286 101.394 15.8181C100.453 14.4771 98.8854 13.5 96.7391 13.5C94.5928 13.5 93.0255 14.4771 92.0842 15.8181C91.8497 16.1522 91.6603 16.4986 91.5091 16.8449H83.4909C83.3397 16.4986 83.1503 16.1522 82.9158 15.8181C81.9745 14.4771 80.4072 13.5 78.2609 13.5C76.1146 13.5 74.5472 14.4771 73.6059 15.8181C72.7563 17.0286 72.5 18.4 72.5 19.3449C72.5 19.9123 72.567 20.8118 72.8308 21.6574C72.8682 21.7773 72.9143 21.9116 72.9715 22.0548C72.6715 22.8533 72.5 23.8081 72.5 24.9198C72.5 26.9048 73.5448 28.2824 74.6907 29.0817C75.7469 29.8185 76.9353 30.1198 77.757 30.1964L77.7747 30.1981L77.7925 30.1995C78.7053 30.2715 80.1112 30.1634 81.3951 29.4624C82.2217 29.0111 82.9532 28.3293 83.4329 27.4198H91.5671C92.0468 28.3293 92.7783 29.0111 93.6049 29.4624C94.8888 30.1634 96.2947 30.2715 97.2075 30.1995Z" stroke="black" stroke-width="5"/>
</svg>
