<svg width="56" height="45" viewBox="0 0 56 45" fill="none" xmlns="http://www.w3.org/2000/svg">
<rect x="12.4688" y="1.5" width="42" height="42" rx="6.5" fill="#363636" stroke="black" stroke-width="3"/>
<rect x="1.5" y="1.5" width="42" height="42" rx="6.5" fill="#363636" stroke="black" stroke-width="3"/>
<g clip-path="url(#clip0_129_6)">
<mask id="mask0_129_6" style="mask-type:luminance" maskUnits="userSpaceOnUse" x="8" y="8" width="30" height="29">
<path d="M37.3125 8H8.3125V37H37.3125V8Z" fill="white"/>
</mask>
<g mask="url(#mask0_129_6)">
<path d="M27.6458 34.5838V29.9076C27.6911 29.3314 27.6133 28.7522 27.4174 28.2084C27.2215 27.6647 26.9122 27.1688 26.51 26.7538C30.3041 26.3309 34.2916 24.893 34.2916 18.2955C34.2913 16.6085 33.6424 14.9861 32.4791 13.7643C33.03 12.2883 32.991 10.6569 32.3704 9.20886C32.3704 9.20886 30.9445 8.78594 27.6458 10.9972C24.8763 10.2466 21.957 10.2466 19.1875 10.9972C15.8887 8.78594 14.4629 9.20886 14.4629 9.20886C13.8423 10.6569 13.8033 12.2883 14.3541 13.7643C13.1822 14.9952 12.5326 16.6322 12.5416 18.3318C12.5416 24.8809 16.5291 26.3188 20.3233 26.7901C19.9258 27.2009 19.6191 27.6908 19.4235 28.2279C19.2278 28.7651 19.1474 29.3374 19.1875 29.9076V34.5838M19.1875 30.9588C13.1458 32.7713 13.1458 27.938 10.7291 27.3338L19.1875 30.9588Z" stroke="white" stroke-width="2" stroke-linecap="round" stroke-linejoin="round"/>
</g>
</g>
<defs>
<clipPath id="clip0_129_6">
<rect width="29" height="29" fill="white" transform="translate(8.3125 8)"/>
</clipPath>
</defs>
</svg>
