<svg width="56" height="45" viewBox="0 0 56 45" fill="none" xmlns="http://www.w3.org/2000/svg">
<rect x="12.4688" y="1.5" width="42" height="42" rx="6.5" fill="#F2DA01" stroke="black" stroke-width="3"/>
<rect x="1.5" y="1.5" width="42" height="42" rx="6.5" fill="#F2DA01" stroke="black" stroke-width="3"/>
<g clip-path="url(#clip0_129_5)">
<mask id="mask0_129_5" style="mask-type:luminance" maskUnits="userSpaceOnUse" x="7" y="7" width="30" height="29">
<path d="M36.6562 7H7.65625V36H36.6562V7Z" fill="white"/>
</mask>
<g mask="url(#mask0_129_5)">
<path d="M14.5172 28.8986C11.3924 27.0172 9.46875 24.052 9.46875 20.781C9.46875 15.097 15.2059 10.625 22.1562 10.625C29.1066 10.625 34.8438 15.097 34.8438 20.781C34.8438 26.465 29.1066 30.9371 22.1562 30.9371C21.6222 30.9371 21.0905 30.9105 20.5637 30.8585L16.0143 33.8286C15.2712 34.2225 14.8579 34.3422 14.2199 33.9084C13.4708 33.396 13.4998 32.8305 13.7595 32.0234L14.5172 28.8986ZM11.8854 20.781C11.8854 23.3572 13.5988 25.763 16.4541 27.2094L17.3072 27.6432L17.0825 28.5736L16.5979 30.5649L19.9812 28.3537L20.4235 28.4093C20.995 28.483 21.5738 28.5204 22.1562 28.5204C27.885 28.5204 32.4271 24.98 32.4271 20.781C32.4271 16.5821 27.885 13.0417 22.1562 13.0417C16.4275 13.0417 11.8854 16.5821 11.8854 20.781ZM29.2939 20.363L31.1233 22.9669C31.1664 23.0283 31.197 23.0974 31.2133 23.1706C31.2296 23.2437 31.2314 23.3194 31.2185 23.3932C31.2056 23.467 31.1783 23.5376 31.138 23.6009C31.0979 23.6641 31.0457 23.7189 30.9843 23.762C30.923 23.8051 30.8538 23.8357 30.7806 23.852C30.7075 23.8683 30.6319 23.8701 30.558 23.8572C30.4842 23.8443 30.4136 23.817 30.3503 23.7767C30.2871 23.7366 30.2324 23.6844 30.1893 23.623L28.4637 21.1665L27.9478 21.6655V23.3125C27.9478 23.4638 27.8877 23.6088 27.7808 23.7158C27.6737 23.8228 27.5287 23.8828 27.3775 23.8828C27.2262 23.8828 27.0812 23.8228 26.9741 23.7158C26.8672 23.6088 26.8071 23.4638 26.8071 23.3125V21.5737C26.7857 21.4856 26.7857 21.3935 26.8071 21.3055V18.2157C26.8071 18.0645 26.8672 17.9194 26.9741 17.8125C27.0812 17.7055 27.2262 17.6454 27.3775 17.6454C27.5287 17.6454 27.6737 17.7055 27.7808 17.8125C27.8877 17.9194 27.9478 18.0645 27.9478 18.2157V20.079L30.2775 17.8242C30.3872 17.7253 30.5311 17.6729 30.6787 17.6779C30.8264 17.683 30.9664 17.7451 31.0692 17.8513C31.1719 17.9575 31.2294 18.0994 31.2296 18.2472C31.2297 18.395 31.1726 18.5371 31.0701 18.6435L29.2939 20.363ZM25.7196 22.689C25.8709 22.689 26.0159 22.7491 26.123 22.856C26.2299 22.963 26.29 23.108 26.29 23.2593C26.29 23.4106 26.2299 23.5556 26.123 23.6627C26.0159 23.7696 25.8709 23.8297 25.7196 23.8297H23.3851C23.2341 23.8293 23.0893 23.7691 22.9826 23.6622C22.8759 23.5553 22.816 23.4104 22.816 23.2593V18.2339C22.8125 18.1568 22.8246 18.0799 22.8516 18.0077C22.8786 17.9355 22.92 17.8695 22.9733 17.8137C23.0265 17.758 23.0905 17.7136 23.1615 17.6833C23.2323 17.6529 23.3086 17.6373 23.3857 17.6373C23.4628 17.6373 23.5392 17.6529 23.61 17.6833C23.6809 17.7136 23.745 17.758 23.7981 17.8137C23.8514 17.8695 23.8929 17.9355 23.9198 18.0077C23.9469 18.0799 23.959 18.1568 23.9555 18.2339V22.689H25.7196ZM18.6424 21.3695H20.2543L19.4834 19.3069L18.6424 21.3695ZM21.691 21.9592L22.1079 23.0769C22.1367 23.1476 22.1511 23.2233 22.15 23.2996C22.149 23.3759 22.1327 23.4512 22.102 23.5212C22.0714 23.591 22.0271 23.6541 21.9716 23.7065C21.9162 23.7589 21.8507 23.7997 21.7793 23.8264C21.7077 23.8531 21.6316 23.8652 21.5553 23.8618C21.4791 23.8585 21.4043 23.8401 21.3353 23.8073C21.2663 23.7747 21.2047 23.7284 21.1539 23.6715C21.1032 23.6145 21.0643 23.5479 21.0398 23.4756L20.6797 22.5102H18.1784L17.7785 23.4925C17.7501 23.5619 17.7084 23.625 17.6557 23.6781C17.603 23.7314 17.5403 23.7737 17.4713 23.8027C17.4022 23.8317 17.3281 23.8468 17.2532 23.8472C17.1783 23.8475 17.1041 23.8332 17.0347 23.8049C16.9654 23.7766 16.9023 23.7348 16.8491 23.6821C16.7959 23.6294 16.7535 23.5667 16.7245 23.4977C16.6955 23.4286 16.6804 23.3545 16.68 23.2796C16.6797 23.2047 16.6941 23.1305 16.7224 23.0612L18.7282 18.1372C18.7894 17.9775 18.8978 17.8402 19.039 17.7438C19.1802 17.6473 19.3474 17.5961 19.5185 17.5971C19.688 17.6041 19.8515 17.6627 19.9868 17.765C20.1221 17.8674 20.2232 18.0086 20.2761 18.1698L21.54 21.5532C21.6384 21.6579 21.6932 21.7962 21.6935 21.9398L21.691 21.9592ZM17.677 18.2399C17.677 18.5541 17.4232 18.8102 17.1078 18.8102H15.7303V23.3246C15.7303 23.476 15.6702 23.6212 15.5631 23.7283C15.456 23.8353 15.3108 23.8955 15.1594 23.8955C15.008 23.8955 14.8628 23.8353 14.7557 23.7283C14.6486 23.6212 14.5885 23.476 14.5885 23.3246V18.8102H13.1868C13.0355 18.8102 12.8905 18.7502 12.7835 18.6432C12.6765 18.5362 12.6165 18.3912 12.6165 18.2399C12.6165 18.0887 12.6765 17.9436 12.7835 17.8366C12.8905 17.7297 13.0355 17.6696 13.1868 17.6696H17.1078C17.422 17.6696 17.677 17.9245 17.677 18.2399Z" fill="black"/>
</g>
</g>
<defs>
<clipPath id="clip0_129_5">
<rect width="29" height="29" fill="white" transform="translate(7.65625 7)"/>
</clipPath>
</defs>
</svg>
