<svg width="18" height="27" viewBox="0 0 18 27" fill="none" xmlns="http://www.w3.org/2000/svg">
<path d="M15.0584 13.2841C15.0584 16.4639 14.1953 19.2458 12.9122 21.1704C11.6192 23.1099 10.0678 23.9761 8.64319 23.9761C7.21862 23.9761 5.66717 23.1099 4.37414 21.1704C3.09109 19.2458 2.228 16.4639 2.228 13.2841C2.228 10.1044 3.09109 7.32243 4.37414 5.39784C5.66717 3.45831 7.21862 2.59213 8.64319 2.59213C10.0678 2.59213 11.6192 3.45831 12.9122 5.39784C14.1953 7.32243 15.0584 10.1044 15.0584 13.2841Z" fill="black" stroke="black" stroke-width="4.2768"/>
<path d="M12.9199 12.8564C12.9199 16.3994 11.0051 19.2716 8.64313 19.2716C6.28112 19.2716 4.36633 16.3994 4.36633 12.8564C4.36633 9.3134 6.28112 6.44122 8.64313 6.44122C11.0051 6.44122 12.9199 9.3134 12.9199 12.8564Z" fill="white"/>
</svg>
