<svg width="18" height="27" viewBox="0 0 18 27" fill="none" xmlns="http://www.w3.org/2000/svg">
<path d="M15.6568 13.2841C15.6568 16.4639 14.7937 19.2458 13.5106 21.1704C12.2176 23.1099 10.6662 23.9761 9.24158 23.9761C7.81701 23.9761 6.26556 23.1099 4.97253 21.1704C3.68948 19.2458 2.82639 16.4639 2.82639 13.2841C2.82639 10.1044 3.68948 7.32243 4.97253 5.39784C6.26556 3.45831 7.81701 2.59213 9.24158 2.59213C10.6662 2.59213 12.2176 3.45831 13.5106 5.39784C14.7937 7.32243 15.6568 10.1044 15.6568 13.2841Z" fill="black" stroke="black" stroke-width="4.2768"/>
<path d="M13.5183 12.8564C13.5183 16.3994 11.6035 19.2716 9.24152 19.2716C6.87951 19.2716 4.96472 16.3994 4.96472 12.8564C4.96472 9.3134 6.87951 6.44122 9.24152 6.44122C11.6035 6.44122 13.5183 9.3134 13.5183 12.8564Z" fill="white"/>
</svg>
