<svg width="295" height="240" viewBox="0 0 295 240" fill="none" xmlns="http://www.w3.org/2000/svg">
<path d="M267.836 188.353L270 92L202 132.147L203 238L267.836 188.353Z" fill="#FFBA57"/>
<path d="M39 217.272V102.184L104.353 40L203 132.812V238L39 217.272Z" fill="#F7C784"/>
<path d="M203 238L267.836 188.353L270 92L202 132.147L203 238ZM203 238V132.812L104.353 40L39 102.184V217.272L203 238Z" stroke="black" stroke-width="3"/>
<path d="M90.6529 26.5L210.73 2L292 77.9054L198.06 135.297L188.5 142.5L98.5 47.1014L37.9914 103.824L20 106.047L4 103.824L90.6529 26.5Z" fill="#FFBE64"/>
<path d="M90.6529 26.5L210.73 2L292 77.9054L198.06 135.297M90.6529 26.5L4 103.824L20 106.047M90.6529 26.5L97.0808 33M198.06 135.297L188.5 142.5L98.5 47.1014L37.9914 103.824L20 106.047M198.06 135.297L105.009 41L97.0808 33M20 106.047L97.0808 33" stroke="black" stroke-width="3"/>
<path d="M113.385 105C91.2308 105 79.641 123.837 78 133.256V221.708L148.154 230L150 137.248C148.051 127.83 135.538 105 113.385 105Z" fill="#979797" stroke="black" stroke-width="3"/>
<path d="M116 50L226 15" stroke="black" stroke-width="3"/>
<path d="M157.743 93.1121L257.391 45.249" stroke="black" stroke-width="3"/>
<path d="M175.457 55.6016C174.685 55.9013 174.302 56.7703 174.602 57.5427C174.901 58.315 175.77 58.6981 176.543 58.3984L175.457 55.6016ZM242.457 29.6016L175.457 55.6016L176.543 58.3984L243.543 32.3984L242.457 29.6016Z" fill="black"/>
<path d="M244.243 83.0067C244.958 82.588 245.198 81.6691 244.779 80.9543C244.36 80.2395 243.442 79.9994 242.727 80.4181L244.243 83.0067ZM242.727 80.4181L181.511 116.275L183.027 118.864L244.243 83.0067L242.727 80.4181Z" fill="black"/>
</svg>
