<svg width="312" height="388" viewBox="0 0 312 388" fill="none" xmlns="http://www.w3.org/2000/svg">
<path d="M243.499 221.827L244.643 222.797L245.613 221.653L261.777 202.582L262.3 201.965L262.073 201.191L262.073 201.191L262.073 201.19L262.072 201.19L262.072 201.189L262.069 201.177C262.067 201.171 262.065 201.164 262.063 201.156C262.06 201.145 262.056 201.13 262.051 201.114C262.035 201.055 262.011 200.964 261.982 200.845C261.922 200.605 261.84 200.251 261.754 199.808C261.581 198.918 261.396 197.682 261.341 196.299C261.23 193.471 261.677 190.327 263.543 188.126C271.042 179.278 284.293 178.185 293.141 185.684C301.988 193.183 303.082 206.435 295.583 215.282C293.836 217.343 290.942 218.442 288.262 218.998C286.952 219.27 285.76 219.398 284.895 219.458C284.464 219.488 284.117 219.501 283.882 219.506C283.765 219.509 283.675 219.509 283.617 219.51C283.588 219.51 283.567 219.51 283.555 219.51L283.542 219.509L283.542 219.509L283.541 219.509L283.54 219.509L283.54 219.509L282.833 219.498L282.374 220.039L259.744 246.739C253.138 254.533 241.464 255.496 233.669 248.89L208.114 227.229L225.572 206.633L243.499 221.827Z" fill="white" stroke="black" stroke-width="3"/>
<path d="M70.4574 218.954L69.475 220.087L68.3415 219.105L49.4492 202.732L48.8384 202.202L48.9444 201.403L48.9444 201.402L48.9445 201.402L48.9446 201.401L48.9446 201.401L48.9462 201.388C48.9469 201.382 48.9478 201.375 48.9488 201.367C48.9502 201.355 48.9519 201.34 48.9538 201.323C48.9606 201.262 48.9705 201.169 48.9816 201.046C49.0037 200.801 49.0307 200.438 49.0479 199.987C49.0823 199.081 49.0767 197.832 48.9188 196.456C48.5962 193.645 47.6728 190.606 45.4924 188.716C36.7279 181.12 23.4652 182.068 15.8694 190.832C8.27355 199.597 9.22096 212.859 17.9855 220.455C20.0267 222.224 23.0547 222.868 25.7888 223.007C27.1246 223.075 28.3226 223.02 29.1863 222.947C29.617 222.91 29.9614 222.87 30.1944 222.839C30.3109 222.824 30.3993 222.811 30.4566 222.802C30.4852 222.798 30.506 222.794 30.5187 222.792L30.5314 222.79L30.5314 222.79L30.5321 222.79L30.5326 222.79L30.533 222.79L31.2304 222.671L31.7662 223.135L58.2154 246.058C65.9365 252.749 77.6203 251.915 84.3119 244.194L106.252 218.878L85.8482 201.195L70.4574 218.954Z" fill="white" stroke="black" stroke-width="3"/>
<path d="M108.612 332.5C107.784 332.5 107.112 333.172 107.112 334V360.167C104.731 359.403 101.659 359.208 98.5673 359.613C94.259 360.177 89.5445 361.946 86.0513 365.439C82.4317 369.059 81.9567 373.14 82.9598 376.571C83.9273 379.88 86.2685 382.603 88.3678 383.802C90.4282 384.98 93.2942 385.493 96.6108 385.746C99.9551 386 104.002 386 108.561 386H108.612C114.487 386 120.203 385.11 124.573 383.256C128.896 381.422 132.298 378.448 132.608 374.107C133.014 368.424 132.778 344.934 132.612 333.977C132.599 333.158 131.932 332.5 131.112 332.5H108.612Z" fill="white" stroke="black" stroke-width="3" stroke-linecap="round" stroke-linejoin="round"/>
<path d="M192.612 332.5C191.784 332.5 191.112 333.172 191.112 334V360.167C188.731 359.403 185.659 359.208 182.567 359.613C178.259 360.177 173.545 361.946 170.051 365.439C166.432 369.059 165.957 373.14 166.96 376.571C167.927 379.88 170.268 382.603 172.368 383.802C174.428 384.98 177.294 385.493 180.611 385.746C183.955 386 188.002 386 192.561 386H192.612C198.487 386 204.203 385.11 208.573 383.256C212.896 381.422 216.298 378.448 216.608 374.107C217.014 368.424 216.778 344.934 216.612 333.977C216.599 333.158 215.932 332.5 215.112 332.5H192.612Z" fill="white" stroke="black" stroke-width="3" stroke-linecap="round" stroke-linejoin="round"/>
<path d="M78 343L83.9472 285H228.51L234 343H164.463L156.229 328.374L149.824 343H78Z" fill="#1E3E62" stroke="black" stroke-width="3" stroke-linecap="round" stroke-linejoin="round"/>
<path d="M66.3895 199.301C81.3956 184.952 98 166 98 166H215.5C215.5 166 234.305 185.406 250.466 199.811C256.773 205.432 254.946 217.074 246.943 219.779L225.578 227L236.164 272.745C237.615 279.013 232.855 285 226.422 285H89.8209C83.636 285 78.9341 279.442 79.9592 273.343L88 225.5L70.3252 219.686C62.264 217.034 60.256 205.166 66.3895 199.301Z" fill="#1E3E62" stroke="black" stroke-width="3" stroke-miterlimit="2.3662" stroke-linecap="round" stroke-linejoin="round"/>
<path d="M126 183C128.667 193 137.4 207.9 151 187.5L126 183Z" fill="white"/>
<path d="M186 183C183.333 193 174.6 207.9 161 187.5L186 183Z" fill="white"/>
<path d="M126 183C128.667 193 137.4 207.9 151 187.5L126 183Z" stroke="black" stroke-width="3" stroke-linecap="round"/>
<path d="M186 183C183.333 193 174.6 207.9 161 187.5L186 183Z" stroke="black" stroke-width="3" stroke-linecap="round"/>
<path d="M155 186.5C205.534 186.5 246.5 145.534 246.5 95C246.5 44.4659 205.534 3.5 155 3.5C104.466 3.5 63.5 44.4659 63.5 95C63.5 145.534 104.466 186.5 155 186.5Z" fill="white" stroke="black" stroke-width="3"/>
<path d="M76.4289 55.0899C66.4106 60.1598 56.2485 62.7556 47.877 62.7961C39.6059 62.8361 32.5808 60.353 29.6923 54.6451C26.8038 48.9373 28.9634 41.8062 33.8941 35.1652C38.8846 28.4438 46.9946 21.7929 57.0129 16.723C67.0312 11.6531 77.1932 9.05727 85.5647 9.01677C93.8358 8.97677 100.861 11.4599 103.749 17.1678C106.638 22.8756 104.478 30.0068 99.5476 36.6477C94.5571 43.3692 86.4471 50.02 76.4289 55.0899Z" fill="#F9F9F9" stroke="black" stroke-width="3"/>
<path d="M233.013 64.0899C243.031 69.1598 253.193 71.7556 261.565 71.7961C269.836 71.8361 276.861 69.353 279.749 63.6451C282.638 57.9373 280.478 50.8062 275.548 44.1652C270.557 37.4438 262.447 30.7929 252.429 25.723C242.411 20.6531 232.248 18.0573 223.877 18.0168C215.606 17.9768 208.581 20.4599 205.692 26.1678C202.804 31.8756 204.963 39.0068 209.894 45.6477C214.885 52.3692 222.995 59.02 233.013 64.0899Z" fill="#F9F9F9" stroke="black" stroke-width="3"/>
<path d="M127.5 81C127.5 84.7174 126.491 87.9698 124.991 90.2199C123.479 92.4874 121.665 93.5 120 93.5C118.335 93.5 116.521 92.4874 115.009 90.2199C113.509 87.9698 112.5 84.7174 112.5 81C112.5 77.2826 113.509 74.0302 115.009 71.7801C116.521 69.5126 118.335 68.5 120 68.5C121.665 68.5 123.479 69.5126 124.991 71.7801C126.491 74.0302 127.5 77.2826 127.5 81Z" fill="black" stroke="black" stroke-width="5"/>
<path d="M125 80.5C125 84.6421 122.761 88 120 88C117.239 88 115 84.6421 115 80.5C115 76.3579 117.239 73 120 73C122.761 73 125 76.3579 125 80.5Z" fill="white"/>
<path d="M192.5 81C192.5 84.7174 191.491 87.9698 189.991 90.2199C188.479 92.4874 186.665 93.5 185 93.5C183.335 93.5 181.521 92.4874 180.009 90.2199C178.509 87.9698 177.5 84.7174 177.5 81C177.5 77.2826 178.509 74.0302 180.009 71.7801C181.521 69.5126 183.335 68.5 185 68.5C186.665 68.5 188.479 69.5126 189.991 71.7801C191.491 74.0302 192.5 77.2826 192.5 81Z" fill="black" stroke="black" stroke-width="5"/>
<path d="M190 80.5C190 84.6421 187.761 88 185 88C182.239 88 180 84.6421 180 80.5C180 76.3579 182.239 73 185 73C187.761 73 190 76.3579 190 80.5Z" fill="white"/>
<path d="M164 117C164 119.761 159.523 122 154 122C148.477 122 144 119.761 144 117C144 114.239 148.477 112 154 112C159.523 112 164 114.239 164 117Z" fill="black"/>
<path d="M185 210.5V204.5L206 202V208L185 210.5Z" fill="white" stroke="black" stroke-width="3" stroke-linecap="round"/>
<path d="M156.5 212.5C158.954 212.5 160.5 210.218 160.5 208C160.5 205.782 158.954 203.5 156.5 203.5C154.046 203.5 152.5 205.782 152.5 208C152.5 210.218 154.046 212.5 156.5 212.5Z" fill="white" stroke="black" stroke-width="3"/>
<path d="M155.5 237.5C157.954 237.5 159.5 235.218 159.5 233C159.5 230.782 157.954 228.5 155.5 228.5C153.046 228.5 151.5 230.782 151.5 233C151.5 235.218 153.046 237.5 155.5 237.5Z" fill="white" stroke="black" stroke-width="3"/>
<path d="M155.437 124.829L154.457 124.045L153.512 124.871C152.137 126.074 150.619 126.765 149.056 127.477C148.571 127.698 148.081 127.921 147.589 128.162C146.621 128.638 145.597 129.216 144.822 130.053C143.992 130.949 143.5 132.079 143.5 133.5C143.5 138.782 148.775 142.5 154.5 142.5C160.225 142.5 165.5 138.782 165.5 133.5C165.5 132.157 165.122 131.061 164.359 130.168C163.648 129.338 162.693 128.794 161.785 128.35C161.354 128.139 160.913 127.938 160.461 127.733C158.913 127.03 157.24 126.271 155.437 124.829Z" fill="#FF6D6D" stroke="black" stroke-width="3"/>
<path d="M155.5 262.5C157.954 262.5 159.5 260.218 159.5 258C159.5 255.782 157.954 253.5 155.5 253.5C153.046 253.5 151.5 255.782 151.5 258C151.5 260.218 153.046 262.5 155.5 262.5Z" fill="white" stroke="black" stroke-width="3"/>
<path d="M134 125C139.5 128.167 151.3 131.8 154.5 121C157.7 131.8 169.5 128.167 175 125" stroke="black" stroke-width="3" stroke-linecap="round"/>
<path d="M109.612 348.5H130.612" stroke="black" stroke-width="3" stroke-linecap="round" stroke-linejoin="round"/>
<path d="M194 348.5H215" stroke="black" stroke-width="3" stroke-linecap="round" stroke-linejoin="round"/>
</svg>
