<svg width="524" height="295" viewBox="0 0 524 295" fill="none" xmlns="http://www.w3.org/2000/svg">
<path d="M2 293.304V2H504.481L521.565 11.0405V279.241L504.481 293.304H2Z" fill="#777777"/>
<path d="M504.481 293.304H2V2H504.481M504.481 293.304V2M504.481 293.304L521.565 279.241V11.0405L504.481 2" stroke="black" stroke-width="3"/>
<path d="M19.3911 275.913V23.7393H480.261V275.913H19.3911Z" fill="black"/>
<path d="M102.832 215.783L88.7889 85.0083H114.349L121.557 167.56L128.913 85.0083H153.284L160.269 167.56L167.254 85.0083H193.111L178.845 215.783H147.489L140.95 152.848L134.709 215.783H102.832ZM232.121 216.972C221.669 216.972 213.669 213.826 208.121 207.535C202.622 201.194 199.873 192.055 199.873 180.117V117.999C199.873 106.804 202.597 98.3086 208.046 92.5129C213.545 86.7173 221.57 83.8194 232.121 83.8194C242.672 83.8194 250.672 86.7173 256.121 92.5129C261.619 98.3086 264.368 106.804 264.368 117.999V180.117C264.368 192.055 261.594 201.194 256.046 207.535C250.548 213.826 242.573 216.972 232.121 216.972ZM232.344 192.897C236.306 192.897 238.288 189.058 238.288 181.38V117.553C238.288 111.114 236.356 107.894 232.492 107.894C228.133 107.894 225.953 111.188 225.953 117.776V181.529C225.953 185.591 226.449 188.513 227.44 190.297C228.43 192.03 230.065 192.897 232.344 192.897ZM274.92 215.783V85.0083H315.044C321.731 85.0083 326.784 86.5439 330.202 89.6151C333.619 92.6368 335.898 96.8969 337.037 102.395C338.226 107.844 338.821 114.259 338.821 121.64C338.821 128.773 337.904 134.47 336.072 138.73C334.288 142.99 330.895 145.937 325.892 147.572C330.003 148.414 332.876 150.47 334.511 153.739C336.195 156.959 337.037 161.145 337.037 166.296V215.783H311.254V164.587C311.254 160.773 310.462 158.42 308.876 157.529C307.341 156.587 304.839 156.117 301.372 156.117V215.783H274.92ZM301.52 133.454H307.836C311.452 133.454 313.26 129.516 313.26 121.64C313.26 116.538 312.864 113.194 312.071 111.609C311.279 110.024 309.793 109.231 307.613 109.231H301.52V133.454ZM347.44 215.783V85.0083H373.298V137.392L385.483 85.0083H411.787L397.149 144.897L414.833 215.783H387.713L373.446 152.476V215.783H347.44Z" fill="white"/>
</svg>
