<svg width="537" height="388" viewBox="0 0 537 388" fill="none" xmlns="http://www.w3.org/2000/svg">
<path d="M191 381.783L214.717 297H272.605H297.16L323.609 381.783H297.16H191Z" fill="#777777"/>
<path d="M297.16 381.783H191L214.717 297H272.605M297.16 381.783L272.605 297M297.16 381.783H323.609L297.16 297H272.605" stroke="black" stroke-width="10.8696"/>
<path d="M29 297.304V6H531.481V297.304H29Z" fill="#777777" stroke="black" stroke-width="10.8696"/>
<path d="M6 297.304V6H508.481V297.304H6Z" fill="#777777" stroke="black" stroke-width="10.8696"/>
<path d="M23 280.174V28H483.87V280.174H23Z" fill="black"/>
<path d="M106.05 218L92.0062 87.2256H117.567L124.774 169.777L132.13 87.2256H156.502L163.486 169.777L170.471 87.2256H196.329L182.062 218H150.706L144.167 155.065L137.926 218H106.05ZM235.338 219.189C224.886 219.189 216.886 216.043 211.338 209.752C205.839 203.412 203.09 194.272 203.09 182.334V120.216C203.09 109.021 205.815 100.526 211.264 94.7302C216.762 88.9345 224.787 86.0367 235.338 86.0367C245.889 86.0367 253.889 88.9345 259.338 94.7302C264.837 100.526 267.586 109.021 267.586 120.216V182.334C267.586 194.272 264.812 203.412 259.264 209.752C253.765 216.043 245.79 219.189 235.338 219.189ZM235.561 195.114C239.524 195.114 241.505 191.275 241.505 183.597V119.771C241.505 113.331 239.573 110.111 235.709 110.111C231.35 110.111 229.171 113.405 229.171 119.993V183.746C229.171 187.808 229.666 190.731 230.657 192.514C231.648 194.248 233.282 195.114 235.561 195.114ZM278.137 218V87.2256H318.261C324.948 87.2256 330.001 88.7612 333.419 91.8324C336.837 94.8541 339.115 99.1141 340.255 104.613C341.444 110.062 342.038 116.476 342.038 123.857C342.038 130.99 341.122 136.687 339.289 140.947C337.506 145.207 334.112 148.155 329.109 149.789C333.221 150.631 336.094 152.687 337.728 155.956C339.413 159.176 340.255 163.362 340.255 168.514V218H314.471V166.805C314.471 162.991 313.679 160.638 312.094 159.746C310.558 158.805 308.056 158.334 304.589 158.334V218H278.137ZM304.738 135.672H311.053C314.67 135.672 316.478 131.733 316.478 123.857C316.478 118.755 316.081 115.411 315.289 113.826C314.496 112.241 313.01 111.449 310.83 111.449H304.738V135.672ZM350.657 218V87.2256H376.515V139.61L388.701 87.2256H415.004L400.366 147.114L418.051 218H390.93L376.664 154.693V218H350.657Z" fill="white"/>
</svg>
