<svg width="497" height="139" viewBox="0 0 497 139" fill="none" xmlns="http://www.w3.org/2000/svg">
<circle cx="35" cy="70" r="35" fill="#58585A"/>
<path d="M4.015 129.416V128.328H5.551L5.887 125.672H4.367V124.584H6.015L6.415 121.384H7.439L7.055 124.584H9.263L9.679 121.384H10.687L10.303 124.584H11.711V125.672H10.175L9.839 128.328H11.359V129.416H9.711L9.279 133H8.239L8.671 129.416H6.463L6.015 133H4.991L5.423 129.416H4.015ZM9.135 125.672H6.911L6.591 128.328H8.799L9.135 125.672ZM15.306 125.64C15.8287 125.501 16.3887 125.432 16.986 125.432C17.6047 125.432 18.1487 125.523 18.618 125.704C19.098 125.885 19.498 126.136 19.818 126.456C20.138 126.776 20.378 127.155 20.538 127.592C20.7087 128.029 20.794 128.504 20.794 129.016C20.794 129.635 20.682 130.2 20.458 130.712C20.2447 131.224 19.946 131.661 19.562 132.024C19.178 132.376 18.7247 132.653 18.202 132.856C17.69 133.048 17.1353 133.144 16.538 133.144C15.834 133.144 15.194 133.021 14.618 132.776C14.0527 132.52 13.5887 132.221 13.226 131.88L14.01 130.808C14.362 131.107 14.762 131.352 15.21 131.544C15.658 131.736 16.122 131.832 16.602 131.832C17.0073 131.832 17.3807 131.773 17.722 131.656C18.0633 131.528 18.3567 131.347 18.602 131.112C18.8473 130.877 19.0393 130.589 19.178 130.248C19.3167 129.907 19.386 129.523 19.386 129.096C19.386 128.328 19.1513 127.731 18.682 127.304C18.2127 126.877 17.5567 126.664 16.714 126.664C16.4047 126.664 16.09 126.701 15.77 126.776C15.4607 126.84 15.1353 126.931 14.794 127.048L13.85 126.776L14.81 121.224H20.426V122.568H15.834L15.306 125.64ZM28.2613 126.888C29.0079 127.091 29.5786 127.443 29.9733 127.944C30.3786 128.445 30.5813 129.08 30.5813 129.848C30.5813 130.371 30.4799 130.845 30.2773 131.272C30.0853 131.688 29.8079 132.045 29.4453 132.344C29.0933 132.643 28.6719 132.872 28.1813 133.032C27.6906 133.192 27.1466 133.272 26.5493 133.272C25.9519 133.272 25.4026 133.192 24.9013 133.032C24.3999 132.872 23.9679 132.643 23.6053 132.344C23.2533 132.045 22.9759 131.688 22.7733 131.272C22.5813 130.845 22.4853 130.371 22.4853 129.848C22.4853 129.08 22.6879 128.445 23.0933 127.944C23.4986 127.443 24.0693 127.091 24.8053 126.888C24.1973 126.653 23.7279 126.307 23.3973 125.848C23.0773 125.379 22.9173 124.808 22.9173 124.136C22.9173 123.699 23.0026 123.293 23.1733 122.92C23.3439 122.536 23.5839 122.2 23.8932 121.912C24.2133 121.624 24.5973 121.4 25.0453 121.24C25.4933 121.069 25.9946 120.984 26.5493 120.984C27.0826 120.984 27.5733 121.069 28.0213 121.24C28.4693 121.4 28.8533 121.624 29.1733 121.912C29.4933 122.2 29.7386 122.536 29.9093 122.92C30.0906 123.293 30.1813 123.699 30.1813 124.136C30.1813 125.501 29.5413 126.419 28.2613 126.888ZM26.5493 122.152C26.1866 122.152 25.8666 122.205 25.5893 122.312C25.3119 122.419 25.0826 122.563 24.9013 122.744C24.7306 122.925 24.5973 123.144 24.5013 123.4C24.4159 123.645 24.3733 123.907 24.3733 124.184C24.3733 124.451 24.4106 124.712 24.4853 124.968C24.5599 125.224 24.6826 125.453 24.8533 125.656C25.0239 125.859 25.2479 126.024 25.5253 126.152C25.8026 126.269 26.1439 126.328 26.5493 126.328C26.9439 126.328 27.2746 126.269 27.5413 126.152C27.8186 126.024 28.0426 125.859 28.2133 125.656C28.3839 125.453 28.5066 125.224 28.5813 124.968C28.6559 124.712 28.6933 124.451 28.6933 124.184C28.6933 123.907 28.6453 123.645 28.5493 123.4C28.4639 123.144 28.3306 122.925 28.1493 122.744C27.9786 122.563 27.7599 122.419 27.4933 122.312C27.2266 122.205 26.9119 122.152 26.5493 122.152ZM26.5493 132.072C27.3493 132.072 27.9626 131.869 28.3893 131.464C28.8159 131.048 29.0293 130.504 29.0293 129.832C29.0293 129.416 28.9599 129.064 28.8213 128.776C28.6933 128.477 28.5119 128.237 28.2773 128.056C28.0533 127.864 27.7919 127.725 27.4933 127.64C27.1946 127.544 26.8799 127.496 26.5493 127.496C26.2186 127.496 25.8986 127.544 25.5893 127.64C25.2906 127.725 25.0239 127.864 24.7893 128.056C24.5546 128.237 24.3679 128.477 24.2293 128.776C24.1013 129.064 24.0373 129.416 24.0373 129.832C24.0373 130.504 24.2559 131.048 24.6933 131.464C25.1306 131.869 25.7493 132.072 26.5493 132.072ZM34.3685 125.64C34.8912 125.501 35.4512 125.432 36.0485 125.432C36.6672 125.432 37.2112 125.523 37.6805 125.704C38.1605 125.885 38.5605 126.136 38.8805 126.456C39.2005 126.776 39.4405 127.155 39.6005 127.592C39.7712 128.029 39.8565 128.504 39.8565 129.016C39.8565 129.635 39.7445 130.2 39.5205 130.712C39.3072 131.224 39.0085 131.661 38.6245 132.024C38.2405 132.376 37.7872 132.653 37.2645 132.856C36.7525 133.048 36.1978 133.144 35.6005 133.144C34.8965 133.144 34.2565 133.021 33.6805 132.776C33.1152 132.52 32.6512 132.221 32.2885 131.88L33.0725 130.808C33.4245 131.107 33.8245 131.352 34.2725 131.544C34.7205 131.736 35.1845 131.832 35.6645 131.832C36.0698 131.832 36.4432 131.773 36.7845 131.656C37.1258 131.528 37.4192 131.347 37.6645 131.112C37.9098 130.877 38.1018 130.589 38.2405 130.248C38.3792 129.907 38.4485 129.523 38.4485 129.096C38.4485 128.328 38.2138 127.731 37.7445 127.304C37.2752 126.877 36.6192 126.664 35.7765 126.664C35.4672 126.664 35.1525 126.701 34.8325 126.776C34.5232 126.84 34.1978 126.931 33.8565 127.048L32.9125 126.776L33.8725 121.224H39.4885V122.568H34.8965L34.3685 125.64ZM47.3238 126.888C48.0704 127.091 48.6411 127.443 49.0358 127.944C49.4411 128.445 49.6438 129.08 49.6438 129.848C49.6438 130.371 49.5424 130.845 49.3398 131.272C49.1478 131.688 48.8704 132.045 48.5078 132.344C48.1558 132.643 47.7344 132.872 47.2438 133.032C46.7531 133.192 46.2091 133.272 45.6118 133.272C45.0144 133.272 44.4651 133.192 43.9638 133.032C43.4624 132.872 43.0304 132.643 42.6678 132.344C42.3158 132.045 42.0384 131.688 41.8358 131.272C41.6438 130.845 41.5478 130.371 41.5478 129.848C41.5478 129.08 41.7504 128.445 42.1558 127.944C42.5611 127.443 43.1318 127.091 43.8678 126.888C43.2598 126.653 42.7904 126.307 42.4598 125.848C42.1398 125.379 41.9798 124.808 41.9798 124.136C41.9798 123.699 42.0651 123.293 42.2358 122.92C42.4064 122.536 42.6464 122.2 42.9557 121.912C43.2758 121.624 43.6598 121.4 44.1078 121.24C44.5558 121.069 45.0571 120.984 45.6118 120.984C46.1451 120.984 46.6358 121.069 47.0838 121.24C47.5318 121.4 47.9158 121.624 48.2358 121.912C48.5558 122.2 48.8011 122.536 48.9718 122.92C49.1531 123.293 49.2438 123.699 49.2438 124.136C49.2438 125.501 48.6038 126.419 47.3238 126.888ZM45.6118 122.152C45.2491 122.152 44.9291 122.205 44.6518 122.312C44.3744 122.419 44.1451 122.563 43.9638 122.744C43.7931 122.925 43.6598 123.144 43.5638 123.4C43.4784 123.645 43.4358 123.907 43.4358 124.184C43.4358 124.451 43.4731 124.712 43.5478 124.968C43.6224 125.224 43.7451 125.453 43.9158 125.656C44.0864 125.859 44.3104 126.024 44.5878 126.152C44.8651 126.269 45.2064 126.328 45.6118 126.328C46.0064 126.328 46.3371 126.269 46.6038 126.152C46.8811 126.024 47.1051 125.859 47.2758 125.656C47.4464 125.453 47.5691 125.224 47.6438 124.968C47.7184 124.712 47.7558 124.451 47.7558 124.184C47.7558 123.907 47.7078 123.645 47.6118 123.4C47.5264 123.144 47.3931 122.925 47.2118 122.744C47.0411 122.563 46.8224 122.419 46.5558 122.312C46.2891 122.205 45.9744 122.152 45.6118 122.152ZM45.6118 132.072C46.4118 132.072 47.0251 131.869 47.4518 131.464C47.8784 131.048 48.0918 130.504 48.0918 129.832C48.0918 129.416 48.0224 129.064 47.8838 128.776C47.7558 128.477 47.5744 128.237 47.3398 128.056C47.1158 127.864 46.8544 127.725 46.5558 127.64C46.2571 127.544 45.9424 127.496 45.6118 127.496C45.2811 127.496 44.9611 127.544 44.6518 127.64C44.3531 127.725 44.0864 127.864 43.8518 128.056C43.6171 128.237 43.4304 128.477 43.2918 128.776C43.1638 129.064 43.0998 129.416 43.0998 129.832C43.0998 130.504 43.3184 131.048 43.7558 131.464C44.1931 131.869 44.8118 132.072 45.6118 132.072ZM53.431 125.64C53.9537 125.501 54.5137 125.432 55.111 125.432C55.7297 125.432 56.2737 125.523 56.743 125.704C57.223 125.885 57.623 126.136 57.943 126.456C58.263 126.776 58.503 127.155 58.663 127.592C58.8337 128.029 58.919 128.504 58.919 129.016C58.919 129.635 58.807 130.2 58.583 130.712C58.3697 131.224 58.071 131.661 57.687 132.024C57.303 132.376 56.8497 132.653 56.327 132.856C55.815 133.048 55.2603 133.144 54.663 133.144C53.959 133.144 53.319 133.021 52.743 132.776C52.1777 132.52 51.7137 132.221 51.351 131.88L52.135 130.808C52.487 131.107 52.887 131.352 53.335 131.544C53.783 131.736 54.247 131.832 54.727 131.832C55.1323 131.832 55.5057 131.773 55.847 131.656C56.1883 131.528 56.4817 131.347 56.727 131.112C56.9723 130.877 57.1643 130.589 57.303 130.248C57.4417 129.907 57.511 129.523 57.511 129.096C57.511 128.328 57.2763 127.731 56.807 127.304C56.3377 126.877 55.6817 126.664 54.839 126.664C54.5297 126.664 54.215 126.701 53.895 126.776C53.5857 126.84 53.2603 126.931 52.919 127.048L51.975 126.776L52.935 121.224H58.551V122.568H53.959L53.431 125.64ZM62.5943 129.416L61.4583 133H59.9543L63.9383 121.272H65.5863L69.5703 133H68.0023L66.8823 129.416H62.5943ZM65.9543 126.44C65.7409 125.768 65.5383 125.112 65.3463 124.472C65.1543 123.821 64.9623 123.155 64.7703 122.472H64.7063C64.5249 123.176 64.3383 123.848 64.1463 124.488C63.9543 125.117 63.7516 125.768 63.5383 126.44L62.9623 128.232H66.5143L65.9543 126.44Z" fill="#222222"/>
<path d="M209.843 129.416V128.328H211.379L211.715 125.672H210.195V124.584H211.843L212.243 121.384H213.267L212.883 124.584H215.091L215.507 121.384H216.515L216.131 124.584H217.539V125.672H216.003L215.667 128.328H217.187V129.416H215.539L215.107 133H214.067L214.499 129.416H212.291L211.843 133H210.819L211.251 129.416H209.843ZM214.963 125.672H212.739L212.419 128.328H214.627L214.963 125.672ZM224.11 133.208C223.385 133.208 222.707 133.069 222.078 132.792C221.459 132.515 220.921 132.12 220.462 131.608C220.014 131.085 219.657 130.451 219.39 129.704C219.134 128.947 219.006 128.093 219.006 127.144C219.006 126.195 219.134 125.347 219.39 124.6C219.657 123.843 220.019 123.203 220.478 122.68C220.947 122.147 221.497 121.741 222.126 121.464C222.766 121.187 223.459 121.048 224.206 121.048C224.558 121.048 224.894 121.091 225.214 121.176C225.534 121.251 225.827 121.357 226.094 121.496C226.371 121.635 226.617 121.789 226.83 121.96C227.054 122.131 227.251 122.312 227.422 122.504L226.622 123.464C226.313 123.133 225.961 122.867 225.566 122.664C225.182 122.451 224.734 122.344 224.222 122.344C223.667 122.344 223.161 122.456 222.702 122.68C222.254 122.893 221.865 123.208 221.534 123.624C221.214 124.029 220.963 124.525 220.782 125.112C220.611 125.699 220.526 126.36 220.526 127.096C220.526 127.832 220.611 128.499 220.782 129.096C220.953 129.693 221.193 130.2 221.502 130.616C221.822 131.032 222.206 131.352 222.654 131.576C223.113 131.8 223.619 131.912 224.174 131.912C224.75 131.912 225.251 131.795 225.678 131.56C226.115 131.325 226.521 131.005 226.894 130.6L227.71 131.528C227.23 132.072 226.702 132.488 226.126 132.776C225.55 133.064 224.878 133.208 224.11 133.208ZM236.649 121.272V122.52H231.369V126.2H235.817V127.464H231.369V131.736H236.825V133H229.881V121.272H236.649ZM242.776 121.272C243.373 121.272 243.917 121.325 244.408 121.432C244.909 121.539 245.336 121.709 245.688 121.944C246.04 122.168 246.312 122.461 246.503 122.824C246.706 123.187 246.808 123.624 246.808 124.136C246.808 124.723 246.658 125.251 246.36 125.72C246.061 126.179 245.634 126.499 245.08 126.68V126.76C245.784 126.899 246.36 127.203 246.808 127.672C247.256 128.131 247.48 128.76 247.48 129.56C247.48 130.136 247.368 130.643 247.144 131.08C246.93 131.507 246.626 131.864 246.232 132.152C245.848 132.429 245.384 132.643 244.84 132.792C244.296 132.931 243.693 133 243.032 133H239.288V121.272H242.776ZM242.52 126.264C243.533 126.264 244.258 126.093 244.696 125.752C245.133 125.4 245.352 124.925 245.352 124.328C245.352 123.624 245.122 123.133 244.664 122.856C244.216 122.579 243.522 122.44 242.584 122.44H240.776V126.264H242.52ZM242.824 131.816C243.858 131.816 244.648 131.635 245.192 131.272C245.746 130.899 246.024 130.312 246.024 129.512C246.024 128.776 245.746 128.243 245.192 127.912C244.648 127.571 243.858 127.4 242.824 127.4H240.776V131.816H242.824ZM256.619 133H250.283V131.816H252.891V123.144C252.891 123.08 252.896 123.021 252.907 122.968L250.779 124.872L249.995 123.928L253.147 121.208H254.315V131.816H256.619V133ZM263.574 128.344C263.745 128.12 263.878 127.933 263.974 127.784C264.081 127.635 264.161 127.523 264.214 127.448C263.585 127.949 262.833 128.2 261.958 128.2C261.5 128.2 261.062 128.125 260.646 127.976C260.241 127.827 259.884 127.608 259.574 127.32C259.276 127.021 259.036 126.659 258.854 126.232C258.673 125.805 258.582 125.315 258.582 124.76C258.582 124.237 258.678 123.747 258.87 123.288C259.073 122.829 259.35 122.429 259.702 122.088C260.054 121.747 260.47 121.48 260.95 121.288C261.441 121.085 261.98 120.984 262.566 120.984C263.142 120.984 263.665 121.08 264.134 121.272C264.604 121.464 265.004 121.731 265.334 122.072C265.676 122.413 265.937 122.824 266.118 123.304C266.3 123.773 266.39 124.296 266.39 124.872C266.39 125.565 266.268 126.2 266.022 126.776C265.777 127.352 265.43 127.949 264.982 128.568L261.766 133H259.926L263.574 128.344ZM260.07 124.648C260.07 125.427 260.278 126.024 260.694 126.44C261.121 126.845 261.702 127.048 262.438 127.048C262.844 127.048 263.201 126.984 263.51 126.856C263.82 126.728 264.081 126.557 264.294 126.344C264.518 126.12 264.684 125.869 264.79 125.592C264.908 125.304 264.966 125.005 264.966 124.696C264.966 124.312 264.902 123.971 264.774 123.672C264.657 123.363 264.492 123.107 264.278 122.904C264.065 122.691 263.809 122.531 263.51 122.424C263.212 122.307 262.892 122.248 262.55 122.248C261.804 122.248 261.201 122.472 260.742 122.92C260.294 123.357 260.07 123.933 260.07 124.648ZM273.746 126.888C274.492 127.091 275.063 127.443 275.458 127.944C275.863 128.445 276.066 129.08 276.066 129.848C276.066 130.371 275.964 130.845 275.762 131.272C275.57 131.688 275.292 132.045 274.93 132.344C274.578 132.643 274.156 132.872 273.666 133.032C273.175 133.192 272.631 133.272 272.034 133.272C271.436 133.272 270.887 133.192 270.386 133.032C269.884 132.872 269.452 132.643 269.09 132.344C268.738 132.045 268.46 131.688 268.258 131.272C268.066 130.845 267.97 130.371 267.97 129.848C267.97 129.08 268.172 128.445 268.578 127.944C268.983 127.443 269.554 127.091 270.29 126.888C269.682 126.653 269.212 126.307 268.882 125.848C268.562 125.379 268.402 124.808 268.402 124.136C268.402 123.699 268.487 123.293 268.658 122.92C268.828 122.536 269.068 122.2 269.378 121.912C269.698 121.624 270.082 121.4 270.53 121.24C270.978 121.069 271.479 120.984 272.034 120.984C272.567 120.984 273.058 121.069 273.506 121.24C273.954 121.4 274.338 121.624 274.658 121.912C274.978 122.2 275.223 122.536 275.394 122.92C275.575 123.293 275.666 123.699 275.666 124.136C275.666 125.501 275.026 126.419 273.746 126.888ZM272.034 122.152C271.671 122.152 271.351 122.205 271.074 122.312C270.796 122.419 270.567 122.563 270.386 122.744C270.215 122.925 270.082 123.144 269.986 123.4C269.9 123.645 269.858 123.907 269.858 124.184C269.858 124.451 269.895 124.712 269.97 124.968C270.044 125.224 270.167 125.453 270.338 125.656C270.508 125.859 270.732 126.024 271.01 126.152C271.287 126.269 271.628 126.328 272.034 126.328C272.428 126.328 272.759 126.269 273.026 126.152C273.303 126.024 273.527 125.859 273.698 125.656C273.868 125.453 273.991 125.224 274.066 124.968C274.14 124.712 274.178 124.451 274.178 124.184C274.178 123.907 274.13 123.645 274.034 123.4C273.948 123.144 273.815 122.925 273.634 122.744C273.463 122.563 273.244 122.419 272.978 122.312C272.711 122.205 272.396 122.152 272.034 122.152ZM272.034 132.072C272.834 132.072 273.447 131.869 273.874 131.464C274.3 131.048 274.514 130.504 274.514 129.832C274.514 129.416 274.444 129.064 274.306 128.776C274.178 128.477 273.996 128.237 273.762 128.056C273.538 127.864 273.276 127.725 272.978 127.64C272.679 127.544 272.364 127.496 272.034 127.496C271.703 127.496 271.383 127.544 271.074 127.64C270.775 127.725 270.508 127.864 270.274 128.056C270.039 128.237 269.852 128.477 269.714 128.776C269.586 129.064 269.522 129.416 269.522 129.832C269.522 130.504 269.74 131.048 270.178 131.464C270.615 131.869 271.234 132.072 272.034 132.072Z" fill="#222222"/>
<path d="M318.703 129.416V128.328H320.239L320.575 125.672H319.055V124.584H320.703L321.103 121.384H322.127L321.743 124.584H323.951L324.367 121.384H325.375L324.991 124.584H326.399V125.672H324.863L324.527 128.328H326.047V129.416H324.399L323.967 133H322.927L323.359 129.416H321.151L320.703 133H319.679L320.111 129.416H318.703ZM323.823 125.672H321.599L321.279 128.328H323.487L323.823 125.672ZM335.306 121.272V122.52H330.026V126.488H334.506V127.736H330.026V133H328.538V121.272H335.306ZM338.822 125.64C339.344 125.501 339.904 125.432 340.502 125.432C341.12 125.432 341.664 125.523 342.134 125.704C342.614 125.885 343.014 126.136 343.334 126.456C343.654 126.776 343.894 127.155 344.054 127.592C344.224 128.029 344.31 128.504 344.31 129.016C344.31 129.635 344.198 130.2 343.974 130.712C343.76 131.224 343.462 131.661 343.078 132.024C342.694 132.376 342.24 132.653 341.718 132.856C341.206 133.048 340.651 133.144 340.054 133.144C339.35 133.144 338.71 133.021 338.134 132.776C337.568 132.52 337.104 132.221 336.742 131.88L337.526 130.808C337.878 131.107 338.278 131.352 338.726 131.544C339.174 131.736 339.638 131.832 340.118 131.832C340.523 131.832 340.896 131.773 341.238 131.656C341.579 131.528 341.872 131.347 342.118 131.112C342.363 130.877 342.555 130.589 342.694 130.248C342.832 129.907 342.902 129.523 342.902 129.096C342.902 128.328 342.667 127.731 342.198 127.304C341.728 126.877 341.072 126.664 340.23 126.664C339.92 126.664 339.606 126.701 339.286 126.776C338.976 126.84 338.651 126.931 338.31 127.048L337.366 126.776L338.326 121.224H343.942V122.568H339.35L338.822 125.64ZM353.665 121.272V122.52H348.385V126.2H352.833V127.464H348.385V131.736H353.841V133H346.897V121.272H353.665ZM357.391 129.416L356.255 133H354.751L358.735 121.272H360.383L364.367 133H362.799L361.679 129.416H357.391ZM360.751 126.44C360.538 125.768 360.335 125.112 360.143 124.472C359.951 123.821 359.759 123.155 359.567 122.472H359.503C359.322 123.176 359.135 123.848 358.943 124.488C358.751 125.117 358.548 125.768 358.335 126.44L357.759 128.232H361.311L360.751 126.44ZM368.966 121.272C370.822 121.272 372.209 121.763 373.126 122.744C374.043 123.725 374.502 125.176 374.502 127.096C374.502 128.024 374.379 128.856 374.134 129.592C373.899 130.317 373.547 130.936 373.078 131.448C372.619 131.949 372.049 132.333 371.366 132.6C370.694 132.867 369.915 133 369.03 133H366.022V121.272H368.966ZM368.838 131.784C370.225 131.784 371.259 131.373 371.942 130.552C372.625 129.731 372.966 128.579 372.966 127.096C372.966 125.581 372.63 124.435 371.958 123.656C371.297 122.867 370.257 122.472 368.838 122.472H367.51V131.784H368.838ZM381.246 128.344C381.417 128.12 381.55 127.933 381.646 127.784C381.753 127.635 381.833 127.523 381.886 127.448C381.257 127.949 380.505 128.2 379.63 128.2C379.172 128.2 378.734 128.125 378.318 127.976C377.913 127.827 377.556 127.608 377.246 127.32C376.948 127.021 376.708 126.659 376.526 126.232C376.345 125.805 376.254 125.315 376.254 124.76C376.254 124.237 376.35 123.747 376.542 123.288C376.745 122.829 377.022 122.429 377.374 122.088C377.726 121.747 378.142 121.48 378.622 121.288C379.113 121.085 379.652 120.984 380.238 120.984C380.814 120.984 381.337 121.08 381.806 121.272C382.276 121.464 382.676 121.731 383.006 122.072C383.348 122.413 383.609 122.824 383.79 123.304C383.972 123.773 384.062 124.296 384.062 124.872C384.062 125.565 383.94 126.2 383.694 126.776C383.449 127.352 383.102 127.949 382.654 128.568L379.438 133H377.598L381.246 128.344ZM377.742 124.648C377.742 125.427 377.95 126.024 378.366 126.44C378.793 126.845 379.374 127.048 380.11 127.048C380.516 127.048 380.873 126.984 381.182 126.856C381.492 126.728 381.753 126.557 381.966 126.344C382.19 126.12 382.356 125.869 382.462 125.592C382.58 125.304 382.638 125.005 382.638 124.696C382.638 124.312 382.574 123.971 382.446 123.672C382.329 123.363 382.164 123.107 381.95 122.904C381.737 122.691 381.481 122.531 381.182 122.424C380.884 122.307 380.564 122.248 380.222 122.248C379.476 122.248 378.873 122.472 378.414 122.92C377.966 123.357 377.742 123.933 377.742 124.648Z" fill="#222222"/>
<path d="M428.726 129.416V128.328H430.262L430.598 125.672H429.078V124.584H430.726L431.126 121.384H432.15L431.766 124.584H433.974L434.39 121.384H435.398L435.014 124.584H436.422V125.672H434.886L434.55 128.328H436.07V129.416H434.422L433.99 133H432.95L433.382 129.416H431.174L430.726 133H429.702L430.134 129.416H428.726ZM433.846 125.672H431.622L431.302 128.328H433.51L433.846 125.672ZM445.329 121.272V122.52H440.049V126.488H444.529V127.736H440.049V133H438.561V121.272H445.329ZM449.645 125.64C449.506 125.832 449.389 125.992 449.293 126.12C449.208 126.248 449.138 126.344 449.085 126.408C449.373 126.216 449.682 126.067 450.013 125.96C450.344 125.853 450.706 125.8 451.101 125.8C451.581 125.8 452.034 125.88 452.461 126.04C452.888 126.189 453.261 126.419 453.581 126.728C453.901 127.027 454.152 127.395 454.333 127.832C454.525 128.269 454.621 128.771 454.621 129.336C454.621 129.88 454.52 130.387 454.317 130.856C454.125 131.325 453.848 131.736 453.485 132.088C453.133 132.44 452.706 132.717 452.205 132.92C451.704 133.112 451.154 133.208 450.557 133.208C449.96 133.208 449.416 133.112 448.925 132.92C448.445 132.728 448.034 132.456 447.693 132.104C447.352 131.752 447.085 131.331 446.893 130.84C446.712 130.339 446.621 129.784 446.621 129.176C446.621 128.653 446.733 128.099 446.957 127.512C447.192 126.915 447.565 126.28 448.077 125.608L451.341 121.208H453.181L449.645 125.64ZM450.525 131.976C450.909 131.976 451.261 131.912 451.581 131.784C451.912 131.656 452.189 131.48 452.413 131.256C452.648 131.032 452.829 130.765 452.957 130.456C453.085 130.147 453.149 129.811 453.149 129.448C453.149 129.064 453.085 128.717 452.957 128.408C452.829 128.088 452.653 127.821 452.429 127.608C452.205 127.395 451.938 127.229 451.629 127.112C451.32 126.995 450.984 126.936 450.621 126.936C450.226 126.936 449.869 127.005 449.549 127.144C449.24 127.272 448.973 127.453 448.749 127.688C448.525 127.912 448.349 128.173 448.221 128.472C448.104 128.771 448.045 129.085 448.045 129.416C448.045 130.184 448.258 130.803 448.685 131.272C449.112 131.741 449.725 131.976 450.525 131.976ZM463.688 121.272V122.52H458.408V126.488H462.888V127.736H458.408V133H456.92V121.272H463.688ZM472.964 122.216L467.668 133H466.052L470.836 123.416L471.38 122.52H465.252V121.272H472.964V122.216ZM482.048 121.272V122.52H476.768V126.2H481.216V127.464H476.768V131.736H482.224V133H475.28V121.272H482.048ZM491.454 121.272V122.52H486.174V126.488H490.654V127.736H486.174V133H484.686V121.272H491.454Z" fill="#222222"/>
<path d="M5.48463 4.16C6.13529 4.16 6.74329 4.224 7.30863 4.352C7.87396 4.46933 8.36463 4.672 8.78063 4.96C9.19663 5.248 9.52196 5.632 9.75663 6.112C10.002 6.58133 10.1246 7.168 10.1246 7.872C10.1246 8.544 10.002 9.13067 9.75663 9.632C9.52196 10.1227 9.19663 10.528 8.78063 10.848C8.37529 11.168 7.89529 11.408 7.34063 11.568C6.78596 11.7173 6.18863 11.792 5.54863 11.792H3.96463V16H1.59663V4.16H5.48463ZM5.38863 9.92C6.99929 9.92 7.80463 9.23733 7.80463 7.872C7.80463 7.17867 7.59129 6.69867 7.16463 6.432C6.74863 6.16533 6.12996 6.032 5.30863 6.032H3.96463V9.92H5.38863ZM13.9965 7.04L14.1565 8.624H14.2205C14.5512 8.03733 14.9352 7.58933 15.3725 7.28C15.8205 6.97067 16.2845 6.816 16.7645 6.816C17.0098 6.816 17.2125 6.83733 17.3725 6.88C17.5325 6.912 17.6818 6.95467 17.8205 7.008L17.4045 9.04C17.2552 8.98667 17.1058 8.94933 16.9565 8.928C16.8178 8.90667 16.6578 8.896 16.4765 8.896C16.1245 8.896 15.7565 9.02933 15.3725 9.296C14.9885 9.552 14.6685 10.0053 14.4125 10.656V16H12.0765V7.04H13.9965ZM18.8372 5.6V3.328H21.1733V5.6H18.8372ZM18.8213 7.04H21.1573V16H18.8213V7.04ZM25.3871 7.04L25.5471 8.24H25.6111C25.9845 7.84533 26.3898 7.50933 26.8271 7.232C27.2645 6.95467 27.7765 6.816 28.3631 6.816C29.0031 6.816 29.5205 6.94933 29.9151 7.216C30.3098 7.48267 30.6138 7.872 30.8271 8.384C31.2325 7.936 31.6591 7.56267 32.1071 7.264C32.5658 6.96533 33.0885 6.816 33.6751 6.816C34.6351 6.816 35.3391 7.136 35.7871 7.776C36.2351 8.40533 36.4591 9.28533 36.4591 10.416V16H34.1071V10.704C34.1071 10 34.0058 9.51467 33.8031 9.248C33.6005 8.97067 33.2858 8.832 32.8591 8.832C32.3471 8.832 31.7711 9.168 31.1311 9.84V16H28.7791V10.704C28.7791 10 28.6778 9.51467 28.4751 9.248C28.2725 8.97067 27.9578 8.832 27.5311 8.832C27.0191 8.832 26.4431 9.168 25.8031 9.84V16H23.4671V7.04H25.3871ZM41.097 16.16C40.7023 16.16 40.3397 16.1013 40.009 15.984C39.6783 15.856 39.3957 15.68 39.161 15.456C38.937 15.2213 38.761 14.944 38.633 14.624C38.505 14.304 38.441 13.952 38.441 13.568C38.3877 12.4693 38.7663 11.6587 39.577 11.136C40.3983 10.6027 41.737 10.3093 43.593 10.256C43.6357 9.88267 43.5663 9.504 43.385 9.12C43.193 8.84267 42.7557 8.704 42.073 8.704C41.657 8.704 41.2197 8.77867 40.761 8.928C40.313 9.07733 39.8863 9.28533 39.481 9.552L38.777 7.872C39.2677 7.57333 39.833 7.32267 40.473 7.12C41.1237 6.91733 41.801 6.816 42.505 6.816C44.7983 6.816 45.945 8.13333 45.945 10.768V16H44.025L43.849 15.088H43.801C43.417 15.4187 42.9957 15.68 42.537 15.872C42.089 16.064 41.609 16.16 41.097 16.16ZM41.817 14.368C42.1583 14.3573 42.4677 14.2827 42.745 14.144C43.033 13.9947 43.3157 13.7813 43.593 13.504V11.696C43.3157 11.7173 43.0383 11.744 42.761 11.776C42.4943 11.7973 42.233 11.8293 41.977 11.872C41.465 11.9467 41.1023 12.1013 40.889 12.336C40.6863 12.5707 40.5903 12.848 40.601 13.168C40.6117 13.5413 40.729 13.8347 40.953 14.048C41.1877 14.2613 41.4757 14.368 41.817 14.368ZM50.2621 7.04L50.4221 8.624H50.4861C50.8168 8.03733 51.2008 7.58933 51.6381 7.28C52.0861 6.97067 52.5501 6.816 53.0301 6.816C53.2755 6.816 53.4781 6.83733 53.6381 6.88C53.7981 6.912 53.9475 6.95467 54.0861 7.008L53.6701 9.04C53.5208 8.98667 53.3715 8.94933 53.2221 8.928C53.0835 8.90667 52.9235 8.896 52.7421 8.896C52.3901 8.896 52.0221 9.02933 51.6381 9.296C51.2541 9.552 50.9341 10.0053 50.6781 10.656V16H48.3421V7.04H50.2621ZM56.4789 19.6L57.7269 16.048L54.2549 7.04H56.6229L58.0469 11.2C58.1855 11.6053 58.3135 12.016 58.4309 12.432C58.5482 12.848 58.6709 13.28 58.7989 13.728H58.8789C58.9855 13.312 59.0922 12.8907 59.1989 12.464C59.3055 12.0373 59.4122 11.616 59.5189 11.2L60.7509 7.04H63.0069L59.9029 16.256L58.7989 19.6H56.4789ZM71.9314 16.224C71.3127 16.224 70.7367 16.1173 70.2034 15.904C69.67 15.6907 69.206 15.3867 68.8114 14.992C68.4274 14.5867 68.1234 14.096 67.8994 13.52C67.6754 12.9333 67.5634 12.272 67.5634 11.536C67.5634 10.7893 67.686 10.1227 67.9314 9.536C68.1874 8.94933 68.5234 8.45867 68.9394 8.064C69.3554 7.65867 69.8407 7.34933 70.3954 7.136C70.95 6.92267 71.5314 6.816 72.1394 6.816C72.694 6.816 73.1847 6.912 73.6114 7.104C74.038 7.296 74.4167 7.53067 74.7474 7.808L73.6274 9.328C73.4034 9.136 73.1794 8.992 72.9554 8.896C72.742 8.78933 72.5074 8.736 72.2514 8.736C71.5687 8.736 71.014 8.98667 70.5874 9.488C70.1714 9.98933 69.9634 10.672 69.9634 11.536C69.9634 11.8773 70.006 12.2133 70.0914 12.544C70.1767 12.8747 70.31 13.1733 70.4914 13.44C70.6727 13.696 70.902 13.904 71.1794 14.064C71.4674 14.224 71.8034 14.304 72.1874 14.304C72.5074 14.304 72.8167 14.24 73.1154 14.112C73.414 13.9733 73.686 13.7973 73.9314 13.584L74.8594 15.136C74.4327 15.5093 73.9634 15.7867 73.4514 15.968C72.95 16.1387 72.4434 16.224 71.9314 16.224ZM79.8205 16.224C79.2658 16.224 78.7272 16.1173 78.2045 15.904C77.6818 15.6907 77.2232 15.3867 76.8285 14.992C76.4338 14.5867 76.1138 14.096 75.8685 13.52C75.6338 12.9333 75.5165 12.272 75.5165 11.536C75.5165 10.7893 75.6338 10.1227 75.8685 9.536C76.1138 8.94933 76.4338 8.45867 76.8285 8.064C77.2232 7.65867 77.6818 7.34933 78.2045 7.136C78.7272 6.92267 79.2658 6.816 79.8205 6.816C80.3858 6.816 80.9245 6.92267 81.4365 7.136C81.9592 7.34933 82.4178 7.65867 82.8125 8.064C83.2072 8.45867 83.5218 8.94933 83.7565 9.536C84.0018 10.1227 84.1245 10.7893 84.1245 11.536C84.1245 12.272 84.0018 12.9333 83.7565 13.52C83.5218 14.096 83.2072 14.5867 82.8125 14.992C82.4178 15.3867 81.9592 15.6907 81.4365 15.904C80.9245 16.1173 80.3858 16.224 79.8205 16.224ZM79.8205 14.304C80.4285 14.304 80.8978 14.0533 81.2285 13.552C81.5592 13.0507 81.7245 12.3787 81.7245 11.536C81.7245 10.672 81.5592 9.98933 81.2285 9.488C80.8978 8.98667 80.4285 8.736 79.8205 8.736C79.2125 8.736 78.7432 8.98667 78.4125 9.488C78.0818 9.98933 77.9165 10.672 77.9165 11.536C77.9165 12.3787 78.0818 13.0507 78.4125 13.552C78.7432 14.0533 79.2125 14.304 79.8205 14.304ZM86.0921 3.232H88.4281V16H86.0921V3.232ZM94.883 16.224C94.3283 16.224 93.7897 16.1173 93.267 15.904C92.7443 15.6907 92.2857 15.3867 91.891 14.992C91.4963 14.5867 91.1763 14.096 90.931 13.52C90.6963 12.9333 90.579 12.272 90.579 11.536C90.579 10.7893 90.6963 10.1227 90.931 9.536C91.1763 8.94933 91.4963 8.45867 91.891 8.064C92.2857 7.65867 92.7443 7.34933 93.267 7.136C93.7897 6.92267 94.3283 6.816 94.883 6.816C95.4483 6.816 95.987 6.92267 96.499 7.136C97.0217 7.34933 97.4803 7.65867 97.875 8.064C98.2697 8.45867 98.5843 8.94933 98.819 9.536C99.0643 10.1227 99.187 10.7893 99.187 11.536C99.187 12.272 99.0643 12.9333 98.819 13.52C98.5843 14.096 98.2697 14.5867 97.875 14.992C97.4803 15.3867 97.0217 15.6907 96.499 15.904C95.987 16.1173 95.4483 16.224 94.883 16.224ZM94.883 14.304C95.491 14.304 95.9603 14.0533 96.291 13.552C96.6217 13.0507 96.787 12.3787 96.787 11.536C96.787 10.672 96.6217 9.98933 96.291 9.488C95.9603 8.98667 95.491 8.736 94.883 8.736C94.275 8.736 93.8057 8.98667 93.475 9.488C93.1443 9.98933 92.979 10.672 92.979 11.536C92.979 12.3787 93.1443 13.0507 93.475 13.552C93.8057 14.0533 94.275 14.304 94.883 14.304ZM103.075 7.04L103.235 8.624H103.299C103.629 8.03733 104.013 7.58933 104.451 7.28C104.899 6.97067 105.363 6.816 105.843 6.816C106.088 6.816 106.291 6.83733 106.451 6.88C106.611 6.912 106.76 6.95467 106.899 7.008L106.483 9.04C106.333 8.98667 106.184 8.94933 106.035 8.928C105.896 8.90667 105.736 8.896 105.555 8.896C105.203 8.896 104.835 9.02933 104.451 9.296C104.067 9.552 103.747 10.0053 103.491 10.656V16H101.155V7.04H103.075Z" fill="#222222"/>
<path d="M212.383 16.224C211.583 16.224 210.804 16.0747 210.047 15.776C209.3 15.4773 208.639 15.0507 208.063 14.496L209.423 12.864C209.849 13.2587 210.324 13.5787 210.847 13.824C211.38 14.0587 211.908 14.176 212.431 14.176C213.049 14.176 213.519 14.0533 213.839 13.808C214.159 13.5627 214.319 13.232 214.319 12.816C214.319 12.592 214.276 12.4053 214.191 12.256C214.105 12.1067 213.983 11.9733 213.823 11.856C213.673 11.7387 213.487 11.632 213.263 11.536C213.049 11.44 212.809 11.3333 212.543 11.216L210.959 10.544C210.543 10.3733 210.153 10.1493 209.791 9.872C209.439 9.59467 209.145 9.25333 208.911 8.848C208.676 8.432 208.559 7.936 208.559 7.36C208.559 6.88 208.66 6.432 208.863 6.016C209.065 5.58933 209.348 5.22667 209.711 4.928C210.073 4.61867 210.505 4.37867 211.007 4.208C211.508 4.02667 212.057 3.936 212.655 3.936C213.359 3.936 214.031 4.06933 214.671 4.336C215.321 4.592 215.887 4.96533 216.367 5.456L215.167 6.944C214.793 6.63467 214.404 6.39467 213.999 6.224C213.593 6.05333 213.145 5.968 212.655 5.968C212.132 5.968 211.716 6.08 211.407 6.304C211.097 6.51733 210.943 6.82133 210.943 7.216C210.943 7.41867 210.991 7.59467 211.087 7.744C211.193 7.89333 211.327 8.02667 211.487 8.144C211.657 8.26133 211.855 8.37333 212.079 8.48C212.303 8.576 212.543 8.672 212.799 8.768L214.351 9.424C215.087 9.72267 215.668 10.1173 216.095 10.608C216.521 11.0987 216.735 11.776 216.735 12.64C216.735 13.12 216.633 13.5787 216.431 14.016C216.239 14.4533 215.956 14.8373 215.583 15.168C215.209 15.488 214.751 15.744 214.207 15.936C213.673 16.128 213.065 16.224 212.383 16.224ZM222.527 16.224C221.908 16.224 221.327 16.1173 220.783 15.904C220.239 15.6907 219.764 15.3867 219.359 14.992C218.964 14.5867 218.65 14.096 218.415 13.52C218.191 12.9333 218.079 12.272 218.079 11.536C218.079 10.8107 218.196 10.16 218.431 9.584C218.666 8.99733 218.975 8.50133 219.359 8.096C219.754 7.68 220.202 7.36533 220.703 7.152C221.204 6.928 221.722 6.816 222.255 6.816C222.874 6.816 223.412 6.92267 223.871 7.136C224.34 7.34933 224.73 7.648 225.039 8.032C225.359 8.416 225.599 8.86933 225.759 9.392C225.919 9.91467 225.999 10.4853 225.999 11.104C225.999 11.3173 225.988 11.5253 225.967 11.728C225.946 11.92 225.919 12.0693 225.887 12.176H220.367C220.463 12.912 220.73 13.472 221.167 13.856C221.615 14.2293 222.175 14.416 222.847 14.416C223.22 14.416 223.567 14.3627 223.887 14.256C224.218 14.1493 224.543 13.9947 224.863 13.792L225.663 15.232C225.215 15.5413 224.724 15.7867 224.191 15.968C223.658 16.1387 223.103 16.224 222.527 16.224ZM223.983 10.624C223.983 10.016 223.844 9.536 223.567 9.184C223.29 8.82133 222.863 8.64 222.287 8.64C221.818 8.64 221.396 8.81067 221.023 9.152C220.65 9.48267 220.42 9.97333 220.335 10.624H223.983ZM231.744 16.224C231.125 16.224 230.549 16.1173 230.016 15.904C229.483 15.6907 229.019 15.3867 228.624 14.992C228.24 14.5867 227.936 14.096 227.712 13.52C227.488 12.9333 227.376 12.272 227.376 11.536C227.376 10.7893 227.499 10.1227 227.744 9.536C228 8.94933 228.336 8.45867 228.752 8.064C229.168 7.65867 229.653 7.34933 230.208 7.136C230.763 6.92267 231.344 6.816 231.952 6.816C232.507 6.816 232.997 6.912 233.424 7.104C233.851 7.296 234.229 7.53067 234.56 7.808L233.44 9.328C233.216 9.136 232.992 8.992 232.768 8.896C232.555 8.78933 232.32 8.736 232.064 8.736C231.381 8.736 230.827 8.98667 230.4 9.488C229.984 9.98933 229.776 10.672 229.776 11.536C229.776 11.8773 229.819 12.2133 229.904 12.544C229.989 12.8747 230.123 13.1733 230.304 13.44C230.485 13.696 230.715 13.904 230.992 14.064C231.28 14.224 231.616 14.304 232 14.304C232.32 14.304 232.629 14.24 232.928 14.112C233.227 13.9733 233.499 13.7973 233.744 13.584L234.672 15.136C234.245 15.5093 233.776 15.7867 233.264 15.968C232.763 16.1387 232.256 16.224 231.744 16.224ZM239.633 16.224C239.078 16.224 238.54 16.1173 238.017 15.904C237.494 15.6907 237.036 15.3867 236.641 14.992C236.246 14.5867 235.926 14.096 235.681 13.52C235.446 12.9333 235.329 12.272 235.329 11.536C235.329 10.7893 235.446 10.1227 235.681 9.536C235.926 8.94933 236.246 8.45867 236.641 8.064C237.036 7.65867 237.494 7.34933 238.017 7.136C238.54 6.92267 239.078 6.816 239.633 6.816C240.198 6.816 240.737 6.92267 241.249 7.136C241.772 7.34933 242.23 7.65867 242.625 8.064C243.02 8.45867 243.334 8.94933 243.569 9.536C243.814 10.1227 243.937 10.7893 243.937 11.536C243.937 12.272 243.814 12.9333 243.569 13.52C243.334 14.096 243.02 14.5867 242.625 14.992C242.23 15.3867 241.772 15.6907 241.249 15.904C240.737 16.1173 240.198 16.224 239.633 16.224ZM239.633 14.304C240.241 14.304 240.71 14.0533 241.041 13.552C241.372 13.0507 241.537 12.3787 241.537 11.536C241.537 10.672 241.372 9.98933 241.041 9.488C240.71 8.98667 240.241 8.736 239.633 8.736C239.025 8.736 238.556 8.98667 238.225 9.488C237.894 9.98933 237.729 10.672 237.729 11.536C237.729 12.3787 237.894 13.0507 238.225 13.552C238.556 14.0533 239.025 14.304 239.633 14.304ZM247.825 7.04L247.985 8.224H248.049C248.443 7.84 248.875 7.50933 249.345 7.232C249.814 6.95467 250.353 6.816 250.961 6.816C251.931 6.816 252.635 7.136 253.073 7.776C253.51 8.40533 253.729 9.28533 253.729 10.416V16H251.377V10.704C251.377 10.0107 251.275 9.52533 251.073 9.248C250.881 8.97067 250.561 8.832 250.113 8.832C249.739 8.832 249.419 8.91733 249.153 9.088C248.886 9.25867 248.582 9.50933 248.241 9.84V16H245.905V7.04H247.825ZM259.307 16.224C258.752 16.224 258.245 16.1173 257.787 15.904C257.339 15.6907 256.955 15.3813 256.635 14.976C256.315 14.5707 256.069 14.08 255.899 13.504C255.728 12.928 255.643 12.272 255.643 11.536C255.643 10.8 255.744 10.144 255.947 9.568C256.16 8.98133 256.443 8.48533 256.795 8.08C257.147 7.67467 257.547 7.36533 257.995 7.152C258.453 6.928 258.923 6.816 259.403 6.816C259.915 6.816 260.341 6.90667 260.683 7.088C261.024 7.25867 261.355 7.49333 261.675 7.792L261.579 6.384V3.232H263.931V16H262.027L261.835 15.072H261.787C261.456 15.392 261.077 15.664 260.651 15.888C260.235 16.112 259.787 16.224 259.307 16.224ZM259.915 14.288C260.224 14.288 260.512 14.2187 260.779 14.08C261.056 13.9413 261.323 13.7013 261.579 13.36V9.424C261.301 9.17867 261.024 9.008 260.747 8.912C260.469 8.80533 260.192 8.752 259.915 8.752C259.659 8.752 259.419 8.81067 259.195 8.928C258.971 9.04533 258.773 9.22133 258.603 9.456C258.443 9.69067 258.309 9.97867 258.203 10.32C258.107 10.6613 258.059 11.056 258.059 11.504C258.059 13.36 258.677 14.288 259.915 14.288ZM266.452 3.232H268.788V16H266.452V3.232ZM272.666 19.6L273.914 16.048L270.442 7.04H272.81L274.234 11.2C274.373 11.6053 274.501 12.016 274.618 12.432C274.736 12.848 274.858 13.28 274.986 13.728H275.066C275.173 13.312 275.28 12.8907 275.386 12.464C275.493 12.0373 275.6 11.616 275.706 11.2L276.938 7.04H279.194L276.09 16.256L274.986 19.6H272.666ZM289.335 16.224C288.588 16.224 287.884 16.0907 287.223 15.824C286.562 15.5573 285.986 15.168 285.495 14.656C285.004 14.144 284.615 13.5093 284.327 12.752C284.05 11.9947 283.911 11.12 283.911 10.128C283.911 9.14667 284.055 8.27733 284.343 7.52C284.642 6.752 285.042 6.10133 285.543 5.568C286.044 5.03467 286.626 4.62933 287.287 4.352C287.959 4.07467 288.668 3.936 289.415 3.936C290.183 3.936 290.855 4.09067 291.431 4.4C292.018 4.69867 292.503 5.05067 292.887 5.456L291.639 6.96C291.34 6.672 291.015 6.43733 290.663 6.256C290.311 6.064 289.911 5.968 289.463 5.968C289.015 5.968 288.599 6.064 288.215 6.256C287.831 6.43733 287.5 6.704 287.223 7.056C286.946 7.408 286.727 7.83467 286.567 8.336C286.407 8.83733 286.327 9.408 286.327 10.048C286.327 10.688 286.396 11.264 286.535 11.776C286.684 12.288 286.892 12.7253 287.159 13.088C287.436 13.44 287.762 13.712 288.135 13.904C288.519 14.0853 288.946 14.176 289.415 14.176C289.927 14.176 290.38 14.0693 290.775 13.856C291.18 13.632 291.543 13.3493 291.863 13.008L293.111 14.48C292.14 15.6427 290.882 16.224 289.335 16.224ZM298.571 16.224C298.016 16.224 297.477 16.1173 296.955 15.904C296.432 15.6907 295.973 15.3867 295.579 14.992C295.184 14.5867 294.864 14.096 294.618 13.52C294.384 12.9333 294.267 12.272 294.267 11.536C294.267 10.7893 294.384 10.1227 294.618 9.536C294.864 8.94933 295.184 8.45867 295.579 8.064C295.973 7.65867 296.432 7.34933 296.955 7.136C297.477 6.92267 298.016 6.816 298.571 6.816C299.136 6.816 299.675 6.92267 300.187 7.136C300.709 7.34933 301.168 7.65867 301.562 8.064C301.957 8.45867 302.272 8.94933 302.507 9.536C302.752 10.1227 302.875 10.7893 302.875 11.536C302.875 12.272 302.752 12.9333 302.507 13.52C302.272 14.096 301.957 14.5867 301.562 14.992C301.168 15.3867 300.709 15.6907 300.187 15.904C299.675 16.1173 299.136 16.224 298.571 16.224ZM298.571 14.304C299.179 14.304 299.648 14.0533 299.979 13.552C300.309 13.0507 300.475 12.3787 300.475 11.536C300.475 10.672 300.309 9.98933 299.979 9.488C299.648 8.98667 299.179 8.736 298.571 8.736C297.963 8.736 297.493 8.98667 297.163 9.488C296.832 9.98933 296.667 10.672 296.667 11.536C296.667 12.3787 296.832 13.0507 297.163 13.552C297.493 14.0533 297.963 14.304 298.571 14.304ZM304.842 3.232H307.178V16H304.842V3.232ZM313.633 16.224C313.078 16.224 312.54 16.1173 312.017 15.904C311.494 15.6907 311.036 15.3867 310.641 14.992C310.246 14.5867 309.926 14.096 309.681 13.52C309.446 12.9333 309.329 12.272 309.329 11.536C309.329 10.7893 309.446 10.1227 309.681 9.536C309.926 8.94933 310.246 8.45867 310.641 8.064C311.036 7.65867 311.494 7.34933 312.017 7.136C312.54 6.92267 313.078 6.816 313.633 6.816C314.198 6.816 314.737 6.92267 315.249 7.136C315.772 7.34933 316.23 7.65867 316.625 8.064C317.02 8.45867 317.334 8.94933 317.569 9.536C317.814 10.1227 317.937 10.7893 317.937 11.536C317.937 12.272 317.814 12.9333 317.569 13.52C317.334 14.096 317.02 14.5867 316.625 14.992C316.23 15.3867 315.772 15.6907 315.249 15.904C314.737 16.1173 314.198 16.224 313.633 16.224ZM313.633 14.304C314.241 14.304 314.71 14.0533 315.041 13.552C315.372 13.0507 315.537 12.3787 315.537 11.536C315.537 10.672 315.372 9.98933 315.041 9.488C314.71 8.98667 314.241 8.736 313.633 8.736C313.025 8.736 312.556 8.98667 312.225 9.488C311.894 9.98933 311.729 10.672 311.729 11.536C311.729 12.3787 311.894 13.0507 312.225 13.552C312.556 14.0533 313.025 14.304 313.633 14.304ZM321.825 7.04L321.985 8.624H322.049C322.379 8.03733 322.763 7.58933 323.201 7.28C323.649 6.97067 324.113 6.816 324.593 6.816C324.838 6.816 325.041 6.83733 325.201 6.88C325.361 6.912 325.51 6.95467 325.649 7.008L325.233 9.04C325.083 8.98667 324.934 8.94933 324.785 8.928C324.646 8.90667 324.486 8.896 324.305 8.896C323.953 8.896 323.585 9.02933 323.201 9.296C322.817 9.552 322.497 10.0053 322.241 10.656V16H319.905V7.04H321.825Z" fill="#222222"/>
<circle cx="242" cy="70" r="35" fill="#CEB198"/>
<circle cx="352" cy="70" r="35" fill="#F5EAD9"/>
<circle cx="462" cy="70" r="35" fill="#F6F7EF"/>
</svg>
