<svg width="444" height="124" viewBox="0 0 444 124" fill="none" xmlns="http://www.w3.org/2000/svg">
<rect x="1" y="1" width="122" height="122" rx="61" fill="white"/>
<rect x="1" y="1" width="122" height="122" rx="61" stroke="#F67499" stroke-width="2"/>
<path d="M32.7893 50.16C33.44 50.16 34.048 50.224 34.6133 50.352C35.1786 50.4693 35.6693 50.672 36.0853 50.96C36.5013 51.248 36.8266 51.632 37.0613 52.112C37.3066 52.5813 37.4293 53.168 37.4293 53.872C37.4293 54.544 37.3066 55.1307 37.0613 55.632C36.8266 56.1227 36.5013 56.528 36.0853 56.848C35.68 57.168 35.2 57.408 34.6453 57.568C34.0906 57.7173 33.4933 57.792 32.8533 57.792H31.2693V62H28.9013V50.16H32.7893ZM32.6933 55.92C34.304 55.92 35.1093 55.2373 35.1093 53.872C35.1093 53.1787 34.896 52.6987 34.4693 52.432C34.0533 52.1653 33.4346 52.032 32.6133 52.032H31.2693V55.92H32.6933ZM41.3012 53.04L41.4612 54.624H41.5252C41.8559 54.0373 42.2399 53.5893 42.6772 53.28C43.1252 52.9707 43.5892 52.816 44.0692 52.816C44.3145 52.816 44.5172 52.8373 44.6772 52.88C44.8372 52.912 44.9865 52.9547 45.1252 53.008L44.7092 55.04C44.5599 54.9867 44.4105 54.9493 44.2612 54.928C44.1225 54.9067 43.9625 54.896 43.7812 54.896C43.4292 54.896 43.0612 55.0293 42.6772 55.296C42.2932 55.552 41.9732 56.0053 41.7172 56.656V62H39.3812V53.04H41.3012ZM48.0579 62.16C47.6633 62.16 47.3006 62.1013 46.9699 61.984C46.6393 61.856 46.3566 61.68 46.1219 61.456C45.8979 61.2213 45.7219 60.944 45.5939 60.624C45.4659 60.304 45.4019 59.952 45.4019 59.568C45.3486 58.4693 45.7273 57.6587 46.5379 57.136C47.3593 56.6027 48.6979 56.3093 50.5539 56.256C50.5966 55.8827 50.5273 55.504 50.3459 55.12C50.1539 54.8427 49.7166 54.704 49.0339 54.704C48.6179 54.704 48.1806 54.7787 47.7219 54.928C47.2739 55.0773 46.8473 55.2853 46.4419 55.552L45.7379 53.872C46.2286 53.5733 46.7939 53.3227 47.4339 53.12C48.0846 52.9173 48.7619 52.816 49.4659 52.816C51.7593 52.816 52.9059 54.1333 52.9059 56.768V62H50.9859L50.8099 61.088H50.7619C50.3779 61.4187 49.9566 61.68 49.4979 61.872C49.0499 62.064 48.5699 62.16 48.0579 62.16ZM48.7779 60.368C49.1193 60.3573 49.4286 60.2827 49.7059 60.144C49.9939 59.9947 50.2766 59.7813 50.5539 59.504V57.696C50.2766 57.7173 49.9993 57.744 49.7219 57.776C49.4553 57.7973 49.1939 57.8293 48.9379 57.872C48.4259 57.9467 48.0633 58.1013 47.8499 58.336C47.6473 58.5707 47.5513 58.848 47.5619 59.168C47.5726 59.5413 47.6899 59.8347 47.9139 60.048C48.1486 60.2613 48.4366 60.368 48.7779 60.368ZM59.1111 62.224C58.4924 62.224 57.9164 62.1173 57.3831 61.904C56.8497 61.6907 56.3857 61.3867 55.9911 60.992C55.6071 60.5867 55.3031 60.096 55.0791 59.52C54.8551 58.9333 54.7431 58.272 54.7431 57.536C54.7431 56.7893 54.8657 56.1227 55.1111 55.536C55.3671 54.9493 55.7031 54.4587 56.1191 54.064C56.5351 53.6587 57.0204 53.3493 57.5751 53.136C58.1297 52.9227 58.7111 52.816 59.3191 52.816C59.8737 52.816 60.3644 52.912 60.7911 53.104C61.2177 53.296 61.5964 53.5307 61.9271 53.808L60.8071 55.328C60.5831 55.136 60.3591 54.992 60.1351 54.896C59.9217 54.7893 59.6871 54.736 59.4311 54.736C58.7484 54.736 58.1937 54.9867 57.7671 55.488C57.3511 55.9893 57.1431 56.672 57.1431 57.536C57.1431 57.8773 57.1857 58.2133 57.2711 58.544C57.3564 58.8747 57.4897 59.1733 57.6711 59.44C57.8524 59.696 58.0817 59.904 58.3591 60.064C58.6471 60.224 58.9831 60.304 59.3671 60.304C59.6871 60.304 59.9964 60.24 60.2951 60.112C60.5937 59.9733 60.8657 59.7973 61.1111 59.584L62.0391 61.136C61.6124 61.5093 61.1431 61.7867 60.6311 61.968C60.1297 62.1387 59.6231 62.224 59.1111 62.224ZM67.0206 62.224C66.4872 62.224 66.0339 62.144 65.6606 61.984C65.2872 61.824 64.9832 61.6 64.7486 61.312C64.5139 61.0133 64.3432 60.656 64.2366 60.24C64.1299 59.824 64.0766 59.3653 64.0766 58.864V54.896H62.8126V53.152L64.1886 53.04L64.4606 50.64H66.4286V53.04H68.6366V54.896H66.4286V58.864C66.4286 59.8667 66.8339 60.368 67.6446 60.368C67.7939 60.368 67.9486 60.352 68.1086 60.32C68.2686 60.2773 68.4072 60.2293 68.5246 60.176L68.9086 61.888C68.6632 61.9733 68.3859 62.048 68.0766 62.112C67.7672 62.1867 67.4152 62.224 67.0206 62.224ZM70.2513 51.6V49.328H72.5873V51.6H70.2513ZM70.2353 53.04H72.5713V62H70.2353V53.04ZM78.6892 62.224C78.0705 62.224 77.4945 62.1173 76.9612 61.904C76.4279 61.6907 75.9639 61.3867 75.5692 60.992C75.1852 60.5867 74.8812 60.096 74.6572 59.52C74.4332 58.9333 74.3212 58.272 74.3212 57.536C74.3212 56.7893 74.4439 56.1227 74.6892 55.536C74.9452 54.9493 75.2812 54.4587 75.6972 54.064C76.1132 53.6587 76.5985 53.3493 77.1532 53.136C77.7079 52.9227 78.2892 52.816 78.8972 52.816C79.4519 52.816 79.9425 52.912 80.3692 53.104C80.7959 53.296 81.1745 53.5307 81.5052 53.808L80.3852 55.328C80.1612 55.136 79.9372 54.992 79.7132 54.896C79.4999 54.7893 79.2652 54.736 79.0092 54.736C78.3265 54.736 77.7719 54.9867 77.3452 55.488C76.9292 55.9893 76.7212 56.672 76.7212 57.536C76.7212 57.8773 76.7639 58.2133 76.8492 58.544C76.9345 58.8747 77.0679 59.1733 77.2492 59.44C77.4305 59.696 77.6599 59.904 77.9372 60.064C78.2252 60.224 78.5612 60.304 78.9452 60.304C79.2652 60.304 79.5745 60.24 79.8732 60.112C80.1719 59.9733 80.4439 59.7973 80.6892 59.584L81.6172 61.136C81.1905 61.5093 80.7212 61.7867 80.2092 61.968C79.7079 62.1387 79.2012 62.224 78.6892 62.224ZM85.5267 62.16C85.132 62.16 84.7694 62.1013 84.4387 61.984C84.108 61.856 83.8254 61.68 83.5907 61.456C83.3667 61.2213 83.1907 60.944 83.0627 60.624C82.9347 60.304 82.8707 59.952 82.8707 59.568C82.8174 58.4693 83.196 57.6587 84.0067 57.136C84.828 56.6027 86.1667 56.3093 88.0227 56.256C88.0654 55.8827 87.996 55.504 87.8147 55.12C87.6227 54.8427 87.1854 54.704 86.5027 54.704C86.0867 54.704 85.6494 54.7787 85.1907 54.928C84.7427 55.0773 84.316 55.2853 83.9107 55.552L83.2067 53.872C83.6974 53.5733 84.2627 53.3227 84.9027 53.12C85.5534 52.9173 86.2307 52.816 86.9347 52.816C89.228 52.816 90.3747 54.1333 90.3747 56.768V62H88.4547L88.2787 61.088H88.2307C87.8467 61.4187 87.4254 61.68 86.9667 61.872C86.5187 62.064 86.0387 62.16 85.5267 62.16ZM86.2467 60.368C86.588 60.3573 86.8974 60.2827 87.1747 60.144C87.4627 59.9947 87.7454 59.7813 88.0227 59.504V57.696C87.7454 57.7173 87.468 57.744 87.1907 57.776C86.924 57.7973 86.6627 57.8293 86.4067 57.872C85.8947 57.9467 85.532 58.1013 85.3187 58.336C85.116 58.5707 85.02 58.848 85.0307 59.168C85.0414 59.5413 85.1587 59.8347 85.3827 60.048C85.6174 60.2613 85.9054 60.368 86.2467 60.368ZM92.7718 49.232H95.1078V62H92.7718V49.232ZM37.619 84.592C36.8617 83.3547 36.275 82.0693 35.859 80.736C35.443 79.392 35.235 77.9147 35.235 76.304C35.235 74.704 35.443 73.2373 35.859 71.904C36.275 70.56 36.8617 69.2693 37.619 68.032L39.091 68.656C38.419 69.8507 37.923 71.0827 37.603 72.352C37.2937 73.6107 37.139 74.928 37.139 76.304C37.139 77.7013 37.2937 79.0293 37.603 80.288C37.923 81.5467 38.419 82.7733 39.091 83.968L37.619 84.592ZM50.7219 76.08V68.656H52.8339V76.08H50.7219ZM48.6419 75.904C47.7992 75.6587 47.0899 75.2907 46.5139 74.8C45.9485 74.3093 45.5005 73.744 45.1699 73.104C44.8285 73.808 44.3592 74.4267 43.7619 74.96C43.1645 75.4827 42.4339 75.8773 41.5699 76.144L40.5459 74.496C41.1539 74.304 41.6765 74.0533 42.1139 73.744C42.5619 73.424 42.9299 73.072 43.2179 72.688C43.5059 72.2933 43.7192 71.8773 43.8579 71.44C43.9965 70.992 44.0659 70.544 44.0659 70.096V68.992H46.2099V70.096C46.2099 70.5227 46.2739 70.9493 46.4019 71.376C46.5405 71.8027 46.7485 72.2027 47.0259 72.576C47.3139 72.9387 47.6712 73.2693 48.0979 73.568C48.5352 73.856 49.0525 74.0853 49.6499 74.256L48.6419 75.904ZM53.2179 83.264H43.0419V79.216H50.7539V78.352H43.0259V76.736H52.8499V80.72H45.1379V81.632H53.2179V83.264ZM68.6406 77.296H55.3286V75.632H58.3206V73.856C57.2113 73.3547 56.6566 72.6347 56.6566 71.696C56.6566 71.2587 56.7793 70.864 57.0246 70.512C57.2806 70.16 57.638 69.8613 58.0966 69.616C58.566 69.3707 59.126 69.184 59.7766 69.056C60.438 68.928 61.174 68.864 61.9846 68.864C62.806 68.864 63.542 68.928 64.1926 69.056C64.854 69.184 65.414 69.3707 65.8726 69.616C66.342 69.8613 66.6993 70.16 66.9446 70.512C67.2006 70.864 67.3286 71.2587 67.3286 71.696C67.3286 72.176 67.1793 72.5973 66.8806 72.96C66.582 73.3227 66.1606 73.6267 65.6166 73.872V75.632H68.6406V77.296ZM61.9846 70.464C60.982 70.464 60.2033 70.5653 59.6486 70.768C59.1046 70.9707 58.8326 71.28 58.8326 71.696C58.8326 72.1013 59.1046 72.4053 59.6486 72.608C60.2033 72.8107 60.982 72.912 61.9846 72.912C63.0193 72.912 63.8033 72.8107 64.3366 72.608C64.8806 72.4053 65.1526 72.1013 65.1526 71.696C65.1526 71.28 64.8806 70.9707 64.3366 70.768C63.8033 70.5653 63.0193 70.464 61.9846 70.464ZM63.5046 75.632V74.416C63.27 74.4373 63.0246 74.4587 62.7686 74.48C62.5233 74.4907 62.262 74.496 61.9846 74.496C61.43 74.496 60.9126 74.464 60.4326 74.4V75.632H63.5046ZM61.9526 78.032C62.7526 78.032 63.4673 78.0907 64.0966 78.208C64.726 78.3253 65.2593 78.5013 65.6966 78.736C66.1446 78.96 66.486 79.2373 66.7206 79.568C66.9553 79.8987 67.0726 80.2773 67.0726 80.704C67.0726 81.1307 66.9553 81.5147 66.7206 81.856C66.486 82.1867 66.1446 82.464 65.6966 82.688C65.2593 82.9227 64.726 83.0987 64.0966 83.216C63.4673 83.3333 62.7526 83.392 61.9526 83.392C61.1526 83.392 60.438 83.3333 59.8086 83.216C59.1793 83.0987 58.646 82.9227 58.2086 82.688C57.7713 82.464 57.4353 82.1867 57.2006 81.856C56.966 81.5147 56.8486 81.1307 56.8486 80.704C56.8486 80.2773 56.966 79.8987 57.2006 79.568C57.4353 79.2373 57.7713 78.96 58.2086 78.736C58.646 78.5013 59.1793 78.3253 59.8086 78.208C60.438 78.0907 61.1526 78.032 61.9526 78.032ZM61.9526 81.792C63.9366 81.792 64.9286 81.4293 64.9286 80.704C64.9286 80.3307 64.6833 80.0587 64.1926 79.888C63.702 79.7173 62.9553 79.632 61.9526 79.632C60.95 79.632 60.2033 79.7173 59.7126 79.888C59.222 80.0587 58.9766 80.3307 58.9766 80.704C58.9766 81.4293 59.9686 81.792 61.9526 81.792ZM82.3674 77.408H80.2554V73.856H78.0794V72.16H80.2554V68.656H82.3674V77.408ZM77.9034 77.008C77.0927 76.7413 76.41 76.3627 75.8554 75.872C75.3007 75.3707 74.8687 74.784 74.5594 74.112C74.2287 74.848 73.7754 75.4933 73.1994 76.048C72.6234 76.6027 71.9034 77.0187 71.0394 77.296L69.9674 75.632C70.5647 75.4293 71.0767 75.168 71.5034 74.848C71.9407 74.528 72.298 74.1707 72.5754 73.776C72.8634 73.3707 73.0767 72.944 73.2154 72.496C73.354 72.048 73.4287 71.5947 73.4394 71.136H70.5434V69.456H78.4634V71.136H75.5994C75.61 71.552 75.6794 71.9733 75.8074 72.4C75.946 72.816 76.1487 73.216 76.4154 73.6C76.6927 73.9733 77.0394 74.3147 77.4554 74.624C77.8714 74.9227 78.362 75.168 78.9274 75.36L77.9034 77.008ZM82.3674 78.064V83.392H80.2554V79.744H72.3194V78.064H82.3674ZM84.9101 83.968C85.5821 82.7733 86.0728 81.5467 86.3821 80.288C86.7021 79.0293 86.8621 77.7013 86.8621 76.304C86.8621 74.928 86.7021 73.6107 86.3821 72.352C86.0728 71.0827 85.5821 69.8507 84.9101 68.656L86.3661 68.032C87.1341 69.2693 87.7261 70.56 88.1421 71.904C88.5581 73.2373 88.7661 74.704 88.7661 76.304C88.7661 77.9147 88.5528 79.392 88.1261 80.736C87.7101 82.0693 87.1235 83.3547 86.3661 84.592L84.9101 83.968Z" fill="#F67499"/>
<rect x="161" y="1" width="122" height="122" rx="61" fill="white"/>
<rect x="161" y="1" width="122" height="122" rx="61" stroke="#F67499" stroke-width="2"/>
<path d="M180.361 46.16L182.377 51.696C182.505 52.0693 182.628 52.448 182.745 52.832L183.097 53.984H183.177C183.305 53.6 183.423 53.216 183.529 52.832C183.647 52.448 183.769 52.0693 183.897 51.696L185.865 46.16H188.489V58H186.329V53.056C186.329 52.7787 186.335 52.4747 186.345 52.144C186.367 51.8027 186.393 51.4613 186.425 51.12C186.457 50.768 186.489 50.4267 186.521 50.096C186.553 49.7547 186.585 49.4453 186.617 49.168H186.553L185.593 51.952L183.769 56.928H182.409L180.569 51.952L179.625 49.168H179.561C179.593 49.4453 179.625 49.7547 179.657 50.096C179.7 50.4267 179.732 50.768 179.753 51.12C179.785 51.4613 179.812 51.8027 179.833 52.144C179.855 52.4747 179.865 52.7787 179.865 53.056V58H177.737V46.16H180.361ZM190.993 47.6V45.328H193.33V47.6H190.993ZM190.978 49.04H193.314V58H190.978V49.04ZM197.543 49.04L197.703 50.224H197.767C198.162 49.84 198.594 49.5093 199.063 49.232C199.533 48.9547 200.071 48.816 200.679 48.816C201.65 48.816 202.354 49.136 202.791 49.776C203.229 50.4053 203.447 51.2853 203.447 52.416V58H201.095V52.704C201.095 52.0107 200.994 51.5253 200.791 51.248C200.599 50.9707 200.279 50.832 199.831 50.832C199.458 50.832 199.138 50.9173 198.871 51.088C198.605 51.2587 198.301 51.5093 197.959 51.84V58H195.623V49.04H197.543ZM205.665 47.6V45.328H208.001V47.6H205.665ZM205.649 49.04H207.985V58H205.649V49.04ZM212.215 49.04L212.375 50.24H212.439C212.813 49.8453 213.218 49.5093 213.655 49.232C214.093 48.9547 214.605 48.816 215.191 48.816C215.831 48.816 216.349 48.9493 216.743 49.216C217.138 49.4827 217.442 49.872 217.655 50.384C218.061 49.936 218.487 49.5627 218.935 49.264C219.394 48.9653 219.917 48.816 220.503 48.816C221.463 48.816 222.167 49.136 222.615 49.776C223.063 50.4053 223.287 51.2853 223.287 52.416V58H220.935V52.704C220.935 52 220.834 51.5147 220.631 51.248C220.429 50.9707 220.114 50.832 219.687 50.832C219.175 50.832 218.599 51.168 217.959 51.84V58H215.607V52.704C215.607 52 215.506 51.5147 215.303 51.248C215.101 50.9707 214.786 50.832 214.359 50.832C213.847 50.832 213.271 51.168 212.631 51.84V58H210.295V49.04H212.215ZM227.925 58.16C227.53 58.16 227.168 58.1013 226.837 57.984C226.506 57.856 226.224 57.68 225.989 57.456C225.765 57.2213 225.589 56.944 225.461 56.624C225.333 56.304 225.269 55.952 225.269 55.568C225.216 54.4693 225.594 53.6587 226.405 53.136C227.226 52.6027 228.565 52.3093 230.421 52.256C230.464 51.8827 230.394 51.504 230.213 51.12C230.021 50.8427 229.584 50.704 228.901 50.704C228.485 50.704 228.048 50.7787 227.589 50.928C227.141 51.0773 226.714 51.2853 226.309 51.552L225.605 49.872C226.096 49.5733 226.661 49.3227 227.301 49.12C227.952 48.9173 228.629 48.816 229.333 48.816C231.626 48.816 232.773 50.1333 232.773 52.768V58H230.853L230.677 57.088H230.629C230.245 57.4187 229.824 57.68 229.365 57.872C228.917 58.064 228.437 58.16 227.925 58.16ZM228.645 56.368C228.986 56.3573 229.296 56.2827 229.573 56.144C229.861 55.9947 230.144 55.7813 230.421 55.504V53.696C230.144 53.7173 229.866 53.744 229.589 53.776C229.322 53.7973 229.061 53.8293 228.805 53.872C228.293 53.9467 227.93 54.1013 227.717 54.336C227.514 54.5707 227.418 54.848 227.429 55.168C227.44 55.5413 227.557 55.8347 227.781 56.048C228.016 56.2613 228.304 56.368 228.645 56.368ZM235.17 45.232H237.506V58H235.17V45.232ZM240.009 47.6V45.328H242.345V47.6H240.009ZM239.993 49.04H242.329V58H239.993V49.04ZM247.199 58.224C246.591 58.224 245.983 58.1067 245.375 57.872C244.767 57.6373 244.239 57.3333 243.791 56.96L244.863 55.488C245.268 55.7973 245.663 56.0373 246.047 56.208C246.442 56.3787 246.847 56.464 247.263 56.464C247.711 56.464 248.036 56.3787 248.239 56.208C248.452 56.0267 248.559 55.7973 248.559 55.52C248.559 55.3493 248.506 55.2053 248.399 55.088C248.292 54.96 248.148 54.848 247.967 54.752C247.796 54.6453 247.599 54.5493 247.375 54.464C247.151 54.368 246.922 54.272 246.687 54.176C246.399 54.0693 246.111 53.9467 245.823 53.808C245.535 53.6587 245.274 53.4827 245.039 53.28C244.804 53.0667 244.612 52.8213 244.463 52.544C244.314 52.2667 244.239 51.9413 244.239 51.568C244.239 51.1627 244.319 50.7947 244.479 50.464C244.639 50.1227 244.863 49.8293 245.151 49.584C245.439 49.3387 245.786 49.152 246.191 49.024C246.607 48.8853 247.066 48.816 247.567 48.816C248.239 48.816 248.82 48.9333 249.311 49.168C249.812 49.392 250.25 49.6427 250.623 49.92L249.567 51.344C249.247 51.12 248.927 50.9387 248.607 50.8C248.298 50.6507 247.972 50.576 247.631 50.576C247.226 50.576 246.927 50.656 246.735 50.816C246.543 50.976 246.447 51.184 246.447 51.44C246.447 51.6 246.495 51.7387 246.591 51.856C246.698 51.9733 246.836 52.08 247.007 52.176C247.178 52.272 247.37 52.3627 247.583 52.448C247.807 52.5227 248.036 52.6027 248.271 52.688C248.57 52.8053 248.863 52.9333 249.151 53.072C249.45 53.2107 249.716 53.3813 249.951 53.584C250.196 53.7867 250.394 54.0373 250.543 54.336C250.692 54.624 250.767 54.976 250.767 55.392C250.767 55.7867 250.687 56.1547 250.527 56.496C250.378 56.8373 250.154 57.136 249.855 57.392C249.556 57.648 249.183 57.8507 248.735 58C248.298 58.1493 247.786 58.224 247.199 58.224ZM254.481 49.04L254.641 50.24H254.705C255.078 49.8453 255.484 49.5093 255.921 49.232C256.358 48.9547 256.87 48.816 257.457 48.816C258.097 48.816 258.614 48.9493 259.009 49.216C259.404 49.4827 259.708 49.872 259.921 50.384C260.326 49.936 260.753 49.5627 261.201 49.264C261.66 48.9653 262.182 48.816 262.769 48.816C263.729 48.816 264.433 49.136 264.881 49.776C265.329 50.4053 265.553 51.2853 265.553 52.416V58H263.201V52.704C263.201 52 263.1 51.5147 262.897 51.248C262.694 50.9707 262.38 50.832 261.953 50.832C261.441 50.832 260.865 51.168 260.225 51.84V58H257.873V52.704C257.873 52 257.772 51.5147 257.569 51.248C257.366 50.9707 257.052 50.832 256.625 50.832C256.113 50.832 255.537 51.168 254.897 51.84V58H252.561V49.04H254.481ZM182.4 80.592C181.643 79.3547 181.056 78.0693 180.64 76.736C180.224 75.392 180.016 73.9147 180.016 72.304C180.016 70.704 180.224 69.2373 180.64 67.904C181.056 66.56 181.643 65.2693 182.4 64.032L183.872 64.656C183.2 65.8507 182.704 67.0827 182.384 68.352C182.075 69.6107 181.92 70.928 181.92 72.304C181.92 73.7013 182.075 75.0293 182.384 76.288C182.704 77.5467 183.2 78.7733 183.872 79.968L182.4 80.592ZM197.599 79.408H195.487V64.64H197.599V79.408ZM193.199 75.872H186.111V65.968H193.199V75.872ZM188.191 74.208H191.119V67.632H188.191V74.208ZM212.414 79.36H210.302V64.624H212.414V79.36ZM202.974 73.936C203.945 73.9147 204.942 73.856 205.966 73.76C207.001 73.664 208.067 73.5093 209.166 73.296L209.39 75.056C208.131 75.3227 206.899 75.504 205.694 75.6C204.489 75.696 203.321 75.744 202.19 75.744H200.878V66.032H202.974V73.936ZM215.437 71.552V65.312H222.413V67.568H225.037V64.64H227.149V72.016H225.037V69.232H222.413V71.552H215.437ZM217.517 66.976V69.904H220.349V66.976H217.517ZM227.565 79.2H217.453V75.12H225.053V74.256H217.421V72.64H227.149V76.64H219.533V77.568H227.565V79.2ZM241.803 79.408H239.691V64.624H241.803V79.408ZM232.491 74.24C233.611 74.24 234.662 74.2027 235.643 74.128C236.625 74.0533 237.633 73.9307 238.667 73.76L238.891 75.472C238.283 75.5787 237.691 75.6693 237.115 75.744C236.539 75.808 235.958 75.8613 235.371 75.904C234.785 75.936 234.187 75.9573 233.579 75.968C232.971 75.9787 232.331 75.984 231.659 75.984H230.331V69.92H235.115V67.568H230.315V65.888H237.275V71.584H232.491V74.24ZM244.842 69.136C245.535 69.072 246.149 68.9707 246.682 68.832C247.215 68.6827 247.669 68.5067 248.042 68.304C248.415 68.1013 248.714 67.8827 248.938 67.648C249.162 67.4027 249.317 67.152 249.402 66.896H245.482V65.216H256.378V66.896H252.442C252.591 67.408 253.039 67.8773 253.786 68.304C254.543 68.7307 255.621 69.008 257.018 69.136L256.282 70.784C254.831 70.656 253.669 70.352 252.794 69.872C251.93 69.392 251.306 68.8 250.922 68.096C250.527 68.8 249.893 69.392 249.018 69.872C248.154 70.352 247.002 70.656 245.562 70.784L244.842 69.136ZM257.578 72.992H244.266V71.312H257.578V72.992ZM255.994 74.08V79.2H245.818V74.08H255.994ZM253.914 77.552V75.744H247.882V77.552H253.914ZM259.129 79.968C259.801 78.7733 260.292 77.5467 260.601 76.288C260.921 75.0293 261.081 73.7013 261.081 72.304C261.081 70.928 260.921 69.6107 260.601 68.352C260.292 67.0827 259.801 65.8507 259.129 64.656L260.585 64.032C261.353 65.2693 261.945 66.56 262.361 67.904C262.777 69.2373 262.985 70.704 262.985 72.304C262.985 73.9147 262.772 75.392 262.345 76.736C261.929 78.0693 261.342 79.3547 260.585 80.592L259.129 79.968Z" fill="#F67499"/>
<rect x="321" y="1" width="122" height="122" rx="61" fill="white"/>
<rect x="321" y="1" width="122" height="122" rx="61" stroke="#F67499" stroke-width="2"/>
<path d="M361.962 46.16L362.906 51.936C362.991 52.576 363.082 53.2053 363.178 53.824C363.274 54.4427 363.364 55.072 363.45 55.712H363.514C363.631 55.072 363.754 54.4373 363.882 53.808C364.01 53.1787 364.138 52.5547 364.266 51.936L365.642 46.16H367.658L369.034 51.936C369.162 52.544 369.284 53.168 369.402 53.808C369.53 54.4373 369.658 55.072 369.786 55.712H369.866C369.951 55.072 370.036 54.4373 370.122 53.808C370.218 53.1787 370.308 52.5547 370.394 51.936L371.322 46.16H373.578L371.386 58H368.442L367.114 52.144C367.018 51.664 366.927 51.2 366.842 50.752C366.756 50.304 366.676 49.856 366.602 49.408H366.538C366.452 49.856 366.367 50.304 366.282 50.752C366.207 51.2 366.122 51.664 366.026 52.144L364.73 58H361.834L359.546 46.16H361.962ZM377.37 58.16C376.976 58.16 376.613 58.1013 376.282 57.984C375.952 57.856 375.669 57.68 375.434 57.456C375.21 57.2213 375.034 56.944 374.906 56.624C374.778 56.304 374.714 55.952 374.714 55.568C374.661 54.4693 375.04 53.6587 375.85 53.136C376.672 52.6027 378.01 52.3093 379.866 52.256C379.909 51.8827 379.84 51.504 379.658 51.12C379.466 50.8427 379.029 50.704 378.346 50.704C377.93 50.704 377.493 50.7787 377.034 50.928C376.586 51.0773 376.16 51.2853 375.754 51.552L375.05 49.872C375.541 49.5733 376.106 49.3227 376.746 49.12C377.397 48.9173 378.074 48.816 378.778 48.816C381.072 48.816 382.218 50.1333 382.218 52.768V58H380.298L380.122 57.088H380.074C379.69 57.4187 379.269 57.68 378.81 57.872C378.362 58.064 377.882 58.16 377.37 58.16ZM378.09 56.368C378.432 56.3573 378.741 56.2827 379.018 56.144C379.306 55.9947 379.589 55.7813 379.866 55.504V53.696C379.589 53.7173 379.312 53.744 379.034 53.776C378.768 53.7973 378.506 53.8293 378.25 53.872C377.738 53.9467 377.376 54.1013 377.162 54.336C376.96 54.5707 376.864 54.848 376.874 55.168C376.885 55.5413 377.002 55.8347 377.226 56.048C377.461 56.2613 377.749 56.368 378.09 56.368ZM386.536 49.04L386.696 50.624H386.76C387.09 50.0373 387.474 49.5893 387.912 49.28C388.36 48.9707 388.824 48.816 389.304 48.816C389.549 48.816 389.752 48.8373 389.912 48.88C390.072 48.912 390.221 48.9547 390.36 49.008L389.944 51.04C389.794 50.9867 389.645 50.9493 389.496 50.928C389.357 50.9067 389.197 50.896 389.016 50.896C388.664 50.896 388.296 51.0293 387.912 51.296C387.528 51.552 387.208 52.0053 386.952 52.656V58H384.616V49.04H386.536ZM393.504 49.04L393.664 50.24H393.728C394.102 49.8453 394.507 49.5093 394.944 49.232C395.382 48.9547 395.894 48.816 396.48 48.816C397.12 48.816 397.638 48.9493 398.032 49.216C398.427 49.4827 398.731 49.872 398.944 50.384C399.35 49.936 399.776 49.5627 400.224 49.264C400.683 48.9653 401.206 48.816 401.792 48.816C402.752 48.816 403.456 49.136 403.904 49.776C404.352 50.4053 404.576 51.2853 404.576 52.416V58H402.224V52.704C402.224 52 402.123 51.5147 401.92 51.248C401.718 50.9707 401.403 50.832 400.976 50.832C400.464 50.832 399.888 51.168 399.248 51.84V58H396.896V52.704C396.896 52 396.795 51.5147 396.592 51.248C396.39 50.9707 396.075 50.832 395.648 50.832C395.136 50.832 394.56 51.168 393.92 51.84V58H391.584V49.04H393.504ZM358.119 80.592C357.362 79.3547 356.775 78.0693 356.359 76.736C355.943 75.392 355.735 73.9147 355.735 72.304C355.735 70.704 355.943 69.2373 356.359 67.904C356.775 66.56 357.362 65.2693 358.119 64.032L359.591 64.656C358.919 65.8507 358.423 67.0827 358.103 68.352C357.794 69.6107 357.639 70.928 357.639 72.304C357.639 73.7013 357.794 75.0293 358.103 76.288C358.423 77.5467 358.919 78.7733 359.591 79.968L358.119 80.592ZM372.95 71.888V79.392H370.838V64.608H372.95V70.144H374.694V71.888H372.95ZM363.478 74.016C363.766 73.9947 364.054 73.968 364.342 73.936C364.641 73.904 364.95 73.8613 365.27 73.808L365.43 75.52C364.843 75.6373 364.294 75.712 363.782 75.744C363.281 75.7653 362.737 75.776 362.15 75.776H361.398V66.112H365.19V67.792H363.478V74.016ZM368.038 74.016C368.465 74.0053 368.833 73.984 369.142 73.952C369.462 73.92 369.782 73.8667 370.102 73.792L370.262 75.488C370.027 75.552 369.793 75.6053 369.558 75.648C369.323 75.68 369.067 75.7067 368.79 75.728C368.523 75.7493 368.225 75.7653 367.894 75.776C367.563 75.776 367.179 75.776 366.742 75.776H365.958V66.112H369.926V67.792H368.038V74.016ZM382.917 70.496V65.328H387.909V66.992H385.013V68.832H387.973V70.496H382.917ZM382.421 70.192C382.047 70.256 381.685 70.3093 381.333 70.352C380.991 70.384 380.639 70.416 380.277 70.448C379.925 70.4693 379.557 70.4853 379.173 70.496C378.799 70.496 378.394 70.496 377.957 70.496H377.077V65.328H382.165V66.992H379.173V68.832C379.717 68.8107 380.229 68.7787 380.709 68.736C381.199 68.6933 381.706 68.624 382.229 68.528L382.421 70.192ZM389.141 73.152H375.813V71.44H389.141V73.152ZM383.589 74.256C383.589 74.64 383.679 75.0187 383.861 75.392C384.042 75.7547 384.325 76.0907 384.709 76.4C385.093 76.7093 385.578 76.976 386.165 77.2C386.762 77.424 387.471 77.584 388.293 77.68L387.525 79.312C386.298 79.152 385.269 78.8427 384.437 78.384C383.605 77.936 382.965 77.376 382.517 76.704C382.069 77.376 381.423 77.936 380.581 78.384C379.749 78.8427 378.719 79.152 377.493 79.312L376.741 77.68C377.551 77.584 378.25 77.424 378.837 77.2C379.434 76.976 379.925 76.7093 380.309 76.4C380.693 76.0907 380.975 75.7547 381.157 75.392C381.349 75.0187 381.445 74.64 381.445 74.256V73.984H383.589V74.256ZM390.531 67.632V65.968H393.811V64.544H395.939V65.968H399.219V67.632H390.531ZM402.147 70V73.52H400.035V64.656H402.147V68.272H404.099V70H402.147ZM398.499 70.72C398.499 71.1147 398.409 71.4773 398.227 71.808C398.057 72.1387 397.811 72.4213 397.491 72.656C397.171 72.88 396.787 73.056 396.339 73.184C395.902 73.312 395.417 73.376 394.883 73.376C394.35 73.376 393.859 73.312 393.411 73.184C392.974 73.056 392.595 72.88 392.275 72.656C391.955 72.4213 391.705 72.1387 391.523 71.808C391.353 71.4773 391.267 71.1147 391.267 70.72C391.267 70.3253 391.353 69.968 391.523 69.648C391.705 69.3173 391.955 69.04 392.275 68.816C392.595 68.5813 392.974 68.4 393.411 68.272C393.859 68.144 394.35 68.08 394.883 68.08C395.417 68.08 395.902 68.144 396.339 68.272C396.787 68.4 397.171 68.5813 397.491 68.816C397.811 69.04 398.057 69.3173 398.227 69.648C398.409 69.968 398.499 70.3253 398.499 70.72ZM393.283 70.72C393.283 71.0933 393.427 71.3707 393.715 71.552C394.014 71.7333 394.403 71.824 394.883 71.824C395.363 71.824 395.747 71.7333 396.035 71.552C396.334 71.3707 396.483 71.0933 396.483 70.72C396.483 70.3573 396.334 70.0853 396.035 69.904C395.747 69.7227 395.363 69.632 394.883 69.632C394.403 69.632 394.014 69.7227 393.715 69.904C393.427 70.0853 393.283 70.3573 393.283 70.72ZM402.147 74.16V79.2H392.563V74.16H402.147ZM400.083 77.552V75.824H394.643V77.552H400.083ZM405.41 79.968C406.082 78.7733 406.573 77.5467 406.882 76.288C407.202 75.0293 407.362 73.7013 407.362 72.304C407.362 70.928 407.202 69.6107 406.882 68.352C406.573 67.0827 406.082 65.8507 405.41 64.656L406.866 64.032C407.634 65.2693 408.226 66.56 408.642 67.904C409.058 69.2373 409.266 70.704 409.266 72.304C409.266 73.9147 409.053 75.392 408.626 76.736C408.21 78.0693 407.623 79.3547 406.866 80.592L405.41 79.968Z" fill="#F67499"/>
</svg>
