<svg width="309" height="42" viewBox="0 0 309 42" fill="none" xmlns="http://www.w3.org/2000/svg">
<path d="M56.7852 31.0034L63.0637 28.8706C63.8194 30.2635 64.9675 31.4242 66.5081 32.3528C68.0777 33.2813 69.7055 33.7456 71.3914 33.7456C73.0482 33.7456 74.3708 33.3538 75.3589 32.5702C76.3763 31.7577 76.8851 30.7423 76.8851 29.5234C76.8851 28.1306 76.3183 27.028 75.1846 26.2155C74.051 25.3738 72.3797 24.5758 70.1706 23.8214C66.7406 22.6897 64.4443 21.8192 63.2816 21.2099C59.8227 19.3237 58.0932 16.5379 58.0932 12.8527C58.0932 9.83482 59.2995 7.39732 61.712 5.54018C64.1246 3.65402 67.2202 2.71094 70.999 2.71094C74.2545 2.71094 77.0014 3.47991 79.2395 5.01786C81.5067 6.52679 83.1781 8.4855 84.2536 10.894L78.1494 12.8962C76.231 10.2556 73.833 8.93528 70.9554 8.93528C69.2985 8.93528 67.9905 9.298 67.0313 10.0234C66.0721 10.7199 65.5925 11.6484 65.5925 12.8091C65.5925 13.3025 65.6651 13.7522 65.8105 14.1585C65.9558 14.5647 66.232 14.942 66.6389 15.2902C67.0749 15.6384 67.4383 15.9286 67.7289 16.1607C68.0487 16.3929 68.5719 16.654 69.2985 16.9442C70.0543 17.2344 70.6066 17.452 70.9554 17.5971C71.3332 17.7132 72.0018 17.9163 72.961 18.2065C73.9493 18.4966 74.6033 18.6998 74.9231 18.8159C76.231 19.2511 77.3937 19.7299 78.4111 20.2522C79.4575 20.7746 80.4602 21.4421 81.4196 22.2544C82.3788 23.0379 83.1199 24.0246 83.6432 25.2143C84.1663 26.404 84.4279 27.7389 84.4279 29.2187C84.4279 32.6139 83.1636 35.2544 80.6347 37.1407C78.1349 38.9978 74.9956 39.9264 71.217 39.9264C67.9324 39.9264 64.9966 39.1284 62.4096 37.5323C59.8227 35.9363 57.9478 33.7601 56.7852 31.0034ZM88.9625 39.1429V3.49442H113.074V9.71875H96.2002V17.6841H111.373V23.778H96.2002V32.9621H113.553V39.1429H88.9625ZM116.256 21.3405C116.256 15.74 117.681 11.2422 120.529 7.8471C123.407 4.423 127.186 2.71094 131.865 2.71094C136.545 2.71094 140.309 4.423 143.158 7.8471C146.036 11.2422 147.475 15.74 147.475 21.3405C147.475 26.9409 146.036 31.4387 143.158 34.8337C140.309 38.2288 136.545 39.9264 131.865 39.9264C127.157 39.9264 123.378 38.2288 120.529 34.8337C117.681 31.4387 116.256 26.9409 116.256 21.3405ZM123.756 21.3405C123.756 25.1998 124.468 28.2321 125.892 30.4375C127.316 32.6429 129.307 33.7456 131.865 33.7456C134.423 33.7456 136.415 32.6429 137.839 30.4375C139.263 28.2032 139.975 25.1708 139.975 21.3405C139.975 17.5391 139.263 14.5212 137.839 12.2868C136.415 10.0525 134.423 8.93528 131.865 8.93528C129.307 8.93528 127.316 10.0525 125.892 12.2868C124.468 14.5212 123.756 17.5391 123.756 21.3405ZM152.271 25.5625V3.49442H159.552V25.606C159.552 31.0323 161.645 33.7456 165.83 33.7456C170.016 33.7456 172.109 31.0323 172.109 25.606V3.49442H179.39V25.5625C179.39 30.2054 178.257 33.7601 175.989 36.2266C173.751 38.6931 170.365 39.9264 165.83 39.9264C161.499 39.9264 158.157 38.7512 155.802 36.4006C153.448 34.0212 152.271 30.4085 152.271 25.5625ZM186.017 39.1429V3.49442H193.255V32.9621H208.951V39.1429H186.017ZM223.776 39.1429V3.49442H238.033C241.928 3.49442 244.95 4.52455 247.103 6.58482C249.253 8.61607 250.329 11.3147 250.329 14.6808C250.329 18.1339 249.209 20.8762 246.971 22.9073C244.763 24.9095 241.841 25.9107 238.207 25.9107H231.013V39.1429H223.776ZM231.013 19.6864H237.205C238.978 19.6864 240.358 19.2511 241.347 18.3806C242.335 17.51 242.83 16.2768 242.83 14.6808C242.83 11.3728 240.969 9.71875 237.248 9.71875H231.013V19.6864ZM255.082 39.1429V3.49442H279.193V9.71875H262.318V17.6841H277.491V23.778H262.318V32.9621H279.671V39.1429H255.082ZM281.503 9.71875V3.49442H308.623V9.71875H298.681V39.1429H291.488V9.71875H281.503Z" fill="#58585A"/>
<path d="M2 41L41 2V41H2Z" fill="#58585A" stroke="#58585A"/>
</svg>
