<svg width="374" height="54" viewBox="0 0 374 54" fill="none" xmlns="http://www.w3.org/2000/svg">
<path d="M4.93945 3.48242C6.21387 3.48242 7.33008 3.94824 8.10352 4.73047H11.7246V2.62109H13.957V11.9902H11.7246V10.0742H8.08594C7.3125 10.8477 6.20508 11.3135 4.93945 11.3047C2.51367 11.3223 0.667969 9.65234 0.685547 7.40234C0.667969 5.11719 2.51367 3.48242 4.93945 3.48242ZM4.93945 5.39844C3.69141 5.39844 2.79492 6.13672 2.8125 7.40234C2.79492 8.63281 3.69141 9.42383 4.93945 9.40625C6.15234 9.42383 7.03125 8.63281 7.03125 7.40234C7.03125 6.13672 6.15234 5.39844 4.93945 5.39844ZM8.49023 12.3242C11.8828 12.3242 13.9922 13.4844 14.0098 15.4707C13.9922 17.457 11.8828 18.6172 8.49023 18.6172C5.11523 18.6172 2.98828 17.457 2.98828 15.4707C2.98828 13.4844 5.11523 12.3242 8.49023 12.3242ZM8.49023 14.0293C6.36328 14.0293 5.18555 14.5039 5.18555 15.4707C5.18555 16.4023 6.36328 16.877 8.49023 16.877C10.6523 16.877 11.8125 16.4023 11.8125 15.4707C11.8125 14.5039 10.6523 14.0293 8.49023 14.0293ZM9.07031 6.50586C9.12305 6.78711 9.1582 7.09473 9.1582 7.40234C9.1582 7.70996 9.12305 8 9.07031 8.28125H11.7246V6.50586H9.07031ZM30.6562 10.5312V12.3066H24.627V15.0664H22.4121V12.3066H16.0137V10.5312H30.6562ZM28.7754 3.32422V9.21289H17.8418V3.32422H28.7754ZM20.0391 5.06445V7.47266H26.5781V5.06445H20.0391ZM29.0391 16.543V18.3359H17.7363V13.6777H19.9688V16.543H29.0391ZM44.877 3.20117V5.01172H42.7852V7.77148H44.7715V9.51172H39.9902V11.0059H46.1777V12.7637H31.5879V11.0059H37.7402V9.51172H32.9766V7.77148H34.9453V5.01172H32.8711V3.20117H44.877ZM44.5254 16.543V18.3359H33.3457V13.8008H35.5957V16.543H44.5254ZM37.1953 7.77148H40.5352V5.01172H37.1953V7.77148ZM60.1875 10.8828V12.6582H48.8672V3.79883H60.0645V5.60938H51.1523V7.29688H59.6953V9.05469H51.1523V10.8828H60.1875ZM61.7871 14.9258V16.7539H47.1445V14.9258H61.7871Z" fill="#222222"/>
<path d="M7.686 49.288C6.294 49.288 5.076 48.976 4.032 48.352C2.988 47.716 2.184 46.834 1.62 45.706C1.056 44.566 0.774 43.27 0.774 41.818C0.774 40.402 1.08 39.142 1.692 38.038C2.316 36.922 3.18 36.052 4.284 35.428C5.4 34.804 6.66 34.492 8.064 34.492C9.156 34.492 10.164 34.696 11.088 35.104C12.024 35.5 12.792 36.088 13.392 36.868C14.004 37.636 14.382 38.56 14.526 39.64H11.322C11.178 38.98 10.806 38.464 10.206 38.092C9.618 37.708 8.88 37.516 7.992 37.516C6.744 37.516 5.76 37.894 5.04 38.65C4.332 39.394 3.978 40.42 3.978 41.728C3.978 43.144 4.332 44.254 5.04 45.058C5.748 45.862 6.72 46.264 7.956 46.264C8.976 46.264 9.792 46.03 10.404 45.562C11.028 45.094 11.352 44.5 11.376 43.78H7.83V41.188H14.778V49H12.24L12.186 47.11C11.766 47.842 11.196 48.388 10.476 48.748C9.768 49.108 8.838 49.288 7.686 49.288ZM21.7402 49.288C20.7682 49.288 19.8982 49.078 19.1302 48.658C18.3622 48.226 17.7622 47.632 17.3302 46.876C16.8982 46.12 16.6822 45.262 16.6822 44.302C16.6822 43.342 16.8982 42.49 17.3302 41.746C17.7622 40.99 18.3622 40.402 19.1302 39.982C19.8982 39.562 20.7682 39.352 21.7402 39.352C22.7242 39.352 23.6002 39.562 24.3682 39.982C25.1482 40.402 25.7542 40.99 26.1862 41.746C26.6182 42.49 26.8342 43.342 26.8342 44.302C26.8342 45.262 26.6182 46.12 26.1862 46.876C25.7542 47.632 25.1482 48.226 24.3682 48.658C23.6002 49.078 22.7242 49.288 21.7402 49.288ZM21.7402 46.75C22.3642 46.75 22.8742 46.522 23.2702 46.066C23.6662 45.61 23.8642 45.022 23.8642 44.302C23.8642 43.594 23.6662 43.018 23.2702 42.574C22.8742 42.118 22.3642 41.89 21.7402 41.89C21.1282 41.89 20.6242 42.118 20.2282 42.574C19.8322 43.03 19.6342 43.606 19.6342 44.302C19.6342 45.01 19.8322 45.598 20.2282 46.066C20.6242 46.522 21.1282 46.75 21.7402 46.75ZM33.4472 49.288C32.4752 49.288 31.6052 49.078 30.8372 48.658C30.0692 48.226 29.4692 47.632 29.0372 46.876C28.6052 46.12 28.3892 45.262 28.3892 44.302C28.3892 43.342 28.6052 42.49 29.0372 41.746C29.4692 40.99 30.0692 40.402 30.8372 39.982C31.6052 39.562 32.4752 39.352 33.4472 39.352C34.4312 39.352 35.3072 39.562 36.0752 39.982C36.8552 40.402 37.4612 40.99 37.8932 41.746C38.3252 42.49 38.5412 43.342 38.5412 44.302C38.5412 45.262 38.3252 46.12 37.8932 46.876C37.4612 47.632 36.8552 48.226 36.0752 48.658C35.3072 49.078 34.4312 49.288 33.4472 49.288ZM33.4472 46.75C34.0712 46.75 34.5812 46.522 34.9772 46.066C35.3732 45.61 35.5712 45.022 35.5712 44.302C35.5712 43.594 35.3732 43.018 34.9772 42.574C34.5812 42.118 34.0712 41.89 33.4472 41.89C32.8352 41.89 32.3312 42.118 31.9352 42.574C31.5392 43.03 31.3412 43.606 31.3412 44.302C31.3412 45.01 31.5392 45.598 31.9352 46.066C32.3312 46.522 32.8352 46.75 33.4472 46.75ZM44.0743 49.288C43.3063 49.288 42.6163 49.078 42.0043 48.658C41.4043 48.226 40.9363 47.632 40.6003 46.876C40.2643 46.12 40.0963 45.256 40.0963 44.284C40.0963 43.336 40.2643 42.49 40.6003 41.746C40.9363 40.99 41.4043 40.402 42.0043 39.982C42.6163 39.562 43.3063 39.352 44.0743 39.352C45.5023 39.352 46.5523 39.826 47.2243 40.774V34.78H50.1763V49H47.2243V47.866C46.5643 48.814 45.5143 49.288 44.0743 49.288ZM45.1363 46.75C45.7483 46.75 46.2463 46.522 46.6303 46.066C47.0263 45.598 47.2243 45.01 47.2243 44.302C47.2243 43.594 47.0263 43.018 46.6303 42.574C46.2463 42.118 45.7483 41.89 45.1363 41.89C44.5243 41.89 44.0203 42.118 43.6243 42.574C43.2403 43.018 43.0483 43.594 43.0483 44.302C43.0483 45.01 43.2403 45.598 43.6243 46.066C44.0203 46.522 44.5243 46.75 45.1363 46.75ZM63.871 49.288C62.647 49.288 61.567 49.084 60.631 48.676C59.695 48.256 58.963 47.656 58.435 46.876C57.919 46.096 57.661 45.178 57.661 44.122H61.171C61.195 44.842 61.447 45.406 61.927 45.814C62.407 46.222 63.079 46.426 63.943 46.426C64.783 46.426 65.431 46.276 65.887 45.976C66.355 45.676 66.589 45.268 66.589 44.752C66.589 44.38 66.451 44.092 66.175 43.888C65.911 43.672 65.581 43.522 65.185 43.438C64.789 43.354 64.219 43.264 63.475 43.168C62.359 43.036 61.441 42.868 60.721 42.664C60.001 42.46 59.383 42.07 58.867 41.494C58.351 40.906 58.093 40.066 58.093 38.974C58.093 38.062 58.321 37.27 58.777 36.598C59.233 35.914 59.887 35.392 60.739 35.032C61.591 34.672 62.599 34.492 63.763 34.492C64.915 34.492 65.935 34.684 66.823 35.068C67.723 35.44 68.419 35.986 68.911 36.706C69.415 37.414 69.667 38.254 69.667 39.226H66.211C66.163 38.638 65.923 38.182 65.491 37.858C65.059 37.522 64.465 37.354 63.709 37.354C62.941 37.354 62.347 37.486 61.927 37.75C61.507 38.014 61.297 38.392 61.297 38.884C61.297 39.28 61.429 39.586 61.693 39.802C61.969 40.018 62.317 40.174 62.737 40.27C63.157 40.354 63.739 40.438 64.483 40.522C65.599 40.654 66.511 40.822 67.219 41.026C67.939 41.23 68.551 41.62 69.055 42.196C69.571 42.772 69.829 43.606 69.829 44.698C69.829 45.61 69.589 46.414 69.109 47.11C68.629 47.794 67.939 48.328 67.039 48.712C66.139 49.096 65.083 49.288 63.871 49.288ZM74.9682 49.288C73.8042 49.288 72.9282 49.018 72.3402 48.478C71.7642 47.938 71.4762 47.272 71.4762 46.48C71.4762 45.652 71.8362 44.968 72.5562 44.428C73.2762 43.888 74.2902 43.534 75.5982 43.366L77.6862 43.114V42.916C77.6982 42.592 77.5782 42.34 77.3262 42.16C77.0742 41.98 76.7082 41.89 76.2282 41.89C75.7842 41.89 75.4302 41.986 75.1662 42.178C74.9142 42.37 74.7882 42.634 74.7882 42.97H71.8542C71.8542 41.83 72.2382 40.942 73.0062 40.306C73.7862 39.67 74.8722 39.352 76.2642 39.352C77.6562 39.352 78.7362 39.664 79.5042 40.288C80.2722 40.912 80.6562 41.788 80.6562 42.916V45.832C80.6562 46.204 80.6982 46.462 80.7822 46.606C80.8782 46.75 81.0582 46.822 81.3222 46.822L81.5382 46.804L81.5202 48.928C81.0402 49.024 80.6322 49.072 80.2962 49.072C79.6242 49.072 79.0962 48.934 78.7122 48.658C78.3282 48.37 78.0822 47.974 77.9742 47.47C77.4462 48.682 76.4442 49.288 74.9682 49.288ZM75.5622 47.128C76.1262 47.128 76.5762 46.954 76.9122 46.606C77.2482 46.246 77.4642 45.778 77.5602 45.202L76.9122 45.292C76.0242 45.412 75.3882 45.544 75.0042 45.688C74.6202 45.82 74.4282 46.03 74.4282 46.318C74.4282 46.582 74.5302 46.786 74.7342 46.93C74.9382 47.062 75.2142 47.128 75.5622 47.128ZM83.0481 39.64H86.0001V40.9C86.6841 39.868 87.7281 39.352 89.1321 39.352C91.4601 39.352 92.6241 40.84 92.6241 43.816V49H89.6181V43.96C89.6181 43.312 89.4621 42.808 89.1501 42.448C88.8501 42.076 88.4241 41.89 87.8721 41.89C87.2961 41.89 86.8401 42.094 86.5041 42.502C86.1681 42.91 86.0001 43.456 86.0001 44.14V49H83.0481V39.64ZM99.0923 49.288C97.6643 49.288 96.5363 48.994 95.7083 48.406C94.8803 47.818 94.4543 47.008 94.4303 45.976H97.3643C97.3883 46.384 97.5683 46.708 97.9043 46.948C98.2403 47.176 98.6603 47.29 99.1643 47.29C99.5963 47.29 99.9443 47.194 100.208 47.002C100.472 46.81 100.604 46.588 100.604 46.336C100.604 46.024 100.442 45.814 100.118 45.706C99.7943 45.586 99.2663 45.478 98.5343 45.382C97.7423 45.286 97.0883 45.166 96.5723 45.022C96.0563 44.866 95.6063 44.59 95.2223 44.194C94.8503 43.798 94.6643 43.228 94.6643 42.484C94.6643 41.512 95.0663 40.75 95.8703 40.198C96.6743 39.634 97.7843 39.352 99.2003 39.352C100.496 39.352 101.528 39.652 102.296 40.252C103.064 40.84 103.49 41.662 103.574 42.718H100.622C100.61 42.286 100.46 41.95 100.172 41.71C99.8963 41.47 99.5243 41.35 99.0563 41.35C98.6123 41.35 98.2583 41.44 97.9943 41.62C97.7423 41.8 97.6163 42.04 97.6163 42.34C97.6163 42.628 97.7723 42.826 98.0843 42.934C98.3963 43.042 98.9123 43.144 99.6323 43.24C100.436 43.336 101.102 43.462 101.63 43.618C102.158 43.762 102.614 44.044 102.998 44.464C103.382 44.872 103.574 45.46 103.574 46.228C103.574 47.188 103.178 47.938 102.386 48.478C101.594 49.018 100.496 49.288 99.0923 49.288Z" fill="#222222"/>
<path d="M204.201 2.63867V7.54297H206.363V9.37109H204.201V14.5742H201.951V2.63867H204.201ZM201.002 4.30859V6.08398H191.51V4.30859H195.148V2.60352H197.381V4.30859H201.002ZM196.256 6.64648C198.576 6.64648 200.193 7.89453 200.193 9.74023C200.193 11.5859 198.576 12.7988 196.256 12.7988C193.918 12.7988 192.283 11.5859 192.283 9.74023C192.283 7.89453 193.918 6.64648 196.256 6.64648ZM196.256 8.35156C195.184 8.36914 194.463 8.86133 194.48 9.74023C194.463 10.6191 195.184 11.0938 196.256 11.0938C197.328 11.0938 198.066 10.6191 198.066 9.74023C198.066 8.86133 197.328 8.36914 196.256 8.35156ZM204.781 16.543V18.3359H193.83V13.6602H196.062V16.543H204.781ZM219.969 3.27148V4.36133C219.969 5.38965 219.969 6.67285 219.67 8.28125H221.709V10.0391H207.066V8.28125H217.402C217.666 6.98047 217.719 5.93457 217.736 5.04688H208.859V3.27148H219.969ZM219.898 11.1641V15.6465H210.969V16.7715H220.338V18.4941H208.736V13.959H217.684V12.9043H208.719V11.1641H219.898ZM235.912 3.20117V5.01172H233.82V7.77148H235.807V9.51172H231.025V11.0059H237.213V12.7637H222.623V11.0059H228.775V9.51172H224.012V7.77148H225.98V5.01172H223.906V3.20117H235.912ZM235.561 16.543V18.3359H224.381V13.8008H226.631V16.543H235.561ZM228.23 7.77148H231.57V5.01172H228.23V7.77148ZM251.223 10.8828V12.6582H239.902V3.79883H251.1V5.60938H242.188V7.29688H250.73V9.05469H242.188V10.8828H251.223ZM252.822 14.9258V16.7539H238.18V14.9258H252.822Z" fill="#222222"/>
<path d="M196.651 49.252C195.751 49.252 194.875 49.084 194.023 48.748C193.183 48.412 192.439 47.932 191.791 47.308L193.321 45.472C193.801 45.916 194.335 46.276 194.923 46.552C195.523 46.816 196.117 46.948 196.705 46.948C197.401 46.948 197.929 46.81 198.289 46.534C198.649 46.258 198.829 45.886 198.829 45.418C198.829 45.166 198.781 44.956 198.685 44.788C198.589 44.62 198.451 44.47 198.271 44.338C198.103 44.206 197.893 44.086 197.641 43.978C197.401 43.87 197.131 43.75 196.831 43.618L195.049 42.862C194.581 42.67 194.143 42.418 193.735 42.106C193.339 41.794 193.009 41.41 192.745 40.954C192.481 40.486 192.349 39.928 192.349 39.28C192.349 38.74 192.463 38.236 192.691 37.768C192.919 37.288 193.237 36.88 193.645 36.544C194.053 36.196 194.539 35.926 195.103 35.734C195.667 35.53 196.285 35.428 196.957 35.428C197.749 35.428 198.505 35.578 199.225 35.878C199.957 36.166 200.593 36.586 201.133 37.138L199.783 38.812C199.363 38.464 198.925 38.194 198.469 38.002C198.013 37.81 197.509 37.714 196.957 37.714C196.369 37.714 195.901 37.84 195.553 38.092C195.205 38.332 195.031 38.674 195.031 39.118C195.031 39.346 195.085 39.544 195.193 39.712C195.313 39.88 195.463 40.03 195.643 40.162C195.835 40.294 196.057 40.42 196.309 40.54C196.561 40.648 196.831 40.756 197.119 40.864L198.865 41.602C199.693 41.938 200.347 42.382 200.827 42.934C201.307 43.486 201.547 44.248 201.547 45.22C201.547 45.76 201.433 46.276 201.205 46.768C200.989 47.26 200.671 47.692 200.251 48.064C199.831 48.424 199.315 48.712 198.703 48.928C198.103 49.144 197.419 49.252 196.651 49.252ZM205.85 38.92L206.03 39.964H206.102C206.522 39.604 206.984 39.298 207.488 39.046C208.004 38.794 208.532 38.668 209.072 38.668C209.696 38.668 210.248 38.794 210.728 39.046C211.22 39.286 211.634 39.628 211.97 40.072C212.318 40.516 212.582 41.056 212.762 41.692C212.942 42.316 213.032 43.018 213.032 43.798C213.032 44.662 212.912 45.436 212.672 46.12C212.432 46.792 212.114 47.362 211.718 47.83C211.322 48.286 210.866 48.64 210.35 48.892C209.834 49.132 209.3 49.252 208.748 49.252C208.304 49.252 207.872 49.156 207.452 48.964C207.032 48.772 206.63 48.502 206.246 48.154L206.318 49.81V52.87H203.69V38.92H205.85ZM208.154 47.074C208.766 47.074 209.276 46.816 209.684 46.3C210.104 45.772 210.314 44.95 210.314 43.834C210.314 42.862 210.152 42.124 209.828 41.62C209.516 41.104 209.012 40.846 208.316 40.846C207.968 40.846 207.632 40.936 207.308 41.116C206.996 41.284 206.666 41.542 206.318 41.89V46.318C206.642 46.594 206.96 46.792 207.272 46.912C207.584 47.02 207.878 47.074 208.154 47.074ZM219.486 49.252C218.862 49.252 218.256 49.132 217.668 48.892C217.08 48.652 216.564 48.31 216.12 47.866C215.676 47.41 215.316 46.858 215.04 46.21C214.776 45.55 214.644 44.806 214.644 43.978C214.644 43.138 214.776 42.388 215.04 41.728C215.316 41.068 215.676 40.516 216.12 40.072C216.564 39.616 217.08 39.268 217.668 39.028C218.256 38.788 218.862 38.668 219.486 38.668C220.122 38.668 220.728 38.788 221.304 39.028C221.892 39.268 222.408 39.616 222.852 40.072C223.296 40.516 223.65 41.068 223.914 41.728C224.19 42.388 224.328 43.138 224.328 43.978C224.328 44.806 224.19 45.55 223.914 46.21C223.65 46.858 223.296 47.41 222.852 47.866C222.408 48.31 221.892 48.652 221.304 48.892C220.728 49.132 220.122 49.252 219.486 49.252ZM219.486 47.092C220.17 47.092 220.698 46.81 221.07 46.246C221.442 45.682 221.628 44.926 221.628 43.978C221.628 43.006 221.442 42.238 221.07 41.674C220.698 41.11 220.17 40.828 219.486 40.828C218.802 40.828 218.274 41.11 217.902 41.674C217.53 42.238 217.344 43.006 217.344 43.978C217.344 44.926 217.53 45.682 217.902 46.246C218.274 46.81 218.802 47.092 219.486 47.092ZM232.751 48.046C232.403 48.394 231.995 48.682 231.527 48.91C231.071 49.138 230.591 49.252 230.087 49.252C229.463 49.252 228.893 49.132 228.377 48.892C227.873 48.652 227.441 48.304 227.081 47.848C226.721 47.392 226.445 46.84 226.253 46.192C226.061 45.544 225.965 44.806 225.965 43.978C225.965 43.15 226.079 42.412 226.307 41.764C226.547 41.104 226.865 40.546 227.261 40.09C227.657 39.634 228.107 39.286 228.611 39.046C229.127 38.794 229.655 38.668 230.195 38.668C230.771 38.668 231.269 38.77 231.689 38.974C232.109 39.178 232.523 39.49 232.931 39.91H233.003L233.219 38.92H235.289V52.87H232.643V49.666L232.751 48.046ZM230.771 47.074C231.119 47.074 231.443 46.996 231.743 46.84C232.055 46.684 232.355 46.414 232.643 46.03V41.602C232.331 41.326 232.019 41.134 231.707 41.026C231.395 40.906 231.083 40.846 230.771 40.846C230.483 40.846 230.213 40.912 229.961 41.044C229.709 41.176 229.487 41.374 229.295 41.638C229.115 41.902 228.965 42.226 228.845 42.61C228.737 42.994 228.683 43.438 228.683 43.942C228.683 46.03 229.379 47.074 230.771 47.074ZM240.609 49.18C240.165 49.18 239.757 49.114 239.385 48.982C239.013 48.838 238.695 48.64 238.431 48.388C238.179 48.124 237.981 47.812 237.837 47.452C237.693 47.092 237.621 46.696 237.621 46.264C237.561 45.028 237.987 44.116 238.899 43.528C239.823 42.928 241.329 42.598 243.417 42.538C243.465 42.118 243.387 41.692 243.183 41.26C242.967 40.948 242.475 40.792 241.707 40.792C241.239 40.792 240.747 40.876 240.231 41.044C239.727 41.212 239.247 41.446 238.791 41.746L237.999 39.856C238.551 39.52 239.187 39.238 239.907 39.01C240.639 38.782 241.401 38.668 242.193 38.668C244.773 38.668 246.063 40.15 246.063 43.114V49H243.903L243.705 47.974H243.651C243.219 48.346 242.745 48.64 242.229 48.856C241.725 49.072 241.185 49.18 240.609 49.18ZM241.419 47.164C241.803 47.152 242.151 47.068 242.463 46.912C242.787 46.744 243.105 46.504 243.417 46.192V44.158C243.105 44.182 242.793 44.212 242.481 44.248C242.181 44.272 241.887 44.308 241.599 44.356C241.023 44.44 240.615 44.614 240.375 44.878C240.147 45.142 240.039 45.454 240.051 45.814C240.063 46.234 240.195 46.564 240.447 46.804C240.711 47.044 241.035 47.164 241.419 47.164ZM255.718 35.68V40.918H260.758V35.68H263.404V49H260.758V43.24H255.718V49H253.054V35.68H255.718ZM268.945 49.18C268.501 49.18 268.093 49.114 267.721 48.982C267.349 48.838 267.031 48.64 266.767 48.388C266.515 48.124 266.317 47.812 266.173 47.452C266.029 47.092 265.957 46.696 265.957 46.264C265.897 45.028 266.323 44.116 267.235 43.528C268.159 42.928 269.665 42.598 271.753 42.538C271.801 42.118 271.723 41.692 271.519 41.26C271.303 40.948 270.811 40.792 270.043 40.792C269.575 40.792 269.083 40.876 268.567 41.044C268.063 41.212 267.583 41.446 267.127 41.746L266.335 39.856C266.887 39.52 267.523 39.238 268.243 39.01C268.975 38.782 269.737 38.668 270.529 38.668C273.109 38.668 274.399 40.15 274.399 43.114V49H272.239L272.041 47.974H271.987C271.555 48.346 271.081 48.64 270.565 48.856C270.061 49.072 269.521 49.18 268.945 49.18ZM269.755 47.164C270.139 47.152 270.487 47.068 270.799 46.912C271.123 46.744 271.441 46.504 271.753 46.192V44.158C271.441 44.182 271.129 44.212 270.817 44.248C270.517 44.272 270.223 44.308 269.935 44.356C269.359 44.44 268.951 44.614 268.711 44.878C268.483 45.142 268.375 45.454 268.387 45.814C268.399 46.234 268.531 46.564 268.783 46.804C269.047 47.044 269.371 47.164 269.755 47.164ZM279.256 38.92L279.436 40.252H279.508C279.952 39.82 280.438 39.448 280.966 39.136C281.494 38.824 282.1 38.668 282.784 38.668C283.876 38.668 284.668 39.028 285.16 39.748C285.652 40.456 285.898 41.446 285.898 42.718V49H283.252V43.042C283.252 42.262 283.138 41.716 282.91 41.404C282.694 41.092 282.334 40.936 281.83 40.936C281.41 40.936 281.05 41.032 280.75 41.224C280.45 41.416 280.108 41.698 279.724 42.07V49H277.096V38.92H279.256ZM296.899 49.252C295.999 49.252 295.123 49.084 294.271 48.748C293.431 48.412 292.687 47.932 292.039 47.308L293.569 45.472C294.049 45.916 294.583 46.276 295.171 46.552C295.771 46.816 296.365 46.948 296.953 46.948C297.649 46.948 298.177 46.81 298.537 46.534C298.897 46.258 299.077 45.886 299.077 45.418C299.077 45.166 299.029 44.956 298.933 44.788C298.837 44.62 298.699 44.47 298.519 44.338C298.351 44.206 298.141 44.086 297.889 43.978C297.649 43.87 297.379 43.75 297.079 43.618L295.297 42.862C294.829 42.67 294.391 42.418 293.983 42.106C293.587 41.794 293.257 41.41 292.993 40.954C292.729 40.486 292.597 39.928 292.597 39.28C292.597 38.74 292.711 38.236 292.939 37.768C293.167 37.288 293.485 36.88 293.893 36.544C294.301 36.196 294.787 35.926 295.351 35.734C295.915 35.53 296.533 35.428 297.205 35.428C297.997 35.428 298.753 35.578 299.473 35.878C300.205 36.166 300.841 36.586 301.381 37.138L300.031 38.812C299.611 38.464 299.173 38.194 298.717 38.002C298.261 37.81 297.757 37.714 297.205 37.714C296.617 37.714 296.149 37.84 295.801 38.092C295.453 38.332 295.279 38.674 295.279 39.118C295.279 39.346 295.333 39.544 295.441 39.712C295.561 39.88 295.711 40.03 295.891 40.162C296.083 40.294 296.305 40.42 296.557 40.54C296.809 40.648 297.079 40.756 297.367 40.864L299.113 41.602C299.941 41.938 300.595 42.382 301.075 42.934C301.555 43.486 301.795 44.248 301.795 45.22C301.795 45.76 301.681 46.276 301.453 46.768C301.237 47.26 300.919 47.692 300.499 48.064C300.079 48.424 299.563 48.712 298.951 48.928C298.351 49.144 297.667 49.252 296.899 49.252ZM306.422 49.18C305.978 49.18 305.57 49.114 305.198 48.982C304.826 48.838 304.508 48.64 304.244 48.388C303.992 48.124 303.794 47.812 303.65 47.452C303.506 47.092 303.434 46.696 303.434 46.264C303.374 45.028 303.8 44.116 304.712 43.528C305.636 42.928 307.142 42.598 309.23 42.538C309.278 42.118 309.2 41.692 308.996 41.26C308.78 40.948 308.288 40.792 307.52 40.792C307.052 40.792 306.56 40.876 306.044 41.044C305.54 41.212 305.06 41.446 304.604 41.746L303.812 39.856C304.364 39.52 305 39.238 305.72 39.01C306.452 38.782 307.214 38.668 308.006 38.668C310.586 38.668 311.876 40.15 311.876 43.114V49H309.716L309.518 47.974H309.464C309.032 48.346 308.558 48.64 308.042 48.856C307.538 49.072 306.998 49.18 306.422 49.18ZM307.232 47.164C307.616 47.152 307.964 47.068 308.276 46.912C308.6 46.744 308.918 46.504 309.23 46.192V44.158C308.918 44.182 308.606 44.212 308.294 44.248C307.994 44.272 307.7 44.308 307.412 44.356C306.836 44.44 306.428 44.614 306.188 44.878C305.96 45.142 305.852 45.454 305.864 45.814C305.876 46.234 306.008 46.564 306.26 46.804C306.524 47.044 306.848 47.164 307.232 47.164ZM316.732 38.92L316.912 40.252H316.984C317.428 39.82 317.914 39.448 318.442 39.136C318.97 38.824 319.576 38.668 320.26 38.668C321.352 38.668 322.144 39.028 322.636 39.748C323.128 40.456 323.374 41.446 323.374 42.718V49H320.728V43.042C320.728 42.262 320.614 41.716 320.386 41.404C320.17 41.092 319.81 40.936 319.306 40.936C318.886 40.936 318.526 41.032 318.226 41.224C317.926 41.416 317.584 41.698 317.2 42.07V49H314.572V38.92H316.732ZM328.984 49.252C328.3 49.252 327.616 49.12 326.932 48.856C326.248 48.592 325.654 48.25 325.15 47.83L326.356 46.174C326.812 46.522 327.256 46.792 327.688 46.984C328.132 47.176 328.588 47.272 329.056 47.272C329.56 47.272 329.926 47.176 330.154 46.984C330.394 46.78 330.514 46.522 330.514 46.21C330.514 46.018 330.454 45.856 330.334 45.724C330.214 45.58 330.052 45.454 329.848 45.346C329.656 45.226 329.434 45.118 329.182 45.022C328.93 44.914 328.672 44.806 328.408 44.698C328.084 44.578 327.76 44.44 327.436 44.284C327.112 44.116 326.818 43.918 326.554 43.69C326.29 43.45 326.074 43.174 325.906 42.862C325.738 42.55 325.654 42.184 325.654 41.764C325.654 41.308 325.744 40.894 325.924 40.522C326.104 40.138 326.356 39.808 326.68 39.532C327.004 39.256 327.394 39.046 327.85 38.902C328.318 38.746 328.834 38.668 329.398 38.668C330.154 38.668 330.808 38.8 331.36 39.064C331.924 39.316 332.416 39.598 332.836 39.91L331.648 41.512C331.288 41.26 330.928 41.056 330.568 40.9C330.22 40.732 329.854 40.648 329.47 40.648C329.014 40.648 328.678 40.738 328.462 40.918C328.246 41.098 328.138 41.332 328.138 41.62C328.138 41.8 328.192 41.956 328.3 42.088C328.42 42.22 328.576 42.34 328.768 42.448C328.96 42.556 329.176 42.658 329.416 42.754C329.668 42.838 329.926 42.928 330.19 43.024C330.526 43.156 330.856 43.3 331.18 43.456C331.516 43.612 331.816 43.804 332.08 44.032C332.356 44.26 332.578 44.542 332.746 44.878C332.914 45.202 332.998 45.598 332.998 46.066C332.998 46.51 332.908 46.924 332.728 47.308C332.56 47.692 332.308 48.028 331.972 48.316C331.636 48.604 331.216 48.832 330.712 49C330.22 49.168 329.644 49.252 328.984 49.252ZM342.028 35.68L345.898 42.772L347.23 45.652H347.32C347.248 44.956 347.17 44.194 347.086 43.366C347.014 42.538 346.978 41.746 346.978 40.99V35.68H349.498V49H346.798L342.946 41.872L341.596 39.01H341.506C341.566 39.73 341.632 40.492 341.704 41.296C341.788 42.1 341.83 42.886 341.83 43.654V49H339.31V35.68H342.028ZM356.95 49.252C356.254 49.252 355.6 49.132 354.988 48.892C354.376 48.652 353.842 48.31 353.386 47.866C352.942 47.41 352.588 46.858 352.324 46.21C352.072 45.55 351.946 44.806 351.946 43.978C351.946 43.162 352.078 42.43 352.342 41.782C352.606 41.122 352.954 40.564 353.386 40.108C353.83 39.64 354.334 39.286 354.898 39.046C355.462 38.794 356.044 38.668 356.644 38.668C357.34 38.668 357.946 38.788 358.462 39.028C358.99 39.268 359.428 39.604 359.776 40.036C360.136 40.468 360.406 40.978 360.586 41.566C360.766 42.154 360.856 42.796 360.856 43.492C360.856 43.732 360.844 43.966 360.82 44.194C360.796 44.41 360.766 44.578 360.73 44.698H354.52C354.628 45.526 354.928 46.156 355.42 46.588C355.924 47.008 356.554 47.218 357.31 47.218C357.73 47.218 358.12 47.158 358.48 47.038C358.852 46.918 359.218 46.744 359.578 46.516L360.478 48.136C359.974 48.484 359.422 48.76 358.822 48.964C358.222 49.156 357.598 49.252 356.95 49.252ZM358.588 42.952C358.588 42.268 358.432 41.728 358.12 41.332C357.808 40.924 357.328 40.72 356.68 40.72C356.152 40.72 355.678 40.912 355.258 41.296C354.838 41.668 354.58 42.22 354.484 42.952H358.588ZM367.247 49.252C366.623 49.252 366.017 49.132 365.429 48.892C364.841 48.652 364.325 48.31 363.881 47.866C363.437 47.41 363.077 46.858 362.801 46.21C362.537 45.55 362.405 44.806 362.405 43.978C362.405 43.138 362.537 42.388 362.801 41.728C363.077 41.068 363.437 40.516 363.881 40.072C364.325 39.616 364.841 39.268 365.429 39.028C366.017 38.788 366.623 38.668 367.247 38.668C367.883 38.668 368.489 38.788 369.065 39.028C369.653 39.268 370.169 39.616 370.613 40.072C371.057 40.516 371.411 41.068 371.675 41.728C371.951 42.388 372.089 43.138 372.089 43.978C372.089 44.806 371.951 45.55 371.675 46.21C371.411 46.858 371.057 47.41 370.613 47.866C370.169 48.31 369.653 48.652 369.065 48.892C368.489 49.132 367.883 49.252 367.247 49.252ZM367.247 47.092C367.931 47.092 368.459 46.81 368.831 46.246C369.203 45.682 369.389 44.926 369.389 43.978C369.389 43.006 369.203 42.238 368.831 41.674C368.459 41.11 367.931 40.828 367.247 40.828C366.563 40.828 366.035 41.11 365.663 41.674C365.291 42.238 365.105 43.006 365.105 43.978C365.105 44.926 365.291 45.682 365.663 46.246C366.035 46.81 366.563 47.092 367.247 47.092Z" fill="#222222"/>
</svg>
